<?xml version="1.0" encoding="utf-8"?>
<!-- Generator: Adobe Illustrator 15.1.0, SVG Export Plug-In . SVG Version: 6.00 Build 0)  -->
<!DOCTYPE svg PUBLIC "-//W3C//DTD SVG 1.1//EN" "http://www.w3.org/Graphics/SVG/1.1/DTD/svg11.dtd">
<svg version="1.1" id="Capa_1" xmlns="http://www.w3.org/2000/svg" xmlns:xlink="http://www.w3.org/1999/xlink" x="0px" y="0px"
	 width="156px" height="156px" viewBox="0 0 156 156" enable-background="new 0 0 156 156" xml:space="preserve">
<g>
	<defs>
		<circle id="SVGID_1_" cx="78.181" cy="77.763" r="77.723"/>
	</defs>
	<clipPath id="SVGID_2_">
		<use xlink:href="#SVGID_1_"  overflow="visible"/>
	</clipPath>
	<g clip-path="url(#SVGID_2_)">
		<circle fill="#F9AD94" cx="78.181" cy="76.723" r="77.723"/>
		<g>
			
				<path fill="#7B5944" stroke="#5B3F2A" stroke-width="1.5" stroke-linecap="round" stroke-linejoin="round" stroke-miterlimit="10" d="
				M103.421,154.383H54.154c-2.464,0-4.462-5.066-4.462-11.307V82.301c0-6.241,1.998-11.303,4.462-11.303h49.267
				C105.886,70.998,119.76,149.459,103.421,154.383z"/>
			
				<rect x="71.518" y="118.497" fill="#F3D8C0" stroke="#687D89" stroke-width="1.5" stroke-miterlimit="10" width="13.44" height="27.198"/>
			<g>
				<g>
					<path fill="#CBC5C9" d="M85.263,131.213c0,0-1.632,9.828-7.083,9.969c-3.669,0.095-6.759-8.94-6.759-8.94
						c-3.503,0.532-19.333,5.577-19.333,7.905v14.299h52.185v-13.566C104.272,138.45,87.829,131.213,85.263,131.213z"/>
					<g>
						<defs>
							<path id="SVGID_3_" d="M85.263,131.213c0,0-1.632,10.267-7.083,10.415c-3.669,0.099-6.759-9.342-6.759-9.342
								c-3.503,0.557-19.333,5.828-19.333,8.26v14.939h52.185v-14.174C104.272,138.774,87.829,131.213,85.263,131.213z"/>
						</defs>
						<clipPath id="SVGID_4_">
							<use xlink:href="#SVGID_3_"  overflow="visible"/>
						</clipPath>
						<g clip-path="url(#SVGID_4_)">
							<rect x="52.704" y="140.65" fill="#CBC5C9" width="4.572" height="4.775"/>
							<rect x="52.704" y="145.426" fill="#C6BFC3" width="4.572" height="4.779"/>
							<rect x="52.704" y="150.205" fill="#CBC5C9" width="4.572" height="4.779"/>
							<rect x="52.704" y="135.869" fill="#C6BFC3" width="4.572" height="4.781"/>
							<rect x="57.276" y="140.65" fill="#D7D6D8" width="4.577" height="4.775"/>
							<rect x="57.276" y="135.869" fill="#E1DEE0" width="4.577" height="4.781"/>
							<rect x="57.276" y="150.205" fill="#D7D6D8" width="4.577" height="4.779"/>
							<rect x="57.276" y="145.426" fill="#E1DEE0" width="4.577" height="4.779"/>
							<rect x="61.854" y="140.65" fill="#CBC5C9" width="4.573" height="4.775"/>
							<rect x="61.854" y="145.426" fill="#C6BFC3" width="4.573" height="4.779"/>
							<rect x="61.854" y="150.205" fill="#CBC5C9" width="4.573" height="4.779"/>
							<rect x="61.854" y="135.869" fill="#C6BFC3" width="4.573" height="4.781"/>
							<rect x="61.854" y="133.746" fill="#CBC5C9" width="4.573" height="2.123"/>
							<rect x="66.427" y="140.65" fill="#D7D6D8" width="4.571" height="4.775"/>
							<rect x="66.427" y="135.869" fill="#E1DEE0" width="4.571" height="4.781"/>
							<rect x="66.427" y="150.205" fill="#D7D6D8" width="4.571" height="4.779"/>
							<rect x="66.427" y="145.426" fill="#E1DEE0" width="4.571" height="4.779"/>
							<rect x="66.427" y="132.347" fill="#D7D6D8" width="4.571" height="3.522"/>
							<rect x="70.998" y="140.65" fill="#CBC5C9" width="4.571" height="4.775"/>
							<rect x="70.998" y="145.426" fill="#C6BFC3" width="4.571" height="4.779"/>
							<rect x="70.998" y="150.205" fill="#CBC5C9" width="4.571" height="4.779"/>
							<rect x="70.998" y="135.869" fill="#C6BFC3" width="4.571" height="4.781"/>
							<rect x="70.998" y="132.347" fill="#CBC5C9" width="4.571" height="3.522"/>
							<rect x="75.569" y="140.65" fill="#D7D6D8" width="4.573" height="4.775"/>
							<rect x="75.569" y="150.205" fill="#D7D6D8" width="4.573" height="4.779"/>
							<rect x="75.569" y="145.426" fill="#E1DEE0" width="4.573" height="4.779"/>
							<rect x="80.143" y="140.65" fill="#CBC5C9" width="4.575" height="4.775"/>
							<rect x="80.143" y="145.426" fill="#C6BFC3" width="4.575" height="4.779"/>
							<rect x="80.143" y="150.205" fill="#CBC5C9" width="4.575" height="4.779"/>
							<rect x="80.143" y="135.909" fill="#C6BFC3" width="4.575" height="4.741"/>
							<rect x="84.718" y="140.65" fill="#D7D6D8" width="4.572" height="4.775"/>
							<rect x="84.718" y="135.869" fill="#E1DEE0" width="4.572" height="4.781"/>
							<rect x="84.718" y="150.205" fill="#D7D6D8" width="4.572" height="4.779"/>
							<rect x="84.718" y="145.426" fill="#E1DEE0" width="4.572" height="4.779"/>
							<rect x="84.718" y="132.347" fill="#D7D6D8" width="4.572" height="3.522"/>
							<rect x="93.862" y="140.65" fill="#D7D6D8" width="4.574" height="4.775"/>
							<rect x="93.862" y="135.869" fill="#E1DEE0" width="4.574" height="4.781"/>
							<rect x="93.862" y="150.205" fill="#D7D6D8" width="4.574" height="4.779"/>
							<rect x="93.862" y="145.426" fill="#E1DEE0" width="4.574" height="4.779"/>
							<rect x="93.862" y="132.347" fill="#D7D6D8" width="4.574" height="3.522"/>
							<rect x="89.29" y="140.65" fill="#CBC5C9" width="4.572" height="4.775"/>
							<rect x="89.29" y="145.426" fill="#C6BFC3" width="4.572" height="4.779"/>
							<rect x="89.29" y="150.205" fill="#CBC5C9" width="4.572" height="4.779"/>
							<rect x="89.29" y="135.869" fill="#C6BFC3" width="4.572" height="4.781"/>
							<rect x="89.29" y="132.347" fill="#CBC5C9" width="4.572" height="3.522"/>
							<rect x="84.718" y="127.566" fill="#E1DEE0" width="4.572" height="4.78"/>
							<rect x="98.437" y="140.65" fill="#CBC5C9" width="4.572" height="4.775"/>
							<rect x="98.437" y="145.426" fill="#C6BFC3" width="4.572" height="4.779"/>
							<rect x="98.437" y="150.205" fill="#CBC5C9" width="4.572" height="4.779"/>
							<rect x="98.437" y="135.869" fill="#C6BFC3" width="4.572" height="4.781"/>
							<rect x="103.009" y="140.65" fill="#D7D6D8" width="4.576" height="4.775"/>
							<rect x="103.009" y="135.869" fill="#E1DEE0" width="4.576" height="4.781"/>
							<rect x="103.009" y="150.205" fill="#D7D6D8" width="4.576" height="4.779"/>
							<rect x="103.009" y="145.426" fill="#E1DEE0" width="4.576" height="4.779"/>
						</g>
					</g>
					
						<path fill="none" stroke="#687D89" stroke-width="1.5" stroke-linecap="round" stroke-linejoin="round" stroke-miterlimit="10" d="
						M85.263,131.213c0,0-1.632,9.828-7.083,9.969c-3.669,0.095-6.759-8.94-6.759-8.94c-3.503,0.532-19.333,5.577-19.333,7.905
						v17.577l52.185,1.064v-17.909C104.272,138.45,87.829,131.213,85.263,131.213z"/>
				</g>
				
					<path fill="none" stroke="#FFFFFF" stroke-width="1.5" stroke-linecap="round" stroke-linejoin="round" stroke-miterlimit="10" d="
					M71.763,135.82c0,0,5.935,13.848,13.271,0.517"/>
				
					<path fill="none" stroke="#687D89" stroke-width="1.5" stroke-linecap="round" stroke-linejoin="round" stroke-miterlimit="10" d="
					M71.208,137.491c0,0,6.972,13.327,14.311,0"/>
				
					<path fill="none" stroke="#687D89" stroke-width="1.5" stroke-linecap="round" stroke-linejoin="round" stroke-miterlimit="10" d="
					M85.519,131.213v10.3c0,0,3.732-3.195,5.808,0.373v-8.993L85.519,131.213z"/>
				
					<path fill="none" stroke="#687D89" stroke-width="1.5" stroke-linecap="round" stroke-linejoin="round" stroke-miterlimit="10" d="
					M71.208,132.153v10.302c0,0-3.731-3.194-5.807,0.374v-8.993L71.208,132.153z"/>
			</g>
			
				<ellipse fill="#F3D8C0" stroke="#687D89" stroke-width="1.5" stroke-miterlimit="10" cx="106.273" cy="92.916" rx="4.079" ry="5.021"/>
			
				<path fill="#7B5944" stroke="#5B3F2A" stroke-width="1.5" stroke-linecap="round" stroke-linejoin="round" stroke-miterlimit="10" d="
				M52.929,76.955c0,0-10.424,31.603,8.28,42.333c0,0,15.67,10.526,7.155,35.095h-21.05C47.314,154.383,34.595,92.464,52.929,76.955
				z"/>
			<path fill="#F3D8C0" stroke="#687D89" stroke-width="1.5" stroke-miterlimit="10" d="M105.653,87.289
				c0-9.429-8.561-25.227-19.346-25.227H72.462c-10.782,0-19.533,15.798-19.533,25.227v11.379c0,1.093,0,5.881,0,7.088
				c0,11.798,11.805,21.361,26.364,21.361c14.559,0,26.36-9.563,26.36-21.361c0-1.162,0-5.957,0-7.088V87.289z"/>
			<path fill="#F0CBC5" d="M94.521,102.351c-2.87,0-5.195-2.412-5.195-5.384c0-2.975,2.325-5.388,5.195-5.388
				c2.869,0,5.193,2.413,5.193,5.388C99.714,99.938,97.39,102.351,94.521,102.351z"/>
			<path fill="#7B5944" stroke="#5B3F2A" stroke-width="1.5" stroke-linejoin="round" stroke-miterlimit="10" d="M98.641,63.441
				c-7.185-4.271-16.097-6.068-19.288-2.661c-0.042,0.045-8.963-3.02-19.6,2.225c-8.124,4.003-12.624,15.67-9.999,18.62
				c2.626,2.956,27.189-1.629,29.343-14.755c0.256,13.125,25.598,16.534,28.786,13.126C111.079,76.588,105.821,67.716,98.641,63.441
				z"/>
			<path fill="#C9A1A0" stroke="#687D89" stroke-width="1.5" stroke-miterlimit="10" d="M84.79,109.414
				c0,3.621-2.436,6.553-5.439,6.553s-5.438-2.932-5.438-6.553H84.79z"/>
			<path fill="#F0CBC5" d="M63.457,102.35c-2.87,0-5.197-2.412-5.197-5.384c0-2.977,2.327-5.389,5.197-5.389
				c2.868,0,5.194,2.412,5.194,5.389C68.651,99.938,66.325,102.35,63.457,102.35z"/>
			<g>
				<ellipse fill="#687D89" cx="93.069" cy="89.066" rx="1.412" ry="2.331"/>
				<ellipse fill="#687D89" cx="65.512" cy="89.501" rx="1.411" ry="2.331"/>
			</g>
			<g>
				<path fill="none" stroke="#CBCBC5" stroke-width="1.5" stroke-miterlimit="10" d="M76.3,86.592c0,0,2.882-3.716,5.766-0.507"/>
				<path fill="none" stroke="#687D89" stroke-width="1.5" stroke-miterlimit="10" d="M104.521,88.389
					c0,5.018-3.886,8.591-9.671,8.591c-5.788,0-12.808-4.069-12.808-9.086c0-5.02-0.073-9.542,12.538-10.074
					C100.223,77.582,104.521,77.582,104.521,88.389z"/>
				<path fill="none" stroke="#687D89" stroke-width="1.5" stroke-miterlimit="10" d="M53.322,86.355
					c0-5.019,3.972-8.593,9.886-8.593S76.3,81.83,76.3,86.85c0,5.016,0.074,9.541-12.814,10.069
					C57.718,97.16,53.322,97.16,53.322,86.355z"/>
			</g>
			<path fill="#F0CBC5" d="M84.198,95.958c0,2.738-2.065,4.955-4.615,4.955c-2.551,0-4.499-1.558-4.964-4.955"/>
			<path fill="none" stroke="#687D89" stroke-width="1.5" stroke-miterlimit="10" d="M85.109,93.717c0,4.35-2.506,7.872-5.599,7.872
				c-3.092,0-5.598-3.522-5.598-7.872"/>
			
				<path fill="none" stroke="#5B3F2A" stroke-width="1.5" stroke-linecap="round" stroke-linejoin="round" stroke-miterlimit="10" d="
				M82.94,66.631c0,0,16.033,16.576,30.797,4.612"/>
			
				<path fill="none" stroke="#5B3F2A" stroke-width="1.5" stroke-linecap="round" stroke-linejoin="round" stroke-miterlimit="10" d="
				M105.223,132.518c0,0,6.087-13.833,1.051-23.104c0,0,1.729,16.002-11.753,18.718"/>
			
				<path fill="none" stroke="#5B3F2A" stroke-width="1.5" stroke-linecap="round" stroke-linejoin="round" stroke-miterlimit="10" d="
				M85.84,62.156c0,0,14.523,16.575,27.897,4.612"/>
			
				<path fill="none" stroke="#5B3F2A" stroke-width="1.5" stroke-linecap="round" stroke-linejoin="round" stroke-miterlimit="10" d="
				M76.782,66.631c0,0-9.157,14.673-26.177,13.586"/>
			
				<path fill="none" stroke="#5B3F2A" stroke-width="1.5" stroke-linecap="round" stroke-linejoin="round" stroke-miterlimit="10" d="
				M60.116,154.383c0,0,5.162-18.713-8.116-43.731"/>
			
				<path fill="none" stroke="#788893" stroke-width="1.5" stroke-linecap="round" stroke-linejoin="round" stroke-miterlimit="10" d="
				M82.999,120.642c0,0-2.973,1.231-6.977,0.299"/>
			
				<line fill="none" stroke="#788893" stroke-width="1.5" stroke-linecap="round" stroke-miterlimit="10" x1="59.221" y1="84.971" x2="66.509" y2="82.133"/>
			
				<line fill="none" stroke="#788893" stroke-width="1.5" stroke-linecap="round" stroke-miterlimit="10" x1="91.893" y1="81.979" x2="99.054" y2="85.126"/>
		</g>
	</g>
</g>
</svg>
