<?xml version="1.0" encoding="utf-8"?>
<!-- Generator: Adobe Illustrator 15.1.0, SVG Export Plug-In . SVG Version: 6.00 Build 0)  -->
<!DOCTYPE svg PUBLIC "-//W3C//DTD SVG 1.1//EN" "http://www.w3.org/Graphics/SVG/1.1/DTD/svg11.dtd">
<svg version="1.1" id="Capa_1" xmlns="http://www.w3.org/2000/svg" xmlns:xlink="http://www.w3.org/1999/xlink" x="0px" y="0px"
	 width="156px" height="156px" viewBox="0 0 156 156" enable-background="new 0 0 156 156" xml:space="preserve">
<g>
	<defs>
		<circle id="SVGID_1_" cx="78" cy="77.723" r="77.723"/>
	</defs>
	<clipPath id="SVGID_2_">
		<use xlink:href="#SVGID_1_"  overflow="visible"/>
	</clipPath>
	<g clip-path="url(#SVGID_2_)">
		<circle fill="#D7EAF9" cx="78" cy="77.723" r="77.723"/>
		<g>
			<g>
				
					<path fill="#DAD18F" stroke="#687D89" stroke-width="1.4371" stroke-linecap="round" stroke-linejoin="round" stroke-miterlimit="10" d="
					M108.238,58.873c0,0-25.363-4.926-28.556-20.512c0,0-3.028-1.389,17.728-5.818c0,0,40.701,14.653,22.689,60.551
					c0,0,3.201,7.984,0.874,14.761c-0.728,2.116-1.992,4.113-4.063,5.712c0,0-1.664,8.863,9.176,11.001c0,0-5.8,6.416-12.274,4.582
					c0,0,2.809,6.725-2.702,10.694c0,0,3.637,9.178,8.857,9.178h-33.68c0,0-14.986-33.694,18.953-55.39
					C105.24,93.632,113.41,73.739,108.238,58.873z"/>
				
					<path fill="#DAD18F" stroke="#687D89" stroke-width="1.4371" stroke-linecap="round" stroke-linejoin="round" stroke-miterlimit="10" d="
					M44.683,59.068c0,0,25.363-4.963,28.557-20.663c0,0,2.273-1.4-18.48-5.862c0,0-39.949,14.763-21.938,60.999
					c0,0-5.513,13.852,3.19,20.626c0,0,1.663,8.926-9.176,11.08c0,0,5.798,6.466,12.273,4.614c0,0-2.809,6.777,2.702,10.777
					c0,0-3.637,9.246-8.857,9.246h33.681c0,0,14.985-33.946-18.953-55.801C47.682,94.085,39.511,74.044,44.683,59.068z"/>
				
					<ellipse fill="#F3E1D4" stroke="#687D89" stroke-width="1.5" stroke-miterlimit="10" cx="40.523" cy="73.121" rx="5.596" ry="6.889"/>
				
					<ellipse fill="#F3E1D4" stroke="#687D89" stroke-width="1.5" stroke-miterlimit="10" cx="114.973" cy="73.121" rx="5.596" ry="6.889"/>
				
					<rect x="66.635" y="107.454" fill="#F3E1D4" stroke="#687D89" stroke-width="1.5" stroke-miterlimit="10" width="19.098" height="25.956"/>
				<path fill="#F3E1D4" stroke="#687D89" stroke-width="1.5" stroke-miterlimit="10" d="M114.399,64.645
					c0-12.933-11.745-34.604-26.538-34.604H68.87c-14.794,0-26.798,21.671-26.798,34.604v15.608c0,1.499,0,8.067,0,9.724
					c0,16.183,16.194,29.302,36.167,29.302c19.969,0,36.16-13.119,36.16-29.302c0-1.593,0-8.172,0-9.724V64.645z"/>
				<circle fill="#F0CBC5" cx="55.375" cy="82.657" r="5.855"/>
				<circle fill="#F0CBC5" cx="100.625" cy="82.657" r="5.856"/>
				<path fill="#F28377" stroke="#687D89" stroke-width="1.4371" stroke-miterlimit="10" d="M85.496,120.527
					c0,0-2.215,12.424-9.604,12.598c-4.978,0.118-9.168-11.296-9.168-11.296c-4.749,0.67-26.216,7.045-26.216,9.988v26.741
					l70.769,1.331v-27.146C111.277,129.675,88.977,120.527,85.496,120.527z"/>
				<g>
					<path fill="none" stroke="#788893" stroke-width="1.5" stroke-linecap="round" stroke-miterlimit="10" d="M56.192,69.314
						c0-3.025,2.133-5.478,4.765-5.478c2.631,0,4.763,2.452,4.763,5.478"/>
					<path fill="none" stroke="#788893" stroke-width="1.5" stroke-linecap="round" stroke-miterlimit="10" d="M90.967,69.314
						c0-3.025,2.133-5.478,4.764-5.478c2.632,0,4.764,2.452,4.764,5.478"/>
				</g>
				<g>
					<path fill="#F0CBC5" d="M84.831,79.244v3.645c0,0.374-0.445,0.677-0.995,0.677H72.85c-0.55,0-0.994-0.303-0.994-0.677v-3.645"
						/>
					<path fill="none" stroke="#687D89" stroke-width="1.4371" stroke-linecap="round" stroke-miterlimit="10" d="M84.831,71.402
						v10.66c0,1.094-0.454,1.981-1.013,1.981H72.653c-0.56,0-1.014-0.888-1.014-1.981v-10.66"/>
				</g>
				<path fill="none" stroke="#788893" stroke-width="1.4371" stroke-linecap="round" stroke-miterlimit="10" d="M60.957,92.025"/>
				
					<path fill="#DAD18F" stroke="#687D89" stroke-width="1.4371" stroke-linecap="round" stroke-linejoin="round" stroke-miterlimit="10" d="
					M100.644,31.72c-8.913-5.299-19.968-7.527-23.926-3.302c-0.051,0.057-11.118-3.744-24.314,2.758
					c-10.075,4.97-15.658,19.44-12.401,23.1c3.256,3.667,33.726-2.02,36.396-18.301c0.319,16.278,31.756,20.508,35.709,16.281
					C116.071,48.028,109.551,37.023,100.644,31.72z"/>
				<circle fill="#D07265" cx="62.696" cy="125.688" r="1.817"/>
				<circle fill="#D07265" cx="53.326" cy="142.328" r="1.817"/>
				<circle fill="#D07265" cx="106.209" cy="145.102" r="1.817"/>
				<circle fill="#D07265" cx="95.976" cy="130.378" r="1.817"/>
				<circle fill="#D07265" cx="84.691" cy="145.102" r="1.817"/>
				<circle fill="#D07265" cx="76.183" cy="137.023" r="1.817"/>
				<circle fill="#D07265" cx="44.144" cy="137.023" r="1.817"/>
				
					<path fill="none" stroke="#687D89" stroke-width="1.4371" stroke-linecap="round" stroke-linejoin="round" stroke-miterlimit="10" d="
					M73.312,32.543c0,0-12.082,22.802-37.597,19.771"/>
				
					<path fill="none" stroke="#687D89" stroke-width="1.4371" stroke-linecap="round" stroke-linejoin="round" stroke-miterlimit="10" d="
					M69.615,30.088c0,0-18.232,22.504-34.688,16.227"/>
			</g>
			
				<path fill="none" stroke="#788893" stroke-width="1.4257" stroke-linecap="round" stroke-linejoin="round" stroke-miterlimit="10" d="
				M94.028,95.995c0,0-14.106,5.576-31.585,1.352"/>
			
				<path fill="none" stroke="#788893" stroke-width="1.4257" stroke-linecap="round" stroke-linejoin="round" stroke-miterlimit="10" d="
				M85.283,106.663c0,0-4.369,1.811-10.251,0.438"/>
			<path fill="none" stroke="#788893" stroke-width="1.5" stroke-linecap="round" stroke-miterlimit="10" d="M89.895,60.462
				c0,0,8.08-5.678,12.912,1.065"/>
			<path fill="none" stroke="#788893" stroke-width="1.5" stroke-linecap="round" stroke-miterlimit="10" d="M54.422,59.878
				c0,0,8.08-5.678,12.912,1.064"/>
		</g>
	</g>
</g>
</svg>
