<?xml version="1.0" encoding="utf-8"?>
<!-- Generator: Adobe Illustrator 15.1.0, SVG Export Plug-In . SVG Version: 6.00 Build 0)  -->
<!DOCTYPE svg PUBLIC "-//W3C//DTD SVG 1.1//EN" "http://www.w3.org/Graphics/SVG/1.1/DTD/svg11.dtd">
<svg version="1.1" id="Capa_1" xmlns="http://www.w3.org/2000/svg" xmlns:xlink="http://www.w3.org/1999/xlink" x="0px" y="0px"
	 width="156px" height="156px" viewBox="0 0 156 156" enable-background="new 0 0 156 156" xml:space="preserve">
<g>
	<defs>
		<circle id="SVGID_1_" cx="78.383" cy="77.723" r="77.722"/>
	</defs>
	<clipPath id="SVGID_2_">
		<use xlink:href="#SVGID_1_"  overflow="visible"/>
	</clipPath>
	<g clip-path="url(#SVGID_2_)">
		<circle fill="#D7EAF9" cx="78.383" cy="77.723" r="77.722"/>
		<g>
			<path fill="#4D545D" stroke="#414852" stroke-width="1.7649" stroke-miterlimit="10" d="M95.312,117.887
				c0.792-0.276,1.602-0.374,2.396-0.351c-0.059-0.139-0.144-0.268-0.195-0.415c-1.199-3.472,0.615-7.257,4.051-8.519
				c-1.035-1.061-1.755-2.449-1.909-4.038c-0.361-3.708,2.354-7.005,6.06-7.368c0.189-0.016,0.375,0.007,0.566,0
				c-0.208-0.367-0.375-0.767-0.512-1.174c-0.362-0.23-0.639-0.521-0.749-0.918c-0.225-0.808-7.938-3.331-8.943-6.915
				c-1.005-3.587,1.087-7.31,4.673-8.318c0.183-0.051,0.369-0.058,0.557-0.098c-0.567-0.693-1.011-1.509-1.269-2.429
				c-0.532-1.903-0.173-3.837,0.799-5.389c-1.173-0.632-2.159-1.632-2.706-2.963c-0.415-1.012-0.509-2.067-0.369-3.079
				c-1.412,0.167-2.885-0.146-4.137-1.028c-2.693-1.903-3.336-5.631-1.435-8.321c0.1-0.142,0.225-0.25,0.328-0.38
				c-0.777-0.161-1.534-0.474-2.225-0.962c-2.695-1.906-3.331-5.634-1.431-8.324c1.902-2.694,5.627-3.332,8.322-1.432
				c0.724,0.511,1.285,1.156,1.703,1.876c2.025-1.842,5.123-2.104,7.45-0.462c1.581,1.119,2.429,2.863,2.491,4.662
				c1.178,0.63,2.158,1.63,2.708,2.961c0.245,0.597,0.349,1.209,0.391,1.819c0.149,0.21,0.278,0.425,0.399,0.646
				c2.578-0.287,5.145,1.116,6.184,3.634c1.069,2.604,0.158,5.513-2.025,7.093c0.524,0.534,0.965,1.176,1.27,1.906
				c1.102,2.688,0.105,5.708-2.234,7.252c2.121,0.648,3.879,2.319,4.525,4.61c0.728,2.598-1.418,7.361-1.934,9.27
				c0.412,0.767,0.684,1.623,0.773,2.543c0.037,0.371,0.029,0.73,0.006,1.087c0.302,0.601,0.524,1.261,0.659,1.972
				c2.594,0.73,4.604,2.975,4.879,5.817c0.308,3.165-1.63,6.011-4.505,7.008c0.394,0.751,0.662,1.583,0.747,2.478
				c0.092,0.929-0.015,1.831-0.274,2.667c0.374,0.521,0.705,1.081,0.926,1.719c1.218,3.521-0.649,7.361-4.168,8.579
				c-0.948,0.328-1.913,0.418-2.849,0.326c0.357,3.072-1.443,6.088-4.485,7.143c-3.001,1.037-6.224-0.182-7.867-2.746
				c-0.636,0.561-1.385,1.016-2.232,1.309c-3.52,1.215-7.361-0.65-8.576-4.17C89.927,122.942,91.794,119.103,95.312,117.887z"/>
			
				<path fill="#4D545D" stroke="#414852" stroke-width="1.7649" stroke-linecap="round" stroke-linejoin="round" stroke-miterlimit="10" d="
				M120.614,111.229c0,0-1.99-5.613-3.908-6.723"/>
			
				<path fill="#4D545D" stroke="#414852" stroke-width="1.7649" stroke-linecap="round" stroke-linejoin="round" stroke-miterlimit="10" d="
				M102.999,130.581c0,0-3.128-3.287,0.332-5.748"/>
		</g>
		<g>
			
				<path fill="#4D545D" stroke="#414852" stroke-width="1.7649" stroke-linecap="round" stroke-linejoin="round" stroke-miterlimit="10" d="
				M67.644,117.699c-0.803-0.247-1.614-0.319-2.404-0.271c0.052-0.143,0.131-0.271,0.177-0.422c1.09-3.509-0.842-7.233-4.319-8.385
				c1.003-1.094,1.679-2.504,1.78-4.098c0.241-3.719-2.572-6.928-6.288-7.172c-0.191-0.012-0.375,0.02-0.566,0.02
				c0.196-0.376,0.35-0.778,0.475-1.194c0.354-0.239,0.62-0.538,0.718-0.937c0.199-0.814,7.829-3.583,8.719-7.197
				c0.891-3.617-1.318-7.271-4.933-8.164c-0.187-0.047-0.372-0.048-0.561-0.081c0.544-0.711,0.96-1.54,1.189-2.468
				c0.474-1.92,0.054-3.841-0.97-5.362c1.154-0.669,2.104-1.701,2.612-3.045c0.383-1.026,0.442-2.085,0.27-3.09
				c1.419,0.121,2.881-0.238,4.105-1.161c2.629-1.988,3.152-5.731,1.166-8.363c-0.102-0.135-0.23-0.243-0.341-0.369
				c0.773-0.183,1.521-0.522,2.194-1.032c2.633-1.989,3.152-5.734,1.168-8.364c-1.987-2.631-5.73-3.151-8.363-1.167
				c-0.707,0.536-1.248,1.198-1.643,1.932c-2.084-1.776-5.19-1.941-7.466-0.225c-1.543,1.167-2.333,2.938-2.337,4.735
				c-1.156,0.667-2.108,1.701-2.616,3.047c-0.225,0.605-0.308,1.221-0.333,1.833c-0.139,0.212-0.262,0.43-0.376,0.658
				c-2.587-0.209-5.109,1.277-6.065,3.827c-0.986,2.634,0.017,5.515,2.25,7.026c-0.508,0.549-0.928,1.203-1.211,1.946
				c-1.019,2.719,0.079,5.706,2.463,7.174c-2.097,0.716-3.802,2.443-4.371,4.753c-0.647,2.62,1.65,7.312,2.225,9.202
				c-0.387,0.778-0.632,1.646-0.694,2.568c-0.023,0.371-0.005,0.73,0.031,1.086c-0.285,0.608-0.485,1.277-0.597,1.989
				c-2.57,0.815-4.509,3.122-4.693,5.972c-0.206,3.17,1.819,5.954,4.727,6.861c-0.371,0.76-0.609,1.604-0.67,2.499
				c-0.059,0.929,0.072,1.827,0.361,2.659c-0.359,0.531-0.674,1.102-0.871,1.747c-1.105,3.558,0.884,7.337,4.439,8.441
				c0.955,0.298,1.922,0.356,2.854,0.235c-0.256,3.082,1.637,6.039,4.712,6.995c3.034,0.942,6.216-0.378,7.775-2.991
				c0.655,0.537,1.416,0.968,2.272,1.232c3.561,1.105,7.337-0.881,8.443-4.439C73.185,122.586,71.199,118.806,67.644,117.699z"/>
			
				<path fill="#4D545D" stroke="#414852" stroke-width="1.7649" stroke-linecap="round" stroke-linejoin="round" stroke-miterlimit="10" d="
				M42.261,113.669c0,0-1.077-4.404,3.145-4.824"/>
			
				<path fill="#4D545D" stroke="#414852" stroke-width="1.7649" stroke-linecap="round" stroke-linejoin="round" stroke-miterlimit="10" d="
				M46.304,125.103c0,0,4.438,0.943,4.725-3.293"/>
		</g>
		<g>
			
				<ellipse fill="#F3D8C0" stroke="#687D89" stroke-width="1.3375" stroke-miterlimit="10" cx="48.199" cy="74.963" rx="5.208" ry="6.411"/>
			<path fill="#F3D8C0" stroke="#687D89" stroke-width="1.3375" stroke-miterlimit="10" d="M110.845,74.964
				c0-3.54,2.33-6.411,5.209-6.411c2.873,0,5.207,2.871,5.207,6.411c0,3.541-2.334,6.41-5.207,6.41
				C113.175,81.374,110.845,78.504,110.845,74.964z"/>
		</g>
		
			<rect x="72.06" y="111.541" fill="#F3D8C0" stroke="#687D89" stroke-width="1.6705" stroke-linecap="round" stroke-linejoin="round" stroke-miterlimit="10" width="17.156" height="34.72"/>
		
			<path fill="#F3D8C0" stroke="#687D89" stroke-width="1.6705" stroke-linecap="round" stroke-linejoin="round" stroke-miterlimit="10" d="
			M115.638,71.699c0-12.036-10.93-32.204-24.696-32.204H73.267c-13.767,0-24.939,20.167-24.939,32.204v14.526
			c0,1.396,0,7.508,0,9.049c0,15.062,15.072,27.271,33.658,27.271c18.584,0,33.652-12.21,33.652-27.271c0-1.482,0-7.604,0-9.049
			V71.699z"/>
		
			<path fill="none" stroke="#788893" stroke-width="1.2387" stroke-linecap="round" stroke-linejoin="round" stroke-miterlimit="10" d="
			M86.716,112.146c0,0-3.793,1.574-8.904,0.381"/>
		
			<path fill="none" stroke="#687D89" stroke-width="1.7377" stroke-linecap="round" stroke-linejoin="round" stroke-miterlimit="10" d="
			M68.4,98.931c0,0,13.344,12.025,27.448,0"/>
		<path fill="#E0C9B4" d="M100.939,90.567c-3.501,0-6.338-2.307-6.338-5.148c0-2.848,2.837-5.154,6.338-5.154
			c3.504,0,6.343,2.307,6.343,5.154C107.282,88.261,104.443,90.567,100.939,90.567z"/>
		<path fill="#E0C9B4" d="M63.022,90.567c-3.502,0-6.342-2.307-6.342-5.148c0-2.848,2.84-5.157,6.342-5.157s6.34,2.31,6.34,5.157
			C69.362,88.261,66.524,90.567,63.022,90.567z"/>
		<path fill="#FEE9AC" stroke="#687D89" stroke-width="1.0367" stroke-miterlimit="10" d="M46.433,61.157
			c2.029,1.608,3.215,3.492,2.649,4.209c-0.57,0.716-2.675-0.004-4.704-1.611c-2.029-1.605-3.215-3.49-2.649-4.205
			C42.299,58.833,44.403,59.553,46.433,61.157z"/>
		
			<path fill="#4D545D" stroke="#414852" stroke-width="1.7649" stroke-linecap="round" stroke-linejoin="round" stroke-miterlimit="10" d="
			M79.958,38.649C53.405,24.744,44.195,59.918,44.195,59.918c24.065,2.412,32.706-5.311,35.763-11.941
			c3.055,6.63,11.695,14.354,35.763,11.941C115.721,59.918,106.509,24.744,79.958,38.649z"/>
		<g>
			<path fill="#E0C9B4" d="M88.367,83.888v2.759c0,0.284-0.411,0.513-0.919,0.513H77.279c-0.509,0-0.923-0.229-0.923-0.513v-2.759"
				/>
			<path fill="none" stroke="#687D89" stroke-width="1.203" stroke-linecap="round" stroke-miterlimit="10" d="M88.367,77.952v8.07
				c0,0.829-0.42,1.5-0.936,1.5H77.097c-0.516,0-0.938-0.671-0.938-1.5v-8.07"/>
		</g>
		
			<path fill="none" stroke="#414852" stroke-width="1.7649" stroke-linecap="round" stroke-linejoin="round" stroke-miterlimit="10" d="
			M82.956,44.364c0,0,9.265,17.601,40.75,5.275"/>
		
			<path fill="none" stroke="#414852" stroke-width="1.7649" stroke-linecap="round" stroke-linejoin="round" stroke-miterlimit="10" d="
			M86.349,40.603c0,0,16.982,12.862,35.49,2.745"/>
		<g>
			<g>
				<path fill="#FFFFFF" stroke="#687D89" stroke-width="1.6663" stroke-miterlimit="10" d="M90.31,125.657
					c0,0-0.009,13.779-9.648,13.586c-8.838-0.178-9.213-12.182-9.213-12.182c-4.774,0.723-26.347,7.596-26.347,10.772v19.485h71.112
					v-18.486C116.214,135.521,93.812,125.657,90.31,125.657z"/>
			</g>
			
				<rect x="45.102" y="141.909" fill="#FEE9AC" stroke="#687D89" stroke-width="1.6663" stroke-miterlimit="10" width="71.112" height="4.438"/>
			
				<rect x="45.102" y="150.778" fill="#FEE9AC" stroke="#687D89" stroke-width="1.6663" stroke-miterlimit="10" width="71.112" height="4.436"/>
			<g>
				
					<path fill="#AAA4D1" stroke="#687D89" stroke-width="2" stroke-linecap="round" stroke-linejoin="round" stroke-miterlimit="10" d="
					M69.507,157.319H43.771v-19.485c0-3.177,21.572-10.05,26.348-10.772L69.507,157.319z"/>
			</g>
			<g>
				
					<path fill="#AAA4D1" stroke="#687D89" stroke-width="2" stroke-linecap="round" stroke-linejoin="round" stroke-miterlimit="10" d="
					M91.355,156.853h24.858v-18.485c0-3.312-22.402-13.175-25.904-13.175L91.355,156.853z"/>
			</g>
		</g>
		
			<path fill="none" stroke="#687D89" stroke-width="1.5" stroke-linecap="round" stroke-linejoin="round" stroke-miterlimit="10" d="
			M60.997,74.526c0-2.552,2.067-4.621,4.621-4.621c2.549,0,4.62,2.069,4.62,4.621"/>
		
			<path fill="none" stroke="#687D89" stroke-width="1.5" stroke-linecap="round" stroke-linejoin="round" stroke-miterlimit="10" d="
			M93.633,74.526c0-2.552,2.069-4.621,4.62-4.621c2.552,0,4.621,2.069,4.621,4.621"/>
		
			<line fill="none" stroke="#687D89" stroke-width="1.5" stroke-linecap="round" stroke-linejoin="round" stroke-miterlimit="10" x1="59.042" y1="65.643" x2="68.4" y2="62.458"/>
		
			<line fill="none" stroke="#687D89" stroke-width="1.5" stroke-linecap="round" stroke-linejoin="round" stroke-miterlimit="10" x1="94.602" y1="61.869" x2="103.469" y2="66.232"/>
	</g>
</g>
<g>
	<path fill="none" stroke="#788893" stroke-width="1.7903" stroke-miterlimit="10" d="M111.725,73.245
		c0,3.056-2.389,5.533-5.338,5.533H90.818c-2.947,0-5.339-2.477-5.339-5.533v-4.842c0-3.057,2.392-5.535,5.339-5.535h15.568
		c2.949,0,5.338,2.478,5.338,5.535V73.245z"/>
	<path fill="none" stroke="#788893" stroke-width="1.7903" stroke-miterlimit="10" d="M78.28,73.245
		c0,3.056-2.389,5.533-5.338,5.533H57.373c-2.946,0-5.338-2.477-5.338-5.533v-4.842c0-3.057,2.392-5.535,5.338-5.535h15.569
		c2.949,0,5.338,2.478,5.338,5.535V73.245z"/>
	<path fill="none" stroke="#788893" stroke-width="1.7903" stroke-miterlimit="10" d="M78.28,70.062c0,0,4.001-3.243,7.199,0"/>
</g>
</svg>
