<?xml version="1.0" encoding="utf-8"?>
<!-- Generator: Adobe Illustrator 15.1.0, SVG Export Plug-In . SVG Version: 6.00 Build 0)  -->
<!DOCTYPE svg PUBLIC "-//W3C//DTD SVG 1.1//EN" "http://www.w3.org/Graphics/SVG/1.1/DTD/svg11.dtd">
<svg version="1.1" id="Capa_1" xmlns="http://www.w3.org/2000/svg" xmlns:xlink="http://www.w3.org/1999/xlink" x="0px" y="0px"
	 width="173px" height="156px" viewBox="0 0 173 156" enable-background="new 0 0 173 156" xml:space="preserve">
<g>
	<circle fill="#97D0A1" cx="77.723" cy="77.723" r="77.723"/>
	<g>
		<path fill="#5E422E" stroke="#3E2613" stroke-width="1.5" stroke-miterlimit="10" d="M158.35,82.519
			c0.985-2.895,12.876-34.476-19.749-34.476c-27.724,0-29.255,41.662-9.586,47.527l-0.002,0.002
			c25.365,16.496,42.213-5.867,42.213-5.867C162.515,90.931,159.27,87.125,158.35,82.519z"/>
		<path fill="#F3D8C0" stroke="#687D89" stroke-width="1.5" stroke-miterlimit="10" d="M149.848,64.188
			c0,3.216-2.122,5.826-4.736,5.826s-4.735-2.61-4.735-5.826c0-3.221,2.121-5.831,4.735-5.831S149.848,60.967,149.848,64.188z"/>
		
			<ellipse fill="#F3D8C0" stroke="#687D89" stroke-width="1.5" stroke-miterlimit="10" cx="82.844" cy="65.224" rx="4.735" ry="5.827"/>
		<path fill="#5E422E" stroke="#3E2613" stroke-width="1.4135" stroke-miterlimit="10" d="M134.622,72.079l-48.321-0.556
			c-5.025,4.347-5.957-18.27-5.957-18.27c0-1.339,3.378-9.167,5.957-9.167h46.522c2.58,0,9.329,4.574,9.329,5.913
			C142.152,50,137.203,72.079,134.622,72.079z"/>
		
			<rect x="105.494" y="93.207" fill="#F3D8C0" stroke="#687D89" stroke-width="1.5" stroke-miterlimit="10" width="15.599" height="31.563"/>
		<path fill="#F3D8C0" stroke="#687D89" stroke-width="1.5" stroke-miterlimit="10" d="M145.112,56.988
			c0-10.942-9.937-29.277-22.452-29.277h-16.07c-12.512,0-22.667,18.335-22.667,29.277v13.203c0,1.27,0,6.827,0,8.227
			c0,13.693,13.699,24.792,30.596,24.792c16.896,0,30.594-11.099,30.594-24.792c0-1.35,0-6.911,0-8.227V56.988z"/>
		<path fill="#5E422E" stroke="#3E2613" stroke-width="1.5" stroke-miterlimit="10" d="M137.172,30.341
			c-8.644-5.139-19.363-7.299-23.204-3.2c-0.05,0.055-10.785-3.631-23.579,2.675c-9.772,4.817-15.188,18.851-12.031,22.401
			c3.161,3.558,32.713-1.957,35.302-17.749c0.309,15.789,30.797,19.892,34.63,15.792C152.135,46.16,145.813,35.483,137.172,30.341z"
			/>
		<path fill="#F0CBC5" d="M119.737,65.483c0,3.177-2.897,5.75-5.855,5.75c-2.96,0-5.217-1.809-5.76-5.75"/>
		
			<path fill="none" stroke="#687D89" stroke-width="1.5" stroke-linecap="round" stroke-linejoin="round" stroke-miterlimit="10" d="
			M120.379,62.315c0,5.048-2.905,9.135-6.494,9.135s-6.496-4.087-6.496-9.135"/>
		<path fill="none" stroke="#3E2613" stroke-linecap="round" stroke-linejoin="round" stroke-miterlimit="10" d="M118.284,34.18
			c0,0,19.291,19.94,37.052,5.551"/>
		<path fill="none" stroke="#3E2613" stroke-linecap="round" stroke-linejoin="round" stroke-miterlimit="10" d="M121.771,28.796
			c0,0,17.473,19.94,33.564,5.549"/>
		<path fill="none" stroke="#3E2613" stroke-linecap="round" stroke-linejoin="round" stroke-miterlimit="10" d="M110.875,34.18
			c0,0-11.017,17.652-31.493,16.346"/>
		
			<path fill="none" stroke="#788893" stroke-width="1.1261" stroke-linecap="round" stroke-linejoin="round" stroke-miterlimit="10" d="
			M118.82,95.695c0,0-3.449,1.43-8.094,0.347"/>
		
			<line fill="none" stroke="#788893" stroke-width="1.5797" stroke-linecap="round" stroke-miterlimit="10" x1="89.362" y1="56.66" x2="98.42" y2="56.083"/>
		<g>
			<path fill="none" stroke="#4D545D" stroke-width="3" stroke-miterlimit="10" d="M143.805,53.084
				c0,8.042-6.027,14.559-13.458,14.559c-7.43,0-13.451-6.517-13.451-14.559C116.896,45.046,143.805,45.046,143.805,53.084z"/>
			<path fill="none" stroke="#4D545D" stroke-width="3" stroke-miterlimit="10" d="M84.357,53.084c0-8.038,26.905-8.038,26.905,0
				c0,8.042-6.021,14.559-13.451,14.559C90.379,67.643,84.357,61.126,84.357,53.084z"/>
			<path fill="none" stroke="#4D545D" stroke-width="3" stroke-miterlimit="10" d="M116.893,53.512c0,0-3.048-2.264-6.018,0.809"/>
			<path fill="#FFFFFF" d="M87.556,49.166c0.163,0.349-0.414,0.965-1.289,1.376c-0.877,0.413-1.719,0.464-1.883,0.118
				c-0.164-0.351,0.412-0.969,1.289-1.38S87.392,48.82,87.556,49.166z"/>
			<path fill="#FFFFFF" d="M143.671,50.875c-0.191,0.336-1.029,0.213-1.865-0.272c-0.84-0.482-1.361-1.147-1.168-1.479
				c0.194-0.333,1.027-0.212,1.866,0.271C143.343,49.881,143.864,50.546,143.671,50.875z"/>
		</g>
		<g>
			<defs>
				<circle id="SVGID_1_" cx="89.958" cy="85.246" r="63.922"/>
			</defs>
			<clipPath id="SVGID_2_">
				<use xlink:href="#SVGID_1_"  overflow="visible"/>
			</clipPath>
			<g clip-path="url(#SVGID_2_)">
				
					<polygon fill="#F3F4F4" stroke="#626D8A" stroke-width="1.5" stroke-linecap="round" stroke-linejoin="round" stroke-miterlimit="10" points="
					130.707,117.926 121.761,107.369 113.491,121.207 105.077,108.489 96.277,118.415 113.503,129.892 113.524,129.37 				"/>
				<g>
					<path fill="#98D0CF" stroke="#626D8A" stroke-width="2" stroke-miterlimit="10" d="M122.489,108c0,0-0.009,13.398-9.381,13.212
						c-8.596-0.174-8.959-11.845-8.959-11.845c-4.642,0.701-25.617,7.386-25.617,10.474v18.946h69.146v-17.975
						C147.678,117.591,125.892,108,122.489,108z"/>
				</g>
				
					<path fill="none" stroke="#FFFFFF" stroke-width="1.5" stroke-linecap="round" stroke-linejoin="round" stroke-miterlimit="10" stroke-dasharray="1,3,1,3,1,4" d="
					M99.416,110.512c0,0,1.476,6.828,6.012,11.241c5.376,5.231,19.485,6.337,20.622-12.857"/>
			</g>
		</g>
		
			<line fill="none" stroke="#788893" stroke-width="1.5797" stroke-linecap="round" stroke-miterlimit="10" x1="128.146" y1="50" x2="136.235" y2="54.117"/>
		<path fill="#DB91B6" stroke="#626D8A" stroke-miterlimit="10" d="M118.761,88.101c0,2.438-1.976,4.414-4.414,4.414
			s-4.415-1.977-4.415-4.414H118.761z"/>
		<circle fill="#F0CBC5" cx="97.292" cy="75.87" r="4.969"/>
		<circle fill="#F0CBC5" cx="131.414" cy="75.87" r="4.969"/>
		<ellipse fill="#687D89" cx="97.008" cy="60.788" rx="1.879" ry="3.105"/>
		<ellipse fill="#687D89" cx="126.997" cy="60.788" rx="1.879" ry="3.105"/>
	</g>
	<g>
		<defs>
			<circle id="SVGID_3_" cx="77.723" cy="77.723" r="77.723"/>
		</defs>
		<clipPath id="SVGID_4_">
			<use xlink:href="#SVGID_3_"  overflow="visible"/>
		</clipPath>
		<path clip-path="url(#SVGID_4_)" fill="#4D545D" stroke="#414852" stroke-width="2" stroke-miterlimit="10" d="M45.604,104.813
			c0,0,33.461,10.013,39.338,22.836c0,0,60.07-5.353,77.061,11.032l-8.733,46.975L17.705,156.479L45.604,104.813z"/>
		
			<path clip-path="url(#SVGID_4_)" fill="#F3F4F4" stroke="#414852" stroke-width="2" stroke-linecap="round" stroke-linejoin="round" stroke-miterlimit="10" d="
			M27.915,135.333c0,0-3.831,17.211-3.121,23.245c0.71,6.033,63.172,5.323,63.172,5.323c-4.438-19.697-34.426-39.561-34.426-39.561
			S45.897,136.308,27.915,135.333z"/>
	</g>
	<g>
		<g>
			<g>
				<path fill="#4D545D" stroke="#414852" stroke-width="1.5" stroke-miterlimit="10" d="M61.566,130.366
					c-0.358,8.453-6.276,15.068-13.223,14.775c-6.94-0.295-12.28-7.387-11.923-15.841c0.359-8.453,6.278-15.067,13.222-14.772
					C56.587,114.822,61.925,121.914,61.566,130.366z"/>
				<path fill="#BD7D9D" stroke="#353E47" stroke-miterlimit="10" d="M55.06,141.35c0.291,2.749-1.879,5.233-4.842,5.544l0,0
					c-2.957,0.313-5.598-1.665-5.886-4.417l-2.8-26.563c-0.289-2.751,1.881-5.236,4.844-5.547l0,0
					c2.962-0.312,5.601,1.663,5.89,4.417L55.06,141.35z"/>
			</g>
			<g>
				<path fill="#4D545D" stroke="#414852" stroke-width="1.5" stroke-miterlimit="10" d="M29.686,81.496
					c0,0-11.414-2.491-12.212,16.823c0,0-15.981,6.658-12.471,22.944c0,0,9.874,21.119,13.541,20.727
					C18.544,141.99,30.16,139.083,29.686,81.496z"/>
				<path fill="#4D545D" stroke="#414852" stroke-width="1.5" stroke-miterlimit="10" d="M64.857,81.525
					c0,0,11.583-1.519,10.745,17.796c0,0,15.362,7.986,10.488,23.918c0,0-11.627,20.208-15.248,19.505
					C70.843,142.744,59.517,138.865,64.857,81.525z"/>
				<path fill="#4D545D" stroke="#414852" stroke-width="1.5" stroke-miterlimit="10" d="M24.648,82.74
					c0,0,19.782-18.874,40.209-1.215c0,0,3.106,30.066,8.235,38.317c0,0-0.773,18.221-13.497,16.951c0,0-7.699,0.769-11.291-9.241
					c0,0,0.429,15.717-14.356,11.439c0,0-9.004-2.937-11.043-15.07L24.648,82.74"/>
			</g>
			<path fill="#A66639" d="M23.15,118.096c0,0,8.685,5.954,25.323,6.334c0,0,1.721,16.93-12.186,15.098
				C36.288,139.527,22.521,137.435,23.15,118.096"/>
			<path fill="#A66639" d="M71.77,117.146c0,0-5.884,4.298-22.495,3.271c0,0-3.147,16.725,10.864,16.071
				C60.139,136.489,73.48,137.122,71.77,117.146"/>
			<path fill="none" stroke="#414852" stroke-width="1.3703" stroke-miterlimit="10" d="M24.648,82.74
				c0,0,19.782-18.874,40.209-1.215c0,0,3.106,30.066,8.235,38.317c0,0-0.773,18.221-13.497,16.951c0,0-7.699,0.769-11.291-9.241
				c0,0,0.429,15.717-14.356,11.439c0,0-9.004-2.937-11.043-15.07L24.648,82.74"/>
			
				<path fill="#F3F4F4" stroke="#414852" stroke-width="1.5" stroke-linecap="round" stroke-linejoin="round" stroke-miterlimit="10" d="
				M69.455,125.935c-2.407-4.788-21.022-9.602-15.133-50.611c0,0-4.2-1.476-10.394-1.146c-6.188,0.383-8.259,1.79-8.259,1.79
				c10.56,40.066-5.708,47.797-7.55,52.828c-3.078,8.422,8.135,10.748,8.135,10.748c11.643,1.555,12.369-10.89,12.311-11.382
				c-0.004,0.495,2.655,12.264,14.042,9.384C62.607,137.546,73.481,133.946,69.455,125.935z"/>
			<path fill="#414852" stroke="#353E47" stroke-width="1.5" stroke-miterlimit="10" d="M57.693,121.415
				c-0.125-1.678-1.585-2.934-3.257-2.806l-13.336,0.999c-1.677,0.127-2.932,1.586-2.806,3.26l0,0
				c0.126,1.673,8.651,7.764,10.327,7.638l0,0C50.297,130.381,57.818,123.087,57.693,121.415L57.693,121.415z"/>
			
				<path fill="#4D545D" stroke="#414852" stroke-width="1.3703" stroke-linecap="round" stroke-linejoin="round" stroke-miterlimit="10" d="
				M79.575,102.407c0,0-4.525-3.469-7.506-4.933"/>
			
				<path fill="#4D545D" stroke="#414852" stroke-width="1.3703" stroke-linecap="round" stroke-linejoin="round" stroke-miterlimit="10" d="
				M13.371,101.051c0,0,4.806-3.076,7.897-4.282"/>
		</g>
		<g>
			<path fill="#A66639" d="M35.658,101.87c-1.872,1.057-3.849,1.097-4.418,0.09c-0.566-1.01,0.487-2.682,2.358-3.737
				c1.873-1.055,3.852-1.096,4.421-0.087C38.585,99.142,37.53,100.815,35.658,101.87z"/>
			<path fill="#353E47" d="M39.298,101.591c-0.054,1.426-0.837,2.571-1.742,2.555c-0.908-0.016-1.597-1.183-1.54-2.611
				c0.056-1.425,0.838-2.571,1.743-2.557C38.665,98.992,39.354,100.163,39.298,101.591z"/>
		</g>
		<g>
			<path fill="#A66639" d="M57.048,98.384c1.985,0.817,3.953,0.614,4.396-0.452c0.44-1.071-0.815-2.603-2.8-3.422
				c-1.986-0.818-3.956-0.613-4.396,0.457C53.809,96.033,55.06,97.565,57.048,98.384z"/>
			<path fill="#353E47" d="M55.656,99.635c0.229,1.411,1.146,2.451,2.042,2.325c0.9-0.126,1.439-1.369,1.207-2.78
				c-0.23-1.409-1.146-2.45-2.043-2.324C55.963,96.982,55.426,98.228,55.656,99.635z"/>
		</g>
	</g>
</g>
</svg>
