<?xml version="1.0" encoding="utf-8"?>
<!-- Generator: Adobe Illustrator 15.1.0, SVG Export Plug-In . SVG Version: 6.00 Build 0)  -->
<!DOCTYPE svg PUBLIC "-//W3C//DTD SVG 1.1//EN" "http://www.w3.org/Graphics/SVG/1.1/DTD/svg11.dtd">
<svg version="1.1" id="Capa_1" xmlns="http://www.w3.org/2000/svg" xmlns:xlink="http://www.w3.org/1999/xlink" x="0px" y="0px"
	 width="156px" height="156px" viewBox="0 0 156 156" enable-background="new 0 0 156 156" xml:space="preserve">
<g>
	<defs>
		<circle id="SVGID_1_" cx="78" cy="78" r="77.722"/>
	</defs>
	<clipPath id="SVGID_2_">
		<use xlink:href="#SVGID_1_"  overflow="visible"/>
	</clipPath>
	<g clip-path="url(#SVGID_2_)">
		<circle fill="#97D0A1" cx="78" cy="78" r="77.722"/>
		<g>
			<g>
				
					<ellipse fill="#F3D8C0" stroke="#687D89" stroke-width="1.5" stroke-miterlimit="10" cx="115.12" cy="76.374" rx="5.452" ry="6.958"/>
				
					<rect x="69.098" y="109.949" fill="#F3D8C0" stroke="#687D89" stroke-width="1.5" stroke-miterlimit="10" width="18.509" height="26.082"/>
				
					<ellipse fill="#F3D8C0" stroke="#687D89" stroke-width="1.5" stroke-miterlimit="10" cx="45.026" cy="76.374" rx="5.452" ry="6.958"/>
				<path fill="#F3D8C0" stroke="#687D89" stroke-width="1.5" stroke-miterlimit="10" d="M115.12,66.936
					c0-12.993-11.381-34.767-25.718-34.767H70.996c-14.336,0-25.971,21.774-25.971,34.767v15.684c0,1.508,0,8.107,0,9.771
					c0,16.26,15.693,29.441,35.049,29.441c19.356,0,35.046-13.182,35.046-29.441c0-1.602,0-8.213,0-9.771V66.936z"/>
				<path fill="none" stroke="#788893" stroke-width="1.5" stroke-miterlimit="10" d="M113.85,73.009c0,3.413-2.67,6.18-5.963,6.18
					H90.494c-3.293,0-5.963-2.768-5.963-6.18v-5.411c0-3.415,2.67-6.182,5.963-6.182h17.393c3.293,0,5.963,2.768,5.963,6.182V73.009
					z"/>
				<path fill="none" stroke="#788893" stroke-width="1.5" stroke-miterlimit="10" d="M76.49,73.009c0,3.413-2.67,6.18-5.965,6.18
					H53.133c-3.291,0-5.963-2.768-5.963-6.18v-5.411c0-3.415,2.672-6.182,5.963-6.182h17.393c3.295,0,5.965,2.768,5.965,6.182
					V73.009z"/>
				<ellipse fill="#E0C9B4" cx="58.28" cy="87.441" rx="4.823" ry="5.033"/>
				<ellipse fill="#E0C9B4" cx="102.917" cy="87.441" rx="4.823" ry="5.033"/>
				
					<path fill="none" stroke="#788893" stroke-width="1.5" stroke-linecap="round" stroke-linejoin="round" stroke-miterlimit="10" d="
					M65.207,101.668c0,0,14.107,5.576,31.585,1.352"/>
				
					<path fill="none" stroke="#788893" stroke-width="1.5" stroke-linecap="round" stroke-linejoin="round" stroke-miterlimit="10" d="
					M73.952,112.336c0,0,4.368,1.809,10.251,0.439"/>
				
					<line fill="none" stroke="#788893" stroke-width="1.5" stroke-miterlimit="10" x1="80.979" y1="79.189" x2="80.979" y2="73.785"/>
				<path fill="none" stroke="#788893" stroke-width="1.5" stroke-miterlimit="10" d="M76.49,69.454c0,0,4.469-3.623,8.041,0"/>
				<path fill="#E0C9B4" d="M88.922,84.008c0,2.549-3.534,4.621-7.895,4.621s-7.896-2.072-7.896-4.621"/>
				
					<line fill="none" stroke="#788893" stroke-width="1.5" stroke-linecap="round" stroke-miterlimit="10" x1="54.104" y1="64.837" x2="69.098" y2="58.782"/>
				
					<line fill="none" stroke="#788893" stroke-width="1.5" stroke-linecap="round" stroke-miterlimit="10" x1="91.621" y1="58.782" x2="105.66" y2="58.782"/>
				<path fill="#4A94CD" stroke="#687D89" stroke-width="2" stroke-miterlimit="10" d="M87.606,122.266l0.144,5.369
					c0,4.01-2.979,7.299-6.271,7.299h-6.584c-3.293,0-5.963-3.25-5.963-7.26v-5.842c-4.493,0.875-24.07,11.77-24.07,15.615v23.6
					h66.979v-22.391C111.841,134.646,90.898,122.266,87.606,122.266z"/>
				
					<path fill="none" stroke="#788893" stroke-width="4" stroke-miterlimit="10" stroke-dasharray="1.4257,2.8514,1.4257,2.8514,1.4257,2.8514" d="
					M58.28,101.668c0,0,19.149-19.875,43.892,0"/>
				<g>
					<path fill="none" stroke="#788893" stroke-width="1.5" stroke-linecap="round" stroke-miterlimit="10" d="M59.869,72.525
						c0-2.454,1.667-4.444,3.726-4.444c2.06,0,3.727,1.99,3.727,4.444"/>
					<path fill="none" stroke="#788893" stroke-width="1.5" stroke-linecap="round" stroke-miterlimit="10" d="M95.463,72.525
						c0-2.454,1.668-4.444,3.727-4.444s3.728,1.99,3.728,4.444"/>
				</g>
				<path fill="#6C6D6F" stroke="#495A66" stroke-width="1.5" stroke-miterlimit="10" d="M45.025,54.665"/>
				
					<ellipse fill="none" stroke="#788893" stroke-width="1.5" stroke-miterlimit="10" cx="80.979" cy="84.297" rx="8.619" ry="5.105"/>
			</g>
			<g>
				<path fill="#6C6D6F" stroke="#555E68" stroke-width="1.5" stroke-miterlimit="10" d="M111.937,36.531
					c-2.86-13.309-19.71-13.309-19.71-13.309c-24.7-10.647-42.205,13.309-42.205,13.309c-14.252,7.885-8.929,37.254-4.391,39.889
					v-8.121c0-10.622,7.777-27.104,18.445-32.771c7.836,4.65,21.006,9.489,32.986-0.225c10.84,5.436,18.663,22.226,18.663,32.995V77
					C121.211,73.785,122.275,36.564,111.937,36.531z"/>
				<path fill="none" stroke="#555E68" stroke-width="1.5" stroke-linecap="round" stroke-miterlimit="10" d="M66.779,30.31
					c0,0,24.842,15.571,36.138-7.852"/>
				<path fill="none" stroke="#555E68" stroke-width="1.5" stroke-linecap="round" stroke-miterlimit="10" d="M68.242,25.252
					c0,0,25.021,7.453,29.412-7.32"/>
			</g>
			<path fill="none" stroke="#555E68" stroke-width="1.5" stroke-linecap="round" stroke-miterlimit="10" d="M49.513,36.831
				c0,0-4.68,7.32-4.487,14.773"/>
			<path fill="none" stroke="#555E68" stroke-width="1.5" stroke-linecap="round" stroke-miterlimit="10" d="M111.604,36.211
				c0,0,4.68,7.32,4.486,14.773"/>
		</g>
	</g>
</g>
</svg>
