<?xml version="1.0" encoding="utf-8"?>
<!-- Generator: Adobe Illustrator 16.0.0, SVG Export Plug-In . SVG Version: 6.00 Build 0)  -->
<!DOCTYPE svg PUBLIC "-//W3C//DTD SVG 1.1//EN" "http://www.w3.org/Graphics/SVG/1.1/DTD/svg11.dtd">
<svg version="1.1" id="Layer_1" xmlns="http://www.w3.org/2000/svg" xmlns:xlink="http://www.w3.org/1999/xlink" x="0px" y="0px"
	 width="155.445px" height="155.444px" viewBox="0 0 155.445 155.444" enable-background="new 0 0 155.445 155.444"
	 xml:space="preserve">
<g>
	<defs>
		<circle id="SVGID_1_" cx="77.723" cy="77.723" r="77.723"/>
	</defs>
	<clipPath id="SVGID_2_">
		<use xlink:href="#SVGID_1_"  overflow="visible"/>
	</clipPath>
	<g clip-path="url(#SVGID_2_)">
		<circle fill="#FFECB0" cx="77.723" cy="77.723" r="77.723"/>
		<g>
			
				<rect x="66.208" y="106.173" fill="#F3E1D4" stroke="#687C89" stroke-width="1.5" stroke-miterlimit="10" width="18.51" height="26.083"/>
			
				<path fill="#F1D8E8" stroke="#687C89" stroke-width="2" stroke-linecap="round" stroke-linejoin="round" stroke-miterlimit="10" d="
				M85.145,121.345l-0.281,4.528c0,3.415-2.98,6.216-6.271,6.216h-6.584c-3.294,0-5.964-2.769-5.964-6.182v-4.974
				c-4.493,0.744-24.069,10.021-24.069,13.295v20.094h66.979v-19.064C108.954,131.845,88.436,121.345,85.145,121.345z"/>
			
				<path fill="#E99197" stroke="#687C89" stroke-width="1.4257" stroke-linecap="round" stroke-linejoin="round" stroke-miterlimit="10" d="
				M111.784,56.043c-1.859-13.743-3.649-30.883-27.516-38.397H69.511c-24.726,1.938-29.163,43.575-29.018,48.624
				c-3.314,26.927,1.602,55.075,1.602,55.075c-1.214-80.468,43.991-69.835,62.461-46.398c7.919,10.049,7.634,46.398,7.634,46.398
				S118.105,85.525,111.784,56.043z"/>
			
				<path fill="#AAA3D0" stroke="#687C89" stroke-width="2" stroke-linecap="round" stroke-linejoin="round" stroke-miterlimit="10" d="
				M83.878,22.094c1.216-0.841,0.978-3.457-0.396-6.605c3.165-1.336,5.139-3.065,4.837-4.516C88.063,9.75,86.24,9,83.619,8.816
				c0.587-2.56,0.397-4.522-0.696-5.122c-1.26-0.691-3.396,0.602-5.531,3.088c-2.381-2.253-4.64-3.318-5.82-2.501
				c-1.219,0.842-0.979,3.455,0.391,6.605c-3.163,1.336-5.138,3.066-4.835,4.517c0.256,1.221,2.078,1.973,4.7,2.154
				c-0.587,2.561-0.397,4.523,0.696,5.125c1.261,0.689,3.396-0.603,5.531-3.09C80.436,21.846,82.694,22.911,83.878,22.094z"/>
			<g>
				<g>
					
						<ellipse fill="#F3E1D4" stroke="#687C89" stroke-width="1.5" stroke-miterlimit="10" cx="112.072" cy="80.982" rx="5.451" ry="6.959"/>
					
						<ellipse fill="#F3E1D4" stroke="#687C89" stroke-width="1.5" stroke-miterlimit="10" cx="41.978" cy="80.982" rx="5.453" ry="6.959"/>
				</g>
				<path fill="#F3E1D4" stroke="#687C89" stroke-width="1.5" stroke-miterlimit="10" d="M112.071,87.105c0-2.577,0-6.033,0-7.105
					v-6.811c0,0-1.15-13.642-10.441-21.143C87.448,40.599,55.632,37.697,41.977,73.189V80c0,1.041,0,4.51,0,7.105
					c0,1.164,0,2.151,0,2.666c0,3.952,0.934,7.719,2.615,11.163c3.866,7.916,11.716,14.101,21.456,16.798
					c3.454,0.955,7.142,1.481,10.978,1.481c2.587,0,5.105-0.241,7.532-0.688c11.364-2.092,20.657-8.812,24.947-17.691
					c1.649-3.416,2.566-7.147,2.566-11.062C112.071,89.271,112.071,88.279,112.071,87.105z"/>
			</g>
			<g>
				<g>
					<path fill="none" stroke="#91E5DB" stroke-width="3" stroke-miterlimit="10" d="M111.013,63.568
						c0,9.195-6.888,16.648-15.384,16.648c-8.497,0-15.384-7.453-15.384-16.648S111.013,54.373,111.013,63.568z"/>
					<path fill="none" stroke="#91E5DB" stroke-width="3" stroke-miterlimit="10" d="M43.037,63.568c0-9.195,30.768-9.195,30.768,0
						s-6.887,16.648-15.384,16.648S43.037,72.764,43.037,63.568z"/>
					<path fill="none" stroke="#91E5DB" stroke-width="3" stroke-miterlimit="10" d="M80.245,63.568c0,0-1.269-3.11-5.825-0.017"/>
				</g>
				<ellipse fill="#687C89" stroke="#687C89" stroke-miterlimit="10" cx="60.266" cy="66.548" rx="2.532" ry="3.673"/>
				<ellipse fill="#687C89" stroke="#687C89" stroke-miterlimit="10" cx="94.12" cy="66.548" rx="2.532" ry="3.673"/>
			</g>
			<g>
				
					<polygon fill="#F3E1D4" stroke="#687C89" stroke-width="1.5" stroke-linecap="round" stroke-linejoin="round" stroke-miterlimit="10" points="
					77.331,83.541 69.511,83.541 73.42,74.947 77.331,66.353 81.243,74.947 85.154,83.541 				"/>
				<polygon fill="#E1CBC1" points="77.386,82.556 71.118,82.556 73.177,77.723 81.324,77.723 83.65,82.556 				"/>
			</g>
			<g>
				<ellipse fill="#E1CBC1" stroke="#687C89" stroke-miterlimit="10" cx="55.015" cy="87.941" rx="4.824" ry="4.063"/>
				<ellipse fill="#E1CBC1" stroke="#687C89" stroke-miterlimit="10" cx="99.65" cy="87.941" rx="4.822" ry="4.063"/>
			</g>
			
				<path fill="none" stroke="#687C89" stroke-width="1.4257" stroke-linecap="round" stroke-linejoin="round" stroke-miterlimit="10" d="
				M61.592,92.966c0,0,14.107,5.577,31.585,1.353"/>
			
				<path fill="none" stroke="#687C89" stroke-width="1.4257" stroke-linecap="round" stroke-linejoin="round" stroke-miterlimit="10" d="
				M70.338,103.634c0,0,4.369,1.81,10.25,0.438"/>
			<g>
				
					<rect x="52.864" y="27.744" transform="matrix(0.7071 0.7071 -0.7071 0.7071 41.5069 -31.9078)" fill="#AAA3D0" stroke="#687C89" stroke-linecap="round" stroke-linejoin="round" stroke-miterlimit="10" width="12.811" height="12.81"/>
				
					<rect x="70.978" y="27.745" transform="matrix(0.7071 0.7071 -0.7071 0.7071 46.8164 -44.7174)" fill="#B4856C" stroke="#687C89" stroke-width="0.8904" stroke-linecap="round" stroke-linejoin="round" stroke-miterlimit="10" width="12.81" height="12.809"/>
				
					<rect x="89.095" y="27.813" transform="matrix(0.7071 0.7071 -0.7071 0.7071 52.162 -57.5042)" fill="#AAA3D0" stroke="#687C89" stroke-linecap="round" stroke-linejoin="round" stroke-miterlimit="10" width="12.81" height="12.81"/>
				
					<rect x="55.296" y="30.176" transform="matrix(0.707 0.7072 -0.7072 0.707 41.5152 -31.9102)" fill="#F1D8E8" stroke="#687C89" stroke-linecap="round" stroke-linejoin="round" stroke-miterlimit="10" width="7.948" height="7.946"/>
				
					<rect x="73.409" y="30.176" transform="matrix(0.707 0.7073 -0.7073 0.707 46.829 -44.7226)" fill="#F1D8E8" stroke="#687C89" stroke-linecap="round" stroke-linejoin="round" stroke-miterlimit="10" width="7.947" height="7.945"/>
				
					<rect x="91.524" y="30.176" transform="matrix(0.707 0.7072 -0.7072 0.707 52.1296 -57.531)" fill="#F1D8E8" stroke="#687C89" stroke-linecap="round" stroke-linejoin="round" stroke-miterlimit="10" width="7.948" height="7.946"/>
			</g>
			
				<polyline fill="none" stroke="#FFFFFF" stroke-width="1.0554" stroke-linecap="round" stroke-linejoin="round" stroke-miterlimit="10" stroke-dasharray="1.0554,2.1108,1.0554,2.1108,1.0554,2.1108" points="
				95.629,22.881 86.441,29.877 77.383,20.944 68.325,30.319 58.454,21.828 			"/>
			
				<polyline fill="none" stroke="#F8F8F9" stroke-width="1.0554" stroke-linecap="round" stroke-linejoin="round" stroke-miterlimit="10" stroke-dasharray="1.0554,2.1108,1.0554,2.1108,1.0554,2.1108" points="
				47.488,36.388 59.27,46.647 68.325,36.976 77.383,44.346 86.441,36.388 96.334,46.647 106.415,34.774 			"/>
			
				<rect x="41.977" y="135.547" fill="#D4EAD5" stroke="#687C89" stroke-width="2" stroke-miterlimit="10" width="66.978" height="4.525"/>
			
				<rect x="41.977" y="144.703" fill="#D4EAD5" stroke="#687C89" stroke-width="2" stroke-miterlimit="10" width="66.978" height="4.524"/>
		</g>
		
			<line fill="none" stroke="#778793" stroke-width="2" stroke-linecap="round" stroke-miterlimit="10" x1="89.814" y1="56.672" x2="99.84" y2="56.672"/>
		
			<line fill="none" stroke="#778793" stroke-width="2" stroke-linecap="round" stroke-miterlimit="10" x1="57.784" y1="56.672" x2="67.81" y2="56.672"/>
	</g>
</g>
</svg>
