<?xml version="1.0" encoding="utf-8"?>
<!-- Generator: Adobe Illustrator 15.1.0, SVG Export Plug-In . SVG Version: 6.00 Build 0)  -->
<!DOCTYPE svg PUBLIC "-//W3C//DTD SVG 1.1//EN" "http://www.w3.org/Graphics/SVG/1.1/DTD/svg11.dtd">
<svg version="1.1" id="Capa_1" xmlns="http://www.w3.org/2000/svg" xmlns:xlink="http://www.w3.org/1999/xlink" x="0px" y="0px"
	 width="156px" height="156px" viewBox="0 0 156 156" enable-background="new 0 0 156 156" xml:space="preserve">
<g>
	<defs>
		<circle id="SVGID_1_" cx="78" cy="78" r="77.723"/>
	</defs>
	<clipPath id="SVGID_2_">
		<use xlink:href="#SVGID_1_"  overflow="visible"/>
	</clipPath>
	<g clip-path="url(#SVGID_2_)">
		<circle fill="#AAA4D1" cx="78" cy="78" r="77.723"/>
		
			<rect x="66.829" y="103.193" fill="#E6CFC3" stroke="#687D89" stroke-width="1.5" stroke-miterlimit="10" width="19.002" height="38.45"/>
		<g>
			<g>
				
					<path fill="#EC9EC5" stroke="#687D89" stroke-width="2" stroke-linecap="round" stroke-linejoin="round" stroke-miterlimit="10" d="
					M86.391,119.917c0,0,1.337,16.544-9.399,15.717c-9.326-0.716-10.902-13.667-10.902-13.667
					c-5.047,0.937-26.854,9.609-26.854,13.721v25.233h75.157v-23.939C114.393,132.693,90.09,119.917,86.391,119.917z"/>
			</g>
			<circle fill="#F7F7F6" stroke="#687D89" stroke-width="0.75" stroke-miterlimit="10" cx="76.522" cy="141.3" r="1.892"/>
			<circle fill="#F7F7F6" stroke="#687D89" stroke-width="0.75" stroke-miterlimit="10" cx="76.522" cy="147.174" r="1.892"/>
			<circle fill="#F7F7F6" stroke="#687D89" stroke-width="0.75" stroke-miterlimit="10" cx="76.522" cy="152.541" r="1.892"/>
		</g>
		<path fill="#5E422E" stroke="#3E2613" stroke-width="1.5" stroke-miterlimit="10" d="M114.372,91.003l-72.3-2.897
			c-5.088-0.062-5.088-30.751-5.088-30.751c0-2.731,4.463-4.541,7.193-4.541h70.194c2.732,0,4.944,2.214,4.944,4.943
			C119.316,57.757,120.19,91.003,114.372,91.003z"/>
		<g>
			<path fill="#5E422E" stroke="#3E2613" stroke-width="1.5" stroke-miterlimit="10" d="M106.025,115.348
				c-0.278,2.512-3.281,4.242-6.715,3.863c-3.43-0.377-5.984-2.722-5.708-5.233c0.278-2.515,3.283-4.243,6.712-3.866
				C103.748,110.491,106.303,112.837,106.025,115.348z"/>
			<path fill="#5E422E" stroke="#3E2613" stroke-width="1.5" stroke-miterlimit="10" d="M115.666,112.758
				c-0.277,2.512-3.281,4.244-6.713,3.863c-3.43-0.377-5.984-2.722-5.709-5.233c0.277-2.512,3.283-4.243,6.713-3.865
				C113.391,107.902,115.944,110.247,115.666,112.758z"/>
			<path fill="#5E422E" stroke="#3E2613" stroke-width="1.5" stroke-miterlimit="10" d="M106.308,106.168
				c-0.278,2.514-3.281,4.243-6.714,3.865c-3.43-0.379-5.986-2.725-5.709-5.236c0.279-2.512,3.283-4.241,6.713-3.863
				C104.031,101.312,106.583,103.658,106.308,106.168z"/>
			<path fill="#5E422E" stroke="#3E2613" stroke-width="1.5" stroke-miterlimit="10" d="M116.591,104.381
				c-0.274,2.512-3.281,4.242-6.713,3.863c-3.429-0.378-5.984-2.723-5.708-5.234c0.277-2.512,3.283-4.244,6.714-3.866
				C114.314,99.522,116.869,101.868,116.591,104.381z"/>
			
				<ellipse transform="matrix(0.7334 0.6798 -0.6798 0.7334 109.8086 -34.5222)" fill="#5E422E" stroke="#3E2613" stroke-width="1.5" stroke-miterlimit="10" cx="98.921" cy="122.749" rx="6.249" ry="4.578"/>
			<path fill="#5E422E" stroke="#3E2613" stroke-width="1.5" stroke-miterlimit="10" d="M104.105,128.128
				c-2.271-1.11-2.889-4.522-1.375-7.627c1.515-3.101,4.584-4.718,6.854-3.606c2.271,1.106,2.887,4.521,1.374,7.622
				C109.445,127.621,106.377,129.233,104.105,128.128z"/>
			<path fill="#5E422E" stroke="#3E2613" stroke-width="1.5" stroke-miterlimit="10" d="M99.672,151.703
				c-2.506-0.326-4.865-7.555-4.051-14.921c0.378-3.426,3.884-5.488,6.391-5.159c2.505,0.323,4.912,3.375,4.536,6.804
				C105.896,144.351,102.178,152.026,99.672,151.703z"/>
			
				<rect x="98.072" y="128.365" transform="matrix(0.994 0.1097 -0.1097 0.994 14.9512 -10.4024)" fill="#C7B3D7" stroke="#687D89" stroke-width="2" stroke-linecap="round" stroke-linejoin="round" stroke-miterlimit="10" width="7.85" height="4.575"/>
			
				<ellipse transform="matrix(0.994 0.1096 -0.1096 0.994 11.3241 -10.5601)" fill="#5E422E" stroke="#3E2613" stroke-width="1.5" stroke-miterlimit="10" cx="101.686" cy="97.691" rx="6.248" ry="4.576"/>
			
				<ellipse transform="matrix(0.994 0.1096 -0.1096 0.994 11.0844 -11.5606)" fill="#5E422E" stroke="#3E2613" stroke-width="1.5" stroke-miterlimit="10" cx="110.68" cy="95.027" rx="6.249" ry="4.579"/>
			<path fill="#5E422E" stroke="#3E2613" stroke-width="1.5" stroke-miterlimit="10" d="M107.76,91.175
				c-0.277,2.511-3.282,4.243-6.714,3.862c-3.431-0.377-5.986-2.722-5.707-5.233c0.274-2.512,3.282-4.242,6.712-3.865
				C105.482,86.317,108.036,88.663,107.76,91.175z"/>
			<path fill="#5E422E" stroke="#3E2613" stroke-width="1.5" stroke-miterlimit="10" d="M116.753,88.51
				c-0.276,2.515-3.281,4.244-6.715,3.867c-3.429-0.38-5.984-2.726-5.708-5.237c0.279-2.511,3.283-4.241,6.713-3.863
				C114.477,83.654,117.03,86.001,116.753,88.51z"/>
		</g>
		
			<ellipse fill="#E6CFC3" stroke="#687D89" stroke-width="1.5" stroke-miterlimit="10" cx="39.235" cy="69.573" rx="5.768" ry="7.101"/>
		
			<ellipse fill="#E6CFC3" stroke="#687D89" stroke-width="1.5" stroke-miterlimit="10" cx="115.968" cy="69.573" rx="5.767" ry="7.101"/>
		<path fill="#E6CFC3" stroke="#687D89" stroke-width="1.5" stroke-miterlimit="10" d="M115.092,59.068
			c0-13.329-46.927-35.665-46.927-35.665c-15.245,0-27.618,22.336-27.618,35.665v16.089c0,1.543,0,8.313,0,10.021
			c0,16.68,16.691,30.201,37.275,30.201c20.582,0,37.27-13.521,37.27-30.201c0-1.643,0-8.422,0-10.021V59.068z"/>
		<ellipse fill="#687D89" cx="61.089" cy="67.616" rx="1.995" ry="3.294"/>
		<path fill="#687D89" d="M95.557,67.616c0,1.819-0.893,3.294-1.996,3.294c-1.099,0-1.993-1.475-1.993-3.294
			s0.895-3.294,1.993-3.294C94.664,64.322,95.557,65.797,95.557,67.616z"/>
		
			<path fill="none" stroke="#788893" stroke-width="1.5" stroke-linecap="round" stroke-linejoin="round" stroke-miterlimit="10" d="
			M83.063,106.223c0,0-4.205,1.742-9.863,0.423"/>
		
			<path fill="none" stroke="#687D89" stroke-width="1.5" stroke-linecap="round" stroke-linejoin="round" stroke-miterlimit="10" d="
			M62.776,88.044c0,0,14.778,13.32,30.401,0"/>
		<path fill="#5E422E" stroke="#3E2613" stroke-width="1.5" stroke-miterlimit="10" d="M102.57,29.123
			c-9.426-5.603-35.324-9.158-49.279-2.278c-10.656,5.25-20.258,24.458-16.814,28.331c3.443,3.877,38.156-3.955,40.98-21.175
			c0.518,20.235,37.662,26.116,41.844,21.647C123.494,51.177,111.991,34.729,102.57,29.123z"/>
		<g>
			<polygon fill="#D5C0B5" points="78.178,81.971 73.215,81.971 74.844,77.772 81.297,77.772 83.141,81.971 			"/>
			
				<polygon fill="none" stroke="#687D89" stroke-width="1.5" stroke-linecap="round" stroke-linejoin="round" stroke-miterlimit="10" points="
				78.136,82.829 71.941,82.829 75.039,75.363 78.136,67.896 81.234,75.363 84.333,82.829 			"/>
		</g>
		<circle fill="#D5C0B5" cx="53.019" cy="80.432" r="6.335"/>
		<circle fill="#D5C0B5" cx="101.751" cy="80.432" r="6.335"/>
		<path fill="none" stroke="#788893" stroke-width="1.5" stroke-linecap="round" stroke-miterlimit="10" d="M90.225,60.066
			c0,0,8.079-5.678,12.912,1.065"/>
		<path fill="none" stroke="#788893" stroke-width="1.5" stroke-linecap="round" stroke-miterlimit="10" d="M55.019,60.828
			c0,0,6.704-7.251,12.849-1.677"/>
	</g>
</g>
</svg>
