<?xml version="1.0" encoding="utf-8"?>
<!-- Generator: Adobe Illustrator 15.1.0, SVG Export Plug-In . SVG Version: 6.00 Build 0)  -->
<!DOCTYPE svg PUBLIC "-//W3C//DTD SVG 1.1//EN" "http://www.w3.org/Graphics/SVG/1.1/DTD/svg11.dtd">
<svg version="1.1" id="Capa_1" xmlns="http://www.w3.org/2000/svg" xmlns:xlink="http://www.w3.org/1999/xlink" x="0px" y="0px"
	 width="156px" height="156px" viewBox="0 0 156 156" enable-background="new 0 0 156 156" xml:space="preserve">
<g>
	<defs>
		<circle id="SVGID_1_" cx="76.981" cy="77.026" r="77.722"/>
	</defs>
	<clipPath id="SVGID_2_">
		<use xlink:href="#SVGID_1_"  overflow="visible"/>
	</clipPath>
	<g clip-path="url(#SVGID_2_)">
		<circle fill="#F9AD94" cx="77.277" cy="77.432" r="77.723"/>
		<g>
			<path fill="#5E422E" stroke="#503620" stroke-width="1.3321" stroke-miterlimit="10" d="M117.314,37.004
				c0-3.379-2.716-6.119-6.061-6.119H46.091c-3.347,0-6.061,2.74-6.061,6.119v34.308c0,3.38,2.714,6.12,6.061,6.12h65.163
				c3.345,0,6.061-2.74,6.061-6.12V37.004z"/>
			
				<ellipse fill="#F3D8C0" stroke="#626D8A" stroke-width="1.437" stroke-miterlimit="10" cx="115.013" cy="69.271" rx="5.596" ry="6.889"/>
			
				<rect x="67.779" y="105.773" fill="#F3D8C0" stroke="#626D8A" stroke-width="1.5" stroke-miterlimit="10" width="18.996" height="32.749"/>
			
				<ellipse fill="#F3D8C0" stroke="#626D8A" stroke-width="1.437" stroke-miterlimit="10" cx="43.076" cy="69.271" rx="5.596" ry="6.889"/>
			<path fill="#F3D8C0" stroke="#626D8A" stroke-width="1.437" stroke-miterlimit="10" d="M115.013,63.192
				c0-12.861-11.681-34.415-26.395-34.415H69.727c-14.711,0-26.65,21.554-26.65,34.415v15.525c0,1.493,0,8.026,0,9.674
				c0,16.095,16.105,29.146,35.97,29.146s35.967-13.051,35.967-29.146c0-1.586,0-8.128,0-9.674V63.192z"/>
			
				<path fill="none" stroke="#626D8A" stroke-width="1.437" stroke-linecap="round" stroke-linejoin="round" stroke-miterlimit="10" d="
				M72.763,108.136c0,0,4.483,1.791,10.52,0.434"/>
			
				<line fill="none" stroke="#788893" stroke-width="2.874" stroke-linecap="round" stroke-miterlimit="10" x1="91.216" y1="52.037" x2="104.984" y2="56.28"/>
			<path fill="#4A94CD" stroke="#626D8A" stroke-width="2" stroke-miterlimit="10" d="M87.318,120.955l-0.713,6.421
				c0,4.654-2.562,7.6-5.941,7.6h-6.521c-3.379,0-6.532-2.945-6.532-7.6v-6.781c-4.611,1.018-24.703,13.664-24.703,18.128v27.392
				h68.74v-25.987C111.647,135.473,90.826,122.256,87.318,120.955z"/>
			<path fill="none" stroke="#788893" stroke-width="1.5" stroke-linecap="round" stroke-miterlimit="10" d="M58.308,68.727
				c0-2.43,1.713-4.397,3.826-4.397c2.112,0,3.824,1.968,3.824,4.397"/>
			<path fill="none" stroke="#788893" stroke-width="1.5" stroke-linecap="round" stroke-miterlimit="10" d="M94.84,68.727
				c0-2.43,1.711-4.397,3.823-4.397c2.114,0,3.826,1.968,3.826,4.397"/>
			<path fill="#5E422E" stroke="#503620" stroke-width="1.3384" stroke-miterlimit="10" d="M109.093,29.127
				c-0.526-6.939-9.434-12.467-20.381-12.467c-4.33,0-8.335,0.871-11.64,2.344c-3.741-1.828-8.175-2.9-12.944-2.9
				c-13.285,0-24.056,8.218-24.056,18.353c0,10.138,10.771,18.354,24.056,18.354c9.389,0,17.501-4.114,21.462-10.1
				c1.019,0.104,2.058,0.17,3.122,0.17c3.368,0,6.541-0.533,9.345-1.462c1.867,2.213,5.101,3.677,8.777,3.677
				c5.789,0,10.48-3.616,10.48-8.083C117.314,33.149,113.795,29.924,109.093,29.127z"/>
			
				<path fill="none" stroke="#503620" stroke-width="1.3384" stroke-linecap="round" stroke-linejoin="round" stroke-miterlimit="10" d="
				M86.212,27.915c0,0-32.539,27.207-49.758-1.307"/>
			
				<path fill="none" stroke="#503620" stroke-width="1.3384" stroke-linecap="round" stroke-linejoin="round" stroke-miterlimit="10" d="
				M79.162,20.927c0,0-23.945,19.931-42.708-0.948"/>
			<g>
				<polygon fill="#E0C9B4" points="80.858,86.474 75.459,86.474 77.231,79.762 84.254,79.762 86.26,86.474 				"/>
				<polygon fill="none" stroke="#626D8A" stroke-width="1.5081" stroke-linejoin="round" stroke-miterlimit="10" points="
					80.599,86.474 74.938,86.474 77.771,76.558 80.599,66.641 83.43,76.558 86.26,86.474 				"/>
			</g>
			
				<path fill="none" stroke="#626D8A" stroke-width="1.437" stroke-linecap="round" stroke-linejoin="round" stroke-miterlimit="10" d="
				M63.786,97.575c0,0,14.479,5.521,32.418,1.339"/>
			
				<path fill="#FFFFFF" stroke="#626D8A" stroke-width="1.3384" stroke-linecap="round" stroke-linejoin="round" stroke-miterlimit="10" d="
				M72.964,134.976h8.727c4.362,0,7.903-3.392,7.903-7.573v-5.188c0.259,0-1.664-0.831-2.319-0.831l-0.401,4.139
				c0,3.378-2.741,6.12-6.12,6.12h-6.756c-3.379,0-6.12-2.742-6.12-6.12v-4.927c-0.657,0.104-1.636,0.387-2.817,0.794v6.014
				C65.06,131.584,68.599,134.976,72.964,134.976z"/>
			
				<line fill="none" stroke="#788893" stroke-width="2.874" stroke-linecap="round" stroke-miterlimit="10" x1="53.851" y1="60.864" x2="67.301" y2="55.702"/>
			<circle fill="#E0C9B4" cx="60.053" cy="84.871" r="4.942"/>
			<circle fill="#E0C9B4" cx="100.08" cy="84.871" r="4.942"/>
		</g>
	</g>
</g>
</svg>
