<?xml version="1.0" encoding="utf-8"?>
<!-- Generator: Adobe Illustrator 15.1.0, SVG Export Plug-In . SVG Version: 6.00 Build 0)  -->
<!DOCTYPE svg PUBLIC "-//W3C//DTD SVG 1.1//EN" "http://www.w3.org/Graphics/SVG/1.1/DTD/svg11.dtd">
<svg version="1.1" id="Capa_1" xmlns="http://www.w3.org/2000/svg" xmlns:xlink="http://www.w3.org/1999/xlink" x="0px" y="0px"
	 width="399px" height="558px" viewBox="0 0 399 558" enable-background="new 0 0 399 558" xml:space="preserve">
<g>
	<g>
		<path fill="#818285" d="M397.929,389.028c0,92.951-76.259,168.301-170.334,168.301c-94.07,0-170.332-75.35-170.332-168.301
			c0-92.948,76.262-168.296,170.332-168.296C321.67,220.732,397.929,296.08,397.929,389.028z"/>
		<path fill="#6C6D6F" d="M249.539,345.811c0,30.64-25.14,55.481-56.155,55.481c-31.01,0-56.147-24.842-56.147-55.481
			c0-30.641,25.137-55.479,56.147-55.479C224.399,290.331,249.539,315.17,249.539,345.811z"/>
		<path fill="#6C6D6F" d="M148.131,480.626c0,14.91-12.23,26.99-27.312,26.99c-15.088,0-27.316-12.08-27.316-26.99
			c0-14.905,12.229-26.989,27.316-26.989C135.9,453.637,148.131,465.721,148.131,480.626z"/>
		<path fill="#6C6D6F" d="M359.915,308.355c0,12.006-9.849,21.74-22.003,21.74c-12.152,0-22.005-9.734-22.005-21.74
			c0-12.011,9.853-21.742,22.005-21.742C350.066,286.613,359.915,296.345,359.915,308.355z"/>
		<path fill="#6C6D6F" d="M273.298,380.762c0,16.574-13.601,30.006-30.374,30.006c-16.771,0-30.369-13.432-30.369-30.006
			c0-16.571,13.599-30.011,30.369-30.011C259.697,350.751,273.298,364.19,273.298,380.762z"/>
		<g>
			<g>
				<path fill="#8FCD94" d="M4.711,37.215c8.753-19.277,40.741-32.821,64.61-36.443c23.989-3.648,54.56-0.86,69.964,13.948
					c57.045,54.833-41.791,168.378-41.791,168.378S-29.254,112.022,4.711,37.215z"/>
				<path fill="#F79C83" d="M14.708,35.699C21.98,16.645,49.668,3.754,70.454,0.598c20.893-3.175,47.655,0.191,61.412,15.245
					c50.922,55.764-33.217,167.079-33.217,167.079S-13.5,109.628,14.708,35.699z"/>
				<path fill="#8FCD94" d="M40.005,31.854C43.008,13.448,58.303,2.441,70.213,0.633C82.184-1.187,98,3.844,106.994,19.621
					c33.297,58.443-8.508,163.327-8.508,163.327S28.366,103.268,40.005,31.854z"/>
				<path fill="#54C0E8" d="M98.605,183.717c0,0-0.071-1.805,1.289-4.499c16-31.644,47.235-182.521-29.44-178.621L98.605,183.717z"
					/>
			</g>
			
				<line fill="none" stroke="#505978" stroke-width="0.9784" stroke-miterlimit="10" stroke-dasharray="3.9138,2.9353,3.9138,2.9353,3.9138,2.9353" x1="105.466" y1="173.192" x2="110.475" y2="203.333"/>
			
				<line fill="none" stroke="#505978" stroke-width="0.9784" stroke-miterlimit="10" stroke-dasharray="3.9138,2.9353,3.9138,2.9353,3.9138,2.9353" x1="88.552" y1="177.212" x2="93.348" y2="206.105"/>
			
				<line fill="none" stroke="#505978" stroke-width="1.4677" stroke-linecap="round" stroke-linejoin="round" stroke-miterlimit="10" x1="86.857" y1="207.072" x2="58.714" y2="156.265"/>
			
				<line fill="none" stroke="#505978" stroke-width="1.4677" stroke-linecap="round" stroke-linejoin="round" stroke-miterlimit="10" x1="125.436" y1="146.125" x2="114.695" y2="202.641"/>
			<g>
				
					<path fill="none" stroke="#505978" stroke-width="1.4677" stroke-linecap="round" stroke-linejoin="round" stroke-miterlimit="10" d="
					M75.173,168.67c1.305,11.537,11.826,19.84,23.499,18.553c11.668-1.289,18.444-14.168,17.142-25.701"/>
			</g>
			<g>
				<polyline fill="#EF5225" points="86.857,207.072 90.82,232.854 118.856,228.644 114.896,202.864 				"/>
				<polyline fill="#F7F8F9" points="94.839,205.878 97.614,223.948 109.817,222.121 107.037,204.045 				"/>
				<polygon fill="#FAB585" points="118.829,228.615 90.84,232.815 91.679,238.26 119.663,234.062 				"/>
			</g>
			<path opacity="0.4" fill="#FFFFFF" d="M24.14,31.109c8.754-19.277,15.921-16.736,8.71,2.147
				c-26.96,70.66,64.202,149.909,64.202,149.909S-9.825,105.917,24.14,31.109z"/>
			<g opacity="0.4">
				<path opacity="0.69" fill="#FFFFFF" d="M116.373,19.299c-1.428,2.955-9.105,2.272-17.153-1.517
					c-8.047-3.793-13.418-9.258-11.991-12.212c1.426-2.949,9.104-2.277,17.15,1.516C112.425,10.878,117.796,16.343,116.373,19.299z"
					/>
				<path opacity="0.64" fill="#FFFFFF" d="M123.004,25.704c-0.718,1.473-2.769,1.977-4.595,1.122
					c-1.819-0.86-2.721-2.755-2.007-4.235c0.714-1.471,2.767-1.977,4.594-1.114C122.812,22.333,123.714,24.229,123.004,25.704z"/>
			</g>
		</g>
		<path fill="#6C6D6F" d="M327.924,487.005c0,14.909-12.23,26.994-27.312,26.994c-15.086,0-27.314-12.085-27.314-26.994
			c0-14.901,12.229-26.986,27.314-26.986C315.693,460.019,327.924,472.104,327.924,487.005z"/>
		<path fill="#6C6D6F" d="M311.672,453.637c0,8.255-6.772,14.944-15.123,14.944c-8.354,0-15.124-6.689-15.124-14.944
			c0-8.249,6.771-14.939,15.124-14.939C304.899,438.697,311.672,445.388,311.672,453.637z"/>
	</g>
	<g>
		<rect x="200.17" y="129.266" fill="#F79C83" width="103.958" height="58.287"/>
		<rect x="200.17" y="129.268" fill="#54C0E8" width="40.502" height="26.996"/>
		<g>
			<ellipse fill="#FFFFFF" cx="205.656" cy="135.515" rx="1.941" ry="1.917"/>
			<ellipse fill="#FFFFFF" cx="205.656" cy="143.183" rx="1.941" ry="1.917"/>
			<ellipse fill="#FFFFFF" cx="205.656" cy="150.853" rx="1.941" ry="1.917"/>
		</g>
		<g>
			<ellipse fill="#FFFFFF" cx="213.25" cy="135.515" rx="1.941" ry="1.917"/>
			<ellipse fill="#FFFFFF" cx="213.25" cy="143.183" rx="1.941" ry="1.917"/>
			<ellipse fill="#FFFFFF" cx="213.25" cy="150.853" rx="1.941" ry="1.917"/>
		</g>
		<g>
			<ellipse fill="#FFFFFF" cx="220.001" cy="135.515" rx="1.942" ry="1.917"/>
			<ellipse fill="#FFFFFF" cx="220.001" cy="143.183" rx="1.942" ry="1.917"/>
			<ellipse fill="#FFFFFF" cx="220.001" cy="150.853" rx="1.942" ry="1.917"/>
		</g>
		<g>
			<ellipse fill="#FFFFFF" cx="227.596" cy="135.515" rx="1.941" ry="1.917"/>
			<ellipse fill="#FFFFFF" cx="227.596" cy="143.183" rx="1.941" ry="1.917"/>
			<ellipse fill="#FFFFFF" cx="227.596" cy="150.853" rx="1.941" ry="1.917"/>
		</g>
		<g>
			<ellipse fill="#FFFFFF" cx="235.947" cy="135.515" rx="1.941" ry="1.917"/>
			<ellipse fill="#FFFFFF" cx="235.947" cy="143.183" rx="1.941" ry="1.917"/>
			<ellipse fill="#FFFFFF" cx="235.947" cy="150.853" rx="1.941" ry="1.917"/>
		</g>
		<rect x="240.672" y="133.106" fill="#FFFFFF" width="63.456" height="3.833"/>
		<rect x="240.672" y="140.85" fill="#FFFFFF" width="63.456" height="3.833"/>
		<rect x="240.672" y="148.52" fill="#FFFFFF" width="63.456" height="3.833"/>
		<rect x="200.17" y="156.188" fill="#FFFFFF" width="103.958" height="3.833"/>
		<rect x="200.17" y="163.854" fill="#FFFFFF" width="103.958" height="3.833"/>
		<rect x="200.17" y="171.521" fill="#FFFFFF" width="103.958" height="3.834"/>
		<rect x="200.17" y="179.885" fill="#FFFFFF" width="103.958" height="3.833"/>
	</g>
	
		<line fill="none" stroke="#505978" stroke-width="1.4677" stroke-linecap="round" stroke-linejoin="round" stroke-miterlimit="10" x1="200.17" y1="129.266" x2="200.17" y2="225.981"/>
</g>
</svg>
