<?xml version="1.0" encoding="utf-8"?>
<!-- Generator: Adobe Illustrator 15.1.0, SVG Export Plug-In . SVG Version: 6.00 Build 0)  -->
<!DOCTYPE svg PUBLIC "-//W3C//DTD SVG 1.1//EN" "http://www.w3.org/Graphics/SVG/1.1/DTD/svg11.dtd">
<svg version="1.1" id="Capa_1" xmlns="http://www.w3.org/2000/svg" xmlns:xlink="http://www.w3.org/1999/xlink" x="0px" y="0px"
	 width="199px" height="279px" viewBox="0 0 199 279" enable-background="new 0 0 199 279" xml:space="preserve">
<g>
	<g>
		<circle fill="#818285" cx="112.693" cy="193.622" r="83.303"/>
		<circle fill="#6C6D6F" cx="95.963" cy="172.23" r="27.461"/>
		<circle fill="#6C6D6F" cx="60.471" cy="238.961" r="13.358"/>
		<circle fill="#6C6D6F" cx="166.644" cy="153.691" r="10.761"/>
		<circle fill="#6C6D6F" cx="120.19" cy="189.53" r="14.854"/>
		<g>
			<g>
				<path fill="#8FCD94" d="M3.688,19.484C7.969,9.942,23.613,3.238,35.287,1.445C47.019-0.36,61.97,1.02,69.503,8.349
					C97.402,35.49,49.065,91.692,49.065,91.692S-12.922,56.511,3.688,19.484z"/>
				<path fill="#F79C83" d="M8.578,18.733C12.134,9.302,25.675,2.921,35.841,1.359c10.218-1.572,23.306,0.095,30.034,7.546
					c24.904,27.602-16.245,82.7-16.245,82.7S-5.218,55.326,8.578,18.733z"/>
				<path fill="#8FCD94" d="M20.95,16.83c1.468-9.11,8.949-14.559,14.773-15.454c5.854-0.9,13.589,1.589,17.988,9.398
					c16.284,28.928-4.161,80.843-4.161,80.843S15.257,52.178,20.95,16.83z"/>
				<path fill="#54C0E8" d="M49.608,91.999c0,0-0.035-0.894,0.63-2.227C58.064,74.109,73.339-0.571,35.841,1.359L49.608,91.999z"/>
			</g>
			
				<line fill="none" stroke="#505978" stroke-width="0.9784" stroke-miterlimit="10" stroke-dasharray="3.9138,2.9353,3.9138,2.9353,3.9138,2.9353" x1="52.964" y1="86.789" x2="55.414" y2="101.708"/>
			
				<line fill="none" stroke="#505978" stroke-width="0.9784" stroke-miterlimit="10" stroke-dasharray="3.9138,2.9353,3.9138,2.9353,3.9138,2.9353" x1="44.692" y1="88.779" x2="47.038" y2="103.08"/>
			
				<line fill="none" stroke="#505978" stroke-width="1.4677" stroke-linecap="round" stroke-linejoin="round" stroke-miterlimit="10" x1="43.863" y1="103.559" x2="30.1" y2="78.41"/>
			
				<line fill="none" stroke="#505978" stroke-width="1.4677" stroke-linecap="round" stroke-linejoin="round" stroke-miterlimit="10" x1="62.73" y1="73.391" x2="57.478" y2="101.365"/>
			<g>
				
					<path fill="none" stroke="#505978" stroke-width="1.4677" stroke-linecap="round" stroke-linejoin="round" stroke-miterlimit="10" d="
					M38.149,84.551c0.638,5.71,5.784,9.82,11.492,9.183c5.707-0.638,9.021-7.013,8.383-12.721"/>
			</g>
			<g>
				<polyline fill="#EF5225" points="43.863,103.559 45.801,116.32 59.513,114.236 57.576,101.476 				"/>
				<polyline fill="#F7F8F9" points="47.767,102.968 49.124,111.912 55.092,111.007 53.732,102.061 				"/>
				
					<rect x="45.938" y="115.246" transform="matrix(0.9887 -0.1502 0.1502 0.9887 -16.9117 9.2603)" fill="#FAB585" width="13.845" height="2.726"/>
			</g>
			<path opacity="0.4" fill="#FFFFFF" d="M13.19,16.461c4.281-9.542,7.786-8.284,4.26,1.063
				C4.265,52.499,48.849,91.726,48.849,91.726S-3.42,53.49,13.19,16.461z"/>
			<g opacity="0.4">
				
					<ellipse transform="matrix(0.9026 0.4304 -0.4304 0.9026 8.0883 -21.3208)" opacity="0.69" fill="#FFFFFF" cx="51.171" cy="7.218" rx="7.895" ry="2.933"/>
				<path opacity="0.64" fill="#FFFFFF" d="M61.541,13.786c-0.351,0.729-1.354,0.979-2.247,0.555
					c-0.89-0.426-1.331-1.364-0.981-2.096c0.349-0.728,1.353-0.979,2.247-0.551C61.447,12.118,61.888,13.056,61.541,13.786z"/>
			</g>
		</g>
		<path fill="#6C6D6F" d="M161.76,242.118c0,7.38-5.981,13.361-13.357,13.361c-7.378,0-13.358-5.981-13.358-13.361
			c0-7.376,5.98-13.357,13.358-13.357C155.778,228.761,161.76,234.742,161.76,242.118z"/>
		<circle fill="#6C6D6F" cx="146.415" cy="225.602" r="7.396"/>
	</g>
	<g>
		<rect x="99.28" y="65.046" fill="#F79C83" width="50.842" height="28.851"/>
		<rect x="99.28" y="65.047" fill="#54C0E8" width="19.808" height="13.362"/>
		<g>
			<circle fill="#FFFFFF" cx="101.963" cy="68.14" r="0.949"/>
			<circle fill="#FFFFFF" cx="101.963" cy="71.935" r="0.949"/>
			<circle fill="#FFFFFF" cx="101.963" cy="75.731" r="0.949"/>
		</g>
		<g>
			<circle fill="#FFFFFF" cx="105.677" cy="68.14" r="0.949"/>
			<circle fill="#FFFFFF" cx="105.677" cy="71.935" r="0.949"/>
			<circle fill="#FFFFFF" cx="105.677" cy="75.731" r="0.949"/>
		</g>
		<g>
			<circle fill="#FFFFFF" cx="108.979" cy="68.14" r="0.95"/>
			<circle fill="#FFFFFF" cx="108.979" cy="71.935" r="0.95"/>
			<circle fill="#FFFFFF" cx="108.979" cy="75.731" r="0.95"/>
		</g>
		<g>
			<circle fill="#FFFFFF" cx="112.693" cy="68.14" r="0.949"/>
			<circle fill="#FFFFFF" cx="112.693" cy="71.935" r="0.949"/>
			<circle fill="#FFFFFF" cx="112.693" cy="75.731" r="0.949"/>
		</g>
		<g>
			<circle fill="#FFFFFF" cx="116.777" cy="68.14" r="0.949"/>
			<circle fill="#FFFFFF" cx="116.777" cy="71.935" r="0.949"/>
			<circle fill="#FFFFFF" cx="116.777" cy="75.731" r="0.949"/>
		</g>
		<rect x="119.088" y="66.947" fill="#FFFFFF" width="31.034" height="1.897"/>
		<rect x="119.088" y="70.78" fill="#FFFFFF" width="31.034" height="1.897"/>
		<rect x="119.088" y="74.577" fill="#FFFFFF" width="31.034" height="1.897"/>
		<rect x="99.28" y="78.372" fill="#FFFFFF" width="50.842" height="1.897"/>
		<rect x="99.28" y="82.167" fill="#FFFFFF" width="50.842" height="1.897"/>
		<rect x="99.28" y="85.961" fill="#FFFFFF" width="50.842" height="1.898"/>
		<rect x="99.28" y="90.102" fill="#FFFFFF" width="50.842" height="1.897"/>
	</g>
	
		<line fill="none" stroke="#505978" stroke-width="1.4677" stroke-linecap="round" stroke-linejoin="round" stroke-miterlimit="10" x1="99.28" y1="65.046" x2="99.28" y2="112.918"/>
</g>
</svg>
