<?xml version="1.0" encoding="utf-8"?>
<!-- Generator: Adobe Illustrator 15.1.0, SVG Export Plug-In . SVG Version: 6.00 Build 0)  -->
<!DOCTYPE svg PUBLIC "-//W3C//DTD SVG 1.1//EN" "http://www.w3.org/Graphics/SVG/1.1/DTD/svg11.dtd">
<svg version="1.1" id="Capa_1" xmlns="http://www.w3.org/2000/svg" xmlns:xlink="http://www.w3.org/1999/xlink" x="0px" y="0px"
	 width="603px" height="18px" viewBox="0 0 603 18" enable-background="new 0 0 603 18" xml:space="preserve">
<g>
	<path fill="#FFFFFF" d="M163.991,8.644h9.736V1.321c0-1.287,1.932-1.287,1.932,0v15.636c0,1.315-1.932,1.369-1.932,0v-6.624
		c-3.36,0-6.323,0-9.736,0v6.624c0,1.396-1.904,1.234-1.904,0V1.321c0-1.314,1.904-1.233,1.904,0V8.644z"/>
	<path fill="#FFFFFF" d="M181.615,15.966h10.449c1.112,0,1.27,1.77,0,1.77h-11.137c-0.742,0-1.217-0.536-1.217-1.181V1.831
		c0-0.617,0.476-1.153,1.217-1.153h11.163c1.138,0,1.085,1.716-0.026,1.716h-10.449v6.035h9.947c1.058,0,1.111,1.716,0,1.716h-9.947
		V15.966z"/>
	<path fill="#FFFFFF" d="M197.625,17.735c-0.714,0-1.005-0.349-1.005-0.992V1.349c0-1.261,1.958-1.261,1.958,0v14.617h9.894
		c1.35,0,1.35,1.77,0,1.77H197.625z"/>
	<path fill="#FFFFFF" d="M212.867,17.735c-0.714,0-1.005-0.349-1.005-0.992V1.349c0-1.261,1.958-1.261,1.958,0v14.617h9.895
		c1.349,0,1.349,1.77,0,1.77H212.867z"/>
	<path fill="#FFFFFF" d="M225.014,8.912c0-4.211,2.804-7.805,7.011-8.476c0.978-0.134,1.878-0.107,2.804,0
		c4.074,0.644,7.222,4.077,7.222,8.476c0,5.579-3.969,9.119-8.466,9.119C228.823,18.031,225.014,14.598,225.014,8.912z
		 M226.999,8.992c0,4.399,2.856,7.188,6.587,7.188c3.572,0,6.508-2.683,6.508-7.188c0-3.46-2.248-6.222-5.502-6.759
		c-0.793-0.107-1.561-0.107-2.302,0C229.088,2.743,226.999,5.345,226.999,8.992z"/>
	<path fill="#FFFFFF" d="M264.571,17.065c-1.271,0.59-2.699,0.966-3.969,0.966c-4.523,0-8.598-3.756-8.598-9.066
		c0-4.399,3.095-7.885,7.169-8.529c3.095-0.429,5.793,0.349,7.884,2.575c0.793,0.912-0.635,2.012-1.376,1.207
		c-1.799-1.931-3.889-2.226-6.217-1.958c-3.254,0.51-5.555,2.843-5.555,6.732c0,4.076,3.095,7.188,6.746,7.188
		c0.978,0,2.063-0.27,3.069-0.778c0.82-0.429,1.613-1.073,2.169-1.797c0.608-0.911,2.223,0.08,1.535,1.072
		C266.714,15.697,265.709,16.502,264.571,17.065z"/>
	<path fill="#FFFFFF" d="M269.602,8.912c0-4.211,2.804-7.805,7.011-8.476c0.978-0.134,1.878-0.107,2.804,0
		c4.074,0.644,7.222,4.077,7.222,8.476c0,5.579-3.969,9.119-8.466,9.119C273.411,18.031,269.602,14.598,269.602,8.912z
		 M271.586,8.992c0,4.399,2.857,7.188,6.587,7.188c3.572,0,6.508-2.683,6.508-7.188c0-3.46-2.248-6.222-5.502-6.759
		c-0.793-0.107-1.56-0.107-2.302,0C273.676,2.743,271.586,5.345,271.586,8.992z"/>
	<path fill="#FFFFFF" d="M302.279,1.321c0-1.126,2.011-1.18,2.011,0v15.396c0,1.341-1.825,1.475-2.381,0.535l-9.894-13.436
		l0.211,3.701v9.468c0,1.313-2.009,1.342-2.009,0V1.617c0-1.341,1.481-1.556,2.142-0.563l10.185,13.812l-0.265-4.049V1.321z"/>
	<path fill="#FFFFFF" d="M306.834,1.75c-0.503-1.153,1.323-1.904,1.852-0.751l6.799,13.732l6.642-13.678
		c0.423-1.1,2.222-0.509,1.824,0.697l-7.618,15.636c-0.37,0.697-1.323,0.858-1.773-0.08L306.834,1.75z"/>
	<path fill="#FFFFFF" d="M328.639,15.966h10.448c1.112,0,1.271,1.77,0,1.77H327.95c-0.741,0-1.217-0.536-1.217-1.181V1.831
		c0-0.617,0.476-1.153,1.217-1.153h11.164c1.138,0,1.085,1.716-0.027,1.716h-10.448v6.035h9.946c1.059,0,1.111,1.716,0,1.716h-9.946
		V15.966z"/>
	<path fill="#FFFFFF" d="M355.573,1.321c0-1.126,2.011-1.18,2.011,0v15.396c0,1.341-1.825,1.475-2.381,0.535l-9.895-13.436
		l0.211,3.701v9.468c0,1.313-2.009,1.342-2.009,0V1.617c0-1.341,1.48-1.556,2.143-0.563l10.185,13.812l-0.265-4.049V1.321z"/>
	<path fill="#FFFFFF" d="M361.742,1.027c0-1.341,1.984-1.314,1.984,0v16.039c0,1.232-1.984,1.287-1.984,0V1.027z"/>
	<path fill="#FFFFFF" d="M369.654,15.966h10.449c1.111,0,1.27,1.77,0,1.77h-11.138c-0.741,0-1.217-0.536-1.217-1.181V1.831
		c0-0.617,0.476-1.153,1.217-1.153h11.164c1.138,0,1.085,1.716-0.026,1.716h-10.449v6.035h9.946c1.059,0,1.111,1.716,0,1.716h-9.946
		V15.966z"/>
	<path fill="#FFFFFF" d="M396.589,1.321c0-1.126,2.011-1.18,2.011,0v15.396c0,1.341-1.825,1.475-2.381,0.535l-9.895-13.436
		l0.212,3.701v9.468c0,1.313-2.01,1.342-2.01,0V1.617c0-1.341,1.48-1.556,2.143-0.563l10.185,13.812l-0.265-4.049V1.321z"/>
	<path fill="#FFFFFF" d="M414.531,17.065c-1.271,0.59-2.699,0.966-3.969,0.966c-4.523,0-8.598-3.756-8.598-9.066
		c0-4.399,3.095-7.885,7.169-8.529c3.095-0.429,5.794,0.349,7.884,2.575c0.794,0.912-0.635,2.012-1.376,1.207
		c-1.799-1.931-3.889-2.226-6.217-1.958c-3.254,0.51-5.555,2.843-5.555,6.732c0,4.076,3.095,7.188,6.746,7.188
		c0.978,0,2.063-0.27,3.068-0.778c0.82-0.429,1.613-1.073,2.169-1.797c0.608-0.911,2.223,0.08,1.535,1.072
		C416.674,15.697,415.669,16.502,414.531,17.065z"/>
	<path fill="#FFFFFF" d="M422.498,15.966h10.449c1.112,0,1.271,1.77,0,1.77h-11.137c-0.741,0-1.218-0.536-1.218-1.181V1.831
		c0-0.617,0.477-1.153,1.218-1.153h11.163c1.139,0,1.086,1.716-0.026,1.716h-10.449v6.035h9.947c1.058,0,1.11,1.716,0,1.716h-9.947
		V15.966z"/>
	<path fill="#FFFFFF" d="M438.377,13.229c0,1.233-1.984,1.208-1.984,0V1.402c0-1.288,1.984-1.26,1.984,0V13.229z M438.456,16.153
		c0-1.233-2.063-1.18-2.063,0v0.912c0,1.099,2.063,1.232,2.063,0V16.153z"/>
</g>
<line fill="none" stroke="#FFFFFF" stroke-width="2.0147" stroke-linecap="round" stroke-miterlimit="10" x1="463.778" y1="9.332" x2="603.064" y2="9.332"/>
<line fill="none" stroke="#FFFFFF" stroke-width="2.0147" stroke-linecap="round" stroke-linejoin="round" stroke-miterlimit="10" x1="0.065" y1="9.332" x2="140.72" y2="9.332"/>
</svg>
