<?xml version="1.0" encoding="utf-8"?>
<!-- Generator: Adobe Illustrator 15.1.0, SVG Export Plug-In . SVG Version: 6.00 Build 0)  -->
<!DOCTYPE svg PUBLIC "-//W3C//DTD SVG 1.1//EN" "http://www.w3.org/Graphics/SVG/1.1/DTD/svg11.dtd">
<svg version="1.1" id="Capa_1" xmlns="http://www.w3.org/2000/svg" xmlns:xlink="http://www.w3.org/1999/xlink" x="0px" y="0px"
	 width="24px" height="25px" viewBox="0 0 24 25" enable-background="new 0 0 24 25" xml:space="preserve">
<path fill-rule="evenodd" clip-rule="evenodd" fill="#FFFFFF" d="M23.555,13.25C23.835,12.886,24,12.439,24,11.955
	c0-1.2-1.022-2.173-2.287-2.173h-2.284c-0.628,0-1.142-0.488-1.142-1.086V2.174C18.287,0.973,17.263,0,16.001,0H8.002
	C6.74,0,5.717,0.973,5.717,2.174v6.522c0,0.598-0.516,1.086-1.146,1.086H2.287C1.025,9.782,0,10.755,0,11.955
	c0,0.484,0.167,0.931,0.446,1.295l9.526,10.951c1.121,1.065,2.937,1.065,4.058,0L23.555,13.25z"/>
</svg>
