<?xml version="1.0" encoding="utf-8"?>
<!-- Generator: Adobe Illustrator 16.0.0, SVG Export Plug-In . SVG Version: 6.00 Build 0)  -->
<!DOCTYPE svg PUBLIC "-//W3C//DTD SVG 1.1//EN" "http://www.w3.org/Graphics/SVG/1.1/DTD/svg11.dtd">
<svg version="1.1" id="Capa_1" xmlns="http://www.w3.org/2000/svg" xmlns:xlink="http://www.w3.org/1999/xlink" x="0px" y="0px"
	 width="1024px" height="768px" viewBox="0 0 1024 768" enable-background="new 0 0 1024 768" xml:space="preserve">
<rect x="0.75" y="-0.005" fill="#88CA90" width="1024" height="768.011"/>
<radialGradient id="SVGID_1_" cx="-91.2505" cy="544" r="452.6921" gradientTransform="matrix(1 0 0 -1 604 928)" gradientUnits="userSpaceOnUse">
	<stop  offset="0.0123" style="stop-color:#FFFFFF;stop-opacity:0.36"/>
	<stop  offset="0.3988" style="stop-color:#88CA90"/>
	<stop  offset="0.6574" style="stop-color:#7FBE88"/>
	<stop  offset="1" style="stop-color:#6FA879"/>
</radialGradient>
<rect x="0.499" y="-0.005" opacity="0.4" fill="url(#SVGID_1_)" enable-background="new    " width="1024.501" height="768.011"/>
<rect x="0.75" y="-0.005" fill="none" width="1024" height="768.011"/>
<g>
	<g>
		<g>
			<path fill="#F36E54" d="M256.394,734.938c-2.997,1.297-65.082,28.148-65.082,28.148c-5.993,2.592-13.997-2.582-17.877-11.553
				c-3.881-8.973-2.17-18.348,3.824-20.939l46.637-20.172c6.102-5.924,12.162-10.709,16.459-12.568
				c13.264-5.734,27.231-2.953,31.195,6.213C275.514,713.234,269.659,729.201,256.394,734.938z"/>
			<path fill="#C85B45" d="M251.958,736.857c-2.822,1.221-61.278,26.502-61.278,26.502c-5.643,2.441-13.364-2.855-17.244-11.826
				c-3.881-8.973-2.452-18.225,3.189-20.664"/>
			<g>
				<path fill="none" stroke="#FEEAA2" stroke-width="3.0784" stroke-linecap="round" stroke-miterlimit="10" d="M256.935,712.273
					c0.087,2.406,4.194,9.416-19.612,30.912"/>
				<path fill="none" stroke="#FEEAA2" stroke-width="3.0784" stroke-linecap="round" stroke-miterlimit="10" d="M257.088,712.627
					c0,0-4.301-9.947-32.658-2.715"/>
			</g>
		</g>
		<g>
			<path fill="#F36E54" d="M198.04,644.91c-2.531,2.062-54.966,44.795-54.966,44.795c-5.062,4.125-4.158,13.613,2.017,21.191
				c6.177,7.578,15.286,10.377,20.347,6.252l39.391-32.102c8.066-2.684,15.106-5.859,18.736-8.816
				c11.201-9.129,15.167-22.809,8.857-30.548C226.113,637.938,209.242,635.78,198.04,644.91z"/>
			<path fill="#C85B45" d="M194.292,647.966c-2.384,1.942-51.755,42.177-51.755,42.177c-4.766,3.883-3.622,13.176,2.553,20.754
				c6.177,7.578,15.047,10.572,19.812,6.689"/>
			<g>
				<path fill="none" stroke="#FEEAA2" stroke-width="3.0784" stroke-linecap="round" stroke-miterlimit="10" d="M218.405,654.871
					c-2.096-1.186-6.426-8.059-36.472,3.166"/>
				<path fill="none" stroke="#FEEAA2" stroke-width="3.0784" stroke-linecap="round" stroke-miterlimit="10" d="M218.161,654.574
					c0,0,6.847,8.398-12.635,30.236"/>
			</g>
		</g>
	</g>
	<g>
		<path fill="#3A81C3" d="M916.569,387.688l-28.863,46.802c0,0-4.211,2.551-12.371-1.199c-8.158-3.75-10.637-9.381-10.637-9.381
			l16.518-52.474"/>
		<path opacity="0.25" fill="#FFFFFF" d="M887.704,434.489c0,0-4.209,2.553-12.371-1.199c-8.156-3.75-10.637-9.379-10.637-9.379
			l16.52-52.476"/>
		<g>
			<path fill="#306CA4" d="M908.433,380.507c-2.346-1.361-5.076-2.77-8.045-4.135c-9.758-4.485-18.32-6.724-19.119-4.989
				c-0.793,1.729,6.475,6.776,16.232,11.265c9.768,4.491,18.326,6.722,19.121,4.991c0.398-0.866-1.221-2.565-4.156-4.602"/>
			<path fill="#2A6195" d="M900.526,376.555c-2.23-1.288,6.127,2.92,7.906,3.952l4.033,2.53c2.936,2.036,4.555,3.735,4.156,4.602
				c-0.795,1.73-9.354-0.5-19.121-4.991C897.501,382.647,913.958,384.3,900.526,376.555z"/>
		</g>
		
			<line opacity="0.49" fill="none" stroke="#FFFFFF" stroke-width="1.8751" stroke-linecap="round" stroke-miterlimit="10" x1="880.573" y1="387.329" x2="872.554" y2="415.579"/>
		<g>
			<path fill="none" d="M877.464,425.409c-0.219,0.301-0.146,0.709,0.152,0.929l2.475,1.776c0.301,0.215,0.709,0.143,0.93-0.152
				l39.479-55.009c0.213-0.301,0.143-0.715-0.158-0.93l-2.477-1.775c-0.293-0.213-0.707-0.146-0.926,0.147L877.464,425.409z"/>
			<g>
				<defs>
					<path id="SVGID_2_" d="M920.345,372.025l-2.477-1.775c-0.293-0.211-0.707-0.146-0.926,0.146l-39.475,55.015
						c-0.219,0.305-0.146,0.71,0.152,0.928l2.475,1.777c0.301,0.215,0.707,0.146,0.922-0.156l39.486-55.005
						c0.023-0.035,0.045-0.074,0.062-0.108C920.696,372.559,920.612,372.217,920.345,372.025"/>
				</defs>
				
					<linearGradient id="SVGID_3_" gradientUnits="userSpaceOnUse" x1="1289.2002" y1="179.1714" x2="1294.2041" y2="179.1714" gradientTransform="matrix(0.807 0.5906 -0.5906 0.807 -37.6062 -508.2911)">
					<stop  offset="0" style="stop-color:#FFFFFF"/>
					<stop  offset="0.8384" style="stop-color:#FFFFFF;stop-opacity:0.1351"/>
					<stop  offset="0.9693" style="stop-color:#FFFFFF;stop-opacity:0"/>
				</linearGradient>
				<use xlink:href="#SVGID_2_"  overflow="visible" fill="url(#SVGID_3_)"/>
				<clipPath id="SVGID_4_">
					<use xlink:href="#SVGID_2_"  overflow="visible"/>
				</clipPath>
				
					<line clip-path="url(#SVGID_4_)" fill="none" stroke="#F79D82" stroke-width="2" stroke-miterlimit="10" x1="919.825" y1="380.464" x2="914.048" y2="368.516"/>
				
					<line clip-path="url(#SVGID_4_)" fill="none" stroke="#CC826C" stroke-width="2" stroke-miterlimit="10" x1="916.208" y1="385.511" x2="910.427" y2="373.551"/>
				
					<line clip-path="url(#SVGID_4_)" fill="none" stroke="#F79D82" stroke-width="2" stroke-miterlimit="10" x1="912.591" y1="390.546" x2="906.813" y2="378.591"/>
				
					<line clip-path="url(#SVGID_4_)" fill="none" stroke="#CC826C" stroke-width="2" stroke-miterlimit="10" x1="908.976" y1="395.59" x2="903.194" y2="383.632"/>
				
					<line clip-path="url(#SVGID_4_)" fill="none" stroke="#F79D82" stroke-width="2" stroke-miterlimit="10" x1="905.356" y1="400.628" x2="899.575" y2="388.675"/>
				
					<line clip-path="url(#SVGID_4_)" fill="none" stroke="#CC826C" stroke-width="2" stroke-miterlimit="10" x1="901.737" y1="405.67" x2="895.962" y2="393.712"/>
				
					<line clip-path="url(#SVGID_4_)" fill="none" stroke="#F79D82" stroke-width="2" stroke-miterlimit="10" x1="898.124" y1="410.708" x2="892.341" y2="398.755"/>
				
					<line clip-path="url(#SVGID_4_)" fill="none" stroke="#CC826C" stroke-width="2" stroke-miterlimit="10" x1="894.499" y1="415.751" x2="888.72" y2="403.796"/>
				
					<line clip-path="url(#SVGID_4_)" fill="none" stroke="#F79D82" stroke-width="2" stroke-miterlimit="10" x1="890.884" y1="420.796" x2="885.104" y2="408.829"/>
				
					<line clip-path="url(#SVGID_4_)" fill="none" stroke="#CC826C" stroke-width="2" stroke-miterlimit="10" x1="887.271" y1="425.838" x2="881.489" y2="413.882"/>
				
					<line clip-path="url(#SVGID_4_)" fill="none" stroke="#F79D82" stroke-width="2" stroke-miterlimit="10" x1="883.649" y1="430.88" x2="877.87" y2="418.919"/>
			</g>
		</g>
		<path fill="#FEEAA2" d="M867.241,415.813l-2.549,8.096c0,0,2.484,5.631,10.641,9.381c8.16,3.752,12.371,1.199,12.371,1.199
			l3.572-5.793c-0.494-0.066-1.023-0.197-1.645-0.48c-3.424-1.576-2.316-3.986-5.744-5.562c-3.426-1.577-4.535,0.835-7.969-0.748
			c-3.436-1.58-2.328-3.99-5.756-5.566C868.972,415.79,868.067,415.733,867.241,415.813 M869.21,423.188
			c0.354-0.766,1.26-1.107,2.025-0.756c0.77,0.354,1.107,1.268,0.756,2.033c-0.354,0.768-1.266,1.104-2.035,0.75
			C869.19,424.864,868.858,423.956,869.21,423.188 M868.724,419.726c0.156-0.344,0.57-0.498,0.918-0.339
			c0.35,0.161,0.498,0.573,0.34,0.917c-0.16,0.349-0.568,0.5-0.918,0.34C868.718,420.483,868.565,420.072,868.724,419.726"/>
		<path opacity="0.4" fill="#FFFFFF" d="M886.757,425.429c-3.891-5.932-7.828-1.608-10.908-3.533l0.434,11.83
			c3.982,1.645,8.277,2.09,10.746,1.066L886.757,425.429z"/>
	</g>
	<g>
		<g>
			<defs>
				<circle id="SVGID_5_" cx="112.482" cy="592.979" r="73.644"/>
			</defs>
			<clipPath id="SVGID_6_">
				<use xlink:href="#SVGID_5_"  overflow="visible"/>
			</clipPath>
			<g clip-path="url(#SVGID_6_)">
				<path fill="#F6F6FB" d="M120.076,555.94c0,0,16.048,11.705,42.146,101.21c0,0-37.799,31.432-89.561,5.617
					C72.661,662.768,103.293,572.778,120.076,555.94z"/>
				<path fill="#FEEAA2" d="M120.076,555.94c0,0,39.807-6.111,72.427,27.99c0,0,6.367,42.1-30.281,73.22
					C162.221,657.15,139.472,577.083,120.076,555.94z"/>
				<path fill="#F79D82" d="M121.293,554.411c0,0-57.856,8.832-87.012,42.096c0,0-2.856,39.301,38.379,66.261
					C72.661,662.768,102.876,576.413,121.293,554.411z"/>
				<path fill="#F79D82" d="M192.502,583.931c0,0-8.084-50.486-56.007-64.559c0,0-13.628,29.34-16.42,36.568
					C120.076,555.94,159.481,549.716,192.502,583.931z"/>
				<path fill="#FEEAA2" d="M34.282,596.507c0,0-4.136-58.262,61.251-78.695c0,0,21.512,30.998,24.543,38.129
					C120.076,555.94,66.125,561.194,34.282,596.507z"/>
				<path fill="#F6F6FB" d="M136.247,519.444c0,0-18.432-7.084-40.636-1.516l24.465,38.012l16.584-36.518"/>
				<path fill="#AAB2BD" d="M113.472,557.876c1.069,3.648,4.889,5.738,8.533,4.67c3.649-1.068,5.738-4.889,4.669-8.539
					c-1.067-3.643-4.888-5.73-8.537-4.662C114.494,550.413,112.405,554.233,113.472,557.876z"/>
			</g>
		</g>
		<g>
			<path opacity="0.69" fill="#FFFFFF" d="M73.866,548.897c1.854,4.348,12.839,3.832,24.542-1.152
				c11.704-4.984,19.689-12.549,17.838-16.896c-1.852-4.346-12.839-3.832-24.541,1.152C80,536.988,72.015,544.55,73.866,548.897z"/>
			<path opacity="0.64" fill="#FFFFFF" d="M64.023,557.74c0.927,2.171,3.825,3.021,6.478,1.892c2.648-1.129,4.049-3.807,3.123-5.982
				c-0.927-2.172-3.827-3.02-6.478-1.891C64.497,552.888,63.098,555.567,64.023,557.74z"/>
		</g>
	</g>
	<g>
		<path fill="#AAB2BD" d="M876.913,689.693c-0.17,1.469,0.877,2.789,2.348,2.959l75.518,8.707c1.465,0.168,2.793-0.881,2.961-2.348
			l4.836-41.963c0.17-1.463-0.883-2.789-2.346-2.957l-75.52-8.707c-1.471-0.168-2.791,0.885-2.959,2.346L876.913,689.693z"/>
		<path opacity="0.31" fill="#666E78" d="M881.751,647.73l-4.838,41.963c-0.17,1.469,0.877,2.789,2.348,2.959l75.518,8.707"/>
		<path fill="#666E78" d="M933.005,650.951l1.297-11.258c0.17-1.47-0.879-2.789-2.342-2.96l-15.566-1.793
			c-1.469-0.169-2.791,0.877-2.959,2.346l-1.299,11.261"/>
		<g>
			<path fill="#FEEAA2" stroke="#FEEAA2" stroke-width="0.5305" stroke-miterlimit="10" d="M915.888,642.979
				c-0.17,1.465,0.879,2.784,2.346,2.954l9.223,1.064c1.465,0.168,2.789-0.881,2.957-2.344l0.285-2.475
				c0.17-1.466-0.879-2.789-2.346-2.958l-9.223-1.064c-1.469-0.168-2.789,0.88-2.959,2.349L915.888,642.979z"/>
			
				<line fill="none" stroke="#FFFFFF" stroke-width="0.6182" stroke-miterlimit="10" x1="928.731" y1="639.471" x2="927.835" y2="647.25"/>
			
				<line fill="none" stroke="#FFFFFF" stroke-width="0.6182" stroke-miterlimit="10" x1="926.767" y1="639.038" x2="925.87" y2="646.812"/>
			
				<line fill="none" stroke="#FFFFFF" stroke-width="0.6182" stroke-miterlimit="10" x1="924.784" y1="638.81" x2="923.888" y2="646.586"/>
			
				<line fill="none" stroke="#FFFFFF" stroke-width="0.6182" stroke-miterlimit="10" x1="922.806" y1="638.581" x2="921.907" y2="646.357"/>
			
				<line fill="none" stroke="#FFFFFF" stroke-width="0.6182" stroke-miterlimit="10" x1="920.79" y1="638.556" x2="919.892" y2="646.334"/>
			
				<line fill="none" stroke="#FFFFFF" stroke-width="0.6182" stroke-miterlimit="10" x1="918.806" y1="638.327" x2="917.909" y2="646.105"/>
		</g>
		<path fill="#666E78" d="M955.21,653.512l0.283-2.461c0.168-1.463-0.883-2.788-2.35-2.959l-4.314-0.497
			c-1.463-0.169-2.785,0.885-2.953,2.347l-0.285,2.463"/>
		<path fill="#666E78" d="M901.218,671.719c-1.172,10.197,6.143,19.416,16.34,20.592c10.199,1.174,19.42-6.139,20.598-16.334
			c1.174-10.201-6.141-19.424-16.34-20.6C911.616,654.203,902.396,661.518,901.218,671.719z"/>
		<path fill="#434A54" d="M905.017,672.156c-0.934,8.098,4.873,15.428,12.979,16.361c8.107,0.936,15.434-4.881,16.367-12.977
			c0.934-8.104-4.877-15.438-12.984-16.371C913.274,658.234,905.95,664.055,905.017,672.156z"/>
		
			<line fill="none" stroke="#666E78" stroke-width="1.6826" stroke-miterlimit="10" x1="961.337" y1="667.799" x2="932.974" y2="664.529"/>
		
			<line fill="none" stroke="#666E78" stroke-width="1.6812" stroke-miterlimit="10" x1="908.825" y1="661.746" x2="880.511" y2="658.48"/>
		<path fill="#E6E9ED" d="M886.636,652.09c-0.086,0.76,1.49,1.572,3.527,1.807c2.033,0.236,3.752-0.197,3.84-0.957
			c0.09-0.762-1.486-1.574-3.521-1.809C888.444,650.896,886.724,651.33,886.636,652.09"/>
		<path fill="#FEEAA2" d="M953.827,660.09c-0.105,0.904,0.549,1.727,1.453,1.832c0.9,0.105,1.715-0.553,1.818-1.453
			c0.105-0.904-0.541-1.719-1.441-1.824C954.753,658.539,953.931,659.188,953.827,660.09"/>
		<path fill="#88CA90" d="M949.427,659.584c-0.105,0.902,0.541,1.725,1.449,1.83c0.9,0.104,1.719-0.551,1.824-1.451
			c0.104-0.906-0.547-1.723-1.447-1.826C950.343,658.031,949.532,658.68,949.427,659.584"/>
		
			<line fill="none" stroke="#666E78" stroke-width="1.061" stroke-linecap="round" stroke-miterlimit="10" x1="953.983" y1="666.953" x2="950.856" y2="694.08"/>
		
			<line fill="none" stroke="#666E78" stroke-width="1.061" stroke-linecap="round" stroke-miterlimit="10" x1="946.64" y1="666.105" x2="943.511" y2="693.234"/>
		
			<line fill="none" stroke="#666E78" stroke-width="1.061" stroke-linecap="round" stroke-miterlimit="10" x1="939.315" y1="665.039" x2="936.188" y2="692.164"/>
		
			<line fill="none" stroke="#666E78" stroke-width="1.061" stroke-linecap="round" stroke-miterlimit="10" x1="902.579" y1="660.805" x2="899.452" y2="687.93"/>
		
			<line fill="none" stroke="#666E78" stroke-width="1.061" stroke-linecap="round" stroke-miterlimit="10" x1="895.229" y1="659.957" x2="892.104" y2="687.082"/>
		
			<line fill="none" stroke="#666E78" stroke-width="1.061" stroke-linecap="round" stroke-miterlimit="10" x1="887.884" y1="659.111" x2="884.759" y2="686.234"/>
		
			<line fill="none" stroke="#666E78" stroke-width="1.5916" stroke-miterlimit="10" x1="958.235" y1="694.705" x2="877.411" y2="685.389"/>
		<path opacity="0.61" fill="#30373F" d="M913.507,673.279c-0.434,3.762,2.264,7.166,6.029,7.6c3.766,0.436,7.17-2.266,7.604-6.027
			c0.434-3.764-2.266-7.172-6.031-7.605C917.343,666.811,913.94,669.516,913.507,673.279z"/>
		<path opacity="0.54" fill="#FFFFFF" d="M911.36,665.385c0.359,1.398,3.178,1.898,6.297,1.096c3.115-0.799,5.346-2.594,4.984-3.992
			c-0.359-1.402-3.178-1.898-6.291-1.1C913.233,662.189,911.001,663.982,911.36,665.385"/>
		<path opacity="0.6" fill="#FFFFFF" d="M924.87,681.365c0.125,1.037,1.355,1.752,2.74,1.582c1.379-0.164,2.391-1.148,2.266-2.186
			c-0.127-1.041-1.344-1.746-2.721-1.58C925.771,679.348,924.745,680.328,924.87,681.365"/>
		<path opacity="0.69" fill="#FFFFFF" stroke="#FFFFFF" stroke-width="0.5305" stroke-miterlimit="10" d="M919.13,638.157
			c-1.469-0.168-2.789,0.88-2.959,2.349l-0.283,2.474c-0.17,1.465,0.879,2.784,2.346,2.954l9.223,1.064"/>
		<path opacity="0.72" fill="#FFFFFF" d="M894.003,652.939c0.09-0.762-1.486-1.574-3.521-1.809
			c-2.037-0.234-3.758,0.199-3.846,0.959"/>
		<path opacity="0.46" fill="#FFFFFF" d="M957.099,660.469c0.105-0.904-0.541-1.719-1.441-1.824
			c-0.904-0.105-1.727,0.543-1.83,1.445"/>
		<path opacity="0.46" fill="#FFFFFF" d="M952.7,659.963c0.104-0.906-0.547-1.723-1.447-1.826c-0.91-0.105-1.721,0.543-1.826,1.447"
			/>
	</g>
	<g>
		<path fill="#9A91C6" d="M917.509,563.042c1.875,2.322,1.516,5.723-0.803,7.594l-19.871,16.049
			c-2.318,1.871-5.719,1.508-7.592-0.815l-23.996-29.713c-1.877-2.323-1.518-5.724,0.801-7.597l19.871-16.045
			c2.318-1.872,5.719-1.509,7.594,0.812L917.509,563.042z"/>
		<path fill="#FEEAA2" d="M869.177,546.034l-6.459-7.996c-1.002-1.24-0.908-2.977,0.209-3.879l9.57-7.729
			c1.119-0.902,2.834-0.627,3.834,0.611l6.459,7.998L869.177,546.034z"/>
		<g>
			
				<rect x="872.163" y="546.6" transform="matrix(0.778 -0.6283 0.6283 0.778 -153.1353 683.3384)" fill="#FFFFFF" width="36.334" height="23.499"/>
		</g>
		<g>
			<circle fill="#FEEAA2" cx="890.482" cy="558.415" r="4.957"/>
			
				<line fill="none" stroke="#FEEAA2" stroke-width="1.8174" stroke-linecap="round" stroke-miterlimit="10" x1="891.317" y1="547.812" x2="890.935" y2="551.54"/>
			
				<line fill="none" stroke="#FEEAA2" stroke-width="1.8174" stroke-linecap="round" stroke-miterlimit="10" x1="889.542" y1="565.118" x2="889.161" y2="568.847"/>
			
				<line fill="none" stroke="#FEEAA2" stroke-width="1.8174" stroke-linecap="round" stroke-miterlimit="10" x1="898.259" y1="551.922" x2="895.354" y2="554.284"/>
			
				<line fill="none" stroke="#FEEAA2" stroke-width="1.8174" stroke-linecap="round" stroke-miterlimit="10" x1="883.97" y1="550.351" x2="886.333" y2="553.255"/>
			
				<line fill="none" stroke="#FEEAA2" stroke-width="1.8174" stroke-linecap="round" stroke-miterlimit="10" x1="900.749" y1="559.476" x2="897.021" y2="559.093"/>
			
				<line fill="none" stroke="#FEEAA2" stroke-width="1.8174" stroke-linecap="round" stroke-miterlimit="10" x1="883.624" y1="557.542" x2="879.899" y2="557.159"/>
			
				<line fill="none" stroke="#FEEAA2" stroke-width="1.8174" stroke-linecap="round" stroke-miterlimit="10" x1="894.452" y1="563.343" x2="896.817" y2="566.247"/>
			
				<line fill="none" stroke="#FEEAA2" stroke-width="1.8174" stroke-linecap="round" stroke-miterlimit="10" x1="884.96" y1="561.989" x2="882.056" y2="564.353"/>
		</g>
		<path opacity="0.26" fill="#FFFFFF" d="M862.95,534.188c-1.119,0.901-1.211,2.638-0.211,3.876l6.459,7.998l-3.129,2.528
			c-2.316,1.87-2.676,5.271-0.801,7.595l23.996,29.711c1.875,2.324,5.275,2.688,7.592,0.814l19.871-16.047
			c2.318-1.871,2.678-5.271,0.803-7.596"/>
	</g>
	<g>
		<defs>
			<rect id="SVGID_7_" x="413.558" y="361.842" width="571.623" height="406.158"/>
		</defs>
		<clipPath id="SVGID_8_">
			<use xlink:href="#SVGID_7_"  overflow="visible"/>
		</clipPath>
		<g clip-path="url(#SVGID_8_)">
			<g>
				
					<rect x="487.394" y="494.724" transform="matrix(0.9995 -0.0301 0.0301 0.9995 -15.4548 20.0851)" fill="#E988B8" width="341.948" height="55.71"/>
				
					<rect x="489.075" y="550.409" transform="matrix(0.9995 -0.0301 0.0301 0.9995 -17.1295 20.1573)" fill="#F79D82" width="341.947" height="55.707"/>
				
					<rect x="490.754" y="606.09" transform="matrix(0.9995 -0.0301 0.0301 0.9995 -18.8107 20.2371)" fill="#E988B8" width="341.948" height="55.712"/>
				
					<rect x="492.433" y="661.775" transform="matrix(0.9995 -0.0302 0.0302 0.9995 -20.4922 20.3167)" fill="#F79D82" width="341.951" height="55.709"/>
				
					<rect x="494.114" y="717.46" transform="matrix(0.9995 -0.0301 0.0301 0.9995 -22.1665 20.389)" fill="#E988B8" width="341.947" height="55.707"/>
				
					<rect x="495.795" y="773.141" transform="matrix(0.9995 -0.0302 0.0302 0.9995 -23.8489 20.4689)" fill="#F79D82" width="341.947" height="55.711"/>
				
					<rect x="497.474" y="828.825" transform="matrix(0.9995 -0.0302 0.0302 0.9995 -25.532 20.5488)" fill="#E988B8" width="341.946" height="55.711"/>
				<polygon fill="#F79D82" points="828.458,490.79 486.667,501.101 484.99,445.415 826.782,435.106 				"/>
			</g>
			<polygon opacity="0.13" fill="#306CA4" points="826.765,434.506 840.163,878.762 498.375,889.074 			"/>
		</g>
	</g>
	<g>
		<path opacity="0.54" fill="#9B95C9" d="M337.269,474.612c0-5.807,11.413-10.514,25.489-10.514c2.646,0,5.199,0.166,7.599,0.475
			c2.097-8.83,11.437-15.487,22.643-15.487c12.749,0,23.084,8.616,23.084,19.245c0,5.814-3.098,11.024-7.988,14.553
			c2.572,3.49,4.055,7.564,4.055,11.922c0,12.891-12.938,23.34-28.895,23.34c-15.958,0-28.896-10.449-28.896-23.34
			c0-3.557,0.99-6.926,2.752-9.943C345.754,483.803,337.269,479.616,337.269,474.612z"/>
		<g>
			<path fill="#9E8271" d="M407.359,493.335l14.114,10.817c1.232,0.942,1.469,2.71,0.523,3.942l-0.686,0.895
				c-0.943,1.23-2.713,1.465-3.94,0.523l-14.133-10.825"/>
			<path fill="#9A91C6" d="M366.857,447.775c-5.763-3.374-10.755-2.399-16.759,5.233l-0.006-0.003
				c-0.057,0.075-0.107,0.147-0.17,0.228c-0.053,0.07-0.111,0.143-0.17,0.22l0.004,0.003c-5.807,7.783-5.447,12.857-0.692,17.545
				c2.79,2.748,36.842,31.762,41.623,35.424c2.459,1.883,3.574,2.736,5.848,0.232c2.152-2.371,6.742-7.926,8.832-10.607v0.002
				c0.049-0.063,0.111-0.146,0.166-0.221c0.061-0.073,0.123-0.156,0.174-0.224v-0.003c2.043-2.714,6.211-8.592,7.939-11.283
				c1.826-2.851,0.71-3.705-1.746-5.588C409.443,476.853,372.734,451.208,366.857,447.775z"/>
			<path fill="#8C85B6" d="M405.197,484.243c1.236,0.945,1.6,2.535,0.818,3.56l-0.639,0.829c-0.781,1.021-2.414,1.086-3.648,0.14
				l-43.22-33.108c-1.229-0.943-1.596-2.537-0.812-3.557l0.635-0.832c0.783-1.021,2.416-1.08,3.646-0.136L405.197,484.243z"/>
			<path fill="#8C85B6" d="M397.869,493.808c1.235,0.947,1.598,2.541,0.818,3.559l-0.639,0.832
				c-0.783,1.023-2.414,1.084-3.646,0.137l-43.22-33.105c-1.232-0.94-1.6-2.535-0.816-3.557l0.637-0.832
				c0.781-1.018,2.418-1.08,3.646-0.139L397.869,493.808z"/>
			<path opacity="0.25" fill="#CCC6E3" d="M413.259,479.817c-9.678-6.689-43.626-30.42-46.402-32.042
				c-5.763-3.374-10.755-2.399-16.759,5.233l-0.006-0.003c-0.057,0.075-0.107,0.147-0.17,0.228c-0.053,0.07-0.111,0.143-0.17,0.22
				c0,0-9.296,10.253-0.688,17.548"/>
			
				<linearGradient id="SVGID_9_" gradientUnits="userSpaceOnUse" x1="3101.9141" y1="1921.1309" x2="3099.165" y2="1940.6906" gradientTransform="matrix(-0.1957 0.9807 0.9807 0.1957 -873.9097 -2916.8787)">
				<stop  offset="0" style="stop-color:#836C5E"/>
				<stop  offset="0.093" style="stop-color:#8B7669;stop-opacity:0.8778"/>
				<stop  offset="0.2545" style="stop-color:#A19085;stop-opacity:0.6655"/>
				<stop  offset="0.4652" style="stop-color:#C5BAB3;stop-opacity:0.3885"/>
				<stop  offset="0.7146" style="stop-color:#F5F4F2;stop-opacity:0.0607"/>
				<stop  offset="0.7607" style="stop-color:#FFFFFF;stop-opacity:0"/>
			</linearGradient>
			<path fill="url(#SVGID_9_)" d="M407.359,493.335l14.114,10.817c1.232,0.942,1.469,2.71,0.523,3.942l-0.686,0.895
				c-0.943,1.23-2.713,1.465-3.94,0.523l-14.133-10.825"/>
		</g>
	</g>
	<g>
		<path fill="#F79D82" d="M803.442,522.36c4.033,1.67,8.656-0.242,10.326-4.271c1.67-4.03-0.252-8.648-4.283-10.317"/>
		<path fill="#F79D82" d="M721.896,471.495c-4.025-1.666-8.648,0.242-10.318,4.271c-1.668,4.031,0.252,8.652,4.275,10.319"/>
		<path fill="none" stroke="#505B79" stroke-width="4.1211" stroke-linecap="round" stroke-miterlimit="10" d="M768.802,416.144
			c-12.752-1.199-25.348,5.934-30.508,18.396l-12.012,29"/>
		<path fill="none" stroke="#505B79" stroke-width="4.1211" stroke-linecap="round" stroke-miterlimit="10" d="M812.175,499.112
			l12.01-29c5.158-12.459,1.299-26.4-8.566-34.568"/>
		<path fill="#CDD1DA" d="M767.685,418.851c-0.424,1.02,0.061,2.188,1.084,2.609l43.117,17.861c1.023,0.426,2.189-0.057,2.613-1.078
			l2.189-5.287c0.422-1.021-0.061-2.188-1.088-2.611l-43.115-17.865c-1.021-0.424-2.189,0.061-2.613,1.08L767.685,418.851z"/>
		<path fill="#CDD1DA" d="M778.476,528.827c-0.422,1.016,0.07,2.193,1.082,2.613l9.648,3.996c1.016,0.422,2.189-0.067,2.611-1.086
			l18.258-44.086c0.422-1.02-0.064-2.188-1.082-2.609l-9.646-3.996c-1.016-0.42-2.191,0.061-2.613,1.081L778.476,528.827z"/>
		<path fill="#CDD1DA" d="M716.114,503.001c-0.42,1.016,0.061,2.19,1.082,2.613l9.641,3.99c1.018,0.424,2.195-0.062,2.615-1.08
			l18.256-44.088c0.424-1.02-0.066-2.191-1.084-2.611l-9.639-3.992c-1.021-0.424-2.189,0.062-2.613,1.08L716.114,503.001z"/>
		
			<line fill="none" stroke="#505B79" stroke-width="4.1211" stroke-linecap="round" stroke-miterlimit="10" x1="811.153" y1="433.688" x2="774.276" y2="418.413"/>
		<g>
			
				<line fill="none" stroke="#505B79" stroke-width="1.3737" stroke-miterlimit="10" x1="792.144" y1="533.427" x2="778.815" y2="527.908"/>
			
				<line fill="none" stroke="#505B79" stroke-width="1.3737" stroke-miterlimit="10" x1="793.11" y1="531.228" x2="779.769" y2="525.7"/>
			
				<line fill="none" stroke="#505B79" stroke-width="1.3737" stroke-miterlimit="10" x1="794.03" y1="529.003" x2="780.688" y2="523.478"/>
			
				<line fill="none" stroke="#505B79" stroke-width="1.3737" stroke-miterlimit="10" x1="794.952" y1="526.78" x2="781.61" y2="521.255"/>
			
				<line fill="none" stroke="#505B79" stroke-width="1.3737" stroke-miterlimit="10" x1="795.874" y1="524.558" x2="782.53" y2="519.032"/>
			
				<line fill="none" stroke="#505B79" stroke-width="1.3737" stroke-miterlimit="10" x1="796.792" y1="522.339" x2="783.45" y2="516.812"/>
			
				<line fill="none" stroke="#505B79" stroke-width="1.3737" stroke-miterlimit="10" x1="797.714" y1="520.114" x2="784.372" y2="514.587"/>
			
				<line fill="none" stroke="#505B79" stroke-width="1.3737" stroke-miterlimit="10" x1="798.634" y1="517.892" x2="785.292" y2="512.364"/>
			
				<line fill="none" stroke="#505B79" stroke-width="1.3737" stroke-miterlimit="10" x1="799.556" y1="515.667" x2="786.214" y2="510.142"/>
			
				<line fill="none" stroke="#505B79" stroke-width="1.3737" stroke-miterlimit="10" x1="800.476" y1="513.448" x2="787.134" y2="507.923"/>
			
				<line fill="none" stroke="#505B79" stroke-width="1.3737" stroke-miterlimit="10" x1="801.394" y1="511.228" x2="788.054" y2="505.7"/>
			
				<line fill="none" stroke="#505B79" stroke-width="1.3737" stroke-miterlimit="10" x1="802.313" y1="509.003" x2="788.974" y2="503.479"/>
			
				<line fill="none" stroke="#505B79" stroke-width="1.3737" stroke-miterlimit="10" x1="803.235" y1="506.778" x2="789.894" y2="501.255"/>
			
				<line fill="none" stroke="#505B79" stroke-width="1.3737" stroke-miterlimit="10" x1="804.155" y1="504.558" x2="790.815" y2="499.032"/>
			
				<line fill="none" stroke="#505B79" stroke-width="1.3737" stroke-miterlimit="10" x1="805.075" y1="502.338" x2="791.733" y2="496.81"/>
			
				<line fill="none" stroke="#505B79" stroke-width="1.3737" stroke-miterlimit="10" x1="805.997" y1="500.116" x2="792.653" y2="494.591"/>
			
				<line fill="none" stroke="#505B79" stroke-width="1.3737" stroke-miterlimit="10" x1="806.929" y1="497.899" x2="793.603" y2="492.378"/>
			
				<line fill="none" stroke="#505B79" stroke-width="1.3737" stroke-miterlimit="10" x1="807.849" y1="495.681" x2="794.519" y2="490.161"/>
			
				<line fill="none" stroke="#505B79" stroke-width="1.3737" stroke-miterlimit="10" x1="808.767" y1="493.456" x2="795.44" y2="487.937"/>
			
				<line fill="none" stroke="#505B79" stroke-width="1.3737" stroke-miterlimit="10" x1="809.69" y1="491.233" x2="796.36" y2="485.714"/>
		</g>
		<g>
			
				<line fill="none" stroke="#505B79" stroke-width="1.3737" stroke-miterlimit="10" x1="729.968" y1="507.677" x2="716.63" y2="502.156"/>
			
				<line fill="none" stroke="#505B79" stroke-width="1.3737" stroke-miterlimit="10" x1="730.599" y1="505.339" x2="717.269" y2="499.817"/>
			
				<line fill="none" stroke="#505B79" stroke-width="1.3737" stroke-miterlimit="10" x1="731.521" y1="503.114" x2="718.187" y2="497.595"/>
			
				<line fill="none" stroke="#505B79" stroke-width="1.3737" stroke-miterlimit="10" x1="732.44" y1="500.892" x2="719.108" y2="495.372"/>
			
				<line fill="none" stroke="#505B79" stroke-width="1.3737" stroke-miterlimit="10" x1="733.362" y1="498.671" x2="720.028" y2="493.149"/>
			
				<line fill="none" stroke="#505B79" stroke-width="1.3737" stroke-miterlimit="10" x1="734.282" y1="496.45" x2="720.95" y2="490.929"/>
			
				<line fill="none" stroke="#505B79" stroke-width="1.3737" stroke-miterlimit="10" x1="735.202" y1="494.228" x2="721.87" y2="488.705"/>
			
				<line fill="none" stroke="#505B79" stroke-width="1.3737" stroke-miterlimit="10" x1="736.124" y1="492.001" x2="722.79" y2="486.479"/>
			
				<line fill="none" stroke="#505B79" stroke-width="1.3737" stroke-miterlimit="10" x1="737.044" y1="489.778" x2="723.712" y2="484.257"/>
			
				<line fill="none" stroke="#505B79" stroke-width="1.3737" stroke-miterlimit="10" x1="737.962" y1="487.56" x2="724.632" y2="482.037"/>
			
				<line fill="none" stroke="#505B79" stroke-width="1.3737" stroke-miterlimit="10" x1="738.884" y1="485.339" x2="725.55" y2="479.815"/>
			
				<line fill="none" stroke="#505B79" stroke-width="1.3737" stroke-miterlimit="10" x1="739.804" y1="483.114" x2="726.472" y2="477.593"/>
			
				<line fill="none" stroke="#505B79" stroke-width="1.3737" stroke-miterlimit="10" x1="740.724" y1="480.892" x2="727.392" y2="475.37"/>
			
				<line fill="none" stroke="#505B79" stroke-width="1.3737" stroke-miterlimit="10" x1="741.646" y1="478.667" x2="728.313" y2="473.147"/>
			
				<line fill="none" stroke="#505B79" stroke-width="1.3737" stroke-miterlimit="10" x1="742.565" y1="476.446" x2="729.233" y2="470.927"/>
			
				<line fill="none" stroke="#505B79" stroke-width="1.3737" stroke-miterlimit="10" x1="743.485" y1="474.228" x2="730.153" y2="468.706"/>
			
				<line fill="none" stroke="#505B79" stroke-width="1.3737" stroke-miterlimit="10" x1="744.417" y1="472.009" x2="731.083" y2="466.488"/>
			
				<line fill="none" stroke="#505B79" stroke-width="1.3737" stroke-miterlimit="10" x1="745.337" y1="469.792" x2="732.001" y2="464.271"/>
			
				<line fill="none" stroke="#505B79" stroke-width="1.3737" stroke-miterlimit="10" x1="746.257" y1="467.567" x2="732.923" y2="462.044"/>
			
				<line fill="none" stroke="#505B79" stroke-width="1.3737" stroke-miterlimit="10" x1="747.179" y1="465.347" x2="733.845" y2="459.821"/>
		</g>
		<path fill="#CDD1DA" d="M795.269,526.013c-0.422,1.021,0.062,2.186,1.08,2.605l2.51,1.039c1.025,0.426,2.188-0.054,2.611-1.076
			l11.484-27.729c0.422-1.018-0.059-2.191-1.082-2.613l-2.512-1.041c-1.016-0.42-2.184,0.07-2.607,1.086L795.269,526.013z"/>
		<path fill="#CDD1DA" d="M713.364,492.095c-0.424,1.02,0.064,2.184,1.084,2.605l2.506,1.04c1.027,0.423,2.191-0.058,2.615-1.079
			l11.482-27.729c0.424-1.018-0.059-2.189-1.084-2.612l-2.506-1.04c-1.021-0.422-2.191,0.066-2.613,1.084L713.364,492.095z"/>
		<path opacity="0.62" fill="#FFFFFF" d="M772.386,412.458c-1.016-0.421-2.178,0.066-2.6,1.086l-2.189,5.287
			c-0.422,1.021,0.057,2.189,1.07,2.609l43.578,18.121"/>
		<path opacity="0.35" fill="#FFFFFF" d="M747.771,464.259c0.424-1.02-0.516-2.125-1.535-2.547l-9.527-3.971
			c-1.021-0.424-1.877,0.03-2.301,1.048l-3.203,7.386c-0.129-0.627-0.582-1.746-1.221-2.012l-2.508-1.039
			c-1.02-0.419-2.189,0.067-2.613,1.084l-2.99,7.219c-4.182-1.566-8.646,0.387-10.236,4.229c-1.594,3.846-0.096,8.403,4.217,10.431
			l-2.473,5.851"/>
		<path opacity="0.35" fill="#FFFFFF" d="M796.728,485.04c0.449-1.006,1.229-1.943,2.234-1.494l10.508,4.355
			c1.01,0.449,1.055,1.357,0.605,2.363l-3.146,7.635c0.545-0.34,1.219-1.123,1.852-0.84l3.496,1.387
			c1.01,0.449,1.123,1.398,0.678,2.406l-2.998,7.153c4.014,1.954,5.506,6.284,3.812,10.083c-1.695,3.799-5.4,6.215-9.836,4.483
			l-2.34,5.71"/>
	</g>
	<g>
		<path fill="#FEEAA2" d="M584.249,643.348c-0.494,0.098-0.174-1.156-0.051-1.812c0.129-0.656,0.043-1.113-0.053-1.488
			c-0.1-0.383-0.408-0.798-0.791-1.136c-0.385-0.348-0.092-0.994,0.053-1.285c0.145-0.297,0.902-1.836,1.182-2.311
			c0,0,0.186-0.564,0.721-0.428c0.236,0.065,0.516,0.217,1.543,0.559c1.021,0.338,6.238,2.938,7.219,3.458
			c0.98,0.518,5.486,2.988,6.418,3.537c0.934,0.549,1.686,1.053,3.869,2.454c2.186,1.399,5.521,4.269,7.162,5.902
			c1.633,1.634,3.057,3.872,3.328,4.411c0.268,0.539,0.035,0.779-0.242,1.057c-0.279,0.27-1.266,1.707-2.029,2.455
			c-0.762,0.75-1.684,0.588-1.859,0.484C610.718,659.205,603.118,639.625,584.249,643.348z"/>
		<path fill="#30373F" d="M587.013,651.355c-0.068,1.568-1.998,2.764-4.314,2.668l-3.736-0.154
			c-2.318-0.096-4.139-1.443-4.078-3.014c0.066-1.568,1.998-2.757,4.314-2.662l3.736,0.15
			C585.249,648.438,587.077,649.791,587.013,651.355z"/>
		<path fill="#434A54" d="M624.573,661.572c0,0-1.455-1.303-5.023-3.402c-3.57-2.1-6.275-3.242-6.275-3.242l-1.232,2.098
			c0,0,3.232,1.277,6.352,3.111c3.111,1.83,5.275,3.727,5.275,3.727L624.573,661.572z"/>
		<path opacity="0.29" fill="#FFFFFF" d="M624.679,661.393c0,0-1.561-1.123-5.129-3.223c-3.57-2.1-6.17-3.42-6.17-3.42l-0.57,0.969
			c0,0,3.354,1.217,6.473,3.051c3.113,1.83,5.156,3.787,5.156,3.787L624.679,661.393z"/>
		<path fill="#FEEAA2" d="M622.655,666.225c-0.203,0.02-0.768-0.83-0.484-1.861c0.289-1.029,1.059-2.594,1.164-2.965
			c0.107-0.377,0.203-0.697,0.803-0.729c0.6-0.025,3.252,0.133,5.479,0.77c2.223,0.637,6.35,2.156,8.637,3.387
			c2.285,1.227,3.094,1.641,4.025,2.189c0.936,0.549,5.283,3.283,6.207,3.885c0.934,0.607,5.742,3.902,6.537,4.633
			c0.793,0.729,1.062,0.896,1.234,1.07c0.383,0.406-0.025,0.84-0.025,0.84c-0.281,0.475-1.254,1.889-1.441,2.158
			c-0.189,0.268-0.613,0.834-1.098,0.672c-0.48-0.17-0.994-0.238-1.377-0.141c-0.379,0.098-0.814,0.246-1.332,0.676
			c-0.512,0.428-1.102,0.785-1.604,0.838c-0.5,0.055-1.064,0.074-2.041-0.5C647.339,681.146,648.864,663.701,622.655,666.225z"/>
		<path fill="#434A54" d="M651.253,676.309c-0.186,0.316,0.27,0.93,1.014,1.367c0.744,0.436,1.492,0.531,1.68,0.213
			c0.186-0.316-0.264-0.926-1.008-1.363C652.196,676.09,651.44,675.99,651.253,676.309"/>
		<path fill="#434A54" d="M588.001,639.112c-0.186,0.319-0.939,0.222-1.68-0.217c-0.744-0.438-1.195-1.047-1.01-1.365
			c0.188-0.318,0.941-0.219,1.684,0.219C587.737,638.185,588.19,638.796,588.001,639.112"/>
		<path fill="#BCAF7A" stroke="#BCAF7A" stroke-width="1.0362" stroke-miterlimit="10" d="M619.397,672.422
			c-0.346,1.627-0.898,2.896-1.229,2.824c-0.334-0.07-0.322-1.449,0.027-3.08c0.346-1.633,0.896-2.9,1.223-2.83
			C619.747,669.404,619.741,670.785,619.397,672.422z"/>
		<path fill="#BCAF7A" stroke="#BCAF7A" stroke-width="1.0362" stroke-miterlimit="10" d="M606.854,665.027
			c-1.236,1.08-2.066,2.191-1.863,2.477c0.207,0.287,1.381-0.354,2.615-1.436c1.236-1.08,2.074-2.188,1.865-2.477
			C609.267,663.303,608.089,663.947,606.854,665.027z"/>
		<path fill="#30373F" d="M640.808,686.959c0.139,0.549,0.369,1.107,0.697,1.643l1.951,3.191c1.205,1.977,3.275,2.918,4.611,2.098
			c1.342-0.82,1.439-3.088,0.23-5.064l-1.945-3.191c-0.576-0.945-1.355-1.654-2.145-2.043"/>
		<path opacity="0.66" fill="#A79C6D" d="M609.267,663.006c-1.098,0.182-2.098,1.053-2.986,1.773
			c-1.578,1.281-2.369,3.1-1.518,3.176c1.002,0.09,1.176,0.066,2.354-0.844L609.267,663.006z"/>
		<path fill="#434A54" d="M620.114,671.348c-0.771,2.113-1.025,4.652-0.434,8.348c0.59,3.697,3.01,5.938,6.566,8.029
			c3.561,2.094,6.666,2.83,9.152,2.576c2.482-0.252,4.803-1.613,6.631-3.064c1.826-1.459,4.41-4.457,5.309-6.09l0.254-0.432
			c0.434-0.803,1.287-2.572,1.15-3.941c-0.182-1.826-0.857-3.654-4.006-5.799c-3.152-2.145-7.797-4.762-10.471-5.777
			c-2.672-1.018-5.529-1.762-6.688-1.594c-1.152,0.168-2.787,0.721-3.508,1.352c-0.715,0.629-0.898,0.49-1.072,0.389
			C621.931,666.789,620.89,669.23,620.114,671.348 M640.763,675.992l1.277,0.16l-1.117,8.877l-1.283-0.16L640.763,675.992z
			 M638.073,670.877l1.277,0.162l-1.879,14.891l-1.283-0.166L638.073,670.877z"/>
		<path opacity="0.29" fill="#FFFFFF" d="M647.372,681.168l0.248-0.436c0.441-0.799,1.293-2.57,1.156-3.938
			c-0.18-1.826-0.859-3.658-4.008-5.803c-3.148-2.139-7.797-4.76-10.471-5.775c-2.672-1.018-5.531-1.764-6.68-1.594
			c-1.156,0.17-2.789,0.727-3.512,1.354c-0.721,0.625-0.902,0.488-1.074,0.389c-1.418,1.912-1.488,2.191-2.891,5.998"/>
		<path opacity="0.66" fill="#A79C6D" d="M620.083,669.365c0.275,0.99-0.051,2.258-0.295,3.355c-0.438,1.955-1.17,3.516-1.742,3.037
			c-0.654-0.549-0.766-1.066-0.479-2.502L620.083,669.365z"/>
		<g>
			<path fill="#434A54" d="M585.677,644.887c-0.99,1.578-2.359,5.292-2.734,7.602c-0.385,2.303-0.451,4.992,0.541,7.283
				c0.986,2.295,3.139,4.652,6.697,6.744c3.562,2.096,6.693,3.119,10.211,1.838c3.518-1.279,5.617-2.732,7.09-4.436
				c2.645-3.076,2.855-3.273,3.838-5.441c-0.174-0.102-0.379-0.193-0.182-1.127c0.195-0.938-0.113-2.637-0.525-3.729
				c-0.41-1.086-2.453-3.222-4.641-5.062c-2.186-1.841-6.736-4.631-10.137-6.342c-3.404-1.709-5.336-1.412-7.02-0.684
				c-1.262,0.547-2.395,2.152-2.879,2.926L585.677,644.887z M593.626,646.561l1.281,0.158l-1.877,14.893l-1.283-0.16
				L593.626,646.561z"/>
			<path opacity="0.29" fill="#FFFFFF" d="M607.479,663.918c2.645-3.076,2.855-3.273,3.836-5.443c-0.172-0.1-0.377-0.191-0.18-1.125
				c0.195-0.938-0.113-2.637-0.527-3.729c-0.408-1.086-2.453-3.222-4.639-5.062s-6.736-4.631-10.137-6.342
				c-3.404-1.709-5.336-1.412-7.02-0.684c-1.264,0.547-2.395,2.152-2.879,2.926l-0.26,0.428"/>
		</g>
	</g>
	<g>
		<g>
			
				<rect x="231.785" y="436.031" transform="matrix(-0.3384 -0.941 0.941 -0.3384 -87.6072 892.8339)" fill="#F04F23" width="76.546" height="82.366"/>
			
				<rect x="238.898" y="448.619" transform="matrix(-0.3384 -0.941 0.941 -0.3384 -83.4233 874.55)" fill="#F8F9FA" stroke="#FFFFFF" stroke-width="0.5479" stroke-miterlimit="10" width="53.637" height="35.963"/>
			
				<line fill="none" stroke="#F8CEBD" stroke-width="0.3973" stroke-miterlimit="10" x1="257.873" y1="497.922" x2="291.713" y2="485.751"/>
			
				<rect x="277.697" y="479.613" transform="matrix(-0.3384 -0.941 0.941 -0.3384 -107.6292 965.903)" fill="#F8A069" width="16.061" height="82.347"/>
		</g>
		<polyline opacity="0.17" fill="#C6401B" points="327.189,514.409 249.537,542.335 218.352,455.136 		"/>
	</g>
	<g>
		<path fill="#E6B041" d="M563.574,478.938l32.992-22.08c3.188-2.135,4.046-6.453,1.911-9.643l-13.225-19.76l-58.465,41.064
			l12.33,18.425c2.135,3.188,6.451,4.044,9.642,1.908l2.245-1.503L563.574,478.938z"/>
		<polyline fill="#E5E8EC" points="560.358,474.705 593.778,452.34 586.169,440.971 532.421,476.941 540.03,488.312 
			547.691,483.184 		"/>
		<path fill="#FFCF58" d="M527.501,469.59l-35.593-53.184c-2.135-3.189-1.277-7.506,1.914-9.643l47.806-31.994
			c3.188-2.135,7.506-1.281,9.641,1.909l37.186,55.561c2.137,3.192,1.28,7.51-1.909,9.644L540.053,473
			c-7.093,4.746-3.397,10.268-0.937,13.944"/>
		
			<line fill="none" stroke="#E6B041" stroke-width="1.2669" stroke-miterlimit="10" x1="495.4" y1="405.708" x2="537.183" y2="468.141"/>
		<g>
			
				<line fill="none" stroke="#676E78" stroke-width="1.0558" stroke-linecap="round" stroke-miterlimit="10" x1="540.95" y1="478.396" x2="545.363" y2="475.441"/>
			
				<line fill="none" stroke="#676E78" stroke-width="1.0558" stroke-linecap="round" stroke-miterlimit="10" x1="541.718" y1="482.725" x2="569.259" y2="464.292"/>
			
				<line fill="none" stroke="#676E78" stroke-width="1.0558" stroke-linecap="round" stroke-miterlimit="10" x1="574.07" y1="461.072" x2="590.782" y2="449.887"/>
			
				<line fill="none" stroke="#676E78" stroke-width="1.0558" stroke-linecap="round" stroke-miterlimit="10" x1="548.571" y1="473.295" x2="588.544" y2="446.542"/>
		</g>
		<path opacity="0.16" fill="#FFFFFF" d="M493.822,406.764c-3.191,2.137-4.049,6.453-1.914,9.643l35.593,53.184l11.615,17.354
			c-0.158-0.235-0.32-0.479-0.484-0.728l0.486,0.728c2.135,3.188,6.451,4.044,9.642,1.908l2.245-1.503l12.569-8.412l32.992-22.08"/>
		<polygon fill="#EA573E" points="545.994,479.862 553.508,491.09 556.888,482.252 566.077,482.679 558.563,471.45 		"/>
	</g>
</g>
</svg>
