<?xml version="1.0" encoding="utf-8"?>
<!-- Generator: Adobe Illustrator 16.0.0, SVG Export Plug-In . SVG Version: 6.00 Build 0)  -->
<!DOCTYPE svg PUBLIC "-//W3C//DTD SVG 1.1//EN" "http://www.w3.org/Graphics/SVG/1.1/DTD/svg11.dtd">
<svg version="1.1" id="Layer_1" xmlns="http://www.w3.org/2000/svg" xmlns:xlink="http://www.w3.org/1999/xlink" x="0px" y="0px"
	 width="1006.117px" height="440.323px" viewBox="0 0 1006.117 440.323" enable-background="new 0 0 1006.117 440.323"
	 xml:space="preserve">
<g>
	<g>
		<g>
			<path fill="#F36E54" d="M247.452,407.26c-2.997,1.297-65.082,28.148-65.082,28.148c-5.993,2.592-13.997-2.582-17.877-11.553
				c-3.881-8.973-2.17-18.348,3.824-20.939l46.637-20.172c6.102-5.924,12.162-10.709,16.459-12.568
				c13.264-5.734,27.231-2.953,31.195,6.213C266.572,385.557,260.717,401.524,247.452,407.26z"/>
			<path fill="#C85B45" d="M243.016,409.18c-2.822,1.221-61.278,26.502-61.278,26.502c-5.643,2.441-13.364-2.855-17.244-11.826
				c-3.881-8.973-2.452-18.225,3.189-20.664"/>
			<g>
				<path fill="none" stroke="#FEEAA2" stroke-width="3.0784" stroke-linecap="round" stroke-miterlimit="10" d="M247.993,384.596
					c0.087,2.406,4.194,9.416-19.612,30.912"/>
				<path fill="none" stroke="#FEEAA2" stroke-width="3.0784" stroke-linecap="round" stroke-miterlimit="10" d="M248.146,384.95
					c0,0-4.301-9.947-32.658-2.715"/>
			</g>
		</g>
		<g>
			<path fill="#F36E54" d="M189.098,317.232c-2.531,2.062-54.966,44.795-54.966,44.795c-5.062,4.125-4.158,13.613,2.017,21.191
				c6.177,7.578,15.286,10.377,20.347,6.252l39.391-32.102c8.066-2.684,15.106-5.859,18.736-8.816
				c11.201-9.129,15.167-22.809,8.857-30.548C217.171,310.261,200.3,308.103,189.098,317.232z"/>
			<path fill="#C85B45" d="M185.351,320.288c-2.384,1.942-51.755,42.177-51.755,42.177c-4.766,3.883-3.622,13.176,2.553,20.754
				c6.177,7.578,15.047,10.572,19.812,6.689"/>
			<g>
				<path fill="none" stroke="#FEEAA2" stroke-width="3.0784" stroke-linecap="round" stroke-miterlimit="10" d="M209.463,327.194
					c-2.096-1.186-6.426-8.059-36.472,3.166"/>
				<path fill="none" stroke="#FEEAA2" stroke-width="3.0784" stroke-linecap="round" stroke-miterlimit="10" d="M209.219,326.897
					c0,0,6.847,8.398-12.635,30.236"/>
			</g>
		</g>
	</g>
	<g>
		<path fill="#3A81C3" d="M907.628,60.01l-28.863,46.802c0,0-4.211,2.551-12.371-1.199c-8.158-3.75-10.637-9.381-10.637-9.381
			l16.518-52.474"/>
		<path opacity="0.25" fill="#FFFFFF" d="M878.763,106.812c0,0-4.209,2.553-12.371-1.199c-8.156-3.75-10.637-9.379-10.637-9.379
			l16.52-52.476"/>
		<g>
			<path fill="#306CA4" d="M899.491,52.829c-2.346-1.361-5.076-2.77-8.045-4.135c-9.758-4.485-18.32-6.724-19.119-4.989
				c-0.793,1.729,6.475,6.776,16.232,11.265c9.768,4.491,18.326,6.722,19.121,4.991c0.398-0.866-1.221-2.565-4.156-4.602"/>
			<path fill="#2A6195" d="M891.585,48.877c-2.23-1.288,6.127,2.92,7.906,3.952l4.033,2.53c2.936,2.036,4.555,3.735,4.156,4.602
				c-0.795,1.73-9.354-0.5-19.121-4.991C888.56,54.97,905.017,56.622,891.585,48.877z"/>
		</g>
		
			<line opacity="0.49" fill="none" stroke="#FFFFFF" stroke-width="1.8751" stroke-linecap="round" stroke-miterlimit="10" x1="871.632" y1="59.651" x2="863.612" y2="87.901"/>
		<g>
			<path fill="none" d="M868.522,97.731c-0.219,0.301-0.146,0.709,0.152,0.929l2.475,1.776c0.301,0.215,0.709,0.143,0.93-0.152
				l39.479-55.009c0.213-0.301,0.143-0.715-0.158-0.93l-2.477-1.775c-0.293-0.213-0.707-0.146-0.926,0.147L868.522,97.731z"/>
			<g>
				<defs>
					<path id="SVGID_1_" d="M911.403,44.348l-2.477-1.775c-0.293-0.211-0.707-0.146-0.926,0.146l-39.475,55.015
						c-0.219,0.305-0.146,0.71,0.152,0.928l2.475,1.777c0.301,0.215,0.707,0.146,0.922-0.156l39.486-55.005
						c0.023-0.035,0.045-0.074,0.062-0.108C911.755,44.881,911.671,44.539,911.403,44.348"/>
				</defs>
				
					<linearGradient id="SVGID_2_" gradientUnits="userSpaceOnUse" x1="1116.5342" y1="-114.1909" x2="1121.5391" y2="-114.1909" gradientTransform="matrix(0.807 0.5906 -0.5906 0.807 -80.4663 -497.2502)">
					<stop  offset="0" style="stop-color:#FFFFFF"/>
					<stop  offset="0.8384" style="stop-color:#FFFFFF;stop-opacity:0.1351"/>
					<stop  offset="0.9693" style="stop-color:#FFFFFF;stop-opacity:0"/>
				</linearGradient>
				<use xlink:href="#SVGID_1_"  overflow="visible" fill="url(#SVGID_2_)"/>
				<clipPath id="SVGID_3_">
					<use xlink:href="#SVGID_1_"  overflow="visible"/>
				</clipPath>
				
					<line clip-path="url(#SVGID_3_)" fill="none" stroke="#F79D82" stroke-width="2" stroke-miterlimit="10" x1="910.884" y1="52.786" x2="905.106" y2="40.838"/>
				
					<line clip-path="url(#SVGID_3_)" fill="none" stroke="#CC826C" stroke-width="2" stroke-miterlimit="10" x1="907.267" y1="57.833" x2="901.485" y2="45.873"/>
				
					<line clip-path="url(#SVGID_3_)" fill="none" stroke="#F79D82" stroke-width="2" stroke-miterlimit="10" x1="903.649" y1="62.868" x2="897.872" y2="50.913"/>
				
					<line clip-path="url(#SVGID_3_)" fill="none" stroke="#CC826C" stroke-width="2" stroke-miterlimit="10" x1="900.034" y1="67.912" x2="894.253" y2="55.954"/>
				
					<line clip-path="url(#SVGID_3_)" fill="none" stroke="#F79D82" stroke-width="2" stroke-miterlimit="10" x1="896.415" y1="72.95" x2="890.634" y2="60.997"/>
				
					<line clip-path="url(#SVGID_3_)" fill="none" stroke="#CC826C" stroke-width="2" stroke-miterlimit="10" x1="892.796" y1="77.992" x2="887.021" y2="66.034"/>
				
					<line clip-path="url(#SVGID_3_)" fill="none" stroke="#F79D82" stroke-width="2" stroke-miterlimit="10" x1="889.183" y1="83.03" x2="883.399" y2="71.077"/>
				
					<line clip-path="url(#SVGID_3_)" fill="none" stroke="#CC826C" stroke-width="2" stroke-miterlimit="10" x1="885.558" y1="88.073" x2="879.778" y2="76.118"/>
				
					<line clip-path="url(#SVGID_3_)" fill="none" stroke="#F79D82" stroke-width="2" stroke-miterlimit="10" x1="881.942" y1="93.118" x2="876.163" y2="81.151"/>
				
					<line clip-path="url(#SVGID_3_)" fill="none" stroke="#CC826C" stroke-width="2" stroke-miterlimit="10" x1="878.329" y1="98.16" x2="872.548" y2="86.204"/>
				
					<line clip-path="url(#SVGID_3_)" fill="none" stroke="#F79D82" stroke-width="2" stroke-miterlimit="10" x1="874.708" y1="103.202" x2="868.929" y2="91.241"/>
			</g>
		</g>
		<path fill="#FEEAA2" d="M858.3,88.136l-2.549,8.096c0,0,2.484,5.631,10.641,9.381c8.16,3.752,12.371,1.199,12.371,1.199
			l3.572-5.793c-0.494-0.066-1.023-0.197-1.645-0.48c-3.424-1.576-2.316-3.986-5.744-5.562c-3.426-1.577-4.535,0.835-7.969-0.748
			c-3.436-1.58-2.328-3.99-5.756-5.566C860.03,88.112,859.126,88.056,858.3,88.136 M860.269,95.511
			c0.354-0.766,1.26-1.107,2.025-0.756c0.77,0.354,1.107,1.268,0.756,2.033c-0.354,0.768-1.266,1.104-2.035,0.75
			C860.249,97.187,859.917,96.278,860.269,95.511 M859.782,92.048c0.156-0.344,0.57-0.498,0.918-0.339
			c0.35,0.161,0.498,0.573,0.34,0.917c-0.16,0.349-0.568,0.5-0.918,0.34C859.776,92.806,859.624,92.395,859.782,92.048"/>
		<path opacity="0.4" fill="#FFFFFF" d="M877.815,97.751c-3.891-5.932-7.828-1.608-10.908-3.533l0.434,11.83
			c3.982,1.645,8.277,2.09,10.746,1.066L877.815,97.751z"/>
	</g>
	<g>
		<g>
			<defs>
				<circle id="SVGID_4_" cx="103.54" cy="265.301" r="73.644"/>
			</defs>
			<clipPath id="SVGID_5_">
				<use xlink:href="#SVGID_4_"  overflow="visible"/>
			</clipPath>
			<g clip-path="url(#SVGID_5_)">
				<path fill="#F6F6FB" d="M111.134,228.263c0,0,16.048,11.705,42.146,101.21c0,0-37.799,31.432-89.561,5.617
					C63.719,335.09,94.352,245.101,111.134,228.263z"/>
				<path fill="#FEEAA2" d="M111.134,228.263c0,0,39.807-6.111,72.427,27.99c0,0,6.367,42.1-30.281,73.22
					C153.279,329.473,130.53,249.405,111.134,228.263z"/>
				<path fill="#F79D82" d="M112.352,226.733c0,0-57.856,8.832-87.012,42.096c0,0-2.856,39.301,38.379,66.261
					C63.719,335.09,93.935,248.735,112.352,226.733z"/>
				<path fill="#F79D82" d="M183.561,256.253c0,0-8.084-50.486-56.007-64.559c0,0-13.628,29.34-16.42,36.568
					C111.134,228.263,150.539,222.038,183.561,256.253z"/>
				<path fill="#FEEAA2" d="M25.34,268.829c0,0-4.136-58.262,61.251-78.695c0,0,21.512,30.998,24.543,38.129
					C111.134,228.263,57.183,233.517,25.34,268.829z"/>
				<path fill="#F6F6FB" d="M127.305,191.767c0,0-18.432-7.084-40.636-1.516l24.465,38.012l16.584-36.518"/>
				<path fill="#AAB2BD" d="M104.53,230.198c1.069,3.648,4.889,5.738,8.533,4.67c3.649-1.068,5.738-4.889,4.669-8.539
					c-1.067-3.643-4.888-5.73-8.537-4.662C105.552,222.735,103.463,226.556,104.53,230.198z"/>
			</g>
		</g>
		<g>
			<path opacity="0.69" fill="#FFFFFF" d="M64.924,221.22c1.854,4.348,12.839,3.832,24.542-1.152
				c11.704-4.984,19.689-12.549,17.838-16.896c-1.852-4.346-12.839-3.832-24.541,1.152C71.059,209.311,63.073,216.872,64.924,221.22
				z"/>
			<path opacity="0.64" fill="#FFFFFF" d="M55.081,230.062c0.927,2.171,3.825,3.021,6.478,1.892
				c2.648-1.129,4.049-3.807,3.123-5.982c-0.927-2.172-3.827-3.02-6.478-1.891C55.555,225.21,54.156,227.89,55.081,230.062z"/>
		</g>
	</g>
	<g>
		<path fill="#AAB2BD" d="M867.972,362.016c-0.17,1.469,0.877,2.789,2.348,2.959l75.518,8.707c1.465,0.168,2.793-0.881,2.961-2.348
			l4.836-41.963c0.17-1.463-0.883-2.789-2.346-2.957l-75.52-8.708c-1.471-0.168-2.791,0.885-2.959,2.346L867.972,362.016z"/>
		<path opacity="0.31" fill="#666E78" d="M872.81,320.053l-4.838,41.963c-0.17,1.469,0.877,2.789,2.348,2.959l75.518,8.707"/>
		<path fill="#666E78" d="M924.063,323.273l1.297-11.258c0.17-1.47-0.879-2.789-2.342-2.96l-15.566-1.793
			c-1.469-0.169-2.791,0.877-2.959,2.346l-1.299,11.261"/>
		<g>
			<path fill="#FEEAA2" stroke="#FEEAA2" stroke-width="0.5305" stroke-miterlimit="10" d="M906.946,315.302
				c-0.17,1.465,0.879,2.784,2.346,2.954l9.223,1.064c1.465,0.168,2.789-0.881,2.957-2.344l0.285-2.475
				c0.17-1.466-0.879-2.789-2.346-2.958l-9.223-1.064c-1.469-0.168-2.789,0.88-2.959,2.349L906.946,315.302z"/>
			
				<line fill="none" stroke="#FFFFFF" stroke-width="0.6182" stroke-miterlimit="10" x1="919.79" y1="311.793" x2="918.894" y2="319.572"/>
			
				<line fill="none" stroke="#FFFFFF" stroke-width="0.6182" stroke-miterlimit="10" x1="917.825" y1="311.36" x2="916.929" y2="319.135"/>
			
				<line fill="none" stroke="#FFFFFF" stroke-width="0.6182" stroke-miterlimit="10" x1="915.843" y1="311.132" x2="914.946" y2="318.908"/>
			
				<line fill="none" stroke="#FFFFFF" stroke-width="0.6182" stroke-miterlimit="10" x1="913.864" y1="310.903" x2="912.966" y2="318.68"/>
			
				<line fill="none" stroke="#FFFFFF" stroke-width="0.6182" stroke-miterlimit="10" x1="911.849" y1="310.878" x2="910.95" y2="318.656"/>
			
				<line fill="none" stroke="#FFFFFF" stroke-width="0.6182" stroke-miterlimit="10" x1="909.864" y1="310.649" x2="908.968" y2="318.428"/>
		</g>
		<path fill="#666E78" d="M946.269,325.834l0.283-2.461c0.168-1.463-0.883-2.788-2.35-2.959l-4.314-0.497
			c-1.463-0.169-2.785,0.885-2.953,2.347l-0.285,2.463"/>
		<path fill="#666E78" d="M892.276,344.042c-1.172,10.197,6.143,19.416,16.34,20.592c10.199,1.174,19.42-6.139,20.598-16.334
			c1.174-10.201-6.141-19.424-16.34-20.6C902.675,326.526,893.454,333.84,892.276,344.042z"/>
		<path fill="#434A54" d="M896.075,344.479c-0.934,8.098,4.873,15.428,12.979,16.361c8.107,0.936,15.434-4.881,16.367-12.977
			c0.934-8.104-4.877-15.438-12.984-16.371C904.333,330.557,897.009,336.377,896.075,344.479z"/>
		
			<line fill="none" stroke="#666E78" stroke-width="1.6826" stroke-miterlimit="10" x1="952.396" y1="340.122" x2="924.032" y2="336.852"/>
		
			<line fill="none" stroke="#666E78" stroke-width="1.6812" stroke-miterlimit="10" x1="899.884" y1="334.069" x2="871.569" y2="330.803"/>
		<path fill="#E6E9ED" d="M877.694,324.412c-0.086,0.76,1.49,1.573,3.527,1.807c2.033,0.236,3.752-0.197,3.84-0.957
			c0.09-0.762-1.486-1.575-3.521-1.809C879.503,323.219,877.782,323.652,877.694,324.412"/>
		<path fill="#FEEAA2" d="M944.886,332.413c-0.105,0.904,0.549,1.727,1.453,1.832c0.9,0.105,1.715-0.553,1.818-1.453
			c0.105-0.904-0.541-1.719-1.441-1.824C945.812,330.862,944.989,331.51,944.886,332.413"/>
		<path fill="#88CA90" d="M940.485,331.907c-0.105,0.902,0.541,1.725,1.449,1.83c0.9,0.104,1.719-0.551,1.824-1.451
			c0.104-0.906-0.547-1.723-1.447-1.826C941.401,330.354,940.591,331.002,940.485,331.907"/>
		
			<line fill="none" stroke="#666E78" stroke-width="1.061" stroke-linecap="round" stroke-miterlimit="10" x1="945.042" y1="339.276" x2="941.915" y2="366.403"/>
		
			<line fill="none" stroke="#666E78" stroke-width="1.061" stroke-linecap="round" stroke-miterlimit="10" x1="937.698" y1="338.428" x2="934.569" y2="365.557"/>
		
			<line fill="none" stroke="#666E78" stroke-width="1.061" stroke-linecap="round" stroke-miterlimit="10" x1="930.374" y1="337.362" x2="927.247" y2="364.487"/>
		
			<line fill="none" stroke="#666E78" stroke-width="1.061" stroke-linecap="round" stroke-miterlimit="10" x1="893.638" y1="333.127" x2="890.511" y2="360.252"/>
		
			<line fill="none" stroke="#666E78" stroke-width="1.061" stroke-linecap="round" stroke-miterlimit="10" x1="886.288" y1="332.28" x2="883.163" y2="359.405"/>
		
			<line fill="none" stroke="#666E78" stroke-width="1.061" stroke-linecap="round" stroke-miterlimit="10" x1="878.942" y1="331.434" x2="875.817" y2="358.557"/>
		
			<line fill="none" stroke="#666E78" stroke-width="1.5916" stroke-miterlimit="10" x1="949.294" y1="367.028" x2="868.47" y2="357.711"/>
		<path opacity="0.61" fill="#30373F" d="M904.565,345.602c-0.434,3.762,2.264,7.166,6.029,7.6c3.766,0.436,7.17-2.266,7.604-6.027
			c0.434-3.764-2.266-7.172-6.031-7.605C908.401,339.133,904.999,341.838,904.565,345.602z"/>
		<path opacity="0.54" fill="#FFFFFF" d="M902.419,337.708c0.359,1.398,3.178,1.898,6.297,1.096
			c3.115-0.799,5.346-2.594,4.984-3.992c-0.359-1.402-3.178-1.898-6.291-1.1C904.292,334.512,902.06,336.305,902.419,337.708"/>
		<path opacity="0.6" fill="#FFFFFF" d="M915.929,353.688c0.125,1.037,1.355,1.752,2.74,1.582c1.379-0.164,2.391-1.148,2.266-2.186
			c-0.127-1.041-1.344-1.746-2.721-1.58C916.829,351.67,915.804,352.651,915.929,353.688"/>
		<path opacity="0.69" fill="#FFFFFF" stroke="#FFFFFF" stroke-width="0.5305" stroke-miterlimit="10" d="M910.188,310.479
			c-1.469-0.168-2.789,0.88-2.959,2.349l-0.283,2.474c-0.17,1.465,0.879,2.784,2.346,2.954l9.223,1.064"/>
		<path opacity="0.72" fill="#FFFFFF" d="M885.062,325.262c0.09-0.762-1.486-1.575-3.521-1.809
			c-2.037-0.234-3.758,0.199-3.846,0.959"/>
		<path opacity="0.46" fill="#FFFFFF" d="M948.157,332.792c0.105-0.904-0.541-1.719-1.441-1.824
			c-0.904-0.105-1.727,0.543-1.83,1.445"/>
		<path opacity="0.46" fill="#FFFFFF" d="M943.759,332.286c0.104-0.906-0.547-1.723-1.447-1.826
			c-0.91-0.105-1.721,0.543-1.826,1.447"/>
	</g>
	<g>
		<path fill="#9A91C6" d="M908.567,235.364c1.875,2.322,1.516,5.723-0.803,7.594l-19.871,16.049
			c-2.318,1.871-5.719,1.508-7.592-0.815l-23.996-29.713c-1.877-2.323-1.518-5.724,0.801-7.597l19.871-16.045
			c2.318-1.872,5.719-1.509,7.594,0.812L908.567,235.364z"/>
		<path fill="#FEEAA2" d="M860.235,218.356l-6.459-7.996c-1.002-1.24-0.908-2.977,0.209-3.879l9.57-7.729
			c1.119-0.902,2.834-0.627,3.834,0.611l6.459,7.998L860.235,218.356z"/>
		<g>
			
				<rect x="863.222" y="218.923" transform="matrix(0.778 -0.6283 0.6283 0.778 50.7534 604.9718)" fill="#FFFFFF" width="36.334" height="23.499"/>
		</g>
		<g>
			<circle fill="#FEEAA2" cx="881.541" cy="230.737" r="4.957"/>
			
				<line fill="none" stroke="#FEEAA2" stroke-width="1.8174" stroke-linecap="round" stroke-miterlimit="10" x1="882.376" y1="220.134" x2="881.993" y2="223.862"/>
			
				<line fill="none" stroke="#FEEAA2" stroke-width="1.8174" stroke-linecap="round" stroke-miterlimit="10" x1="880.601" y1="237.44" x2="880.22" y2="241.169"/>
			
				<line fill="none" stroke="#FEEAA2" stroke-width="1.8174" stroke-linecap="round" stroke-miterlimit="10" x1="889.317" y1="224.244" x2="886.413" y2="226.606"/>
			
				<line fill="none" stroke="#FEEAA2" stroke-width="1.8174" stroke-linecap="round" stroke-miterlimit="10" x1="875.028" y1="222.673" x2="877.392" y2="225.577"/>
			
				<line fill="none" stroke="#FEEAA2" stroke-width="1.8174" stroke-linecap="round" stroke-miterlimit="10" x1="891.808" y1="231.798" x2="888.079" y2="231.415"/>
			
				<line fill="none" stroke="#FEEAA2" stroke-width="1.8174" stroke-linecap="round" stroke-miterlimit="10" x1="874.683" y1="229.864" x2="870.958" y2="229.481"/>
			
				<line fill="none" stroke="#FEEAA2" stroke-width="1.8174" stroke-linecap="round" stroke-miterlimit="10" x1="885.511" y1="235.665" x2="887.876" y2="238.569"/>
			
				<line fill="none" stroke="#FEEAA2" stroke-width="1.8174" stroke-linecap="round" stroke-miterlimit="10" x1="876.019" y1="234.312" x2="873.114" y2="236.675"/>
		</g>
		<path opacity="0.26" fill="#FFFFFF" d="M854.009,206.51c-1.119,0.901-1.211,2.638-0.211,3.876l6.459,7.998l-3.129,2.528
			c-2.316,1.87-2.676,5.271-0.801,7.595l23.996,29.711c1.875,2.324,5.275,2.688,7.592,0.814l19.871-16.047
			c2.318-1.871,2.678-5.271,0.803-7.596"/>
	</g>
	<g>
		<defs>
			<rect id="SVGID_6_" x="404.616" y="34.164" width="571.623" height="406.159"/>
		</defs>
		<clipPath id="SVGID_7_">
			<use xlink:href="#SVGID_6_"  overflow="visible"/>
		</clipPath>
		<g clip-path="url(#SVGID_7_)">
			<g>
				
					<rect x="478.453" y="167.046" transform="matrix(0.9995 -0.0301 0.0301 0.9995 -5.5804 19.6666)" fill="#E988B8" width="341.948" height="55.71"/>
				
					<rect x="480.133" y="222.731" transform="matrix(0.9995 -0.0301 0.0301 0.9995 -7.257 19.7389)" fill="#F79D82" width="341.947" height="55.707"/>
				
					<rect x="481.812" y="278.412" transform="matrix(0.9995 -0.0301 0.0301 0.9995 -8.9363 19.8185)" fill="#E988B8" width="341.948" height="55.712"/>
				
					<rect x="483.491" y="334.098" transform="matrix(0.9995 -0.0302 0.0302 0.9995 -10.6161 19.8981)" fill="#F79D82" width="341.951" height="55.709"/>
				
					<rect x="485.172" y="389.783" transform="matrix(0.9995 -0.0301 0.0301 0.9995 -12.2922 19.9705)" fill="#E988B8" width="341.947" height="55.707"/>
				
					<rect x="486.853" y="445.463" transform="matrix(0.9995 -0.0302 0.0302 0.9995 -13.9727 20.0503)" fill="#F79D82" width="341.947" height="55.711"/>
				
					<rect x="488.532" y="501.148" transform="matrix(0.9995 -0.0302 0.0302 0.9995 -15.6538 20.1301)" fill="#E988B8" width="341.947" height="55.711"/>
				<polygon fill="#F79D82" points="819.517,163.112 477.725,173.423 476.048,117.737 817.841,107.429 				"/>
			</g>
			<polygon opacity="0.13" fill="#306CA4" points="817.823,106.828 831.222,551.084 489.433,561.397 			"/>
		</g>
	</g>
	<g>
		<path opacity="0.54" fill="#9B95C9" d="M328.327,146.935c0-5.807,11.413-10.514,25.489-10.514c2.646,0,5.199,0.166,7.599,0.475
			c2.097-8.83,11.437-15.487,22.643-15.487c12.749,0,23.084,8.616,23.084,19.245c0,5.814-3.098,11.024-7.988,14.553
			c2.572,3.49,4.055,7.564,4.055,11.922c0,12.891-12.938,23.34-28.895,23.34c-15.958,0-28.896-10.449-28.896-23.34
			c0-3.557,0.99-6.926,2.752-9.943C336.812,156.125,328.327,151.938,328.327,146.935z"/>
		<g>
			<path fill="#9E8271" d="M398.417,165.657l14.114,10.817c1.232,0.942,1.469,2.71,0.523,3.942l-0.686,0.895
				c-0.943,1.23-2.713,1.465-3.94,0.523l-14.133-10.825"/>
			<path fill="#9A91C6" d="M357.915,120.098c-5.763-3.374-10.755-2.399-16.759,5.233l-0.006-0.003
				c-0.057,0.075-0.107,0.147-0.17,0.228c-0.053,0.07-0.111,0.143-0.17,0.22l0.004,0.003c-5.807,7.783-5.447,12.857-0.692,17.545
				c2.79,2.748,36.842,31.762,41.623,35.424c2.459,1.883,3.574,2.736,5.848,0.232c2.152-2.371,6.742-7.926,8.832-10.607v0.002
				c0.049-0.063,0.111-0.146,0.166-0.221c0.061-0.073,0.123-0.156,0.174-0.224v-0.003c2.043-2.714,6.211-8.592,7.939-11.283
				c1.826-2.851,0.71-3.705-1.746-5.588C400.501,149.175,363.792,123.53,357.915,120.098z"/>
			<path fill="#8C85B6" d="M396.255,156.565c1.236,0.945,1.6,2.535,0.818,3.56l-0.639,0.829c-0.781,1.021-2.414,1.086-3.648,0.14
				l-43.22-33.108c-1.229-0.943-1.596-2.537-0.812-3.557l0.635-0.832c0.783-1.021,2.416-1.08,3.646-0.136L396.255,156.565z"/>
			<path fill="#8C85B6" d="M388.927,166.13c1.235,0.947,1.598,2.541,0.818,3.559l-0.639,0.832c-0.783,1.023-2.414,1.084-3.646,0.137
				l-43.22-33.105c-1.232-0.94-1.6-2.535-0.816-3.557l0.637-0.832c0.781-1.018,2.418-1.08,3.646-0.139L388.927,166.13z"/>
			<path opacity="0.25" fill="#CCC6E3" d="M404.317,152.14c-9.678-6.689-43.626-30.42-46.402-32.042
				c-5.763-3.374-10.755-2.399-16.759,5.233l-0.006-0.003c-0.057,0.075-0.107,0.147-0.17,0.228c-0.053,0.07-0.111,0.143-0.17,0.22
				c0,0-9.296,10.253-0.688,17.548"/>
			
				<linearGradient id="SVGID_8_" gradientUnits="userSpaceOnUse" x1="2795.4014" y1="1837.5181" x2="2792.6523" y2="1857.0782" gradientTransform="matrix(-0.1957 0.9807 0.9807 0.1957 -860.838 -2927.5969)">
				<stop  offset="0" style="stop-color:#836C5E"/>
				<stop  offset="0.093" style="stop-color:#8B7669;stop-opacity:0.8778"/>
				<stop  offset="0.2545" style="stop-color:#A19085;stop-opacity:0.6655"/>
				<stop  offset="0.4652" style="stop-color:#C5BAB3;stop-opacity:0.3885"/>
				<stop  offset="0.7146" style="stop-color:#F5F4F2;stop-opacity:0.0607"/>
				<stop  offset="0.7607" style="stop-color:#FFFFFF;stop-opacity:0"/>
			</linearGradient>
			<path fill="url(#SVGID_8_)" d="M398.417,165.657l14.114,10.817c1.232,0.942,1.469,2.71,0.523,3.942l-0.686,0.895
				c-0.943,1.23-2.713,1.465-3.94,0.523l-14.133-10.825"/>
		</g>
	</g>
	<g>
		<path fill="#F79D82" d="M794.501,194.683c4.033,1.67,8.656-0.242,10.326-4.271c1.67-4.03-0.252-8.648-4.283-10.317"/>
		<path fill="#F79D82" d="M712.954,143.817c-4.025-1.666-8.648,0.242-10.318,4.271c-1.668,4.031,0.252,8.652,4.275,10.319"/>
		<path fill="none" stroke="#505B79" stroke-width="4.1211" stroke-linecap="round" stroke-miterlimit="10" d="M759.86,88.466
			c-12.752-1.199-25.348,5.934-30.508,18.396l-12.012,29"/>
		<path fill="none" stroke="#505B79" stroke-width="4.1211" stroke-linecap="round" stroke-miterlimit="10" d="M803.233,171.435
			l12.01-29c5.158-12.459,1.299-26.4-8.566-34.568"/>
		<path fill="#CDD1DA" d="M758.743,91.173c-0.424,1.02,0.061,2.188,1.084,2.609l43.117,17.861c1.023,0.426,2.189-0.057,2.613-1.078
			l2.189-5.287c0.422-1.021-0.061-2.188-1.088-2.611l-43.115-17.865c-1.021-0.424-2.189,0.061-2.613,1.08L758.743,91.173z"/>
		<path fill="#CDD1DA" d="M769.534,201.149c-0.422,1.016,0.07,2.193,1.082,2.613l9.648,3.996c1.016,0.422,2.189-0.067,2.611-1.086
			l18.258-44.086c0.422-1.02-0.064-2.188-1.082-2.609l-9.646-3.996c-1.016-0.42-2.191,0.061-2.613,1.081L769.534,201.149z"/>
		<path fill="#CDD1DA" d="M707.173,175.323c-0.42,1.016,0.061,2.19,1.082,2.613l9.641,3.99c1.018,0.424,2.195-0.062,2.615-1.08
			l18.256-44.088c0.424-1.02-0.066-2.191-1.084-2.611l-9.639-3.992c-1.021-0.424-2.189,0.062-2.613,1.08L707.173,175.323z"/>
		
			<line fill="none" stroke="#505B79" stroke-width="4.1211" stroke-linecap="round" stroke-miterlimit="10" x1="802.212" y1="106.011" x2="765.335" y2="90.735"/>
		<g>
			
				<line fill="none" stroke="#505B79" stroke-width="1.3737" stroke-miterlimit="10" x1="783.202" y1="205.749" x2="769.874" y2="200.23"/>
			
				<line fill="none" stroke="#505B79" stroke-width="1.3737" stroke-miterlimit="10" x1="784.169" y1="203.55" x2="770.827" y2="198.022"/>
			
				<line fill="none" stroke="#505B79" stroke-width="1.3737" stroke-miterlimit="10" x1="785.089" y1="201.325" x2="771.747" y2="195.8"/>
			
				<line fill="none" stroke="#505B79" stroke-width="1.3737" stroke-miterlimit="10" x1="786.011" y1="199.103" x2="772.669" y2="193.577"/>
			
				<line fill="none" stroke="#505B79" stroke-width="1.3737" stroke-miterlimit="10" x1="786.933" y1="196.88" x2="773.589" y2="191.354"/>
			
				<line fill="none" stroke="#505B79" stroke-width="1.3737" stroke-miterlimit="10" x1="787.851" y1="194.661" x2="774.509" y2="189.134"/>
			
				<line fill="none" stroke="#505B79" stroke-width="1.3737" stroke-miterlimit="10" x1="788.772" y1="192.437" x2="775.431" y2="186.909"/>
			
				<line fill="none" stroke="#505B79" stroke-width="1.3737" stroke-miterlimit="10" x1="789.692" y1="190.214" x2="776.351" y2="184.687"/>
			
				<line fill="none" stroke="#505B79" stroke-width="1.3737" stroke-miterlimit="10" x1="790.614" y1="187.989" x2="777.272" y2="182.464"/>
			
				<line fill="none" stroke="#505B79" stroke-width="1.3737" stroke-miterlimit="10" x1="791.534" y1="185.771" x2="778.192" y2="180.245"/>
			
				<line fill="none" stroke="#505B79" stroke-width="1.3737" stroke-miterlimit="10" x1="792.452" y1="183.55" x2="779.112" y2="178.022"/>
			
				<line fill="none" stroke="#505B79" stroke-width="1.3737" stroke-miterlimit="10" x1="793.372" y1="181.325" x2="780.032" y2="175.802"/>
			
				<line fill="none" stroke="#505B79" stroke-width="1.3737" stroke-miterlimit="10" x1="794.294" y1="179.101" x2="780.952" y2="173.577"/>
			
				<line fill="none" stroke="#505B79" stroke-width="1.3737" stroke-miterlimit="10" x1="795.214" y1="176.88" x2="781.874" y2="171.354"/>
			
				<line fill="none" stroke="#505B79" stroke-width="1.3737" stroke-miterlimit="10" x1="796.134" y1="174.66" x2="782.792" y2="169.132"/>
			
				<line fill="none" stroke="#505B79" stroke-width="1.3737" stroke-miterlimit="10" x1="797.056" y1="172.438" x2="783.712" y2="166.913"/>
			
				<line fill="none" stroke="#505B79" stroke-width="1.3737" stroke-miterlimit="10" x1="797.987" y1="170.222" x2="784.661" y2="164.7"/>
			
				<line fill="none" stroke="#505B79" stroke-width="1.3737" stroke-miterlimit="10" x1="798.907" y1="168.003" x2="785.577" y2="162.483"/>
			
				<line fill="none" stroke="#505B79" stroke-width="1.3737" stroke-miterlimit="10" x1="799.825" y1="165.778" x2="786.499" y2="160.259"/>
			
				<line fill="none" stroke="#505B79" stroke-width="1.3737" stroke-miterlimit="10" x1="800.749" y1="163.556" x2="787.419" y2="158.036"/>
		</g>
		<g>
			
				<line fill="none" stroke="#505B79" stroke-width="1.3737" stroke-miterlimit="10" x1="721.026" y1="179.999" x2="707.688" y2="174.479"/>
			
				<line fill="none" stroke="#505B79" stroke-width="1.3737" stroke-miterlimit="10" x1="721.657" y1="177.661" x2="708.327" y2="172.14"/>
			
				<line fill="none" stroke="#505B79" stroke-width="1.3737" stroke-miterlimit="10" x1="722.579" y1="175.437" x2="709.245" y2="169.917"/>
			
				<line fill="none" stroke="#505B79" stroke-width="1.3737" stroke-miterlimit="10" x1="723.499" y1="173.214" x2="710.167" y2="167.694"/>
			
				<line fill="none" stroke="#505B79" stroke-width="1.3737" stroke-miterlimit="10" x1="724.421" y1="170.993" x2="711.087" y2="165.472"/>
			
				<line fill="none" stroke="#505B79" stroke-width="1.3737" stroke-miterlimit="10" x1="725.341" y1="168.772" x2="712.009" y2="163.251"/>
			
				<line fill="none" stroke="#505B79" stroke-width="1.3737" stroke-miterlimit="10" x1="726.261" y1="166.55" x2="712.929" y2="161.027"/>
			
				<line fill="none" stroke="#505B79" stroke-width="1.3737" stroke-miterlimit="10" x1="727.183" y1="164.323" x2="713.849" y2="158.802"/>
			
				<line fill="none" stroke="#505B79" stroke-width="1.3737" stroke-miterlimit="10" x1="728.103" y1="162.101" x2="714.771" y2="156.579"/>
			
				<line fill="none" stroke="#505B79" stroke-width="1.3737" stroke-miterlimit="10" x1="729.021" y1="159.882" x2="715.69" y2="154.359"/>
			
				<line fill="none" stroke="#505B79" stroke-width="1.3737" stroke-miterlimit="10" x1="729.942" y1="157.661" x2="716.608" y2="152.138"/>
			
				<line fill="none" stroke="#505B79" stroke-width="1.3737" stroke-miterlimit="10" x1="730.862" y1="155.437" x2="717.53" y2="149.915"/>
			
				<line fill="none" stroke="#505B79" stroke-width="1.3737" stroke-miterlimit="10" x1="731.782" y1="153.214" x2="718.45" y2="147.692"/>
			
				<line fill="none" stroke="#505B79" stroke-width="1.3737" stroke-miterlimit="10" x1="732.704" y1="150.989" x2="719.372" y2="145.47"/>
			
				<line fill="none" stroke="#505B79" stroke-width="1.3737" stroke-miterlimit="10" x1="733.624" y1="148.769" x2="720.292" y2="143.249"/>
			
				<line fill="none" stroke="#505B79" stroke-width="1.3737" stroke-miterlimit="10" x1="734.544" y1="146.55" x2="721.212" y2="141.028"/>
			
				<line fill="none" stroke="#505B79" stroke-width="1.3737" stroke-miterlimit="10" x1="735.476" y1="144.331" x2="722.142" y2="138.811"/>
			
				<line fill="none" stroke="#505B79" stroke-width="1.3737" stroke-miterlimit="10" x1="736.396" y1="142.114" x2="723.06" y2="136.594"/>
			
				<line fill="none" stroke="#505B79" stroke-width="1.3737" stroke-miterlimit="10" x1="737.315" y1="139.89" x2="723.981" y2="134.366"/>
			
				<line fill="none" stroke="#505B79" stroke-width="1.3737" stroke-miterlimit="10" x1="738.237" y1="137.669" x2="724.903" y2="132.144"/>
		</g>
		<path fill="#CDD1DA" d="M786.327,198.335c-0.422,1.021,0.062,2.186,1.08,2.605l2.51,1.039c1.025,0.426,2.188-0.054,2.611-1.076
			l11.484-27.729c0.422-1.018-0.059-2.191-1.082-2.613l-2.512-1.041c-1.016-0.42-2.184,0.07-2.607,1.086L786.327,198.335z"/>
		<path fill="#CDD1DA" d="M704.423,164.417c-0.424,1.02,0.064,2.184,1.084,2.605l2.506,1.04c1.027,0.423,2.191-0.058,2.615-1.079
			l11.482-27.729c0.424-1.018-0.059-2.189-1.084-2.612l-2.506-1.04c-1.021-0.422-2.191,0.066-2.613,1.084L704.423,164.417z"/>
		<path opacity="0.62" fill="#FFFFFF" d="M763.444,84.78c-1.016-0.421-2.178,0.066-2.6,1.086l-2.189,5.287
			c-0.422,1.021,0.057,2.189,1.07,2.609l43.578,18.121"/>
		<path opacity="0.35" fill="#FFFFFF" d="M738.829,136.581c0.424-1.02-0.516-2.125-1.535-2.547l-9.527-3.971
			c-1.021-0.424-1.877,0.03-2.301,1.048l-3.203,7.386c-0.129-0.627-0.582-1.746-1.221-2.012l-2.508-1.039
			c-1.02-0.419-2.189,0.067-2.613,1.084l-2.99,7.219c-4.182-1.566-8.646,0.387-10.236,4.229c-1.594,3.846-0.096,8.403,4.217,10.431
			l-2.473,5.851"/>
		<path opacity="0.35" fill="#FFFFFF" d="M787.786,157.362c0.449-1.006,1.229-1.943,2.234-1.494l10.508,4.355
			c1.01,0.449,1.055,1.357,0.605,2.363l-3.146,7.635c0.545-0.34,1.219-1.123,1.852-0.84l3.496,1.387
			c1.01,0.449,1.123,1.398,0.678,2.406l-2.998,7.153c4.014,1.954,5.506,6.284,3.812,10.083c-1.695,3.799-5.4,6.215-9.836,4.483
			l-2.34,5.71"/>
	</g>
	<g>
		<path fill="#FEEAA2" d="M575.308,315.67c-0.494,0.098-0.174-1.156-0.051-1.812c0.129-0.656,0.043-1.113-0.053-1.488
			c-0.1-0.383-0.408-0.798-0.791-1.136c-0.385-0.348-0.092-0.994,0.053-1.285c0.145-0.297,0.902-1.836,1.182-2.311
			c0,0,0.186-0.564,0.721-0.428c0.236,0.065,0.516,0.217,1.543,0.559c1.021,0.338,6.238,2.938,7.219,3.458
			c0.98,0.518,5.486,2.988,6.418,3.537c0.934,0.549,1.686,1.053,3.869,2.454c2.186,1.399,5.521,4.269,7.162,5.902
			c1.633,1.634,3.057,3.873,3.328,4.412c0.268,0.539,0.035,0.779-0.242,1.057c-0.279,0.27-1.266,1.707-2.029,2.455
			c-0.762,0.75-1.684,0.588-1.859,0.484C601.776,331.528,594.177,311.947,575.308,315.67z"/>
		<path fill="#30373F" d="M578.071,323.678c-0.068,1.569-1.998,2.764-4.314,2.668l-3.736-0.154
			c-2.318-0.096-4.139-1.443-4.078-3.014c0.066-1.568,1.998-2.757,4.314-2.662l3.736,0.15
			C576.308,320.76,578.136,322.113,578.071,323.678z"/>
		<path fill="#434A54" d="M615.632,333.895c0,0-1.455-1.303-5.023-3.402c-3.57-2.1-6.275-3.242-6.275-3.242l-1.232,2.098
			c0,0,3.232,1.277,6.352,3.111c3.111,1.83,5.275,3.727,5.275,3.727L615.632,333.895z"/>
		<path opacity="0.29" fill="#FFFFFF" d="M615.737,333.715c0,0-1.561-1.123-5.129-3.223c-3.57-2.1-6.17-3.42-6.17-3.42l-0.57,0.969
			c0,0,3.354,1.217,6.473,3.051c3.113,1.83,5.156,3.787,5.156,3.787L615.737,333.715z"/>
		<path fill="#FEEAA2" d="M613.714,338.547c-0.203,0.02-0.768-0.83-0.484-1.861c0.289-1.029,1.059-2.594,1.164-2.965
			c0.107-0.377,0.203-0.697,0.803-0.729c0.6-0.025,3.252,0.133,5.479,0.77c2.223,0.637,6.35,2.156,8.637,3.387
			c2.285,1.227,3.094,1.641,4.025,2.189c0.936,0.549,5.283,3.283,6.207,3.885c0.934,0.607,5.742,3.902,6.537,4.633
			c0.793,0.729,1.062,0.896,1.234,1.07c0.383,0.406-0.025,0.84-0.025,0.84c-0.281,0.475-1.254,1.889-1.441,2.158
			c-0.189,0.268-0.613,0.834-1.098,0.672c-0.48-0.17-0.994-0.238-1.377-0.141c-0.379,0.098-0.814,0.246-1.332,0.676
			c-0.512,0.428-1.102,0.785-1.604,0.838c-0.5,0.055-1.064,0.074-2.041-0.5C638.397,353.469,639.923,336.024,613.714,338.547z"/>
		<path fill="#434A54" d="M642.312,348.631c-0.186,0.316,0.27,0.93,1.014,1.367c0.744,0.436,1.492,0.531,1.68,0.213
			c0.186-0.316-0.264-0.926-1.008-1.363C643.255,348.413,642.499,348.313,642.312,348.631"/>
		<path fill="#434A54" d="M579.06,311.435c-0.186,0.319-0.939,0.222-1.68-0.217c-0.744-0.438-1.195-1.047-1.01-1.365
			c0.188-0.318,0.941-0.219,1.684,0.219C578.796,310.507,579.249,311.118,579.06,311.435"/>
		<path fill="#BCAF7A" stroke="#BCAF7A" stroke-width="1.0362" stroke-miterlimit="10" d="M610.456,344.745
			c-0.346,1.627-0.898,2.896-1.229,2.824c-0.334-0.07-0.322-1.449,0.027-3.08c0.346-1.633,0.896-2.9,1.223-2.83
			C610.806,341.727,610.8,343.108,610.456,344.745z"/>
		<path fill="#BCAF7A" stroke="#BCAF7A" stroke-width="1.0362" stroke-miterlimit="10" d="M597.913,337.35
			c-1.236,1.08-2.066,2.191-1.863,2.477c0.207,0.287,1.381-0.354,2.615-1.436c1.236-1.08,2.074-2.188,1.865-2.477
			C600.325,335.625,599.147,336.27,597.913,337.35z"/>
		<path fill="#30373F" d="M631.866,359.282c0.139,0.549,0.369,1.107,0.697,1.643l1.951,3.191c1.205,1.977,3.275,2.918,4.611,2.098
			c1.342-0.82,1.439-3.088,0.23-5.064l-1.945-3.191c-0.576-0.945-1.355-1.654-2.145-2.043"/>
		<path opacity="0.66" fill="#A79C6D" d="M600.325,335.329c-1.098,0.182-2.098,1.053-2.986,1.773
			c-1.578,1.281-2.369,3.1-1.518,3.176c1.002,0.09,1.176,0.066,2.354-0.844L600.325,335.329z"/>
		<path fill="#434A54" d="M611.173,343.67c-0.771,2.113-1.025,4.652-0.434,8.348c0.59,3.697,3.01,5.938,6.566,8.029
			c3.561,2.094,6.666,2.83,9.152,2.576c2.482-0.252,4.803-1.613,6.631-3.064c1.826-1.459,4.41-4.457,5.309-6.09l0.254-0.432
			c0.434-0.803,1.287-2.572,1.15-3.941c-0.182-1.826-0.857-3.654-4.006-5.799c-3.152-2.145-7.797-4.762-10.471-5.777
			c-2.672-1.018-5.529-1.762-6.688-1.594c-1.152,0.168-2.787,0.721-3.508,1.352c-0.715,0.629-0.898,0.49-1.072,0.389
			C612.989,339.112,611.948,341.553,611.173,343.67 M631.821,348.315l1.277,0.16l-1.117,8.877l-1.283-0.16L631.821,348.315z
			 M629.132,343.2l1.277,0.162l-1.879,14.891l-1.283-0.166L629.132,343.2z"/>
		<path opacity="0.29" fill="#FFFFFF" d="M638.431,353.491l0.248-0.436c0.441-0.799,1.293-2.57,1.156-3.938
			c-0.18-1.826-0.859-3.658-4.008-5.803c-3.148-2.139-7.797-4.76-10.471-5.775c-2.672-1.018-5.531-1.764-6.68-1.594
			c-1.156,0.17-2.789,0.727-3.512,1.354c-0.721,0.625-0.902,0.488-1.074,0.389c-1.418,1.912-1.488,2.191-2.891,5.998"/>
		<path opacity="0.66" fill="#A79C6D" d="M611.142,341.688c0.275,0.99-0.051,2.258-0.295,3.355c-0.438,1.955-1.17,3.516-1.742,3.037
			c-0.654-0.549-0.766-1.066-0.479-2.502L611.142,341.688z"/>
		<g>
			<path fill="#434A54" d="M576.735,317.209c-0.99,1.578-2.359,5.292-2.734,7.602c-0.385,2.303-0.451,4.992,0.541,7.283
				c0.986,2.295,3.139,4.652,6.697,6.744c3.562,2.096,6.693,3.119,10.211,1.838c3.518-1.279,5.617-2.732,7.09-4.436
				c2.645-3.076,2.855-3.273,3.838-5.441c-0.174-0.102-0.379-0.193-0.182-1.127c0.195-0.938-0.113-2.637-0.525-3.729
				c-0.41-1.086-2.453-3.222-4.641-5.063c-2.186-1.841-6.736-4.631-10.137-6.342c-3.404-1.709-5.336-1.412-7.02-0.684
				c-1.262,0.547-2.395,2.152-2.879,2.926L576.735,317.209z M584.685,318.883l1.281,0.158l-1.877,14.893l-1.283-0.16
				L584.685,318.883z"/>
			<path opacity="0.29" fill="#FFFFFF" d="M598.538,336.241c2.645-3.076,2.855-3.273,3.836-5.443c-0.172-0.1-0.377-0.191-0.18-1.125
				c0.195-0.938-0.113-2.637-0.527-3.729c-0.408-1.086-2.453-3.222-4.639-5.063s-6.736-4.631-10.137-6.342
				c-3.404-1.709-5.336-1.412-7.02-0.684c-1.264,0.547-2.395,2.152-2.879,2.926l-0.26,0.428"/>
		</g>
	</g>
	<g>
		<g>
			
				<rect x="222.843" y="108.353" transform="matrix(-0.3384 -0.941 0.941 -0.3384 208.7684 445.8506)" fill="#F04F23" width="76.546" height="82.366"/>
			
				<rect x="229.957" y="120.941" transform="matrix(-0.3384 -0.941 0.941 -0.3384 212.9504 427.5616)" fill="#F8F9FA" stroke="#FFFFFF" stroke-width="0.5479" stroke-miterlimit="10" width="53.637" height="35.963"/>
			
				<line fill="none" stroke="#F8CEBD" stroke-width="0.3973" stroke-miterlimit="10" x1="248.931" y1="170.244" x2="282.771" y2="158.073"/>
			
				<rect x="268.755" y="151.935" transform="matrix(-0.3384 -0.941 0.941 -0.3384 188.7445 518.9147)" fill="#F8A069" width="16.061" height="82.347"/>
		</g>
		<polyline opacity="0.17" fill="#C6401B" points="318.247,186.731 240.595,214.657 209.41,127.458 		"/>
	</g>
	<g>
		<path fill="#E6B041" d="M554.633,151.26l32.992-22.08c3.188-2.135,4.046-6.453,1.911-9.643l-13.225-19.76l-58.465,41.064
			l12.33,18.425c2.135,3.188,6.451,4.044,9.642,1.908l2.245-1.503L554.633,151.26z"/>
		<polyline fill="#E5E8EC" points="551.417,147.027 584.837,124.662 577.228,113.293 523.479,149.264 531.089,160.634 
			538.75,155.506 		"/>
		<path fill="#FFCF58" d="M518.56,141.912l-35.594-53.184c-2.135-3.189-1.277-7.506,1.914-9.643l47.807-31.994
			c3.188-2.135,7.506-1.281,9.641,1.909l37.186,55.561c2.137,3.192,1.28,7.51-1.909,9.644l-46.492,31.117
			c-7.093,4.746-3.397,10.268-0.937,13.944"/>
		
			<line fill="none" stroke="#E6B041" stroke-width="1.2669" stroke-miterlimit="10" x1="486.458" y1="78.03" x2="528.241" y2="140.463"/>
		<g>
			
				<line fill="none" stroke="#676E78" stroke-width="1.0558" stroke-linecap="round" stroke-miterlimit="10" x1="532.009" y1="150.718" x2="536.422" y2="147.764"/>
			
				<line fill="none" stroke="#676E78" stroke-width="1.0558" stroke-linecap="round" stroke-miterlimit="10" x1="532.776" y1="155.047" x2="560.317" y2="136.614"/>
			
				<line fill="none" stroke="#676E78" stroke-width="1.0558" stroke-linecap="round" stroke-miterlimit="10" x1="565.129" y1="133.395" x2="581.841" y2="122.209"/>
			
				<line fill="none" stroke="#676E78" stroke-width="1.0558" stroke-linecap="round" stroke-miterlimit="10" x1="539.63" y1="145.617" x2="579.603" y2="118.864"/>
		</g>
		<path opacity="0.16" fill="#FFFFFF" d="M484.88,79.086c-3.191,2.137-4.049,6.453-1.914,9.643l35.594,53.184l11.615,17.354
			c-0.158-0.235-0.32-0.479-0.484-0.728l0.486,0.728c2.135,3.188,6.451,4.044,9.642,1.908l2.245-1.503l12.569-8.412l32.992-22.08"/>
		<polygon fill="#EA573E" points="537.053,152.185 544.566,163.412 547.946,154.574 557.136,155.001 549.622,143.772 		"/>
	</g>
</g>
</svg>
