<?xml version="1.0" encoding="utf-8"?>
<!-- Generator: Adobe Illustrator 15.1.0, SVG Export Plug-In . SVG Version: 6.00 Build 0)  -->
<!DOCTYPE svg PUBLIC "-//W3C//DTD SVG 1.1//EN" "http://www.w3.org/Graphics/SVG/1.1/DTD/svg11.dtd">
<svg version="1.1" id="Capa_1" xmlns="http://www.w3.org/2000/svg" xmlns:xlink="http://www.w3.org/1999/xlink" x="0px" y="0px"
	 width="398px" height="184px" viewBox="0 0 398 184" enable-background="new 0 0 398 184" xml:space="preserve">
<g>
	<g>
		<g>
			<rect x="15.122" y="14.286" fill="#D0E7F9" width="146.055" height="155.427"/>
			<path fill="none" stroke="#4F5877" stroke-width="0.9987" stroke-miterlimit="10" d="M176.087,53.875l0.211-6.929
				c-3.027,0-5.566-1.963-6.494-4.679v-4.453c0.928-2.711,3.467-4.673,6.494-4.673l-0.072-5.897c-2.936,0-5.428-1.845-6.422-4.436
				V17.88c0.994-2.591,3.486-4.44,6.422-4.44l0.069-6.021h-6.491V0.421l-7.168,0.068c0,3.812-2.986,6.903-6.667,6.903
				c-3.68,0-6.66-3.09-6.66-6.903l-5.695-0.07c0,3.814-2.979,6.904-6.662,6.904c-3.682,0-6.665-3.09-6.665-6.904l-6.69-0.281
				c0,3.812-2.986,6.904-6.666,6.904c-3.682,0-6.667-3.092-6.667-6.904l-5.687,0.142c0,3.809-2.981,6.901-6.662,6.901
				c-3.685,0-6.665-3.092-6.665-6.901L83.69,0.347c0,3.815-2.984,6.906-6.666,6.906s-6.666-3.091-6.666-6.906L64.672,0.21
				c0,3.815-2.984,6.902-6.666,6.902c-3.679,0-6.666-3.087-6.666-6.902L44.652,0c0,3.813-2.984,6.901-6.668,6.901
				c-3.676,0-6.659-3.088-6.659-6.901L25.63,0.071c0,3.812-2.98,6.904-6.662,6.904c-3.68,0-6.666-3.092-6.666-6.904l-5.812-0.07
				v7.418h-6.49l0.069,6.021c2.936,0,5.427,1.849,6.421,4.436v4.933c-0.994,2.59-3.485,4.435-6.421,4.435L0,33.141
				c3.025,0,5.563,1.962,6.492,4.671v4.457C5.563,44.982,3.024,46.945,0,46.945l0.21,6.929c2.805,0,5.205,1.682,6.282,4.088v5.629
				c-1.077,2.406-3.477,4.09-6.282,4.09l0.136,5.892c2.701,0,5.015,1.566,6.146,3.831v6.143c-1.13,2.263-3.445,3.832-6.146,3.832
				l-0.068,7.831c2.752,0,5.108,1.627,6.213,3.963v5.883c-1.105,2.334-3.461,3.959-6.213,3.959l-0.141,5.893
				c2.857,0,5.309,1.744,6.354,4.229v5.355c-1.045,2.48-3.497,4.227-6.354,4.227l0.281,6.928c2.647,0,4.917,1.51,6.073,3.703v6.402
				c-1.156,2.191-3.426,3.699-6.073,3.699l0.069,5.896c2.595,0,4.829,1.453,6.004,3.572v6.654c-1.175,2.125-3.409,3.578-6.004,3.578
				l-0.067,7.426h6.071v7.42l5.812-0.07c0-3.812,2.986-6.904,6.666-6.904c3.682,0,6.662,3.092,6.662,6.904L31.325,184
				c0-3.814,2.983-6.902,6.659-6.902c3.685,0,6.668,3.088,6.668,6.902l6.689-0.211c0-3.814,2.987-6.902,6.666-6.902
				c3.682,0,6.666,3.088,6.666,6.902l5.687-0.137c0-3.814,2.984-6.906,6.666-6.906s6.666,3.092,6.666,6.906l7.561,0.068
				c0-3.812,2.98-6.902,6.665-6.902c3.681,0,6.662,3.09,6.662,6.902l5.687,0.141c0-3.812,2.986-6.904,6.667-6.904
				c3.68,0,6.666,3.092,6.666,6.904l6.69-0.281c0-3.814,2.983-6.906,6.665-6.906c3.683,0,6.662,3.092,6.662,6.906l5.695-0.07
				c0-3.812,2.98-6.904,6.66-6.904c3.682,0,6.667,3.092,6.667,6.904l7.168,0.068v-7h6.073l-0.068-7.426
				c-2.595,0-4.828-1.453-6.005-3.578v-6.652c1.177-2.121,3.41-3.574,6.005-3.574l0.07-5.896c-2.646,0-4.919-1.51-6.075-3.699
				v-6.402c1.156-2.193,3.429-3.703,6.075-3.703l0.281-6.928c-2.859,0-5.311-1.746-6.356-4.23v-5.348
				c1.045-2.488,3.497-4.232,6.356-4.232l-0.142-5.893c-2.752,0-5.109-1.625-6.214-3.961v-5.879
				c1.105-2.338,3.462-3.965,6.214-3.965l-0.068-7.831c-2.701,0-5.015-1.569-6.146-3.833v-6.139
				c1.132-2.265,3.446-3.833,6.146-3.833l0.136-5.892c-2.806,0-5.207-1.684-6.283-4.092v-5.625
				C170.881,55.558,173.282,53.875,176.087,53.875z"/>
			
				<rect x="15.122" y="14.286" fill="none" stroke="#4F5877" stroke-width="1.9973" stroke-miterlimit="10" width="146.055" height="155.427"/>
		</g>
		<g>
			<polygon fill="#F69C82" stroke="#4F5877" stroke-width="0.9987" stroke-miterlimit="10" points="161.253,160.578 15.121,160.578 
				15.121,146.637 15.121,127.08 27.884,115.137 40.649,127.08 40.649,132.555 48.059,127.883 48.211,127.883 48.211,123.342 
				52.504,123.342 52.504,125.705 67.219,125.705 67.219,123.342 71.511,123.342 71.511,127.883 71.664,127.883 77.473,132.555 
				77.473,124.381 91.248,110.791 105.024,124.381 105.024,121.154 118.909,105.596 132.796,121.154 132.796,126.969 
				141.554,120.449 141.734,120.449 141.734,114.109 146.807,114.109 146.807,117.408 161.254,117.408 			"/>
			<g>
				<g>
					
						<rect x="20.448" y="135.115" fill="#D0E7F9" stroke="#4F5877" stroke-width="0.749" stroke-miterlimit="10" width="5.02" height="5.027"/>
					
						<rect x="20.448" y="145.951" fill="#D0E7F9" stroke="#4F5877" stroke-width="0.749" stroke-miterlimit="10" width="5.02" height="5.027"/>
				</g>
				<g>
					
						<rect x="30.268" y="135.115" fill="#D0E7F9" stroke="#4F5877" stroke-width="0.749" stroke-miterlimit="10" width="5.02" height="5.027"/>
					
						<rect x="30.268" y="145.951" fill="#D0E7F9" stroke="#4F5877" stroke-width="0.749" stroke-miterlimit="10" width="5.02" height="5.027"/>
				</g>
				<g>
					
						<rect x="44.909" y="135.115" fill="#D0E7F9" stroke="#4F5877" stroke-width="0.749" stroke-miterlimit="10" width="5.02" height="5.027"/>
					
						<rect x="44.909" y="145.951" fill="#D0E7F9" stroke="#4F5877" stroke-width="0.749" stroke-miterlimit="10" width="5.02" height="5.027"/>
				</g>
				<g>
					
						<rect x="56.012" y="135.115" fill="#D0E7F9" stroke="#4F5877" stroke-width="0.749" stroke-miterlimit="10" width="5.02" height="5.027"/>
					
						<rect x="56.012" y="145.951" fill="#D0E7F9" stroke="#4F5877" stroke-width="0.749" stroke-miterlimit="10" width="5.02" height="5.027"/>
				</g>
				<g>
					
						<rect x="67.599" y="135.115" fill="#D0E7F9" stroke="#4F5877" stroke-width="0.749" stroke-miterlimit="10" width="5.02" height="5.027"/>
					
						<rect x="67.599" y="145.951" fill="#D0E7F9" stroke="#4F5877" stroke-width="0.749" stroke-miterlimit="10" width="5.02" height="5.027"/>
				</g>
				<g>
					
						<rect x="88.743" y="135.115" fill="#D0E7F9" stroke="#4F5877" stroke-width="0.749" stroke-miterlimit="10" width="5.021" height="5.027"/>
					
						<rect x="88.743" y="145.951" fill="#D0E7F9" stroke="#4F5877" stroke-width="0.749" stroke-miterlimit="10" width="5.021" height="5.027"/>
				</g>
				<g>
					
						<rect x="116.405" y="129.004" fill="#D0E7F9" stroke="#4F5877" stroke-width="0.749" stroke-miterlimit="10" width="5.021" height="5.029"/>
				</g>
				<g>
					
						<rect x="116.405" y="135.941" fill="#D0E7F9" stroke="#4F5877" stroke-width="0.749" stroke-miterlimit="10" width="5.021" height="5.027"/>
					
						<rect x="116.405" y="143.293" fill="#D0E7F9" stroke="#4F5877" stroke-width="0.749" stroke-miterlimit="10" width="5.021" height="5.029"/>
				</g>
				<g>
					
						<rect x="152.018" y="133.426" fill="#D0E7F9" stroke="#4F5877" stroke-width="0.749" stroke-miterlimit="10" width="5.021" height="5.029"/>
				</g>
				<g>
					
						<rect x="144.998" y="133.426" fill="#D0E7F9" stroke="#4F5877" stroke-width="0.749" stroke-miterlimit="10" width="5.021" height="5.029"/>
					
						<rect x="137.657" y="133.426" fill="#D0E7F9" stroke="#4F5877" stroke-width="0.749" stroke-miterlimit="10" width="5.021" height="5.029"/>
				</g>
				<g>
					
						<rect x="151.923" y="142.658" fill="#D0E7F9" stroke="#4F5877" stroke-width="0.749" stroke-miterlimit="10" width="5.021" height="5.027"/>
				</g>
				<g>
					
						<rect x="144.998" y="142.658" fill="#D0E7F9" stroke="#4F5877" stroke-width="0.749" stroke-miterlimit="10" width="5.021" height="5.027"/>
					
						<rect x="137.657" y="142.658" fill="#D0E7F9" stroke="#4F5877" stroke-width="0.749" stroke-miterlimit="10" width="5.021" height="5.027"/>
				</g>
			</g>
		</g>
		<g>
			<polygon fill="#F9D1C5" stroke="#4F5877" stroke-width="0.9987" stroke-miterlimit="10" points="147.363,130.484 133.52,149.48 
				133.52,149.365 126.654,142.547 126.474,142.547 126.474,135.916 121.401,135.916 121.401,139.365 104.009,139.365 
				104.009,135.916 98.936,135.916 98.936,142.547 98.756,142.547 89.999,149.365 89.999,149.48 76.154,136.99 62.311,149.48 
				62.311,142.311 51.465,125.443 40.62,142.311 40.62,149.48 27.855,136.99 15.092,149.48 15.092,169.93 40.62,169.93 
				62.311,169.93 89.999,169.93 133.52,169.93 161.207,169.93 161.207,149.48 			"/>
			<g>
				
					<rect x="19.91" y="156.492" fill="none" stroke="#4F5877" stroke-width="0.749" stroke-miterlimit="10" width="5.021" height="5.027"/>
				
					<rect x="30.729" y="156.492" fill="none" stroke="#4F5877" stroke-width="0.749" stroke-miterlimit="10" width="5.021" height="5.027"/>
				<g>
					
						<rect x="48.955" y="146.721" fill="none" stroke="#4F5877" stroke-width="0.749" stroke-miterlimit="10" width="5.02" height="5.027"/>
					
						<rect x="48.955" y="157.559" fill="none" stroke="#4F5877" stroke-width="0.749" stroke-miterlimit="10" width="5.02" height="5.027"/>
				</g>
				<g>
					
						<rect x="68.749" y="149.625" fill="none" stroke="#4F5877" stroke-width="0.749" stroke-miterlimit="10" width="5.021" height="5.029"/>
					
						<rect x="68.749" y="160.461" fill="none" stroke="#4F5877" stroke-width="0.749" stroke-miterlimit="10" width="5.021" height="5.027"/>
				</g>
				<g>
					
						<rect x="78.57" y="149.625" fill="none" stroke="#4F5877" stroke-width="0.749" stroke-miterlimit="10" width="5.02" height="5.029"/>
					
						<rect x="78.57" y="160.461" fill="none" stroke="#4F5877" stroke-width="0.749" stroke-miterlimit="10" width="5.02" height="5.027"/>
				</g>
				<g>
					
						<rect x="98.795" y="149.625" fill="none" stroke="#4F5877" stroke-width="0.749" stroke-miterlimit="10" width="5.02" height="5.029"/>
					
						<rect x="98.795" y="160.461" fill="none" stroke="#4F5877" stroke-width="0.749" stroke-miterlimit="10" width="5.02" height="5.027"/>
				</g>
				<g>
					
						<rect x="109.898" y="149.625" fill="none" stroke="#4F5877" stroke-width="0.749" stroke-miterlimit="10" width="5.02" height="5.029"/>
					
						<rect x="109.898" y="160.461" fill="none" stroke="#4F5877" stroke-width="0.749" stroke-miterlimit="10" width="5.02" height="5.027"/>
				</g>
				<g>
					
						<rect x="121.483" y="149.625" fill="none" stroke="#4F5877" stroke-width="0.749" stroke-miterlimit="10" width="5.021" height="5.029"/>
					
						<rect x="121.483" y="160.461" fill="none" stroke="#4F5877" stroke-width="0.749" stroke-miterlimit="10" width="5.021" height="5.027"/>
				</g>
				<g>
					
						<rect x="144.753" y="147.205" fill="none" stroke="#4F5877" stroke-width="0.749" stroke-miterlimit="10" width="5.02" height="5.031"/>
				</g>
				<g>
					
						<rect x="144.753" y="154.143" fill="none" stroke="#4F5877" stroke-width="0.749" stroke-miterlimit="10" width="5.02" height="5.027"/>
					
						<rect x="144.753" y="161.492" fill="none" stroke="#4F5877" stroke-width="0.749" stroke-miterlimit="10" width="5.02" height="5.031"/>
				</g>
			</g>
		</g>
		
			<ellipse fill="#FBE8A4" stroke="#4F5877" stroke-width="0.9987" stroke-miterlimit="10" cx="137.657" cy="40.229" rx="16.632" ry="16.657"/>
		<g>
			
				<line fill="none" stroke="#4F5877" stroke-width="0.5592" stroke-miterlimit="10" x1="44.383" y1="57.305" x2="56.572" y2="83.761"/>
			
				<line fill="none" stroke="#4F5877" stroke-width="0.5592" stroke-miterlimit="10" x1="75.865" y1="81.017" x2="81.421" y2="52.037"/>
			
				<polygon fill="#FEEAA2" stroke="#4F5877" stroke-width="0.4993" stroke-linecap="round" stroke-linejoin="round" stroke-miterlimit="10" points="
				72.518,92.833 63.271,94.148 56.572,83.761 75.865,81.017 			"/>
			<g>
				
					<rect x="64.767" y="97.543" transform="matrix(0.9898 -0.1425 0.1425 0.9898 -13.7618 10.874)" fill="#E95424" width="8.582" height="7.998"/>
				
					<rect x="67.002" y="97.558" transform="matrix(0.9898 -0.1427 0.1427 0.9898 -13.6203 10.8581)" fill="#F7F7F8" stroke="#4F5877" stroke-width="0.2497" stroke-miterlimit="10" width="3.736" height="5.606"/>
				
					<rect x="65.462" y="105.482" transform="matrix(-0.9898 0.1427 -0.1427 -0.9898 153.9507 201.611)" fill="#FAB585" stroke="#4F5877" stroke-width="0.2497" stroke-miterlimit="10" width="8.568" height="1.689"/>
			</g>
			<g>
				<g>
					
						<line fill="none" stroke="#4F5877" stroke-width="0.5592" stroke-miterlimit="10" x1="60.752" y1="67.178" x2="60.839" y2="67.787"/>
					
						<line fill="none" stroke="#4F5877" stroke-width="0.5592" stroke-miterlimit="10" stroke-dasharray="1.248,0.832,1.248,0.832" x1="60.956" y1="68.611" x2="61.481" y2="72.318"/>
					
						<line fill="none" stroke="#4F5877" stroke-width="0.5592" stroke-miterlimit="10" stroke-dasharray="1.248,0.832,1.248,0.832,1.248,0.832" x1="61.54" y1="72.729" x2="64.985" y2="97.031"/>
					
						<line fill="none" stroke="#4F5877" stroke-width="0.5592" stroke-miterlimit="10" x1="65.043" y1="97.443" x2="65.13" y2="98.053"/>
				</g>
			</g>
			<g>
				<g>
					
						<line fill="none" stroke="#4F5877" stroke-width="0.5592" stroke-miterlimit="10" x1="67.723" y1="66.187" x2="67.81" y2="66.795"/>
					
						<line fill="none" stroke="#4F5877" stroke-width="0.5592" stroke-miterlimit="10" stroke-dasharray="1.248,0.832,1.248,0.832" x1="67.926" y1="67.619" x2="68.452" y2="71.326"/>
					
						<line fill="none" stroke="#4F5877" stroke-width="0.5592" stroke-miterlimit="10" stroke-dasharray="1.248,0.832,1.248,0.832,1.248,0.832" x1="68.51" y1="71.738" x2="71.956" y2="96.039"/>
					
						<line fill="none" stroke="#4F5877" stroke-width="0.5592" stroke-miterlimit="10" x1="72.014" y1="96.451" x2="72.101" y2="97.061"/>
				</g>
			</g>
			<path fill="#B6ACF3" d="M81.837,43.549c1.583,11.17-6.173,21.508-17.324,23.096c-11.151,1.584-21.475-6.183-23.058-17.353
				c-1.583-11.17,6.172-21.508,17.323-23.095C69.929,24.612,80.253,32.38,81.837,43.549z"/>
			<g>
				
					<line fill="none" stroke="#4F5877" stroke-width="0.4993" stroke-miterlimit="10" x1="41.25" y1="46.205" x2="81.208" y2="40.52"/>
				
					<line fill="none" stroke="#4F5877" stroke-width="0.4993" stroke-miterlimit="10" x1="42.227" y1="52.67" x2="82.125" y2="46.994"/>
				<g>
					<circle fill="none" stroke="#4F5877" stroke-width="0.4993" stroke-miterlimit="10" cx="73.266" cy="44.887" r="2.846"/>
					
						<ellipse transform="matrix(0.99 -0.1408 0.1408 0.99 -5.3913 11.5586)" fill="none" stroke="#4F5877" stroke-width="0.4993" stroke-miterlimit="10" cx="79.011" cy="43.89" rx="2.846" ry="2.852"/>
					
						<ellipse transform="matrix(0.9901 -0.1406 0.1406 0.9901 -5.7562 9.9445)" fill="none" stroke="#4F5877" stroke-width="0.4993" stroke-miterlimit="10" cx="67.497" cy="45.708" rx="2.846" ry="2.851"/>
					<circle fill="none" stroke="#4F5877" stroke-width="0.4993" stroke-miterlimit="10" cx="61.708" cy="46.531" r="2.846"/>
					<circle fill="none" stroke="#4F5877" stroke-width="0.4993" stroke-miterlimit="10" cx="49.987" cy="48.29" r="2.846"/>
					
						<ellipse transform="matrix(0.9901 -0.1407 0.1407 0.9901 -6.0995 8.312)" fill="none" stroke="#4F5877" stroke-width="0.4993" stroke-miterlimit="10" cx="55.732" cy="47.291" rx="2.846" ry="2.851"/>
					<circle fill="none" stroke="#4F5877" stroke-width="0.4993" stroke-miterlimit="10" cx="44.22" cy="49.11" r="2.846"/>
				</g>
			</g>
			
				<line fill="none" stroke="#FFFFFF" stroke-width="0.9987" stroke-miterlimit="10" stroke-dasharray="0.5767,0.3845,0.5767,0.3845,0.5767,0.3845" x1="41.49" y1="43.273" x2="80.163" y2="37.771"/>
			
				<line fill="none" stroke="#FFFFFF" stroke-width="0.9987" stroke-miterlimit="10" stroke-dasharray="0.5767,0.3845,0.5767,0.3845,0.5767,0.3845" x1="43.169" y1="54.908" x2="81.843" y2="49.407"/>
			
				<line fill="none" stroke="#4F5877" stroke-width="0.9987" stroke-miterlimit="10" x1="42.999" y1="38.146" x2="77.116" y2="33.293"/>
			
				<line fill="none" stroke="#4F5877" stroke-width="0.9987" stroke-miterlimit="10" x1="46.109" y1="59.25" x2="80.226" y2="54.398"/>
			<path fill="none" stroke="#4F5877" stroke-width="0.9987" stroke-miterlimit="10" d="M81.837,43.549
				c1.583,11.17-6.173,21.508-17.324,23.096c-11.151,1.584-21.475-6.183-23.058-17.353c-1.583-11.17,6.172-21.508,17.323-23.095
				C69.929,24.612,80.253,32.38,81.837,43.549z"/>
			<polygon fill="none" stroke="#4F5877" stroke-width="0.4993" stroke-miterlimit="10" points="74.105,106.551 73.867,104.891 
				73.875,104.889 72.736,96.971 64.241,98.195 65.38,106.111 65.387,106.111 65.626,107.773 			"/>
		</g>
	</g>
	<g>
		<g>
			<g>
				<rect x="236.821" y="14.284" fill="#D0E7F9" width="146.056" height="155.429"/>
				<path fill="none" stroke="#4F5877" stroke-width="0.9987" stroke-miterlimit="10" d="M397.787,53.874l0.213-6.93
					c-3.027,0-5.566-1.961-6.494-4.677v-4.453c0.928-2.711,3.467-4.673,6.494-4.673l-0.072-5.899c-2.938,0-5.428-1.845-6.422-4.435
					V17.88c0.994-2.591,3.484-4.44,6.422-4.44l0.068-6.021h-6.49v-7l-7.169,0.068c0,3.812-2.985,6.905-6.667,6.905
					c-3.68,0-6.66-3.092-6.66-6.905l-5.694-0.068c0,3.812-2.98,6.904-6.662,6.904s-6.665-3.092-6.665-6.904L345.3,0.138
					c0,3.81-2.986,6.902-6.666,6.902c-3.682,0-6.667-3.092-6.667-6.902l-5.688,0.141c0,3.81-2.981,6.902-6.663,6.902
					c-3.684,0-6.666-3.092-6.666-6.902l-7.56,0.068c0,3.815-2.984,6.904-6.666,6.904s-6.665-3.089-6.665-6.904l-5.688-0.137
					c0,3.814-2.983,6.902-6.665,6.902c-3.68,0-6.666-3.088-6.666-6.902L266.353,0c0,3.812-2.984,6.901-6.669,6.901
					c-3.676,0-6.658-3.089-6.658-6.901l-5.695,0.07c0,3.812-2.979,6.905-6.661,6.905c-3.68,0-6.665-3.093-6.665-6.905l-5.812-0.069
					v7.418h-6.49l0.068,6.021c2.938,0,5.428,1.846,6.422,4.436v4.932c-0.994,2.589-3.484,4.434-6.422,4.434l-0.07,5.899
					c3.025,0,5.562,1.962,6.492,4.67v4.456c-0.93,2.715-3.467,4.677-6.492,4.677l0.211,6.93c2.805,0,5.204,1.683,6.281,4.089v5.629
					c-1.077,2.406-3.477,4.088-6.281,4.088l0.137,5.891c2.699,0,5.015,1.569,6.145,3.833v6.143c-1.13,2.264-3.445,3.831-6.145,3.831
					l-0.068,7.833c2.752,0,5.108,1.627,6.213,3.963v5.881c-1.104,2.336-3.461,3.961-6.213,3.961l-0.141,5.893
					c2.857,0,5.31,1.744,6.354,4.229v5.354c-1.044,2.48-3.496,4.229-6.354,4.229l0.281,6.928c2.646,0,4.917,1.508,6.072,3.701v6.404
					c-1.155,2.189-3.426,3.699-6.072,3.699l0.067,5.896c2.597,0,4.83,1.453,6.005,3.572v6.654c-1.175,2.123-3.408,3.578-6.005,3.578
					l-0.065,7.426h6.07v7.418l5.812-0.068c0-3.812,2.985-6.906,6.665-6.906c3.682,0,6.661,3.094,6.661,6.906l5.695,0.07
					c0-3.812,2.982-6.9,6.658-6.9c3.685,0,6.669,3.088,6.669,6.9l6.688-0.209c0-3.816,2.986-6.904,6.666-6.904
					c3.682,0,6.665,3.088,6.665,6.904l5.688-0.139c0-3.814,2.983-6.904,6.665-6.904s6.666,3.09,6.666,6.904l7.56,0.068
					c0-3.811,2.982-6.902,6.666-6.902c3.682,0,6.663,3.092,6.663,6.902l5.688,0.141c0-3.811,2.985-6.902,6.667-6.902
					c3.68,0,6.666,3.092,6.666,6.902l6.688-0.281c0-3.812,2.983-6.904,6.665-6.904s6.662,3.092,6.662,6.904l5.694-0.068
					c0-3.812,2.98-6.904,6.66-6.904c3.682,0,6.667,3.092,6.667,6.904l7.169,0.068v-7h6.072l-0.068-7.426
					c-2.596,0-4.827-1.455-6.004-3.58v-6.652c1.177-2.119,3.408-3.572,6.004-3.572l0.07-5.896c-2.646,0-4.919-1.51-6.074-3.701
					v-6.402c1.155-2.191,3.428-3.701,6.074-3.701l0.281-6.928c-2.859,0-5.312-1.748-6.355-4.23v-5.35
					c1.044-2.486,3.496-4.23,6.355-4.23l-0.143-5.893c-2.752,0-5.108-1.625-6.213-3.961v-5.879c1.104-2.338,3.461-3.965,6.213-3.965
					l-0.068-7.833c-2.699,0-5.015-1.569-6.145-3.833v-6.139c1.13-2.265,3.445-3.834,6.145-3.834l0.137-5.891
					c-2.805,0-5.206-1.682-6.281-4.09v-5.625C392.581,55.558,394.982,53.874,397.787,53.874z"/>
				
					<rect x="236.821" y="14.284" fill="none" stroke="#4F5877" stroke-width="1.9973" stroke-miterlimit="10" width="146.056" height="155.429"/>
			</g>
			<path fill="#FFFFFF" stroke="#4F5877" stroke-width="0.9987" stroke-miterlimit="10" d="M255.451,34.156
				c0.718,0,1.403,0.127,2.074,0.309c1.552-4.81,6.05-8.284,11.366-8.284c6.594,0,11.943,5.354,11.943,11.963
				c0,6.227-4.737,11.332-10.803,11.909v0.058h-14.581c-4.404,0-7.972-3.572-7.972-7.978
				C247.479,37.724,251.047,34.156,255.451,34.156z"/>
		</g>
		
			<rect x="237.821" y="160.338" fill="#BEF0CD" stroke="#4F5877" stroke-width="0.9987" stroke-miterlimit="10" width="144.068" height="8.244"/>
		
			<ellipse fill="#82E499" stroke="#4F5877" stroke-width="0.749" stroke-miterlimit="10" cx="333.958" cy="164.791" rx="32.93" ry="2.643"/>
		<g>
			<g>
				<path fill="#C7C9CA" stroke="#4F5877" stroke-width="0.9987" stroke-miterlimit="10" d="M351.456,48.312l-58.317,0.197
					c-6.54,1.104-11.545,7.148-11.545,14.462v30.534h11.545h15.836h28.79h27.381V62.972
					C365.146,54.875,359.017,48.312,351.456,48.312z"/>
				
					<path fill="#FACBC1" stroke="#4F5877" stroke-width="0.9987" stroke-linecap="round" stroke-linejoin="round" stroke-miterlimit="10" d="
					M345.5,41.658v-9.576h-10.705h-7.077v9.576v34.277h0.025c0.247,3.898,3.475,6.989,7.434,6.989c4.118,0,7.456-3.344,7.456-7.469
					c0-4.125-3.338-7.469-7.456-7.469c-0.131,0-0.256,0.012-0.382,0.02V41.658H345.5z"/>
				<path fill="#B4B7B9" stroke="#4F5877" stroke-width="0.9987" stroke-miterlimit="10" d="M280.835,93.506V62.972
					c0-8.097,7.104-14.66,15.871-14.66l0,0c8.763,0,15.868,6.562,15.868,14.66v30.534H280.835z"/>
				<path fill="#E0E1E2" stroke="#4F5877" stroke-width="0.9987" stroke-linejoin="round" stroke-miterlimit="10" d="
					M260.474,93.506v-4.94c0-1.311,11.663-2.374,26.058-2.374l0,0c14.386,0,26.054,1.063,26.054,2.374v4.94H260.474z"/>
			</g>
			
				<rect x="331.877" y="93.506" fill="#9E9FA1" stroke="#4F5877" stroke-width="0.9987" stroke-miterlimit="10" width="4.157" height="72.725"/>
		</g>
	</g>
	<path fill="#FFFFFF" stroke="#4F5877" stroke-width="0.9987" stroke-miterlimit="10" d="M120.501,85.325
		c0.369,0,0.721,0.064,1.066,0.158c0.797-2.472,3.109-4.257,5.841-4.257c3.388,0,6.138,2.751,6.138,6.148
		c0,3.2-2.435,5.823-5.552,6.118v0.031h-7.493c-2.263,0-4.096-1.837-4.096-4.102S118.238,85.325,120.501,85.325z"/>
	<path fill="#FFFFFF" stroke="#4F5877" stroke-width="0.9987" stroke-miterlimit="10" d="M133.385,86.018
		c-0.617-2.739-3.054-4.792-5.978-4.792c-1.099,0-2.12,0.301-3.01,0.805c-0.348-0.805-0.548-1.689-0.548-2.623
		c0-3.654,2.954-6.612,6.599-6.612c0.6,0,1.168,0.104,1.72,0.254c1.286-3.984,5.017-6.866,9.422-6.866c5.465,0,9.9,4.441,9.9,9.917
		c0,5.16-3.931,9.392-8.953,9.872v0.045H133.385z"/>
</g>
</svg>
