<?xml version="1.0" encoding="utf-8"?>
<!-- Generator: Adobe Illustrator 15.1.0, SVG Export Plug-In . SVG Version: 6.00 Build 0)  -->
<!DOCTYPE svg PUBLIC "-//W3C//DTD SVG 1.1//EN" "http://www.w3.org/Graphics/SVG/1.1/DTD/svg11.dtd">
<svg version="1.1" id="Capa_1" xmlns="http://www.w3.org/2000/svg" xmlns:xlink="http://www.w3.org/1999/xlink" x="0px" y="0px"
	 width="398px" height="184px" viewBox="0 0 398 184" enable-background="new 0 0 398 184" xml:space="preserve">
<g>
	<g>
		<g>
			<rect x="236.328" y="13.201" fill="#82E499" width="146.504" height="154.506"/>
			<path fill="none" stroke="#4F5877" stroke-width="0.9972" stroke-miterlimit="10" d="M397.787,52.554L398,45.667
				c-3.036,0-5.583-1.952-6.514-4.651V36.59c0.931-2.694,3.478-4.646,6.514-4.646l-0.072-5.862c-2.946,0-5.444-1.833-6.441-4.411
				v-4.898c0.997-2.577,3.495-4.415,6.441-4.415l0.068-5.984h-6.51v-6.957l-7.19,0.069c0,3.79-2.995,6.861-6.688,6.861
				c-3.691,0-6.681-3.072-6.681-6.861l-5.712-0.07c0,3.792-2.989,6.863-6.683,6.863c-3.692,0-6.686-3.072-6.686-6.863l-6.709-0.28
				c0,3.79-2.995,6.863-6.687,6.863c-3.692,0-6.688-3.073-6.688-6.863l-5.705,0.14c0,3.788-2.991,6.862-6.684,6.862
				c-3.695,0-6.686-3.074-6.686-6.862l-7.584,0.068c0,3.792-2.993,6.866-6.686,6.866c-3.693,0-6.686-3.074-6.686-6.866l-5.705-0.135
				c0,3.792-2.993,6.861-6.686,6.861c-3.691,0-6.687-3.07-6.687-6.861L265.949-1c0,3.791-2.993,6.86-6.689,6.86
				c-3.688,0-6.679-3.069-6.679-6.86l-5.712,0.071c0,3.79-2.989,6.864-6.683,6.864c-3.69,0-6.686-3.074-6.686-6.864l-5.83-0.07
				v7.374h-6.51l0.068,5.984c2.946,0,5.444,1.838,6.441,4.412v4.903c-0.997,2.576-3.495,4.409-6.441,4.409l-0.07,5.862
				c3.034,0,5.579,1.952,6.512,4.644v4.43c-0.933,2.697-3.478,4.649-6.512,4.649l0.211,6.887c2.813,0,5.22,1.673,6.301,4.065v5.596
				c-1.081,2.391-3.487,4.065-6.301,4.065l0.138,5.857c2.707,0,5.029,1.557,6.163,3.808v6.106c-1.134,2.249-3.456,3.809-6.163,3.809
				l-0.069,7.785c2.761,0,5.124,1.617,6.232,3.939v5.847c-1.108,2.321-3.472,3.938-6.232,3.938l-0.141,5.856
				c2.866,0,5.325,1.734,6.373,4.203v5.324c-1.048,2.466-3.507,4.201-6.373,4.201l0.282,6.887c2.654,0,4.932,1.503,6.091,3.681
				v6.365c-1.159,2.179-3.437,3.677-6.091,3.677l0.068,5.862c2.604,0,4.844,1.443,6.022,3.551v6.616
				c-1.179,2.11-3.419,3.558-6.022,3.558l-0.066,7.38h6.089v7.377l5.83-0.071c0-3.79,2.995-6.863,6.686-6.863
				c3.693,0,6.683,3.073,6.683,6.863l5.712,0.072c0-3.792,2.991-6.861,6.679-6.861c3.696,0,6.689,3.069,6.689,6.861l6.709-0.21
				c0-3.792,2.995-6.861,6.687-6.861c3.692,0,6.686,3.069,6.686,6.861l5.705-0.136c0-3.792,2.992-6.865,6.686-6.865
				c3.692,0,6.686,3.073,6.686,6.865l7.584,0.068c0-3.79,2.99-6.862,6.686-6.862c3.692,0,6.684,3.072,6.684,6.862l5.705,0.14
				c0-3.79,2.995-6.864,6.688-6.864c3.691,0,6.687,3.074,6.687,6.864l6.709-0.28c0-3.791,2.993-6.865,6.686-6.865
				c3.693,0,6.683,3.074,6.683,6.865l5.712-0.069c0-3.79,2.989-6.863,6.681-6.863c3.692,0,6.688,3.073,6.688,6.863l7.19,0.067
				v-6.958h6.092l-0.068-7.38c-2.604,0-4.843-1.447-6.023-3.558v-6.614c1.181-2.109,3.419-3.553,6.023-3.553l0.07-5.862
				c-2.655,0-4.935-1.5-6.094-3.677v-6.365c1.159-2.178,3.438-3.681,6.094-3.681l0.281-6.887c-2.868,0-5.327-1.735-6.375-4.205
				v-5.316c1.048-2.473,3.507-4.207,6.375-4.207l-0.143-5.856c-2.761,0-5.124-1.616-6.232-3.939v-5.843
				c1.108-2.324,3.472-3.941,6.232-3.941l-0.068-7.785c-2.708,0-5.03-1.56-6.164-3.811v-6.103c1.134-2.251,3.456-3.81,6.164-3.81
				l0.137-5.857c-2.813,0-5.222-1.675-6.301-4.067v-5.59C392.565,54.229,394.974,52.554,397.787,52.554z"/>
			
				<rect x="236.328" y="13.201" fill="none" stroke="#4F5877" stroke-width="1.9944" stroke-miterlimit="10" width="146.504" height="154.506"/>
		</g>
		<g>
			<path fill="#FEEAA2" stroke="#4F5877" stroke-width="1.9944" stroke-miterlimit="10" d="M255.551,125.797
				c0.226,1.636,0.477,3.234,0.757,4.789c0.014,0.512-0.084,0.885-0.298,1.121c-0.212,0.233-0.721,0.407-1.53,0.522
				c-0.827,0.058-1.633,0.112-2.411,0.169c-0.779,0.056-1.501,0.022-2.159-0.092c-0.658-0.112-1.207-0.354-1.645-0.722
				c-0.437-0.367-0.698-0.959-0.785-1.771c0.021-0.785-0.144-2.04-0.497-3.762c-0.353-1.728-0.805-3.666-1.358-5.823
				c-0.552-2.16-1.133-4.399-1.738-6.714c-0.609-2.319-1.156-4.46-1.643-6.429c-0.488-1.972-0.847-3.637-1.073-4.999
				c-0.229-1.364-0.221-2.167,0.021-2.41c0.907-0.956,1.924-1.978,3.049-3.056c1.124-1.081,2.314-2.117,3.568-3.113
				c1.252-0.993,2.543-1.903,3.87-2.729c1.329-0.825,2.657-1.482,3.989-1.97c1.33-0.485,2.63-0.759,3.897-0.821
				c1.266-0.06,2.463,0.171,3.589,0.691c1.373,0.763,2.694,1.63,3.961,2.606c1.267,0.974,2.45,2.293,3.548,3.958
				c0.515,0.828,0.856,1.647,1.025,2.466c0.17,0.815,0.207,1.628,0.112,2.438c-0.096,0.81-0.287,1.618-0.576,2.43
				c-0.289,0.809-0.637,1.624-1.037,2.44c-0.651,1.322-1.506,2.685-2.569,4.083c-1.065,1.399-2.273,2.783-3.625,4.152
				c-1.351,1.366-2.812,2.683-4.379,3.943c-1.567,1.266-3.146,2.428-4.734,3.487C255.103,122.453,255.325,124.155,255.551,125.797z
				 M258.534,107.663c1.218-1.467,2.15-2.874,2.796-4.209c0.645-1.337,1.011-2.536,1.1-3.604c0.087-1.063-0.098-1.874-0.551-2.434
				c-0.207-0.316-0.614-0.479-1.22-0.483c-0.604,0-1.315,0.153-2.137,0.466c-0.823,0.312-1.709,0.761-2.665,1.347
				c-0.954,0.584-1.891,1.295-2.808,2.123c0.074,1.724,0.19,3.497,0.351,5.319c0.158,1.821,0.336,3.72,0.53,5.693
				C255.78,110.539,257.314,109.132,258.534,107.663z"/>
			<path fill="#FEEAA2" stroke="#4F5877" stroke-width="1.9944" stroke-miterlimit="10" d="M296.171,81.847
				c0.856,0.823,1.62,1.832,2.296,3.027c1.054,2.002,1.921,4.271,2.604,6.801c0.683,2.536,1.105,5.144,1.269,7.823
				c0.163,2.676,0.029,5.304-0.398,7.879c-0.428,2.573-1.242,4.907-2.44,7.001c-0.854,1.294-1.871,2.312-3.05,3.056
				c-1.177,0.742-2.627,1.309-4.35,1.702c-1.147,0.262-2.348,0.47-3.6,0.623c-1.25,0.153-2.443,0.146-3.575-0.018
				c-0.928-0.136-1.881-0.394-2.859-0.769c-0.979-0.38-1.826-0.898-2.546-1.56c-1.159-1.091-2.207-2.416-3.14-3.977
				c-0.933-1.562-1.702-3.27-2.316-5.133c-0.611-1.862-1.048-3.826-1.307-5.887c-0.26-2.064-0.312-4.145-0.156-6.234
				c0.155-2.093,0.526-4.151,1.109-6.181c0.584-2.028,1.41-3.955,2.475-5.775c0.75-1.126,1.761-2.136,3.035-3.025
				c1.273-0.887,2.585-1.45,3.939-1.685c1.753-0.309,3.476-0.442,5.167-0.407c1.691,0.037,3.169,0.28,4.431,0.722
				C294.177,80.351,295.314,81.022,296.171,81.847z M285.43,88.039c-0.513,0.968-0.937,2.189-1.274,3.664
				c-0.337,1.473-0.573,3.068-0.713,4.785c-0.139,1.714-0.173,3.334-0.099,4.863c0.062,1.498,0.261,3.008,0.592,4.531
				c0.333,1.52,0.744,2.901,1.24,4.139c0.495,1.24,1.072,2.249,1.732,3.025c0.663,0.78,1.36,1.154,2.104,1.127
				c0.683-0.008,1.278-0.354,1.789-1.048c0.509-0.69,0.933-1.632,1.274-2.815c0.338-1.184,0.562-2.579,0.676-4.186
				c0.11-1.608,0.099-3.314-0.037-5.111c-0.092-1.487-0.305-3.089-0.639-4.807c-0.332-1.713-0.746-3.279-1.237-4.697
				c-0.502-1.45-1.068-2.637-1.702-3.57c-0.633-0.932-1.27-1.386-1.914-1.36C286.539,86.584,285.942,87.073,285.43,88.039z"/>
			<path fill="#FEEAA2" stroke="#4F5877" stroke-width="1.9944" stroke-miterlimit="10" d="M315.036,91.4
				c0.166-2.387,0.343-4.698,0.529-6.929c0.189-2.233,0.38-4.271,0.573-6.116c0.19-1.848,0.389-3.227,0.595-4.137
				c0.129-0.759,0.374-1.294,0.738-1.61c0.361-0.318,1-0.52,1.916-0.607c0.906-0.115,1.68-0.167,2.317-0.159
				c0.639,0.008,1.407,0.037,2.304,0.083c0.497,0.025,0.886,0.089,1.165,0.188c0.278,0.097,0.51,0.245,0.691,0.444
				c0.182,0.197,0.335,0.45,0.462,0.763c0.125,0.314,0.262,0.687,0.413,1.123c0.17,0.49,0.416,1.344,0.741,2.561
				c0.323,1.219,0.702,2.643,1.138,4.273c0.435,1.632,0.899,3.367,1.389,5.204c0.492,1.84,0.974,3.633,1.449,5.379
				c0.121-1.626,0.265-3.347,0.433-5.171c0.168-1.82,0.339-3.652,0.518-5.493c0.177-1.838,0.358-3.64,0.547-5.404
				c0.188-1.761,0.364-3.417,0.528-4.964c0.166-1.544,0.321-2.932,0.466-4.162c0.144-1.232,0.275-2.239,0.395-3.023
				c0.125-1.048,0.391-1.696,0.792-1.946c0.402-0.25,1.136-0.345,2.198-0.291c0.781,0.093,1.567,0.219,2.358,0.387
				c0.792,0.167,1.58,0.389,2.362,0.672c0.89,0.407,1.446,0.978,1.669,1.711c0.221,0.733,0.287,1.537,0.198,2.406
				c-0.268,1.584-0.541,3.376-0.824,5.383c-0.283,2.004-0.555,4.09-0.816,6.25c-0.264,2.16-0.519,4.358-0.771,6.596
				c-0.252,2.241-0.479,4.405-0.682,6.497c-0.206,2.091-0.397,4.059-0.573,5.901c-0.176,1.839-0.322,3.442-0.437,4.809
				c-0.102,0.647-0.373,1.131-0.817,1.445c-0.447,0.314-1.16,0.557-2.144,0.731c-0.556,0.091-1.04,0.153-1.453,0.181
				c-0.416,0.027-0.806,0.056-1.171,0.083c-0.365,0.029-0.734,0.049-1.103,0.061c-0.371,0.014-0.775,0.048-1.214,0.099
				c-0.917-0.008-1.638-0.205-2.163-0.596c-0.525-0.384-0.952-0.861-1.277-1.43c-0.299-0.578-0.665-1.281-1.097-2.102
				c-0.433-0.825-0.884-1.729-1.358-2.719c-0.472-0.987-0.945-1.997-1.418-3.033c-0.474-1.034-0.886-2.062-1.235-3.073
				c-0.23,1.504-0.456,3.06-0.679,4.674c-0.224,1.611-0.423,3.179-0.599,4.692c-0.177,1.518-0.333,2.925-0.471,4.217
				c-0.139,1.292-0.243,2.357-0.313,3.188c-0.147,0.7-0.403,1.166-0.761,1.4c-0.358,0.237-0.891,0.425-1.59,0.566
				c-0.953,0.165-1.884,0.282-2.789,0.348c-0.905,0.066-1.779,0.112-2.618,0.14c-0.778,0.01-1.391-0.13-1.831-0.415
				c-0.442-0.289-0.847-0.82-1.216-1.601c-0.645-1.108-1.328-2.402-2.056-3.887c-0.727-1.482-1.468-3.082-2.227-4.797
				c-0.786-1.801-1.59-3.697-2.409-5.684c-0.818-1.985-1.62-3.968-2.405-5.95c-0.785-1.981-1.525-3.929-2.22-5.844
				c-0.696-1.912-1.332-3.697-1.902-5.346c-0.293-0.936-0.324-1.591-0.094-1.958c0.23-0.373,0.849-0.615,1.852-0.729
				c1.157-0.138,2.218-0.233,3.177-0.285c0.961-0.051,1.894,0.01,2.803,0.182c0.528,0.114,0.987,0.311,1.381,0.6
				c0.394,0.287,0.728,0.617,1.005,0.991c0.277,0.375,0.507,0.781,0.691,1.223c0.185,0.436,0.328,0.849,0.43,1.235
				c0.231,0.763,0.562,1.878,0.99,3.351c0.429,1.471,0.914,3.109,1.458,4.916c0.545,1.805,1.129,3.675,1.753,5.615
				c0.622,1.94,1.236,3.778,1.838,5.515C314.71,95.993,314.868,93.787,315.036,91.4z"/>
			<path fill="#FEEAA2" stroke="#4F5877" stroke-width="1.9944" stroke-miterlimit="10" d="M350.341,93.493
				c0.092-0.63,0.336-1.212,0.735-1.755c0.399-0.542,0.954-0.99,1.661-1.345c0.709-0.355,1.573-0.561,2.598-0.621
				c0.858-0.066,1.602,0.012,2.232,0.233s1.145,0.526,1.538,0.908c0.393,0.384,0.678,0.803,0.854,1.262
				c0.174,0.457,0.264,0.88,0.268,1.269c0.002,0.289-0.057,0.657-0.18,1.104c-0.122,0.446-0.313,0.884-0.572,1.312
				c-0.26,0.429-0.605,0.838-1.041,1.229c-0.435,0.393-0.974,0.695-1.614,0.915c-1.362,0.496-2.651,0.535-3.875,0.11
				c-1.223-0.424-2.045-1.341-2.469-2.75C350.294,94.747,350.249,94.124,350.341,93.493z M356.866,56.165
				c0.374,0.47,0.566,1.141,0.575,2.012c-0.007,2.43,0.005,4.884,0.034,7.366c0.03,2.484,0.077,4.925,0.145,7.331
				c0.068,2.406,0.166,4.708,0.295,6.914c0.13,2.206,0.275,4.253,0.439,6.138c0.064,0.656-0.03,1.11-0.285,1.362
				c-0.257,0.247-0.75,0.4-1.481,0.454c-0.866,0.136-1.681,0.211-2.44,0.229c-0.761,0.018-1.517-0.025-2.268-0.124
				c-0.793-0.121-1.368-0.349-1.734-0.697c-0.363-0.345-0.618-0.96-0.763-1.851c-0.349-1.756-0.706-3.846-1.068-6.258
				c-0.367-2.418-0.703-4.917-1.01-7.498c-0.309-2.581-0.592-5.139-0.85-7.671c-0.259-2.531-0.462-4.811-0.608-6.834
				c-0.077-0.974,0.073-1.641,0.456-1.999c0.382-0.357,1.093-0.538,2.138-0.536c0.956-0.068,2.024-0.062,3.21,0.018
				c1.185,0.083,2.248,0.254,3.187,0.516C355.816,55.317,356.49,55.696,356.866,56.165z"/>
			<path fill="#FEEAA2" stroke="#4F5877" stroke-width="1.9944" stroke-miterlimit="10" d="M367.833,87.517
				c0.092-0.628,0.337-1.211,0.736-1.754c0.397-0.542,0.953-0.99,1.661-1.343c0.709-0.357,1.573-0.563,2.597-0.623
				c0.857-0.066,1.602,0.012,2.233,0.235c0.631,0.221,1.144,0.524,1.537,0.907s0.677,0.802,0.853,1.262
				c0.176,0.456,0.265,0.879,0.27,1.267c0.002,0.289-0.057,0.66-0.182,1.104c-0.122,0.446-0.312,0.883-0.57,1.314
				c-0.261,0.429-0.607,0.838-1.041,1.228c-0.435,0.392-0.976,0.695-1.615,0.914c-1.361,0.497-2.652,0.536-3.874,0.113
				c-1.223-0.425-2.046-1.343-2.472-2.752C367.786,88.773,367.741,88.15,367.833,87.517z M374.358,50.19
				c0.374,0.472,0.567,1.141,0.576,2.012c-0.007,2.43,0.005,4.886,0.034,7.366c0.029,2.483,0.076,4.927,0.145,7.331
				c0.066,2.407,0.164,4.71,0.293,6.914c0.131,2.208,0.276,4.254,0.44,6.138c0.064,0.656-0.03,1.11-0.285,1.362
				c-0.257,0.25-0.75,0.402-1.48,0.454c-0.868,0.136-1.681,0.211-2.441,0.229s-1.517-0.025-2.267-0.122
				c-0.794-0.121-1.37-0.35-1.735-0.699c-0.363-0.345-0.618-0.96-0.763-1.849c-0.348-1.755-0.705-3.846-1.069-6.26
				c-0.365-2.417-0.701-4.915-1.01-7.498c-0.308-2.581-0.591-5.138-0.849-7.67c-0.26-2.532-0.462-4.811-0.607-6.834
				c-0.078-0.974,0.073-1.642,0.454-1.999c0.383-0.357,1.094-0.536,2.138-0.536c0.957-0.068,2.025-0.062,3.21,0.02
				c1.187,0.082,2.25,0.252,3.188,0.514C373.308,49.342,373.983,49.721,374.358,50.19z"/>
		</g>
	</g>
	<g>
		<g>
			<rect x="15.168" y="14.292" fill="#B6ACF3" width="146.504" height="154.504"/>
			<path fill="none" stroke="#4F5877" stroke-width="0.9972" stroke-miterlimit="10" d="M176.628,53.645l0.212-6.887
				c-3.036,0-5.583-1.952-6.514-4.651v-4.425c0.93-2.696,3.478-4.646,6.514-4.646l-0.072-5.862c-2.945,0-5.445-1.833-6.441-4.411
				v-4.897c0.997-2.577,3.496-4.415,6.441-4.415l0.069-5.984h-6.511V0.509l-7.19,0.068c0,3.789-2.995,6.861-6.688,6.861
				c-3.691,0-6.68-3.073-6.68-6.861l-5.712-0.069c0,3.791-2.988,6.862-6.682,6.862c-3.693,0-6.685-3.072-6.685-6.862l-6.71-0.28
				c0,3.79-2.995,6.863-6.686,6.863c-3.693,0-6.688-3.074-6.688-6.863l-5.704,0.14c0,3.788-2.99,6.862-6.683,6.862
				c-3.696,0-6.686-3.074-6.686-6.862l-7.584,0.068c0,3.792-2.993,6.865-6.686,6.865s-6.686-3.074-6.686-6.865L64.871,0.3
				c0,3.791-2.993,6.861-6.686,6.861c-3.69,0-6.686-3.07-6.686-6.861l-6.709-0.21c0,3.792-2.993,6.862-6.689,6.862
				c-3.687,0-6.679-3.07-6.679-6.862l-5.712,0.072c0,3.79-2.989,6.864-6.682,6.864c-3.691,0-6.686-3.074-6.686-6.864l-5.83-0.07
				v7.375h-6.51l0.069,5.984c2.945,0,5.443,1.837,6.44,4.411v4.904c-0.997,2.575-3.496,4.409-6.44,4.409L0,33.035
				c3.034,0,5.58,1.951,6.512,4.644v4.43C5.58,44.806,3.034,46.758,0,46.758l0.211,6.887c2.813,0,5.221,1.672,6.301,4.065v5.597
				c-1.08,2.391-3.487,4.066-6.301,4.066l0.137,5.855c2.709,0,5.03,1.558,6.164,3.809v6.107c-1.134,2.251-3.455,3.809-6.164,3.809
				l-0.068,7.785c2.761,0,5.124,1.616,6.232,3.939v5.847c-1.108,2.32-3.472,3.937-6.232,3.937l-0.141,5.856
				c2.866,0,5.325,1.735,6.373,4.203v5.325c-1.048,2.466-3.507,4.201-6.373,4.201l0.281,6.887c2.655,0,4.932,1.503,6.092,3.681
				v6.364c-1.16,2.18-3.437,3.678-6.092,3.678l0.069,5.862c2.604,0,4.843,1.443,6.022,3.551v6.616
				c-1.179,2.11-3.419,3.556-6.022,3.556l-0.067,7.382h6.09v7.376l5.83-0.07c0-3.79,2.995-6.863,6.686-6.863
				c3.693,0,6.682,3.073,6.682,6.863L31.421,183c0-3.792,2.992-6.862,6.679-6.862c3.696,0,6.689,3.07,6.689,6.862l6.709-0.21
				c0-3.792,2.996-6.86,6.686-6.86c3.693,0,6.686,3.068,6.686,6.86l5.705-0.136c0-3.792,2.993-6.865,6.686-6.865
				s6.686,3.073,6.686,6.865l7.584,0.068c0-3.79,2.99-6.862,6.686-6.862c3.693,0,6.683,3.072,6.683,6.862l5.704,0.139
				c0-3.787,2.995-6.863,6.688-6.863c3.691,0,6.686,3.076,6.686,6.863l6.71-0.279c0-3.791,2.992-6.865,6.685-6.865
				c3.694,0,6.682,3.074,6.682,6.865l5.712-0.069c0-3.79,2.989-6.863,6.68-6.863c3.693,0,6.688,3.073,6.688,6.863l7.19,0.067v-6.958
				h6.091l-0.068-7.382c-2.603,0-4.842-1.445-6.023-3.556v-6.614c1.181-2.109,3.42-3.553,6.023-3.553l0.07-5.862
				c-2.655,0-4.934-1.498-6.093-3.678v-6.364c1.159-2.177,3.438-3.681,6.093-3.681l0.282-6.887c-2.868,0-5.327-1.735-6.375-4.205
				v-5.317c1.048-2.472,3.507-4.207,6.375-4.207l-0.142-5.856c-2.76,0-5.125-1.616-6.233-3.938v-5.843
				c1.108-2.325,3.473-3.941,6.233-3.941l-0.068-7.785c-2.708,0-5.03-1.56-6.165-3.811v-6.103c1.135-2.251,3.456-3.811,6.165-3.811
				l0.137-5.855c-2.814,0-5.223-1.676-6.302-4.068v-5.593C171.406,55.319,173.814,53.645,176.628,53.645z"/>
			
				<rect x="15.168" y="14.292" fill="none" stroke="#4F5877" stroke-width="1.9944" stroke-miterlimit="10" width="146.504" height="154.504"/>
		</g>
		
			<path fill-rule="evenodd" clip-rule="evenodd" fill="#FACBC1" stroke="#4F5877" stroke-width="1.9944" stroke-linecap="round" stroke-linejoin="round" stroke-miterlimit="10" d="
			M46.41,121.728c14.864,6.692,32.504,10.426,49.891,10.426c5.63,0,11.181-0.255,16.591-1.143c2.115-0.35,4.865-1.134,6.055-2.038
			c1.666-1.267,2.732-3.264,2.732-5.505c0-2.067-0.91-3.944-2.361-5.212h0.61c3.874,0,7.003-3.112,7.003-6.949
			c0-3.846-3.129-6.95-7.003-6.95h3.502c3.87,0,7-3.112,7-6.951c0-3.84-3.13-6.95-7-6.95c3.87,0,7-3.108,7-6.955
			c0-3.836-3.13-6.947-7-6.947H92.028c-2.418,0-4.375-1.944-4.375-4.343l2.201-14.439c0.213-0.658,0.314-1.354,0.314-2.069
			c0-3.836-3.13-6.951-6.999-6.951c-3.234,0-5.966,2.193-6.759,5.142l-0.299,0.996C71.616,69.098,61.426,82.082,46.41,90.455
			V121.728z"/>
	</g>
</g>
</svg>
