<?xml version="1.0" encoding="utf-8"?>
<!-- Generator: Adobe Illustrator 15.1.0, SVG Export Plug-In . SVG Version: 6.00 Build 0)  -->
<!DOCTYPE svg PUBLIC "-//W3C//DTD SVG 1.1//EN" "http://www.w3.org/Graphics/SVG/1.1/DTD/svg11.dtd">
<svg version="1.1" id="Capa_1" xmlns="http://www.w3.org/2000/svg" xmlns:xlink="http://www.w3.org/1999/xlink" x="0px" y="0px"
	 width="398px" height="184px" viewBox="0 0 398 184" enable-background="new 0 0 398 184" xml:space="preserve">
<g>
	<g>
		<g>
			<rect x="14.702" y="14.681" fill="#FFFAEC" width="146.505" height="155.426"/>
			<path fill="none" stroke="#4F5877" stroke-width="1.0002" stroke-miterlimit="10" d="M176.163,54.269l0.212-6.929
				c-3.036,0-5.583-1.963-6.514-4.679v-4.452c0.931-2.712,3.478-4.674,6.514-4.674l-0.072-5.897c-2.945,0-5.444-1.845-6.441-4.436
				v-4.928c0.997-2.592,3.497-4.441,6.441-4.441l0.069-6.02h-6.511V0.817l-7.19,0.067c0,3.812-2.995,6.902-6.688,6.902
				c-3.691,0-6.68-3.09-6.68-6.902l-5.712-0.07c0,3.815-2.988,6.904-6.682,6.904c-3.693,0-6.685-3.089-6.685-6.904l-6.71-0.28
				c0,3.812-2.995,6.903-6.686,6.903c-3.693,0-6.688-3.091-6.688-6.903l-5.705,0.14c0,3.81-2.99,6.902-6.683,6.902
				c-3.696,0-6.686-3.092-6.686-6.902l-7.584,0.068c0,3.814-2.993,6.907-6.686,6.907s-6.686-3.093-6.686-6.907l-5.705-0.136
				c0,3.813-2.993,6.901-6.686,6.901c-3.69,0-6.686-3.088-6.686-6.901l-6.709-0.212c0,3.814-2.993,6.902-6.689,6.902
				c-3.687,0-6.679-3.088-6.679-6.902l-5.712,0.073c0,3.812-2.989,6.903-6.682,6.903c-3.691,0-6.686-3.091-6.686-6.903l-5.83-0.07
				v7.417h-6.51l0.069,6.02c2.945,0,5.444,1.849,6.441,4.438v4.932c-0.997,2.59-3.496,4.435-6.441,4.435l-0.071,5.897
				c3.034,0,5.581,1.962,6.512,4.671v4.458c-0.932,2.712-3.478,4.676-6.512,4.676l0.211,6.929c2.813,0,5.221,1.682,6.301,4.089
				v5.629c-1.081,2.405-3.488,4.089-6.301,4.089l0.137,5.891c2.708,0,5.03,1.568,6.164,3.832v6.143
				c-1.134,2.263-3.456,3.832-6.164,3.832l-0.068,7.832c2.76,0,5.124,1.626,6.232,3.963v5.881c-1.109,2.335-3.472,3.961-6.232,3.961
				l-0.141,5.892c2.866,0,5.326,1.745,6.374,4.228v5.356c-1.048,2.481-3.507,4.227-6.374,4.227l0.282,6.929
				c2.655,0,4.932,1.51,6.092,3.701v6.404c-1.16,2.19-3.437,3.698-6.092,3.698l0.069,5.896c2.603,0,4.843,1.452,6.022,3.573v6.654
				c-1.179,2.123-3.419,3.577-6.022,3.577l-0.067,7.426h6.09v7.419l5.83-0.069c0-3.812,2.995-6.904,6.686-6.904
				c3.693,0,6.682,3.092,6.682,6.904l5.712,0.073c0-3.815,2.992-6.904,6.679-6.904c3.696,0,6.689,3.089,6.689,6.904l6.709-0.212
				c0-3.814,2.996-6.902,6.686-6.902c3.693,0,6.686,3.088,6.686,6.902l5.705-0.137c0-3.813,2.993-6.906,6.686-6.906
				s6.686,3.093,6.686,6.906l7.584,0.068c0-3.812,2.99-6.902,6.686-6.902c3.693,0,6.683,3.091,6.683,6.902l5.705,0.141
				c0-3.812,2.995-6.904,6.688-6.904c3.691,0,6.686,3.092,6.686,6.904l6.71-0.281c0-3.814,2.992-6.906,6.685-6.906
				c3.694,0,6.682,3.092,6.682,6.906l5.712-0.07c0-3.812,2.989-6.903,6.68-6.903c3.693,0,6.688,3.091,6.688,6.903l7.19,0.068v-7
				h6.092l-0.069-7.426c-2.603,0-4.842-1.454-6.023-3.578v-6.652c1.181-2.122,3.42-3.574,6.023-3.574l0.071-5.896
				c-2.655,0-4.935-1.51-6.094-3.699v-6.403c1.159-2.191,3.438-3.701,6.094-3.701l0.281-6.929c-2.868,0-5.327-1.745-6.375-4.229
				v-5.35c1.048-2.486,3.507-4.231,6.375-4.231l-0.142-5.892c-2.761,0-5.125-1.626-6.233-3.963V99.57
				c1.108-2.339,3.473-3.965,6.233-3.965l-0.068-7.832c-2.709,0-5.03-1.568-6.165-3.833v-6.139c1.135-2.264,3.456-3.834,6.165-3.834
				l0.137-5.891c-2.814,0-5.223-1.685-6.302-4.09v-5.626C170.94,55.952,173.349,54.269,176.163,54.269z"/>
			
				<rect x="14.702" y="14.681" fill="none" stroke="#4F5877" stroke-width="2.0004" stroke-miterlimit="10" width="146.505" height="155.426"/>
		</g>
		<g>
			
				<polyline fill="#FEEAA2" stroke="#4F5877" stroke-width="1.2257" stroke-linecap="round" stroke-linejoin="round" stroke-miterlimit="10" points="
				115.701,141.898 36.241,57.32 25.943,31.437 51.561,42.255 131.378,127.213 			"/>
			
				<line fill="none" stroke="#9E8271" stroke-width="1.2257" stroke-miterlimit="10" x1="120.94" y1="136.991" x2="44.53" y2="55.658"/>
			
				<line fill="none" stroke="#9E8271" stroke-width="1.2257" stroke-miterlimit="10" x1="126.331" y1="131.941" x2="49.92" y2="50.61"/>
			
				<path fill="#FACBC1" stroke="#4F5877" stroke-width="1.2257" stroke-linecap="round" stroke-linejoin="round" stroke-miterlimit="10" d="
				M115.88,142.089l16.329,17.381c3.464,3.688,10.612,2.622,14.305-0.84c3.691-3.456,4.837-10.158,1.373-13.845l-15.971-17.001"/>
			<path fill="#F47D30" d="M135.333,125.304c-0.494-0.525-1.325-0.554-1.851-0.061l-19.693,18.444
				c-0.529,0.496-0.554,1.327-0.059,1.853c0.493,0.527,1.324,0.555,1.854,0.059l19.694-18.444
				C135.803,126.661,135.827,125.831,135.333,125.304"/>
			<path fill="#C7C9CA" stroke="#4F5877" stroke-width="1.2257" stroke-miterlimit="10" d="M135.333,125.304
				c-0.494-0.525-1.325-0.554-1.851-0.061l-19.693,18.444c-0.529,0.496-0.554,1.327-0.059,1.853
				c0.493,0.527,1.324,0.555,1.854,0.059l19.694-18.444C135.803,126.661,135.827,125.831,135.333,125.304z"/>
			<path fill="#F47D30" d="M140.179,130.461c-0.495-0.525-1.326-0.554-1.852-0.061l-19.693,18.444
				c-0.53,0.496-0.554,1.325-0.06,1.853c0.494,0.525,1.323,0.553,1.853,0.057l19.693-18.445
				C140.646,131.815,140.672,130.986,140.179,130.461"/>
			<path fill="#C7C9CA" stroke="#4F5877" stroke-width="1.2257" stroke-miterlimit="10" d="M140.179,130.461
				c-0.495-0.525-1.326-0.554-1.852-0.061l-19.693,18.444c-0.53,0.496-0.554,1.325-0.06,1.853c0.494,0.525,1.323,0.553,1.853,0.057
				l19.693-18.445C140.646,131.815,140.672,130.986,140.179,130.461z"/>
			<path fill="#F47D30" d="M145.021,135.616c-0.494-0.525-1.324-0.553-1.85-0.059l-19.693,18.444
				c-0.529,0.496-0.556,1.323-0.062,1.851c0.497,0.527,1.326,0.553,1.855,0.059l19.693-18.446
				C145.491,136.973,145.518,136.144,145.021,135.616"/>
			<path fill="#C7C9CA" stroke="#4F5877" stroke-width="1.2257" stroke-miterlimit="10" d="M145.021,135.616
				c-0.494-0.525-1.324-0.553-1.85-0.059l-19.693,18.444c-0.529,0.496-0.556,1.323-0.062,1.851c0.497,0.527,1.326,0.553,1.855,0.059
				l19.693-18.446C145.491,136.973,145.518,136.144,145.021,135.616z"/>
			<polygon fill="#9E8271" stroke="#4F5877" stroke-width="0.9192" stroke-miterlimit="10" points="45.029,55.191 121.016,136.073 
				119.45,137.54 43.463,56.657 			"/>
			
				<rect x="32.425" y="89.978" transform="matrix(-0.6847 -0.7288 0.7288 -0.6847 81.7504 217.4669)" fill="#9E8271" stroke="#4F5877" stroke-width="0.9192" stroke-miterlimit="10" width="110.978" height="2.146"/>
			<polygon fill="#F2E2D3" stroke="#4F5877" stroke-width="0.9192" stroke-miterlimit="10" points="36.241,57.32 25.992,31.39 
				51.561,42.255 			"/>
			<polygon fill="#4F5877" points="29.198,39.339 25.992,31.39 34.001,34.839 			"/>
		</g>
	</g>
	<g>
		<g>
			<g>
				<rect x="235.859" y="14.681" fill="#FACBC1" width="146.505" height="155.426"/>
				<path fill="none" stroke="#4F5877" stroke-width="1.0002" stroke-miterlimit="10" d="M397.321,54.269l0.212-6.929
					c-3.036,0-5.584-1.963-6.515-4.679v-4.452c0.931-2.712,3.479-4.674,6.515-4.674l-0.073-5.897c-2.943,0-5.444-1.845-6.441-4.436
					v-4.928c0.997-2.592,3.498-4.441,6.441-4.441l0.071-6.02h-6.513V0.817l-7.19,0.067c0,3.812-2.995,6.902-6.688,6.902
					c-3.691,0-6.681-3.09-6.681-6.902l-5.712-0.07c0,3.815-2.987,6.904-6.682,6.904c-3.693,0-6.685-3.089-6.685-6.904l-6.711-0.28
					c0,3.812-2.995,6.903-6.687,6.903c-3.692,0-6.688-3.091-6.688-6.903l-5.705,0.14c0,3.81-2.989,6.902-6.682,6.902
					c-3.697,0-6.687-3.092-6.687-6.902l-7.585,0.068c0,3.814-2.993,6.907-6.686,6.907c-3.693,0-6.687-3.093-6.687-6.907
					l-5.704-0.136c0,3.813-2.993,6.901-6.687,6.901c-3.688,0-6.686-3.088-6.686-6.901l-6.71-0.212c0,3.814-2.992,6.902-6.688,6.902
					c-3.688,0-6.68-3.088-6.68-6.902L246.4,0.467c0,3.812-2.989,6.903-6.682,6.903c-3.691,0-6.687-3.091-6.687-6.903l-5.829-0.07
					v7.417h-6.511l0.07,6.02c2.944,0,5.443,1.849,6.44,4.438v4.932c-0.997,2.59-3.496,4.435-6.44,4.435l-0.072,5.897
					c3.034,0,5.582,1.962,6.513,4.671v4.458c-0.931,2.712-3.479,4.676-6.513,4.676l0.212,6.929c2.812,0,5.222,1.682,6.301,4.089
					v5.629c-1.079,2.405-3.488,4.089-6.301,4.089l0.137,5.891c2.709,0,5.029,1.568,6.164,3.832v6.143
					c-1.135,2.263-3.455,3.832-6.164,3.832l-0.068,7.832c2.76,0,5.124,1.626,6.232,3.963v5.881
					c-1.108,2.335-3.473,3.961-6.232,3.961l-0.142,5.892c2.866,0,5.326,1.745,6.374,4.228v5.356
					c-1.048,2.481-3.508,4.227-6.374,4.227l0.282,6.929c2.654,0,4.932,1.51,6.092,3.701v6.404c-1.16,2.19-3.438,3.698-6.092,3.698
					l0.07,5.896c2.602,0,4.842,1.452,6.021,3.573v6.654c-1.18,2.123-3.42,3.577-6.021,3.577l-0.068,7.426h6.09v7.419l5.829-0.069
					c0-3.812,2.995-6.904,6.687-6.904c3.692,0,6.682,3.092,6.682,6.904l5.713,0.073c0-3.815,2.992-6.904,6.68-6.904
					c3.695,0,6.688,3.089,6.688,6.904l6.71-0.212c0-3.814,2.997-6.902,6.686-6.902c3.693,0,6.687,3.088,6.687,6.902l5.704-0.137
					c0-3.813,2.993-6.906,6.687-6.906c3.692,0,6.686,3.093,6.686,6.906l7.585,0.068c0-3.812,2.989-6.902,6.687-6.902
					c3.692,0,6.682,3.091,6.682,6.902l5.705,0.141c0-3.812,2.995-6.904,6.688-6.904c3.691,0,6.687,3.092,6.687,6.904l6.711-0.281
					c0-3.814,2.991-6.906,6.685-6.906c3.694,0,6.682,3.092,6.682,6.906l5.712-0.07c0-3.812,2.989-6.903,6.681-6.903
					c3.692,0,6.688,3.091,6.688,6.903l7.19,0.068v-7h6.092l-0.068-7.426c-2.602,0-4.843-1.454-6.023-3.578v-6.652
					c1.181-2.122,3.422-3.574,6.023-3.574l0.07-5.896c-2.654,0-4.935-1.51-6.094-3.699v-6.403c1.159-2.191,3.439-3.701,6.094-3.701
					l0.281-6.929c-2.867,0-5.327-1.745-6.375-4.229v-5.35c1.048-2.486,3.508-4.231,6.375-4.231l-0.141-5.892
					c-2.76,0-5.126-1.626-6.234-3.963V99.57c1.108-2.339,3.475-3.965,6.234-3.965l-0.068-7.832c-2.709,0-5.03-1.568-6.166-3.833
					v-6.139c1.136-2.264,3.457-3.834,6.166-3.834l0.137-5.891c-2.814,0-5.224-1.685-6.303-4.09v-5.626
					C392.098,55.952,394.507,54.269,397.321,54.269z"/>
				
					<rect x="235.859" y="14.681" fill="none" stroke="#4F5877" stroke-width="2.0004" stroke-miterlimit="10" width="146.505" height="155.426"/>
			</g>
		</g>
		<g>
			<g>
				<polygon fill="#E95424" points="355.706,126.298 263.125,126.462 262.948,40.436 355.541,40.26 				"/>
				<polygon fill="#FFFFFF" stroke="#4F5877" stroke-width="1.0002" stroke-miterlimit="10" points="329.317,100.616 
					289.019,100.704 288.907,40.383 329.205,40.319 				"/>
				<polygon fill="#FAB585" stroke="#4F5877" stroke-width="1.0002" stroke-miterlimit="10" points="263.201,126.354 
					355.624,126.179 355.659,144.352 263.242,144.527 				"/>
			</g>
			<polygon fill="none" stroke="#4F5877" stroke-width="1.5203" stroke-miterlimit="10" points="355.706,126.298 355.541,40.26 
				262.948,40.436 263.125,126.462 263.242,144.527 355.659,144.352 			"/>
		</g>
	</g>
</g>
</svg>
