<svg xmlns="http://www.w3.org/2000/svg" width="44.899" height="25.479" viewBox="0 0 44.899 25.479"><path fill="#F79C83" d="M0 0h44.9v25.48H0z"/><path fill="#54C0E8" d="M0 0h17.493v11.8H0z"/><g fill="#fff"><circle cx="2.369" cy="2.731" r=".838"/><circle cx="2.369" cy="6.083" r=".838"/><circle cx="2.369" cy="9.437" r=".838"/></g><g fill="#fff"><circle cx="5.649" cy="2.731" r=".838"/><circle cx="5.649" cy="6.083" r=".838"/><circle cx="5.649" cy="9.437" r=".838"/></g><g fill="#fff"><circle cx="8.565" cy="2.731" r=".838"/><circle cx="8.565" cy="6.083" r=".838"/><circle cx="8.565" cy="9.437" r=".838"/></g><g fill="#fff"><circle cx="11.845" cy="2.731" r=".838"/><circle cx="11.845" cy="6.083" r=".838"/><circle cx="11.845" cy="9.437" r=".838"/></g><g fill="#fff"><circle cx="15.453" cy="2.731" r=".838"/><circle cx="15.453" cy="6.083" r=".838"/><circle cx="15.453" cy="9.437" r=".838"/></g><path fill="#fff" d="M17.493 1.678H44.9v1.676H17.492zM17.493 5.063H44.9V6.74H17.492zM17.493 8.415H44.9v1.677H17.492zM0 11.767h44.9v1.676H0zM0 15.118h44.9v1.677H0zM0 18.47h44.9v1.677H0zM0 22.127h44.9v1.676H0z"/></svg>