<svg xmlns="http://www.w3.org/2000/svg" width="170" height="41" viewBox="0 0 170 41"><path fill="#424143" d="M3.084 31.92v6.693c0 1.914-3.158 1.872-3.158.043V14.708c0-.874.745-1.454 1.623-1.454h9.517c7.588 0 11.14 4.78 11.14 9.562 0 4.99-3.596 9.104-11.273 9.104h-7.85zm0-2.7h7.85c5.835 0 8.245-3.246 8.158-6.403-.044-3.41-2.895-6.86-7.98-6.86H3.083V29.22zM31.15 36.993h17.324c1.843 0 2.107 2.745 0 2.745H30.01c-1.228 0-2.017-.833-2.017-1.83V15.082c0-.955.79-1.788 2.017-1.788h18.51c1.887 0 1.798 2.662-.045 2.662H31.15v9.354h16.492c1.752 0 1.84 2.66 0 2.66H31.15v9.023zM59.214 32.753l-3.55 6.57c-.792 1.537-3.685.455-2.895-1.207l13.243-24.74c.263-.54.878-.79 1.448-.79.572 0 1.098.25 1.405.79l13.202 24.616c1.143 1.786-2.105 2.828-2.94 1.206l-3.42-6.445H59.215zm8.248-15.717l-6.93 13.1h13.816l-6.886-13.1zM104.87 38.7c-2.105.913-4.475 1.496-6.58 1.496-7.5 0-14.253-5.822-14.253-14.055 0-6.818 5.132-12.223 11.884-13.222 5.135-.663 9.608.54 13.072 3.992 1.318 1.415-1.053 3.12-2.28 1.872-2.983-2.994-6.446-3.45-10.307-3.036-5.395.79-9.21 4.41-9.21 10.438 0 6.32 5.13 11.142 11.184 11.142 1.62 0 3.422-.415 5.087-1.204 1.358-.665 2.675-1.666 3.596-2.787 1.01-1.415 3.685.124 2.544 1.664-1.184 1.578-2.85 2.826-4.737 3.7"/><path fill="#424143" d="M119.34 25.645h16.142V14.292c0-1.995 3.2-1.995 3.2 0V38.53c0 2.037-3.2 2.123-3.2 0V28.263H119.34V38.53c0 2.162-3.157 1.915-3.157 0V14.292c0-2.037 3.156-1.91 3.156 0v11.353zM154.38 29.053l-11.097-13.928c-1.314-1.666 1.577-3.202 2.763-1.538l9.91 12.846 10.048-12.888c1.095-1.58 3.814-.25 2.63 1.497l-11.008 14.01v9.314c0 1.04-.878 1.54-1.624 1.54-.878 0-1.623-.5-1.623-1.54v-9.313z"/><path stroke="#424143" stroke-width="2" stroke-linecap="round" stroke-linejoin="round" stroke-miterlimit="10" d="M99.778 7.907s-.19-3.94 3.985-6.113c2.73-1.422 6.192.142 6.192.142s-.513 3.476-3.007 5.404c-2.935 2.272-7.17.567-7.17.567" fill="none"/></svg>