<svg xmlns="http://www.w3.org/2000/svg" width="171" height="42" viewBox="0 0 171 42"><g fill="#fff"><path d="M3.217 32.56V39.7c0 2.043-3.195 1.998-3.195.046V14.19c0-.933.753-1.552 1.64-1.552h9.63c7.676 0 11.27 5.102 11.27 10.206 0 5.323-3.638 9.714-11.404 9.714h-7.94zm0-2.884h7.94c5.903 0 8.342-3.463 8.253-6.83-.045-3.64-2.928-7.323-8.074-7.323h-8.12v14.153zM31.61 37.973h17.524c1.865 0 2.13 2.93 0 2.93h-18.68c-1.242 0-2.04-.89-2.04-1.953V14.59c0-1.02.797-1.908 2.04-1.908h18.724c1.91 0 1.82 2.84-.044 2.84H31.61v9.983h16.683c1.773 0 1.862 2.84 0 2.84H31.61v9.628zM60 33.447l-3.593 7.01c-.8 1.643-3.727.49-2.927-1.285L66.877 12.77c.266-.576.89-.84 1.465-.84.578 0 1.11.264 1.42.84l13.355 26.27c1.156 1.907-2.13 3.018-2.973 1.287l-3.46-6.88H60zm8.342-16.77l-7.01 13.978h13.977l-6.968-13.98zM106.185 39.793c-2.13.976-4.526 1.598-6.655 1.598-7.587 0-14.42-6.212-14.42-14.997 0-7.277 5.192-13.044 12.023-14.11 5.194-.708 9.72.575 13.224 4.26 1.333 1.51-1.065 3.33-2.307 1.997-3.02-3.194-6.52-3.682-10.428-3.24-5.457.843-9.317 4.705-9.317 11.14 0 6.743 5.192 11.89 11.314 11.89 1.64 0 3.462-.443 5.146-1.285 1.374-.71 2.705-1.777 3.637-2.973 1.023-1.512 3.73.133 2.574 1.774-1.198 1.684-2.883 3.016-4.792 3.947"/><path d="M120.822 25.862h16.33V13.747c0-2.13 3.237-2.13 3.237 0v25.867c0 2.173-3.24 2.266-3.24 0V28.656h-16.328v10.958c0 2.307-3.193 2.042-3.193 0V13.747c0-2.175 3.192-2.04 3.192 0v12.115zM156.27 29.5l-11.226-14.863c-1.33-1.78 1.597-3.42 2.796-1.642l10.025 13.708 10.163-13.754c1.107-1.686 3.86-.27 2.66 1.598l-11.134 14.95v9.94c0 1.11-.89 1.642-1.645 1.642-.888 0-1.642-.532-1.642-1.643V29.5zM101.034 6.933s-.192-4.203 4.03-6.524c2.764-1.52 6.266.152 6.266.152s-.518 3.707-3.04 5.765c-2.972 2.425-7.256.606-7.256.606"/></g></svg>