<?xml version="1.0" encoding="utf-8"?>
<!-- Generator: Adobe Illustrator 15.1.0, SVG Export Plug-In . SVG Version: 6.00 Build 0)  -->
<!DOCTYPE svg PUBLIC "-//W3C//DTD SVG 1.1//EN" "http://www.w3.org/Graphics/SVG/1.1/DTD/svg11.dtd">
<svg version="1.1" id="Capa_1" xmlns="http://www.w3.org/2000/svg" xmlns:xlink="http://www.w3.org/1999/xlink" x="0px" y="0px"
	 width="263px" height="160px" viewBox="0 0 263 160" enable-background="new 0 0 263 160" xml:space="preserve">
<g>
	<path opacity="0.39" fill="#80AED0" d="M34.605,57.297c-0.116-12.776,24.827-23.365,55.707-23.648
		c5.806-0.053,11.41,0.262,16.681,0.892c4.421-19.473,24.778-34.313,49.361-34.538c27.969-0.257,50.815,18.5,51.029,41.89
		c0.115,12.794-6.576,24.319-17.233,32.184c5.712,7.629,9.046,16.564,9.133,26.154c0.259,28.365-27.914,51.619-62.92,51.939
		c-35.009,0.322-63.602-22.412-63.859-50.777c-0.071-7.828,2.033-15.262,5.838-21.939C53.404,77.349,34.705,68.309,34.605,57.297z"
		/>
	<g>
		<path fill="#FEEAA2" d="M109.839,62.731c-8.226-5.55-18.162-6.004-25.261-1.9c0.391-7.695-3.736-15.935-11.413-21.115
			c-10.939-7.377-24.907-5.755-31.198,3.632L2.708,101.906c-6.292,9.383-2.529,22.969,8.411,30.35c8.224,5.547,18.16,6,25.26,1.898
			c-0.39,7.697,3.735,15.936,11.414,21.115c10.937,7.377,24.905,5.754,31.196-3.631l39.258-58.561
			C124.542,83.697,120.773,70.107,109.839,62.731z"/>
		<path fill="#F36E54" d="M109.839,62.731c-8.226-5.55-18.162-6.004-25.261-1.9c0.391-7.695-3.736-15.935-11.413-21.115
			c-10.939-7.377-24.907-5.755-31.198,3.632L2.708,101.906c-6.292,9.383-2.529,22.969,8.411,30.35c8.224,5.547,18.16,6,25.26,1.898
			c-0.39,7.697,3.735,15.936,11.414,21.115c10.937,7.377,24.905,5.754,31.196-3.631l39.258-58.561
			C124.542,83.697,120.773,70.107,109.839,62.731z"/>
		<path fill="#A9AFBD" d="M77.064,35.247l-6.602-4.607l-1.636,2.357l1.337,0.933c-0.06,0.074-0.124,0.143-0.175,0.226l-2.637,4.19
			c-0.721,1.144-0.391,2.684,0.768,3.417c1.141,0.722,2.679,0.366,3.4-0.778l2.636-4.189c0.013-0.02,0.02-0.041,0.03-0.06
			l1.244,0.867L77.064,35.247z"/>
		<path opacity="0.42" fill="#FFFFFF" d="M83.376,62.229l-44.166,63.22c-5.83,8.695-2.782,21.637,7.142,28.779
			c9.015,6.488,19.761,8.475,29.606,0.855C75.958,155.084,27.997,147.506,83.376,62.229z"/>
		<path opacity="0.42" fill="#FFFFFF" d="M43.878,40.93L2.46,102.297c-5.828,8.693-2.78,21.637,7.144,28.781
			c9.014,6.486,18.309,7.334,26.775,3.076C36.379,134.154-11.5,126.207,43.878,40.93z"/>
	</g>
	<g>
		<path fill="#FEEAA2" d="M141.546,64.24c6.206-7.755,15.557-11.155,23.551-9.358c-2.656-7.229-1.162-16.327,4.63-23.566
			c8.253-10.309,22.068-12.93,30.86-5.85l54.859,44.18c8.792,7.077,9.232,21.173,0.979,31.486c-6.204,7.75-15.555,11.15-23.55,9.354
			c2.656,7.234,1.164,16.33-4.628,23.564c-8.252,10.311-22.069,12.936-30.86,5.854l-54.859-44.18
			C133.732,88.646,133.297,74.546,141.546,64.24z"/>
		<path fill="#F36E54" d="M141.546,64.24c6.206-7.755,15.557-11.155,23.551-9.358c-2.656-7.229-1.162-16.327,4.63-23.566
			c8.253-10.309,22.068-12.93,30.86-5.85l54.859,44.18c8.792,7.077,9.232,21.173,0.979,31.486c-6.204,7.75-15.555,11.15-23.55,9.354
			c2.656,7.234,1.164,16.33-4.628,23.564c-8.252,10.311-22.069,12.936-30.86,5.854l-54.859-44.18
			C133.732,88.646,133.297,74.546,141.546,64.24z"/>
		<path fill="#A9AFBD" d="M164.678,28.212l4.935-6.368l2.262,1.763l-1.001,1.29c0.08,0.052,0.161,0.099,0.235,0.161l3.762,3.213
			c1.027,0.878,1.17,2.445,0.281,3.493c-0.875,1.03-2.45,1.151-3.477,0.272l-3.761-3.211c-0.019-0.014-0.029-0.032-0.047-0.048
			l-0.929,1.199L164.678,28.212z"/>
		<path opacity="0.42" fill="#FFFFFF" d="M166.661,55.857l60.928,47.164c8.146,6.559,9.077,19.822,1.724,29.607
			c-6.68,8.885-16.349,13.988-28.01,9.658C201.303,142.287,244.84,120.729,166.661,55.857z"/>
		<path opacity="0.42" fill="#FFFFFF" d="M198.045,23.728l57.754,46.216c8.146,6.558,9.077,19.824,1.723,29.607
			c-6.679,8.887-15.302,12.471-24.646,10.934C232.875,110.484,276.223,88.6,198.045,23.728z"/>
	</g>
</g>
</svg>
