<?xml version="1.0" encoding="utf-8"?>
<!-- Generator: Adobe Illustrator 15.1.0, SVG Export Plug-In . SVG Version: 6.00 Build 0)  -->
<!DOCTYPE svg PUBLIC "-//W3C//DTD SVG 1.1//EN" "http://www.w3.org/Graphics/SVG/1.1/DTD/svg11.dtd">
<svg version="1.1" id="Capa_1" xmlns="http://www.w3.org/2000/svg" xmlns:xlink="http://www.w3.org/1999/xlink" x="0px" y="0px"
	 width="126.75px" height="130.068px" viewBox="0 0 126.75 130.068" enable-background="new 0 0 126.75 130.068"
	 xml:space="preserve">
<g>
	<g>
		<g>
			<g>
				<defs>
					<rect id="SVGID_1_" x="11.201" y="10.111" width="103.385" height="109.846"/>
				</defs>
				<clipPath id="SVGID_2_">
					<use xlink:href="#SVGID_1_"  overflow="visible"/>
				</clipPath>
				<use xlink:href="#SVGID_1_"  overflow="visible" fill="none" stroke="#595A5C" stroke-width="2" stroke-miterlimit="10"/>
			</g>
			<path fill="none" stroke="#595A5C" stroke-width="2" stroke-linecap="round" stroke-linejoin="round" stroke-miterlimit="10" d="
				M125.141,38.09l0.15-4.898c-2.143,0-3.939-1.387-4.598-3.305v-3.147c0.658-1.916,2.455-3.303,4.598-3.303l-0.053-4.169
				c-2.078,0-3.842-1.304-4.545-3.135v-3.481c0.703-1.833,2.467-3.139,4.545-3.139l0.051-4.255h-4.596V0.312l-5.074,0.047
				c0,2.695-2.113,4.879-4.719,4.879c-2.604,0-4.713-2.184-4.713-4.879l-4.031-0.049c0,2.694-2.109,4.881-4.717,4.881
				c-2.605,0-4.717-2.187-4.717-4.881l-4.736-0.197c0,2.692-2.113,4.879-4.719,4.879c-2.604,0-4.719-2.187-4.719-4.879l-4.025,0.099
				c0,2.692-2.109,4.879-4.715,4.879c-2.609,0-4.719-2.187-4.719-4.879l-5.354,0.047c0,2.697-2.111,4.881-4.717,4.881
				s-4.719-2.184-4.719-4.881l-4.025-0.095c0,2.695-2.111,4.877-4.719,4.877c-2.604,0-4.717-2.182-4.717-4.877l-4.736-0.149
				c0,2.694-2.111,4.878-4.719,4.878c-2.602,0-4.713-2.184-4.713-4.878l-4.031,0.051c0,2.693-2.109,4.88-4.717,4.88
				c-2.604,0-4.717-2.187-4.717-4.88L5.092,0.017v5.241H0.5l0.049,4.255c2.078,0,3.84,1.306,4.543,3.135v3.487
				c-0.703,1.829-2.465,3.133-4.543,3.133l-0.051,4.169c2.141,0,3.938,1.387,4.594,3.301v3.149
				c-0.656,1.918-2.453,3.305-4.594,3.305l0.148,4.898c1.984,0,3.684,1.188,4.445,2.891v3.978c-0.762,1.699-2.461,2.89-4.445,2.89
				l0.096,4.164c1.912,0,3.549,1.107,4.35,2.708v4.341c-0.801,1.601-2.438,2.709-4.35,2.709l-0.047,5.535
				c1.947,0,3.615,1.148,4.396,2.802v4.153c-0.781,1.652-2.449,2.801-4.396,2.801l-0.1,4.163c2.021,0,3.758,1.234,4.496,2.989v3.784
				c-0.738,1.754-2.475,2.988-4.496,2.988l0.197,4.896c1.873,0,3.48,1.066,4.299,2.615v4.526c-0.818,1.55-2.426,2.615-4.299,2.615
				l0.049,4.167c1.838,0,3.418,1.026,4.25,2.523v4.705c-0.832,1.5-2.412,2.527-4.25,2.527l-0.047,5.249h4.297v5.243l4.115-0.05
				c0-2.694,2.113-4.88,4.717-4.88c2.607,0,4.717,2.186,4.717,4.88l4.031,0.052c0-2.696,2.111-4.879,4.713-4.879
				c2.607,0,4.719,2.183,4.719,4.879l4.736-0.15c0-2.695,2.113-4.878,4.717-4.878c2.607,0,4.719,2.183,4.719,4.878l4.025-0.097
				c0-2.695,2.113-4.88,4.719-4.88s4.717,2.185,4.717,4.88l5.354,0.05c0-2.695,2.109-4.879,4.719-4.879
				c2.605,0,4.715,2.184,4.715,4.879l4.025,0.099c0-2.693,2.115-4.879,4.719-4.879c2.605,0,4.719,2.186,4.719,4.879l4.736-0.199
				c0-2.695,2.111-4.881,4.717-4.881c2.607,0,4.717,2.186,4.717,4.881l4.031-0.048c0-2.694,2.109-4.881,4.713-4.881
				c2.605,0,4.719,2.187,4.719,4.881l5.074,0.048v-4.947h4.299l-0.047-5.249c-1.838,0-3.418-1.027-4.252-2.529v-4.701
				c0.834-1.499,2.414-2.525,4.252-2.525l0.049-4.167c-1.873,0-3.482-1.067-4.301-2.615v-4.526c0.818-1.547,2.428-2.615,4.301-2.615
				l0.199-4.896c-2.025,0-3.76-1.234-4.5-2.99v-3.78c0.74-1.757,2.475-2.991,4.5-2.991l-0.102-4.163
				c-1.947,0-3.615-1.148-4.398-2.801v-4.153c0.783-1.653,2.451-2.802,4.398-2.802l-0.047-5.535c-1.912,0-3.551-1.108-4.352-2.71
				v-4.339c0.801-1.601,2.439-2.709,4.352-2.709l0.096-4.164c-1.986,0-3.686-1.19-4.447-2.891V40.98
				C121.455,39.279,123.154,38.09,125.141,38.09z"/>
			
				<rect x="11.201" y="10.111" fill="#F89C60" stroke="#58595B" stroke-width="2" stroke-miterlimit="10" width="103.385" height="109.846"/>
		</g>
	</g>
	<g>
		<g>
			<rect x="47.465" y="45.321" fill="#915B2B" width="61.121" height="9.51"/>
			<rect x="47.465" y="55.293" fill="#915B2B" width="61.121" height="9.51"/>
			<rect x="47.465" y="65.265" fill="#915B2B" width="61.121" height="9.511"/>
			<rect x="47.465" y="75.238" fill="#915B2B" width="61.121" height="9.51"/>
		</g>
		<polygon fill="#E31E27" points="23.002,40.072 17.201,43.681 23.002,47.118 23.002,47.363 17.201,50.8 23.002,54.237 
			23.002,54.482 17.201,57.919 23.002,61.356 23.002,61.397 17.201,64.835 23.002,68.272 23.002,68.507 17.201,71.943 23.002,75.38 
			23.002,75.625 17.201,79.062 23.002,82.5 23.002,82.744 17.201,86.182 23.002,89.997 99.078,89.997 99.078,40.072 		"/>
		<path fill="#FFFFFF" d="M66.098,80.259c-15.154,4.677-29.137,1.684-31.729-6.973c-2.605-8.719,7.354-19.15,22.506-23.824
			c15.137-4.67,29.182-1.645,31.787,7.074C91.254,65.189,81.232,75.591,66.098,80.259"/>
		<g>
			<path fill="#E41E26" d="M75.973,62.652c-0.002,0.803,0.527,1.315,1.029,1.528c0.5,0.213,1.572-0.053,2.023-0.62
				c0.268-0.332,0.453-0.649,0.514-1.085c-0.332,0.339-1.049,0.921-1.568,0.479c-0.221-0.188-0.295-0.481-0.281-1.348l0.016-3.755
				l1.576-0.421l0.012-0.893l-1.59,0.425l0.025-2.058l-0.096,0.026l-2.377,3.357l-0.014,0.221l0.756-0.202L75.973,62.652"/>
			<path fill="#E41E26" d="M69.578,59.652l0.006,0.908c0.307-0.347,1.285-1.509,2.396-1.687c0.652-0.108,0.906,0.776,0.506,1.499
				c-0.381,0.692-1.553,1.279-2.084,1.803c-0.557,0.554-0.844,1.053-0.967,1.656c-0.131,0.653,0.053,1.37,0.656,1.855
				c0.951,0.771,2.365-0.021,2.799-0.834c0.676,0.705,1.387,0.478,1.992-0.398c0.135-0.195,0.291-0.512,0.346-0.771
				c-0.209,0.211-1.072,0.478-1.064-0.44l-0.014-3.917c-0.02-1.681-1.404-1.993-2.418-1.648
				C70.709,58.028,69.857,59.224,69.578,59.652"/>
			<path fill="#FFFFFF" d="M71.746,64.488c-0.189-0.042-0.486-0.227-0.406-0.73c0.076-0.472,0.809-1.146,1.096-1.358l-0.049,1.568
				C72.371,64.388,71.963,64.539,71.746,64.488"/>
			<path fill="#E41E26" d="M71.82,51.42l-5.088,12.003l5.383,7.759c-0.387,0.24-1.693,0.94-2.307,1.231l-5.092-7.307v9.216
				c-0.691,0.25-1.566,0.509-2.504,0.714l-0.002-23.44c0.904-0.167,1.955-0.306,2.502-0.36l-0.006,11.069l4.223-11.199
				C69.303,51.098,71.387,51.345,71.82,51.42"/>
			<path fill="#E41E26" d="M57.602,67.026c-0.002,0.803,0.529,1.314,1.029,1.527c0.498,0.215,1.572-0.052,2.023-0.619
				c0.266-0.331,0.455-0.65,0.514-1.084c-0.332,0.339-1.049,0.919-1.57,0.479c-0.219-0.187-0.293-0.48-0.279-1.348l0.016-3.755
				l1.576-0.422l0.012-0.892l-1.59,0.425l0.027-2.057l-0.098,0.024l-2.379,3.358l-0.012,0.22l0.756-0.201L57.602,67.026"/>
			<polyline fill="#DE1F26" points="54.018,64.81 54.008,70.021 55.668,69.509 55.68,63.872 54.018,64.81 			"/>
			<path fill="#E41E26" d="M55.779,60.911c0.186,0.469-0.006,1.181-0.459,1.587c-0.453,0.405-0.873,0.331-1.078,0.007
				c-0.221-0.358-0.131-1.231,0.332-1.671C54.936,60.493,55.59,60.434,55.779,60.911"/>
			<path fill="#D91F26" d="M56.631,53.108l-6.586,13.953l6.34,8.742c-1.039,0.072-2.043,0.126-3.033,0.107l-5.154-6.952l0.025,6.162
				c-0.84-0.251-1.945-0.611-2.66-1l-0.002-13.935c0.684-0.567,2.092-0.811,2.66-0.896l-0.006,6.419l4.604-11.04
				C53.213,54.463,55.951,53.361,56.631,53.108"/>
		</g>
		<path fill="none" stroke="#E31E27" stroke-width="2" stroke-miterlimit="10" d="M65.594,79.56
			c-14.309,4.416-27.512,1.589-29.959-6.584c-2.461-8.233,6.943-18.083,21.252-22.498c14.293-4.409,27.555-1.553,30.016,6.681
			C89.35,65.329,79.887,75.151,65.594,79.56"/>
		<path fill="#E41E26" stroke="#FFFFFF" stroke-width="2" stroke-miterlimit="10" d="M36.014,50.592
			c-1.303,1.651-2.055,3.751-2.01,5.856c0.002,0.146,0.01,0.29,0.02,0.434c0.158,2.167,1.33,4.065,2.982,5.402
			c0.564-0.882,1.217-1.874,2.895-2.781c1.715-0.923,4.115-1.676,6.99-2.249c0.912-0.182,1.773-0.557,2.496-1.074
			c0.791-0.566,1.402-1.284,1.82-2.138c0.391-0.8,0.627-1.935,0.658-2.754c0.016-0.381,0.006-0.774-0.027-1.186
			c-0.068-0.792-0.262-1.665-0.514-2.568c-0.471,0.567-1.078,0.424-1.838,0.228c-1.148-0.295-2.592-0.684-4.055,1.457l-0.021,0.026
			l-0.02-0.017c-1.467-1.203-3.139-1.766-4.924-1.46C38.871,48.041,37.27,49.002,36.014,50.592"/>
		<g>
			<path fill="#FFFFFF" d="M47.035,50.239c0-0.133-0.113-0.223-0.211-0.204l-0.264,0.043c-0.098,0.016-0.18,0.137-0.18,0.268
				l0.014,3.675c-0.002,0.134,0.078,0.222,0.178,0.197l0.26-0.065c0.1-0.024,0.215-0.133,0.215-0.263L47.035,50.239"/>
			<path fill="#FFFFFF" d="M47.404,50.272v0.176c0,0.074,0.047,0.125,0.107,0.115l1.934-0.313c0.086-0.014,0.156-0.11,0.156-0.218
				l0.004-0.288c0-0.106-0.07-0.188-0.156-0.162c0,0-1.867,0.502-1.932,0.521C47.447,50.125,47.406,50.201,47.404,50.272"/>
			<path fill="#FFFFFF" d="M45.828,54.425c-0.498,0.118-0.809-0.283-0.807-0.815l0.008-1.528l-0.143,0.029
				c-0.078,0.016-0.141-0.05-0.141-0.147l0.002-0.259c0-0.098,0.062-0.186,0.141-0.202l0.148-0.026l0.006-0.943
				c0-0.133,0.086-0.256,0.188-0.272l0.285-0.045c0.105-0.016,0.189,0.076,0.189,0.207l-0.006,0.933l0.43-0.079
				c0.076-0.015,0.137,0.049,0.137,0.145l-0.002,0.25c0,0.099-0.062,0.185-0.137,0.198l-0.43,0.084l-0.008,1.401
				c-0.002,0.271,0.127,0.429,0.359,0.375l0.041-0.01c0.08-0.018,0.143,0.047,0.143,0.153l-0.002,0.271
				c-0.002,0.103-0.066,0.198-0.145,0.218L45.828,54.425"/>
			<path fill="#FFFFFF" d="M42.418,53.497c0-0.854-0.385-1.629-1.291-1.446c-0.861,0.174-1.357,1.147-1.359,2.066
				c-0.002,0.98,0.523,1.696,1.355,1.476c0.555-0.147,1.094-0.661,1.197-1.295c0.016-0.091-0.029-0.187-0.115-0.164l-0.389,0.096
				c-0.074,0.017-0.135,0.076-0.166,0.15c-0.113,0.242-0.279,0.4-0.527,0.464c-0.355,0.09-0.602-0.211-0.617-0.6l1.689-0.405
				C42.35,53.805,42.418,53.679,42.418,53.497 M40.512,53.562c0.029-0.391,0.297-0.738,0.613-0.808
				c0.314-0.068,0.576,0.161,0.602,0.531L40.512,53.562z"/>
			<path fill="#FFFFFF" d="M49.697,52.057c0.006-0.745-0.348-1.431-1.195-1.289c-0.805,0.133-1.27,0.964-1.277,1.758
				c-0.004,0.847,0.48,1.483,1.26,1.313c0.518-0.11,1.021-0.575,1.119-1.13c0.014-0.073-0.025-0.159-0.109-0.141l-0.361,0.071
				c-0.066,0.013-0.121,0.062-0.154,0.127c-0.109,0.206-0.266,0.374-0.492,0.424c-0.334,0.067-0.561-0.196-0.578-0.534l1.582-0.309
				C49.633,52.32,49.695,52.216,49.697,52.057 M47.92,52.064c0.029-0.339,0.285-0.634,0.578-0.687
				c0.287-0.052,0.537,0.153,0.561,0.478L47.92,52.064z"/>
			<path fill="#FFFFFF" d="M44.508,50.459l-5.506,0.892c-0.143,0.024-0.258,0.181-0.258,0.349l0.02,2.859
				c0,0-1.277-2.562-1.373-2.73c-0.07-0.128-0.225-0.226-0.438-0.189l-0.49,0.093c-0.156,0.026-0.287,0.184-0.287,0.358v4.395
				c0,0.174,0.131,0.282,0.287,0.242l0.293-0.091c0.15-0.034,0.275-0.206,0.275-0.376l-0.02-3.03c0,0,1.357,2.633,1.404,2.705
				c0.08,0.135,0.199,0.215,0.395,0.165l0.441-0.116c0.143-0.036,0.256-0.196,0.256-0.36l0.008-3.656l4.988-0.861
				c0.082-0.015,0.148-0.108,0.148-0.213l0.002-0.274C44.654,50.516,44.588,50.442,44.508,50.459"/>
			<path fill="#FFFFFF" d="M43.688,52.275c0.232-0.045,0.402,0.025,0.465,0.195c0.027,0.079,0.086,0.086,0.164,0.066l0.307-0.061
				c0.051-0.013,0.109-0.08,0.109-0.164c0.002-0.457-0.422-0.783-1.043-0.667c-0.652,0.123-1.096,0.6-1.102,1.228
				c0,0.479,0.309,0.696,0.682,0.736c0.168,0.018,0.451,0.041,0.59,0.056c0.148,0.014,0.281,0.043,0.277,0.194
				c0,0.252-0.209,0.389-0.443,0.443c-0.221,0.052-0.438-0.022-0.504-0.206c-0.033-0.106-0.238-0.086-0.338-0.062l-0.197,0.054
				c-0.057,0.012-0.123,0.09-0.123,0.184v0.056c-0.002,0.46,0.488,0.811,1.158,0.643c0.471-0.115,1.107-0.508,1.111-1.283
				c0.002-0.443-0.236-0.706-0.617-0.749c-0.156-0.014-0.527-0.056-0.609-0.065c-0.145-0.019-0.279-0.045-0.279-0.2
				C43.297,52.435,43.469,52.32,43.688,52.275"/>
			<path fill="#FFFFFF" d="M36.213,57.956c6.258-4.035,10.176-1.043,13.365-4.179c-1.92,3.803-8.145,0.498-13.365,5.773V57.956"/>
		</g>
	</g>
</g>
</svg>
