<?xml version="1.0" encoding="utf-8"?>
<!-- Generator: Adobe Illustrator 15.1.0, SVG Export Plug-In . SVG Version: 6.00 Build 0)  -->
<!DOCTYPE svg PUBLIC "-//W3C//DTD SVG 1.1//EN" "http://www.w3.org/Graphics/SVG/1.1/DTD/svg11.dtd">
<svg version="1.1" id="Capa_1" xmlns="http://www.w3.org/2000/svg" xmlns:xlink="http://www.w3.org/1999/xlink" x="0px" y="0px"
	 width="126.75px" height="130.068px" viewBox="0 0 126.75 130.068" enable-background="new 0 0 126.75 130.068"
	 xml:space="preserve">
<g>
	<g>
		<g>
			<g>
				<defs>
					<rect id="SVGID_1_" x="11.558" y="10.606" width="104.385" height="107.423"/>
				</defs>
				<clipPath id="SVGID_2_">
					<use xlink:href="#SVGID_1_"  overflow="visible"/>
				</clipPath>
				<use xlink:href="#SVGID_1_"  overflow="visible" fill="none" stroke="#595A5C" stroke-width="2" stroke-miterlimit="10"/>
			</g>
			<path fill="none" stroke="#595A5C" stroke-width="2" stroke-linecap="round" stroke-linejoin="round" stroke-miterlimit="10" d="
				M126.599,37.967l0.151-4.79c-2.162,0-3.977-1.355-4.64-3.231v-3.078c0.663-1.875,2.478-3.231,4.64-3.231l-0.053-4.075
				c-2.097,0-3.877-1.276-4.587-3.066V13.09c0.71-1.793,2.49-3.069,4.587-3.069l0.051-4.162h-4.638V1.022l-5.124,0.047
				c0,2.635-2.134,4.771-4.765,4.771c-2.63,0-4.76-2.137-4.76-4.771l-4.071-0.048c0,2.635-2.129,4.774-4.761,4.774
				c-2.631,0-4.763-2.14-4.763-4.774l-4.781-0.192c0,2.634-2.133,4.771-4.765,4.771c-2.63,0-4.763-2.137-4.763-4.771l-4.065,0.096
				c0,2.635-2.132,4.771-4.761,4.771c-2.636,0-4.766-2.137-4.766-4.771l-5.402,0.047c0,2.638-2.133,4.771-4.765,4.771
				c-2.631,0-4.763-2.134-4.763-4.771l-4.065-0.093c0,2.635-2.133,4.768-4.765,4.768c-2.627,0-4.763-2.133-4.763-4.768l-4.781-0.146
				c0,2.635-2.132,4.771-4.765,4.771c-2.625,0-4.759-2.136-4.759-4.771l-4.069,0.05c0,2.633-2.131,4.771-4.761,4.771
				c-2.631,0-4.765-2.139-4.765-4.771L5.39,0.733v5.126H0.752l0.05,4.162c2.097,0,3.878,1.276,4.588,3.065v3.41
				c-0.71,1.788-2.491,3.064-4.588,3.064L0.75,23.636c2.162,0,3.977,1.356,4.64,3.229v3.081c-0.664,1.876-2.479,3.231-4.64,3.231
				l0.149,4.79c2.006,0,3.72,1.162,4.491,2.826v3.892C4.62,46.346,2.906,47.51,0.899,47.51l0.099,4.073
				c1.93,0,3.583,1.081,4.392,2.646v4.245c-0.809,1.565-2.462,2.65-4.392,2.65L0.95,66.539c1.966,0,3.65,1.123,4.44,2.738v4.062
				c-0.791,1.615-2.475,2.738-4.44,2.738L0.851,80.15c2.041,0,3.793,1.207,4.54,2.924v3.699c-0.746,1.717-2.499,2.924-4.54,2.924
				l0.198,4.787c1.892,0,3.517,1.043,4.342,2.557v4.428c-0.825,1.514-2.45,2.557-4.342,2.557l0.05,4.076
				c1.855,0,3.45,1.002,4.292,2.469v4.6c-0.841,1.467-2.436,2.471-4.292,2.471l-0.048,5.135h4.34v5.127l4.154-0.049
				c0-2.635,2.133-4.771,4.765-4.771c2.63,0,4.761,2.137,4.761,4.771l4.069,0.051c0-2.635,2.133-4.771,4.759-4.771
				c2.633,0,4.765,2.137,4.765,4.771l4.781-0.146c0-2.637,2.136-4.771,4.763-4.771c2.631,0,4.765,2.135,4.765,4.771l4.065-0.096
				c0-2.635,2.131-4.771,4.763-4.771c2.632,0,4.765,2.137,4.765,4.771l5.402,0.049c0-2.637,2.13-4.771,4.766-4.771
				c2.629,0,4.761,2.135,4.761,4.771l4.065,0.098c0-2.635,2.133-4.771,4.763-4.771c2.632,0,4.765,2.137,4.765,4.771l4.781-0.195
				c0-2.637,2.132-4.773,4.763-4.773c2.632,0,4.761,2.137,4.761,4.773l4.071-0.047c0-2.635,2.13-4.773,4.76-4.773
				c2.631,0,4.765,2.139,4.765,4.773l5.124,0.047v-4.838h4.339l-0.048-5.135c-1.855,0-3.45-1.004-4.291-2.473v-4.598
				c0.841-1.467,2.436-2.469,4.291-2.469l0.05-4.076c-1.891,0-3.517-1.043-4.341-2.557v-4.428c0.824-1.512,2.45-2.557,4.341-2.557
				l0.202-4.787c-2.045,0-3.795-1.207-4.543-2.924v-3.697c0.748-1.719,2.498-2.926,4.543-2.926l-0.103-4.072
				c-1.967,0-3.65-1.123-4.44-2.738v-4.062c0.79-1.615,2.474-2.738,4.44-2.738l-0.049-5.414c-1.93,0-3.583-1.085-4.392-2.651v-4.241
				c0.809-1.566,2.462-2.649,4.392-2.649l0.097-4.073c-2.004,0-3.721-1.164-4.488-2.826v-3.891
				C122.878,39.131,124.595,37.967,126.599,37.967z"/>
			
				<rect x="11.558" y="10.606" fill="#F89C60" stroke="#58595B" stroke-width="2" stroke-miterlimit="10" width="104.385" height="107.423"/>
		</g>
	</g>
	<g>
		<path opacity="0.54" fill="#F2E406" d="M33.29,30.526c0,0-6.179-1.857-8.27,1.683c0,0-1.458,4.253,3.261,7.532
			c0,0-0.079,6.43,1.992,9.884c0,0,2.646,6.061-1.494,8.225c0,0-10.627,9.774,2.369,22.52c0,0,1.369,5.578-1.546,11.252
			c0,0-1.22,9.34,3.002,8.873l34.801-4.004c0,0,4.615-3.707-7.03-13.898c0,0-1.642-4.615,1.478-6.051c0,0,10.803-10.73-3.48-20.273
			c0,0,0.742-14.363-0.603-16.826c0,0,7.715-8.889,2.559-11.445c0,0-3.971-2.352-10.403,1.901L33.29,30.526z"/>
		<path opacity="0.38" fill="#F2E406" d="M58.25,53.819c0,0,0.607-11.861-0.74-14.322c0,0,7.976-8.943,2.819-11.5
			c0,0-4.451-2.031-10.883,2.221L33.29,30.526c0,0-6.481-1.98-8.348,1.972c0,0-1.379,3.964,3.339,7.243
			c0,0,0.611,8.842,2.682,12.295C30.963,52.036,42.65,61.983,58.25,53.819z"/>
		<path opacity="0.76" fill="#F2E406" d="M41.431,67.453c0.355,5.037-3.095,9.371-7.707,9.676s-8.639-3.533-8.996-8.57
			c-0.355-5.039,3.095-9.371,7.707-9.677C37.049,58.577,41.074,62.414,41.431,67.453z"/>
		<path opacity="0.76" fill="#F2E406" d="M65.279,66.725c0.357,5.037-3.095,9.369-7.707,9.674c-4.611,0.307-8.638-3.529-8.993-8.568
			c-0.357-5.038,3.093-9.372,7.705-9.676C60.896,57.849,64.925,61.686,65.279,66.725z"/>
		<path opacity="0.76" fill="#F2E406" d="M55.677,34.335l-1.581-1.69c0.998-2.428,4.968-1.463,4.968-1.463"/>
		<path opacity="0.76" fill="#F2E406" d="M32.108,100.502l14.577-1.678c-1.361-19.297-15.521-11.627-15.521-11.627
			s-0.583,3.131-1.562,4.424C29.602,91.621,28.674,99.852,32.108,100.502z"/>
		<path opacity="0.76" fill="#F2E406" d="M67.588,96.459L51.46,98.193c-3.436-19.051,10.278-14.553,10.278-14.553
			s1.316,0.312,3.175,3.064C64.914,86.705,70.186,93.123,67.588,96.459z"/>
		<g opacity="0.44">
			<path opacity="0.91" fill="#F2E406" d="M52.806,37.042c-0.383-0.938-1.954-1.215-3.513-0.619c-1.553,0.598-2.502,1.843-2.12,2.78
				c0.383,0.938,1.956,1.215,3.511,0.618C52.241,39.225,53.188,37.98,52.806,37.042z"/>
			<path opacity="0.76" fill="#FFFFFF" d="M50.769,38.088c-0.287-0.701-1.272-0.981-2.202-0.625
				c-0.928,0.357-1.45,1.215-1.162,1.914c0.287,0.703,1.271,0.982,2.2,0.627C50.533,39.646,51.053,38.79,50.769,38.088z"/>
		</g>
		<path opacity="0.58" fill="#F2E406" d="M47.351,42.567c-1.581,0.104-2.87,1.213-3.37,2.713c-0.708-1.418-2.138-2.349-3.718-2.243
			c-2.144,0.142-3.749,2.124-3.587,4.429c0.163,2.305,2.03,4.058,4.174,3.916c1.583-0.105,2.87-1.213,3.372-2.714
			c0.706,1.421,2.136,2.349,3.719,2.245c2.144-0.143,3.749-2.125,3.585-4.43C51.364,44.178,49.495,42.424,47.351,42.567z"/>
		<path opacity="0.44" fill="#FFFFFF" d="M40.628,41.931c0,0,2.845-4.581,5.985-0.206c0,0-1.649,2.368-2.71,2.447
			C42.844,44.25,41.525,42.913,40.628,41.931z"/>
		<path opacity="0.44" fill="#FFFFFF" d="M34.859,65.951c0.167,2.369-1.547,4.414-3.827,4.564c-2.283,0.15-4.269-1.648-4.437-4.018
			c-0.166-2.372,1.549-4.417,3.83-4.568C32.705,61.779,34.691,63.58,34.859,65.951z"/>
		<path opacity="0.44" fill="#FFFFFF" d="M63.035,64.577c0.167,2.371-1.547,4.416-3.827,4.566c-2.283,0.152-4.267-1.648-4.437-4.019
			c-0.167-2.37,1.549-4.414,3.83-4.565C60.884,60.406,62.868,62.208,63.035,64.577z"/>
		<path opacity="0.44" fill="#FFFFFF" d="M56.899,85.846c0,0,7.806-1.367,9.798,8.896C66.697,94.742,61.9,87.594,56.899,85.846z"/>
		<path opacity="0.44" fill="#FFFFFF" d="M39.031,87.371c0,0-7.925-0.328-8.459,10.102C30.572,97.473,34.322,89.76,39.031,87.371z"
			/>
		<path opacity="0.76" fill="#F2E406" d="M27.823,33.25c0,0,3.799-1.479,5.13,0.796l-1.331,1.883"/>
		<path opacity="0.44" fill="#FFFFFF" d="M26.67,36.255c0,0-2.559-4.224,1.601-4.854C28.271,31.402,25.557,33.141,26.67,36.255z"/>
		<path opacity="0.44" fill="#FFFFFF" d="M57.546,28.62c0,0,4.894,1.234,2.412,4.528C59.958,33.148,60.607,30.062,57.546,28.62z"/>
		<path opacity="0.44" fill="#FFFFFF" d="M40.505,51.391c0,0,2.743,0.166,3.644-2.731c0,0,0.897,2.257,3.531,2.27L40.505,51.391z"/>
		<g opacity="0.44">
			<path opacity="0.91" fill="#F2E406" d="M34.083,38.281c0.248-0.979,1.767-1.462,3.392-1.076c1.625,0.386,2.741,1.495,2.493,2.474
				c-0.248,0.981-1.767,1.464-3.392,1.078C34.952,40.37,33.834,39.261,34.083,38.281z"/>
			<path opacity="0.76" fill="#FFFFFF" d="M36.248,39.05c0.188-0.733,1.124-1.141,2.095-0.911c0.968,0.231,1.605,1.014,1.419,1.745
				c-0.188,0.732-1.123,1.141-2.093,0.909C36.7,40.563,36.064,39.783,36.248,39.05z"/>
		</g>
	</g>
	<g>
		<path opacity="0.54" fill="#EF3D25" d="M98.527,37.297c0,0,5.475-1.646,7.326,1.49c0,0,1.288,3.767-2.89,6.67
			c0,0,0.068,5.695-1.765,8.754c0,0-2.343,5.369,1.325,7.286c0,0,9.408,8.657-2.102,19.946c0,0-1.214,4.939,1.371,9.965
			c0,0,1.081,8.273-2.66,7.857l-30.821-3.545c0,0-4.09-3.283,6.225-12.309c0,0,1.456-4.088-1.307-5.359
			c0,0-9.568-9.504,3.081-17.956c0,0-0.657-12.724,0.534-14.903c0,0-6.831-7.873-2.267-10.138c0,0,3.518-2.082,9.214,1.685
			L98.527,37.297z"/>
		<path opacity="0.38" fill="#EF3D25" d="M76.423,57.928c0,0-0.539-10.505,0.651-12.688c0,0-7.06-7.92-2.495-10.185
			c0,0,3.942-1.8,9.64,1.968l14.309,0.273c0,0,5.741-1.754,7.395,1.745c0,0,1.22,3.512-2.958,6.415c0,0-0.543,7.832-2.376,10.89
			C100.588,56.347,90.235,65.159,76.423,57.928z"/>
		<path opacity="0.76" fill="#EF3D25" d="M91.318,70.002c-0.314,4.463,2.74,8.299,6.826,8.57c4.083,0.271,7.65-3.127,7.965-7.592
			c0.314-4.461-2.74-8.296-6.826-8.568C95.2,62.142,91.633,65.54,91.318,70.002z"/>
		<path opacity="0.76" fill="#EF3D25" d="M70.195,69.357c-0.316,4.463,2.741,8.301,6.826,8.568c4.083,0.271,7.65-3.127,7.965-7.59
			c0.314-4.461-2.74-8.298-6.825-8.569C74.075,61.498,70.511,64.895,70.195,69.357z"/>
		<path opacity="0.76" fill="#EF3D25" d="M78.699,40.671l1.401-1.498c-0.885-2.149-4.402-1.295-4.402-1.295"/>
		<path opacity="0.76" fill="#EF3D25" d="M99.574,99.273l-12.912-1.484c1.208-17.092,13.746-10.299,13.746-10.299
			s0.517,2.773,1.386,3.918C101.794,91.408,102.614,98.697,99.574,99.273z"/>
		<path opacity="0.76" fill="#EF3D25" d="M68.149,95.693l14.284,1.537c3.045-16.875-9.103-12.891-9.103-12.891
			s-1.167,0.277-2.814,2.713C70.517,87.053,65.848,92.738,68.149,95.693z"/>
		<g opacity="0.44">
			<path opacity="0.91" fill="#EF3D25" d="M81.244,43.068c0.339-0.832,1.73-1.077,3.109-0.549c1.377,0.53,2.218,1.632,1.879,2.462
				c-0.341,0.832-1.733,1.077-3.111,0.549C81.744,45,80.903,43.9,81.244,43.068z"/>
			<path opacity="0.44" fill="#FFFFFF" d="M83.047,43.996c0.254-0.622,1.127-0.869,1.95-0.556c0.822,0.317,1.284,1.076,1.028,1.697
				c-0.252,0.623-1.126,0.869-1.948,0.554C83.257,45.375,82.795,44.616,83.047,43.996z"/>
		</g>
		<path opacity="0.58" fill="#EF3D25" d="M86.075,47.961c1.399,0.094,2.539,1.075,2.982,2.402c0.627-1.257,1.894-2.079,3.293-1.987
			c1.899,0.126,3.321,1.883,3.176,3.923c-0.143,2.042-1.796,3.595-3.696,3.469c-1.401-0.093-2.54-1.075-2.984-2.402
			c-0.627,1.256-1.893,2.08-3.292,1.988c-1.9-0.126-3.321-1.883-3.177-3.926C82.521,49.388,84.176,47.836,86.075,47.961z"/>
		<path opacity="0.44" fill="#FFFFFF" d="M92.028,47.399c0,0-2.521-4.058-5.3-0.184c0,0,1.458,2.098,2.4,2.167
			C90.066,49.453,91.231,48.268,92.028,47.399z"/>
		<path opacity="0.3" fill="#FFFFFF" d="M97.138,68.672c-0.146,2.1,1.369,3.91,3.39,4.045c2.022,0.133,3.779-1.461,3.929-3.561
			c0.148-2.1-1.369-3.912-3.392-4.044C99.046,64.979,97.285,66.572,97.138,68.672z"/>
		<path opacity="0.3" fill="#FFFFFF" d="M72.182,67.457c-0.146,2.1,1.371,3.91,3.392,4.043c2.021,0.135,3.779-1.459,3.929-3.559
			c0.147-2.102-1.371-3.911-3.392-4.046C74.09,63.762,72.331,65.356,72.182,67.457z"/>
		<path opacity="0.3" fill="#FFFFFF" d="M77.618,86.295c0,0-6.914-1.213-8.679,7.877C68.939,94.172,73.188,87.842,77.618,86.295z"/>
		<path opacity="0.3" fill="#FFFFFF" d="M93.441,87.643c0,0,7.02-0.287,7.491,8.949C100.933,96.592,97.614,89.76,93.441,87.643z"/>
		<path opacity="0.76" fill="#EF3D25" d="M103.369,39.71c0,0-3.364-1.312-4.543,0.703l1.177,1.668"/>
		<path opacity="0.44" fill="#EF3D25" d="M104.392,42.372c0,0,2.264-3.741-1.42-4.3C102.972,38.072,105.375,39.612,104.392,42.372z"
			/>
		<path opacity="0.44" fill="#EF3D25" d="M77.046,35.608c0,0-4.334,1.094-2.138,4.012C74.908,39.62,74.334,36.884,77.046,35.608z"/>
		<path opacity="0.44" fill="#FFFFFF" d="M92.137,55.777c0,0-2.43,0.147-3.226-2.419c0,0-0.795,1.999-3.128,2.01L92.137,55.777z"/>
		<g opacity="0.44">
			<path opacity="0.91" fill="#EF3D25" d="M97.825,44.167c-0.22-0.869-1.564-1.295-3.004-0.955
				c-1.438,0.343-2.428,1.324-2.208,2.193c0.222,0.867,1.566,1.295,3.004,0.952C97.058,46.015,98.045,45.034,97.825,44.167z"/>
			<path opacity="0.44" fill="#FFFFFF" d="M95.906,44.846c-0.164-0.648-0.992-1.009-1.854-0.805
				c-0.859,0.204-1.422,0.896-1.256,1.544c0.163,0.648,0.991,1.01,1.851,0.806C95.507,46.185,96.071,45.497,95.906,44.846z"/>
		</g>
	</g>
</g>
</svg>
