<?xml version="1.0" encoding="utf-8"?>
<!-- Generator: Adobe Illustrator 15.1.0, SVG Export Plug-In . SVG Version: 6.00 Build 0)  -->
<!DOCTYPE svg PUBLIC "-//W3C//DTD SVG 1.1//EN" "http://www.w3.org/Graphics/SVG/1.1/DTD/svg11.dtd">
<svg version="1.1" id="Capa_1" xmlns="http://www.w3.org/2000/svg" xmlns:xlink="http://www.w3.org/1999/xlink" x="0px" y="0px"
	 width="139px" height="145px" viewBox="0 0 139 145" enable-background="new 0 0 139 145" xml:space="preserve">
<g>
	<g>
		<g>
			<g>
				<g>
					<g>
						<defs>
							<rect id="SVGID_1_" x="12.181" y="12.18" width="114.327" height="121.639"/>
						</defs>
						<clipPath id="SVGID_2_">
							<use xlink:href="#SVGID_1_"  overflow="visible"/>
						</clipPath>
						<use xlink:href="#SVGID_1_"  overflow="visible" fill="none" stroke="#595A5C" stroke-width="2" stroke-miterlimit="10"/>
					</g>
					<path fill="none" stroke="#505978" stroke-width="1.0057" stroke-miterlimit="10" d="M138.177,43.162l0.166-5.422
						c-2.367,0-4.355-1.535-5.082-3.66v-3.486c0.727-2.123,2.715-3.658,5.082-3.658l-0.058-4.615c-2.297,0-4.247-1.444-5.024-3.472
						v-3.855c0.777-2.03,2.728-3.475,5.024-3.475l0.056-4.712h-5.08V1.327l-5.612,0.054c0,2.984-2.336,5.403-5.218,5.403
						c-2.881,0-5.212-2.419-5.212-5.403l-4.46-0.054c0,2.984-2.332,5.406-5.214,5.406s-5.217-2.421-5.217-5.406l-5.236-0.218
						c0,2.983-2.337,5.403-5.219,5.403c-2.88,0-5.216-2.42-5.216-5.403l-4.453,0.108c0,2.984-2.334,5.403-5.215,5.403
						c-2.886,0-5.218-2.419-5.218-5.403L65.854,1.27c0,2.988-2.337,5.403-5.219,5.403c-2.881,0-5.216-2.415-5.216-5.403
						l-4.453-0.104c0,2.983-2.337,5.398-5.218,5.398c-2.877,0-5.217-2.415-5.217-5.398L35.294,1c0,2.983-2.333,5.401-5.218,5.401
						c-2.876,0-5.212-2.417-5.212-5.401l-4.457,0.055c0,2.981-2.334,5.403-5.214,5.403c-2.883,0-5.219-2.421-5.219-5.403L5.425,1
						v5.805H0.345L0.4,11.518c2.297,0,4.248,1.445,5.025,3.47v3.862c-0.778,2.026-2.729,3.47-5.025,3.47l-0.057,4.615
						c2.368,0,4.355,1.535,5.083,3.655v3.489c-0.728,2.125-2.715,3.66-5.083,3.66l0.164,5.422c2.197,0,4.074,1.316,4.918,3.201
						v4.408c-0.845,1.879-2.722,3.198-4.918,3.198l0.107,4.613c2.114,0,3.925,1.223,4.811,2.997v4.806
						c-0.886,1.774-2.697,3.001-4.811,3.001l-0.052,6.13c2.152,0,3.997,1.271,4.863,3.101v4.601
						c-0.866,1.829-2.711,3.101-4.863,3.101l-0.109,4.612c2.235,0,4.155,1.365,4.972,3.311v4.188
						c-0.817,1.942-2.737,3.31-4.972,3.31l0.216,5.422c2.072,0,3.852,1.181,4.756,2.896v5.012c-0.904,1.714-2.684,2.895-4.756,2.895
						l0.055,4.615c2.032,0,3.779,1.135,4.701,2.797v5.208c-0.921,1.661-2.668,2.798-4.701,2.798l-0.053,5.813h4.754v5.806
						l4.549-0.056c0-2.982,2.336-5.402,5.219-5.402c2.879,0,5.214,2.42,5.214,5.402L24.864,145c0-2.983,2.336-5.403,5.212-5.403
						c2.884,0,5.218,2.42,5.218,5.403l5.237-0.166c0-2.985,2.339-5.402,5.217-5.402c2.881,0,5.218,2.417,5.218,5.402l4.453-0.108
						c0-2.983,2.334-5.403,5.216-5.403c2.882,0,5.219,2.42,5.219,5.403l5.917,0.056c0-2.985,2.332-5.403,5.218-5.403
						c2.881,0,5.215,2.418,5.215,5.403l4.453,0.11c0-2.983,2.336-5.403,5.216-5.403c2.882,0,5.219,2.42,5.219,5.403l5.236-0.222
						c0-2.984,2.335-5.404,5.217-5.404s5.214,2.42,5.214,5.404l4.46-0.053c0-2.983,2.331-5.405,5.212-5.405
						c2.882,0,5.218,2.422,5.218,5.405l5.612,0.053v-5.478h4.753l-0.053-5.813c-2.032,0-3.779-1.137-4.7-2.8v-5.206
						c0.921-1.662,2.668-2.797,4.7-2.797l0.055-4.615c-2.071,0-3.852-1.181-4.755-2.895v-5.012c0.903-1.712,2.684-2.896,4.755-2.896
						l0.222-5.422c-2.24,0-4.156-1.367-4.977-3.312V94.24c0.82-1.946,2.736-3.312,4.977-3.312l-0.113-4.612
						c-2.152,0-3.998-1.271-4.863-3.101v-4.601c0.865-1.829,2.711-3.101,4.863-3.101l-0.053-6.13c-2.113,0-3.925-1.228-4.811-3.001
						V61.58c0.886-1.773,2.697-2.999,4.811-2.999l0.105-4.613c-2.194,0-4.075-1.318-4.916-3.201v-4.405
						C134.102,44.48,135.982,43.162,138.177,43.162z"/>
					
						<rect x="12.181" y="12.18" fill="#F89C60" stroke="#58595B" stroke-width="2" stroke-miterlimit="10" width="114.327" height="121.639"/>
				</g>
			</g>
		</g>
	</g>
	<ellipse fill="#E31E27" cx="69.344" cy="75.384" rx="35.231" ry="35.242"/>
	<path fill="#F8F9F9" d="M65.613,89.112l0.031-19.598c-0.058-3.095-5.486-3.319-5.745-0.052v13.609
		c-0.007,1.184,0.556,1.841,1.544,2.101v3.94H50.822v-3.94c1.103-0.28,1.693-0.848,1.835-2.241V69.04
		c-0.048-1.035-1.042-1.648-1.866-1.665v-5.119h8.564v1.881c3.694-2.716,8.423-3.25,11.565-0.857
		c8.521-3.125,14.713-1.73,14.99,4.225v15.537c0.012,1.124,0.844,2.12,1.982,2.131v3.94h-9.276l0.052-19.519
		c-0.059-4.019-5.816-2.965-5.762,0v13.454c0.014,1.277,0.918,1.986,1.98,2.125v3.94H65.613z"/>
</g>
</svg>
