<?xml version="1.0" encoding="utf-8"?>
<!-- Generator: Adobe Illustrator 15.1.0, SVG Export Plug-In . SVG Version: 6.00 Build 0)  -->
<!DOCTYPE svg PUBLIC "-//W3C//DTD SVG 1.1//EN" "http://www.w3.org/Graphics/SVG/1.1/DTD/svg11.dtd">
<svg version="1.1" id="Capa_1" xmlns="http://www.w3.org/2000/svg" xmlns:xlink="http://www.w3.org/1999/xlink" x="0px" y="0px"
	 width="50px" height="50px" viewBox="0 0 50 50" enable-background="new 0 0 50 50" xml:space="preserve">
<g>
	<g>
		<g>
			<g>
				<g>
					<g>
						<defs>
							<rect id="SVGID_1_" x="4.703" y="4.304" width="40.595" height="41.391"/>
						</defs>
						<clipPath id="SVGID_2_">
							<use xlink:href="#SVGID_1_"  overflow="visible"/>
						</clipPath>
						<use xlink:href="#SVGID_1_"  overflow="visible" fill="none" stroke="#595A5C" stroke-width="0.75" stroke-miterlimit="10"/>
					</g>
					<path fill="none" stroke="#505978" stroke-width="0.75" stroke-miterlimit="10" d="M49.441,14.847l0.059-1.845
						c-0.841,0-1.547-0.522-1.805-1.246V10.57c0.258-0.722,0.964-1.245,1.805-1.245l-0.021-1.571c-0.815,0-1.508-0.491-1.784-1.181
						V5.261c0.276-0.69,0.969-1.182,1.784-1.182l0.02-1.604h-1.804V0.611l-1.992,0.018c0,1.016-0.83,1.838-1.854,1.838
						c-1.022,0-1.851-0.823-1.851-1.838l-1.583-0.018c0,1.015-0.828,1.839-1.852,1.839s-1.853-0.824-1.853-1.839l-1.859-0.074
						c0,1.015-0.829,1.838-1.853,1.838c-1.022,0-1.853-0.823-1.853-1.838l-1.581,0.037c0,1.015-0.828,1.838-1.852,1.838
						c-1.024,0-1.853-0.823-1.853-1.838l-2.101,0.018c0,1.017-0.83,1.838-1.854,1.838s-1.853-0.822-1.853-1.838l-1.581-0.035
						c0,1.015-0.829,1.836-1.853,1.836c-1.021,0-1.853-0.821-1.853-1.836L12.911,0.5c0,1.015-0.829,1.838-1.853,1.838
						c-1.021,0-1.851-0.823-1.851-1.838L7.625,0.519c0,1.014-0.829,1.838-1.852,1.838c-1.023,0-1.853-0.824-1.853-1.838L2.305,0.5
						v1.976H0.5l0.02,1.604c0.815,0,1.508,0.492,1.784,1.181v1.314C2.028,7.263,1.336,7.754,0.521,7.754L0.5,9.325
						c0.841,0,1.546,0.522,1.805,1.244v1.187c-0.258,0.723-0.964,1.246-1.805,1.246l0.058,1.845c0.78,0,1.447,0.448,1.747,1.089v1.5
						c-0.3,0.64-0.966,1.088-1.747,1.088l0.038,1.57c0.75,0,1.394,0.417,1.708,1.02v1.635C1.99,23.352,1.347,23.77,0.596,23.77
						l-0.019,2.086c0.765,0,1.419,0.434,1.727,1.055v1.566c-0.308,0.622-0.962,1.055-1.727,1.055l-0.039,1.569
						c0.793,0,1.475,0.465,1.766,1.127v1.425c-0.291,0.661-0.972,1.126-1.766,1.126l0.077,1.846c0.735,0,1.368,0.401,1.688,0.984
						v1.706c-0.321,0.583-0.953,0.984-1.688,0.984l0.02,1.571c0.722,0,1.342,0.386,1.669,0.951v1.772
						c-0.327,0.565-0.947,0.952-1.669,0.952l-0.019,1.978h1.688v1.976L3.92,49.48c0-1.015,0.83-1.839,1.853-1.839
						c1.022,0,1.852,0.824,1.852,1.839l1.583,0.02c0-1.015,0.83-1.839,1.851-1.839c1.024,0,1.853,0.824,1.853,1.839l1.859-0.057
						c0-1.016,0.831-1.838,1.853-1.838c1.023,0,1.853,0.822,1.853,1.838l1.581-0.037c0-1.015,0.829-1.838,1.853-1.838
						s1.854,0.823,1.854,1.838l2.101,0.02c0-1.017,0.828-1.839,1.853-1.839c1.023,0,1.852,0.822,1.852,1.839l1.581,0.037
						c0-1.015,0.83-1.838,1.853-1.838c1.023,0,1.853,0.823,1.853,1.838l1.859-0.075c0-1.016,0.829-1.839,1.853-1.839
						s1.852,0.823,1.852,1.839l1.583-0.018c0-1.016,0.828-1.84,1.851-1.84c1.023,0,1.854,0.824,1.854,1.84l1.992,0.018v-1.864h1.688
						l-0.019-1.978c-0.722,0-1.342-0.387-1.669-0.953v-1.771c0.327-0.565,0.947-0.951,1.669-0.951l0.02-1.571
						c-0.735,0-1.367-0.401-1.688-0.984v-1.706c0.321-0.582,0.953-0.984,1.688-0.984l0.079-1.846c-0.796,0-1.477-0.465-1.768-1.126
						v-1.425c0.291-0.662,0.972-1.127,1.768-1.127l-0.041-1.569c-0.764,0-1.419-0.433-1.727-1.055V26.91
						c0.308-0.621,0.963-1.055,1.727-1.055l-0.019-2.086c-0.75,0-1.394-0.417-1.708-1.021v-1.635
						c0.314-0.604,0.958-1.021,1.708-1.021l0.038-1.57c-0.779,0-1.447-0.448-1.746-1.089v-1.499
						C47.994,15.295,48.662,14.847,49.441,14.847z"/>
					
						<rect x="4.703" y="4.304" fill="#F89C60" stroke="#58595B" stroke-width="0.75" stroke-miterlimit="10" width="40.595" height="41.391"/>
				</g>
			</g>
		</g>
	</g>
	<ellipse fill="#E31E27" cx="25" cy="25.811" rx="12.51" ry="11.993"/>
	<path fill="#F8F9F9" d="M23.676,30.482l0.011-6.669c-0.021-1.053-1.947-1.129-2.04-0.018v4.632
		c-0.002,0.402,0.197,0.626,0.549,0.715v1.34h-3.771v-1.34c0.392-0.096,0.601-0.289,0.651-0.764v-4.727
		c-0.017-0.352-0.37-0.561-0.662-0.567v-1.742h3.041v0.64c1.312-0.924,2.99-1.106,4.106-0.292c3.025-1.063,5.224-0.589,5.322,1.438
		v5.286c0.004,0.383,0.3,0.723,0.704,0.727v1.34h-3.294l0.019-6.642c-0.021-1.368-2.065-1.009-2.046,0v4.577
		c0.005,0.436,0.326,0.677,0.703,0.725v1.34H23.676z"/>
</g>
</svg>
