<?xml version="1.0" encoding="utf-8"?>
<!-- Generator: Adobe Illustrator 15.1.0, SVG Export Plug-In . SVG Version: 6.00 Build 0)  -->
<!DOCTYPE svg PUBLIC "-//W3C//DTD SVG 1.1//EN" "http://www.w3.org/Graphics/SVG/1.1/DTD/svg11.dtd">
<svg version="1.1" id="Capa_1" xmlns="http://www.w3.org/2000/svg" xmlns:xlink="http://www.w3.org/1999/xlink" x="0px" y="0px"
	 width="50px" height="50px" viewBox="0 0 50 50" enable-background="new 0 0 50 50" xml:space="preserve">
<g>
	<g>
		<g>
			<g>
				<g>
					<g>
						<defs>
							<rect id="SVGID_1_" x="4.703" y="4.16" width="40.595" height="41.391"/>
						</defs>
						<clipPath id="SVGID_2_">
							<use xlink:href="#SVGID_1_"  overflow="visible"/>
						</clipPath>
						<use xlink:href="#SVGID_1_"  overflow="visible" fill="none" stroke="#595A5C" stroke-width="0.75" stroke-miterlimit="10"/>
					</g>
					<path fill="none" stroke="#505978" stroke-width="0.75" stroke-miterlimit="10" d="M49.441,14.703l0.059-1.845
						c-0.841,0-1.547-0.522-1.805-1.246v-1.186c0.258-0.722,0.964-1.245,1.805-1.245L49.479,7.61c-0.815,0-1.508-0.491-1.784-1.181
						V5.117c0.276-0.69,0.969-1.182,1.784-1.182l0.02-1.604h-1.804V0.467l-1.992,0.018c0,1.015-0.83,1.838-1.854,1.838
						c-1.022,0-1.851-0.823-1.851-1.838l-1.583-0.018c0,1.015-0.828,1.839-1.852,1.839s-1.853-0.824-1.853-1.839l-1.859-0.074
						c0,1.015-0.829,1.838-1.853,1.838c-1.022,0-1.853-0.823-1.853-1.838L29.566,0.43c0,1.015-0.828,1.838-1.852,1.838
						c-1.024,0-1.853-0.823-1.853-1.838l-2.101,0.018c0,1.017-0.83,1.838-1.854,1.838s-1.853-0.822-1.853-1.838l-1.58-0.035
						c0,1.015-0.83,1.836-1.854,1.836c-1.021,0-1.853-0.821-1.853-1.836L12.91,0.356c0,1.015-0.829,1.838-1.853,1.838
						c-1.021,0-1.851-0.823-1.851-1.838L7.624,0.375c0,1.014-0.829,1.838-1.852,1.838c-1.023,0-1.853-0.824-1.853-1.838L2.304,0.356
						v1.976H0.5l0.02,1.604c0.815,0,1.508,0.492,1.784,1.181V6.43C2.028,7.119,1.335,7.61,0.52,7.61L0.5,9.181
						c0.841,0,1.546,0.522,1.804,1.244v1.187C2.046,12.335,1.34,12.857,0.5,12.857l0.058,1.845c0.78,0,1.447,0.448,1.746,1.089v1.5
						c-0.299,0.64-0.966,1.088-1.746,1.088l0.038,1.57c0.75,0,1.394,0.417,1.708,1.02v1.635c-0.314,0.604-0.958,1.021-1.708,1.021
						l-0.019,2.085c0.765,0,1.419,0.434,1.727,1.055v1.566c-0.307,0.623-0.962,1.055-1.727,1.055l-0.039,1.57
						c0.793,0,1.475,0.465,1.765,1.127v1.424c-0.29,0.662-0.972,1.127-1.765,1.127l0.077,1.846c0.735,0,1.368,0.4,1.688,0.984v1.705
						c-0.32,0.584-0.953,0.984-1.688,0.984l0.02,1.572c0.722,0,1.342,0.385,1.668,0.951v1.771c-0.327,0.564-0.947,0.953-1.668,0.953
						l-0.019,1.977h1.688v1.977l1.616-0.02c0-1.016,0.83-1.838,1.853-1.838c1.022,0,1.852,0.822,1.852,1.838l1.583,0.02
						c0-1.014,0.83-1.838,1.851-1.838c1.024,0,1.853,0.824,1.853,1.838l1.859-0.057c0-1.016,0.831-1.838,1.853-1.838
						c1.023,0,1.854,0.822,1.854,1.838l1.58-0.037c0-1.014,0.829-1.838,1.853-1.838s1.854,0.824,1.854,1.838l2.101,0.02
						c0-1.016,0.828-1.838,1.853-1.838c1.023,0,1.852,0.822,1.852,1.838l1.581,0.037c0-1.014,0.83-1.838,1.853-1.838
						c1.023,0,1.853,0.824,1.853,1.838l1.859-0.074c0-1.016,0.829-1.84,1.853-1.84s1.852,0.824,1.852,1.84l1.583-0.018
						c0-1.016,0.828-1.84,1.851-1.84c1.023,0,1.854,0.824,1.854,1.84l1.992,0.018v-1.865h1.688l-0.019-1.977
						c-0.722,0-1.342-0.389-1.669-0.953v-1.771c0.327-0.566,0.947-0.951,1.669-0.951l0.02-1.572c-0.735,0-1.367-0.4-1.688-0.984
						v-1.705c0.321-0.582,0.953-0.984,1.688-0.984l0.079-1.846c-0.796,0-1.477-0.465-1.768-1.127v-1.424
						c0.291-0.662,0.972-1.127,1.768-1.127l-0.04-1.57c-0.766,0-1.42-0.432-1.728-1.055v-1.566c0.308-0.621,0.962-1.055,1.728-1.055
						l-0.02-2.085c-0.75,0-1.394-0.417-1.708-1.021V20.97c0.314-0.604,0.958-1.021,1.708-1.021l0.038-1.57
						c-0.779,0-1.447-0.448-1.746-1.089v-1.499C47.994,15.151,48.662,14.703,49.441,14.703z"/>
					
						<rect x="4.703" y="4.16" fill="#F89C60" stroke="#58595B" stroke-width="0.75" stroke-miterlimit="10" width="40.595" height="41.391"/>
				</g>
			</g>
		</g>
	</g>
	<g>
		<polygon fill="#7A472D" points="32.36,11.469 35.158,6.788 44.235,15.499 39.438,18.261 17.207,39.672 14.526,44.008 5.45,35.297 
			10.129,32.881 		"/>
		<g>
			<path fill-rule="evenodd" clip-rule="evenodd" fill="#C09C4A" d="M26.847,18.824c0.628,1.225,1.167,2.306,1.605,3.231
				l-1.841-2.144l-0.538,0.587c0.61,1.218,1.004,2.105,1.193,2.661l-2.009-2.649l-0.655,0.724c0.293,0.351,0.814,1.023,1.564,2.025
				c0.876,1.147,1.438,1.909,1.676,2.274l0.692-0.771c-0.41-1.397-0.708-2.271-0.907-2.624c0.854,1.04,1.372,1.686,1.549,1.938
				l0.699-0.75c-0.962-2.25-1.782-3.951-2.445-5.106L26.847,18.824L26.847,18.824z"/>
			<path fill-rule="evenodd" clip-rule="evenodd" fill="#C09C4A" d="M32.254,20.846l-0.585,0.676l-0.175-0.247
				c0.019,0.132-0.039,0.304-0.177,0.52c-0.141,0.234-0.313,0.398-0.517,0.497c-0.241,0.127-0.473,0.118-0.697-0.017
				c-0.275-0.163-0.513-0.498-0.727-1.015c-0.627-1.508-0.287-2.609,1.018-3.301L32.254,20.846L32.254,20.846z M29.811,19.37
				c-0.019,0.4,0.151,0.908,0.488,1.519c0.231,0.398,0.443,0.57,0.637,0.513c0.199-0.048,0.259-0.251,0.206-0.609l-1.147-1.952
				l-0.101,0.18C29.847,19.121,29.815,19.235,29.811,19.37L29.811,19.37z"/>
			<path fill-rule="evenodd" clip-rule="evenodd" fill="#C09C4A" d="M19.592,27.912c-0.098,0.09-0.145,0.207-0.131,0.342
				c0.023,0.113,0.072,0.227,0.168,0.324c0.099,0.102,0.214,0.164,0.336,0.18c0.136,0.027,0.258-0.006,0.355-0.094
				c0.107-0.096,0.148-0.203,0.132-0.344c-0.014-0.115-0.077-0.223-0.173-0.32c-0.098-0.102-0.209-0.166-0.33-0.189
				C19.813,27.791,19.691,27.824,19.592,27.912L19.592,27.912z"/>
			<path fill-rule="evenodd" clip-rule="evenodd" fill="#C09C4A" d="M18.565,28.076c1.811,2.547,2.87,4.021,3.179,4.426
				l-0.663,0.797c-1.293-1.812-2.064-2.943-2.3-3.389c0.392,1.17,1.021,2.465,1.889,3.875l-0.607,0.748l-2.618-2.77
				c0.648,1.092,1.374,2.193,2.191,3.297l-0.618,0.779c-0.065-0.08-0.201-0.268-0.407-0.574l-0.763-1.174
				c-0.719-1.193-1.261-2.248-1.645-3.178l0.698-0.828l1.903,1.803c-0.517-1.16-0.841-2.131-0.988-2.91L18.565,28.076L18.565,28.076
				z"/>
			<path fill-rule="evenodd" clip-rule="evenodd" fill="#488D41" d="M20.149,29.275c0.356,0.689,0.988,1.654,1.877,2.896
				l0.657-0.785c-0.697-0.867-1.368-1.777-1.992-2.748L20.149,29.275L20.149,29.275z"/>
			<path fill-rule="evenodd" clip-rule="evenodd" fill="#C09C4A" d="M20,26.393c0.991,1.885,1.983,3.428,2.975,4.656l0.634-0.748
				c-0.992-1.256-2.008-2.779-3.047-4.574L20,26.393L20,26.393z"/>
			<path fill-rule="evenodd" clip-rule="evenodd" fill="#C09C4A" d="M20.959,25.288c0.828,1.541,1.812,3.101,2.926,4.697
				l0.601-0.721c-0.162-0.172-0.485-0.617-0.966-1.332l1.544,0.691l0.562-0.646l-1.874-0.814c-0.01-0.412-0.05-1.047-0.127-1.897
				l-0.62,0.69l0.054,1.303c-0.578-0.883-1.109-1.742-1.599-2.566L20.959,25.288L20.959,25.288z"/>
			<path fill-rule="evenodd" clip-rule="evenodd" fill="#C09C4A" d="M24.409,24.404l1.34,2.094c0.242,0.32,0.398,0.273,0.493-0.143
				l-1.445-2.396l0.597-0.67l1.846,2.914l0.222,0.434c0.138,0.289,0.211,0.561,0.243,0.811c0.1,0.771-0.273,1.297-1.128,1.561
				l-0.289-0.754c0.767-0.18,0.848-0.678,0.24-1.49c-0.372,1.051-0.825,1.197-1.35,0.443l-1.35-2.166L24.409,24.404L24.409,24.404z"
				/>
			<path fill-rule="evenodd" clip-rule="evenodd" fill="#C09C4A" d="M30.767,17.668l1.3,2.148c0.154,0.236,0.298,0.389,0.422,0.463
				c0.279,0.161,0.576,0.042,0.875-0.359c0.092-0.164,0.128-0.329,0.119-0.503c0.566,0.884,0.462,1.391-0.311,1.515l0.22,0.718
				c1.483-0.23,1.722-1.152,0.732-2.776c-1.006-1.63-1.582-2.569-1.718-2.822l-0.571,0.554l1.385,2.335
				c-0.236,0.352-0.378,0.468-0.446,0.335l-1.402-2.207L30.767,17.668L30.767,17.668z"/>
			<path fill-rule="evenodd" clip-rule="evenodd" fill="#FFFFFF" d="M25.548,20.487l0.729-0.799l1.155,1.344l-1.105-2.211l0.8-0.854
				l0.104,0.188c0.657,1.165,1.484,2.905,2.482,5.209l-0.897,0.973c-0.186-0.247-0.517-0.676-1.005-1.279
				c0.169,0.497,0.354,1.084,0.564,1.766l-0.91,0.973c-0.284-0.444-0.874-1.268-1.78-2.443c-0.792-1.036-1.333-1.74-1.636-2.107
				l0.888-0.959l1.373,1.81C26.074,21.576,25.817,21.042,25.548,20.487L25.548,20.487z"/>
			<path fill-rule="evenodd" clip-rule="evenodd" fill="#FFFFFF" d="M30.115,17.77l1.991,3.118l-0.796,0.917l-0.084-0.129
				c-0.158,0.358-0.384,0.614-0.688,0.768c-0.301,0.151-0.584,0.148-0.854-0.018c-0.306-0.181-0.577-0.549-0.807-1.099
				c-0.661-1.582-0.294-2.754,1.108-3.487L30.115,17.77L30.115,17.77z M29.627,19.403c0.003,0.148,0.051,0.347,0.165,0.606
				c0.097,0.223,0.222,0.435,0.377,0.652c0.145,0.201,0.26,0.329,0.349,0.389c0.109,0.054,0.139-0.006,0.113-0.188l-0.966-1.686
				L29.627,19.403L29.627,19.403z"/>
			<path fill-rule="evenodd" clip-rule="evenodd" fill="#FFFFFF" d="M31.05,16.845l1.534,2.39l0.019,0.048
				c0.09-0.168,0.135-0.243,0.129-0.251l-1.436-2.431l0.82-0.793c0.193,0.379,0.798,1.38,1.789,3.008
				c0.924,1.488,0.611,2.485-0.933,3.002l0.012,0.018l-0.048,0.004l-0.303-1.015l0.217-0.088l0.218-0.191
				c0.157-0.197,0.203-0.404,0.126-0.626l-0.038,0.094c-0.299,0.391-0.626,0.51-0.998,0.352c-0.126-0.05-0.25-0.125-0.375-0.24
				c-0.094-0.076-0.158-0.145-0.186-0.206l-1.375-2.252L31.05,16.845L31.05,16.845z"/>
			<path fill-rule="evenodd" clip-rule="evenodd" fill="#FFFFFF" d="M18.233,27.836l3.371,4.691l-0.885,1.049l-1.471-2.123
				c0.146,0.318,0.383,0.773,0.708,1.367l0.573,0.988l-0.797,0.982l-1.669-1.768l1.425,2.053l-0.808,1.014l-0.123-0.141
				c-0.074-0.074-0.21-0.273-0.422-0.576c-0.25-0.365-0.51-0.758-0.763-1.193c-0.723-1.189-1.274-2.252-1.649-3.188l-0.032-0.088
				l0.842-1.027l1.503,1.41c-0.093-0.227-0.231-0.658-0.426-1.289l-0.308-1.041L18.233,27.836L18.233,27.836z"/>
			<path fill-rule="evenodd" clip-rule="evenodd" fill="#FFFFFF" d="M20.48,28.574c0.632,0.965,1.323,1.906,2.059,2.828
				l-0.865,1.041l-0.126-0.174c-0.887-1.25-1.534-2.248-1.931-2.996l0.749-0.875L20.48,28.574L20.48,28.574z"/>
			<path fill-rule="evenodd" clip-rule="evenodd" fill="#FFFFFF" d="M20.362,25.678c1.026,1.779,2.062,3.322,3.1,4.641l-0.833,0.992
				L22.5,31.154c-0.99-1.227-1.996-2.811-3.03-4.771l0.778-0.906L20.362,25.678L20.362,25.678z"/>
			<path fill-rule="evenodd" clip-rule="evenodd" fill="#FFFFFF" d="M21.145,24.446c0.433,0.737,0.896,1.493,1.393,2.271
				l-0.036-0.799l0.907-1.013c0.089,1.011,0.146,1.726,0.159,2.165l1.972,0.869l-0.778,0.889l-1.14-0.521
				c0.291,0.436,0.494,0.707,0.604,0.844l0.092,0.094l0.036,0.027l-0.825,0.977c-1.196-1.703-2.218-3.33-3.057-4.876l-0.047-0.091
				L21.145,24.446L21.145,24.446z"/>
			<path fill-rule="evenodd" clip-rule="evenodd" fill="#FFFFFF" d="M24.084,24.156c0.138,0.211,0.312,0.514,0.541,0.912l0.49,0.842
				c0.17,0.27,0.304,0.445,0.396,0.539c0.111,0.094,0.188,0.078,0.229-0.049l-1.478-2.447l0.816-0.906l1.971,3.114l0.231,0.447
				c0.129,0.311,0.212,0.602,0.245,0.869c0.095,0.84-0.314,1.404-1.241,1.693l-0.148,0.041l-0.394-1.049l0.206-0.123
				c0.077-0.064,0.146-0.148,0.207-0.246c0.153-0.242,0.165-0.471,0.062-0.678c-0.229,0.492-0.5,0.715-0.814,0.672
				c-0.168-0.018-0.353-0.117-0.544-0.307c-0.315-0.301-0.59-0.691-0.859-1.18l-0.706-1.268L24.084,24.156L24.084,24.156z"/>
			<path fill-rule="evenodd" clip-rule="evenodd" fill="#FFFFFF" d="M20.118,27.848c0.129,0.131,0.172,0.273,0.136,0.443
				c-0.022,0.158-0.105,0.297-0.248,0.414c-0.14,0.119-0.282,0.188-0.443,0.207c-0.183,0.027-0.327-0.023-0.452-0.146
				c-0.121-0.137-0.166-0.283-0.138-0.449c0.033-0.158,0.107-0.291,0.25-0.408c0.134-0.129,0.286-0.201,0.447-0.223
				C19.845,27.67,19.998,27.723,20.118,27.848L20.118,27.848z"/>
			<path fill-rule="evenodd" clip-rule="evenodd" fill="#488D41" d="M26.503,18.84c0.629,1.229,1.164,2.313,1.608,3.229
				l-1.833-2.144l-0.55,0.589c0.605,1.221,1.01,2.114,1.199,2.669l-2.004-2.65l-0.664,0.717c0.282,0.338,0.805,1.011,1.57,2.016
				c0.875,1.147,1.434,1.906,1.663,2.276l0.701-0.759c-0.405-1.4-0.711-2.275-0.907-2.624c0.855,1.041,1.372,1.686,1.549,1.938
				l0.689-0.757c-0.96-2.245-1.773-3.945-2.436-5.1L26.503,18.84L26.503,18.84z"/>
			<path fill-rule="evenodd" clip-rule="evenodd" fill="#488D41" d="M31.908,20.87l-0.579,0.678l-0.173-0.255
				c0.011,0.131-0.048,0.299-0.189,0.51c-0.145,0.237-0.318,0.4-0.509,0.51c-0.234,0.117-0.465,0.107-0.698-0.021
				c-0.266-0.157-0.514-0.499-0.738-1.021c-0.625-1.507-0.272-2.606,1.041-3.295L31.908,20.87L31.908,20.87z M29.467,19.398
				c-0.01,0.394,0.15,0.896,0.491,1.51c0.242,0.398,0.454,0.57,0.638,0.519c0.194-0.057,0.259-0.264,0.2-0.618l-1.146-1.959
				l-0.1,0.179C29.508,19.146,29.472,19.263,29.467,19.398L29.467,19.398z"/>
			<path fill-rule="evenodd" clip-rule="evenodd" fill="#488D41" d="M30.427,17.693l1.304,2.135c0.15,0.238,0.291,0.404,0.419,0.477
				c0.28,0.161,0.571,0.033,0.869-0.368c0.092-0.164,0.13-0.325,0.125-0.495c0.563,0.88,0.456,1.382-0.312,1.504l0.221,0.717
				c1.481-0.223,1.72-1.145,0.733-2.764c-1.009-1.636-1.581-2.577-1.719-2.834l-0.576,0.569l1.381,2.326
				c-0.232,0.35-0.375,0.466-0.433,0.339l-1.413-2.206L30.427,17.693L30.427,17.693z"/>
			<path fill-rule="evenodd" clip-rule="evenodd" fill="#488D41" d="M18.221,28.094l3.178,4.426l-0.66,0.799
				c-1.29-1.818-2.061-2.945-2.306-3.396c0.395,1.174,1.024,2.469,1.899,3.881l-0.606,0.742l-2.622-2.768
				c0.646,1.1,1.374,2.191,2.19,3.297l-0.623,0.783c-0.065-0.08-0.196-0.271-0.403-0.57c-0.248-0.359-0.497-0.76-0.751-1.176
				c-0.727-1.193-1.275-2.252-1.649-3.176l0.677-0.832l1.927,1.801c-0.52-1.166-0.844-2.137-0.991-2.916L18.221,28.094
				L18.221,28.094z"/>
			<path fill-rule="evenodd" clip-rule="evenodd" fill="#488D41" d="M19.8,29.295c0.368,0.688,1,1.652,1.881,2.893l0.662-0.789
				c-0.702-0.863-1.365-1.779-2.009-2.742L19.8,29.295L19.8,29.295z"/>
			<path fill-rule="evenodd" clip-rule="evenodd" fill="#488D41" d="M19.656,26.41c1,1.879,1.997,3.432,2.971,4.65l0.636-0.742
				c-0.982-1.262-1.998-2.785-3.041-4.568L19.656,26.41L19.656,26.41z"/>
			<path fill-rule="evenodd" clip-rule="evenodd" fill="#488D41" d="M20.6,25.301c0.851,1.545,1.83,3.109,2.939,4.689l0.607-0.701
				c-0.177-0.193-0.495-0.654-0.968-1.355l1.542,0.709l0.566-0.652l-1.875-0.814c-0.014-0.41-0.055-1.043-0.132-1.894l-0.611,0.685
				l0.052,1.316c-0.575-0.898-1.115-1.752-1.602-2.571L20.6,25.301L20.6,25.301z"/>
			<path fill-rule="evenodd" clip-rule="evenodd" fill="#488D41" d="M25.064,23.309c1.162,1.824,1.767,2.794,1.838,2.912
				l0.222,0.434c0.131,0.287,0.21,0.551,0.243,0.801c0.094,0.781-0.28,1.305-1.135,1.568l-0.274-0.75
				c0.767-0.18,0.842-0.686,0.231-1.504c-0.381,1.057-0.822,1.203-1.344,0.453l-1.357-2.167l0.575-0.646l1.346,2.103
				c0.241,0.32,0.405,0.275,0.5-0.141l-1.456-2.395L25.064,23.309L25.064,23.309z"/>
			<path fill-rule="evenodd" clip-rule="evenodd" fill="#488D41" d="M19.291,27.975c-0.123,0.117-0.186,0.232-0.182,0.361
				c-0.017,0.117,0.023,0.225,0.11,0.311c0.092,0.094,0.204,0.141,0.325,0.145c0.145,0.002,0.274-0.059,0.392-0.164
				c0.124-0.105,0.183-0.225,0.19-0.355c0.006-0.115-0.031-0.219-0.123-0.312c-0.091-0.09-0.199-0.133-0.325-0.135
				C19.539,27.818,19.416,27.869,19.291,27.975L19.291,27.975z"/>
		</g>
	</g>
</g>
</svg>
