<?xml version="1.0" encoding="utf-8"?>
<!-- Generator: Adobe Illustrator 15.1.0, SVG Export Plug-In . SVG Version: 6.00 Build 0)  -->
<!DOCTYPE svg PUBLIC "-//W3C//DTD SVG 1.1//EN" "http://www.w3.org/Graphics/SVG/1.1/DTD/svg11.dtd">
<svg version="1.1" id="Capa_1" xmlns="http://www.w3.org/2000/svg" xmlns:xlink="http://www.w3.org/1999/xlink" x="0px" y="0px"
	 width="139px" height="145px" viewBox="0 0 139 145" enable-background="new 0 0 139 145" xml:space="preserve">
<g>
	<g>
		<g>
			<g>
				<g>
					<g>
						<defs>
							<rect id="SVGID_1_" x="12.108" y="11.798" width="114.327" height="121.639"/>
						</defs>
						<clipPath id="SVGID_2_">
							<use xlink:href="#SVGID_1_"  overflow="visible"/>
						</clipPath>
						<use xlink:href="#SVGID_1_"  overflow="visible" fill="none" stroke="#595A5C" stroke-width="2" stroke-miterlimit="10"/>
					</g>
					<path fill="none" stroke="#505978" stroke-width="1.0057" stroke-miterlimit="10" d="M138.104,42.78l0.166-5.422
						c-2.367,0-4.355-1.535-5.081-3.66v-3.486c0.726-2.123,2.714-3.658,5.081-3.658l-0.058-4.615c-2.297,0-4.247-1.444-5.023-3.472
						v-3.855c0.776-2.03,2.727-3.474,5.023-3.474l0.056-4.713h-5.079V0.947L127.576,1c0,2.983-2.336,5.403-5.218,5.403
						c-2.881,0-5.212-2.42-5.212-5.403l-4.459-0.053c0,2.983-2.333,5.405-5.215,5.405s-5.217-2.421-5.217-5.405L97.02,0.728
						c0,2.983-2.337,5.403-5.219,5.403c-2.88,0-5.216-2.42-5.216-5.403l-4.453,0.109c0,2.983-2.334,5.402-5.215,5.402
						c-2.886,0-5.218-2.419-5.218-5.402l-5.917,0.052c0,2.988-2.337,5.403-5.219,5.403c-2.881,0-5.216-2.415-5.216-5.403
						l-4.452-0.104c0,2.983-2.337,5.398-5.219,5.398c-2.877,0-5.217-2.415-5.217-5.398l-5.237-0.166
						c0,2.983-2.333,5.401-5.218,5.401c-2.876,0-5.212-2.417-5.212-5.401l-4.457,0.055c0,2.981-2.334,5.403-5.214,5.403
						c-2.883,0-5.219-2.421-5.219-5.403l-4.55-0.055v5.805h-5.08l0.055,4.713c2.297,0,4.248,1.444,5.024,3.469v3.862
						c-0.777,2.026-2.728,3.47-5.024,3.47l-0.057,4.615c2.368,0,4.355,1.535,5.082,3.655v3.489c-0.727,2.125-2.714,3.66-5.082,3.66
						l0.164,5.422c2.197,0,4.074,1.316,4.917,3.201v4.408c-0.844,1.879-2.721,3.198-4.917,3.198L0.542,58.2
						c2.114,0,3.925,1.223,4.81,2.997v4.806c-0.885,1.774-2.696,3.001-4.81,3.001l-0.053,6.13c2.154,0,3.998,1.271,4.863,3.101
						v4.601c-0.865,1.829-2.709,3.101-4.863,3.101l-0.108,4.612c2.235,0,4.155,1.365,4.971,3.311v4.188
						c-0.816,1.942-2.736,3.31-4.971,3.31l0.216,5.422c2.072,0,3.852,1.181,4.755,2.896v5.012c-0.903,1.714-2.683,2.895-4.755,2.895
						l0.055,4.615c2.032,0,3.779,1.135,4.7,2.797v5.208c-0.92,1.66-2.667,2.798-4.7,2.798l-0.053,5.813h4.753v5.806l4.55-0.056
						c0-2.983,2.336-5.402,5.219-5.402c2.879,0,5.214,2.419,5.214,5.402l4.457,0.058c0-2.983,2.336-5.403,5.212-5.403
						c2.884,0,5.218,2.42,5.218,5.403l5.237-0.166c0-2.986,2.339-5.402,5.217-5.402c2.882,0,5.219,2.416,5.219,5.402l4.452-0.108
						c0-2.983,2.334-5.403,5.216-5.403c2.882,0,5.219,2.42,5.219,5.403l5.917,0.056c0-2.985,2.332-5.403,5.218-5.403
						c2.881,0,5.215,2.418,5.215,5.403l4.453,0.11c0-2.983,2.336-5.403,5.216-5.403c2.882,0,5.219,2.42,5.219,5.403l5.236-0.222
						c0-2.984,2.335-5.404,5.217-5.404s5.215,2.42,5.215,5.404l4.459-0.052c0-2.984,2.331-5.406,5.212-5.406
						c2.882,0,5.218,2.422,5.218,5.406l5.613,0.052v-5.478h4.752l-0.053-5.813c-2.032,0-3.779-1.138-4.699-2.8v-5.206
						c0.92-1.662,2.667-2.797,4.699-2.797l0.055-4.615c-2.071,0-3.852-1.181-4.754-2.895v-5.012
						c0.902-1.712,2.683-2.896,4.754-2.896l0.222-5.422c-2.24,0-4.156-1.367-4.976-3.311v-4.187
						c0.819-1.946,2.735-3.312,4.976-3.312l-0.112-4.612c-2.154,0-3.999-1.271-4.863-3.101v-4.601
						c0.864-1.829,2.709-3.101,4.863-3.101l-0.054-6.13c-2.113,0-3.925-1.228-4.81-3.001v-4.804c0.885-1.773,2.696-2.999,4.81-2.999
						l0.105-4.613c-2.194,0-4.075-1.318-4.915-3.201v-4.405C134.029,44.099,135.91,42.78,138.104,42.78z"/>
					
						<rect x="12.108" y="11.798" fill="#F89C60" stroke="#58595B" stroke-width="2" stroke-miterlimit="10" width="114.327" height="121.639"/>
				</g>
			</g>
		</g>
	</g>
	<g>
		<polygon fill="#7A472D" points="90,33.277 97.881,19.521 123.443,45.12 109.931,53.238 47.322,116.159 39.775,128.902 
			14.213,103.305 27.39,96.2 		"/>
		<g>
			<path fill-rule="evenodd" clip-rule="evenodd" fill="#C09C4A" d="M74.47,54.893c1.769,3.6,3.287,6.776,4.522,9.498l-5.185-6.301
				l-1.515,1.725c1.719,3.579,2.827,6.187,3.36,7.821l-5.657-7.784l-1.842,2.127c0.823,1.031,2.291,3.007,4.403,5.952
				c2.466,3.37,4.048,5.61,4.719,6.683l1.95-2.267c-1.154-4.106-1.993-6.675-2.556-7.709c2.408,3.054,3.864,4.953,4.363,5.694
				l1.969-2.207c-2.709-6.612-5.021-11.612-6.888-15.006L74.47,54.893L74.47,54.893z"/>
			<path fill-rule="evenodd" clip-rule="evenodd" fill="#C09C4A" d="M89.7,60.835l-1.648,1.987l-0.493-0.727
				c0.054,0.389-0.107,0.893-0.497,1.527c-0.395,0.688-0.881,1.169-1.454,1.459c-0.68,0.375-1.332,0.345-1.964-0.048
				c-0.774-0.48-1.444-1.463-2.047-2.983c-1.764-4.431-0.809-7.668,2.867-9.701L89.7,60.835L89.7,60.835z M82.817,56.498
				c-0.051,1.175,0.428,2.667,1.377,4.462c0.649,1.171,1.247,1.676,1.792,1.509c0.562-0.142,0.729-0.74,0.581-1.789l-3.232-5.738
				l-0.283,0.53C82.921,55.765,82.833,56.102,82.817,56.498L82.817,56.498z"/>
			<path fill-rule="evenodd" clip-rule="evenodd" fill="#C09C4A" d="M54.043,81.602c-0.276,0.261-0.409,0.609-0.37,1.007
				c0.066,0.328,0.205,0.661,0.473,0.95c0.277,0.301,0.603,0.482,0.947,0.528c0.382,0.078,0.726-0.015,1.001-0.277
				c0.3-0.278,0.417-0.596,0.371-1.006c-0.04-0.344-0.218-0.655-0.489-0.942c-0.274-0.301-0.587-0.489-0.929-0.558
				C54.664,81.247,54.319,81.342,54.043,81.602L54.043,81.602z"/>
			<path fill-rule="evenodd" clip-rule="evenodd" fill="#C09C4A" d="M51.15,82.085c5.099,7.483,8.081,11.814,8.952,13.005
				l-1.868,2.339c-3.641-5.325-5.815-8.649-6.477-9.957c1.104,3.438,2.877,7.246,5.319,11.388l-1.71,2.201l-7.373-8.144
				c1.825,3.214,3.868,6.446,6.17,9.693l-1.741,2.29c-0.183-0.236-0.566-0.786-1.147-1.688l-2.147-3.449
				c-2.024-3.508-3.55-6.611-4.631-9.342l1.968-2.432l5.36,5.295c-1.455-3.409-2.37-6.262-2.785-8.55L51.15,82.085L51.15,82.085z"/>
			<path fill-rule="evenodd" clip-rule="evenodd" fill="#488D41" d="M55.609,85.61c1.005,2.021,2.784,4.857,5.287,8.506l1.852-2.307
				c-1.964-2.544-3.855-5.222-5.611-8.075L55.609,85.61L55.609,85.61z"/>
			<path fill-rule="evenodd" clip-rule="evenodd" fill="#C09C4A" d="M55.19,77.136c2.792,5.54,5.585,10.075,8.376,13.684
				l1.785-2.196c-2.793-3.692-5.654-8.171-8.581-13.447L55.19,77.136L55.19,77.136z"/>
			<path fill-rule="evenodd" clip-rule="evenodd" fill="#C09C4A" d="M57.892,73.888c2.333,4.527,5.104,9.113,8.24,13.804l1.69-2.118
				c-0.455-0.505-1.365-1.813-2.718-3.915l4.346,2.029l1.585-1.896l-5.276-2.394c-0.027-1.214-0.14-3.076-0.357-5.578l-1.746,2.031
				l0.152,3.825c-1.629-2.596-3.126-5.12-4.503-7.54L57.892,73.888L57.892,73.888z"/>
			<path fill-rule="evenodd" clip-rule="evenodd" fill="#C09C4A" d="M67.608,71.292l3.773,6.153c0.68,0.944,1.121,0.805,1.389-0.417
				l-4.068-7.043l1.68-1.97l5.198,8.565l0.624,1.275c0.39,0.846,0.596,1.647,0.687,2.381c0.28,2.268-0.771,3.808-3.179,4.585
				l-0.812-2.214c2.158-0.53,2.385-1.992,0.675-4.381c-1.048,3.087-2.324,3.519-3.801,1.302l-3.801-6.364L67.608,71.292
				L67.608,71.292z"/>
			<path fill-rule="evenodd" clip-rule="evenodd" fill="#C09C4A" d="M85.51,51.496l3.661,6.313c0.436,0.693,0.841,1.142,1.189,1.361
				c0.787,0.474,1.622,0.124,2.464-1.056c0.259-0.481,0.359-0.965,0.335-1.477c1.596,2.598,1.301,4.088-0.875,4.452l0.62,2.109
				c4.178-0.676,4.849-3.385,2.063-8.158c-2.833-4.792-4.457-7.55-4.838-8.294l-1.611,1.628l3.901,6.862
				c-0.666,1.034-1.065,1.376-1.258,0.986l-3.947-6.484L85.51,51.496L85.51,51.496z"/>
			<path fill-rule="evenodd" clip-rule="evenodd" fill="#FFFFFF" d="M70.813,59.779l2.055-2.347l3.252,3.949l-3.113-6.499
				l2.255-2.509l0.294,0.555c1.851,3.423,4.179,8.536,6.991,15.309l-2.527,2.858c-0.524-0.726-1.456-1.986-2.832-3.758
				c0.478,1.459,1,3.188,1.591,5.189l-2.562,2.859c-0.802-1.305-2.461-3.726-5.016-7.18c-2.229-3.046-3.752-5.114-4.605-6.193
				l2.5-2.819l3.864,5.32C72.295,62.979,71.573,61.41,70.813,59.779L70.813,59.779z"/>
			<path fill-rule="evenodd" clip-rule="evenodd" fill="#FFFFFF" d="M83.676,51.793l5.609,9.165l-2.241,2.692l-0.238-0.378
				c-0.445,1.052-1.079,1.806-1.937,2.256c-0.845,0.445-1.644,0.436-2.404-0.052c-0.861-0.531-1.627-1.612-2.272-3.229
				C78.33,57.6,79.363,54.153,83.314,52L83.676,51.793L83.676,51.793z M82.301,56.594c0.009,0.435,0.145,1.018,0.466,1.782
				c0.272,0.654,0.625,1.277,1.062,1.916c0.405,0.591,0.731,0.966,0.98,1.142c0.309,0.158,0.392-0.018,0.32-0.551l-2.722-4.953
				L82.301,56.594L82.301,56.594z"/>
			<path fill-rule="evenodd" clip-rule="evenodd" fill="#FFFFFF" d="M86.31,49.078l4.32,7.023l0.053,0.143
				c0.252-0.494,0.378-0.713,0.362-0.739L87,48.362l2.312-2.333c0.544,1.115,2.247,4.055,5.038,8.839
				c2.604,4.374,1.721,7.304-2.626,8.825l0.031,0.052l-0.133,0.014l-0.853-2.982l0.609-0.26l0.612-0.561
				c0.445-0.58,0.574-1.187,0.356-1.842l-0.106,0.276c-0.843,1.147-1.765,1.499-2.812,1.032c-0.355-0.147-0.705-0.365-1.058-0.705
				c-0.263-0.223-0.443-0.426-0.521-0.605l-3.871-6.619L86.31,49.078L86.31,49.078z"/>
			<path fill-rule="evenodd" clip-rule="evenodd" fill="#FFFFFF" d="M50.212,81.375l9.497,13.789l-2.493,3.08l-4.142-6.239
				c0.411,0.936,1.078,2.277,1.995,4.021l1.614,2.906l-2.246,2.887l-4.7-5.197l4.014,6.035l-2.274,2.979l-0.348-0.415
				c-0.208-0.219-0.591-0.805-1.187-1.695c-0.705-1.068-1.435-2.228-2.147-3.504c-2.037-3.499-3.59-6.619-4.646-9.366l-0.091-0.257
				l2.371-3.021l4.232,4.143c-0.259-0.666-0.649-1.932-1.198-3.784l-0.865-3.062L50.212,81.375L50.212,81.375z"/>
			<path fill-rule="evenodd" clip-rule="evenodd" fill="#FFFFFF" d="M56.542,83.545c1.78,2.837,3.727,5.604,5.797,8.312l-2.436,3.06
				l-0.357-0.512c-2.496-3.672-4.319-6.603-5.435-8.801l2.108-2.575L56.542,83.545L56.542,83.545z"/>
			<path fill-rule="evenodd" clip-rule="evenodd" fill="#FFFFFF" d="M56.209,75.034c2.892,5.23,5.808,9.763,8.73,13.638
				l-2.346,2.917l-0.361-0.459c-2.79-3.606-5.621-8.26-8.534-14.022l2.19-2.664L56.209,75.034L56.209,75.034z"/>
			<path fill-rule="evenodd" clip-rule="evenodd" fill="#FFFFFF" d="M58.414,71.415c1.22,2.167,2.526,4.389,3.924,6.674
				l-0.102-2.346l2.556-2.979c0.25,2.972,0.408,5.07,0.447,6.366l5.554,2.554l-2.19,2.609l-3.209-1.532
				c0.82,1.277,1.391,2.076,1.698,2.481l0.261,0.275l0.101,0.078l-2.325,2.87c-3.368-5.003-6.246-9.786-8.606-14.332l-0.133-0.268
				L58.414,71.415L58.414,71.415z"/>
			<path fill-rule="evenodd" clip-rule="evenodd" fill="#FFFFFF" d="M66.694,70.563c0.386,0.62,0.875,1.509,1.522,2.681l1.378,2.476
				c0.477,0.789,0.856,1.309,1.116,1.584c0.315,0.276,0.53,0.229,0.647-0.144l-4.162-7.193l2.298-2.661l5.549,9.152l0.651,1.313
				c0.362,0.914,0.598,1.768,0.689,2.555c0.267,2.47-0.886,4.127-3.496,4.979l-0.416,0.12l-1.109-3.081l0.58-0.365
				c0.217-0.188,0.412-0.433,0.585-0.72c0.43-0.711,0.464-1.384,0.174-1.991c-0.643,1.442-1.407,2.099-2.294,1.972
				c-0.473-0.054-0.991-0.346-1.532-0.9c-0.887-0.883-1.661-2.031-2.42-3.469l-1.988-3.726L66.694,70.563L66.694,70.563z"/>
			<path fill-rule="evenodd" clip-rule="evenodd" fill="#FFFFFF" d="M55.521,81.411c0.364,0.387,0.486,0.802,0.383,1.306
				c-0.063,0.463-0.296,0.873-0.698,1.214c-0.393,0.353-0.794,0.553-1.25,0.611c-0.514,0.076-0.921-0.072-1.271-0.432
				c-0.341-0.401-0.469-0.832-0.389-1.318c0.093-0.465,0.303-0.86,0.705-1.2c0.376-0.381,0.804-0.595,1.258-0.655
				C54.753,80.891,55.182,81.043,55.521,81.411L55.521,81.411z"/>
			<path fill-rule="evenodd" clip-rule="evenodd" fill="#488D41" d="M73.503,54.941c1.772,3.612,3.278,6.798,4.531,9.49
				l-5.164-6.299l-1.548,1.731c1.705,3.587,2.844,6.211,3.377,7.843l-5.643-7.788l-1.871,2.108c0.796,0.994,2.266,2.969,4.419,5.923
				c2.465,3.372,4.039,5.6,4.685,6.687l1.974-2.228c-1.141-4.115-2-6.687-2.555-7.71c2.409,3.059,3.864,4.954,4.364,5.695
				l1.94-2.224c-2.702-6.599-4.993-11.593-6.86-14.989L73.503,54.941L73.503,54.941z"/>
			<path fill-rule="evenodd" clip-rule="evenodd" fill="#488D41" d="M88.726,60.904l-1.629,1.992l-0.488-0.749
				c0.031,0.385-0.135,0.877-0.534,1.498c-0.407,0.697-0.896,1.177-1.432,1.499c-0.66,0.344-1.31,0.314-1.968-0.062
				c-0.748-0.462-1.446-1.465-2.079-3.001c-1.761-4.43-0.766-7.659,2.932-9.686L88.726,60.904L88.726,60.904z M81.85,56.58
				c-0.025,1.158,0.425,2.634,1.383,4.439c0.683,1.171,1.279,1.676,1.798,1.524c0.547-0.168,0.728-0.776,0.563-1.816l-3.226-5.756
				l-0.281,0.527C81.965,55.837,81.865,56.183,81.85,56.58L81.85,56.58z"/>
			<path fill-rule="evenodd" clip-rule="evenodd" fill="#488D41" d="M84.554,51.57l3.672,6.273c0.424,0.701,0.818,1.189,1.181,1.401
				c0.788,0.473,1.607,0.097,2.446-1.081c0.259-0.482,0.368-0.954,0.353-1.453c1.588,2.586,1.285,4.062-0.879,4.419l0.621,2.107
				c4.172-0.655,4.842-3.362,2.063-8.122c-2.839-4.808-4.451-7.572-4.84-8.33l-1.621,1.671l3.89,6.836
				c-0.656,1.028-1.058,1.369-1.221,0.996l-3.978-6.481L84.554,51.57L84.554,51.57z"/>
			<path fill-rule="evenodd" clip-rule="evenodd" fill="#488D41" d="M50.179,82.134l8.952,13.006L57.27,97.49
				c-3.633-5.346-5.802-8.659-6.492-9.982c1.112,3.45,2.886,7.256,5.348,11.404l-1.706,2.181l-7.387-8.135
				c1.82,3.235,3.871,6.444,6.17,9.691l-1.754,2.299c-0.184-0.234-0.552-0.794-1.138-1.676c-0.698-1.053-1.399-2.23-2.114-3.451
				c-2.046-3.512-3.59-6.618-4.644-9.333l1.905-2.447l5.427,5.29c-1.463-3.424-2.376-6.278-2.792-8.564L50.179,82.134L50.179,82.134
				z"/>
			<path fill-rule="evenodd" clip-rule="evenodd" fill="#488D41" d="M54.626,85.666c1.039,2.021,2.818,4.856,5.298,8.5l1.866-2.318
				c-1.978-2.536-3.845-5.229-5.657-8.061L54.626,85.666L54.626,85.666z"/>
			<path fill-rule="evenodd" clip-rule="evenodd" fill="#488D41" d="M54.219,77.186c2.817,5.521,5.626,10.084,8.367,13.668
				l1.792-2.182c-2.766-3.71-5.628-8.186-8.566-13.425L54.219,77.186L54.219,77.186z"/>
			<path fill-rule="evenodd" clip-rule="evenodd" fill="#488D41" d="M56.881,73.927c2.396,4.542,5.153,9.136,8.279,13.779
				l1.71-2.062c-0.498-0.564-1.396-1.917-2.728-3.979l4.344,2.084l1.592-1.917L64.8,79.439c-0.037-1.209-0.153-3.069-0.369-5.569
				l-1.722,2.015l0.145,3.866c-1.619-2.639-3.14-5.146-4.51-7.555L56.881,73.927L56.881,73.927z"/>
			<path fill-rule="evenodd" clip-rule="evenodd" fill="#488D41" d="M69.451,68.074c3.274,5.359,4.977,8.21,5.177,8.558l0.626,1.274
				c0.368,0.843,0.591,1.616,0.685,2.351c0.263,2.294-0.79,3.836-3.198,4.612l-0.771-2.204c2.159-0.531,2.368-2.018,0.651-4.419
				c-1.073,3.103-2.315,3.532-3.786,1.328l-3.822-6.37l1.619-1.899l3.79,6.178c0.681,0.944,1.142,0.812,1.409-0.41l-4.097-7.04
				L69.451,68.074L69.451,68.074z"/>
			<path fill-rule="evenodd" clip-rule="evenodd" fill="#488D41" d="M53.193,81.786c-0.348,0.343-0.523,0.68-0.512,1.058
				c-0.047,0.347,0.066,0.666,0.31,0.914c0.261,0.277,0.576,0.414,0.918,0.426c0.407,0.009,0.772-0.169,1.102-0.481
				c0.351-0.31,0.516-0.661,0.538-1.043c0.014-0.343-0.088-0.646-0.349-0.921c-0.254-0.264-0.561-0.389-0.915-0.395
				C53.891,81.328,53.543,81.477,53.193,81.786L53.193,81.786z"/>
		</g>
	</g>
</g>
</svg>
