<?xml version="1.0" encoding="utf-8"?>
<!-- Generator: Adobe Illustrator 15.1.0, SVG Export Plug-In . SVG Version: 6.00 Build 0)  -->
<!DOCTYPE svg PUBLIC "-//W3C//DTD SVG 1.1//EN" "http://www.w3.org/Graphics/SVG/1.1/DTD/svg11.dtd">
<svg version="1.1" id="Capa_1" xmlns="http://www.w3.org/2000/svg" xmlns:xlink="http://www.w3.org/1999/xlink" x="0px" y="0px"
	 width="126.75px" height="130.068px" viewBox="0 0 126.75 130.068" enable-background="new 0 0 126.75 130.068"
	 xml:space="preserve">
<g>
	<g>
		<g>
			<g>
				<g>
					<defs>
						<rect id="SVGID_1_" x="11.657" y="10.874" width="102.729" height="107.424"/>
					</defs>
					<clipPath id="SVGID_2_">
						<use xlink:href="#SVGID_1_"  overflow="visible"/>
					</clipPath>
					<use xlink:href="#SVGID_1_"  overflow="visible" fill="none" stroke="#595A5C" stroke-width="2" stroke-miterlimit="10"/>
				</g>
				
					<path fill="none" stroke="#595A5C" stroke-width="2" stroke-linecap="round" stroke-linejoin="round" stroke-miterlimit="10" d="
					M124.872,38.235l0.148-4.79c-2.127,0-3.913-1.355-4.566-3.231v-3.078c0.653-1.875,2.439-3.231,4.566-3.231l-0.052-4.075
					c-2.063,0-3.816-1.276-4.515-3.066v-3.404c0.698-1.793,2.451-3.069,4.515-3.069l0.05-4.162h-4.564V1.29l-5.042,0.047
					c0,2.635-2.1,4.771-4.689,4.771c-2.588,0-4.684-2.137-4.684-4.771l-4.007-0.048c0,2.635-2.096,4.774-4.686,4.774
					s-4.688-2.14-4.688-4.774l-4.705-0.192c0,2.634-2.1,4.771-4.688,4.771c-2.588,0-4.688-2.137-4.688-4.771l-4.001,0.096
					c0,2.635-2.098,4.771-4.686,4.771c-2.594,0-4.688-2.137-4.688-4.771l-5.317,0.047c0,2.638-2.1,4.771-4.689,4.771
					s-4.688-2.134-4.688-4.771l-4-0.093c0,2.635-2.1,4.768-4.689,4.768c-2.586,0-4.688-2.133-4.688-4.768L32.427,1
					c0,2.635-2.098,4.771-4.689,4.771c-2.583,0-4.683-2.136-4.683-4.771l-4.005,0.05c0,2.633-2.098,4.771-4.685,4.771
					c-2.59,0-4.689-2.139-4.689-4.771L5.587,1.001v5.126H1.022l0.05,4.162c2.063,0,3.816,1.276,4.515,3.065v3.41
					c-0.699,1.788-2.451,3.064-4.515,3.064l-0.052,4.075c2.127,0,3.914,1.356,4.566,3.229v3.081
					c-0.653,1.876-2.439,3.231-4.566,3.231l0.147,4.79c1.975,0,3.661,1.162,4.419,2.826v3.892c-0.758,1.661-2.445,2.825-4.419,2.825
					l0.097,4.073c1.899,0,3.526,1.081,4.322,2.646v4.245c-0.796,1.565-2.423,2.65-4.322,2.65l-0.048,5.413
					c1.935,0,3.592,1.123,4.37,2.739v4.062c-0.778,1.615-2.435,2.738-4.37,2.738L1.12,80.419c2.008,0,3.733,1.207,4.467,2.924v3.699
					c-0.734,1.717-2.459,2.924-4.467,2.924l0.194,4.787c1.862,0,3.461,1.043,4.273,2.557v4.428
					c-0.812,1.514-2.411,2.557-4.273,2.557l0.05,4.076c1.826,0,3.396,1.002,4.223,2.469v4.6c-0.828,1.467-2.397,2.471-4.223,2.471
					l-0.047,5.135h4.271v5.127l4.088-0.049c0-2.635,2.1-4.771,4.689-4.771c2.587,0,4.685,2.137,4.685,4.771l4.005,0.051
					c0-2.635,2.1-4.771,4.683-4.771c2.592,0,4.689,2.137,4.689,4.771l4.705-0.146c0-2.637,2.102-4.771,4.688-4.771
					c2.59,0,4.689,2.135,4.689,4.771l4-0.096c0-2.635,2.098-4.771,4.688-4.771s4.689,2.137,4.689,4.771l5.317,0.049
					c0-2.637,2.095-4.771,4.688-4.771c2.588,0,4.686,2.135,4.686,4.771l4.001,0.098c0-2.635,2.1-4.771,4.688-4.771
					c2.589,0,4.688,2.137,4.688,4.771l4.705-0.195c0-2.637,2.098-4.773,4.688-4.773s4.686,2.137,4.686,4.773l4.007-0.047
					c0-2.635,2.096-4.773,4.684-4.773c2.59,0,4.689,2.139,4.689,4.773l5.042,0.047v-4.838h4.271l-0.048-5.135
					c-1.825,0-3.395-1.004-4.223-2.473v-4.598c0.828-1.467,2.397-2.469,4.223-2.469l0.05-4.076c-1.861,0-3.461-1.043-4.272-2.557
					V97.31c0.812-1.512,2.411-2.557,4.272-2.557l0.198-4.787c-2.012,0-3.734-1.207-4.471-2.924v-3.697
					c0.736-1.719,2.459-2.926,4.471-2.926l-0.101-4.072c-1.935,0-3.592-1.123-4.37-2.738v-4.062c0.778-1.616,2.436-2.739,4.37-2.739
					l-0.048-5.413c-1.899,0-3.526-1.085-4.322-2.651v-4.241c0.796-1.566,2.423-2.649,4.322-2.649l0.096-4.073
					c-1.973,0-3.662-1.164-4.418-2.826v-3.891C121.21,39.399,122.899,38.235,124.872,38.235z"/>
				
					<rect x="11.657" y="10.874" fill="#F89C60" stroke="#58595B" stroke-width="2" stroke-miterlimit="10" width="102.729" height="107.424"/>
			</g>
		</g>
	</g>
	<g>
		<path fill-rule="evenodd" clip-rule="evenodd" fill="#F37021" d="M61.923,29.276c0.603,0.709,1.591,0.709,2.193,0l1.253-1.471
			c0.602-0.709,1.478-0.632,1.94,0.172l0.965,1.669c0.466,0.803,1.435,0.976,2.157,0.384l1.498-1.227
			c0.725-0.593,1.567-0.363,1.881,0.51l0.646,1.811c0.31,0.873,1.236,1.213,2.051,0.759l1.701-0.946
			c0.817-0.455,1.607-0.08,1.755,0.833l0.308,1.896c0.148,0.913,0.995,1.411,1.883,1.107l1.842-0.632
			c0.887-0.305,1.596,0.203,1.577,1.127l-0.043,1.919c-0.018,0.924,0.724,1.563,1.653,1.42l1.926-0.298
			c0.929-0.143,1.533,0.48,1.348,1.387l-0.388,1.881c-0.19,0.907,0.427,1.667,1.366,1.688l1.949,0.047
			c0.94,0.022,1.423,0.742,1.074,1.599l-0.725,1.783c-0.347,0.86,0.118,1.715,1.041,1.901l1.91,0.388
			c0.918,0.187,1.263,0.98,0.765,1.764l-1.035,1.627c-0.499,0.784-0.194,1.708,0.678,2.053l1.809,0.716
			c0.873,0.346,1.069,1.187,0.437,1.87l-1.315,1.419c-0.633,0.683-0.502,1.646,0.293,2.139l1.652,1.023
			c0.794,0.492,0.834,1.355,0.087,1.916l-1.551,1.165c-0.746,0.562-0.791,1.532-0.099,2.156l1.44,1.297
			c0.691,0.625,0.573,1.48-0.264,1.901l-1.737,0.874c-0.836,0.42-1.057,1.367-0.489,2.105l1.183,1.527
			c0.566,0.734,0.295,1.557-0.603,1.822l-1.867,0.557c-0.901,0.266-1.289,1.16-0.863,1.984l0.884,1.711
			c0.426,0.826,0.01,1.584-0.924,1.689l-1.938,0.217c-0.934,0.105-1.477,0.918-1.208,1.803l0.558,1.838
			c0.27,0.887-0.276,1.561-1.215,1.502l-1.945-0.127c-0.938-0.062-1.62,0.639-1.518,1.559l0.218,1.908
			c0.104,0.918-0.558,1.486-1.468,1.264l-1.893-0.469c-0.91-0.225-1.709,0.346-1.773,1.268l-0.135,1.916
			c-0.063,0.924-0.817,1.365-1.673,0.984l-1.777-0.791c-0.855-0.381-1.744,0.039-1.976,0.936l-0.479,1.861
			c-0.23,0.896-1.052,1.199-1.824,0.674l-1.605-1.092c-0.772-0.525-1.725-0.268-2.115,0.576l-0.809,1.746
			c-0.39,0.842-1.253,0.996-1.917,0.342l-1.38-1.355c-0.667-0.652-1.65-0.566-2.183,0.193l-1.117,1.578
			c-0.535,0.758-1.411,0.758-1.948,0l-1.114-1.578c-0.536-0.76-1.518-0.846-2.183-0.193l-1.383,1.355
			c-0.664,0.654-1.526,0.5-1.917-0.342l-0.808-1.746c-0.39-0.844-1.34-1.102-2.112-0.576l-1.605,1.092
			c-0.774,0.525-1.596,0.223-1.828-0.674l-0.477-1.861c-0.231-0.896-1.12-1.316-1.976-0.936l-1.778,0.791
			c-0.855,0.381-1.61-0.061-1.673-0.984l-0.135-1.916c-0.063-0.922-0.86-1.492-1.773-1.268l-1.89,0.469
			c-0.912,0.223-1.573-0.346-1.469-1.264l0.216-1.908c0.103-0.92-0.578-1.621-1.518-1.559l-1.945,0.127
			c-0.937,0.059-1.485-0.615-1.215-1.502l0.559-1.838c0.269-0.885-0.275-1.697-1.208-1.803L30.875,82.3
			c-0.934-0.105-1.348-0.863-0.925-1.689l0.885-1.711c0.424-0.824,0.037-1.719-0.861-1.984l-1.868-0.557
			c-0.9-0.266-1.172-1.088-0.602-1.822l1.18-1.527c0.567-0.738,0.347-1.686-0.49-2.105l-1.736-0.874
			c-0.837-0.421-0.953-1.276-0.261-1.901l1.438-1.297c0.692-0.624,0.647-1.594-0.097-2.156l-1.55-1.165
			c-0.748-0.561-0.709-1.424,0.087-1.916l1.65-1.023c0.794-0.494,0.926-1.457,0.292-2.139l-1.314-1.419
			c-0.631-0.684-0.437-1.524,0.436-1.87l1.808-0.716c0.872-0.346,1.178-1.269,0.678-2.053l-1.036-1.627
			c-0.498-0.784-0.153-1.577,0.766-1.764l1.91-0.388c0.921-0.186,1.389-1.041,1.04-1.901l-0.723-1.783
			c-0.35-0.857,0.135-1.577,1.072-1.599l1.95-0.047c0.939-0.021,1.557-0.78,1.367-1.688l-0.388-1.881
			c-0.188-0.906,0.419-1.53,1.348-1.387l1.926,0.298c0.929,0.143,1.671-0.496,1.653-1.42l-0.041-1.919
			c-0.021-0.924,0.688-1.432,1.576-1.127l1.842,0.632c0.887,0.304,1.735-0.194,1.881-1.107l0.31-1.896
			c0.147-0.913,0.938-1.288,1.754-0.833l1.699,0.946c0.817,0.454,1.742,0.114,2.052-0.759l0.648-1.811
			c0.312-0.873,1.156-1.103,1.879-0.51l1.498,1.227c0.724,0.592,1.693,0.418,2.158-0.384l0.963-1.669
			c0.466-0.804,1.342-0.881,1.941-0.172L61.923,29.276L61.923,29.276z"/>
		<path fill-rule="evenodd" clip-rule="evenodd" fill="#4F2800" d="M75.642,71.717c-1.915-1.946-5.713,0.243-5.713,0.243
			c-0.926,0.486-1.73,0.734-2.67,0.906c-0.259,0-0.452-0.188-0.389-0.379c0.389-2.16,2.26-3.81,2.13-6.223
			c2.217-0.904,4.432-1.901,6.459-3.135c1.27-1.209,2.538-2.133,3.808-3.268l1.344-1.468c2.514-3.236,4.254-7.49,2.126-11.361
			c-1.806-2.983-5.031-4.252-8.449-4.315C67,42.906,61.453,47.285,56.102,51.919c-5.805,5.841-11.095,12.06-14.126,19.043
			c-1.032,3.108-2.58,6.538-0.774,9.774c0.645,1.207,2,1.904,3.42,1.904c5.158-0.381,7.674-5.775,10.253-9.393
			c1.16-1.461,2.323-3.238,4-4.254c0.192,0,0.129,0.189,0.129,0.381c-1.097,3.428-4.708,6.475-3.289,10.602
			c0.772,1.713,2.708,2.473,4.578,2.664c3.998,0.127,8.263-1.252,10.273-2.781C71.661,79.028,77.903,74.015,75.642,71.717
			L75.642,71.717z M66.355,55.157c1.548-1.968,3.613-3.935,5.804-4.952c0.259-0.063,0.451,0.127,0.451,0.318
			c-0.515,2.348-2.386,4.316-4.192,5.904c-1.548,1.143-3.029,2.031-4.771,2.728C64.291,57.697,65.516,56.554,66.355,55.157
			L66.355,55.157z"/>
		<path fill-rule="evenodd" clip-rule="evenodd" fill="#FFF200" d="M70.308,74.304c-1.819,0.83-3.832,1.695-5.565,0.34
			c-1.29-1.078-0.515-2.982,0-4.252c0.452-1.586,2-2.92,1.677-4.697c-0.128-0.381-0.903-0.762-0.644-1.207
			c4.449-1.015,8.575-3.046,11.93-6.538c2.58-2.857,4.58-6.601,2.58-10.157c-3.417-4.38-9.995-2.729-13.994-0.38
			c-4.321,2.222-7.741,5.776-11.289,9.267c-2.191,2.54-4.385,5.333-6.448,8.062c-2.646,4.125-5.291,8.188-5.611,13.075
			c0,0.889,0.515,1.713,1.291,2.16c0.772,0.252,1.481-0.129,2.126-0.385c3.355-2.219,4.966-5.965,7.354-8.947
			c1.418-1.778,2.903-4.062,5.29-4.508c0.773-0.189,1.482,0.189,2.063,0.699c0.837,0.697,0.451,2.094,0.322,2.984
			c-0.774,1.84-1.484,3.553-2.451,5.33c-0.388,1.143-1.161,2.223-0.774,3.555c0.322,0.762,1.226,1.143,2,1.334
			c3.903,0.117,7.32-1.213,10.346-3.293c0,0,2.684-1.945,2.684-3.039C73.193,72.612,70.308,74.304,70.308,74.304L70.308,74.304z
			 M59.519,62.774c-0.193-0.063-0.515,0-0.515-0.19c0.837-2.413,2.449-4.57,3.869-6.792c2.581-3.237,5.354-7.364,9.674-8.252
			c0.903-0.064,1.677,0.253,2.131,0.953c1.029,1.649,0.19,3.553-0.582,5.014C70.936,58.84,65.258,61.694,59.519,62.774
			L59.519,62.774z"/>
	</g>
</g>
</svg>
