<svg xmlns="http://www.w3.org/2000/svg" width="297" height="310" viewBox="0 0 297 310"><path fill="#A6A8AC" d="M270.903 1.24L144.64.83 1.507.354.5 308.387l295.072.968.526-159.84.402-123.04c.05-13.893-11.416-25.188-25.597-25.235z"/><path fill="#BBBDBF" d="M31.166.454l202.298.668-.35 105.633-202.297-.668z"/><path fill="#6E6F71" d="M76.797.606l156.668.517-.35 105.63-156.667-.516z"/><path fill="#D1D2D3" d="M166.49 15.34l41.825.137-.3 91.19-41.825-.137z"/><path fill="#F2F2F2" d="M268.19 309.264l-238.033-.778.613-187.203 238.04.782z"/><path fill="#6E6F71" d="M10.5 271.69l12.172.04-.04 12.162-12.17-.04zM30.2 292.274l238.037.785-.053 16.214-238.036-.785z"/><path stroke="#929497" stroke-width="3.103" stroke-miterlimit="10" fill="none" d="M30.604 202.396l238.04.784M31.142 234.112l238.037.78M31.047 262.13l238.04.777"/><path fill="#FCE9A1" d="M268.646 171.36l-238.037-.776.16-49.3 238.04.78z"/></svg>