<?xml version="1.0" encoding="utf-8"?>
<!-- Generator: Adobe Illustrator 15.1.0, SVG Export Plug-In . SVG Version: 6.00 Build 0)  -->
<!DOCTYPE svg PUBLIC "-//W3C//DTD SVG 1.1//EN" "http://www.w3.org/Graphics/SVG/1.1/DTD/svg11.dtd">
<svg version="1.1" id="Capa_1" xmlns="http://www.w3.org/2000/svg" xmlns:xlink="http://www.w3.org/1999/xlink" x="0px" y="0px"
	 width="306px" height="267px" viewBox="0 0 306 267" enable-background="new 0 0 306 267" xml:space="preserve">
<g>
	<ellipse opacity="0.63" fill="#515C7A" cx="153" cy="259.88" rx="153.44" ry="6.718"/>
	<g>
		<path fill="#F69C82" d="M199.832,150.055c-2.931,1.215-4.328,4.578-3.114,7.513c1.217,2.935,4.586,4.326,7.516,3.113"/>
		<path fill="none" stroke="#515C7A" stroke-width="4.1211" stroke-linecap="round" stroke-miterlimit="10" d="M195.483,97.402
			c-7.184,5.949-9.996,16.106-6.236,25.181l8.748,21.118"/>
		<path fill="#CCD0D8" d="M213.077,169.255c0.308,0.739,1.16,1.097,1.904,0.788l7.018-2.91c0.742-0.306,1.099-1.162,0.791-1.9
			l-13.301-32.102c-0.307-0.744-1.163-1.096-1.903-0.787l-7.019,2.906c-0.744,0.307-1.096,1.16-0.79,1.902L213.077,169.255z"/>
		<g>
			
				<line fill="none" stroke="#515C7A" stroke-width="1.3737" stroke-miterlimit="10" x1="222.619" y1="164.53" x2="212.909" y2="168.554"/>
			
				<line fill="none" stroke="#515C7A" stroke-width="1.3737" stroke-miterlimit="10" x1="221.739" y1="163" x2="212.033" y2="167.022"/>
			
				<line fill="none" stroke="#515C7A" stroke-width="1.3737" stroke-miterlimit="10" x1="221.069" y1="161.38" x2="211.361" y2="165.405"/>
			
				<line fill="none" stroke="#515C7A" stroke-width="1.3737" stroke-miterlimit="10" x1="220.398" y1="159.762" x2="210.691" y2="163.786"/>
			
				<line fill="none" stroke="#515C7A" stroke-width="1.3737" stroke-miterlimit="10" x1="219.729" y1="158.145" x2="210.021" y2="162.167"/>
			
				<line fill="none" stroke="#515C7A" stroke-width="1.3737" stroke-miterlimit="10" x1="219.06" y1="156.528" x2="209.353" y2="160.548"/>
			
				<line fill="none" stroke="#515C7A" stroke-width="1.3737" stroke-miterlimit="10" x1="218.39" y1="154.909" x2="208.681" y2="158.93"/>
			
				<line fill="none" stroke="#515C7A" stroke-width="1.3737" stroke-miterlimit="10" x1="217.718" y1="153.288" x2="208.009" y2="157.31"/>
			
				<line fill="none" stroke="#515C7A" stroke-width="1.3737" stroke-miterlimit="10" x1="217.046" y1="151.669" x2="207.339" y2="155.692"/>
			
				<line fill="none" stroke="#515C7A" stroke-width="1.3737" stroke-miterlimit="10" x1="216.377" y1="150.055" x2="206.669" y2="154.075"/>
			
				<line fill="none" stroke="#515C7A" stroke-width="1.3737" stroke-miterlimit="10" x1="215.708" y1="148.437" x2="205.998" y2="152.458"/>
			
				<line fill="none" stroke="#515C7A" stroke-width="1.3737" stroke-miterlimit="10" x1="215.036" y1="146.817" x2="205.328" y2="150.838"/>
			
				<line fill="none" stroke="#515C7A" stroke-width="1.3737" stroke-miterlimit="10" x1="214.366" y1="145.2" x2="204.657" y2="149.22"/>
			
				<line fill="none" stroke="#515C7A" stroke-width="1.3737" stroke-miterlimit="10" x1="213.694" y1="143.579" x2="203.987" y2="147.602"/>
			
				<line fill="none" stroke="#515C7A" stroke-width="1.3737" stroke-miterlimit="10" x1="213.024" y1="141.962" x2="203.317" y2="145.985"/>
			
				<line fill="none" stroke="#515C7A" stroke-width="1.3737" stroke-miterlimit="10" x1="212.356" y1="140.345" x2="202.648" y2="144.368"/>
			
				<line fill="none" stroke="#515C7A" stroke-width="1.3737" stroke-miterlimit="10" x1="211.693" y1="138.724" x2="201.985" y2="142.747"/>
			
				<line fill="none" stroke="#515C7A" stroke-width="1.3737" stroke-miterlimit="10" x1="211.026" y1="137.108" x2="201.315" y2="141.133"/>
			
				<line fill="none" stroke="#515C7A" stroke-width="1.3737" stroke-miterlimit="10" x1="210.354" y1="135.49" x2="200.644" y2="139.51"/>
			
				<line fill="none" stroke="#515C7A" stroke-width="1.3737" stroke-miterlimit="10" x1="209.685" y1="133.872" x2="199.974" y2="137.892"/>
		</g>
		<path fill="#CCD0D8" d="M206.046,165.056c0.307,0.741,1.158,1.091,1.9,0.783l1.826-0.755c0.746-0.312,1.098-1.158,0.79-1.903
			l-8.364-20.188c-0.307-0.742-1.158-1.099-1.904-0.788l-1.826,0.755c-0.742,0.309-1.094,1.162-0.787,1.903L206.046,165.056z"/>
		<path opacity="0.35" fill="#FFFFFF" d="M209.429,133.006c-0.307-0.744-1.359-0.828-2.102-0.521l-6.95,2.861
			c-0.743,0.307-0.95,0.982-0.646,1.726l2.154,5.452c-0.389-0.257-1.199-0.6-1.664-0.408l-1.826,0.756
			c-0.741,0.311-1.094,1.162-0.788,1.904l2.177,5.257c-2.959,1.347-4.252,4.65-3.093,7.448c1.159,2.801,4.277,4.376,7.542,3.2
			l1.74,4.284"/>
	</g>
	<g>
		<path fill="#AAA4D1" stroke="#788893" stroke-width="3" stroke-miterlimit="10" d="M11.62,120.111
			c0.576,3.125,3.571,5.194,6.691,4.618l26.746-4.92c3.119-0.576,5.184-3.574,4.606-6.699l-7.36-39.99
			c-0.574-3.128-3.57-5.195-6.691-4.622L8.869,73.42c-3.12,0.575-5.185,3.574-4.61,6.698L11.62,120.111z"/>
		<path fill="#FEECAF" stroke="#788893" stroke-width="3" stroke-miterlimit="10" d="M31.402,69.274L29.422,58.51
			c-0.307-1.67-1.774-2.798-3.278-2.521L13.263,58.36c-1.505,0.277-2.472,1.854-2.165,3.521l1.98,10.765L31.402,69.274z"/>
		<g>
			
				<rect x="7.337" y="82.393" transform="matrix(-0.9835 0.181 -0.181 -0.9835 70.096 183.408)" fill="#FFFFFF" stroke="#788893" stroke-width="4" stroke-linejoin="round" stroke-miterlimit="10" width="38.684" height="25.018"/>
		</g>
		<g>
			<circle fill="#FEECAF" stroke="#788893" stroke-width="3" stroke-miterlimit="10" cx="26.626" cy="95.071" r="5.277"/>
			
				<line fill="#FEECAF" stroke="#788893" stroke-width="3" stroke-miterlimit="10" x1="17.481" y1="88.391" x2="20.759" y2="90.667"/>
			
				<line fill="#FEECAF" stroke="#788893" stroke-width="3" stroke-miterlimit="10" x1="32.693" y1="98.959" x2="35.969" y2="101.238"/>
			
				<line fill="#FEECAF" stroke="#788893" stroke-width="3" stroke-miterlimit="10" x1="15.988" y1="96.849" x2="19.911" y2="96.141"/>
			
				<line fill="#FEECAF" stroke="#788893" stroke-width="3" stroke-miterlimit="10" x1="24.629" y1="84.216" x2="25.335" y2="88.14"/>
			
				<line fill="#FEECAF" stroke="#788893" stroke-width="3" stroke-miterlimit="10" x1="20.362" y1="104.099" x2="22.639" y2="100.821"/>
			
				<line fill="#FEECAF" stroke="#788893" stroke-width="3" stroke-miterlimit="10" x1="30.678" y1="88.925" x2="32.952" y2="85.651"/>
			
				<line fill="#FEECAF" stroke="#788893" stroke-width="3" stroke-miterlimit="10" x1="27.854" y1="101.696" x2="28.56" y2="105.62"/>
			
				<line fill="#FEECAF" stroke="#788893" stroke-width="3" stroke-miterlimit="10" x1="33.344" y1="93.088" x2="37.267" y2="92.381"/>
		</g>
	</g>
	<g>
		<g>
			
				<rect x="44.755" y="63.205" transform="matrix(0.3384 -0.941 0.941 0.3384 -38.5723 124.9267)" fill="#EE5125" width="49.607" height="53.379"/>
			
				<rect x="54.991" y="71.362" transform="matrix(0.3384 -0.941 0.941 0.3384 -30.2375 123.0232)" fill="#F6F7F8" stroke="#FFFFFF" stroke-width="0.5479" stroke-miterlimit="10" width="34.761" height="23.307"/>
			
				<line fill="none" stroke="#F5CCBC" stroke-width="0.3973" stroke-miterlimit="10" x1="77.456" y1="103.315" x2="55.524" y2="95.426"/>
			
				<rect x="54.199" y="91.45" transform="matrix(0.3385 -0.941 0.941 0.3385 -71.8631 134.0451)" fill="#F79F6A" width="10.408" height="53.366"/>
			
				<rect x="44.755" y="63.205" transform="matrix(0.3384 -0.941 0.941 0.3384 -38.5723 124.9267)" fill="none" stroke="#788893" stroke-width="4" stroke-miterlimit="10" width="49.607" height="53.379"/>
			
				<rect x="54.199" y="91.45" transform="matrix(0.3385 -0.941 0.941 0.3385 -71.8631 134.0451)" fill="none" stroke="#788893" stroke-width="4" stroke-miterlimit="10" width="10.408" height="53.366"/>
		</g>
		<polyline opacity="0.17" fill="#C44227" points="32.533,114 82.858,132.098 103.068,75.586 		"/>
	</g>
	<path fill="#FFFFFF" stroke="#788893" stroke-width="4" stroke-linejoin="round" stroke-miterlimit="10" d="M9.223,107h246.459
		c0,0-2.72,86.507-22.85,152.882H31.529C31.529,259.881,1.606,128.762,9.223,107z"/>
	<g>
		<defs>
			<path id="SVGID_1_" d="M9.223,107h246.459c0,0-2.72,86.507-22.85,152.882H31.529C31.529,259.881,1.606,128.762,9.223,107z"/>
		</defs>
		<clipPath id="SVGID_2_">
			<use xlink:href="#SVGID_1_"  overflow="visible"/>
		</clipPath>
		<rect x="0.518" y="107" clip-path="url(#SVGID_2_)" fill="#FEECAF" width="266.046" height="9.612"/>
		<rect x="9.948" y="203.12" clip-path="url(#SVGID_2_)" fill="#97D0A1" width="251.719" height="9.611"/>
		<rect x="7.228" y="126.223" clip-path="url(#SVGID_2_)" fill="#AAA4D1" width="251.719" height="9.613"/>
		<rect x="5.052" y="145.448" clip-path="url(#SVGID_2_)" fill="#97D0A1" width="251.719" height="9.612"/>
		<rect x="5.052" y="164.671" clip-path="url(#SVGID_2_)" fill="#FEECAF" width="251.719" height="9.612"/>
		<rect x="11.036" y="183.895" clip-path="url(#SVGID_2_)" fill="#AAA4D1" width="251.719" height="9.612"/>
		<rect x="9.948" y="241.567" clip-path="url(#SVGID_2_)" fill="#AAA4D1" width="251.719" height="9.612"/>
		<rect x="11.762" y="222.343" clip-path="url(#SVGID_2_)" fill="#FEECAF" width="251.72" height="9.612"/>
		<use xlink:href="#SVGID_1_"  overflow="visible" fill="none" stroke="#788893" stroke-width="4" stroke-miterlimit="10"/>
	</g>
	<g>
		<path fill="#97D0A1" stroke="#788893" stroke-width="3" stroke-miterlimit="10" d="M173.782,121.063c0,0-6.186,1.858-10.582-1.551
			c-6.029-4.675,1.328-14.549,8.51-10.226C171.71,109.287,165.717,112.268,173.782,121.063z"/>
		<path fill="#FEECAF" stroke="#788893" stroke-width="3" stroke-miterlimit="10" d="M161.962,118.003c0,0-2.28,12.021,8.609,13.978
			c0,0,9.953-1.737,10.429-8.852c0,0,4.099-2.985,0.187-5.648C181.187,117.481,169.061,126.509,161.962,118.003z"/>
		<path fill="#AAA4D1" stroke="#788893" stroke-width="3" stroke-miterlimit="10" d="M181.204,117.162c0,0,3.424-8.244-3.092-10.127
			c0,0-4.441-0.435-6.447,1.771c0,0-5.858,3.941,2.117,12.258C173.782,121.063,179.415,119.444,181.204,117.162z"/>
	</g>
	<path fill="#97D0A1" stroke="#788893" stroke-width="4" stroke-miterlimit="10" d="M97.905,107c0,0,13.716-97.74,36.009-97.74
		h0.423c16.758,0,31.303,97.74,31.303,97.74h10.655c0,0-16.912-106.598-41.742-106.598h-0.627C100.897,0.402,87.024,107,87.024,107
		H97.905z"/>
	<g>
		<path fill="#97D0A1" stroke="#788893" stroke-width="3" stroke-miterlimit="10" d="M92.088,120.685c0,0,6.186,1.858,10.582-1.55
			c6.029-4.676-1.328-14.55-8.509-10.227C94.161,108.909,100.153,111.89,92.088,120.685z"/>
		<path fill="#FEECAF" stroke="#788893" stroke-width="3" stroke-miterlimit="10" d="M103.908,117.625
			c0,0,2.281,12.021-8.609,13.979c0,0-9.953-1.738-10.429-8.854c0,0-4.099-2.984-0.187-5.647
			C84.683,117.103,96.81,126.131,103.908,117.625z"/>
		<path fill="#AAA4D1" stroke="#788893" stroke-width="3" stroke-miterlimit="10" d="M84.667,116.784c0,0-3.424-8.244,3.091-10.127
			c0,0,4.442-0.435,6.447,1.77c0,0,5.859,3.942-2.117,12.259C92.088,120.685,86.456,119.066,84.667,116.784z"/>
	</g>
	<path fill="#F69C82" stroke="#788893" stroke-width="3" stroke-miterlimit="10" d="M268.013,134.257
		c2.938-1.217,4.333-4.581,3.117-7.517c-1.215-2.935-4.582-4.322-7.518-3.106"/>
	<path fill="none" stroke="#515C7A" stroke-width="4.1211" stroke-linecap="round" stroke-miterlimit="10" d="M260.538,117.79
		l-8.748-21.116c-3.76-9.071-12.925-14.263-22.211-13.39"/>
	<path fill="#CCD0D8" stroke="#788893" stroke-width="4" stroke-miterlimit="10" d="M258.487,150.444
		c0.305,0.739,1.166,1.092,1.902,0.787l7.025-2.91c0.74-0.305,1.093-1.162,0.785-1.904l-13.299-32.102
		c-0.308-0.742-1.16-1.092-1.9-0.786l-7.025,2.91c-0.738,0.308-1.097,1.159-0.789,1.901L258.487,150.444z"/>
	<g>
		
			<line fill="none" stroke="#515C7A" stroke-width="1.3737" stroke-miterlimit="10" x1="267.894" y1="145.773" x2="258.188" y2="149.795"/>
		
			<line fill="none" stroke="#515C7A" stroke-width="1.3737" stroke-miterlimit="10" x1="267.259" y1="144.143" x2="257.543" y2="148.167"/>
		
			<line fill="none" stroke="#515C7A" stroke-width="1.3737" stroke-miterlimit="10" x1="266.587" y1="142.524" x2="256.872" y2="146.549"/>
		
			<line fill="none" stroke="#515C7A" stroke-width="1.3737" stroke-miterlimit="10" x1="265.917" y1="140.905" x2="256.202" y2="144.929"/>
		
			<line fill="none" stroke="#515C7A" stroke-width="1.3737" stroke-miterlimit="10" x1="265.247" y1="139.286" x2="255.53" y2="143.312"/>
		
			<line fill="none" stroke="#515C7A" stroke-width="1.3737" stroke-miterlimit="10" x1="264.577" y1="137.67" x2="254.861" y2="141.694"/>
		
			<line fill="none" stroke="#515C7A" stroke-width="1.3737" stroke-miterlimit="10" x1="263.907" y1="136.05" x2="254.19" y2="140.074"/>
		
			<line fill="none" stroke="#515C7A" stroke-width="1.3737" stroke-miterlimit="10" x1="263.235" y1="134.431" x2="253.521" y2="138.457"/>
		
			<line fill="none" stroke="#515C7A" stroke-width="1.3737" stroke-miterlimit="10" x1="262.565" y1="132.812" x2="252.851" y2="136.836"/>
		
			<line fill="none" stroke="#515C7A" stroke-width="1.3737" stroke-miterlimit="10" x1="261.896" y1="131.196" x2="252.181" y2="135.221"/>
		
			<line fill="none" stroke="#515C7A" stroke-width="1.3737" stroke-miterlimit="10" x1="261.226" y1="129.581" x2="251.511" y2="133.602"/>
		
			<line fill="none" stroke="#515C7A" stroke-width="1.3737" stroke-miterlimit="10" x1="260.554" y1="127.96" x2="250.841" y2="131.985"/>
		
			<line fill="none" stroke="#515C7A" stroke-width="1.3737" stroke-miterlimit="10" x1="259.884" y1="126.34" x2="250.169" y2="130.367"/>
		
			<line fill="none" stroke="#515C7A" stroke-width="1.3737" stroke-miterlimit="10" x1="259.214" y1="124.723" x2="249.499" y2="128.747"/>
		
			<line fill="none" stroke="#515C7A" stroke-width="1.3737" stroke-miterlimit="10" x1="258.544" y1="123.106" x2="248.827" y2="127.13"/>
		
			<line fill="none" stroke="#515C7A" stroke-width="1.3737" stroke-miterlimit="10" x1="257.874" y1="121.488" x2="248.159" y2="125.514"/>
		
			<line fill="none" stroke="#515C7A" stroke-width="1.3737" stroke-miterlimit="10" x1="257.213" y1="119.866" x2="247.508" y2="123.886"/>
		
			<line fill="none" stroke="#515C7A" stroke-width="1.3737" stroke-miterlimit="10" x1="256.544" y1="118.25" x2="246.839" y2="122.273"/>
		
			<line fill="none" stroke="#515C7A" stroke-width="1.3737" stroke-miterlimit="10" x1="255.871" y1="116.632" x2="246.167" y2="120.653"/>
		
			<line fill="none" stroke="#515C7A" stroke-width="1.3737" stroke-miterlimit="10" x1="255.202" y1="115.012" x2="245.497" y2="119.034"/>
	</g>
	<path fill="#CCD0D8" stroke="#788893" stroke-width="4" stroke-miterlimit="10" d="M265.685,140.347
		c0.309,0.742,1.158,1.093,1.898,0.785l1.826-0.757c0.748-0.309,1.1-1.154,0.791-1.898l-8.364-20.192
		c-0.308-0.74-1.159-1.098-1.903-0.788l-1.828,0.757c-0.74,0.308-1.089,1.161-0.784,1.901L265.685,140.347z"/>
	<path fill="#CCD0D8" stroke="#788893" stroke-width="4" stroke-miterlimit="10" d="M196.303,99.372
		c0.306,0.742,1.157,1.096,1.901,0.785l31.398-13.005c0.746-0.308,1.098-1.157,0.791-1.901l-1.596-3.85
		c-0.309-0.741-1.157-1.095-1.904-0.785l-31.4,13.002c-0.744,0.309-1.096,1.158-0.789,1.902L196.303,99.372z"/>
	
		<line fill="none" stroke="#515C7A" stroke-width="4.1211" stroke-linecap="round" stroke-miterlimit="10" x1="226.325" y1="84.628" x2="199.472" y2="95.752"/>
	<path fill="none" stroke="#788893" stroke-width="4" stroke-miterlimit="10" d="M258.487,150.444
		c0.305,0.739,1.166,1.092,1.902,0.787l7.025-2.91c0.74-0.305,1.093-1.162,0.785-1.904l-13.299-32.102
		c-0.308-0.742-1.16-1.092-1.9-0.786l-7.025,2.91c-0.738,0.308-1.097,1.159-0.789,1.901L258.487,150.444z"/>
</g>
</svg>
