<?xml version="1.0" encoding="utf-8"?>
<!-- Generator: Adobe Illustrator 15.1.0, SVG Export Plug-In . SVG Version: 6.00 Build 0)  -->
<!DOCTYPE svg PUBLIC "-//W3C//DTD SVG 1.1//EN" "http://www.w3.org/Graphics/SVG/1.1/DTD/svg11.dtd">
<svg version="1.1" id="Capa_1" xmlns="http://www.w3.org/2000/svg" xmlns:xlink="http://www.w3.org/1999/xlink" x="0px" y="0px"
	 width="290px" height="196px" viewBox="0 0 290 196" enable-background="new 0 0 290 196" xml:space="preserve">
<g>
	<ellipse fill="#929497" cx="145" cy="178.997" rx="139.84" ry="17.256"/>
	<path fill="#9C8272" d="M268.791,176.059c0,1.622-1.316,2.938-2.938,2.938H29.367c-1.623,0-2.938-1.315-2.938-2.938V32.995
		c0-1.624,1.315-2.937,2.938-2.937h236.485c1.622,0,2.938,1.313,2.938,2.937V176.059z"/>
	<path fill="#7F695B" d="M44.466,30.059H29.367c-1.623,0-2.938,1.313-2.938,2.937v16.967h15.1c1.621,0,2.938-1.316,2.938-2.938
		V30.059L44.466,30.059z"/>
	<path fill="#7F695B" d="M46.334,179.034v-15.099c0-1.623-1.315-2.938-2.938-2.938H26.429v15.098c0,1.624,1.314,2.938,2.938,2.938
		H46.334L46.334,179.034z"/>
	<g>
		<path fill="none" stroke="#7F695B" stroke-width="3.7379" stroke-miterlimit="10" stroke-dasharray="11.353,11.353" d="
			M259.145,170.549c0,1.518-1.229,2.746-2.745,2.746H35.406c-1.515,0-2.745-1.229-2.745-2.746V36.858
			c0-1.516,1.23-2.744,2.745-2.744h220.993c1.517,0,2.745,1.228,2.745,2.744V170.549z"/>
	</g>
	<circle fill="#FBE8A0" cx="35.447" cy="40.01" r="3.329"/>
	<circle fill="#FBE8A0" cx="33.418" cy="170.016" r="3.331"/>
	<path fill="none" stroke="#473930" stroke-width="12.4784" stroke-miterlimit="10" d="M116.003,30.264V10.298
		c0-1.959,1.546-3.551,3.454-3.551h56.308c1.905,0,3.452,1.592,3.452,3.551v19.966"/>
	<rect x="48.579" y="30.059" fill="#EF5024" width="13.153" height="148.976"/>
	<rect x="51.773" y="30.059" fill="#FACBC1" width="6.659" height="148.976"/>
	<rect x="226.64" y="30.059" fill="#EF5024" width="13.153" height="148.976"/>
	<rect x="229.835" y="30.059" fill="#FACBC1" width="6.658" height="148.976"/>
</g>
</svg>
