<?xml version="1.0" encoding="utf-8"?>
<!-- Generator: Adobe Illustrator 15.1.0, SVG Export Plug-In . SVG Version: 6.00 Build 0)  -->
<!DOCTYPE svg PUBLIC "-//W3C//DTD SVG 1.1//EN" "http://www.w3.org/Graphics/SVG/1.1/DTD/svg11.dtd">
<svg version="1.1" id="Capa_1" xmlns="http://www.w3.org/2000/svg" xmlns:xlink="http://www.w3.org/1999/xlink" x="0px" y="0px"
	 width="126.75px" height="130.068px" viewBox="0 0 126.75 130.068" enable-background="new 0 0 126.75 130.068"
	 xml:space="preserve">
<g>
	<g>
		<g>
			<g>
				<g>
					<defs>
						<rect id="SVGID_1_" x="11.393" y="10.093" width="104.385" height="109.812"/>
					</defs>
					<clipPath id="SVGID_2_">
						<use xlink:href="#SVGID_1_"  overflow="visible"/>
					</clipPath>
					<use xlink:href="#SVGID_1_"  overflow="visible" fill="none" stroke="#595A5C" stroke-width="2" stroke-miterlimit="10"/>
				</g>
				
					<path fill="none" stroke="#595A5C" stroke-width="2" stroke-linecap="round" stroke-linejoin="round" stroke-miterlimit="10" d="
					M126.433,38.063l0.151-4.896c-2.161,0-3.977-1.386-4.64-3.303v-3.146c0.663-1.917,2.479-3.304,4.64-3.304l-0.053-4.166
					c-2.097,0-3.877-1.305-4.587-3.135v-3.48c0.71-1.833,2.49-3.137,4.587-3.137l0.052-4.255h-4.639V0.296l-5.124,0.048
					c0,2.693-2.134,4.877-4.765,4.877c-2.63,0-4.76-2.184-4.76-4.877l-4.07-0.049c0,2.693-2.129,4.88-4.762,4.88
					c-2.631,0-4.762-2.187-4.762-4.88L88.92,0.099c0,2.692-2.133,4.877-4.765,4.877c-2.63,0-4.763-2.185-4.763-4.877l-4.065,0.098
					c0,2.693-2.132,4.877-4.762,4.877c-2.635,0-4.765-2.184-4.765-4.877l-5.403,0.048c0,2.696-2.132,4.877-4.765,4.877
					c-2.63,0-4.763-2.181-4.763-4.877L46.806,0.15c0,2.693-2.133,4.874-4.765,4.874c-2.628,0-4.763-2.18-4.763-4.874L32.496,0
					c0,2.693-2.131,4.876-4.764,4.876c-2.626,0-4.759-2.183-4.759-4.876l-4.069,0.051c0,2.691-2.131,4.877-4.762,4.877
					c-2.63,0-4.764-2.186-4.764-4.877l-4.154-0.05v5.24H0.586l0.049,4.255c2.098,0,3.878,1.305,4.589,3.133v3.486
					c-0.711,1.828-2.491,3.133-4.589,3.133l-0.051,4.166c2.162,0,3.977,1.387,4.64,3.3v3.15c-0.664,1.917-2.479,3.303-4.64,3.303
					l0.149,4.896c2.006,0,3.72,1.188,4.491,2.889v3.978c-0.771,1.698-2.484,2.888-4.491,2.888l0.099,4.164
					c1.93,0,3.583,1.105,4.392,2.706v4.339c-0.809,1.6-2.462,2.709-4.392,2.709L0.783,67.27c1.966,0,3.651,1.147,4.441,2.801v4.152
					c-0.791,1.651-2.476,2.8-4.441,2.8l-0.099,4.162c2.042,0,3.793,1.232,4.541,2.989v3.781c-0.748,1.753-2.499,2.987-4.541,2.987
					l0.199,4.895c1.892,0,3.516,1.066,4.342,2.614v4.523c-0.826,1.55-2.45,2.616-4.342,2.616l0.05,4.166
					c1.855,0,3.45,1.024,4.292,2.521v4.702c-0.841,1.502-2.436,2.527-4.292,2.527l-0.048,5.249h4.34v5.241l4.154-0.05
					c0-2.693,2.133-4.88,4.764-4.88c2.631,0,4.762,2.187,4.762,4.88L22.973,130c0-2.695,2.132-4.878,4.759-4.878
					c2.633,0,4.764,2.183,4.764,4.878l4.782-0.151c0-2.693,2.135-4.876,4.763-4.876c2.631,0,4.765,2.183,4.765,4.876l4.064-0.097
					c0-2.695,2.132-4.879,4.763-4.879c2.633,0,4.765,2.184,4.765,4.879l5.403,0.051c0-2.695,2.13-4.878,4.765-4.878
					c2.63,0,4.762,2.183,4.762,4.878l4.065,0.098c0-2.691,2.133-4.878,4.763-4.878c2.632,0,4.765,2.187,4.765,4.878l4.782-0.198
					c0-2.695,2.131-4.879,4.762-4.879c2.633,0,4.762,2.184,4.762,4.879l4.07-0.05c0-2.693,2.13-4.877,4.76-4.877
					c2.631,0,4.765,2.184,4.765,4.877l5.124,0.05v-4.945h4.34l-0.049-5.249c-1.855,0-3.45-1.025-4.291-2.527v-4.699
					c0.841-1.5,2.436-2.524,4.291-2.524l0.05-4.166c-1.891,0-3.517-1.068-4.341-2.616v-4.523c0.824-1.546,2.45-2.614,4.341-2.614
					l0.202-4.895c-2.045,0-3.795-1.234-4.543-2.989v-3.779c0.748-1.757,2.498-2.989,4.543-2.989l-0.103-4.162
					c-1.966,0-3.65-1.148-4.44-2.8V70.07c0.79-1.653,2.475-2.801,4.44-2.801l-0.048-5.534c-1.931,0-3.584-1.109-4.393-2.71V54.69
					c0.809-1.601,2.462-2.708,4.393-2.708l0.096-4.164c-2.003,0-3.721-1.19-4.488-2.889v-3.977
					C122.712,39.253,124.43,38.063,126.433,38.063z"/>
				
					<rect x="11.393" y="10.093" fill="#B6ACD4" stroke="#58595B" stroke-width="2" stroke-miterlimit="10" width="104.385" height="109.812"/>
			</g>
		</g>
	</g>
	<g>
		<path fill="#B7D7F1" d="M107.179,31.125l-12.284,3.679H35.847l-12.021-3.679v70.37l12.28-1.868h58.79
			c0.648,0,12.284,1.868,12.284,1.868V31.125z"/>
		<path fill="none" stroke="#F1F2F2" stroke-width="4" stroke-miterlimit="10" d="M91.328,87.888c0,0.83-0.725,1.505-1.617,1.505
			H41.496c-0.894,0-1.618-0.675-1.618-1.505V45.58c0-0.832,0.725-1.506,1.618-1.506h48.215c0.893,0,1.617,0.674,1.617,1.506V87.888z
			"/>
		<polygon opacity="0.2" fill="#759DCA" points="24.072,31.125 36.095,34.804 36.354,99.627 24.072,101.495 		"/>
		<polygon opacity="0.2" fill="#759DCA" points="107.426,101.495 95.143,99.627 95.143,34.804 107.426,31.125 		"/>
		<g>
			<polygon fill="#E6E7E8" points="51.364,82.784 79.641,82.784 79.641,84.254 51.364,84.254 51.364,82.784 			"/>
			<polygon fill-rule="evenodd" clip-rule="evenodd" points="51.393,83.251 79.61,83.251 79.61,75.872 51.393,75.872 51.393,83.251 
							"/>
			<path fill-rule="evenodd" clip-rule="evenodd" fill="#FFFFFF" d="M59.092,80.56c0,0.044-0.028,0.116-0.072,0.202
				c-0.132,0.247-0.469,0.564-1.037,0.564c-0.03,0-0.059,0-0.089,0c-0.468-0.027-0.847-0.289-1.052-0.78
				c-0.087-0.218-0.131-0.463-0.131-0.753c0-0.261,0.044-0.507,0.131-0.738c0.19-0.463,0.556-0.811,1.052-0.866
				c0.044,0,0.089-0.017,0.147-0.017c0.525,0,0.847,0.319,0.979,0.709c0.043,0.146,0.072,0.289,0.072,0.449
				c0,0.13-0.028,0.174-0.072,0.188c-0.044,0.015-0.102,0-0.161,0h-0.965h-0.686c-0.117,0,0.014,0.102,0.014,0.304
				c0,0.493,0.292,0.841,0.671,0.971c0.118,0.044,0.234,0.058,0.351,0.058c0.746,0,0.629-0.449,0.775-0.449
				C59.064,80.414,59.092,80.516,59.092,80.56L59.092,80.56z M59.021,80.4L59.021,80.4L59.021,80.4L59.021,80.4z M59.021,78.359
				c-0.044-0.014-0.073-0.027-0.073-0.071s0.014-0.072,0.073-0.086c0,0,0.015,0,0.029,0h0.731c0.087,0,0.102,0.028,0.102,0.115
				v2.141c0,0.392,0.175,0.565,0.468,0.565c0.307,0,0.541-0.246,0.541-0.552v-1.864c0-0.204-0.146-0.218-0.263-0.218
				c-0.073-0.016-0.146-0.03-0.146-0.102c0-0.044,0.03-0.086,0.103-0.086h0.745c0.088,0,0.117,0.042,0.117,0.13v2.46
				c0,0.144,0.074,0.157,0.191,0.188c0.057,0.014,0.116,0.029,0.145,0.044c0.014,0,0.029,0.014,0.029,0.027
				c0,0.03-0.015,0.044-0.029,0.044c-0.029,0.03-0.088,0.03-0.189,0.059c-0.117,0.044-0.351,0.102-0.468,0.203
				c-0.044,0.014-0.074,0.028-0.103,0.028c-0.059,0-0.059-0.072-0.059-0.144v-0.262c0-0.059-0.028-0.088-0.057-0.088
				c-0.06,0-0.395,0.465-0.834,0.465c-0.453,0-0.716-0.262-0.716-0.868v-1.896c0-0.202-0.145-0.202-0.264-0.218
				C59.064,78.374,59.036,78.374,59.021,78.359L59.021,78.359z M78.368,78.997c0.233,0,0.424-0.188,0.424-0.42
				s-0.19-0.419-0.424-0.433h-0.015c-0.189,0-0.337,0.115-0.409,0.273c-0.014,0.058-0.029,0.102-0.029,0.159
				c0,0.044,0.016,0.103,0.029,0.146c0.072,0.158,0.22,0.274,0.409,0.274H78.368L78.368,78.997z M78.368,78.042
				c0.278,0.015,0.512,0.246,0.512,0.521c0,0.289-0.233,0.521-0.512,0.521h-0.015c-0.161,0-0.307-0.074-0.409-0.188
				c-0.072-0.088-0.117-0.203-0.117-0.333c0-0.116,0.045-0.231,0.117-0.319c0.103-0.116,0.248-0.202,0.409-0.202H78.368
				L78.368,78.042z M78.368,78.607c0.015,0,0.03,0.014,0.03,0.028c0.014,0.027,0.043,0.058,0.072,0.115l0.059,0.146h0.088
				l-0.088-0.189c-0.016-0.027-0.029-0.058-0.059-0.086c0-0.014-0.014-0.029-0.044-0.044c0.058,0,0.087-0.029,0.116-0.058
				c0.016-0.028,0.029-0.072,0.029-0.116s0-0.071-0.014-0.102c-0.016-0.028-0.029-0.058-0.059-0.071
				c-0.029-0.015-0.059-0.015-0.102-0.015h-0.03h-0.204v0.681h0.072v-0.305h0.073C78.339,78.592,78.354,78.592,78.368,78.607
				L78.368,78.607z M78.368,78.288h0.03c0.028,0,0.059,0.014,0.086,0.029c0.016,0.015,0.016,0.042,0.016,0.086
				c0,0.015,0,0.044-0.016,0.059c0,0.014-0.014,0.029-0.027,0.044c-0.016,0-0.045,0.014-0.074,0.014h-0.015h-0.132v-0.231H78.368
				L78.368,78.288z M77.944,80.676c0.014-0.014,0.043-0.014,0.059-0.014c0.044,0,0.059,0.027,0.059,0.071
				c0,0.086-0.045,0.188-0.117,0.275c-0.117,0.13-0.292,0.246-0.481,0.246c-0.439,0-0.469-0.378-0.556-0.378
				c-0.058,0-0.146,0.204-0.408,0.32c-0.117,0.058-0.249,0.085-0.44,0.085c-0.248,0-0.423-0.102-0.525-0.289
				c-0.044-0.086-0.073-0.201-0.087-0.317c-0.03-0.174,0.014-0.333,0.087-0.478c0.19-0.347,0.614-0.564,0.966-0.738
				c0.291-0.13,0.524-0.246,0.524-0.361v-0.436c0-0.172-0.19-0.289-0.38-0.289c-0.044,0-0.103,0-0.145,0.016
				c-0.206,0.058-0.382,0.218-0.41,0.491c-0.03,0.289-0.146,0.419-0.409,0.419c-0.059,0-0.103,0-0.146-0.027
				c-0.073-0.03-0.102-0.103-0.102-0.174c0.015-0.116,0.044-0.231,0.102-0.361c0.132-0.262,0.424-0.507,0.966-0.579
				c0.101-0.014,0.203-0.03,0.32-0.03c0.54,0,0.688,0.103,0.688,0.449v1.953c0,0.262,0.116,0.333,0.218,0.333
				C77.842,80.863,77.886,80.733,77.944,80.676L77.944,80.676z M76.499,79.749c0.189-0.13,0.393-0.201,0.423-0.201
				c0.059,0,0.029,0.113,0.029,0.188v0.317c0,0.535-0.176,0.767-0.452,0.811c-0.03,0-0.045,0-0.075,0
				c-0.335,0.028-0.424-0.231-0.395-0.521C76.059,80.11,76.278,79.896,76.499,79.749L76.499,79.749z M75.533,81.241
				c0.058,0,0.103-0.03,0.103-0.061c0-0.038-0.013-0.065-0.079-0.082c-0.035-0.008-0.06-0.012-0.097-0.018
				c-0.161-0.03-0.219-0.102-0.219-0.231v-1.867c0-0.593-0.352-0.811-0.789-0.811c-0.409,0-0.6,0.246-0.833,0.508h-0.016V78.23
				c0-0.072-0.015-0.103-0.057-0.103c-0.089,0-0.045,0.074-0.454,0.275c-0.234,0.116-0.379,0.13-0.409,0.188
				c-0.015,0-0.015,0.016-0.015,0.029c0,0.015,0,0.028,0.015,0.028c0.03,0.03,0.117,0.03,0.189,0.044
				c0.117,0.029,0.161,0.058,0.161,0.245v1.823c0,0.218-0.059,0.262-0.248,0.304c-0.044,0-0.088,0.016-0.103,0.029
				c-0.028,0.015-0.044,0.044-0.044,0.072c0,0.03,0.016,0.058,0.044,0.058c0.015,0.017,0.03,0.017,0.059,0.017
				c0.116,0,0.336-0.03,0.557-0.03c0.29,0,0.48,0.03,0.627,0.03c0.059,0,0.072-0.03,0.072-0.074c0-0.028-0.014-0.058-0.16-0.086
				c-0.146-0.044-0.234-0.102-0.234-0.289v-1.81c0.133-0.319,0.337-0.491,0.614-0.491c0.248,0,0.438,0.145,0.438,0.52v1.839l0,0
				c0,0.13-0.043,0.174-0.249,0.231c-0.102,0.028-0.117,0.028-0.117,0.086c0,0.044,0.045,0.074,0.117,0.074
				c0.176,0,0.352-0.03,0.526-0.03C75.284,81.211,75.446,81.241,75.533,81.241L75.533,81.241z M72.684,80.414
				c0.03,0.03,0.044,0.102,0.044,0.146s-0.014,0.086-0.044,0.16c-0.117,0.229-0.453,0.606-1.067,0.606c-0.027,0-0.058,0-0.087,0
				c-0.482-0.027-0.892-0.317-1.066-0.838c-0.073-0.204-0.117-0.436-0.117-0.695c0-0.245,0.028-0.463,0.117-0.681
				c0.175-0.491,0.541-0.868,1.066-0.924c0.043,0,0.087-0.017,0.146-0.017c0.571,0,0.892,0.361,1.009,0.797
				c0.03,0.116,0.044,0.245,0.044,0.361c0,0.102-0.014,0.146-0.044,0.174c-0.044,0.028-0.104,0.014-0.189,0.014h-0.965h-0.687
				c-0.117,0,0.015,0.102,0.015,0.304c0,0.493,0.291,0.841,0.672,0.971c0.116,0.044,0.233,0.058,0.352,0.058
				c0.744,0,0.627-0.436,0.774-0.436C72.655,80.414,72.669,80.414,72.684,80.414L72.684,80.414z M71.529,79.316
				c0.497,0.027,0.672,0.071,0.672-0.262c0-0.275-0.292-0.637-0.612-0.637c-0.017,0-0.045,0-0.06,0
				c-0.525,0.044-0.672,0.738-0.672,0.868c0,0.102,0.219,0.03,0.453,0.03C71.383,79.316,71.457,79.316,71.529,79.316L71.529,79.316z
				 M70.463,82.021c0.073-0.146,0.115-0.317,0.103-0.507c-0.016-0.158-0.045-0.29-0.103-0.39c-0.264-0.405-0.862-0.319-1.33-0.306
				c-0.336,0-0.613-0.027-0.6-0.317c0-0.102,0.22-0.262,0.425-0.262c0.058,0,0.116,0,0.175,0c0.891-0.069,1.14-0.665,1.14-1.026
				c0-0.203-0.059-0.391-0.161-0.578h0.352h0.058c0.029,0,0.045-0.028,0.045-0.103c0-0.086-0.016-0.102-0.045-0.102h-0.058h-0.541
				c-0.059,0-0.146-0.058-0.277-0.114c-0.117-0.058-0.292-0.102-0.512-0.102c0,0,0,0-0.015,0c-0.657,0-1.125,0.434-1.125,0.984
				c0,0.709,0.671,0.91,0.671,0.971c0,0.056-0.7,0.433-0.7,0.591c0,0.13,0.232,0.392,0.438,0.493
				c0.088,0.044-0.307,0.102-0.498,0.317c-0.058,0.072-0.101,0.146-0.101,0.245c-0.016,0.19,0.028,0.348,0.101,0.464
				c0.161,0.275,0.512,0.435,1.111,0.435c0.044,0,0.089,0,0.117,0C69.717,82.672,70.229,82.413,70.463,82.021L70.463,82.021z
				 M69.133,80.127c0.277,0,0.497-0.319,0.497-0.885c0-0.562-0.22-0.883-0.497-0.883s-0.482,0.32-0.482,0.883
				C68.65,79.808,68.855,80.127,69.133,80.127L69.133,80.127z M69.133,82.325c0.029,0,0.058,0,0.087,0
				c0.541,0,0.935-0.174,0.935-0.607c0-0.449-0.451-0.436-1.021-0.436c-0.045,0.017-0.087,0.017-0.132,0.017
				c-0.423,0-0.729,0.302-0.729,0.549C68.271,82.267,68.68,82.325,69.133,82.325L69.133,82.325z M67.904,80.356
				c0.06-0.186,0.104-0.39,0.104-0.593c0-0.202-0.044-0.405-0.104-0.594c-0.204-0.578-0.716-1.025-1.343-1.025
				c-0.629,0-1.125,0.433-1.331,1.025c-0.072,0.188-0.102,0.392-0.102,0.594c0,0.218,0.029,0.421,0.102,0.608
				c0.206,0.577,0.702,1.013,1.331,1.013C67.188,81.385,67.7,80.949,67.904,80.356L67.904,80.356z M66.562,81.125
				c0.496,0,0.833-0.537,0.833-1.158c0-0.725-0.425-1.549-0.833-1.549c-0.483,0-0.819,0.593-0.819,1.216
				S66.123,81.125,66.562,81.125L66.562,81.125z M65.23,78.911c0.059-0.088,0.103-0.204,0.103-0.319
				c0-0.101-0.044-0.202-0.103-0.274c-0.072-0.087-0.176-0.146-0.307-0.146c-0.438,0-0.702,0.665-0.73,0.665
				c-0.015,0-0.015,0-0.015-0.028v-0.507c0-0.1-0.014-0.157-0.043-0.157c-0.058,0-0.058,0.086-0.322,0.245
				c-0.379,0.202-0.496,0.174-0.496,0.26c0,0.058,0.059,0.073,0.146,0.088c0.102,0.014,0.219,0.029,0.219,0.174v1.851
				c0,0.218-0.014,0.275-0.219,0.319c-0.074,0.014-0.118,0.028-0.146,0.044c-0.029,0.014-0.044,0.028-0.044,0.056
				c0,0.03,0.015,0.044,0.044,0.061c0.015,0,0.028,0,0.044,0c0.117,0,0.32-0.03,0.657-0.03c0.379,0,0.585,0.03,0.702,0.03
				c0.042,0,0.072-0.03,0.072-0.061c0-0.056-0.03-0.071-0.264-0.1c-0.204-0.03-0.276-0.132-0.276-0.361v-1.304
				c0-0.447,0.175-0.839,0.393-0.839c0.103,0,0.089,0.116,0.117,0.246c0.03,0.115,0.089,0.203,0.25,0.203
				C65.1,79.026,65.173,78.982,65.23,78.911L65.23,78.911z M63.317,80.863c0.015-0.058,0.028-0.102,0.028-0.13
				c0-0.044-0.013-0.071-0.028-0.071c-0.014-0.017-0.014-0.017-0.029-0.017c-0.102,0-0.175,0.334-0.366,0.334
				c-0.145,0-0.219-0.116-0.219-0.42v-2.068c0-0.016,0-0.044,0.029-0.044h0.423c0.074,0,0.088-0.029,0.088-0.115
				c0-0.088-0.014-0.116-0.088-0.116h-0.453v-0.753c0-0.071-0.043-0.102-0.073-0.102c-0.131,0-0.117,0.29-0.482,0.653
				c-0.19,0.201-0.322,0.259-0.365,0.317c-0.014,0.014-0.029,0.027-0.029,0.058c0,0.028,0,0.042,0.029,0.058
				c0.014,0,0.029,0,0.043,0h0.205c0.059,0,0.073,0.028,0.073,0.116v2.011c0,0.449,0.117,0.752,0.556,0.752
				C63.01,81.326,63.229,81.051,63.317,80.863L63.317,80.863z M57.895,79.316c-0.073,0-0.145,0-0.218,0
				c-0.234,0-0.454,0.071-0.454-0.044c0-0.116,0.146-0.811,0.671-0.854c0.016,0,0.044-0.015,0.059-0.015
				c0.322,0,0.614,0.376,0.614,0.651C58.567,79.388,58.393,79.33,57.895,79.316L57.895,79.316z M56.843,76.856
				c0.103,0.014,0.132,0.044,0.132,0.086c0,0.058-0.044,0.088-0.132,0.102c-0.029,0-0.058,0-0.102,0.014
				c-0.248,0.015-0.321,0.13-0.321,0.304v3.792c0,0.129-0.074,0.159-0.161,0.159c-0.103,0-0.146-0.071-0.219-0.146l-2.368-3.299
				c-0.087-0.115-0.117-0.173-0.146-0.173c-0.029,0-0.029,0.027-0.029,0.159v2.634c0,0.331,0.043,0.491,0.423,0.549
				c0.161,0.028,0.307,0.014,0.307,0.116c0,0.027,0,0.071-0.103,0.071c-0.233,0-0.482-0.014-0.746-0.014
				c-0.248,0-0.394,0.014-0.584,0.014c-0.131,0-0.204-0.014-0.204-0.086c0-0.058,0.058-0.088,0.248-0.102
				c0.335-0.014,0.409-0.102,0.409-0.723v-2.98c0-0.218-0.058-0.232-0.307-0.276c-0.19-0.044-0.248-0.058-0.248-0.115
				c0-0.042,0.043-0.086,0.161-0.086c0.087,0,0.161,0.028,0.541,0.028c0.306,0,0.395-0.028,0.467-0.028
				c0.117,0,0.176,0.116,0.351,0.375l1.783,2.546c0.059,0.088,0.117,0.16,0.132,0.16c0.043,0,0.043-0.015,0.043-0.145v-2.142
				c0-0.464-0.103-0.563-0.38-0.594c-0.161-0.027-0.263,0-0.263-0.102c0-0.086,0.087-0.1,0.189-0.1c0.117,0,0.234,0.028,0.599,0.028
				c0.307,0,0.38-0.028,0.511-0.028C56.843,76.856,56.843,76.856,56.843,76.856L56.843,76.856z"/>
		</g>
		<g>
			<path fill="#FFFFFF" stroke="#FFFFFF" stroke-width="0.25" stroke-miterlimit="10" d="M48.275,58.67v0.422h0.015
				c0.082-0.155,0.188-0.277,0.321-0.364c0.133-0.087,0.302-0.131,0.507-0.131c0.167,0,0.318,0.041,0.454,0.121
				c0.136,0.081,0.226,0.204,0.272,0.369c0.075-0.166,0.186-0.288,0.333-0.369c0.147-0.081,0.304-0.121,0.472-0.121
				c0.557,0,0.837,0.292,0.837,0.879v1.698h-0.308V59.49c0-0.208-0.044-0.365-0.132-0.473c-0.089-0.109-0.244-0.164-0.466-0.164
				c-0.135,0-0.246,0.026-0.333,0.075c-0.088,0.05-0.158,0.117-0.21,0.202c-0.052,0.084-0.09,0.18-0.11,0.289
				c-0.021,0.107-0.032,0.22-0.032,0.337v1.417h-0.308v-1.698c0-0.085-0.01-0.165-0.028-0.24c-0.018-0.076-0.047-0.143-0.088-0.199
				c-0.041-0.058-0.096-0.102-0.164-0.134c-0.069-0.033-0.152-0.049-0.25-0.049c-0.13,0-0.245,0.024-0.341,0.071
				c-0.096,0.046-0.174,0.112-0.235,0.193c-0.06,0.083-0.105,0.18-0.135,0.292c-0.029,0.112-0.044,0.234-0.044,0.366v1.398h-0.309
				V58.67H48.275z"/>
			<path fill="#FFFFFF" stroke="#FFFFFF" stroke-width="0.25" stroke-miterlimit="10" d="M52.137,59.058
				c0.053-0.107,0.123-0.194,0.213-0.262c0.09-0.067,0.196-0.118,0.316-0.149c0.121-0.033,0.255-0.049,0.402-0.049
				c0.112,0,0.223,0.011,0.333,0.032c0.111,0.021,0.21,0.061,0.299,0.119c0.088,0.058,0.16,0.14,0.216,0.245
				C53.972,59.097,54,59.234,54,59.403v1.329c0,0.125,0.06,0.184,0.181,0.184c0.035,0,0.069-0.005,0.098-0.019v0.257
				c-0.035,0.006-0.067,0.012-0.095,0.014c-0.028,0.004-0.064,0.005-0.106,0.005c-0.078,0-0.141-0.01-0.188-0.032
				c-0.048-0.021-0.084-0.051-0.11-0.09c-0.026-0.038-0.044-0.085-0.052-0.138c-0.008-0.054-0.012-0.113-0.012-0.178h-0.01
				c-0.056,0.082-0.112,0.153-0.169,0.216s-0.121,0.116-0.191,0.158c-0.07,0.042-0.151,0.074-0.24,0.097
				c-0.09,0.022-0.197,0.034-0.321,0.034c-0.118,0-0.228-0.014-0.331-0.041c-0.103-0.028-0.193-0.071-0.27-0.131
				c-0.077-0.06-0.137-0.136-0.181-0.229c-0.043-0.092-0.065-0.201-0.065-0.327c0-0.174,0.039-0.312,0.117-0.41
				c0.078-0.098,0.183-0.173,0.311-0.225c0.129-0.051,0.275-0.089,0.436-0.11c0.163-0.021,0.327-0.041,0.493-0.061
				c0.066-0.006,0.123-0.014,0.171-0.024c0.049-0.01,0.09-0.026,0.123-0.051c0.032-0.024,0.057-0.058,0.076-0.099
				c0.018-0.042,0.026-0.098,0.026-0.166c0-0.104-0.017-0.188-0.051-0.255c-0.034-0.066-0.082-0.118-0.142-0.157
				c-0.061-0.04-0.131-0.066-0.211-0.081c-0.08-0.014-0.166-0.022-0.257-0.022c-0.196,0-0.356,0.046-0.48,0.139
				c-0.125,0.092-0.189,0.239-0.196,0.443h-0.309C52.054,59.292,52.085,59.165,52.137,59.058z M53.682,59.806
				c-0.021,0.035-0.058,0.061-0.113,0.077c-0.056,0.017-0.104,0.028-0.147,0.035c-0.13,0.022-0.266,0.042-0.404,0.06
				c-0.139,0.019-0.266,0.044-0.38,0.081c-0.115,0.036-0.208,0.086-0.282,0.153c-0.073,0.067-0.11,0.161-0.11,0.284
				c0,0.078,0.015,0.146,0.046,0.206c0.032,0.06,0.073,0.112,0.125,0.156c0.053,0.043,0.114,0.076,0.182,0.1
				c0.069,0.022,0.139,0.034,0.211,0.034c0.118,0,0.23-0.018,0.338-0.054c0.107-0.036,0.202-0.087,0.282-0.155
				c0.08-0.068,0.144-0.151,0.191-0.248c0.047-0.096,0.07-0.207,0.07-0.33v-0.397H53.682z"/>
			<path fill="#FFFFFF" stroke="#FFFFFF" stroke-width="0.25" stroke-miterlimit="10" d="M54.926,57.709v2.174l1.402-1.213h0.412
				l-1.079,0.927l1.151,1.578h-0.387l-1-1.364l-0.5,0.412v0.952h-0.309v-3.465H54.926z"/>
			<path fill="#FFFFFF" stroke="#FFFFFF" stroke-width="0.25" stroke-miterlimit="10" d="M57.295,60.347
				c0.032,0.119,0.082,0.224,0.15,0.318c0.068,0.094,0.155,0.172,0.259,0.233c0.104,0.062,0.231,0.092,0.378,0.092
				c0.225,0,0.402-0.058,0.529-0.174c0.127-0.117,0.216-0.272,0.264-0.467h0.31c-0.065,0.285-0.187,0.505-0.36,0.66
				c-0.175,0.156-0.423,0.233-0.743,0.233c-0.2,0-0.372-0.035-0.517-0.104c-0.146-0.069-0.264-0.166-0.355-0.286
				c-0.093-0.122-0.159-0.263-0.204-0.423c-0.044-0.16-0.066-0.329-0.066-0.506c0-0.166,0.022-0.328,0.066-0.486
				c0.044-0.158,0.111-0.299,0.204-0.424c0.091-0.125,0.209-0.225,0.355-0.301c0.145-0.076,0.317-0.114,0.517-0.114
				c0.203,0,0.376,0.041,0.519,0.121c0.145,0.081,0.26,0.187,0.351,0.319c0.09,0.13,0.153,0.281,0.193,0.451
				c0.04,0.17,0.056,0.343,0.049,0.517h-1.946C57.249,60.114,57.265,60.229,57.295,60.347z M58.826,59.413
				c-0.039-0.107-0.091-0.201-0.159-0.283c-0.07-0.083-0.153-0.15-0.251-0.2c-0.098-0.049-0.208-0.075-0.333-0.075
				c-0.128,0-0.241,0.026-0.338,0.075c-0.099,0.05-0.181,0.117-0.25,0.2c-0.069,0.082-0.124,0.178-0.164,0.286
				c-0.042,0.109-0.068,0.22-0.082,0.332h1.638C58.884,59.631,58.862,59.52,58.826,59.413z"/>
			<path fill="#FFFFFF" stroke="#FFFFFF" stroke-width="0.25" stroke-miterlimit="10" d="M61.377,61.174v-0.451h-0.01
				c-0.082,0.167-0.2,0.296-0.355,0.385c-0.155,0.089-0.329,0.134-0.517,0.134c-0.16,0-0.296-0.022-0.41-0.065
				c-0.112-0.044-0.204-0.106-0.274-0.187c-0.069-0.081-0.121-0.18-0.153-0.296c-0.033-0.116-0.049-0.248-0.049-0.397V58.67h0.31
				v1.631c0.006,0.226,0.059,0.398,0.157,0.515c0.101,0.116,0.273,0.174,0.519,0.174c0.134,0,0.248-0.028,0.343-0.084
				c0.095-0.057,0.173-0.132,0.236-0.226s0.107-0.201,0.137-0.323c0.029-0.122,0.044-0.245,0.044-0.371V58.67h0.309v2.504H61.377z"
				/>
			<path fill="#FFFFFF" stroke="#FFFFFF" stroke-width="0.25" stroke-miterlimit="10" d="M62.528,58.67v0.475h0.01
				c0.071-0.174,0.188-0.309,0.351-0.405c0.162-0.095,0.345-0.143,0.551-0.143c0.193,0,0.361,0.036,0.502,0.107
				c0.143,0.071,0.26,0.167,0.356,0.289c0.095,0.121,0.165,0.261,0.211,0.422c0.046,0.16,0.068,0.329,0.068,0.508
				c0,0.177-0.022,0.346-0.068,0.506c-0.046,0.161-0.116,0.301-0.211,0.423c-0.096,0.121-0.213,0.217-0.356,0.286
				c-0.141,0.069-0.309,0.104-0.502,0.104c-0.091,0-0.183-0.011-0.274-0.034c-0.091-0.023-0.176-0.057-0.254-0.102
				c-0.079-0.045-0.148-0.103-0.21-0.17c-0.061-0.067-0.107-0.146-0.139-0.237h-0.01v1.397h-0.309V58.67H62.528z M64.222,59.536
				c-0.031-0.127-0.081-0.241-0.147-0.342c-0.067-0.1-0.153-0.182-0.258-0.245c-0.104-0.064-0.23-0.096-0.377-0.096
				c-0.169,0-0.312,0.03-0.426,0.087c-0.115,0.059-0.207,0.136-0.275,0.234c-0.069,0.097-0.116,0.209-0.145,0.339
				c-0.028,0.129-0.042,0.265-0.042,0.408c0,0.128,0.016,0.257,0.046,0.385c0.032,0.128,0.083,0.241,0.153,0.342
				c0.07,0.1,0.162,0.182,0.274,0.245s0.25,0.095,0.414,0.095c0.147,0,0.273-0.032,0.377-0.095c0.105-0.063,0.191-0.145,0.258-0.245
				c0.066-0.101,0.116-0.214,0.147-0.342c0.031-0.128,0.046-0.257,0.046-0.385C64.269,59.793,64.253,59.664,64.222,59.536z"/>
			<path fill="#FFFFFF" stroke="#FFFFFF" stroke-width="0.25" stroke-miterlimit="10" d="M66.704,58.67v0.587h0.011
				c0.077-0.203,0.199-0.36,0.364-0.471c0.166-0.11,0.362-0.16,0.591-0.149v0.305c-0.141-0.006-0.268,0.012-0.382,0.056
				c-0.116,0.044-0.214,0.107-0.297,0.187c-0.083,0.081-0.147,0.178-0.194,0.289c-0.044,0.112-0.068,0.233-0.068,0.366v1.335H66.42
				V58.67H66.704z"/>
			<path fill="#FFFFFF" stroke="#FFFFFF" stroke-width="0.25" stroke-miterlimit="10" d="M68.104,60.347
				c0.031,0.119,0.081,0.224,0.149,0.318c0.068,0.094,0.155,0.172,0.261,0.233c0.104,0.062,0.229,0.092,0.377,0.092
				c0.226,0,0.402-0.058,0.53-0.174c0.127-0.117,0.215-0.272,0.264-0.467h0.309c-0.065,0.285-0.186,0.505-0.36,0.66
				c-0.174,0.156-0.422,0.233-0.742,0.233c-0.2,0-0.372-0.035-0.518-0.104c-0.146-0.069-0.263-0.166-0.354-0.286
				c-0.092-0.122-0.159-0.263-0.204-0.423c-0.044-0.16-0.065-0.329-0.065-0.506c0-0.166,0.021-0.328,0.065-0.486
				c0.045-0.158,0.112-0.299,0.204-0.424c0.092-0.125,0.209-0.225,0.354-0.301c0.146-0.076,0.317-0.114,0.518-0.114
				c0.202,0,0.376,0.041,0.52,0.121c0.144,0.081,0.261,0.187,0.351,0.319c0.09,0.13,0.154,0.281,0.193,0.451s0.056,0.343,0.05,0.517
				h-1.946C68.058,60.114,68.072,60.229,68.104,60.347z M69.633,59.413c-0.037-0.107-0.09-0.201-0.16-0.283
				c-0.068-0.083-0.15-0.15-0.25-0.2c-0.097-0.049-0.207-0.075-0.332-0.075c-0.127,0-0.24,0.026-0.338,0.075
				c-0.098,0.05-0.182,0.117-0.25,0.2c-0.069,0.082-0.124,0.178-0.164,0.286c-0.041,0.109-0.069,0.22-0.081,0.332h1.638
				C69.69,59.631,69.671,59.52,69.633,59.413z"/>
			<path fill="#FFFFFF" stroke="#FFFFFF" stroke-width="0.25" stroke-miterlimit="10" d="M70.704,58.67v0.422h0.016
				c0.08-0.155,0.188-0.277,0.32-0.364c0.133-0.087,0.302-0.131,0.508-0.131c0.166,0,0.316,0.041,0.452,0.121
				c0.137,0.081,0.227,0.204,0.273,0.369c0.074-0.166,0.186-0.288,0.332-0.369c0.147-0.081,0.304-0.121,0.471-0.121
				c0.559,0,0.838,0.292,0.838,0.879v1.698h-0.309V59.49c0-0.208-0.043-0.365-0.132-0.473c-0.089-0.109-0.244-0.164-0.466-0.164
				c-0.135,0-0.246,0.026-0.334,0.075c-0.087,0.05-0.158,0.117-0.21,0.202c-0.053,0.084-0.089,0.18-0.11,0.289
				c-0.021,0.107-0.032,0.22-0.032,0.337v1.417h-0.31v-1.698c0-0.085-0.008-0.165-0.026-0.24c-0.018-0.076-0.047-0.143-0.089-0.199
				c-0.04-0.058-0.095-0.102-0.163-0.134c-0.068-0.033-0.151-0.049-0.25-0.049c-0.131,0-0.244,0.024-0.341,0.071
				c-0.097,0.046-0.174,0.112-0.235,0.193c-0.06,0.083-0.105,0.18-0.135,0.292c-0.029,0.112-0.043,0.234-0.043,0.366v1.398h-0.31
				V58.67H70.704z"/>
			<path fill="#FFFFFF" stroke="#FFFFFF" stroke-width="0.25" stroke-miterlimit="10" d="M76.083,58.704
				c0.149,0.071,0.274,0.166,0.375,0.287c0.101,0.119,0.179,0.259,0.23,0.419c0.052,0.16,0.079,0.331,0.079,0.513
				c0,0.18-0.027,0.351-0.079,0.511s-0.13,0.3-0.23,0.42s-0.226,0.215-0.375,0.284c-0.148,0.069-0.318,0.104-0.512,0.104
				c-0.191,0-0.363-0.035-0.513-0.104c-0.148-0.069-0.273-0.164-0.375-0.284c-0.101-0.12-0.178-0.26-0.229-0.42
				c-0.053-0.16-0.079-0.331-0.079-0.511c0-0.182,0.026-0.353,0.079-0.513c0.052-0.161,0.129-0.3,0.229-0.419
				c0.102-0.121,0.227-0.216,0.375-0.287c0.149-0.071,0.321-0.107,0.513-0.107C75.765,58.597,75.935,58.633,76.083,58.704z
				 M75.184,58.946c-0.11,0.062-0.203,0.143-0.276,0.242c-0.073,0.101-0.129,0.216-0.167,0.344
				c-0.036,0.127-0.057,0.257-0.057,0.391c0,0.132,0.021,0.262,0.057,0.39c0.038,0.129,0.094,0.242,0.167,0.342
				c0.073,0.101,0.166,0.182,0.276,0.243c0.111,0.062,0.24,0.092,0.388,0.092c0.146,0,0.276-0.03,0.387-0.092
				c0.112-0.061,0.204-0.142,0.278-0.243c0.072-0.1,0.129-0.213,0.165-0.342c0.039-0.127,0.057-0.258,0.057-0.39
				c0-0.133-0.018-0.264-0.057-0.391c-0.036-0.128-0.093-0.243-0.165-0.344c-0.074-0.099-0.166-0.181-0.278-0.242
				c-0.11-0.061-0.24-0.092-0.387-0.092C75.424,58.854,75.295,58.886,75.184,58.946z"/>
			<path fill="#FFFFFF" stroke="#FFFFFF" stroke-width="0.25" stroke-miterlimit="10" d="M77.287,58.67l0.794,2.199h0.011
				l0.783-2.199h0.318l-0.946,2.504h-0.328l-0.975-2.504H77.287z"/>
			<path fill="#FFFFFF" stroke="#FFFFFF" stroke-width="0.25" stroke-miterlimit="10" d="M79.725,60.347
				c0.032,0.119,0.081,0.224,0.15,0.318c0.068,0.094,0.155,0.172,0.26,0.233c0.104,0.062,0.23,0.092,0.378,0.092
				c0.225,0,0.402-0.058,0.529-0.174c0.127-0.117,0.216-0.272,0.264-0.467h0.31c-0.065,0.285-0.187,0.505-0.36,0.66
				c-0.175,0.156-0.423,0.233-0.742,0.233c-0.2,0-0.372-0.035-0.518-0.104c-0.146-0.069-0.264-0.166-0.354-0.286
				c-0.093-0.122-0.16-0.263-0.204-0.423c-0.044-0.16-0.066-0.329-0.066-0.506c0-0.166,0.022-0.328,0.066-0.486
				c0.044-0.158,0.111-0.299,0.204-0.424c0.091-0.125,0.209-0.225,0.354-0.301c0.146-0.076,0.317-0.114,0.518-0.114
				c0.202,0,0.376,0.041,0.519,0.121c0.145,0.081,0.261,0.187,0.352,0.319c0.09,0.13,0.154,0.281,0.193,0.451
				s0.056,0.343,0.048,0.517h-1.945C79.679,60.114,79.694,60.229,79.725,60.347z M81.255,59.413
				c-0.038-0.107-0.09-0.201-0.159-0.283c-0.069-0.083-0.152-0.15-0.251-0.2c-0.098-0.049-0.208-0.075-0.332-0.075
				c-0.128,0-0.241,0.026-0.338,0.075c-0.099,0.05-0.183,0.117-0.25,0.2c-0.069,0.082-0.123,0.178-0.166,0.286
				c-0.04,0.109-0.067,0.22-0.08,0.332h1.638C81.312,59.631,81.292,59.52,81.255,59.413z"/>
			<path fill="#FFFFFF" stroke="#FFFFFF" stroke-width="0.25" stroke-miterlimit="10" d="M82.326,58.67v0.587h0.01
				c0.078-0.203,0.2-0.36,0.365-0.471c0.164-0.11,0.362-0.16,0.591-0.149v0.305c-0.141-0.006-0.269,0.012-0.383,0.056
				c-0.115,0.044-0.214,0.107-0.297,0.187c-0.083,0.081-0.147,0.178-0.193,0.289c-0.046,0.112-0.068,0.233-0.068,0.366v1.335h-0.309
				V58.67H82.326z"/>
			<path fill="#FFFFFF" stroke="#FFFFFF" stroke-width="0.25" stroke-miterlimit="10" d="M45.957,64.838
				c-0.115-0.107-0.275-0.16-0.48-0.16c-0.147,0-0.276,0.031-0.388,0.092c-0.111,0.062-0.203,0.142-0.277,0.243
				c-0.074,0.1-0.129,0.214-0.167,0.342c-0.037,0.127-0.056,0.258-0.056,0.39c0,0.133,0.019,0.264,0.056,0.392
				c0.038,0.127,0.093,0.242,0.167,0.342s0.166,0.182,0.277,0.243c0.111,0.061,0.24,0.092,0.388,0.092
				c0.094,0,0.185-0.019,0.269-0.054c0.085-0.035,0.16-0.084,0.226-0.148c0.064-0.062,0.119-0.137,0.161-0.225
				c0.043-0.088,0.069-0.182,0.079-0.286h0.309c-0.042,0.304-0.155,0.541-0.338,0.711c-0.184,0.169-0.418,0.255-0.706,0.255
				c-0.194,0-0.364-0.035-0.513-0.105s-0.274-0.164-0.375-0.283c-0.102-0.12-0.179-0.26-0.231-0.42
				c-0.052-0.16-0.078-0.331-0.078-0.513c0-0.18,0.026-0.35,0.078-0.512c0.052-0.16,0.129-0.3,0.231-0.419
				c0.101-0.12,0.226-0.215,0.375-0.287c0.148-0.071,0.319-0.106,0.513-0.106c0.271,0,0.5,0.071,0.688,0.213s0.3,0.358,0.336,0.645
				h-0.309C46.149,65.092,46.071,64.945,45.957,64.838z"/>
			<path fill="#FFFFFF" stroke="#FFFFFF" stroke-width="0.25" stroke-miterlimit="10" d="M47.265,63.533v3.465h-0.309v-3.465H47.265
				z"/>
			<path fill="#FFFFFF" stroke="#FFFFFF" stroke-width="0.25" stroke-miterlimit="10" d="M48.086,66.17
				c0.032,0.118,0.081,0.225,0.15,0.318c0.068,0.094,0.155,0.172,0.26,0.233c0.104,0.061,0.23,0.092,0.377,0.092
				c0.226,0,0.402-0.06,0.529-0.175c0.128-0.117,0.216-0.271,0.265-0.467h0.309c-0.065,0.286-0.186,0.506-0.36,0.662
				c-0.174,0.154-0.422,0.232-0.743,0.232c-0.199,0-0.372-0.035-0.517-0.105S48.092,66.797,48,66.676
				c-0.092-0.122-0.159-0.264-0.204-0.424c-0.044-0.159-0.066-0.328-0.066-0.507c0-0.164,0.022-0.326,0.066-0.485
				c0.044-0.158,0.112-0.3,0.204-0.424c0.091-0.125,0.21-0.225,0.355-0.302c0.145-0.076,0.318-0.114,0.517-0.114
				c0.203,0,0.376,0.041,0.52,0.122c0.144,0.081,0.26,0.187,0.35,0.318c0.09,0.131,0.154,0.281,0.194,0.451
				c0.039,0.17,0.055,0.342,0.049,0.518H48.04C48.04,65.939,48.055,66.053,48.086,66.17z M49.615,65.236
				c-0.037-0.107-0.09-0.201-0.159-0.284s-0.152-0.148-0.25-0.199c-0.098-0.05-0.209-0.075-0.333-0.075
				c-0.127,0-0.24,0.025-0.337,0.075c-0.099,0.051-0.182,0.116-0.25,0.199c-0.069,0.083-0.124,0.178-0.165,0.286
				c-0.04,0.108-0.067,0.22-0.08,0.332h1.637C49.673,65.455,49.653,65.343,49.615,65.236z"/>
			<path fill="#FFFFFF" stroke="#FFFFFF" stroke-width="0.25" stroke-miterlimit="10" d="M50.466,64.882
				c0.053-0.106,0.124-0.194,0.213-0.262c0.089-0.068,0.195-0.118,0.316-0.151c0.121-0.032,0.254-0.048,0.401-0.048
				c0.111,0,0.222,0.011,0.333,0.032s0.21,0.06,0.299,0.119c0.089,0.059,0.161,0.14,0.216,0.245
				c0.056,0.105,0.083,0.242,0.083,0.411v1.329c0,0.124,0.061,0.185,0.182,0.185c0.036,0,0.069-0.007,0.098-0.019v0.257
				c-0.037,0.006-0.068,0.012-0.095,0.015c-0.028,0.003-0.064,0.005-0.105,0.005c-0.079,0-0.142-0.012-0.188-0.031
				c-0.048-0.021-0.085-0.052-0.11-0.09c-0.026-0.039-0.044-0.086-0.052-0.14c-0.007-0.052-0.013-0.112-0.013-0.177h-0.009
				c-0.056,0.081-0.112,0.152-0.169,0.217c-0.058,0.062-0.121,0.115-0.19,0.158c-0.071,0.041-0.151,0.073-0.241,0.096
				c-0.09,0.022-0.197,0.035-0.32,0.035c-0.118,0-0.228-0.014-0.332-0.041c-0.103-0.028-0.192-0.072-0.269-0.131
				c-0.077-0.061-0.137-0.137-0.182-0.229c-0.044-0.094-0.066-0.202-0.066-0.328c0-0.174,0.039-0.311,0.118-0.41
				c0.078-0.099,0.182-0.174,0.311-0.226c0.129-0.051,0.274-0.088,0.437-0.109c0.162-0.021,0.326-0.041,0.493-0.06
				c0.064-0.007,0.122-0.015,0.171-0.025c0.049-0.009,0.09-0.027,0.123-0.051s0.059-0.057,0.076-0.099
				c0.018-0.042,0.027-0.097,0.027-0.166c0-0.104-0.017-0.188-0.051-0.254s-0.082-0.119-0.142-0.157
				c-0.061-0.039-0.131-0.066-0.21-0.08c-0.08-0.016-0.167-0.022-0.258-0.022c-0.196,0-0.356,0.046-0.48,0.138
				c-0.125,0.092-0.19,0.239-0.196,0.444h-0.309C50.383,65.115,50.413,64.988,50.466,64.882z M52.01,65.629
				c-0.02,0.036-0.057,0.062-0.112,0.078c-0.056,0.017-0.105,0.028-0.147,0.035c-0.131,0.022-0.266,0.043-0.405,0.062
				c-0.139,0.016-0.266,0.043-0.38,0.078c-0.115,0.036-0.208,0.088-0.282,0.154c-0.073,0.065-0.109,0.161-0.109,0.283
				c0,0.078,0.015,0.146,0.046,0.205c0.032,0.061,0.073,0.113,0.125,0.156c0.052,0.044,0.113,0.078,0.182,0.1
				c0.069,0.023,0.138,0.034,0.21,0.034c0.118,0,0.231-0.019,0.339-0.054c0.107-0.035,0.201-0.086,0.281-0.155
				c0.081-0.069,0.144-0.15,0.191-0.247c0.047-0.098,0.071-0.207,0.071-0.33v-0.398H52.01z"/>
			<path fill="#FFFFFF" stroke="#FFFFFF" stroke-width="0.25" stroke-miterlimit="10" d="M53.25,64.493v0.433h0.01
				c0.058-0.152,0.163-0.274,0.313-0.367c0.149-0.092,0.315-0.138,0.495-0.138c0.176,0,0.324,0.022,0.443,0.068
				s0.215,0.109,0.287,0.192c0.072,0.083,0.123,0.184,0.151,0.303c0.03,0.12,0.044,0.254,0.044,0.403v1.611h-0.309v-1.563
				c0-0.106-0.01-0.206-0.029-0.298c-0.02-0.092-0.055-0.173-0.104-0.241c-0.049-0.067-0.115-0.12-0.199-0.159
				c-0.083-0.04-0.187-0.059-0.311-0.059c-0.125,0-0.235,0.022-0.331,0.065c-0.096,0.044-0.178,0.104-0.245,0.18
				c-0.067,0.076-0.12,0.166-0.157,0.271c-0.038,0.104-0.058,0.219-0.061,0.342v1.461h-0.309v-2.505H53.25z"/>
			<path fill="#FFFFFF" stroke="#FFFFFF" stroke-width="0.25" stroke-miterlimit="10" d="M57.033,64.981
				c-0.036-0.069-0.083-0.126-0.144-0.172c-0.06-0.045-0.129-0.079-0.208-0.099s-0.162-0.031-0.25-0.031
				c-0.069,0-0.138,0.007-0.208,0.022c-0.07,0.014-0.135,0.038-0.193,0.072c-0.059,0.034-0.107,0.079-0.142,0.133
				c-0.037,0.056-0.054,0.123-0.054,0.205c0,0.068,0.017,0.125,0.052,0.172c0.034,0.046,0.078,0.086,0.129,0.119
				c0.052,0.032,0.11,0.059,0.172,0.08c0.062,0.021,0.12,0.038,0.171,0.052l0.411,0.092c0.088,0.012,0.176,0.036,0.263,0.07
				c0.087,0.033,0.164,0.079,0.23,0.134c0.067,0.054,0.123,0.122,0.165,0.202c0.043,0.082,0.063,0.178,0.063,0.287
				c0,0.136-0.03,0.252-0.093,0.348c-0.062,0.096-0.141,0.172-0.238,0.232c-0.096,0.061-0.206,0.103-0.325,0.129
				c-0.122,0.025-0.241,0.039-0.358,0.039c-0.298,0-0.539-0.07-0.724-0.209c-0.185-0.141-0.29-0.361-0.315-0.669h0.309
				c0.012,0.206,0.088,0.361,0.228,0.468c0.139,0.105,0.311,0.157,0.518,0.157c0.074,0,0.152-0.009,0.232-0.024
				c0.08-0.016,0.154-0.043,0.223-0.082c0.068-0.039,0.125-0.088,0.168-0.148c0.044-0.059,0.066-0.134,0.066-0.221
				c0-0.074-0.016-0.138-0.046-0.188s-0.073-0.092-0.125-0.125c-0.053-0.035-0.112-0.062-0.18-0.086
				c-0.066-0.022-0.134-0.043-0.203-0.059l-0.396-0.087c-0.102-0.024-0.195-0.056-0.28-0.089c-0.085-0.034-0.159-0.076-0.224-0.126
				c-0.063-0.049-0.113-0.111-0.149-0.183c-0.037-0.074-0.054-0.164-0.054-0.271c0-0.126,0.029-0.235,0.086-0.325
				c0.057-0.091,0.131-0.164,0.223-0.219c0.091-0.056,0.194-0.096,0.306-0.121c0.113-0.026,0.224-0.039,0.336-0.039
				c0.127,0,0.245,0.017,0.354,0.048c0.109,0.033,0.207,0.083,0.29,0.151c0.083,0.068,0.149,0.152,0.198,0.251
				c0.049,0.101,0.077,0.22,0.083,0.355h-0.308C57.09,65.132,57.07,65.051,57.033,64.981z"/>
			<path fill="#FFFFFF" stroke="#FFFFFF" stroke-width="0.25" stroke-miterlimit="10" d="M58.25,63.533v0.49h-0.309v-0.49H58.25z
				 M58.25,64.493v2.505h-0.309v-2.505H58.25z"/>
			<path fill="#FFFFFF" stroke="#FFFFFF" stroke-width="0.25" stroke-miterlimit="10" d="M59.146,64.493v0.433h0.009
				c0.06-0.152,0.165-0.274,0.313-0.367c0.151-0.092,0.317-0.138,0.495-0.138c0.176,0,0.325,0.022,0.444,0.068
				c0.12,0.045,0.216,0.109,0.287,0.192c0.072,0.083,0.122,0.184,0.151,0.303c0.03,0.12,0.044,0.254,0.044,0.403v1.611h-0.309
				v-1.563c0-0.106-0.01-0.206-0.03-0.298c-0.019-0.092-0.052-0.173-0.102-0.241c-0.049-0.067-0.115-0.12-0.198-0.159
				c-0.084-0.04-0.188-0.059-0.311-0.059c-0.125,0-0.236,0.022-0.332,0.065c-0.096,0.044-0.178,0.104-0.245,0.18
				c-0.066,0.076-0.119,0.166-0.157,0.271c-0.037,0.104-0.057,0.219-0.061,0.342v1.461h-0.309v-2.505H59.146z"/>
			<path fill="#FFFFFF" stroke="#FFFFFF" stroke-width="0.25" stroke-miterlimit="10" d="M63.551,67.293
				c-0.041,0.149-0.106,0.275-0.194,0.379c-0.088,0.104-0.204,0.185-0.346,0.238c-0.142,0.056-0.315,0.082-0.523,0.082
				c-0.127,0-0.251-0.015-0.371-0.042c-0.121-0.03-0.23-0.074-0.327-0.136c-0.096-0.062-0.176-0.143-0.24-0.238
				c-0.063-0.094-0.101-0.207-0.11-0.341h0.309c0.016,0.094,0.049,0.174,0.096,0.235c0.047,0.063,0.104,0.114,0.171,0.153
				c0.066,0.04,0.141,0.066,0.223,0.084c0.082,0.019,0.165,0.028,0.249,0.028c0.289,0,0.496-0.082,0.624-0.244
				c0.128-0.161,0.191-0.394,0.191-0.697v-0.341h-0.01c-0.07,0.155-0.177,0.279-0.315,0.373c-0.139,0.095-0.301,0.142-0.489,0.142
				c-0.202,0-0.375-0.033-0.518-0.1c-0.144-0.066-0.262-0.158-0.355-0.273c-0.093-0.117-0.161-0.254-0.204-0.411
				c-0.042-0.155-0.064-0.323-0.064-0.503c0-0.17,0.026-0.333,0.077-0.486s0.124-0.288,0.22-0.403
				c0.097-0.115,0.216-0.206,0.359-0.272c0.141-0.066,0.305-0.1,0.486-0.1c0.096,0,0.186,0.013,0.269,0.039
				c0.083,0.025,0.159,0.062,0.228,0.109c0.069,0.047,0.13,0.101,0.184,0.163c0.055,0.061,0.096,0.127,0.125,0.194h0.01v-0.433
				h0.309v2.302C63.611,66.979,63.591,67.145,63.551,67.293z M62.842,66.627c0.102-0.057,0.187-0.131,0.255-0.223
				c0.068-0.094,0.121-0.199,0.154-0.318c0.035-0.121,0.051-0.242,0.051-0.37c0-0.123-0.014-0.246-0.044-0.368
				c-0.029-0.124-0.077-0.235-0.142-0.335c-0.064-0.101-0.149-0.181-0.252-0.243c-0.103-0.062-0.227-0.092-0.376-0.092
				c-0.145,0-0.272,0.03-0.377,0.09c-0.104,0.06-0.191,0.138-0.259,0.236c-0.068,0.096-0.118,0.207-0.149,0.332
				s-0.047,0.251-0.047,0.381c0,0.127,0.017,0.249,0.049,0.37c0.033,0.119,0.083,0.225,0.152,0.318
				c0.068,0.092,0.155,0.166,0.26,0.223c0.104,0.057,0.229,0.084,0.371,0.084C62.623,66.711,62.741,66.684,62.842,66.627z"/>
			<path fill="#FFFFFF" stroke="#FFFFFF" stroke-width="0.25" stroke-miterlimit="10" d="M66.567,64.493v0.258h-0.515v1.688
				c0,0.101,0.014,0.18,0.042,0.236c0.027,0.056,0.098,0.088,0.208,0.094c0.088,0,0.176-0.004,0.265-0.016v0.258
				c-0.046,0-0.091,0.002-0.137,0.006c-0.047,0.004-0.091,0.004-0.138,0.004c-0.205,0-0.35-0.039-0.432-0.118
				c-0.082-0.08-0.121-0.226-0.116-0.439v-1.713h-0.442v-0.258h0.442v-0.751h0.308v0.751H66.567z"/>
			<path fill="#FFFFFF" stroke="#FFFFFF" stroke-width="0.25" stroke-miterlimit="10" d="M68.594,64.527
				c0.149,0.072,0.274,0.167,0.375,0.287c0.102,0.12,0.179,0.26,0.23,0.419c0.052,0.162,0.078,0.332,0.078,0.512
				c0,0.182-0.026,0.353-0.078,0.513s-0.129,0.3-0.23,0.42c-0.101,0.119-0.226,0.213-0.375,0.283
				c-0.148,0.07-0.318,0.105-0.512,0.105c-0.194,0-0.363-0.035-0.513-0.105c-0.148-0.07-0.273-0.164-0.375-0.283
				c-0.101-0.12-0.178-0.26-0.229-0.42c-0.053-0.16-0.079-0.331-0.079-0.513c0-0.18,0.026-0.35,0.079-0.512
				c0.052-0.16,0.129-0.3,0.229-0.419c0.102-0.12,0.227-0.215,0.375-0.287c0.149-0.071,0.318-0.106,0.513-0.106
				C68.275,64.421,68.445,64.457,68.594,64.527z M67.694,64.771c-0.11,0.062-0.203,0.142-0.276,0.243
				c-0.074,0.1-0.129,0.214-0.167,0.342c-0.038,0.127-0.057,0.258-0.057,0.39c0,0.133,0.019,0.264,0.057,0.392
				c0.038,0.127,0.093,0.242,0.167,0.342c0.073,0.1,0.166,0.182,0.276,0.243c0.111,0.061,0.24,0.092,0.388,0.092
				c0.146,0,0.276-0.031,0.387-0.092c0.112-0.062,0.204-0.144,0.278-0.243c0.072-0.1,0.127-0.215,0.165-0.342
				c0.039-0.128,0.057-0.259,0.057-0.392c0-0.132-0.018-0.263-0.057-0.39c-0.038-0.128-0.093-0.242-0.165-0.342
				c-0.074-0.101-0.166-0.181-0.278-0.243c-0.11-0.062-0.24-0.092-0.387-0.092C67.935,64.678,67.806,64.709,67.694,64.771z"/>
			<path fill="#FFFFFF" stroke="#FFFFFF" stroke-width="0.25" stroke-miterlimit="10" d="M69.812,64.493l0.647,2.146h0.011
				l0.616-2.146h0.35l0.616,2.146h0.011l0.647-2.146h0.327l-0.813,2.505h-0.338l-0.622-2.106h-0.01l-0.618,2.106h-0.338
				l-0.814-2.505H69.812z"/>
			<path fill="#FFFFFF" stroke="#FFFFFF" stroke-width="0.25" stroke-miterlimit="10" d="M73.599,66.17
				c0.03,0.118,0.081,0.225,0.149,0.318s0.155,0.172,0.26,0.233c0.105,0.061,0.23,0.092,0.378,0.092c0.226,0,0.401-0.06,0.529-0.175
				c0.127-0.117,0.217-0.271,0.265-0.467h0.309c-0.064,0.286-0.186,0.506-0.361,0.662c-0.173,0.154-0.421,0.232-0.741,0.232
				c-0.2,0-0.372-0.035-0.517-0.105c-0.147-0.07-0.266-0.164-0.356-0.285c-0.091-0.122-0.159-0.264-0.203-0.424
				c-0.043-0.159-0.065-0.328-0.065-0.507c0-0.164,0.022-0.326,0.065-0.485c0.044-0.158,0.112-0.3,0.203-0.424
				c0.091-0.125,0.209-0.225,0.356-0.302c0.145-0.076,0.316-0.114,0.517-0.114c0.202,0,0.376,0.041,0.52,0.122
				c0.144,0.081,0.261,0.187,0.352,0.318c0.088,0.131,0.152,0.281,0.192,0.451c0.039,0.17,0.056,0.342,0.049,0.518h-1.945
				C73.553,65.939,73.566,66.053,73.599,66.17z M75.127,65.236c-0.037-0.107-0.089-0.201-0.158-0.284s-0.152-0.148-0.251-0.199
				c-0.097-0.05-0.207-0.075-0.332-0.075c-0.128,0-0.24,0.025-0.338,0.075c-0.098,0.051-0.183,0.116-0.25,0.199
				c-0.07,0.083-0.124,0.178-0.165,0.286c-0.041,0.108-0.068,0.22-0.08,0.332h1.636C75.186,65.455,75.166,65.343,75.127,65.236z"/>
			<path fill="#FFFFFF" stroke="#FFFFFF" stroke-width="0.25" stroke-miterlimit="10" d="M76.229,63.533v3.465H75.92v-3.465H76.229z
				"/>
			<path fill="#FFFFFF" stroke="#FFFFFF" stroke-width="0.25" stroke-miterlimit="10" d="M77.049,66.17
				c0.031,0.118,0.081,0.225,0.15,0.318c0.067,0.094,0.154,0.172,0.259,0.233c0.105,0.061,0.23,0.092,0.378,0.092
				c0.226,0,0.403-0.06,0.53-0.175c0.127-0.117,0.216-0.271,0.264-0.467h0.31c-0.065,0.286-0.187,0.506-0.361,0.662
				c-0.174,0.154-0.422,0.232-0.742,0.232c-0.199,0-0.371-0.035-0.517-0.105s-0.265-0.164-0.354-0.285
				c-0.093-0.122-0.161-0.264-0.204-0.424c-0.044-0.159-0.066-0.328-0.066-0.507c0-0.164,0.022-0.326,0.066-0.485
				c0.043-0.158,0.111-0.3,0.204-0.424c0.09-0.125,0.209-0.225,0.354-0.302c0.146-0.076,0.317-0.114,0.517-0.114
				c0.203,0,0.377,0.041,0.52,0.122c0.145,0.081,0.261,0.187,0.351,0.318c0.09,0.131,0.153,0.281,0.194,0.451
				c0.039,0.17,0.055,0.342,0.048,0.518h-1.945C77.003,65.939,77.019,66.053,77.049,66.17z M78.578,65.236
				c-0.037-0.107-0.089-0.201-0.159-0.284c-0.068-0.083-0.152-0.148-0.25-0.199c-0.098-0.05-0.208-0.075-0.333-0.075
				c-0.128,0-0.24,0.025-0.338,0.075c-0.098,0.051-0.182,0.116-0.249,0.199c-0.07,0.083-0.123,0.178-0.166,0.286
				c-0.04,0.108-0.067,0.22-0.08,0.332h1.637C78.637,65.455,78.616,65.343,78.578,65.236z"/>
			<path fill="#FFFFFF" stroke="#FFFFFF" stroke-width="0.25" stroke-miterlimit="10" d="M80.37,64.493v0.258h-0.514v1.688
				c0,0.101,0.014,0.18,0.041,0.236c0.027,0.056,0.097,0.088,0.209,0.094c0.087,0,0.175-0.004,0.264-0.016v0.258
				c-0.045,0-0.092,0.002-0.137,0.006c-0.047,0.004-0.092,0.004-0.138,0.004c-0.205,0-0.35-0.039-0.432-0.118
				c-0.081-0.08-0.121-0.226-0.116-0.439v-1.713h-0.442v-0.258h0.442v-0.751h0.309v0.751H80.37z"/>
			<path fill="#FFFFFF" stroke="#FFFFFF" stroke-width="0.25" stroke-miterlimit="10" d="M81.821,64.493v0.258h-0.516v1.688
				c0,0.101,0.015,0.18,0.043,0.236c0.027,0.056,0.097,0.088,0.207,0.094c0.089,0,0.178-0.004,0.266-0.016v0.258
				c-0.046,0-0.092,0.002-0.138,0.006c-0.045,0.004-0.092,0.004-0.138,0.004c-0.205,0-0.349-0.039-0.431-0.118
				c-0.082-0.08-0.121-0.226-0.118-0.439v-1.713h-0.44v-0.258h0.44v-0.751h0.309v0.751H81.821z"/>
			<path fill="#FFFFFF" stroke="#FFFFFF" stroke-width="0.25" stroke-miterlimit="10" d="M82.495,66.17
				c0.03,0.118,0.081,0.225,0.149,0.318s0.155,0.172,0.261,0.233c0.104,0.061,0.229,0.092,0.377,0.092
				c0.226,0,0.401-0.06,0.528-0.175c0.129-0.117,0.217-0.271,0.266-0.467h0.309c-0.065,0.286-0.186,0.506-0.36,0.662
				c-0.175,0.154-0.422,0.232-0.742,0.232c-0.2,0-0.372-0.035-0.518-0.105s-0.263-0.164-0.355-0.285
				c-0.091-0.122-0.159-0.264-0.203-0.424c-0.044-0.159-0.066-0.328-0.066-0.507c0-0.164,0.022-0.326,0.066-0.485
				c0.044-0.158,0.112-0.3,0.203-0.424c0.093-0.125,0.21-0.225,0.355-0.302c0.146-0.076,0.317-0.114,0.518-0.114
				c0.202,0,0.375,0.041,0.521,0.122c0.143,0.081,0.26,0.187,0.35,0.318c0.09,0.131,0.154,0.281,0.192,0.451
				c0.04,0.17,0.057,0.342,0.05,0.518h-1.946C82.448,65.939,82.464,66.053,82.495,66.17z M84.024,65.236
				c-0.038-0.107-0.091-0.201-0.159-0.284c-0.069-0.083-0.151-0.148-0.251-0.199c-0.097-0.05-0.208-0.075-0.332-0.075
				c-0.127,0-0.24,0.025-0.339,0.075c-0.098,0.051-0.182,0.116-0.25,0.199s-0.123,0.178-0.164,0.286
				c-0.041,0.108-0.068,0.22-0.081,0.332h1.639C84.083,65.455,84.062,65.343,84.024,65.236z"/>
			<path fill="#FFFFFF" stroke="#FFFFFF" stroke-width="0.25" stroke-miterlimit="10" d="M86.267,64.981
				c-0.036-0.069-0.084-0.126-0.145-0.172c-0.062-0.045-0.13-0.079-0.209-0.099c-0.078-0.021-0.161-0.031-0.25-0.031
				c-0.067,0-0.137,0.007-0.207,0.022c-0.071,0.014-0.136,0.038-0.194,0.072c-0.058,0.034-0.106,0.079-0.142,0.133
				c-0.036,0.056-0.054,0.123-0.054,0.205c0,0.068,0.017,0.125,0.051,0.172c0.034,0.046,0.078,0.086,0.13,0.119
				c0.054,0.032,0.11,0.059,0.173,0.08c0.061,0.021,0.118,0.038,0.171,0.052l0.411,0.092c0.089,0.012,0.176,0.036,0.263,0.07
				c0.087,0.033,0.163,0.079,0.229,0.134c0.067,0.054,0.123,0.122,0.165,0.202c0.043,0.082,0.062,0.178,0.062,0.287
				c0,0.136-0.03,0.252-0.093,0.348s-0.141,0.172-0.237,0.232c-0.096,0.061-0.205,0.103-0.325,0.129
				c-0.122,0.025-0.24,0.039-0.358,0.039c-0.298,0-0.538-0.07-0.723-0.209c-0.185-0.141-0.29-0.361-0.316-0.669h0.309
				c0.014,0.206,0.089,0.361,0.229,0.468c0.139,0.105,0.311,0.157,0.517,0.157c0.075,0,0.152-0.009,0.233-0.024
				c0.079-0.016,0.154-0.043,0.223-0.082s0.125-0.088,0.168-0.148c0.045-0.059,0.067-0.134,0.067-0.221
				c0-0.074-0.016-0.138-0.047-0.188c-0.03-0.05-0.072-0.092-0.125-0.125c-0.053-0.035-0.112-0.062-0.18-0.086
				c-0.066-0.022-0.133-0.043-0.202-0.059l-0.396-0.087c-0.103-0.024-0.195-0.056-0.28-0.089c-0.085-0.034-0.159-0.076-0.223-0.126
				c-0.063-0.049-0.114-0.111-0.15-0.183c-0.036-0.074-0.053-0.164-0.053-0.271c0-0.126,0.028-0.235,0.085-0.325
				c0.058-0.091,0.131-0.164,0.224-0.219c0.091-0.056,0.193-0.096,0.306-0.121c0.112-0.026,0.225-0.039,0.336-0.039
				c0.127,0,0.246,0.017,0.354,0.048c0.111,0.033,0.207,0.083,0.291,0.151c0.082,0.068,0.148,0.152,0.197,0.251
				c0.051,0.101,0.076,0.22,0.085,0.355h-0.31C86.323,65.132,86.303,65.051,86.267,64.981z"/>
		</g>
		<g>
			<path fill="#FFFFFF" d="M57.476,48.959l1.074,1.545h0.005v-1.545h0.176v1.826h-0.197l-1.073-1.544h-0.006v1.544h-0.176v-1.826
				H57.476z"/>
			<path fill="#FFFFFF" d="M60.373,48.959v0.148h-1.097v0.661h1.027v0.148h-1.027v0.721h1.109v0.148H59.1v-1.826H60.373z"/>
			<path fill="#FFFFFF" d="M60.788,48.959v1.131c0,0.105,0.012,0.195,0.036,0.269c0.024,0.075,0.06,0.135,0.105,0.182
				c0.047,0.047,0.105,0.081,0.171,0.103c0.066,0.021,0.143,0.031,0.228,0.031c0.084,0,0.162-0.01,0.229-0.031
				c0.067-0.021,0.124-0.055,0.17-0.103c0.046-0.047,0.082-0.107,0.105-0.182c0.024-0.074,0.037-0.164,0.037-0.269v-1.131h0.176
				v1.168c0,0.094-0.014,0.184-0.041,0.268c-0.027,0.084-0.068,0.159-0.127,0.222c-0.057,0.062-0.131,0.113-0.222,0.149
				c-0.091,0.037-0.2,0.055-0.329,0.055c-0.128,0-0.236-0.019-0.327-0.055c-0.091-0.036-0.166-0.087-0.222-0.149
				c-0.059-0.063-0.101-0.138-0.127-0.222c-0.026-0.084-0.04-0.173-0.04-0.268v-1.168H60.788z"/>
			<path fill="#FFFFFF" d="M63.662,48.959v0.148H63.02v1.678h-0.177v-1.678h-0.639v-0.148H63.662z"/>
			<path fill="#FFFFFF" d="M64.679,48.959c0.076,0,0.147,0.01,0.217,0.028c0.066,0.02,0.126,0.048,0.178,0.086
				c0.051,0.038,0.091,0.087,0.121,0.148c0.03,0.06,0.045,0.131,0.045,0.213c0,0.116-0.031,0.216-0.091,0.301
				c-0.061,0.086-0.148,0.14-0.268,0.164v0.005c0.06,0.008,0.109,0.024,0.15,0.047c0.038,0.023,0.07,0.053,0.097,0.088
				c0.023,0.037,0.042,0.077,0.053,0.124c0.012,0.047,0.02,0.098,0.023,0.152c0,0.031,0.002,0.068,0.004,0.113
				c0.002,0.044,0.005,0.088,0.011,0.134c0.006,0.045,0.013,0.087,0.024,0.127c0.012,0.041,0.026,0.071,0.046,0.094h-0.194
				c-0.011-0.017-0.019-0.039-0.023-0.063c-0.006-0.024-0.013-0.05-0.015-0.077s-0.004-0.052-0.006-0.078
				c-0.002-0.025-0.004-0.047-0.006-0.066c-0.002-0.064-0.008-0.129-0.017-0.193c-0.007-0.063-0.023-0.121-0.048-0.171
				c-0.026-0.05-0.061-0.091-0.109-0.121c-0.047-0.032-0.112-0.045-0.195-0.042H64.01v0.811h-0.175v-1.826H64.679z M64.666,49.826
				c0.055,0,0.104-0.008,0.152-0.024c0.049-0.016,0.092-0.04,0.127-0.07c0.036-0.031,0.064-0.068,0.087-0.111
				c0.021-0.043,0.031-0.093,0.031-0.149c0-0.112-0.032-0.201-0.098-0.266c-0.066-0.065-0.165-0.098-0.3-0.098H64.01v0.719H64.666z"
				/>
			<path fill="#FFFFFF" d="M65.513,49.512c0.036-0.115,0.091-0.215,0.163-0.303c0.073-0.087,0.164-0.158,0.272-0.21
				c0.109-0.052,0.236-0.077,0.381-0.077c0.144,0,0.271,0.025,0.38,0.077c0.108,0.052,0.197,0.123,0.271,0.21
				c0.072,0.088,0.126,0.188,0.162,0.303c0.037,0.114,0.055,0.234,0.055,0.359c0,0.127-0.018,0.247-0.055,0.361
				c-0.036,0.114-0.09,0.214-0.162,0.301c-0.073,0.087-0.162,0.156-0.271,0.208c-0.109,0.052-0.236,0.079-0.38,0.079
				c-0.145,0-0.271-0.026-0.381-0.079c-0.108-0.052-0.199-0.121-0.272-0.208c-0.072-0.087-0.127-0.187-0.163-0.301
				s-0.054-0.234-0.054-0.361C65.459,49.746,65.477,49.626,65.513,49.512z M65.674,50.165c0.027,0.097,0.068,0.183,0.124,0.258
				c0.056,0.076,0.128,0.137,0.216,0.183c0.088,0.046,0.192,0.069,0.315,0.069c0.122,0,0.227-0.022,0.312-0.069
				c0.088-0.045,0.16-0.106,0.216-0.183c0.055-0.075,0.097-0.162,0.123-0.258c0.026-0.096,0.041-0.193,0.041-0.293
				s-0.015-0.198-0.041-0.293c-0.026-0.095-0.068-0.181-0.123-0.257c-0.056-0.075-0.128-0.137-0.216-0.183
				c-0.086-0.045-0.19-0.069-0.312-0.069c-0.123,0-0.228,0.023-0.315,0.069c-0.088,0.046-0.16,0.107-0.216,0.183
				c-0.056,0.076-0.097,0.162-0.124,0.257c-0.026,0.096-0.04,0.194-0.04,0.293S65.647,50.068,65.674,50.165z"/>
			<path fill="#FFFFFF" d="M68.919,50.785l-0.024-0.333h-0.004c-0.031,0.065-0.07,0.121-0.115,0.168
				c-0.045,0.046-0.097,0.085-0.151,0.114c-0.056,0.03-0.114,0.052-0.177,0.066c-0.063,0.013-0.128,0.021-0.194,0.021
				c-0.145,0-0.272-0.026-0.381-0.079c-0.109-0.052-0.2-0.121-0.272-0.208c-0.072-0.087-0.127-0.187-0.163-0.301
				s-0.055-0.234-0.055-0.361c0-0.125,0.019-0.245,0.055-0.359c0.036-0.115,0.091-0.215,0.163-0.303
				c0.072-0.087,0.163-0.158,0.272-0.21c0.108-0.052,0.236-0.077,0.381-0.077c0.095,0,0.188,0.013,0.273,0.037
				c0.086,0.027,0.162,0.064,0.229,0.115c0.068,0.052,0.125,0.115,0.171,0.19c0.047,0.075,0.079,0.163,0.096,0.263h-0.176
				c-0.005-0.053-0.021-0.106-0.052-0.16c-0.03-0.053-0.071-0.102-0.122-0.146c-0.052-0.044-0.111-0.081-0.182-0.109
				s-0.15-0.042-0.237-0.042c-0.123,0-0.228,0.023-0.316,0.069c-0.087,0.046-0.159,0.107-0.215,0.183
				c-0.056,0.076-0.098,0.162-0.124,0.257c-0.026,0.096-0.04,0.194-0.04,0.293s0.014,0.197,0.04,0.293
				c0.026,0.097,0.068,0.183,0.124,0.258c0.056,0.076,0.128,0.137,0.215,0.183c0.089,0.046,0.193,0.069,0.316,0.069
				c0.101,0,0.191-0.017,0.271-0.049s0.148-0.08,0.204-0.139c0.054-0.06,0.096-0.13,0.123-0.212
				c0.026-0.082,0.041-0.171,0.039-0.269h-0.627v-0.148h0.782v0.928H68.919z"/>
			<path fill="#FFFFFF" d="M70.656,48.959v0.148h-1.098v0.661h1.027v0.148h-1.027v0.721h1.11v0.148h-1.285v-1.826H70.656z"/>
			<path fill="#FFFFFF" d="M71.108,48.959l1.073,1.545h0.006v-1.545h0.175v1.826h-0.195l-1.074-1.544h-0.006v1.544h-0.176v-1.826
				H71.108z"/>
			<path fill="#FFFFFF" d="M73.468,48.959l0.722,1.826h-0.188l-0.225-0.567h-0.839l-0.223,0.567H72.53l0.742-1.826H73.468z
				 M73.718,50.069l-0.355-0.936l-0.37,0.936H73.718z"/>
		</g>
	</g>
</g>
</svg>
