<?xml version="1.0" encoding="utf-8"?>
<!-- Generator: Adobe Illustrator 18.1.1, SVG Export Plug-In . SVG Version: 6.00 Build 0)  -->
<svg version="1.1" id="Layer_1" xmlns="http://www.w3.org/2000/svg" xmlns:xlink="http://www.w3.org/1999/xlink" x="0px" y="0px"
	 viewBox="0 0 510 171.2" enable-background="new 0 0 510 171.2" xml:space="preserve">
<g>
	<g>
		<g>
			<g>
				<defs>
					<rect id="SVGID_1_" x="30.5" y="31.8" width="60.3" height="64.1"/>
				</defs>
				<clipPath id="SVGID_2_">
					<use xlink:href="#SVGID_1_"  overflow="visible"/>
				</clipPath>
			</g>
			<path fill="none" stroke="#505978" stroke-linecap="round" stroke-linejoin="round" stroke-miterlimit="10" d="M97,48.1l0.1-2.9
				c-1.3,0-2.3-0.8-2.7-1.9v-1.8c0.4-1.1,1.4-1.9,2.7-1.9l0-2.4c-1.2,0-2.2-0.8-2.7-1.8v-2c0.4-1.1,1.4-1.8,2.7-1.8l0-2.5h-2.7v-2.9
				l-3,0c0,1.6-1.2,2.8-2.8,2.8c-1.5,0-2.8-1.3-2.8-2.8l-2.4,0c0,1.6-1.2,2.8-2.8,2.8c-1.5,0-2.8-1.3-2.8-2.8L75.3,26
				c0,1.6-1.2,2.8-2.8,2.8c-1.5,0-2.8-1.3-2.8-2.8L67.5,26c0,1.6-1.2,2.8-2.8,2.8c-1.5,0-2.8-1.3-2.8-2.8l-3.1,0
				c0,1.6-1.2,2.8-2.8,2.8s-2.8-1.3-2.8-2.8L51,26c0,1.6-1.2,2.8-2.8,2.8c-1.5,0-2.8-1.3-2.8-2.8l-2.8-0.1c0,1.6-1.2,2.8-2.8,2.8
				c-1.5,0-2.8-1.3-2.8-2.8l-2.4,0c0,1.6-1.2,2.8-2.8,2.8c-1.5,0-2.8-1.3-2.8-2.8l-2.4,0V29h-2.7l0,2.5c1.2,0,2.2,0.8,2.7,1.8v2
				c-0.4,1.1-1.4,1.8-2.7,1.8l0,2.4c1.2,0,2.3,0.8,2.7,1.9v1.8c-0.4,1.1-1.4,1.9-2.7,1.9l0.1,2.9c1.2,0,2.1,0.7,2.6,1.7v2.3
				c-0.4,1-1.4,1.7-2.6,1.7l0.1,2.4c1.1,0,2.1,0.6,2.5,1.6v2.5c-0.5,0.9-1.4,1.6-2.5,1.6l0,3.2c1.1,0,2.1,0.7,2.6,1.6v2.4
				c-0.5,1-1.4,1.6-2.6,1.6l-0.1,2.4c1.2,0,2.2,0.7,2.6,1.7v2.2c-0.4,1-1.4,1.7-2.6,1.7l0.1,2.9c1.1,0,2,0.6,2.5,1.5V86
				c-0.5,0.9-1.4,1.5-2.5,1.5l0,2.4c1.1,0,2,0.6,2.5,1.5v2.7c-0.5,0.9-1.4,1.5-2.5,1.5l0,3.1h2.5v3.1l2.4,0c0-1.6,1.2-2.8,2.8-2.8
				c1.5,0,2.8,1.3,2.8,2.8l2.4,0c0-1.6,1.2-2.8,2.8-2.8c1.5,0,2.8,1.3,2.8,2.8l2.8-0.1c0-1.6,1.2-2.8,2.8-2.8c1.5,0,2.8,1.3,2.8,2.8
				l2.3-0.1c0-1.6,1.2-2.8,2.8-2.8s2.8,1.3,2.8,2.8l3.1,0c0-1.6,1.2-2.8,2.8-2.8c1.5,0,2.8,1.3,2.8,2.8l2.3,0.1
				c0-1.6,1.2-2.8,2.8-2.8c1.5,0,2.8,1.3,2.8,2.8l2.8-0.1c0-1.6,1.2-2.8,2.8-2.8c1.5,0,2.8,1.3,2.8,2.8l2.4,0c0-1.6,1.2-2.8,2.8-2.8
				c1.5,0,2.8,1.3,2.8,2.8l3,0v-2.9h2.5l0-3.1c-1.1,0-2-0.6-2.5-1.5v-2.7c0.5-0.9,1.4-1.5,2.5-1.5l0-2.4c-1.1,0-2-0.6-2.5-1.5v-2.6
				c0.5-0.9,1.4-1.5,2.5-1.5L97,79c-1.2,0-2.2-0.7-2.6-1.7V75c0.4-1,1.4-1.7,2.6-1.7L97,70.9c-1.1,0-2.1-0.7-2.6-1.6v-2.4
				c0.5-1,1.4-1.6,2.6-1.6l0-3.2c-1.1,0-2.1-0.6-2.5-1.6v-2.5c0.5-0.9,1.4-1.6,2.5-1.6l0.1-2.4c-1.2,0-2.2-0.7-2.6-1.7v-2.3
				C94.9,48.8,95.8,48.1,97,48.1z"/>
			<rect x="30.5" y="31.8" fill="#FACCC2" stroke="#505978" stroke-width="2" stroke-miterlimit="10" width="60.3" height="64.1"/>
			<g>
				<path fill-rule="evenodd" clip-rule="evenodd" fill="#FFFFFF" d="M38.9,62.3c0-0.3,0-0.5,0-0.8c0.6-2.4,2.5-5.2,4.7-6.3
					c1.1-0.6,2.9-0.7,3.1,0.7c-2.2,0-3.4,1.5-4.4,2.8c-0.4,0.6-0.9,1.2-1.2,1.8c-0.4,0.6-0.9,1.4-0.7,2.2c0.8,0.1,1.3-0.6,1.7-1.1
					c0.9-1.1,1.5-2.3,2.2-3.5c0.3-0.6,0.8-1.4,1.7-1c0,0.8-0.5,1.5-0.7,2.4c-0.2,0.7-0.6,1.9-0.1,2.6c0.6,0,1.1-0.5,1.5-0.9
					c2-2.2,2.7-5.4,3.9-8.5c0.4-0.9,0.9-2.9,1.9-3.1c0.5-0.1,0.9,0.1,1.1,0.4c-0.6,1.6-1.3,3.5-2,5.4c-0.7,1.9-1.4,3.8-1.6,5.8
					c-0.1,1.5,0.4,2.7,1.2,3.3c-2.5,1.3-3.7-1.9-3-4.3c-0.8,1-1.8,3-3.5,3.2c-1.4,0.2-1.6-0.9-1.5-2.1c-0.6,0.6-1.8,2.5-3.2,2.3
					C39.3,63.5,39.1,63,38.9,62.3z"/>
				<path fill-rule="evenodd" clip-rule="evenodd" fill="#FFFFFF" d="M69,56c-3,0.5-4.8,2.9-5.7,5.5c-0.1,0.3-0.4,0.8-0.1,1.2
					c0.7,0,1.1-0.6,1.4-1c0.7-0.9,1.2-1.9,1.8-3c0.4-0.8,0.8-2,2-1.5c0.1,1.5-2.1,4.4-0.7,5.8c0.3,0.3,0.7,0.4,1.2,0.6
					c-0.2,0.6-0.9,0.7-1.6,0.6c-1-0.2-1.7-1.3-1.7-2.5c-0.8,0.7-1.6,2-3,1.9c-1.9-0.1-1-3.2-0.3-4.3c-0.6,0.2-1.7,0.1-2-0.4
					c-0.7,1.6-1.9,4.3-4.1,4.5c-1.2,0.1-1.7-0.9-1.3-2.1c-0.9,0.8-1.3,2.2-3,2.1c-0.6-0.3-0.9-1-0.7-1.8c0.3-2.1,1.9-3.7,2.1-6
					c0.6-0.5,1.5-0.2,1.7,0.6c0.2,1.1-0.5,2.1-1,3.1c-0.5,1-0.9,2-1.1,3c0.3,0,0.5-0.2,0.7-0.4c1-1,1.7-2.2,2.4-3.7
					c0.3-0.6,0.7-1.9,1.5-1.2c0.2,1-0.4,1.9-0.7,2.8c-0.2,0.4-0.4,0.9-0.5,1.4c-0.1,0.4-0.3,1,0,1.5c0.5-0.1,0.8-0.6,1.1-1.1
					c0.3-0.4,0.6-0.9,0.8-1.4c0.5-1,1.2-2.1,1.2-3c0.1-1.1-0.2-2.4,0.8-2.6c0.6-0.1,0.9,0.6,0.9,1.1c0.1,0.6-0.3,1.3-0.3,1.7
					c0,1,1.1,1.7,2,1.1c0.3-0.3,0.6-0.7,0.9-1.1c0.8-1,2.2-2.4,3.8-2.4C68.1,55,68.9,55.2,69,56z"/>
				<path fill-rule="evenodd" clip-rule="evenodd" fill="#FFFFFF" d="M82.5,56.1c0,0.2,0,0.4,0,0.6c-0.2,0.2-0.2,0.5-0.6,0.6
					c-0.1-0.5-1.4-1.7-2.2-1.1c-0.7,0.6,0.3,2.3,0.5,2.6c0.7,1.4,1.4,3.6-0.3,4.4c-0.9,0.4-3.4,0.2-3.5-0.8c0-0.3,0.1-1.1,0.6-1.1
					c0.2,0,0.4,0.3,0.5,0.4c0.5,0.5,1,1,1.9,0.8c0.4-1.7-1.7-2.9-1.4-4.9c0.2-1.4,1.4-2.4,2.9-2.4C81.6,55.1,82.2,55.4,82.5,56.1z"
					/>
				<path fill-rule="evenodd" clip-rule="evenodd" fill="#FFFFFF" d="M69.7,68.4c-0.5,0-1,0-1.4,0c-0.5-0.2-1.1-0.2-1.2-0.8
					c2.4,0,3.9-1.2,4.9-2.5c1-1.3,1.7-2.9,2.1-4.5c-0.5,0.5-0.9,1.2-1.6,1.8c-0.8,0.6-3.2,1.9-3.4,0c-0.1-1.1,0.5-2.2,0.9-3.1
					c0.6-1.3,1.1-2.5,1.1-4c0.6-0.4,1.5-0.1,1.7,0.4c0.2,0.5,0,1.2-0.2,1.8c-0.5,1.8-1.4,3.2-1.7,4.8c0.8-0.2,1.2-0.8,1.7-1.3
					c0.9-1,1.7-2.3,2.3-3.6c0.4-1,0.5-2.8,2.1-2.3c0,1.5-0.4,2.9-0.7,4.3C75.1,63.6,73.8,67.4,69.7,68.4z"/>
			</g>
			<g>
				<path fill="#FFFFFF" d="M40.1,66.7C40.1,66.8,40,66.8,40.1,66.7c-0.1,0-0.2,0-0.2-0.1c0-0.1-0.1-0.1-0.1-0.2c0,0,0-0.1,0-0.1
					c0,0,0.1-0.1,0.1-0.1c0,0,0,0,0.1,0c0,0,0.1,0,0.1,0c0.1,0,0.1,0,0.2,0.1c0,0,0.1,0.1,0.1,0.2C40.3,66.6,40.2,66.7,40.1,66.7z
					 M40.2,69.5h-0.4v-2h0.4V69.5z M64.7,70.1C64.7,70.1,64.7,70.1,64.7,70.1c-0.1,0-0.2,0-0.2-0.1c0-0.1-0.1-0.1-0.1-0.2
					c0,0,0-0.1,0-0.1c0,0,0.1-0.1,0.1-0.1c0,0,0,0,0.1,0c0,0,0.1,0,0.1,0c0.1,0,0.1,0,0.2,0.1c0,0,0.1,0.1,0.1,0.2
					C64.9,70,64.9,70,64.7,70.1z"/>
				<path fill="#FFFFFF" d="M45.4,69.6L45.4,69.6L43,67v2.5h-0.4v-3.3h0.1l2.4,2.6v-2.5h0.4V69.6z"/>
				<path fill="#FFFFFF" d="M48.9,67.9h-1.4v1.6h-0.4v-3.3h1.8v0.3h-1.4v1h1.4V67.9z"/>
				<path fill="#FFFFFF" d="M50.8,69.5h-0.4v-3.3h0.4V69.5z"/>
				<path fill="#FFFFFF" d="M55.5,69.6L55.5,69.6L53,67v2.5h-0.4v-3.3h0.1l2.4,2.6v-2.5h0.4V69.6z"/>
				<path fill="#FFFFFF" d="M58.2,69.5h-0.4v-3.3h0.4V69.5z"/>
				<path fill="#FFFFFF" d="M61.9,66.6h-0.9v2.9h-0.4v-2.9h-0.9v-0.3h2.3V66.6z"/>
				<path fill="#FFFFFF" d="M66,66.3L64.9,68v1.5h-0.4V68l-1.1-1.8l0.5,0l0.8,1.5l0.8-1.5L66,66.3z"/>
			</g>
		</g>
		<g>
			<g>
				<g>
					<defs>
						<rect id="SVGID_3_" x="113.5" y="31.8" width="60.3" height="64.1"/>
					</defs>
					<clipPath id="SVGID_4_">
						<use xlink:href="#SVGID_3_"  overflow="visible"/>
					</clipPath>
				</g>
				<path fill="none" stroke="#505978" stroke-linecap="round" stroke-linejoin="round" stroke-miterlimit="10" d="M180,48.1
					l0.1-2.9c-1.2,0-2.3-0.8-2.7-1.9v-1.8c0.4-1.1,1.4-1.9,2.7-1.9l0-2.4c-1.2,0-2.2-0.8-2.7-1.8v-2c0.4-1.1,1.4-1.8,2.7-1.8l0-2.5
					h-2.7v-2.9l-3,0c0,1.6-1.2,2.8-2.8,2.8c-1.5,0-2.8-1.3-2.8-2.8l-2.4,0c0,1.6-1.2,2.8-2.8,2.8c-1.5,0-2.8-1.3-2.8-2.8l-2.8-0.1
					c0,1.6-1.2,2.8-2.8,2.8c-1.5,0-2.8-1.3-2.8-2.8l-2.3,0.1c0,1.6-1.2,2.8-2.8,2.8c-1.5,0-2.8-1.3-2.8-2.8l-3.1,0
					c0,1.6-1.2,2.8-2.8,2.8c-1.5,0-2.8-1.3-2.8-2.8L134,26c0,1.6-1.2,2.8-2.8,2.8c-1.5,0-2.8-1.3-2.8-2.8l-2.8-0.1
					c0,1.6-1.2,2.8-2.8,2.8c-1.5,0-2.8-1.3-2.8-2.8l-2.4,0c0,1.6-1.2,2.8-2.8,2.8c-1.5,0-2.8-1.3-2.8-2.8l-2.4,0V29h-2.7l0,2.5
					c1.2,0,2.2,0.8,2.7,1.8v2c-0.4,1.1-1.4,1.8-2.7,1.8l0,2.4c1.2,0,2.3,0.8,2.7,1.9v1.8c-0.4,1.1-1.4,1.9-2.7,1.9l0.1,2.9
					c1.2,0,2.2,0.7,2.6,1.7v2.3c-0.4,1-1.4,1.7-2.6,1.7l0.1,2.4c1.1,0,2.1,0.6,2.5,1.6v2.5c-0.5,0.9-1.4,1.6-2.5,1.6l0,3.2
					c1.1,0,2.1,0.7,2.6,1.6v2.4c-0.5,1-1.4,1.6-2.6,1.6l-0.1,2.4c1.2,0,2.2,0.7,2.6,1.7v2.2c-0.4,1-1.4,1.7-2.6,1.7l0.1,2.9
					c1.1,0,2,0.6,2.5,1.5V86c-0.5,0.9-1.4,1.5-2.5,1.5l0,2.4c1.1,0,2,0.6,2.5,1.5v2.7c-0.5,0.9-1.4,1.5-2.5,1.5l0,3.1h2.5v3.1l2.4,0
					c0-1.6,1.2-2.8,2.8-2.8c1.5,0,2.8,1.3,2.8,2.8l2.4,0c0-1.6,1.2-2.8,2.8-2.8c1.5,0,2.8,1.3,2.8,2.8l2.8-0.1
					c0-1.6,1.2-2.8,2.8-2.8c1.5,0,2.8,1.3,2.8,2.8l2.3-0.1c0-1.6,1.2-2.8,2.8-2.8c1.5,0,2.8,1.3,2.8,2.8l3.1,0
					c0-1.6,1.2-2.8,2.8-2.8c1.5,0,2.8,1.3,2.8,2.8l2.3,0.1c0-1.6,1.2-2.8,2.8-2.8c1.5,0,2.8,1.3,2.8,2.8l2.8-0.1
					c0-1.6,1.2-2.8,2.8-2.8c1.5,0,2.8,1.3,2.8,2.8l2.4,0c0-1.6,1.2-2.8,2.8-2.8c1.5,0,2.8,1.3,2.8,2.8l3,0v-2.9h2.5l0-3.1
					c-1.1,0-2-0.6-2.5-1.5v-2.7c0.5-0.9,1.4-1.5,2.5-1.5l0-2.4c-1.1,0-2-0.6-2.5-1.5v-2.6c0.5-0.9,1.4-1.5,2.5-1.5L180,79
					c-1.2,0-2.2-0.7-2.6-1.7V75c0.4-1,1.4-1.7,2.6-1.7l-0.1-2.4c-1.1,0-2.1-0.7-2.6-1.6v-2.4c0.5-1,1.4-1.6,2.6-1.6l0-3.2
					c-1.1,0-2.1-0.6-2.5-1.6v-2.5c0.5-0.9,1.4-1.6,2.5-1.6l0.1-2.4c-1.2,0-2.2-0.7-2.6-1.7v-2.3C177.9,48.8,178.9,48.1,180,48.1z"/>
				
					<rect x="113.5" y="31.8" fill="#FACCC2" stroke="#505978" stroke-width="2" stroke-miterlimit="10" width="60.3" height="64.1"/>
				<g>
					<path fill-rule="evenodd" clip-rule="evenodd" fill="#FFFFFF" d="M121.9,62.3c0-0.3,0-0.5,0-0.8c0.6-2.4,2.5-5.2,4.7-6.3
						c1.1-0.6,2.9-0.7,3.1,0.7c-2.2,0-3.4,1.5-4.4,2.8c-0.4,0.6-0.9,1.2-1.2,1.8c-0.4,0.6-0.9,1.4-0.7,2.2c0.8,0.1,1.3-0.6,1.7-1.1
						c0.9-1.1,1.5-2.3,2.2-3.5c0.3-0.6,0.8-1.4,1.7-1c0,0.8-0.5,1.5-0.7,2.4c-0.2,0.7-0.6,1.9-0.1,2.6c0.6,0,1.1-0.5,1.5-0.9
						c2-2.2,2.7-5.4,3.9-8.5c0.4-0.9,0.9-2.9,1.9-3.1c0.5-0.1,0.9,0.1,1.1,0.4c-0.6,1.6-1.3,3.5-2,5.4c-0.7,1.9-1.4,3.8-1.6,5.8
						c-0.1,1.5,0.4,2.7,1.2,3.3c-2.5,1.3-3.7-1.9-3-4.3c-0.8,1-1.8,3-3.5,3.2c-1.3,0.2-1.6-0.9-1.5-2.1c-0.6,0.6-1.8,2.5-3.2,2.3
						C122.3,63.5,122.1,63,121.9,62.3z"/>
					<path fill-rule="evenodd" clip-rule="evenodd" fill="#FFFFFF" d="M152,56c-3,0.5-4.8,2.9-5.7,5.5c-0.1,0.3-0.4,0.8-0.1,1.2
						c0.7,0,1.1-0.6,1.4-1c0.7-0.9,1.2-1.9,1.8-3c0.4-0.8,0.8-2,2-1.5c0.1,1.5-2.1,4.4-0.7,5.8c0.3,0.3,0.7,0.4,1.2,0.6
						c-0.2,0.6-0.9,0.7-1.6,0.6c-1-0.2-1.7-1.3-1.7-2.5c-0.8,0.7-1.6,2-3,1.9c-1.9-0.1-1-3.2-0.3-4.3c-0.6,0.2-1.7,0.1-2-0.4
						c-0.7,1.6-1.9,4.3-4.1,4.5c-1.2,0.1-1.7-0.9-1.3-2.1c-0.9,0.8-1.3,2.2-3,2.1c-0.6-0.3-0.9-1-0.7-1.8c0.3-2.1,1.9-3.7,2.1-6
						c0.6-0.5,1.5-0.2,1.7,0.6c0.2,1.1-0.5,2.1-1,3.1c-0.5,1-0.9,2-1.1,3c0.3,0,0.5-0.2,0.7-0.4c1-1,1.7-2.2,2.4-3.7
						c0.3-0.6,0.7-1.9,1.5-1.2c0.2,1-0.4,1.9-0.7,2.8c-0.2,0.4-0.4,0.9-0.5,1.4c-0.1,0.4-0.3,1,0,1.5c0.5-0.1,0.8-0.6,1.1-1.1
						c0.3-0.4,0.6-0.9,0.8-1.4c0.5-1,1.2-2.1,1.2-3c0.1-1.1-0.2-2.4,0.8-2.6c0.6-0.1,0.9,0.6,0.9,1.1c0.1,0.6-0.3,1.3-0.3,1.7
						c0,1,1.1,1.7,2,1.1c0.3-0.3,0.6-0.7,0.9-1.1c0.8-1,2.2-2.4,3.8-2.4C151.1,55,151.9,55.2,152,56z"/>
					<path fill-rule="evenodd" clip-rule="evenodd" fill="#FFFFFF" d="M165.5,56.1c0,0.2,0,0.4,0,0.6c-0.2,0.2-0.2,0.5-0.6,0.6
						c-0.1-0.5-1.4-1.7-2.2-1.1c-0.7,0.6,0.3,2.3,0.5,2.6c0.7,1.4,1.4,3.6-0.3,4.4c-0.9,0.4-3.4,0.2-3.5-0.8c0-0.3,0.1-1.1,0.6-1.1
						c0.2,0,0.4,0.3,0.5,0.4c0.5,0.5,1,1,1.9,0.8c0.4-1.7-1.7-2.9-1.4-4.9c0.2-1.4,1.4-2.4,2.9-2.4
						C164.6,55.1,165.2,55.4,165.5,56.1z"/>
					<path fill-rule="evenodd" clip-rule="evenodd" fill="#FFFFFF" d="M152.7,68.4c-0.5,0-1,0-1.4,0c-0.5-0.2-1.1-0.2-1.2-0.8
						c2.4,0,3.9-1.2,4.9-2.5c1-1.3,1.7-2.9,2.1-4.5c-0.5,0.5-0.9,1.2-1.6,1.8c-0.8,0.6-3.2,1.9-3.4,0c-0.1-1.1,0.5-2.2,0.9-3.1
						c0.6-1.3,1.1-2.5,1.1-4c0.6-0.4,1.5-0.1,1.7,0.4c0.2,0.5,0,1.2-0.2,1.8c-0.5,1.8-1.4,3.2-1.7,4.8c0.8-0.2,1.2-0.8,1.7-1.3
						c0.9-1,1.7-2.3,2.3-3.6c0.4-1,0.5-2.8,2.1-2.3c0,1.5-0.4,2.9-0.7,4.3C158.1,63.6,156.8,67.4,152.7,68.4z"/>
				</g>
			</g>
			<g>
				<path fill="#FFFFFF" d="M125.1,69.6c0,0.2-0.1,0.4-0.3,0.6c-0.1,0.2-0.3,0.3-0.5,0.3c-0.2,0-0.3,0-0.3,0c-0.2,0-0.4,0-0.6-0.1
					c-0.2-0.1-0.3-0.2-0.4-0.4c0-0.1-0.1-0.2-0.1-0.3V68h0.4v1.4c0,0.2,0.1,0.4,0.2,0.5c0.1,0.1,0.3,0.2,0.4,0.2c0,0,0,0,0.1,0
					c0.1,0,0.3-0.1,0.4-0.2c0.1-0.1,0.2-0.2,0.2-0.4V68h0.4V69.6z"/>
				<path fill="#FFFFFF" d="M126.8,70.4h-0.4v-4.1h0.4V70.4z"/>
				<path fill="#FFFFFF" d="M128.9,68.3h-0.4v2.1H128v-2.1h-0.4V68h0.4v-1h0.4v1h0.4V68.3z"/>
				<path fill="#FFFFFF" d="M131.7,68.1l-0.3,0.3c-0.1-0.1-0.2-0.1-0.3-0.1c-0.1,0-0.3,0.1-0.4,0.2c-0.1,0.1-0.2,0.3-0.2,0.4v1.5
					h-0.4V68h0.4v0.6c0-0.2,0.1-0.3,0.2-0.4c0.1-0.1,0.3-0.2,0.4-0.2C131.4,67.9,131.5,68,131.7,68.1z"/>
				<path fill="#FFFFFF" d="M134.6,70.4h-0.4v-0.5c-0.1,0.2-0.2,0.3-0.4,0.4c-0.2,0.1-0.4,0.1-0.6,0.1c-0.1,0-0.2,0-0.3,0
					c-0.1,0-0.2-0.1-0.3-0.2c-0.1-0.1-0.3-0.2-0.4-0.4c-0.1-0.2-0.2-0.4-0.2-0.7c0-0.2,0-0.4,0.1-0.6c0.1-0.1,0.2-0.2,0.3-0.4
					c0.1-0.1,0.3-0.2,0.6-0.3c0,0,0.1,0,0.1,0c0,0,0.1,0,0.1,0c0.2,0,0.4,0,0.5,0.1c0.2,0.1,0.3,0.2,0.4,0.4V68h0.4V70.4z
					 M134.1,69.6c0.1-0.1,0.1-0.3,0.1-0.4c0-0.2,0-0.4-0.1-0.5c-0.1-0.2-0.2-0.3-0.4-0.3c-0.1,0-0.1,0-0.2,0c-0.1,0-0.1,0-0.2,0
					c-0.2,0-0.4,0.1-0.5,0.3c-0.1,0.2-0.2,0.4-0.2,0.6c0,0.1,0,0.3,0.1,0.4c0.1,0.1,0.1,0.2,0.3,0.3c0.1,0.1,0.3,0.2,0.5,0.2
					c0.2,0,0.3,0,0.4-0.1C133.9,69.9,134,69.8,134.1,69.6z"/>
				<path fill="#FFFFFF" d="M139.4,68.3H139v2.1h-0.4v-2.1h-0.4V68h0.4v-1h0.4v1h0.4V68.3z"/>
				<path fill="#FFFFFF" d="M142.4,70.4H142v-1.5c0-0.2-0.1-0.3-0.2-0.4c-0.1-0.1-0.2-0.2-0.4-0.2c0,0-0.1,0-0.2,0
					c-0.1,0-0.2,0.1-0.3,0.2c-0.1,0.1-0.2,0.2-0.2,0.4v1.5h-0.4v-4.1h0.4v2c0.1-0.1,0.2-0.2,0.3-0.3c0.1-0.1,0.3-0.1,0.4-0.1
					c0.3,0,0.5,0.1,0.7,0.3c0.1,0.2,0.2,0.4,0.2,0.6V70.4z"/>
				<path fill="#FFFFFF" d="M144.1,67.1C144,67.1,144,67.1,144.1,67.1c-0.2,0-0.2,0-0.3-0.1c-0.1-0.1-0.1-0.1-0.1-0.2
					c0-0.1,0-0.1,0-0.1c0,0,0.1-0.1,0.1-0.1c0,0,0.1,0,0.1,0c0,0,0.1,0,0.1,0c0.1,0,0.1,0,0.2,0.1c0,0.1,0.1,0.1,0.1,0.2
					C144.3,67,144.2,67.1,144.1,67.1z M144.2,70.4h-0.4V68h0.4V70.4z"/>
				<path fill="#FFFFFF" d="M147.7,70.4h-0.4v-1.7c0-0.1-0.1-0.2-0.2-0.3c-0.1-0.1-0.2-0.1-0.4-0.1c-0.1,0-0.1,0-0.2,0
					c-0.1,0.1-0.2,0.1-0.3,0.2c-0.1,0.1-0.1,0.2-0.2,0.3v1.6h-0.4V68h0.4v0.4c0.1-0.2,0.2-0.3,0.3-0.3c0.1-0.1,0.3-0.1,0.5-0.1
					c0.2,0,0.4,0.1,0.6,0.2c0.2,0.1,0.2,0.3,0.3,0.6V70.4z"/>
			</g>
		</g>
	</g>
	<g>
		<g>
			<g>
				<g>
					<g>
						<path fill="none" stroke="#505978" stroke-width="1.0057" stroke-miterlimit="10" d="M403.4,47.9l0.1-2.8
							c-1.2,0-2.3-0.8-2.7-1.9v-1.8c0.4-1.1,1.4-1.9,2.7-1.9l0-2.4c-1.2,0-2.2-0.8-2.6-1.8v-2c0.4-1.1,1.4-1.8,2.6-1.8l0-2.5h-2.7
							v-2.9l-2.9,0c0,1.6-1.2,2.8-2.7,2.8c-1.5,0-2.7-1.3-2.7-2.8l-2.3,0c0,1.6-1.2,2.8-2.7,2.8c-1.5,0-2.7-1.3-2.7-2.8l-2.7-0.1
							c0,1.6-1.2,2.8-2.7,2.8c-1.5,0-2.7-1.3-2.7-2.8l-2.3,0.1c0,1.6-1.2,2.8-2.7,2.8c-1.5,0-2.7-1.3-2.7-2.8l-3.1,0
							c0,1.6-1.2,2.8-2.7,2.8c-1.5,0-2.7-1.3-2.7-2.8l-2.3-0.1c0,1.6-1.2,2.8-2.7,2.8c-1.5,0-2.7-1.3-2.7-2.8l-2.7-0.1
							c0,1.6-1.2,2.8-2.7,2.8c-1.5,0-2.7-1.3-2.7-2.8l-2.3,0c0,1.6-1.2,2.8-2.7,2.8c-1.5,0-2.7-1.3-2.7-2.8l-2.4,0v3h-2.7l0,2.5
							c1.2,0,2.2,0.8,2.6,1.8v2c-0.4,1.1-1.4,1.8-2.6,1.8l0,2.4c1.2,0,2.3,0.8,2.7,1.9v1.8c-0.4,1.1-1.4,1.9-2.7,1.9l0.1,2.8
							c1.1,0,2.1,0.7,2.6,1.7v2.3c-0.4,1-1.4,1.7-2.6,1.7l0.1,2.4c1.1,0,2,0.6,2.5,1.6V60c-0.5,0.9-1.4,1.6-2.5,1.6l0,3.2
							c1.1,0,2.1,0.7,2.5,1.6v2.4c-0.5,1-1.4,1.6-2.5,1.6l-0.1,2.4c1.2,0,2.2,0.7,2.6,1.7v2.2c-0.4,1-1.4,1.7-2.6,1.7l0.1,2.8
							c1.1,0,2,0.6,2.5,1.5v2.6c-0.5,0.9-1.4,1.5-2.5,1.5l0,2.4c1.1,0,2,0.6,2.5,1.5v2.7c-0.5,0.9-1.4,1.5-2.5,1.5l0,3h2.5v3l2.4,0
							c0-1.6,1.2-2.8,2.7-2.8c1.5,0,2.7,1.3,2.7,2.8l2.3,0c0-1.6,1.2-2.8,2.7-2.8c1.5,0,2.7,1.3,2.7,2.8l2.7-0.1
							c0-1.6,1.2-2.8,2.7-2.8c1.5,0,2.7,1.3,2.7,2.8l2.3-0.1c0-1.6,1.2-2.8,2.7-2.8c1.5,0,2.7,1.3,2.7,2.8l3.1,0
							c0-1.6,1.2-2.8,2.7-2.8c1.5,0,2.7,1.3,2.7,2.8l2.3,0.1c0-1.6,1.2-2.8,2.7-2.8c1.5,0,2.7,1.3,2.7,2.8l2.7-0.1
							c0-1.6,1.2-2.8,2.7-2.8c1.5,0,2.7,1.3,2.7,2.8l2.3,0c0-1.6,1.2-2.8,2.7-2.8c1.5,0,2.7,1.3,2.7,2.8l2.9,0V98h2.5l0-3
							c-1.1,0-2-0.6-2.5-1.5v-2.7c0.5-0.9,1.4-1.5,2.5-1.5l0-2.4c-1.1,0-2-0.6-2.5-1.5v-2.6c0.5-0.9,1.4-1.5,2.5-1.5l0.1-2.8
							c-1.2,0-2.2-0.7-2.6-1.7v-2.2c0.4-1,1.4-1.7,2.6-1.7l-0.1-2.4c-1.1,0-2.1-0.7-2.5-1.6v-2.4c0.5-1,1.4-1.6,2.5-1.6l0-3.2
							c-1.1,0-2-0.6-2.5-1.6v-2.5c0.5-0.9,1.4-1.6,2.5-1.6l0.1-2.4c-1.1,0-2.1-0.7-2.6-1.7v-2.3C401.3,48.6,402.2,47.9,403.4,47.9z"
							/>
						
							<rect x="337.6" y="31.7" fill="#FACCC2" stroke="#505978" stroke-width="2" stroke-miterlimit="10" width="59.7" height="63.5"/>
					</g>
				</g>
			</g>
			<g>
				<path fill="#FFFFFF" d="M370,61.9c0,0.1-0.1,0.2-0.1,0.3c-0.3,0.7-0.7,1.1-1.4,1.4c-1.2,0.5-2.4,0.6-3.5,0.1
					c-1-0.3-1.6-1.1-1.9-2c-0.3-1-0.3-2,0-3c0.4-1.2,1.2-1.9,2.4-2.1c0.8-0.2,1.6-0.2,2.4,0.1c1.1,0.3,1.8,1.1,2.1,2.2
					c0.1,0.4,0.1,0.9,0.2,1.3c0,0.2-0.1,0.2-0.2,0.2c-0.1,0-0.1,0-0.2,0c-1.8,0-3.7,0-5.5,0c-0.1,0-0.2,0-0.2,0
					c-0.1,0-0.2,0.1-0.2,0.2c0,0.7,0.2,1.4,0.7,2c0.4,0.4,0.9,0.6,1.5,0.7c0.8,0.1,1.7,0,2.3-0.5c0.2-0.1,0.3-0.4,0.5-0.6
					c0.1-0.1,0.2-0.2,0.3-0.2C369.5,61.9,369.8,61.9,370,61.9 M363.9,59.6h0.3h4.5c0.5,0,0.5,0,0.4-0.5c-0.2-1-0.8-1.6-1.7-1.9
					c-0.3-0.1-0.7-0.1-1.1-0.1c-0.7,0-1.3,0.3-1.8,0.9C364.2,58.4,364,59,363.9,59.6"/>
				<path fill="#FFFFFF" d="M354.4,61.9c-0.2,0.6-0.6,1.1-1.1,1.4c-0.6,0.4-1.3,0.6-2.1,0.6c-0.5,0-1,0-1.5-0.1
					c-1.3-0.4-2-1.2-2.3-2.5c-0.2-0.9-0.2-1.8,0.1-2.7c0.3-0.9,1-1.6,1.9-1.9c0.9-0.3,1.9-0.3,2.8-0.1c1.3,0.4,2,1.3,2.2,2.7
					c0,0.3,0.1,0.5,0.1,0.8c0,0.3,0,0.3-0.3,0.3c-1.1,0-2.3,0-3.4,0c-0.8,0-1.6,0-2.3,0c-0.3,0-0.3,0-0.3,0.3c0,0.9,0.4,1.7,1.2,2.2
					c0.5,0.3,1.1,0.4,1.7,0.4c0.5,0,1-0.1,1.5-0.4c0.3-0.2,0.5-0.4,0.6-0.7c0.1-0.2,0.2-0.2,0.3-0.2
					C353.9,61.9,354.2,61.9,354.4,61.9 M351,59.6c0.8,0,1.6,0,2.4,0c0.2,0,0.3,0,0.2-0.2c-0.1-0.9-0.5-1.5-1.2-2
					c-0.4-0.2-0.8-0.3-1.3-0.3c-0.6,0-1.2,0.1-1.7,0.5c-0.6,0.4-0.9,1-1,1.8c0,0.2,0,0.3,0.2,0.3C349.4,59.6,350.2,59.6,351,59.6"/>
				<path fill="#FFFFFF" d="M387.3,57.6c0.1-0.1,0.2-0.2,0.3-0.3c0.6-0.6,1.3-0.9,2.2-0.9c0.6,0,1.2,0,1.8,0.2
					c0.2,0.1,0.5,0.2,0.7,0.4c0.5,0.3,0.7,0.8,0.7,1.4c0,1.7,0,3.4,0,5c0,0.2,0,0.3-0.3,0.3c-0.1,0-0.3,0-0.4,0
					c-0.3,0-0.3,0-0.3-0.3c0-1.4,0-2.8,0-4.1c0-0.3-0.1-0.7-0.1-1c-0.1-0.5-0.5-0.9-1-1c-0.8-0.2-1.6-0.2-2.3,0.2
					c-0.7,0.3-1.1,0.9-1.3,1.7c0,0.2,0,0.4,0,0.6c0,1.2,0,2.5,0,3.7c0,0.1,0,0.2,0,0.3c-0.3,0-0.5,0-0.8,0c-0.1,0-0.1-0.1-0.1-0.1
					c0-0.1,0-0.2,0-0.2v-8.5c0-0.1,0-0.1,0-0.2c0-0.1,0.1-0.2,0.2-0.2c0.2,0,0.4,0,0.6,0c0.1,0,0.2,0.1,0.2,0.2c0,0.1,0,0.1,0,0.2
					v2.4L387.3,57.6C387.2,57.6,387.3,57.6,387.3,57.6"/>
				<path fill="#FFFFFF" d="M339.6,61.5c0.3,0,0.6,0,0.9,0c0,0,0.1,0.1,0.1,0.1c0.2,0.9,0.8,1.4,1.7,1.5c0.6,0.1,1.2,0,1.8-0.2
					c0.3-0.1,0.5-0.3,0.7-0.5c0.3-0.5,0.3-1.2-0.4-1.5c-0.4-0.2-0.8-0.3-1.3-0.4c-0.8-0.2-1.5-0.3-2.3-0.6c-0.4-0.2-0.8-0.4-1-0.8
					c-0.3-0.6-0.2-1.4,0.3-1.9c0.5-0.6,1.2-0.8,1.9-0.8c0.8-0.1,1.5,0,2.3,0.3c0.8,0.3,1.3,0.9,1.4,1.7c0,0.2,0,0.2-0.2,0.3
					c-0.2,0-0.4,0-0.6,0c-0.1,0-0.2,0-0.2-0.2c-0.1-0.7-0.5-1-1.1-1.2c-0.7-0.2-1.4-0.2-2.1,0.1c-0.5,0.2-0.8,0.6-0.8,1.1
					c0,0.4,0.2,0.7,0.5,0.8c0.3,0.1,0.7,0.3,1.1,0.4c0.8,0.2,1.6,0.4,2.3,0.6c0.2,0.1,0.5,0.2,0.7,0.3c0.8,0.5,0.9,1.6,0.4,2.2
					c-0.3,0.4-0.6,0.7-1.1,0.9c-1.1,0.4-2.2,0.4-3.4,0.1c-0.8-0.2-1.4-0.7-1.7-1.5C339.7,62,339.7,61.8,339.6,61.5"/>
				<path fill="#FFFFFF" d="M372.7,57.6c0.1-0.1,0.1-0.1,0.2-0.2c0.6-0.7,1.4-1,2.4-1c0.6,0,1.2,0,1.8,0.3c0.5,0.2,0.9,0.5,1.1,1
					c0.1,0.3,0.2,0.7,0.2,1c0,1.6,0,3.1,0,4.7c0,0,0,0.1,0,0.1c0,0.2-0.1,0.2-0.2,0.2c-0.2,0-0.3,0-0.5,0c-0.2,0-0.2-0.1-0.2-0.2
					c0-0.1,0-0.1,0-0.2c0-1.3,0-2.6,0-3.9c0-0.3,0-0.6-0.1-0.9c-0.1-0.7-0.5-1.1-1.2-1.3c-0.7-0.1-1.4-0.1-2.1,0.2
					c-0.8,0.4-1.3,1-1.3,1.8c0,1.4,0,2.7,0,4.1c0,0.4,0,0.4-0.4,0.4c-0.5,0-0.5,0-0.5-0.5c0-0.9,0-1.8,0-2.7c0-0.4,0-0.8,0-1.3
					c0-0.3,0-0.7,0-1c0-0.5,0-1,0-1.5c0-0.2,0-0.3,0.3-0.3c0.1,0,0.3,0,0.4,0c0.1,0,0.2,0.1,0.2,0.2c0,0.2,0,0.4,0,0.7
					C372.6,57.5,372.6,57.5,372.7,57.6C372.7,57.6,372.7,57.6,372.7,57.6"/>
				<path fill="#FFFFFF" d="M389.2,67v0.3c0,0.8,0,1.6,0,2.5c0,0.3,0,0.3-0.3,0.3c-0.2,0-0.5,0-0.7,0c-0.2,0-0.2,0-0.2-0.2
					c0-0.9,0-1.9,0-2.8c0-0.5,0-1,0-1.5c0-0.2,0-0.3,0.3-0.3c0.3,0,0.7,0,1,0c0.2,0,0.3,0.1,0.4,0.2c0.6,0.9,1.2,1.8,1.7,2.7
					c0,0.1,0.1,0.1,0.2,0.2c0,0,0,0,0.1,0c0-0.1,0-0.2,0-0.2c0-0.8,0-1.7,0-2.5c0-0.3,0-0.3,0.3-0.3c0.2,0,0.5,0,0.7,0
					c0.2,0,0.2,0,0.2,0.2c0,0.6,0,1.2,0,1.8c0,0.8,0,1.6,0,2.4c0,0.3,0,0.3-0.3,0.3c-0.3,0-0.6,0-0.9,0c-0.2,0-0.3-0.1-0.4-0.2
					c-0.6-0.9-1.1-1.7-1.7-2.6C389.4,67.2,389.4,67.1,389.2,67C389.3,67,389.3,67,389.2,67"/>
				<path fill="#FFFFFF" d="M353,67c0,0.1,0,0.2,0,0.3c0,0.8,0,1.6,0,2.5c0,0.3,0,0.3-0.3,0.3c-0.2,0-0.5,0-0.7,0
					c-0.2,0-0.2,0-0.2-0.2c0-0.7,0-1.4,0-2.1c0-0.7,0-1.4,0-2.1c0-0.2,0-0.3,0.2-0.3c0.3,0,0.7,0,1,0c0.2,0,0.3,0.1,0.3,0.2
					c0.6,0.9,1.1,1.8,1.7,2.7c0.1,0.1,0.1,0.2,0.2,0.2c0,0,0,0,0.1,0c0-0.1,0-0.2,0-0.3c0-0.8,0-1.7,0-2.5c0-0.3,0-0.3,0.3-0.3
					c0.3,0,0.5,0,0.8,0c0.2,0,0.2,0,0.2,0.3v3.3c0,0.3,0,0.6,0,1c0,0.2,0,0.2-0.2,0.2c-0.4,0-0.7,0-1.1,0c-0.2,0-0.3-0.1-0.3-0.2
					c-0.6-0.9-1.1-1.7-1.7-2.6C353.1,67.2,353.1,67.1,353,67C353,67,353,67,353,67"/>
				<path fill="#FFFFFF" d="M344.3,69.8c-0.1,0-0.1,0-0.2,0.1c-0.9,0.4-1.9,0.4-2.8,0.1c-0.9-0.4-1.5-1.2-1.5-2.2
					c0-0.8,0.2-1.5,0.8-2c0.3-0.3,0.7-0.5,1.2-0.5c0.7-0.2,1.5-0.2,2.2,0.1c0.5,0.2,0.8,0.5,1,1c0,0.1,0,0.1,0.1,0.2
					c0,0,0,0.1,0,0.1c-0.1,0-0.2,0-0.2,0c-0.2,0-0.5,0-0.7,0c-0.2,0-0.4,0-0.5-0.2c-0.3-0.4-1.1-0.5-1.6-0.3
					c-0.3,0.1-0.5,0.3-0.7,0.6c-0.4,0.7-0.2,1.6,0.3,2.1c0.5,0.4,1.4,0.5,1.9,0.1c0.2-0.1,0.3-0.3,0.3-0.6c-0.1,0-0.2,0-0.3,0
					c-0.2,0-0.5,0-0.7,0c-0.1,0-0.2,0-0.2-0.2c0-0.8-0.1-0.6,0.6-0.7c0.5,0,1.1,0,1.6,0c0.2,0,0.2,0,0.2,0.2c0,0.7,0,1.4,0,2.1
					c0,0.2,0,0.2-0.2,0.2c-0.1,0-0.1,0-0.2,0C344.6,70,344.4,70.1,344.3,69.8"/>
				<path fill="#FFFFFF" d="M384.3,65.2c0.4,0,0.8,0,1.2,0.2c1,0.4,1.6,1.2,1.6,2.2c0,0.4-0.1,0.9-0.3,1.2c-0.3,0.6-0.7,1-1.3,1.2
					c-0.8,0.3-1.7,0.3-2.5,0c-0.9-0.4-1.5-1.1-1.5-2.2c0-0.4,0-0.9,0.2-1.3c0.3-0.6,0.7-0.9,1.3-1.1
					C383.4,65.2,383.8,65.1,384.3,65.2 M384.3,66.1c-0.8,0-1.2,0.4-1.4,1.1c0,0.1,0,0.2,0,0.4c0,0.3,0,0.5,0.1,0.8
					c0.2,0.7,0.9,1,1.7,0.8c0.6-0.1,0.9-0.5,1-1c0-0.3,0.1-0.6,0-0.9C385.6,66.5,385.1,66.1,384.3,66.1"/>
				<path fill="#FFFFFF" d="M367.1,67.9c0.4,0.1,0.4,0.4,0.5,0.7c0.2,0.4,0.4,0.9,0.6,1.3c0,0,0,0.1,0,0.1c-0.1,0-0.1,0-0.2,0
					c-0.3,0-0.7,0-1,0c-0.1,0-0.2-0.1-0.3-0.2c-0.1-0.4-0.3-0.7-0.4-1.1c-0.1-0.4-0.4-0.5-0.8-0.6c-0.2,0-0.4,0-0.5,0
					c-0.3,0-0.3,0-0.3,0.3c0,0.4,0,0.8,0,1.2c0,0.3,0,0.3-0.3,0.3c-0.3,0-0.5,0-0.8,0c-0.3,0-0.3,0-0.3-0.3v-3c0-0.4,0-0.8,0-1.2
					c0-0.2,0.1-0.2,0.2-0.2c0.9,0,1.9,0,2.8,0c0.3,0,0.7,0.1,1,0.2c0.4,0.2,0.7,0.5,0.7,1c0,0.4-0.1,0.8-0.5,1.1
					C367.4,67.6,367.3,67.7,367.1,67.9C367.1,67.8,367.1,67.8,367.1,67.9 M365.4,66.1L365.4,66.1c-0.2,0-0.4,0-0.5,0
					c-0.1,0-0.2,0.1-0.2,0.2c0,0.3,0,0.6,0,0.9c0,0.1,0.1,0.2,0.2,0.2c0.4,0,0.9,0,1.3-0.1c0.3,0,0.5-0.3,0.5-0.6
					c0-0.3-0.2-0.5-0.5-0.5C366,66.2,365.7,66.2,365.4,66.1"/>
				<path fill="#FFFFFF" d="M346.2,67.7c0-0.7,0-1.4,0-2.1c0-0.3,0-0.3,0.3-0.3c1.2,0,2.4,0,3.7,0c0.3,0,0.3,0,0.3,0.3
					c0,0.1,0,0.3,0,0.4c0,0.2,0,0.2-0.2,0.2c-0.7,0-1.4,0-2.2,0c-0.1,0-0.2,0-0.3,0c-0.1,0-0.2,0.1-0.2,0.2c0,0.2,0,0.4,0,0.6
					c0,0.2,0.1,0.2,0.2,0.2c0.4,0,0.8,0,1.2,0c0.3,0,0.6,0,0.9,0c0.3,0,0.3,0,0.3,0.3c0,0.1,0,0.2,0,0.3c0,0.3,0,0.3-0.3,0.3
					c-0.6,0-1.2,0-1.8,0c-0.1,0-0.2,0-0.3,0c-0.2,0-0.2,0-0.2,0.2c0,0.2,0,0.4,0,0.7c0,0.2,0,0.2,0.2,0.2c0.8,0,1.6,0,2.3,0
					c0.4,0,0.4,0,0.4,0.4c0,0.1,0,0.2,0,0.3c0,0.1-0.1,0.2-0.2,0.2c-0.3,0-0.5,0-0.8,0c-1,0-2,0-3.1,0c-0.3,0-0.3,0-0.3-0.3
					C346.2,69,346.2,68.3,346.2,67.7"/>
				<path fill="#FFFFFF" d="M357.9,67.6c0-0.7,0-1.4,0-2.1c0-0.3,0-0.3,0.3-0.3c1.2,0,2.5,0,3.7,0c0.2,0,0.3,0,0.3,0.3
					c0,0.1,0,0.2,0,0.4c0,0.3,0,0.3-0.3,0.3c-0.7,0-1.4,0-2.1,0c-0.5,0-0.5,0-0.5,0.5c0,0.5-0.1,0.5,0.5,0.5c0.6,0,1.3,0,1.9,0
					c0.3,0,0.3,0,0.3,0.3c0,0.2,0,0.3,0,0.4c0,0.1-0.1,0.2-0.2,0.2c-0.2,0-0.3,0-0.5,0c-0.6,0-1.1,0-1.7,0c-0.2,0-0.3,0-0.3,0.3
					c0,0.2,0,0.4,0,0.6c0,0.2,0,0.3,0.2,0.3c0.4,0,0.9,0,1.3,0c0.4,0,0.8,0,1.2,0c0.2,0,0.2,0.1,0.2,0.2c0,0.2,0,0.4,0,0.5
					c0,0.1,0,0.2-0.2,0.2c0,0-0.1,0-0.1,0h-3.7c-0.3,0-0.3,0-0.3-0.3C357.9,69,357.9,68.3,357.9,67.6"/>
				<path fill="#FFFFFF" d="M355.1,56.6c0.4,0,0.7,0,1,0c0.1,0,0.1,0.1,0.1,0.2c0.3,0.6,0.6,1.3,0.8,1.9c0.5,1.2,1.1,2.5,1.6,3.7
					c0,0.1,0.1,0.2,0.2,0.3c0.1-0.2,0.1-0.3,0.2-0.4c0.7-1.6,1.4-3.3,2.1-4.9c0.1-0.2,0.2-0.4,0.3-0.6c0-0.1,0.1-0.1,0.2-0.1
					c0.3,0,0.5,0,0.9,0c0,0.1,0,0.2-0.1,0.2c-1,2.2-2,4.5-3,6.7c-0.1,0.2-0.2,0.2-0.4,0.2c-0.2,0-0.4,0-0.7,0
					c-0.1,0-0.2-0.1-0.2-0.2c-0.5-1-0.9-2.1-1.4-3.1c-0.5-1.2-1.1-2.4-1.6-3.6C355.2,56.8,355.1,56.7,355.1,56.6"/>
				<path fill="#FFFFFF" d="M384.7,62.9c0,0.2,0,0.4,0,0.6c0,0.1-0.1,0.2-0.2,0.2c-0.2,0.1-0.4,0.1-0.6,0.2c-0.6,0.1-1.3,0.1-1.9,0
					c-1.1-0.2-1.7-0.9-1.9-2c-0.1-0.3-0.1-0.7-0.1-1.1c0-2,0-4,0-5.9c0-0.1,0-0.2,0-0.2c0-0.1,0.1-0.1,0.1-0.1c0.2,0,0.5,0,0.7,0
					c0.2,0,0.1,0.1,0.1,0.2c0,0.6,0,1.2,0,1.8c0,0.1,0,0.1,0,0.2c0,0.1,0.1,0.2,0.2,0.2c0.1,0,0.1,0,0.2,0h3.1c0.3,0,0.3,0,0.3,0.3
					c0,0,0,0.1,0,0.1c0,0.1-0.1,0.2-0.2,0.2c-0.1,0-0.1,0-0.2,0c-1,0-2,0-3,0c-0.3,0-0.3,0-0.3,0.3c0,1.1,0,2.2,0,3.3
					c0,0.4,0.1,0.7,0.2,1.1c0.2,0.7,0.7,1,1.4,1.1c0.5,0,1,0,1.5,0C384.3,63.1,384.5,63,384.7,62.9"/>
				<path fill="#FFFFFF" d="M368.7,70c0.1-0.3,0.2-0.5,0.3-0.7c0.5-1.3,1.1-2.5,1.6-3.8c0.1-0.3,0.1-0.3,0.5-0.3c0.3,0,0.7,0,1,0
					c0.2,0,0.2,0.1,0.3,0.2c0.5,1.3,1,2.5,1.6,3.8c0.1,0.3,0.2,0.5,0.3,0.8h-0.4c-0.3,0-0.6,0-0.9,0c-0.2,0-0.3,0-0.3-0.2
					c-0.1-0.2-0.1-0.3-0.2-0.5c0-0.1-0.1-0.2-0.3-0.2c-0.5,0-1.1,0-1.6,0c-0.1,0-0.2,0-0.2,0.2c-0.1,0.2-0.1,0.4-0.2,0.5
					c0,0.1-0.1,0.2-0.2,0.2C369.6,70,369.2,70,368.7,70 M371.5,66.5C371.4,66.5,371.4,66.5,371.5,66.5c-0.3,0.5-0.5,1.1-0.7,1.7h1.3
					C371.9,67.6,371.7,67,371.5,66.5"/>
				<path fill="#FFFFFF" d="M376,65.3c0.7,0,1.4,0,2,0c0.3,0,0.3,0,0.3,0.3c0,0.1,0,0.3,0,0.4c0,0.2,0,0.2-0.2,0.2
					c-0.4,0-0.8,0-1.1,0c-0.2,0-0.2,0-0.2,0.3c0,1.1,0,2.2,0,3.2c0,0.1,0,0.1,0,0.2c0,0.1-0.1,0.2-0.2,0.2c-0.3,0-0.7,0-1,0
					c-0.1,0-0.2-0.1-0.2-0.2c0-0.1,0-0.1,0-0.2c0-1,0-2.1,0-3.1c0-0.3-0.1-0.4-0.4-0.3c-0.4,0-0.7,0-1.1,0c-0.1,0-0.2-0.1-0.2-0.2
					c0-0.2,0-0.3,0-0.5c0-0.2,0.1-0.2,0.2-0.2c0.5,0,1,0,1.5,0H376L376,65.3z"/>
				<path fill="#FFFFFF" d="M379.2,67.7c0-0.7,0-1.4,0-2.1c0-0.3,0-0.3,0.3-0.3c0.3,0,0.6,0,0.8,0c0.2,0,0.3,0,0.3,0.3
					c0,1.3,0,2.6,0,3.9c0,0.1,0,0.3,0,0.4c0,0.1,0,0.2-0.2,0.2c-0.3,0-0.7,0-1,0c-0.2,0-0.2-0.1-0.2-0.2
					C379.2,69.1,379.2,68.4,379.2,67.7"/>
			</g>
		</g>
		<g>
			<g>
				<g>
					<g>
						<path fill="none" stroke="#505978" stroke-width="1.0057" stroke-miterlimit="10" d="M485.6,47.9l0.1-2.8
							c-1.2,0-2.3-0.8-2.7-1.9v-1.8c0.4-1.1,1.4-1.9,2.7-1.9l0-2.4c-1.2,0-2.2-0.8-2.6-1.8v-2c0.4-1.1,1.4-1.8,2.6-1.8l0-2.5h-2.7
							v-2.9l-2.9,0c0,1.6-1.2,2.8-2.7,2.8c-1.5,0-2.7-1.3-2.7-2.8l-2.3,0c0,1.6-1.2,2.8-2.7,2.8c-1.5,0-2.7-1.3-2.7-2.8l-2.7-0.1
							c0,1.6-1.2,2.8-2.7,2.8c-1.5,0-2.7-1.3-2.7-2.8l-2.3,0.1c0,1.6-1.2,2.8-2.7,2.8c-1.5,0-2.7-1.3-2.7-2.8l-3.1,0
							c0,1.6-1.2,2.8-2.7,2.8c-1.5,0-2.7-1.3-2.7-2.8l-2.3-0.1c0,1.6-1.2,2.8-2.7,2.8s-2.7-1.3-2.7-2.8l-2.7-0.1
							c0,1.6-1.2,2.8-2.7,2.8c-1.5,0-2.7-1.3-2.7-2.8l-2.3,0c0,1.6-1.2,2.8-2.7,2.8c-1.5,0-2.7-1.3-2.7-2.8l-2.4,0v3h-2.7l0,2.5
							c1.2,0,2.2,0.8,2.6,1.8v2c-0.4,1.1-1.4,1.8-2.6,1.8l0,2.4c1.2,0,2.3,0.8,2.7,1.9v1.8c-0.4,1.1-1.4,1.9-2.7,1.9l0.1,2.8
							c1.1,0,2.1,0.7,2.6,1.7v2.3c-0.4,1-1.4,1.7-2.6,1.7l0.1,2.4c1.1,0,2,0.6,2.5,1.6V60c-0.5,0.9-1.4,1.6-2.5,1.6l0,3.2
							c1.1,0,2.1,0.7,2.5,1.6v2.4c-0.5,1-1.4,1.6-2.5,1.6l-0.1,2.4c1.2,0,2.2,0.7,2.6,1.7v2.2c-0.4,1-1.4,1.7-2.6,1.7l0.1,2.8
							c1.1,0,2,0.6,2.5,1.5v2.6c-0.5,0.9-1.4,1.5-2.5,1.5l0,2.4c1.1,0,2,0.6,2.5,1.5v2.7c-0.5,0.9-1.4,1.5-2.5,1.5l0,3h2.5v3l2.4,0
							c0-1.6,1.2-2.8,2.7-2.8c1.5,0,2.7,1.3,2.7,2.8l2.3,0c0-1.6,1.2-2.8,2.7-2.8c1.5,0,2.7,1.3,2.7,2.8l2.7-0.1
							c0-1.6,1.2-2.8,2.7-2.8s2.7,1.3,2.7,2.8l2.3-0.1c0-1.6,1.2-2.8,2.7-2.8c1.5,0,2.7,1.3,2.7,2.8l3.1,0c0-1.6,1.2-2.8,2.7-2.8
							c1.5,0,2.7,1.3,2.7,2.8l2.3,0.1c0-1.6,1.2-2.8,2.7-2.8c1.5,0,2.7,1.3,2.7,2.8l2.7-0.1c0-1.6,1.2-2.8,2.7-2.8
							c1.5,0,2.7,1.3,2.7,2.8l2.3,0c0-1.6,1.2-2.8,2.7-2.8c1.5,0,2.7,1.3,2.7,2.8l2.9,0V98h2.5l0-3c-1.1,0-2-0.6-2.5-1.5v-2.7
							c0.5-0.9,1.4-1.5,2.5-1.5l0-2.4c-1.1,0-2-0.6-2.5-1.5v-2.6c0.5-0.9,1.4-1.5,2.5-1.5l0.1-2.8c-1.2,0-2.2-0.7-2.6-1.7v-2.2
							c0.4-1,1.4-1.7,2.6-1.7l-0.1-2.4c-1.1,0-2.1-0.7-2.5-1.6v-2.4c0.5-1,1.4-1.6,2.5-1.6l0-3.2c-1.1,0-2-0.6-2.5-1.6v-2.5
							c0.5-0.9,1.4-1.6,2.5-1.6l0.1-2.4c-1.1,0-2.1-0.7-2.6-1.7v-2.3C483.5,48.6,484.5,47.9,485.6,47.9z"/>
						
							<rect x="419.9" y="31.7" fill="#FACCC2" stroke="#505978" stroke-width="2" stroke-miterlimit="10" width="59.7" height="63.5"/>
					</g>
				</g>
			</g>
			<g>
				<g>
					<g>
						<path fill="#FFFFFF" d="M421.7,62.1c0.3-0.2,0.5-0.3,0.9-0.4c0,0,0.1,0,0.1,0c0.1,0,0.2,0,0.2,0.2c0,0.1,0,0.2,0,0.3
							c0,0.2,0,0.5,0,0.7c0,0,0,0.1,0,0.2c0,0,0,0,0,0c0.3-0.7,0.8-1.1,1.4-1.3c0.9-0.3,1.8-0.3,2.6,0.2c0.7,0.4,1.1,1,1.2,1.8
							c0,0.2,0,0.4,0,0.7c0,1.2,0,2.5,0,3.7c0,0.2,0,0.2-0.2,0.2c-0.2,0-0.5,0-0.7,0c-0.1,0-0.1,0-0.1-0.1c0-0.9,0-1.9,0-2.8
							c0-0.4,0-0.8,0-1.2c0-0.4-0.1-0.8-0.3-1.2c-0.3-0.6-0.8-1-1.5-1c-1.2-0.1-1.9,0.7-2.2,1.6c-0.1,0.3-0.2,0.7-0.2,1.1
							c0,1.2,0,2.3,0,3.5c0,0.2,0,0.2-0.2,0.2c-0.2,0-0.4,0-0.7,0c-0.1,0-0.1,0-0.1-0.1c0,0,0-0.1,0-0.1c0-1.5,0-3.1,0-4.6
							c0-0.2,0-0.5-0.1-0.7c0-0.2-0.1-0.3-0.3-0.4L421.7,62.1L421.7,62.1z"/>
					</g>
					<g>
						<g>
							<path fill="#FFFFFF" d="M436,68.2c-0.1,0-0.1,0-0.1,0c-0.3,0-0.5,0-0.8,0c-0.2,0-0.2,0-0.2-0.2c-0.1-0.4-0.2-0.7-0.2-1.1
								c0,0,0,0,0,0.1c-0.4,0.8-1.1,1.2-2,1.3c-0.7,0.1-1.3,0-2-0.3c-0.4-0.2-0.8-0.5-1-0.9c-0.3-0.7-0.2-1.6,0.5-2.1
								c0.4-0.3,1-0.5,1.5-0.6c0.6-0.1,1.2-0.2,1.9-0.2c0.3,0,0.7,0,1,0c0.1,0,0.1,0,0.1-0.1c0-0.3,0-0.7-0.1-1
								c-0.2-0.7-0.6-1-1.2-1.2c-0.7-0.1-1.4,0-2,0.4c-0.4,0.2-0.7,0.5-0.8,1c0,0.1-0.1,0.1-0.2,0c-0.2-0.3-0.3-0.6-0.3-0.9
								c0-0.1,0.1-0.2,0.2-0.3c0.1-0.1,0.2-0.1,0.3-0.2c0.5-0.2,1.1-0.4,1.6-0.4c0.8-0.1,1.5,0,2.3,0.2c0.8,0.3,1.2,0.9,1.3,1.8
								c0,0.7,0,1.4,0,2.1c0,0.4,0,0.7,0,1.1C435.7,67.2,435.8,67.7,436,68.2C436,68.1,436,68.1,436,68.2 M434.6,65
								c0-0.1,0-0.2,0-0.4c0-0.1,0-0.1-0.1-0.1c-0.4,0-0.7,0-1.1,0c-0.5,0-1,0.1-1.5,0.3c-0.3,0.1-0.6,0.3-0.9,0.6
								c-0.3,0.3-0.4,0.7-0.4,1.1c0,0.6,0.3,1,0.8,1.3c0.4,0.2,0.8,0.3,1.3,0.2c0.4,0,0.7-0.1,1-0.3c0.4-0.3,0.6-0.7,0.7-1.1
								C434.6,66,434.6,65.5,434.6,65"/>
						</g>
					</g>
					<g>
						<g>
							<path fill="#FFFFFF" d="M451.8,68.2c-0.1,0-0.1,0-0.1,0c-0.3,0-0.5,0-0.8,0c-0.2,0-0.2,0-0.2-0.2c-0.1-0.3-0.1-0.6-0.2-0.9
								c0-0.1,0-0.1,0-0.2c0,0,0,0,0,0c-0.4,0.8-1.1,1.2-1.9,1.3c-0.7,0.1-1.4,0-2-0.2c-0.4-0.1-0.7-0.4-0.9-0.7
								c-0.6-0.7-0.5-1.8,0.3-2.4c0.5-0.4,1-0.5,1.5-0.7c0.6-0.1,1.3-0.2,2-0.2c0.3,0,0.6,0,0.9,0c0.1,0,0.1,0,0.1-0.1
								c0-0.4,0-0.8-0.2-1.2c-0.2-0.5-0.6-0.8-1.2-0.9c-0.8-0.1-1.5,0-2.1,0.4c-0.3,0.2-0.6,0.5-0.7,0.9c0,0.1-0.1,0.1-0.2,0
								c-0.2-0.3-0.3-0.6-0.3-0.9c0-0.1,0.1-0.2,0.1-0.3c0.1-0.1,0.2-0.1,0.3-0.2c0.7-0.3,1.3-0.4,2.1-0.5c0.7,0,1.3,0,1.9,0.3
								c0.7,0.3,1,0.9,1.1,1.6c0,0.2,0,0.3,0,0.5c0,0.8,0,1.7,0,2.5c0,0.5,0.1,1,0.3,1.5C451.7,68,451.7,68.1,451.8,68.2
								 M449.6,64.5C449.6,64.5,449.6,64.5,449.6,64.5c-0.3,0-0.6,0-0.9,0c-0.4,0-0.9,0.1-1.3,0.3c-0.6,0.3-1,0.7-1,1.4
								c-0.1,0.7,0.2,1.3,0.9,1.6c0.6,0.2,1.2,0.2,1.7,0c0.4-0.1,0.7-0.4,0.9-0.8c0.1-0.2,0.2-0.4,0.2-0.6c0.2-0.6,0.2-1.3,0.2-1.9
								c0-0.1,0-0.1-0.1-0.1L449.6,64.5L449.6,64.5z"/>
						</g>
					</g>
					<g>
						<g>
							<path fill="#FFFFFF" d="M466,68.2h-0.4c-0.2,0-0.3,0-0.5,0c-0.2,0-0.2,0-0.2-0.2c-0.1-0.3-0.1-0.7-0.2-1c0,0,0-0.1,0-0.1
								c0,0-0.1,0-0.1,0.1c-0.5,0.9-1.2,1.2-2.2,1.3c-0.6,0-1.2,0-1.7-0.2c-0.4-0.2-0.7-0.4-1-0.7c-0.5-0.7-0.5-1.7,0.3-2.3
								c0.4-0.3,0.9-0.5,1.4-0.6c0.5-0.1,1-0.2,1.5-0.2c0.5,0,1,0,1.5,0c0.2,0,0.2,0,0.2-0.2c0-0.4,0-0.7-0.2-1
								c-0.2-0.6-0.6-0.9-1.2-1.1c-0.8-0.2-1.5-0.1-2.2,0.4c-0.3,0.2-0.6,0.5-0.7,1c0,0.1-0.1,0.1-0.2,0c-0.2-0.3-0.3-0.6-0.3-0.9
								c0-0.1,0.1-0.2,0.2-0.3c0.2-0.1,0.4-0.2,0.6-0.3c0.7-0.3,1.5-0.4,2.3-0.3c0.4,0,0.9,0.1,1.3,0.3c0.7,0.3,1.1,0.9,1.2,1.6
								c0,0.2,0,0.3,0,0.5c0,0.8,0,1.5,0,2.3c0,0.6,0.1,1.1,0.3,1.6C465.9,68,466,68,466,68.2 M463.8,64.5L463.8,64.5
								c-0.1,0-0.2,0-0.3,0c-0.6,0-1.1,0.1-1.6,0.3c-0.7,0.2-1.1,0.7-1.2,1.4c-0.1,0.6,0.1,1.1,0.7,1.5c0.4,0.3,0.8,0.3,1.3,0.3
								c0.9,0,1.5-0.5,1.8-1.4c0.2-0.7,0.2-1.4,0.2-2.1c0-0.1,0-0.1-0.1-0.1C464.3,64.5,464,64.5,463.8,64.5"/>
						</g>
					</g>
					<g>
						<g>
							<path fill="#FFFFFF" d="M474.8,64h-2.4c-0.2,0-0.2,0-0.2,0.2c-0.1,0.6,0,1.3,0.2,1.9c0.1,0.4,0.3,0.8,0.6,1.1
								c0.4,0.4,0.9,0.6,1.4,0.7c0.6,0.1,1.1,0,1.7-0.3c0.8-0.4,1.3-1.1,1.6-1.9c0,0,0-0.1,0.1-0.1c0,0,0.1-0.1,0.1,0
								c0,0,0.1,0.1,0.1,0.1c0,0.1,0,0.2-0.1,0.3c-0.3,1-1,1.7-2,2.1c-0.5,0.2-1.1,0.3-1.7,0.3c-1-0.1-1.9-0.5-2.5-1.4
								c-0.4-0.6-0.6-1.2-0.7-1.9c-0.1-1.5,0.9-3,2.4-3.4c1.1-0.3,2.2-0.2,3.2,0.4c0.6,0.4,1,0.9,1.1,1.6c0,0.2,0,0.3-0.2,0.3
								c-0.1,0-0.2,0-0.4,0C476.3,64,475.5,64,474.8,64 M474.3,63.7h1.8c0.1,0,0.2,0,0.2,0c0.1,0,0.1-0.1,0.1-0.2
								c-0.1-0.7-0.4-1.3-1.1-1.6c-0.4-0.2-0.9-0.2-1.3-0.1c-0.3,0-0.7,0.2-1,0.4c-0.5,0.3-0.7,0.8-0.9,1.4c0,0.1,0,0.2,0.1,0.2
								H474.3L474.3,63.7z"/>
						</g>
					</g>
					<g>
						<path fill="#FFFFFF" d="M456,61.5c0.8,0,1.6,0.2,2.3,0.5c0.1,0,0.3,0.1,0.4,0.2c0.1,0.1,0.1,0.2,0.1,0.3
							c0,0.3-0.1,0.6-0.3,0.8c0,0,0,0-0.1,0.1c0,0-0.1,0-0.1,0c0,0,0,0,0,0c-0.1-0.4-0.4-0.7-0.7-1c-0.7-0.4-1.4-0.5-2.2-0.4
							c-0.8,0.1-1.3,0.6-1.6,1.3c-0.2,0.4-0.2,0.8-0.3,1.2c0,0.5,0,1,0.1,1.5c0.2,0.6,0.4,1.2,0.9,1.6c0.4,0.3,0.8,0.5,1.3,0.5
							c1,0,1.7-0.4,2.4-1.1c0.1-0.2,0.3-0.3,0.4-0.5c0,0,0.1-0.1,0.1-0.1c0,0.1,0.1,0.1,0.1,0.2c0,0,0,0.1,0,0.1
							c-0.5,0.8-1.1,1.3-2,1.6c-1.2,0.3-2.3,0.1-3.3-0.7c-0.6-0.5-1-1.1-1.1-1.9c-0.2-0.9,0-1.7,0.4-2.5c0.5-0.8,1.3-1.3,2.2-1.5
							C455.4,61.6,455.7,61.5,456,61.5"/>
					</g>
					<g>
						<path fill="#FFFFFF" d="M440.9,62c0,0,0.1-0.1,0.1-0.1c0.3-0.2,0.6-0.3,0.9-0.3c0.1,0,0.2,0,0.2,0.2c0,0.1,0,0.3,0,0.4
							c0,0.4,0,0.7,0,1.1c0,0,0-0.1,0.1-0.1c0.2-0.4,0.4-0.7,0.7-1c0.5-0.4,1-0.7,1.6-0.7c0.2,0,0.2,0.1,0.2,0.2
							c0,0.3-0.1,0.6-0.3,0.9c0,0.1-0.1,0.1-0.2,0c-0.5-0.4-1.1-0.3-1.5,0.3c-0.2,0.3-0.4,0.7-0.4,1.1c-0.1,0.4-0.1,0.8-0.2,1.3
							c0,0.4,0,0.9,0,1.3c0,0.5,0,0.9,0,1.4c0,0.2,0,0.2-0.2,0.2h-0.6c-0.2,0-0.2,0-0.2-0.2c0-1.7,0-3.4,0-5.1c0-0.1,0-0.1,0-0.2
							C441.2,62.4,441.2,62.2,440.9,62"/>
					</g>
					<g>
						<path fill="#FFFFFF" d="M468.3,63.3c0.1-0.1,0.1-0.2,0.2-0.3c0.4-0.7,0.9-1.2,1.7-1.4c0.2,0,0.4-0.1,0.6-0.1
							c0.1,0,0.2,0,0.2,0.2c0,0.3-0.1,0.6-0.3,0.9c0,0.1-0.1,0.1-0.2,0c-0.4-0.4-1.1-0.2-1.5,0.3c-0.2,0.4-0.4,0.8-0.4,1.2
							c-0.1,0.4-0.1,0.7-0.1,1.1c0,0.5,0,1,0,1.5c0,0.4,0,0.8,0,1.3c0,0.2,0,0.2-0.2,0.2c-0.2,0-0.4,0-0.6,0c-0.1,0-0.1,0-0.1-0.1
							c0,0,0-0.1,0-0.1c0-1.7,0-3.4,0-5c0-0.2,0-0.3-0.1-0.5c0-0.1-0.1-0.2-0.2-0.3c-0.1-0.1-0.1-0.1,0-0.2c0.2-0.2,0.5-0.3,0.7-0.3
							c0,0,0,0,0.1,0c0.3,0,0.4,0,0.4,0.3c0,0.4,0,0.7,0,1.1L468.3,63.3C468.3,63.3,468.3,63.3,468.3,63.3"/>
					</g>
					<g>
						<path fill="#FFFFFF" d="M437.6,65.3v-2.7c0-0.2,0-0.2-0.2-0.2c-0.2,0-0.4,0-0.6,0c0,0-0.1,0-0.1-0.1c0,0,0-0.1,0.1-0.1
							c0,0,0.1-0.1,0.1-0.1c0.7-0.4,1.2-0.9,1.4-1.7c0,0,0,0,0,0c0-0.1,0.1-0.2,0.1-0.1c0,0,0.1,0.1,0.1,0.2c0,0.5,0,1,0,1.5
							c0,0.2,0,0.2,0.2,0.2c0.3,0,0.6,0,0.9,0c0.1,0,0.2,0,0.2,0.1c0,0.2,0,0.2-0.2,0.2c-0.3,0-0.6,0-0.9,0c-0.1,0-0.1,0-0.1,0.1
							c0,0.4,0,0.7,0,1.1c0,1.4,0,2.7,0,4.1c0,0.1,0,0.2,0,0.3c0,0.1,0,0.1-0.1,0.1c-0.2,0-0.5,0-0.7,0c-0.1,0-0.1,0-0.1-0.1
							c0-0.3,0-0.6,0-0.8L437.6,65.3L437.6,65.3z"/>
					</g>
				</g>
			</g>
		</g>
		<g>
			<g>
				<g>
					<g>
						<g>
							<path fill="none" stroke="#505978" stroke-width="1.0057" stroke-miterlimit="10" d="M321.7,47.9l0.1-2.8
								c-1.2,0-2.3-0.8-2.7-1.9v-1.8c0.4-1.1,1.4-1.9,2.7-1.9l0-2.4c-1.2,0-2.2-0.8-2.6-1.8v-2c0.4-1.1,1.4-1.8,2.6-1.8l0-2.5h-2.7
								v-2.9l-2.9,0c0,1.6-1.2,2.8-2.7,2.8c-1.5,0-2.7-1.3-2.7-2.8l-2.3,0c0,1.6-1.2,2.8-2.7,2.8c-1.5,0-2.7-1.3-2.7-2.8l-2.7-0.1
								c0,1.6-1.2,2.8-2.7,2.8c-1.5,0-2.7-1.3-2.7-2.8l-2.3,0.1c0,1.6-1.2,2.8-2.7,2.8c-1.5,0-2.7-1.3-2.7-2.8l-3.1,0
								c0,1.6-1.2,2.8-2.7,2.8c-1.5,0-2.7-1.3-2.7-2.8l-2.3-0.1c0,1.6-1.2,2.8-2.7,2.8c-1.5,0-2.7-1.3-2.7-2.8l-2.7-0.1
								c0,1.6-1.2,2.8-2.7,2.8c-1.5,0-2.7-1.3-2.7-2.8l-2.3,0c0,1.6-1.2,2.8-2.7,2.8c-1.5,0-2.7-1.3-2.7-2.8l-2.4,0v3h-2.7l0,2.5
								c1.2,0,2.2,0.8,2.6,1.8v2c-0.4,1.1-1.4,1.8-2.6,1.8l0,2.4c1.2,0,2.3,0.8,2.7,1.9v1.8c-0.4,1.1-1.4,1.9-2.7,1.9l0.1,2.8
								c1.1,0,2.1,0.7,2.6,1.7v2.3c-0.4,1-1.4,1.7-2.6,1.7l0.1,2.4c1.1,0,2,0.6,2.5,1.6V60c-0.5,0.9-1.4,1.6-2.5,1.6l0,3.2
								c1.1,0,2.1,0.7,2.5,1.6v2.4c-0.5,1-1.4,1.6-2.5,1.6l-0.1,2.4c1.2,0,2.2,0.7,2.6,1.7v2.2c-0.4,1-1.4,1.7-2.6,1.7l0.1,2.8
								c1.1,0,2,0.6,2.5,1.5v2.6c-0.5,0.9-1.4,1.5-2.5,1.5l0,2.4c1.1,0,2,0.6,2.5,1.5v2.7c-0.5,0.9-1.4,1.5-2.5,1.5l0,3h2.5v3l2.4,0
								c0-1.6,1.2-2.8,2.7-2.8c1.5,0,2.7,1.3,2.7,2.8l2.3,0c0-1.6,1.2-2.8,2.7-2.8c1.5,0,2.7,1.3,2.7,2.8l2.7-0.1
								c0-1.6,1.2-2.8,2.7-2.8c1.5,0,2.7,1.3,2.7,2.8l2.3-0.1c0-1.6,1.2-2.8,2.7-2.8c1.5,0,2.7,1.3,2.7,2.8l3.1,0
								c0-1.6,1.2-2.8,2.7-2.8c1.5,0,2.7,1.3,2.7,2.8l2.3,0.1c0-1.6,1.2-2.8,2.7-2.8c1.5,0,2.7,1.3,2.7,2.8l2.7-0.1
								c0-1.6,1.2-2.8,2.7-2.8c1.5,0,2.7,1.3,2.7,2.8l2.3,0c0-1.6,1.2-2.8,2.7-2.8c1.5,0,2.7,1.3,2.7,2.8l2.9,0V98h2.5l0-3
								c-1.1,0-2-0.6-2.5-1.5v-2.7c0.5-0.9,1.4-1.5,2.5-1.5l0-2.4c-1.1,0-2-0.6-2.5-1.5v-2.6c0.5-0.9,1.4-1.5,2.5-1.5l0.1-2.8
								c-1.2,0-2.2-0.7-2.6-1.7v-2.2c0.4-1,1.4-1.7,2.6-1.7l-0.1-2.4c-1.1,0-2.1-0.7-2.5-1.6v-2.4c0.5-1,1.4-1.6,2.5-1.6l0-3.2
								c-1.1,0-2-0.6-2.5-1.6v-2.5c0.5-0.9,1.4-1.6,2.5-1.6l0.1-2.4c-1.1,0-2.1-0.7-2.6-1.7v-2.3C319.6,48.6,320.5,47.9,321.7,47.9z
								"/>
							
								<rect x="255.9" y="31.7" fill="#FACCC2" stroke="#505978" stroke-width="2" stroke-miterlimit="10" width="59.7" height="63.5"/>
						</g>
					</g>
				</g>
				<g>
					<path fill="#FFFFFF" d="M288.3,61.9c0,0.1-0.1,0.2-0.1,0.3c-0.3,0.7-0.7,1.1-1.4,1.4c-1.2,0.5-2.4,0.6-3.5,0.1
						c-1-0.3-1.6-1.1-1.9-2c-0.3-1-0.3-2,0-3c0.4-1.2,1.2-1.9,2.4-2.1c0.8-0.2,1.6-0.2,2.4,0.1c1.1,0.3,1.8,1.1,2.1,2.2
						c0.1,0.4,0.1,0.9,0.2,1.3c0,0.2-0.1,0.2-0.2,0.2c-0.1,0-0.1,0-0.2,0c-1.8,0-3.7,0-5.5,0c-0.1,0-0.2,0-0.2,0
						c-0.1,0-0.2,0.1-0.2,0.2c0,0.7,0.2,1.4,0.7,2c0.4,0.4,0.9,0.6,1.5,0.7c0.9,0.1,1.7,0,2.4-0.5c0.2-0.1,0.3-0.4,0.5-0.6
						c0.1-0.1,0.2-0.2,0.3-0.2C287.8,61.9,288.1,61.9,288.3,61.9 M282.3,59.6h0.3h4.5c0.5,0,0.5,0,0.4-0.5c-0.2-1-0.8-1.6-1.7-1.9
						c-0.3-0.1-0.7-0.1-1.1-0.1c-0.7,0-1.3,0.3-1.8,0.9C282.5,58.4,282.3,59,282.3,59.6"/>
					<path fill="#FFFFFF" d="M272.7,61.9c-0.2,0.6-0.6,1.1-1.1,1.4c-0.6,0.4-1.3,0.6-2.1,0.6c-0.5,0-1,0-1.5-0.1
						c-1.3-0.4-2-1.2-2.3-2.5c-0.2-0.9-0.2-1.8,0.1-2.7c0.3-0.9,1-1.6,1.9-1.9c0.9-0.3,1.9-0.3,2.8-0.1c1.3,0.4,2,1.3,2.2,2.7
						c0,0.3,0.1,0.5,0.1,0.8c0,0.3,0,0.3-0.3,0.3c-1.1,0-2.3,0-3.4,0c-0.8,0-1.6,0-2.3,0c-0.3,0-0.3,0-0.3,0.3
						c0,0.9,0.4,1.7,1.2,2.2c0.5,0.3,1.1,0.4,1.7,0.4c0.5,0,1-0.1,1.4-0.4c0.3-0.2,0.5-0.4,0.6-0.7c0.1-0.2,0.2-0.2,0.3-0.2
						C272.2,61.9,272.5,61.9,272.7,61.9 M269.3,59.6c0.8,0,1.6,0,2.4,0c0.2,0,0.3,0,0.2-0.2c-0.1-0.9-0.5-1.5-1.2-2
						c-0.4-0.2-0.8-0.3-1.3-0.3c-0.6,0-1.2,0.1-1.7,0.5c-0.6,0.4-0.9,1-1,1.8c0,0.2,0,0.3,0.2,0.3C267.7,59.6,268.5,59.6,269.3,59.6
						"/>
					<path fill="#FFFFFF" d="M305.6,57.6c0.1-0.1,0.2-0.2,0.3-0.3c0.6-0.6,1.3-0.9,2.2-0.9c0.6,0,1.2,0,1.8,0.2
						c0.2,0.1,0.5,0.2,0.7,0.4c0.5,0.3,0.7,0.8,0.7,1.4c0,1.7,0,3.4,0,5c0,0.2,0,0.3-0.3,0.3c-0.1,0-0.3,0-0.4,0
						c-0.3,0-0.3,0-0.3-0.3c0-1.4,0-2.8,0-4.1c0-0.3,0-0.7-0.1-1c-0.1-0.5-0.4-0.9-1-1c-0.8-0.2-1.6-0.2-2.3,0.2
						c-0.7,0.3-1.1,0.9-1.3,1.7c0,0.2-0.1,0.4-0.1,0.6c0,1.2,0,2.5,0,3.7c0,0.1,0,0.2,0,0.3c-0.3,0-0.5,0-0.8,0
						c-0.1,0-0.1-0.1-0.1-0.1c0-0.1,0-0.2,0-0.2v-8.5c0-0.1,0-0.1,0-0.2c0-0.1,0.1-0.2,0.2-0.2c0.2,0,0.4,0,0.6,0
						c0.1,0,0.2,0.1,0.2,0.2c0,0.1,0,0.1,0,0.2v2.4L305.6,57.6C305.5,57.6,305.6,57.6,305.6,57.6"/>
					<path fill="#FFFFFF" d="M257.9,61.5c0.3,0,0.6,0,0.9,0c0,0,0.1,0.1,0.1,0.1c0.2,0.9,0.8,1.4,1.7,1.5c0.6,0.1,1.2,0,1.8-0.2
						c0.3-0.1,0.5-0.3,0.7-0.5c0.3-0.5,0.3-1.2-0.4-1.5c-0.4-0.2-0.8-0.3-1.3-0.4c-0.8-0.2-1.5-0.3-2.2-0.6c-0.4-0.2-0.8-0.4-1-0.8
						c-0.3-0.6-0.2-1.4,0.3-1.9c0.5-0.6,1.2-0.8,1.9-0.9c0.8-0.1,1.5,0,2.3,0.3c0.8,0.3,1.3,0.9,1.4,1.7c0,0.2,0,0.2-0.2,0.3
						c-0.2,0-0.4,0-0.6,0c-0.1,0-0.2,0-0.2-0.2c-0.1-0.7-0.5-1-1.1-1.2c-0.7-0.2-1.4-0.2-2.1,0.1c-0.5,0.2-0.8,0.6-0.8,1.1
						c0,0.4,0.2,0.7,0.5,0.8c0.3,0.1,0.7,0.3,1.1,0.3c0.8,0.2,1.6,0.4,2.3,0.6c0.2,0.1,0.5,0.2,0.7,0.3c0.8,0.5,0.9,1.6,0.4,2.2
						c-0.3,0.4-0.6,0.7-1.1,0.9c-1.1,0.4-2.2,0.4-3.4,0.1c-0.8-0.2-1.4-0.7-1.7-1.5C258,62,258,61.8,257.9,61.5"/>
					<path fill="#FFFFFF" d="M291,57.6c0.1-0.1,0.1-0.1,0.2-0.2c0.6-0.7,1.4-1,2.4-1c0.6,0,1.2,0,1.8,0.3c0.5,0.2,0.9,0.5,1.1,1
						c0.1,0.3,0.2,0.7,0.2,1c0,1.6,0,3.1,0,4.7c0,0,0,0.1,0,0.1c0,0.2-0.1,0.2-0.2,0.2c-0.2,0-0.3,0-0.5,0c-0.2,0-0.2-0.1-0.2-0.2
						c0-0.1,0-0.1,0-0.2c0-1.3,0-2.6,0-3.9c0-0.3,0-0.6-0.1-0.9c-0.1-0.7-0.5-1.1-1.2-1.3c-0.7-0.1-1.4-0.1-2.1,0.2
						c-0.8,0.4-1.3,1-1.3,1.8c0,1.4,0,2.7,0,4.1c0,0.4,0,0.4-0.4,0.4c-0.5,0-0.5,0-0.5-0.5c0-0.9,0-1.8,0-2.7c0-0.4,0-0.8,0-1.3
						c0-0.3,0-0.6,0-1c0-0.5,0-1,0-1.5c0-0.2,0-0.3,0.3-0.3c0.1,0,0.3,0,0.4,0c0.1,0,0.2,0.1,0.2,0.2c0,0.2,0,0.4,0,0.7
						C290.9,57.5,290.9,57.5,291,57.6C291,57.6,291,57.6,291,57.6"/>
					<path fill="#FFFFFF" d="M307.6,67v0.3c0,0.8,0,1.6,0,2.5c0,0.3,0,0.3-0.3,0.3c-0.2,0-0.5,0-0.7,0c-0.2,0-0.2,0-0.2-0.2
						c0-0.9,0-1.9,0-2.8c0-0.5,0-1,0-1.5c0-0.2,0-0.3,0.3-0.3c0.3,0,0.7,0,1,0c0.2,0,0.3,0.1,0.4,0.2c0.6,0.9,1.2,1.8,1.7,2.7
						c0,0.1,0.1,0.1,0.1,0.2c0,0,0,0,0.1,0c0-0.1,0-0.2,0-0.2c0-0.8,0-1.7,0-2.5c0-0.3,0-0.3,0.3-0.3c0.2,0,0.5,0,0.7,0
						c0.2,0,0.2,0,0.2,0.3c0,0.6,0,1.2,0,1.8c0,0.8,0,1.6,0,2.4c0,0.3,0,0.3-0.3,0.3c-0.3,0-0.6,0-0.9,0c-0.2,0-0.3-0.1-0.4-0.2
						c-0.6-0.9-1.1-1.7-1.7-2.6C307.7,67.2,307.7,67.1,307.6,67C307.6,67,307.6,67,307.6,67"/>
					<path fill="#FFFFFF" d="M271.3,67c0,0.1,0,0.2,0,0.3c0,0.8,0,1.6,0,2.5c0,0.3,0,0.3-0.3,0.3c-0.2,0-0.5,0-0.7,0
						c-0.2,0-0.2,0-0.2-0.2c0-0.7,0-1.4,0-2.1c0-0.7,0-1.4,0-2.1c0-0.2,0-0.3,0.2-0.3c0.3,0,0.7,0,1,0c0.2,0,0.3,0.1,0.3,0.2
						c0.6,0.9,1.1,1.8,1.7,2.7c0.1,0.1,0.1,0.2,0.2,0.2c0,0,0,0,0.1,0c0-0.1,0-0.2,0-0.3c0-0.8,0-1.7,0-2.5c0-0.3,0-0.3,0.3-0.3
						c0.3,0,0.5,0,0.8,0c0.2,0,0.2,0,0.2,0.3v3.3c0,0.3,0,0.6,0,1c0,0.2,0,0.2-0.2,0.2c-0.4,0-0.7,0-1.1,0c-0.2,0-0.3-0.1-0.3-0.2
						c-0.6-0.9-1.1-1.7-1.7-2.6C271.4,67.2,271.4,67.1,271.3,67C271.3,67,271.3,67,271.3,67"/>
					<path fill="#FFFFFF" d="M262.6,69.8c-0.1,0-0.1,0-0.2,0.1c-0.9,0.4-1.9,0.4-2.8,0.1c-0.9-0.4-1.5-1.2-1.5-2.2
						c0-0.8,0.2-1.5,0.8-2c0.3-0.3,0.7-0.5,1.2-0.5c0.7-0.2,1.5-0.2,2.2,0.1c0.5,0.2,0.8,0.5,1,1c0,0.1,0,0.1,0.1,0.2
						c0,0,0,0.1,0,0.1c-0.1,0-0.2,0-0.2,0c-0.2,0-0.5,0-0.7,0c-0.2,0-0.4,0-0.5-0.2c-0.3-0.4-1.1-0.5-1.6-0.3
						c-0.3,0.1-0.5,0.3-0.7,0.6c-0.4,0.7-0.2,1.6,0.3,2.1c0.5,0.4,1.4,0.5,1.9,0.1c0.2-0.1,0.3-0.3,0.3-0.6c-0.1,0-0.2,0-0.3,0
						c-0.2,0-0.5,0-0.7,0c-0.1,0-0.2,0-0.2-0.2c0-0.8-0.1-0.6,0.6-0.7c0.5,0,1.1,0,1.6,0c0.2,0,0.2,0,0.2,0.2c0,0.7,0,1.4,0,2.1
						c0,0.2,0,0.2-0.2,0.2c-0.1,0-0.1,0-0.2,0C262.9,70,262.7,70.1,262.6,69.8"/>
					<path fill="#FFFFFF" d="M302.6,65.2c0.4,0,0.8,0,1.2,0.2c1,0.4,1.6,1.2,1.6,2.2c0,0.4-0.1,0.9-0.3,1.2c-0.3,0.6-0.7,1-1.3,1.2
						c-0.8,0.3-1.7,0.3-2.5,0c-0.9-0.4-1.5-1.1-1.5-2.2c0-0.4,0-0.9,0.2-1.3c0.3-0.6,0.7-0.9,1.3-1.1
						C301.7,65.2,302.1,65.1,302.6,65.2 M302.6,66.1c-0.8,0-1.2,0.4-1.4,1.1c0,0.1,0,0.2,0,0.4c0,0.3,0,0.5,0.1,0.8
						c0.2,0.7,0.9,1,1.7,0.8c0.6-0.1,0.9-0.5,1-1c0-0.3,0.1-0.6,0-0.9C303.9,66.5,303.4,66.1,302.6,66.1"/>
					<path fill="#FFFFFF" d="M285.4,67.9c0.4,0.1,0.4,0.4,0.5,0.7c0.2,0.4,0.4,0.9,0.6,1.3c0,0,0,0.1,0,0.1c-0.1,0-0.1,0-0.2,0
						c-0.3,0-0.7,0-1,0c-0.1,0-0.2-0.1-0.3-0.2c-0.1-0.4-0.3-0.7-0.4-1.1c-0.1-0.4-0.4-0.5-0.8-0.6c-0.2,0-0.4,0-0.5,0
						c-0.3,0-0.3,0-0.3,0.3c0,0.4,0,0.8,0,1.2c0,0.3,0,0.3-0.3,0.3c-0.3,0-0.5,0-0.8,0c-0.3,0-0.3,0-0.3-0.3v-3c0-0.4,0-0.8,0-1.2
						c0-0.2,0.1-0.2,0.2-0.2c0.9,0,1.9,0,2.8,0c0.3,0,0.7,0.1,1,0.2c0.4,0.2,0.7,0.5,0.7,1c0,0.4-0.1,0.8-0.5,1.1
						C285.7,67.6,285.6,67.7,285.4,67.9C285.4,67.8,285.4,67.8,285.4,67.9 M283.7,66.1L283.7,66.1c-0.2,0-0.4,0-0.5,0
						c-0.1,0-0.2,0-0.2,0.2c0,0.3,0,0.6,0,0.9c0,0.1,0.1,0.2,0.2,0.2c0.4,0,0.9,0,1.3-0.1c0.3,0,0.5-0.3,0.5-0.6
						c0-0.3-0.2-0.5-0.5-0.5C284.3,66.2,284,66.2,283.7,66.1"/>
					<path fill="#FFFFFF" d="M264.6,67.7c0-0.7,0-1.4,0-2.1c0-0.3,0-0.3,0.3-0.3c1.2,0,2.4,0,3.7,0c0.3,0,0.3,0,0.3,0.3
						c0,0.1,0,0.3,0,0.4c0,0.2,0,0.2-0.2,0.2c-0.7,0-1.4,0-2.2,0c-0.1,0-0.2,0-0.3,0c-0.1,0-0.2,0.1-0.2,0.2c0,0.2,0,0.4,0,0.6
						c0,0.2,0.1,0.2,0.2,0.2c0.4,0,0.8,0,1.2,0c0.3,0,0.6,0,0.9,0c0.3,0,0.3,0,0.3,0.3c0,0.1,0,0.2,0,0.3c0,0.3,0,0.3-0.3,0.3
						c-0.6,0-1.2,0-1.8,0c-0.1,0-0.2,0-0.3,0c-0.2,0-0.2,0-0.2,0.2c0,0.2,0,0.4,0,0.7c0,0.2,0,0.2,0.2,0.2c0.8,0,1.6,0,2.3,0
						c0.4,0,0.4,0,0.4,0.4c0,0.1,0,0.2,0,0.3c0,0.1-0.1,0.2-0.2,0.2c-0.3,0-0.5,0-0.8,0c-1,0-2,0-3.1,0c-0.3,0-0.3,0-0.3-0.3
						C264.6,69,264.6,68.4,264.6,67.7"/>
					<path fill="#FFFFFF" d="M276.2,67.6c0-0.7,0-1.4,0-2.1c0-0.3,0-0.3,0.3-0.3c1.2,0,2.5,0,3.7,0c0.3,0,0.3,0,0.3,0.3
						c0,0.1,0,0.2,0,0.4c0,0.3,0,0.3-0.3,0.3c-0.7,0-1.4,0-2.1,0c-0.5,0-0.5,0-0.5,0.5c0,0.5-0.1,0.5,0.5,0.5c0.6,0,1.3,0,1.9,0
						c0.3,0,0.3,0,0.3,0.3c0,0.1,0,0.3,0,0.4c0,0.1-0.1,0.2-0.2,0.2c-0.2,0-0.3,0-0.5,0c-0.6,0-1.1,0-1.7,0c-0.2,0-0.3,0-0.3,0.3
						c0,0.2,0,0.4,0,0.6c0,0.2,0,0.3,0.2,0.3c0.4,0,0.9,0,1.3,0c0.4,0,0.8,0,1.2,0c0.2,0,0.2,0.1,0.2,0.2c0,0.2,0,0.4,0,0.5
						c0,0.1,0,0.2-0.2,0.2c0,0-0.1,0-0.1,0h-3.7c-0.3,0-0.3,0-0.3-0.3C276.2,69,276.2,68.3,276.2,67.6"/>
					<path fill="#FFFFFF" d="M273.4,56.6c0.4,0,0.7,0,1,0c0.1,0,0.1,0.1,0.1,0.2c0.3,0.6,0.6,1.3,0.8,1.9c0.5,1.2,1.1,2.5,1.6,3.7
						c0,0.1,0.1,0.2,0.2,0.3c0.1-0.2,0.1-0.3,0.2-0.4c0.7-1.6,1.4-3.3,2.1-4.9c0.1-0.2,0.2-0.4,0.3-0.6c0-0.1,0.1-0.1,0.2-0.1
						c0.3,0,0.5,0,0.9,0c0,0.1,0,0.2-0.1,0.2c-1,2.2-2,4.5-3,6.7c-0.1,0.2-0.2,0.2-0.4,0.2c-0.2,0-0.4,0-0.7,0
						c-0.1,0-0.2-0.1-0.2-0.2c-0.5-1-0.9-2.1-1.4-3.1c-0.5-1.2-1.1-2.4-1.6-3.6C273.5,56.8,273.5,56.7,273.4,56.6"/>
					<path fill="#FFFFFF" d="M303,62.9c0,0.2,0,0.4,0,0.6c0,0.1-0.1,0.2-0.2,0.2c-0.2,0.1-0.4,0.1-0.6,0.2c-0.6,0.1-1.3,0.1-1.9,0
						c-1.1-0.2-1.7-0.9-1.9-2c-0.1-0.3-0.1-0.7-0.1-1.1c0-2,0-4,0-5.9c0-0.1,0-0.2,0-0.2c0-0.1,0.1-0.1,0.1-0.1c0.2,0,0.5,0,0.7,0
						c0.2,0,0.1,0.1,0.1,0.2c0,0.6,0,1.2,0,1.8c0,0.1,0,0.1,0,0.2c0,0.1,0.1,0.2,0.2,0.2c0.1,0,0.1,0,0.2,0h3.1c0.3,0,0.3,0,0.3,0.3
						c0,0,0,0.1,0,0.1c0,0.1-0.1,0.2-0.2,0.2c-0.1,0-0.1,0-0.2,0c-1,0-2,0-3,0c-0.3,0-0.3,0-0.3,0.3c0,1.1,0,2.2,0,3.3
						c0,0.4,0.1,0.7,0.2,1.1c0.2,0.7,0.7,1,1.4,1.1c0.5,0,1,0,1.5,0C302.6,63.1,302.8,63,303,62.9"/>
					<path fill="#FFFFFF" d="M287,70c0.1-0.3,0.2-0.5,0.3-0.7c0.5-1.3,1.1-2.5,1.6-3.8c0.1-0.3,0.1-0.3,0.5-0.3c0.3,0,0.7,0,1,0
						c0.2,0,0.2,0.1,0.3,0.2c0.5,1.3,1,2.5,1.6,3.8c0.1,0.3,0.2,0.5,0.3,0.8h-0.4c-0.3,0-0.6,0-0.9,0c-0.2,0-0.3,0-0.3-0.2
						c-0.1-0.2-0.1-0.3-0.2-0.5c0-0.1-0.1-0.2-0.3-0.2c-0.5,0-1.1,0-1.6,0c-0.1,0-0.2,0-0.2,0.2c-0.1,0.2-0.1,0.4-0.2,0.5
						c0,0.1-0.1,0.2-0.2,0.2C287.9,70,287.5,70,287,70 M289.8,66.5C289.8,66.5,289.7,66.5,289.8,66.5c-0.3,0.5-0.5,1.1-0.7,1.7h1.3
						C290.2,67.6,290,67,289.8,66.5"/>
					<path fill="#FFFFFF" d="M294.4,65.3c0.7,0,1.4,0,2,0c0.3,0,0.3,0,0.3,0.3c0,0.1,0,0.3,0,0.4c0,0.2,0,0.2-0.2,0.2
						c-0.4,0-0.8,0-1.1,0c-0.2,0-0.2,0-0.2,0.3c0,1.1,0,2.2,0,3.2c0,0.1,0,0.1,0,0.2c0,0.1-0.1,0.2-0.2,0.2c-0.4,0-0.7,0-1,0
						c-0.1,0-0.2-0.1-0.2-0.2c0-0.1,0-0.1,0-0.2c0-1,0-2.1,0-3.1c0-0.3-0.1-0.4-0.4-0.3c-0.4,0-0.7,0-1.1,0c-0.1,0-0.2-0.1-0.2-0.2
						c0-0.2,0-0.3,0-0.5c0-0.2,0.1-0.2,0.2-0.2c0.5,0,1,0,1.5,0H294.4L294.4,65.3z"/>
					<path fill="#FFFFFF" d="M297.5,67.7c0-0.7,0-1.4,0-2.1c0-0.3,0-0.3,0.3-0.3c0.3,0,0.6,0,0.9,0c0.2,0,0.3,0,0.3,0.3
						c0,1.3,0,2.6,0,3.9c0,0.1,0,0.3,0,0.4c0,0.1,0,0.2-0.2,0.2c-0.3,0-0.7,0-1,0c-0.2,0-0.2-0.1-0.2-0.2
						C297.5,69.1,297.5,68.4,297.5,67.7"/>
				</g>
			</g>
			<g>
				<path fill="#FFFFFF" d="M292.2,71.6c0.1-0.1,0.1,0,0.1,0l-0.4,2.5c0,0.1-0.2,0.1-0.1,0l0.4-2.2l-1.3,1.7c0,0.1-0.1,0.1-0.1,0
					l-0.8-1.6l-0.4,2.2c0,0.1-0.2,0.1-0.1,0l0.4-2.5c0-0.1,0.1-0.1,0.1,0l0.8,1.8L292.2,71.6z"/>
				<path fill="#FFFFFF" d="M292.9,73.4l-0.5,0.7c-0.1,0.1-0.2,0-0.1-0.1l1.7-2.6c0,0,0,0,0.1,0c0,0,0,0,0.1,0l0.8,2.6
					c0,0.1-0.1,0.1-0.1,0.1l-0.2-0.7H292.9z M294.1,71.7l-1.1,1.6h1.6L294.1,71.7z"/>
				<path fill="#FFFFFF" d="M296.8,72.8l1.2-1.2c0.1-0.1,0.2,0,0.1,0.1L296.8,72.8l0.9,1.3c0.1,0.1-0.1,0.2-0.1,0.1l-0.8-1.2
					l-1.3,1.2c-0.1,0.1-0.2,0-0.1-0.1l1.3-1.2l-0.8-1.2c-0.1-0.1,0.1-0.2,0.1-0.1L296.8,72.8z"/>
				<path fill="#FFFFFF" d="M298.6,71.6c0-0.1,0.2-0.1,0.1,0l-0.4,2.5c0,0.1-0.2,0.1-0.1,0L298.6,71.6z"/>
				<path fill="#FFFFFF" d="M300.5,73.4l-0.1,0.8c0,0.1-0.1,0.1-0.1,0l0.4-2.5c0,0,0-0.1,0.1-0.1h0.9c0.7,0,1,0.5,0.9,0.9
					c-0.1,0.5-0.5,0.9-1.2,0.9H300.5z M300.5,73.2h0.9c0.6,0,1-0.4,1-0.7c0.1-0.4-0.2-0.8-0.8-0.8h-0.9L300.5,73.2z"/>
				<path fill="#FFFFFF" d="M302.9,73.4l-0.5,0.7c-0.1,0.1-0.2,0-0.1-0.1l1.7-2.6c0,0,0,0,0.1,0c0,0,0,0,0.1,0l0.9,2.6
					c0,0.1-0.1,0.1-0.1,0.1l-0.2-0.7H302.9z M304,71.7l-1.1,1.6h1.6L304,71.7z"/>
				<path fill="#FFFFFF" d="M305.4,74.2c-0.1,0-0.1,0-0.1-0.1l0.4-2.4c0-0.1,0.1-0.1,0.1-0.1c0.4,0,0.6,0,0.9,0
					c1.6,0,1.1,2.6-0.5,2.6C306,74.2,305.8,74.2,305.4,74.2z M305.5,74.1c0.4,0,0.6,0,0.9,0c1.4,0,1.8-2.3,0.4-2.3
					c-0.4,0-0.6,0-0.9,0L305.5,74.1z"/>
				<path fill="#FFFFFF" d="M308.2,73.6c0,0.3,0.5,0.5,0.8,0.5c0.1,0,0.1,0,0.2,0c0.4,0,1.1-0.1,1.1-0.6c0.2-0.9-2.1-0.1-1.9-1.2
					c0.1-0.4,0.5-0.6,0.9-0.7c0.1,0,0.2,0,0.3,0c0.4,0,0.9,0.1,1,0.5c0,0.1-0.1,0.1-0.1,0c-0.1-0.4-0.6-0.4-0.9-0.4c0,0-0.1,0-0.1,0
					c-0.3,0-0.7,0.1-0.9,0.4c0,0,0,0.1-0.1,0.1c-0.2,0.9,2.1,0.1,1.9,1.2c-0.1,0.6-0.8,0.8-1.3,0.8c-0.4,0-1-0.1-1.1-0.6
					C308,73.6,308.2,73.5,308.2,73.6z"/>
			</g>
		</g>
	</g>
	<g>
		<rect x="292.9" y="119.3" fill="none" width="151.5" height="26"/>
		<text transform="matrix(1 0 0 1 317.5503 125.2332)" fill="#939598" font-family="'Hero-Light'" font-size="9">We’ve got organics too.</text>
	</g>
</g>
</svg>
