<?xml version="1.0" encoding="utf-8"?>
<!-- Generator: Adobe Illustrator 18.1.1, SVG Export Plug-In . SVG Version: 6.00 Build 0)  -->
<svg version="1.1" id="Layer_1" xmlns="http://www.w3.org/2000/svg" xmlns:xlink="http://www.w3.org/1999/xlink" x="0px" y="0px"
	 viewBox="0 0 510 171.2" enable-background="new 0 0 510 171.2" xml:space="preserve">
<g>
	<g>
		<g>
			<g>
				<g>
					<g>
						<defs>
							<rect id="SVGID_1_" x="268.9" y="25.4" width="62.1" height="66"/>
						</defs>
						<clipPath id="SVGID_2_">
							<use xlink:href="#SVGID_1_"  overflow="visible"/>
						</clipPath>
					</g>
					<g>
						<g>
							<path fill="none" stroke="#505978" stroke-linecap="round" stroke-linejoin="round" stroke-miterlimit="10" d="M337.3,42.2
								l0.1-2.9c-1.3,0-2.4-0.8-2.8-2v-1.9c0.4-1.2,1.5-2,2.8-2l0-2.5c-1.2,0-2.3-0.8-2.7-1.9V27c0.4-1.1,1.5-1.9,2.7-1.9l0-2.6
								h-2.8v-3l-3,0c0,1.6-1.3,2.9-2.8,2.9c-1.6,0-2.8-1.3-2.8-2.9l-2.4,0c0,1.6-1.3,2.9-2.8,2.9c-1.6,0-2.8-1.3-2.8-2.9l-2.8-0.1
								c0,1.6-1.3,2.9-2.8,2.9c-1.6,0-2.8-1.3-2.8-2.9l-2.4,0.1c0,1.6-1.3,2.9-2.8,2.9c-1.6,0-2.8-1.3-2.8-2.9l-3.2,0
								c0,1.6-1.3,2.9-2.8,2.9c-1.6,0-2.8-1.3-2.8-2.9l-2.4-0.1c0,1.6-1.3,2.9-2.8,2.9c-1.6,0-2.8-1.3-2.8-2.9l-2.8-0.1
								c0,1.6-1.3,2.9-2.8,2.9c-1.6,0-2.8-1.3-2.8-2.9l-2.4,0c0,1.6-1.3,2.9-2.8,2.9c-1.6,0-2.8-1.3-2.8-2.9l-2.5,0v3.1h-2.8l0,2.6
								c1.2,0,2.3,0.8,2.7,1.9V29c-0.4,1.1-1.5,1.9-2.7,1.9l0,2.5c1.3,0,2.4,0.8,2.8,2v1.9c-0.4,1.2-1.5,2-2.8,2l0.1,2.9
								c1.2,0,2.2,0.7,2.7,1.7v2.4c-0.5,1-1.5,1.7-2.7,1.7l0.1,2.5c1.1,0,2.1,0.7,2.6,1.6v2.6c-0.5,1-1.5,1.6-2.6,1.6l0,3.3
								c1.2,0,2.2,0.7,2.6,1.7V64c-0.5,1-1.5,1.7-2.6,1.7l-0.1,2.5c1.2,0,2.3,0.7,2.7,1.8v2.3c-0.4,1.1-1.5,1.8-2.7,1.8l0.1,2.9
								c1.1,0,2.1,0.6,2.6,1.6v2.7c-0.5,0.9-1.5,1.6-2.6,1.6l0,2.5c1.1,0,2.1,0.6,2.6,1.5v2.8c-0.5,0.9-1.4,1.5-2.6,1.5l0,3.2h2.6
								v3.1l2.5,0c0-1.6,1.3-2.9,2.8-2.9c1.6,0,2.8,1.3,2.8,2.9l2.4,0c0-1.6,1.3-2.9,2.8-2.9c1.6,0,2.8,1.3,2.8,2.9l2.8-0.1
								c0-1.6,1.3-2.9,2.8-2.9c1.6,0,2.8,1.3,2.8,2.9l2.4-0.1c0-1.6,1.3-2.9,2.8-2.9c1.6,0,2.8,1.3,2.8,2.9l3.2,0
								c0-1.6,1.3-2.9,2.8-2.9c1.6,0,2.8,1.3,2.8,2.9l2.4,0.1c0-1.6,1.3-2.9,2.8-2.9c1.6,0,2.8,1.3,2.8,2.9l2.8-0.1
								c0-1.6,1.3-2.9,2.8-2.9c1.6,0,2.8,1.3,2.8,2.9l2.4,0c0-1.6,1.3-2.9,2.8-2.9c1.6,0,2.8,1.3,2.8,2.9l3,0v-3h2.6l0-3.2
								c-1.1,0-2.1-0.6-2.6-1.5v-2.8c0.5-0.9,1.4-1.5,2.6-1.5l0-2.5c-1.1,0-2.1-0.6-2.6-1.6v-2.7c0.5-0.9,1.5-1.6,2.6-1.6l0.1-2.9
								c-1.2,0-2.3-0.7-2.7-1.8v-2.3c0.4-1.1,1.5-1.8,2.7-1.8l-0.1-2.5c-1.2,0-2.2-0.7-2.6-1.7v-2.5c0.5-1,1.5-1.7,2.6-1.7l0-3.3
								c-1.1,0-2.1-0.7-2.6-1.6v-2.6c0.5-1,1.5-1.6,2.6-1.6l0.1-2.5c-1.2,0-2.2-0.7-2.7-1.7V44C335.1,43,336.1,42.2,337.3,42.2z"/>
							
								<rect x="268.9" y="25.4" fill="#F79C83" stroke="#505978" stroke-width="2" stroke-miterlimit="10" width="62.1" height="66"/>
						</g>
					</g>
				</g>
				<g>
					<defs>
						<rect id="SVGID_3_" x="268.9" y="25.4" width="62.1" height="66"/>
					</defs>
					<clipPath id="SVGID_4_">
						<use xlink:href="#SVGID_3_"  overflow="visible"/>
					</clipPath>
				</g>
			</g>
			<g>
				<defs>
					<rect id="SVGID_5_" x="268.9" y="25.4" width="62.1" height="66"/>
				</defs>
				<clipPath id="SVGID_6_">
					<use xlink:href="#SVGID_5_"  overflow="visible"/>
				</clipPath>
				<g clip-path="url(#SVGID_6_)">
					<g>
						<g>
							<defs>
								<rect id="SVGID_7_" x="269.3" y="25.4" width="61.6" height="66"/>
							</defs>
							<clipPath id="SVGID_8_">
								<use xlink:href="#SVGID_7_"  overflow="visible"/>
							</clipPath>
						</g>
						<g>
							<g>
								<path fill="none" stroke="#505978" stroke-width="0.9959" stroke-miterlimit="10" d="M337.2,42.2l0.1-2.9
									c-1.3,0-2.3-0.8-2.7-2v-1.9c0.4-1.2,1.5-2,2.7-2l0-2.5c-1.2,0-2.3-0.8-2.7-1.9V27c0.4-1.1,1.5-1.9,2.7-1.9l0-2.6h-2.7v-3
									l-3,0c0,1.6-1.3,2.9-2.8,2.9c-1.6,0-2.8-1.3-2.8-2.9l-2.4,0c0,1.6-1.3,2.9-2.8,2.9c-1.6,0-2.8-1.3-2.8-2.9l-2.8-0.1
									c0,1.6-1.3,2.9-2.8,2.9c-1.6,0-2.8-1.3-2.8-2.9l-2.4,0.1c0,1.6-1.3,2.9-2.8,2.9c-1.6,0-2.8-1.3-2.8-2.9l-3.2,0
									c0,1.6-1.3,2.9-2.8,2.9c-1.6,0-2.8-1.3-2.8-2.9l-2.4-0.1c0,1.6-1.3,2.9-2.8,2.9c-1.6,0-2.8-1.3-2.8-2.9l-2.8-0.1
									c0,1.6-1.3,2.9-2.8,2.9c-1.5,0-2.8-1.3-2.8-2.9l-2.4,0c0,1.6-1.3,2.9-2.8,2.9c-1.6,0-2.8-1.3-2.8-2.9l-2.5,0v3.1h-2.7l0,2.6
									c1.2,0,2.3,0.8,2.7,1.9V29c-0.4,1.1-1.5,1.9-2.7,1.9l0,2.5c1.3,0,2.3,0.8,2.7,2v1.9c-0.4,1.2-1.5,2-2.7,2l0.1,2.9
									c1.2,0,2.2,0.7,2.6,1.7v2.4c-0.5,1-1.5,1.7-2.6,1.7l0.1,2.5c1.1,0,2.1,0.7,2.6,1.6v2.6c-0.5,1-1.5,1.6-2.6,1.6l0,3.3
									c1.2,0,2.2,0.7,2.6,1.7V64c-0.5,1-1.5,1.7-2.6,1.7l-0.1,2.5c1.2,0,2.2,0.7,2.7,1.8v2.3c-0.4,1.1-1.5,1.8-2.7,1.8l0.1,2.9
									c1.1,0,2.1,0.6,2.6,1.6v2.7c-0.5,0.9-1.4,1.6-2.6,1.6l0,2.5c1.1,0,2,0.6,2.5,1.5v2.8c-0.5,0.9-1.4,1.5-2.5,1.5l0,3.2h2.6
									v3.1l2.5,0c0-1.6,1.3-2.9,2.8-2.9c1.6,0,2.8,1.3,2.8,2.9l2.4,0c0-1.6,1.3-2.9,2.8-2.9c1.6,0,2.8,1.3,2.8,2.9l2.8-0.1
									c0-1.6,1.3-2.9,2.8-2.9c1.6,0,2.8,1.3,2.8,2.9l2.4-0.1c0-1.6,1.3-2.9,2.8-2.9c1.6,0,2.8,1.3,2.8,2.9l3.2,0
									c0-1.6,1.3-2.9,2.8-2.9c1.6,0,2.8,1.3,2.8,2.9l2.4,0.1c0-1.6,1.3-2.9,2.8-2.9c1.6,0,2.8,1.3,2.8,2.9l2.8-0.1
									c0-1.6,1.3-2.9,2.8-2.9c1.6,0,2.8,1.3,2.8,2.9l2.4,0c0-1.6,1.3-2.9,2.8-2.9c1.6,0,2.8,1.3,2.8,2.9l3,0v-3h2.6l0-3.2
									c-1.1,0-2-0.6-2.5-1.5v-2.8c0.5-0.9,1.4-1.5,2.5-1.5l0-2.5c-1.1,0-2.1-0.6-2.6-1.6v-2.7c0.5-0.9,1.4-1.6,2.6-1.6l0.1-2.9
									c-1.2,0-2.2-0.7-2.7-1.8v-2.3c0.4-1.1,1.5-1.8,2.7-1.8l-0.1-2.5c-1.2,0-2.2-0.7-2.6-1.7v-2.5c0.5-1,1.5-1.7,2.6-1.7l0-3.3
									c-1.1,0-2.1-0.7-2.6-1.6v-2.6c0.5-1,1.5-1.6,2.6-1.6l0.1-2.5c-1.2,0-2.2-0.7-2.6-1.7V44C335,43,336,42.2,337.2,42.2z"/>
								
									<rect x="269.3" y="25.4" fill="#F79C83" stroke="#505978" stroke-width="1.9919" stroke-miterlimit="10" width="61.6" height="66"/>
							</g>
						</g>
					</g>
					<g>
						<g>
							<defs>
								<polygon id="SVGID_9_" points="346.2,91.4 258.3,91.4 258.3,-2.7 325.2,-2.7 346.2,-2.7 								"/>
							</defs>
							<clipPath id="SVGID_10_">
								<use xlink:href="#SVGID_9_"  overflow="visible"/>
							</clipPath>
							<g clip-path="url(#SVGID_10_)">
								<path fill="#F6DAD4" stroke="#505978" stroke-width="2.5377" stroke-miterlimit="10" d="M322.9,92.3c0,3.2-4.1,5.9-9.3,5.9
									l0,0c-5.1,0-9.3-2.6-9.3-5.9V25.5c0-3.2,4.1-5.9,9.3-5.9l0,0c5.1,0,9.3,2.6,9.3,5.9V92.3z"/>
								<path fill="#F6DAD4" stroke="#505978" stroke-width="2.4571" stroke-miterlimit="10" d="M295.6,92.3c0,3.2-4,5.9-8.9,5.9
									l0,0c-4.9,0-8.9-2.6-8.9-5.9V25.5c0-3.2,4-5.9,8.9-5.9l0,0c4.9,0,8.9,2.6,8.9,5.9V92.3z"/>
								
									<polygon fill="#E889B8" stroke="#505978" stroke-width="2.3278" stroke-linecap="round" stroke-linejoin="round" stroke-miterlimit="10" points="
									262.7,52.3 268.9,-5.6 301.1,-5.5 329.6,-2.7 338,51.8 								"/>
								
									<line fill="none" stroke="#505978" stroke-width="2.509" stroke-miterlimit="10" x1="264.4" y1="47.3" x2="336.9" y2="47.3"/>
							</g>
						</g>
					</g>
					<g>
						
							<line fill="none" stroke="#505978" stroke-width="1.7338" stroke-linecap="round" stroke-miterlimit="10" x1="287.2" y1="59.4" x2="287.7" y2="56.4"/>
						
							<line fill="none" stroke="#505978" stroke-width="1.7338" stroke-linecap="round" stroke-miterlimit="10" x1="282.8" y1="75.7" x2="282.8" y2="72.6"/>
						
							<line fill="none" stroke="#505978" stroke-width="1.7338" stroke-linecap="round" stroke-miterlimit="10" x1="284.1" y1="63.2" x2="282.9" y2="60.4"/>
						
							<line fill="none" stroke="#505978" stroke-width="1.7338" stroke-linecap="round" stroke-miterlimit="10" x1="289" y1="82.7" x2="287.5" y2="80"/>
						
							<line fill="none" stroke="#505978" stroke-width="1.7338" stroke-linecap="round" stroke-miterlimit="10" x1="284.9" y1="86.8" x2="283.5" y2="84"/>
						
							<line fill="none" stroke="#505978" stroke-width="1.7338" stroke-linecap="round" stroke-miterlimit="10" x1="289" y1="69.1" x2="287.6" y2="66.3"/>
					</g>
					<g>
						
							<line fill="none" stroke="#505978" stroke-width="1.7338" stroke-linecap="round" stroke-miterlimit="10" x1="313.2" y1="59.2" x2="312.6" y2="56.2"/>
						
							<line fill="none" stroke="#505978" stroke-width="1.7338" stroke-linecap="round" stroke-miterlimit="10" x1="317.5" y1="75.5" x2="317.5" y2="72.4"/>
						
							<line fill="none" stroke="#505978" stroke-width="1.7338" stroke-linecap="round" stroke-miterlimit="10" x1="316.2" y1="63" x2="317.4" y2="60.2"/>
						
							<line fill="none" stroke="#505978" stroke-width="1.7338" stroke-linecap="round" stroke-miterlimit="10" x1="311.4" y1="82.5" x2="312.9" y2="79.8"/>
						
							<line fill="none" stroke="#505978" stroke-width="1.7338" stroke-linecap="round" stroke-miterlimit="10" x1="315.5" y1="86.6" x2="316.8" y2="83.8"/>
						
							<line fill="none" stroke="#505978" stroke-width="1.7338" stroke-linecap="round" stroke-miterlimit="10" x1="311.4" y1="68.9" x2="312.8" y2="66.1"/>
					</g>
				</g>
			</g>
			<g>
				<path fill="#505978" d="M287.6,32.3h3.8c0.2,0,0.2,0.3,0,0.3h-3.9c-0.1,0-0.2-0.1-0.2-0.2v-5.1c0-0.1,0.1-0.2,0.2-0.2h3.9
					c0.2,0,0.2,0.3,0,0.3h-3.8v2.4h3.7c0.2,0,0.2,0.3,0,0.3h-3.7V32.3z"/>
				<path fill="#505978" d="M292.3,28.3c-0.1-0.2,0.2-0.3,0.3-0.1l2,3.9l2-3.9c0.1-0.2,0.3-0.1,0.3,0.1l-2.1,4.2
					c-0.1,0.1-0.2,0.1-0.3,0L292.3,28.3z"/>
				<path fill="#505978" d="M301.8,30.4c0,0.1,0,0.3-0.3,0.3h-3.9c0,0.4,0.2,0.7,0.4,1c0.4,0.4,0.9,0.7,1.5,0.7c0.5,0,1-0.1,1.4-0.4
					c0.2-0.1,0.4,0.1,0.2,0.2c-0.4,0.4-1,0.5-1.5,0.5c-0.7,0-1.3-0.3-1.7-0.8c-0.4-0.5-0.6-1-0.5-1.7c0-0.9,0.7-1.8,1.6-2
					c0.4-0.1,0.9-0.1,1.3,0C301.2,28.5,301.8,29.3,301.8,30.4z M297.7,30.4h3.9c0-1-0.5-1.7-1.4-1.9c-0.3-0.1-0.8-0.1-1.1,0
					C298.2,28.7,297.7,29.5,297.7,30.4z"/>
				<path fill="#505978" d="M303.3,29.3c0.2-0.7,0.9-1.1,1.6-1.1c0.1,0,0.2,0.1,0.2,0.1s-0.1,0.1-0.2,0.1c-1.1,0-1.6,0.9-1.6,2v2
					c0,0.1-0.1,0.2-0.1,0.2c-0.1,0-0.2-0.1-0.2-0.2v-4.1c0-0.1,0.1-0.1,0.2-0.1c0.1,0,0.1,0.1,0.1,0.1V29.3z"/>
				<path fill="#505978" d="M305.4,28.4c0-0.2,0.2-0.3,0.3-0.1l2,3.9l1.9-3.9c0.1-0.2,0.4-0.1,0.3,0.1l-2.9,5.8
					c-0.1,0.2-0.4,0.1-0.3-0.1l0.8-1.6L305.4,28.4z"/>
				<path fill="#505978" d="M313.2,32.4l0.8,0h2.7c0.2,0,0.2,0.3,0,0.3h-3.7c-0.1,0-0.1-0.1-0.2-0.1c0-0.1,0-0.1,0.1-0.2
					c0.9-0.7,1.9-1.4,2.8-2c0.5-0.4,0.8-0.9,0.7-1.6c-0.1-0.9-0.8-1.3-1.6-1.3c-0.8,0-1.5,0.4-1.6,1.3c0,0.1,0,0.2,0,0.2
					c0,0.1-0.3,0.1-0.3,0c0-0.1,0-0.2,0-0.3c0.1-1,0.9-1.5,1.9-1.5c0.9,0,1.7,0.5,1.9,1.5c0.1,0.8-0.2,1.4-0.8,1.8l-2.1,1.5
					L313.2,32.4z"/>
				<path fill="#505978" d="M291,39.6c0.1-0.1,0.3-0.1,0.3,0.1v5.2c0,0.2-0.3,0.2-0.3,0v-4.8l-2.2,3.5c-0.1,0.1-0.2,0.1-0.3,0
					l-2.2-3.5v4.8c0,0.2-0.3,0.2-0.3,0v-5.2c0-0.2,0.2-0.2,0.3-0.1l2.4,3.8L291,39.6z"/>
				<path fill="#505978" d="M293,44.4c-0.4-0.5-0.6-1-0.5-1.7c0.1-0.9,0.7-1.8,1.6-2c0.4-0.1,0.9-0.1,1.3,0c0.9,0.3,1.5,1.1,1.6,2
					c0,0.7-0.1,1.2-0.5,1.7c-0.4,0.5-1,0.8-1.7,0.8C294,45.1,293.4,44.9,293,44.4z M294.2,41c-1.3,0.4-1.8,2.2-0.9,3.2
					c0.4,0.4,0.9,0.7,1.5,0.7c0.6,0,1.1-0.2,1.5-0.7c0.9-1.1,0.4-2.9-0.9-3.2C294.9,40.9,294.5,40.9,294.2,41z"/>
				<path fill="#505978" d="M302,42.5c0-1.1-1-1.8-2.1-1.6c-0.9,0.2-1.5,1.1-1.5,2V45c0,0.1-0.1,0.2-0.1,0.2s-0.2-0.1-0.2-0.2v-4.2
					c0-0.1,0.1-0.1,0.2-0.1s0.1,0.1,0.1,0.2V42c0.2-0.7,0.8-1.2,1.4-1.4c1.2-0.3,2.5,0.4,2.5,1.9V45c0,0.1-0.1,0.2-0.1,0.2
					c-0.1,0-0.2-0.1-0.2-0.2V42.5z"/>
				<path fill="#505978" d="M305.5,40.7c0.2,0,0.2,0.3,0,0.3h-1.2v2.7c0,0.6,0.1,1.3,0.9,1.3c0.2,0,0.4-0.1,0.5-0.1
					c0.2-0.1,0.3,0.1,0.1,0.3c-0.2,0.1-0.4,0.1-0.6,0.1c-1,0-1.2-0.7-1.2-1.5v-2.7h-0.8c-0.2,0-0.2-0.3,0-0.3h0.8v-1.1
					c0-0.2,0.3-0.2,0.3,0v1.1H305.5z"/>
				<path fill="#505978" d="M310.8,42.5c0-1.1-1.1-1.8-2.1-1.6c-0.9,0.2-1.5,1.1-1.5,2V45c0,0.1-0.1,0.2-0.1,0.2
					c-0.1,0-0.2-0.1-0.2-0.2v-5.4c0-0.2,0.3-0.2,0.3,0V42c0.2-0.7,0.8-1.2,1.4-1.4c1.2-0.3,2.5,0.4,2.5,1.9V45
					c0,0.1-0.1,0.2-0.1,0.2s-0.2-0.1-0.2-0.2V42.5z"/>
				<path fill="#505978" d="M312.4,44.1c0.1,0.5,0.9,0.8,1.7,0.8c0.5,0,1.6-0.2,1.6-1c0-1.5-3.6-0.1-3.6-2c0-0.8,1-1.3,1.8-1.3
					c0.7,0,1.6,0.1,1.9,0.9c0.1,0.2-0.2,0.3-0.3,0.1c-0.2-0.7-1.1-0.7-1.6-0.7c-0.6,0-1.5,0.3-1.5,1c0,1.5,3.6,0.1,3.6,2
					c0,1-1.2,1.3-1.9,1.3c-0.7,0-1.8-0.2-2-1C312.1,43.9,312.4,43.8,312.4,44.1z"/>
			</g>
		</g>
		<g>
			<g>
				<g>
					<g>
						<defs>
							<rect id="SVGID_11_" x="179" y="25.4" width="62.1" height="66"/>
						</defs>
						<clipPath id="SVGID_12_">
							<use xlink:href="#SVGID_11_"  overflow="visible"/>
						</clipPath>
					</g>
					<g>
						<g>
							<path fill="none" stroke="#505978" stroke-linecap="round" stroke-linejoin="round" stroke-miterlimit="10" d="M247.5,42.2
								l0.1-2.9c-1.3,0-2.4-0.8-2.8-2v-1.9c0.4-1.2,1.5-2,2.8-2l0-2.5c-1.2,0-2.3-0.8-2.7-1.9V27c0.4-1.1,1.5-1.9,2.7-1.9l0-2.6
								h-2.8v-3l-3,0c0,1.6-1.3,2.9-2.8,2.9c-1.6,0-2.8-1.3-2.8-2.9l-2.4,0c0,1.6-1.3,2.9-2.8,2.9c-1.6,0-2.8-1.3-2.8-2.9l-2.8-0.1
								c0,1.6-1.3,2.9-2.8,2.9c-1.6,0-2.8-1.3-2.8-2.9l-2.4,0.1c0,1.6-1.3,2.9-2.8,2.9c-1.6,0-2.8-1.3-2.8-2.9l-3.2,0
								c0,1.6-1.3,2.9-2.8,2.9c-1.6,0-2.8-1.3-2.8-2.9l-2.4-0.1c0,1.6-1.3,2.9-2.8,2.9c-1.6,0-2.8-1.3-2.8-2.9l-2.8-0.1
								c0,1.6-1.3,2.9-2.8,2.9c-1.6,0-2.8-1.3-2.8-2.9l-2.4,0c0,1.6-1.3,2.9-2.8,2.9c-1.6,0-2.8-1.3-2.8-2.9l-2.5,0v3.1h-2.8l0,2.6
								c1.2,0,2.3,0.8,2.7,1.9V29c-0.4,1.1-1.5,1.9-2.7,1.9l0,2.5c1.3,0,2.4,0.8,2.8,2v1.9c-0.4,1.2-1.5,2-2.8,2l0.1,2.9
								c1.2,0,2.2,0.7,2.7,1.7v2.4c-0.5,1-1.5,1.7-2.7,1.7l0.1,2.5c1.1,0,2.1,0.7,2.6,1.6v2.6c-0.5,1-1.5,1.6-2.6,1.6l0,3.3
								c1.2,0,2.2,0.7,2.6,1.7V64c-0.5,1-1.5,1.7-2.6,1.7l-0.1,2.5c1.2,0,2.3,0.7,2.7,1.8v2.3c-0.4,1.1-1.5,1.8-2.7,1.8l0.1,2.9
								c1.1,0,2.1,0.6,2.6,1.6v2.7c-0.5,0.9-1.5,1.6-2.6,1.6l0,2.5c1.1,0,2.1,0.6,2.6,1.5v2.8c-0.5,0.9-1.4,1.5-2.6,1.5l0,3.2h2.6
								v3.1l2.5,0c0-1.6,1.3-2.9,2.8-2.9c1.6,0,2.8,1.3,2.8,2.9l2.4,0c0-1.6,1.3-2.9,2.8-2.9c1.6,0,2.8,1.3,2.8,2.9l2.8-0.1
								c0-1.6,1.3-2.9,2.8-2.9c1.6,0,2.8,1.3,2.8,2.9l2.4-0.1c0-1.6,1.3-2.9,2.8-2.9c1.6,0,2.8,1.3,2.8,2.9l3.2,0
								c0-1.6,1.3-2.9,2.8-2.9c1.6,0,2.8,1.3,2.8,2.9l2.4,0.1c0-1.6,1.3-2.9,2.8-2.9c1.6,0,2.8,1.3,2.8,2.9l2.8-0.1
								c0-1.6,1.3-2.9,2.8-2.9c1.6,0,2.8,1.3,2.8,2.9l2.4,0c0-1.6,1.3-2.9,2.8-2.9c1.6,0,2.8,1.3,2.8,2.9l3,0v-3h2.6l0-3.2
								c-1.1,0-2.1-0.6-2.6-1.5v-2.8c0.5-0.9,1.5-1.5,2.6-1.5l0-2.5c-1.1,0-2.1-0.6-2.6-1.6v-2.7c0.5-0.9,1.5-1.6,2.6-1.6l0.1-2.9
								c-1.2,0-2.3-0.7-2.7-1.8v-2.3c0.4-1.1,1.5-1.8,2.7-1.8l-0.1-2.5c-1.2,0-2.2-0.7-2.6-1.7v-2.5c0.5-1,1.5-1.7,2.6-1.7l0-3.3
								c-1.1,0-2.1-0.7-2.6-1.6v-2.6c0.5-1,1.5-1.6,2.6-1.6l0.1-2.5c-1.2,0-2.2-0.7-2.7-1.7V44C245.3,43,246.3,42.2,247.5,42.2z"/>
							<rect x="179" y="25.4" fill="#F79C83" stroke="#505978" stroke-width="2" stroke-miterlimit="10" width="62.1" height="66"/>
						</g>
					</g>
				</g>
				<g>
					<defs>
						<rect id="SVGID_13_" x="179" y="25.4" width="62.1" height="66"/>
					</defs>
					<clipPath id="SVGID_14_">
						<use xlink:href="#SVGID_13_"  overflow="visible"/>
					</clipPath>
				</g>
			</g>
			<g>
				<defs>
					<rect id="SVGID_15_" x="179" y="25.4" width="62.1" height="66"/>
				</defs>
				<clipPath id="SVGID_16_">
					<use xlink:href="#SVGID_15_"  overflow="visible"/>
				</clipPath>
				<g clip-path="url(#SVGID_16_)">
					<g>
						<g>
							<defs>
								<rect id="SVGID_17_" x="179.4" y="25.4" width="61.6" height="66"/>
							</defs>
							<clipPath id="SVGID_18_">
								<use xlink:href="#SVGID_17_"  overflow="visible"/>
							</clipPath>
						</g>
						<g>
							<g>
								<path fill="none" stroke="#505978" stroke-width="0.9959" stroke-miterlimit="10" d="M247.3,42.2l0.1-2.9
									c-1.3,0-2.3-0.8-2.7-2v-1.9c0.4-1.2,1.5-2,2.7-2l0-2.5c-1.2,0-2.3-0.8-2.7-1.9V27c0.4-1.1,1.5-1.9,2.7-1.9l0-2.6h-2.7v-3
									l-3,0c0,1.6-1.3,2.9-2.8,2.9c-1.6,0-2.8-1.3-2.8-2.9l-2.4,0c0,1.6-1.3,2.9-2.8,2.9c-1.6,0-2.8-1.3-2.8-2.9l-2.8-0.1
									c0,1.6-1.3,2.9-2.8,2.9c-1.6,0-2.8-1.3-2.8-2.9l-2.4,0.1c0,1.6-1.3,2.9-2.8,2.9c-1.6,0-2.8-1.3-2.8-2.9l-3.2,0
									c0,1.6-1.3,2.9-2.8,2.9c-1.6,0-2.8-1.3-2.8-2.9l-2.4-0.1c0,1.6-1.3,2.9-2.8,2.9c-1.6,0-2.8-1.3-2.8-2.9l-2.8-0.1
									c0,1.6-1.3,2.9-2.8,2.9c-1.6,0-2.8-1.3-2.8-2.9l-2.4,0c0,1.6-1.3,2.9-2.8,2.9c-1.6,0-2.8-1.3-2.8-2.9l-2.5,0v3.1h-2.7l0,2.6
									c1.2,0,2.3,0.8,2.7,1.9V29c-0.4,1.1-1.5,1.9-2.7,1.9l0,2.5c1.3,0,2.3,0.8,2.7,2v1.9c-0.4,1.2-1.5,2-2.7,2l0.1,2.9
									c1.2,0,2.2,0.7,2.6,1.7v2.4c-0.5,1-1.5,1.7-2.6,1.7l0.1,2.5c1.1,0,2.1,0.7,2.6,1.6v2.6c-0.5,1-1.5,1.6-2.6,1.6l0,3.3
									c1.2,0,2.2,0.7,2.6,1.7V64c-0.5,1-1.5,1.7-2.6,1.7l-0.1,2.5c1.2,0,2.2,0.7,2.7,1.8v2.3c-0.4,1.1-1.5,1.8-2.7,1.8l0.1,2.9
									c1.1,0,2.1,0.6,2.6,1.6v2.7c-0.5,0.9-1.4,1.6-2.6,1.6l0,2.5c1.1,0,2,0.6,2.5,1.5v2.8c-0.5,0.9-1.4,1.5-2.5,1.5l0,3.2h2.6
									v3.1l2.5,0c0-1.6,1.3-2.9,2.8-2.9c1.6,0,2.8,1.3,2.8,2.9l2.4,0c0-1.6,1.3-2.9,2.8-2.9c1.6,0,2.8,1.3,2.8,2.9l2.8-0.1
									c0-1.6,1.3-2.9,2.8-2.9c1.6,0,2.8,1.3,2.8,2.9l2.4-0.1c0-1.6,1.3-2.9,2.8-2.9c1.6,0,2.8,1.3,2.8,2.9l3.2,0
									c0-1.6,1.3-2.9,2.8-2.9c1.6,0,2.8,1.3,2.8,2.9l2.4,0.1c0-1.6,1.3-2.9,2.8-2.9c1.6,0,2.8,1.3,2.8,2.9l2.8-0.1
									c0-1.6,1.3-2.9,2.8-2.9c1.6,0,2.8,1.3,2.8,2.9l2.4,0c0-1.6,1.3-2.9,2.8-2.9c1.6,0,2.8,1.3,2.8,2.9l3,0v-3h2.6l0-3.2
									c-1.1,0-2-0.6-2.5-1.5v-2.8c0.5-0.9,1.4-1.5,2.5-1.5l0-2.5c-1.1,0-2.1-0.6-2.6-1.6v-2.7c0.5-0.9,1.4-1.6,2.6-1.6l0.1-2.9
									c-1.2,0-2.2-0.7-2.7-1.8v-2.3c0.4-1.1,1.5-1.8,2.7-1.8l-0.1-2.5c-1.2,0-2.2-0.7-2.6-1.7v-2.5c0.5-1,1.5-1.7,2.6-1.7l0-3.3
									c-1.1,0-2.1-0.7-2.6-1.6v-2.6c0.5-1,1.5-1.6,2.6-1.6l0.1-2.5c-1.2,0-2.2-0.7-2.6-1.7V44C245.1,43,246.1,42.2,247.3,42.2z"/>
								
									<rect x="179.4" y="25.4" fill="#F79C83" stroke="#505978" stroke-width="1.9919" stroke-miterlimit="10" width="61.6" height="66"/>
							</g>
						</g>
					</g>
					<g>
						<g>
							<defs>
								<polygon id="SVGID_19_" points="256.4,91.4 168.5,91.4 168.5,-2.7 235.4,-2.7 256.4,-2.7 								"/>
							</defs>
							<clipPath id="SVGID_20_">
								<use xlink:href="#SVGID_19_"  overflow="visible"/>
							</clipPath>
							<g clip-path="url(#SVGID_20_)">
								<path fill="#F6DAD4" stroke="#505978" stroke-width="2.5377" stroke-miterlimit="10" d="M233.1,92.3c0,3.2-4.1,5.9-9.3,5.9
									l0,0c-5.1,0-9.3-2.6-9.3-5.9V25.5c0-3.2,4.1-5.9,9.3-5.9l0,0c5.1,0,9.3,2.6,9.3,5.9V92.3z"/>
								<path fill="#F6DAD4" stroke="#505978" stroke-width="2.4571" stroke-miterlimit="10" d="M205.7,92.3c0,3.2-4,5.9-8.9,5.9
									l0,0c-4.9,0-8.9-2.6-8.9-5.9V25.5c0-3.2,4-5.9,8.9-5.9l0,0c4.9,0,8.9,2.6,8.9,5.9V92.3z"/>
								
									<polygon fill="#E889B8" stroke="#505978" stroke-width="2.3278" stroke-linecap="round" stroke-linejoin="round" stroke-miterlimit="10" points="
									172.9,52.3 179,-5.6 211.2,-5.5 239.8,-2.7 248.1,51.8 								"/>
								
									<line fill="none" stroke="#505978" stroke-width="2.509" stroke-miterlimit="10" x1="174.6" y1="47.3" x2="247.1" y2="47.3"/>
							</g>
						</g>
					</g>
				</g>
			</g>
			<g>
				<path fill="#505978" d="M201.4,32.3h3.8c0.2,0,0.2,0.3,0,0.3h-3.9c-0.1,0-0.2-0.1-0.2-0.2v-5.1c0-0.1,0.1-0.2,0.2-0.2h3.9
					c0.2,0,0.2,0.3,0,0.3h-3.8v2.4h3.7c0.2,0,0.2,0.3,0,0.3h-3.7V32.3z"/>
				<path fill="#505978" d="M206.1,28.3c-0.1-0.2,0.2-0.3,0.3-0.1l2,3.9l2-3.9c0.1-0.2,0.3-0.1,0.3,0.1l-2.1,4.2
					c-0.1,0.1-0.2,0.1-0.3,0L206.1,28.3z"/>
				<path fill="#505978" d="M215.6,30.4c0,0.1,0,0.3-0.3,0.3h-3.9c0,0.4,0.2,0.7,0.4,1c0.4,0.4,0.9,0.7,1.5,0.7c0.5,0,1-0.1,1.4-0.4
					c0.2-0.1,0.4,0.1,0.2,0.2c-0.4,0.4-1,0.5-1.5,0.5c-0.7,0-1.3-0.3-1.7-0.8c-0.4-0.5-0.6-1-0.5-1.7c0-0.9,0.7-1.8,1.6-2
					c0.4-0.1,0.9-0.1,1.3,0C215,28.5,215.6,29.3,215.6,30.4z M211.5,30.4h3.9c0-1-0.5-1.7-1.4-1.9c-0.3-0.1-0.8-0.1-1.1,0
					C212,28.7,211.5,29.5,211.5,30.4z"/>
				<path fill="#505978" d="M217.1,29.3c0.2-0.7,0.8-1.1,1.6-1.1c0.1,0,0.2,0.1,0.2,0.1s-0.1,0.1-0.2,0.1c-1.1,0-1.6,0.9-1.6,2v2
					c0,0.1-0.1,0.2-0.1,0.2c-0.1,0-0.2-0.1-0.2-0.2v-4.1c0-0.1,0.1-0.1,0.2-0.1c0.1,0,0.1,0.1,0.1,0.1V29.3z"/>
				<path fill="#505978" d="M219.2,28.4c0-0.2,0.2-0.3,0.3-0.1l2,3.9l1.9-3.9c0.1-0.2,0.4-0.1,0.3,0.1l-2.9,5.8
					c-0.1,0.2-0.4,0.1-0.3-0.1l0.8-1.6L219.2,28.4z"/>
				<path fill="#505978" d="M203.4,39.6c0.1-0.1,0.3-0.1,0.3,0.1v5.2c0,0.2-0.3,0.2-0.3,0v-4.8l-2.2,3.5c-0.1,0.1-0.2,0.1-0.3,0
					l-2.2-3.5v4.8c0,0.2-0.3,0.2-0.3,0v-5.2c0-0.2,0.2-0.2,0.3-0.1l2.4,3.8L203.4,39.6z"/>
				<path fill="#505978" d="M205.4,44.4c-0.4-0.5-0.6-1-0.5-1.7c0.1-0.9,0.7-1.8,1.6-2c0.4-0.1,0.9-0.1,1.3,0c0.9,0.3,1.5,1.1,1.6,2
					c0,0.7-0.1,1.2-0.5,1.7c-0.4,0.5-1,0.8-1.7,0.8C206.5,45.1,205.9,44.9,205.4,44.4z M206.6,41c-1.3,0.4-1.8,2.2-0.9,3.2
					c0.4,0.4,0.9,0.7,1.5,0.7c0.6,0,1.1-0.2,1.5-0.7c0.9-1.1,0.4-2.9-0.9-3.2C207.4,40.9,207,40.9,206.6,41z"/>
				<path fill="#505978" d="M214.5,42.5c0-1.1-1-1.8-2.1-1.6c-0.9,0.2-1.5,1.1-1.5,2V45c0,0.1-0.1,0.2-0.1,0.2s-0.2-0.1-0.2-0.2
					v-4.2c0-0.1,0.1-0.1,0.2-0.1s0.1,0.1,0.1,0.2V42c0.2-0.7,0.8-1.2,1.4-1.4c1.2-0.3,2.5,0.4,2.5,1.9V45c0,0.1-0.1,0.2-0.1,0.2
					c-0.1,0-0.2-0.1-0.2-0.2V42.5z"/>
				<path fill="#505978" d="M218,40.7c0.2,0,0.2,0.3,0,0.3h-1.2v2.7c0,0.6,0.1,1.3,0.9,1.3c0.2,0,0.4-0.1,0.5-0.1
					c0.2-0.1,0.3,0.1,0.1,0.3c-0.2,0.1-0.4,0.1-0.6,0.1c-1,0-1.2-0.7-1.2-1.5v-2.7h-0.8c-0.2,0-0.2-0.3,0-0.3h0.8v-1.1
					c0-0.2,0.3-0.2,0.3,0v1.1H218z"/>
				<path fill="#505978" d="M223.3,42.5c0-1.1-1.1-1.8-2.1-1.6c-0.9,0.2-1.5,1.1-1.5,2V45c0,0.1-0.1,0.2-0.1,0.2s-0.2-0.1-0.2-0.2
					v-5.4c0-0.2,0.3-0.2,0.3,0V42c0.2-0.7,0.8-1.2,1.4-1.4c1.2-0.3,2.5,0.4,2.5,1.9V45c0,0.1-0.1,0.2-0.1,0.2
					c-0.1,0-0.2-0.1-0.2-0.2V42.5z"/>
			</g>
		</g>
	</g>
	<g>
		<rect x="174.3" y="108.4" fill="none" width="163.1" height="43.5"/>
		<text transform="matrix(1 0 0 1 176.3208 114.2705)"><tspan x="0" y="0" fill="#939598" font-family="'Hero-Light'" font-size="9">Choose your delivery cycle, between </tspan><tspan x="2.7" y="10.8" fill="#939598" font-family="'Hero-Light'" font-size="9">every month or every two months.</tspan></text>
	</g>
</g>
</svg>
