<?xml version="1.0" encoding="utf-8"?>
<!-- Generator: Adobe Illustrator 18.1.1, SVG Export Plug-In . SVG Version: 6.00 Build 0)  -->
<svg version="1.1" id="Layer_1" xmlns="http://www.w3.org/2000/svg" xmlns:xlink="http://www.w3.org/1999/xlink" x="0px" y="0px"
	 viewBox="0 0 510 171.2" enable-background="new 0 0 510 171.2" xml:space="preserve">
<g>
	<g>
		<g>
			<g>
				<g>
					<g>
						<g>
							<g>
								<defs>
									<polygon id="SVGID_1_" points="166.5,36 164.8,31.6 154.2,40.1 158.2,42.8 190.1,82.2 191.8,86.6 202.4,78.1 198.4,75.4 
																			"/>
								</defs>
								<clipPath id="SVGID_2_">
									<use xlink:href="#SVGID_1_"  overflow="visible"/>
								</clipPath>
								<g clip-path="url(#SVGID_2_)">
									<g>
										<path fill="#88CA90" d="M170.9,31.1c0.2,0.3,0.6,0.3,0.8,0.1c0.3-0.2,0.3-0.6,0.1-0.9c-0.2-0.3-0.6-0.3-0.9-0.1
											C170.7,30.4,170.7,30.8,170.9,31.1"/>
										<path fill="#88CA90" d="M170.9,31.1c0.2,0.3,0.6,0.3,0.8,0.1c0.3-0.2,0.3-0.6,0.1-0.9c-0.2-0.3-0.6-0.3-0.9-0.1
											C170.7,30.4,170.7,30.8,170.9,31.1z"/>
										<path fill="#88CA90" d="M167.5,33.8c0.2,0.3,0.6,0.3,0.8,0.1c0.3-0.2,0.3-0.6,0.1-0.9c-0.2-0.3-0.6-0.3-0.9-0.1
											C167.3,33.2,167.3,33.6,167.5,33.8"/>
										<path fill="#88CA90" d="M167.5,33.8c0.2,0.3,0.6,0.3,0.8,0.1c0.3-0.2,0.3-0.6,0.1-0.9c-0.2-0.3-0.6-0.3-0.9-0.1
											C167.3,33.2,167.3,33.6,167.5,33.8z"/>
										<path fill="#88CA90" d="M164.1,36.6c0.2,0.3,0.6,0.3,0.9,0.1c0.3-0.2,0.3-0.6,0.1-0.9c-0.2-0.3-0.6-0.3-0.9-0.1
											C163.9,35.9,163.9,36.3,164.1,36.6"/>
										<path fill="#88CA90" d="M164.1,36.6c0.2,0.3,0.6,0.3,0.9,0.1c0.3-0.2,0.3-0.6,0.1-0.9c-0.2-0.3-0.6-0.3-0.9-0.1
											C163.9,35.9,163.9,36.3,164.1,36.6z"/>
										<path fill="#88CA90" d="M160.7,39.3c0.2,0.3,0.6,0.3,0.9,0.1c0.3-0.2,0.3-0.6,0.1-0.9c-0.2-0.3-0.6-0.3-0.8-0.1
											C160.6,38.7,160.5,39.1,160.7,39.3"/>
										<circle fill="#88CA90" cx="161.2" cy="39" r="0.6"/>
										<path fill="#88CA90" d="M157.3,42.1c0.2,0.3,0.6,0.3,0.9,0.1c0.3-0.2,0.3-0.6,0.1-0.9c-0.2-0.3-0.6-0.3-0.9-0.1
											C157.2,41.5,157.1,41.9,157.3,42.1"/>
										<circle fill="#88CA90" cx="157.8" cy="41.7" r="0.6"/>
										<path fill="#88CA90" d="M153.9,44.9c0.2,0.3,0.6,0.3,0.9,0.1c0.3-0.2,0.3-0.6,0.1-0.9c-0.2-0.3-0.6-0.3-0.9-0.1
											C153.8,44.2,153.7,44.6,153.9,44.9"/>
										<path fill="#88CA90" d="M153.9,44.9c0.2,0.3,0.6,0.3,0.9,0.1c0.3-0.2,0.3-0.6,0.1-0.9c-0.2-0.3-0.6-0.3-0.9-0.1
											C153.8,44.2,153.7,44.6,153.9,44.9z"/>
										<path fill="#88CA90" d="M170.6,34.3c0.2,0.3,0.6,0.3,0.9,0.1c0.3-0.2,0.3-0.6,0.1-0.9c-0.2-0.3-0.6-0.3-0.8-0.1
											C170.4,33.6,170.4,34,170.6,34.3"/>
										<path fill="#88CA90" d="M170.6,34.3c0.2,0.3,0.6,0.3,0.9,0.1c0.3-0.2,0.3-0.6,0.1-0.9c-0.2-0.3-0.6-0.3-0.8-0.1
											C170.4,33.6,170.4,34,170.6,34.3z"/>
										<path fill="#88CA90" d="M167.2,37c0.2,0.3,0.6,0.3,0.9,0.1c0.3-0.2,0.3-0.6,0.1-0.9c-0.2-0.3-0.6-0.3-0.9-0.1
											C167,36.4,167,36.8,167.2,37"/>
										<path fill="#88CA90" d="M167.2,37c0.2,0.3,0.6,0.3,0.9,0.1c0.3-0.2,0.3-0.6,0.1-0.9c-0.2-0.3-0.6-0.3-0.9-0.1
											C167,36.4,167,36.8,167.2,37z"/>
										<path fill="#88CA90" d="M163.8,39.8c0.2,0.3,0.6,0.3,0.9,0.1c0.3-0.2,0.3-0.6,0.1-0.9c-0.2-0.3-0.6-0.3-0.8-0.1
											C163.6,39.2,163.6,39.5,163.8,39.8"/>
										<path fill="#88CA90" d="M163.8,39.8c0.2,0.3,0.6,0.3,0.9,0.1c0.3-0.2,0.3-0.6,0.1-0.9c-0.2-0.3-0.6-0.3-0.8-0.1
											C163.6,39.2,163.6,39.5,163.8,39.8z"/>
										<path fill="#88CA90" d="M160.4,42.6c0.2,0.3,0.6,0.3,0.9,0.1c0.3-0.2,0.3-0.6,0.1-0.9c-0.2-0.3-0.6-0.3-0.8-0.1
											C160.2,41.9,160.2,42.3,160.4,42.6"/>
										<path fill="#88CA90" d="M160.4,42.6c0.2,0.3,0.6,0.3,0.9,0.1c0.3-0.2,0.3-0.6,0.1-0.9c-0.2-0.3-0.6-0.3-0.8-0.1
											C160.2,41.9,160.2,42.3,160.4,42.6z"/>
										<path fill="#88CA90" d="M157,45.3c0.2,0.3,0.6,0.3,0.9,0.1c0.3-0.2,0.3-0.6,0.1-0.9c-0.2-0.3-0.6-0.3-0.9-0.1
											C156.8,44.7,156.8,45.1,157,45.3"/>
										<path fill="#88CA90" d="M157,45.3c0.2,0.3,0.6,0.3,0.9,0.1c0.3-0.2,0.3-0.6,0.1-0.9c-0.2-0.3-0.6-0.3-0.9-0.1
											C156.8,44.7,156.8,45.1,157,45.3z"/>
										<path fill="#88CA90" d="M153.6,48.1c0.2,0.3,0.6,0.3,0.9,0.1c0.3-0.2,0.3-0.6,0.1-0.9c-0.2-0.3-0.6-0.3-0.9-0.1
											C153.5,47.4,153.4,47.8,153.6,48.1"/>
										<path fill="#88CA90" d="M153.6,48.1c0.2,0.3,0.6,0.3,0.9,0.1c0.3-0.2,0.3-0.6,0.1-0.9c-0.2-0.3-0.6-0.3-0.9-0.1
											C153.5,47.4,153.4,47.8,153.6,48.1z"/>
										<path fill="#88CA90" d="M173.8,34.6c0.2,0.3,0.6,0.3,0.9,0.1c0.3-0.2,0.3-0.6,0.1-0.9c-0.2-0.3-0.6-0.3-0.8-0.1
											C173.6,34,173.6,34.4,173.8,34.6"/>
										<path fill="#88CA90" d="M173.8,34.6c0.2,0.3,0.6,0.3,0.9,0.1c0.3-0.2,0.3-0.6,0.1-0.9c-0.2-0.3-0.6-0.3-0.8-0.1
											C173.6,34,173.6,34.4,173.8,34.6z"/>
										<path fill="#88CA90" d="M170.4,37.4c0.2,0.3,0.6,0.3,0.8,0.1c0.3-0.2,0.3-0.6,0.1-0.9c-0.2-0.3-0.6-0.3-0.8-0.1
											C170.2,36.7,170.2,37.1,170.4,37.4"/>
										<path fill="#88CA90" d="M170.4,37.4c0.2,0.3,0.6,0.3,0.8,0.1c0.3-0.2,0.3-0.6,0.1-0.9c-0.2-0.3-0.6-0.3-0.8-0.1
											C170.2,36.7,170.2,37.1,170.4,37.4z"/>
										<path fill="#88CA90" d="M167,40.1c0.2,0.3,0.6,0.3,0.8,0.1c0.3-0.2,0.3-0.6,0.1-0.9c-0.2-0.3-0.6-0.3-0.8-0.1
											C166.8,39.5,166.8,39.9,167,40.1"/>
										<path fill="#88CA90" d="M167,40.1c0.2,0.3,0.6,0.3,0.8,0.1c0.3-0.2,0.3-0.6,0.1-0.9c-0.2-0.3-0.6-0.3-0.8-0.1
											C166.8,39.5,166.8,39.9,167,40.1z"/>
										<path fill="#88CA90" d="M163.6,42.9c0.2,0.3,0.6,0.3,0.9,0.1c0.3-0.2,0.3-0.6,0.1-0.8c-0.2-0.3-0.6-0.3-0.8-0.1
											C163.4,42.3,163.4,42.6,163.6,42.9"/>
										<path fill="#88CA90" d="M163.6,42.9c0.2,0.3,0.6,0.3,0.9,0.1c0.3-0.2,0.3-0.6,0.1-0.8c-0.2-0.3-0.6-0.3-0.8-0.1
											C163.4,42.3,163.4,42.6,163.6,42.9z"/>
										<path fill="#88CA90" d="M160.2,45.7c0.2,0.3,0.6,0.3,0.9,0.1c0.3-0.2,0.3-0.6,0.1-0.9c-0.2-0.3-0.6-0.3-0.8-0.1
											C160,45,160,45.4,160.2,45.7"/>
										<path fill="#88CA90" d="M160.2,45.7c0.2,0.3,0.6,0.3,0.9,0.1c0.3-0.2,0.3-0.6,0.1-0.9c-0.2-0.3-0.6-0.3-0.8-0.1
											C160,45,160,45.4,160.2,45.7z"/>
										<path fill="#88CA90" d="M156.8,48.4c0.2,0.3,0.6,0.3,0.9,0.1c0.3-0.2,0.3-0.6,0.1-0.8c-0.2-0.3-0.6-0.3-0.8-0.1
											C156.7,47.8,156.6,48.2,156.8,48.4"/>
										<path fill="#88CA90" d="M156.8,48.4c0.2,0.3,0.6,0.3,0.9,0.1c0.3-0.2,0.3-0.6,0.1-0.8c-0.2-0.3-0.6-0.3-0.8-0.1
											C156.7,47.8,156.6,48.2,156.8,48.4z"/>
										<path fill="#88CA90" d="M173.5,37.8c0.2,0.3,0.6,0.3,0.9,0.1c0.3-0.2,0.3-0.6,0.1-0.9c-0.2-0.3-0.6-0.3-0.8-0.1
											C173.3,37.2,173.3,37.6,173.5,37.8"/>
										<path fill="#88CA90" d="M173.5,37.8c0.2,0.3,0.6,0.3,0.9,0.1c0.3-0.2,0.3-0.6,0.1-0.9c-0.2-0.3-0.6-0.3-0.8-0.1
											C173.3,37.2,173.3,37.6,173.5,37.8z"/>
										<path fill="#88CA90" d="M170.1,40.6c0.2,0.3,0.6,0.3,0.9,0.1c0.3-0.2,0.3-0.6,0.1-0.9c-0.2-0.3-0.6-0.3-0.9-0.1
											C169.9,39.9,169.9,40.3,170.1,40.6"/>
										<path fill="#88CA90" d="M170.1,40.6c0.2,0.3,0.6,0.3,0.9,0.1c0.3-0.2,0.3-0.6,0.1-0.9c-0.2-0.3-0.6-0.3-0.9-0.1
											C169.9,39.9,169.9,40.3,170.1,40.6z"/>
										<path fill="#88CA90" d="M166.7,43.3c0.2,0.3,0.6,0.3,0.9,0.1c0.3-0.2,0.3-0.6,0.1-0.9c-0.2-0.3-0.6-0.3-0.9-0.1
											C166.5,42.7,166.5,43.1,166.7,43.3"/>
										<path fill="#88CA90" d="M166.7,43.3c0.2,0.3,0.6,0.3,0.9,0.1c0.3-0.2,0.3-0.6,0.1-0.9c-0.2-0.3-0.6-0.3-0.9-0.1
											C166.5,42.7,166.5,43.1,166.7,43.3z"/>
										<path fill="#88CA90" d="M163.3,46.1c0.2,0.3,0.6,0.3,0.9,0.1c0.3-0.2,0.3-0.6,0.1-0.9c-0.2-0.3-0.6-0.3-0.9-0.1
											C163.1,45.5,163.1,45.8,163.3,46.1"/>
										<path fill="#88CA90" d="M163.3,46.1c0.2,0.3,0.6,0.3,0.9,0.1c0.3-0.2,0.3-0.6,0.1-0.9c-0.2-0.3-0.6-0.3-0.9-0.1
											C163.1,45.5,163.1,45.8,163.3,46.1z"/>
										<path fill="#88CA90" d="M159.9,48.9c0.2,0.3,0.6,0.3,0.9,0.1c0.3-0.2,0.3-0.6,0.1-0.9c-0.2-0.3-0.6-0.3-0.9-0.1
											C159.7,48.2,159.7,48.6,159.9,48.9"/>
										<path fill="#88CA90" d="M159.9,48.9c0.2,0.3,0.6,0.3,0.9,0.1c0.3-0.2,0.3-0.6,0.1-0.9c-0.2-0.3-0.6-0.3-0.9-0.1
											C159.7,48.2,159.7,48.6,159.9,48.9z"/>
										<path fill="#88CA90" d="M156.5,51.6c0.2,0.3,0.6,0.3,0.9,0.1c0.3-0.2,0.3-0.6,0.1-0.9c-0.2-0.3-0.6-0.3-0.9-0.1
											C156.3,51,156.3,51.4,156.5,51.6"/>
										<path fill="#88CA90" d="M156.5,51.6c0.2,0.3,0.6,0.3,0.9,0.1c0.3-0.2,0.3-0.6,0.1-0.9c-0.2-0.3-0.6-0.3-0.9-0.1
											C156.3,51,156.3,51.4,156.5,51.6z"/>
										<path fill="#88CA90" d="M176.7,38.2c0.2,0.3,0.6,0.3,0.9,0.1c0.3-0.2,0.3-0.6,0.1-0.9c-0.2-0.3-0.6-0.3-0.8-0.1
											C176.5,37.5,176.5,37.9,176.7,38.2"/>
										<path fill="#88CA90" d="M176.7,38.2c0.2,0.3,0.6,0.3,0.9,0.1c0.3-0.2,0.3-0.6,0.1-0.9c-0.2-0.3-0.6-0.3-0.8-0.1
											C176.5,37.5,176.5,37.9,176.7,38.2z"/>
										<path fill="#88CA90" d="M173.3,40.9c0.2,0.3,0.6,0.3,0.9,0.1c0.3-0.2,0.3-0.6,0.1-0.9c-0.2-0.3-0.6-0.3-0.8-0.1
											C173.1,40.3,173.1,40.7,173.3,40.9"/>
										<path fill="#88CA90" d="M173.3,40.9c0.2,0.3,0.6,0.3,0.9,0.1c0.3-0.2,0.3-0.6,0.1-0.9c-0.2-0.3-0.6-0.3-0.8-0.1
											C173.1,40.3,173.1,40.7,173.3,40.9z"/>
										<path fill="#88CA90" d="M169.9,43.7c0.2,0.3,0.6,0.3,0.9,0.1c0.3-0.2,0.3-0.6,0.1-0.9c-0.2-0.3-0.6-0.3-0.8-0.1
											C169.7,43,169.7,43.4,169.9,43.7"/>
										<path fill="#88CA90" d="M169.9,43.7c0.2,0.3,0.6,0.3,0.9,0.1c0.3-0.2,0.3-0.6,0.1-0.9c-0.2-0.3-0.6-0.3-0.8-0.1
											C169.7,43,169.7,43.4,169.9,43.7z"/>
										<path fill="#88CA90" d="M166.5,46.4c0.2,0.3,0.6,0.3,0.8,0.1c0.3-0.2,0.3-0.6,0.1-0.8c-0.2-0.3-0.6-0.3-0.8-0.1
											C166.3,45.8,166.3,46.2,166.5,46.4"/>
										<path fill="#88CA90" d="M166.5,46.4c0.2,0.3,0.6,0.3,0.8,0.1c0.3-0.2,0.3-0.6,0.1-0.8c-0.2-0.3-0.6-0.3-0.8-0.1
											C166.3,45.8,166.3,46.2,166.5,46.4z"/>
										<path fill="#88CA90" d="M163.1,49.2c0.2,0.3,0.6,0.3,0.8,0.1c0.3-0.2,0.3-0.6,0.1-0.8c-0.2-0.3-0.6-0.3-0.9-0.1
											C162.9,48.6,162.9,48.9,163.1,49.2"/>
										<path fill="#88CA90" d="M163.1,49.2c0.2,0.3,0.6,0.3,0.8,0.1c0.3-0.2,0.3-0.6,0.1-0.8c-0.2-0.3-0.6-0.3-0.9-0.1
											C162.9,48.6,162.9,48.9,163.1,49.2z"/>
										<path fill="#88CA90" d="M159.7,52c0.2,0.3,0.6,0.3,0.8,0.1c0.3-0.2,0.3-0.6,0.1-0.8c-0.2-0.3-0.6-0.3-0.9-0.1
											C159.5,51.3,159.5,51.7,159.7,52"/>
										<path fill="#88CA90" d="M159.7,52c0.2,0.3,0.6,0.3,0.8,0.1c0.3-0.2,0.3-0.6,0.1-0.8c-0.2-0.3-0.6-0.3-0.9-0.1
											C159.5,51.3,159.5,51.7,159.7,52z"/>
										<path fill="#88CA90" d="M176.4,41.4c0.2,0.3,0.6,0.3,0.9,0.1c0.3-0.2,0.3-0.6,0.1-0.9c-0.2-0.3-0.6-0.3-0.8-0.1
											C176.2,40.7,176.1,41.1,176.4,41.4"/>
										<path fill="#88CA90" d="M176.4,41.4c0.2,0.3,0.6,0.3,0.9,0.1c0.3-0.2,0.3-0.6,0.1-0.9c-0.2-0.3-0.6-0.3-0.8-0.1
											C176.2,40.7,176.1,41.1,176.4,41.4z"/>
										<path fill="#88CA90" d="M173,44.1c0.2,0.3,0.6,0.3,0.9,0.1c0.3-0.2,0.3-0.6,0.1-0.9c-0.2-0.3-0.6-0.3-0.8-0.1
											C172.8,43.5,172.8,43.9,173,44.1"/>
										<path fill="#88CA90" d="M173,44.1c0.2,0.3,0.6,0.3,0.9,0.1c0.3-0.2,0.3-0.6,0.1-0.9c-0.2-0.3-0.6-0.3-0.8-0.1
											C172.8,43.5,172.8,43.9,173,44.1z"/>
										<path fill="#88CA90" d="M169.6,46.9c0.2,0.3,0.6,0.3,0.9,0.1c0.3-0.2,0.3-0.6,0.1-0.9c-0.2-0.3-0.6-0.3-0.8-0.1
											C169.4,46.2,169.4,46.6,169.6,46.9"/>
										<path fill="#88CA90" d="M169.6,46.9c0.2,0.3,0.6,0.3,0.9,0.1c0.3-0.2,0.3-0.6,0.1-0.9c-0.2-0.3-0.6-0.3-0.8-0.1
											C169.4,46.2,169.4,46.6,169.6,46.9z"/>
										<path fill="#88CA90" d="M166.2,49.6c0.2,0.3,0.6,0.3,0.9,0.1c0.3-0.2,0.3-0.6,0.1-0.9c-0.2-0.3-0.6-0.3-0.8-0.1
											C166,49,166,49.4,166.2,49.6"/>
										<path fill="#88CA90" d="M166.2,49.6c0.2,0.3,0.6,0.3,0.9,0.1c0.3-0.2,0.3-0.6,0.1-0.9c-0.2-0.3-0.6-0.3-0.8-0.1
											C166,49,166,49.4,166.2,49.6z"/>
										<path fill="#88CA90" d="M162.8,52.4c0.2,0.3,0.6,0.3,0.9,0.1c0.3-0.2,0.3-0.6,0.1-0.9c-0.2-0.3-0.6-0.3-0.9-0.1
											C162.6,51.8,162.6,52.1,162.8,52.4"/>
										<path fill="#88CA90" d="M162.8,52.4c0.2,0.3,0.6,0.3,0.9,0.1c0.3-0.2,0.3-0.6,0.1-0.9c-0.2-0.3-0.6-0.3-0.9-0.1
											C162.6,51.8,162.6,52.1,162.8,52.4z"/>
										<path fill="#88CA90" d="M159.4,55.2c0.2,0.3,0.6,0.3,0.9,0.1c0.3-0.2,0.3-0.6,0.1-0.9c-0.2-0.3-0.6-0.3-0.8-0.1
											C159.2,54.5,159.2,54.9,159.4,55.2"/>
										<path fill="#88CA90" d="M159.4,55.2c0.2,0.3,0.6,0.3,0.9,0.1c0.3-0.2,0.3-0.6,0.1-0.9c-0.2-0.3-0.6-0.3-0.8-0.1
											C159.2,54.5,159.2,54.9,159.4,55.2z"/>
										<path fill="#88CA90" d="M179.6,41.7c0.2,0.3,0.6,0.3,0.9,0.1c0.3-0.2,0.3-0.6,0.1-0.9c-0.2-0.3-0.6-0.3-0.8-0.1
											C179.4,41.1,179.3,41.4,179.6,41.7"/>
										<path fill="#88CA90" d="M179.6,41.7c0.2,0.3,0.6,0.3,0.9,0.1c0.3-0.2,0.3-0.6,0.1-0.9c-0.2-0.3-0.6-0.3-0.8-0.1
											C179.4,41.1,179.3,41.4,179.6,41.7z"/>
										<path fill="#88CA90" d="M176.2,44.5c0.2,0.3,0.6,0.3,0.9,0.1c0.3-0.2,0.3-0.6,0.1-0.9c-0.2-0.3-0.6-0.3-0.8-0.1
											C176,43.8,176,44.2,176.2,44.5"/>
										<path fill="#88CA90" d="M176.2,44.5c0.2,0.3,0.6,0.3,0.9,0.1c0.3-0.2,0.3-0.6,0.1-0.9c-0.2-0.3-0.6-0.3-0.8-0.1
											C176,43.8,176,44.2,176.2,44.5z"/>
										<path fill="#88CA90" d="M172.8,47.2c0.2,0.3,0.6,0.3,0.9,0.1c0.3-0.2,0.3-0.6,0.1-0.9c-0.2-0.3-0.6-0.3-0.8-0.1
											C172.6,46.6,172.6,47,172.8,47.2"/>
										<path fill="#88CA90" d="M172.8,47.2c0.2,0.3,0.6,0.3,0.9,0.1c0.3-0.2,0.3-0.6,0.1-0.9c-0.2-0.3-0.6-0.3-0.8-0.1
											C172.6,46.6,172.6,47,172.8,47.2z"/>
										<path fill="#88CA90" d="M169.4,50c0.2,0.3,0.6,0.3,0.9,0.1c0.3-0.2,0.3-0.6,0.1-0.9c-0.2-0.3-0.6-0.3-0.8-0.1
											C169.2,49.3,169.2,49.7,169.4,50"/>
										<path fill="#88CA90" d="M169.4,50c0.2,0.3,0.6,0.3,0.9,0.1c0.3-0.2,0.3-0.6,0.1-0.9c-0.2-0.3-0.6-0.3-0.8-0.1
											C169.2,49.3,169.2,49.7,169.4,50z"/>
										<path fill="#88CA90" d="M166,52.7c0.2,0.3,0.6,0.3,0.9,0.1c0.3-0.2,0.3-0.6,0.1-0.9c-0.2-0.3-0.6-0.3-0.8-0.1
											C165.8,52.1,165.8,52.5,166,52.7"/>
										<path fill="#88CA90" d="M166,52.7c0.2,0.3,0.6,0.3,0.9,0.1c0.3-0.2,0.3-0.6,0.1-0.9c-0.2-0.3-0.6-0.3-0.8-0.1
											C165.8,52.1,165.8,52.5,166,52.7z"/>
										<path fill="#88CA90" d="M162.6,55.5c0.2,0.3,0.6,0.3,0.9,0.1c0.3-0.2,0.3-0.6,0.1-0.9c-0.2-0.3-0.6-0.3-0.8-0.1
											C162.4,54.9,162.4,55.3,162.6,55.5"/>
										<path fill="#88CA90" d="M162.6,55.5c0.2,0.3,0.6,0.3,0.9,0.1c0.3-0.2,0.3-0.6,0.1-0.9c-0.2-0.3-0.6-0.3-0.8-0.1
											C162.4,54.9,162.4,55.3,162.6,55.5z"/>
										<path fill="#88CA90" d="M179.2,44.9c0.2,0.3,0.6,0.3,0.9,0.1c0.3-0.2,0.3-0.6,0.1-0.9c-0.2-0.3-0.6-0.3-0.8-0.1
											C179.1,44.3,179,44.6,179.2,44.9"/>
										<path fill="#88CA90" d="M179.2,44.9c0.2,0.3,0.6,0.3,0.9,0.1c0.3-0.2,0.3-0.6,0.1-0.9c-0.2-0.3-0.6-0.3-0.8-0.1
											C179.1,44.3,179,44.6,179.2,44.9z"/>
										<path fill="#88CA90" d="M175.9,47.7c0.2,0.3,0.6,0.3,0.9,0.1c0.3-0.2,0.3-0.6,0.1-0.9c-0.2-0.3-0.6-0.3-0.8-0.1
											C175.7,47,175.6,47.4,175.9,47.7"/>
										<path fill="#88CA90" d="M175.9,47.7c0.2,0.3,0.6,0.3,0.9,0.1c0.3-0.2,0.3-0.6,0.1-0.9c-0.2-0.3-0.6-0.3-0.8-0.1
											C175.7,47,175.6,47.4,175.9,47.7z"/>
										<path fill="#88CA90" d="M172.5,50.4c0.2,0.3,0.6,0.3,0.9,0.1c0.3-0.2,0.3-0.6,0.1-0.9c-0.2-0.3-0.6-0.3-0.8-0.1
											C172.3,49.8,172.3,50.2,172.5,50.4"/>
										<path fill="#88CA90" d="M172.5,50.4c0.2,0.3,0.6,0.3,0.9,0.1c0.3-0.2,0.3-0.6,0.1-0.9c-0.2-0.3-0.6-0.3-0.8-0.1
											C172.3,49.8,172.3,50.2,172.5,50.4z"/>
										<path fill="#88CA90" d="M169.1,53.2c0.2,0.3,0.6,0.3,0.9,0.1c0.3-0.2,0.3-0.6,0.1-0.9c-0.2-0.3-0.6-0.3-0.9-0.1
											C168.9,52.6,168.9,52.9,169.1,53.2"/>
										<path fill="#88CA90" d="M169.1,53.2c0.2,0.3,0.6,0.3,0.9,0.1c0.3-0.2,0.3-0.6,0.1-0.9c-0.2-0.3-0.6-0.3-0.9-0.1
											C168.9,52.6,168.9,52.9,169.1,53.2z"/>
										<path fill="#88CA90" d="M165.7,56c0.2,0.3,0.6,0.3,0.9,0.1c0.3-0.2,0.3-0.6,0.1-0.9c-0.2-0.3-0.6-0.3-0.9-0.1
											C165.5,55.3,165.5,55.7,165.7,56"/>
										<path fill="#88CA90" d="M165.7,56c0.2,0.3,0.6,0.3,0.9,0.1c0.3-0.2,0.3-0.6,0.1-0.9c-0.2-0.3-0.6-0.3-0.9-0.1
											C165.5,55.3,165.5,55.7,165.7,56z"/>
										<path fill="#88CA90" d="M162.3,58.7c0.2,0.3,0.6,0.3,0.9,0.1c0.3-0.2,0.3-0.6,0.1-0.9c-0.2-0.3-0.6-0.3-0.9-0.1
											C162.1,58.1,162.1,58.5,162.3,58.7"/>
										<path fill="#88CA90" d="M162.3,58.7c0.2,0.3,0.6,0.3,0.9,0.1c0.3-0.2,0.3-0.6,0.1-0.9c-0.2-0.3-0.6-0.3-0.9-0.1
											C162.1,58.1,162.1,58.5,162.3,58.7z"/>
										<path fill="#88CA90" d="M182.4,45.3c0.2,0.3,0.6,0.3,0.9,0.1c0.3-0.2,0.3-0.6,0.1-0.9c-0.2-0.3-0.6-0.3-0.8-0.1
											C182.3,44.6,182.2,45,182.4,45.3"/>
										<path fill="#88CA90" d="M182.4,45.3c0.2,0.3,0.6,0.3,0.9,0.1c0.3-0.2,0.3-0.6,0.1-0.9c-0.2-0.3-0.6-0.3-0.8-0.1
											C182.3,44.6,182.2,45,182.4,45.3z"/>
										<path fill="#88CA90" d="M179.1,48c0.2,0.3,0.6,0.3,0.9,0.1c0.3-0.2,0.3-0.6,0.1-0.9c-0.2-0.3-0.6-0.3-0.8-0.1
											C178.9,47.4,178.8,47.8,179.1,48"/>
										<path fill="#88CA90" d="M179.1,48c0.2,0.3,0.6,0.3,0.9,0.1c0.3-0.2,0.3-0.6,0.1-0.9c-0.2-0.3-0.6-0.3-0.8-0.1
											C178.9,47.4,178.8,47.8,179.1,48z"/>
										<path fill="#88CA90" d="M175.7,50.8c0.2,0.3,0.6,0.3,0.9,0.1c0.3-0.2,0.3-0.6,0.1-0.9c-0.2-0.3-0.6-0.3-0.9-0.1
											C175.5,50.1,175.5,50.5,175.7,50.8"/>
										<path fill="#88CA90" d="M175.7,50.8c0.2,0.3,0.6,0.3,0.9,0.1c0.3-0.2,0.3-0.6,0.1-0.9c-0.2-0.3-0.6-0.3-0.9-0.1
											C175.5,50.1,175.5,50.5,175.7,50.8z"/>
										<path fill="#88CA90" d="M172.3,53.5c0.2,0.3,0.6,0.3,0.8,0.1c0.3-0.2,0.3-0.6,0.1-0.9c-0.2-0.3-0.6-0.3-0.9-0.1
											C172.1,52.9,172.1,53.3,172.3,53.5"/>
										<path fill="#88CA90" d="M172.3,53.5c0.2,0.3,0.6,0.3,0.8,0.1c0.3-0.2,0.3-0.6,0.1-0.9c-0.2-0.3-0.6-0.3-0.9-0.1
											C172.1,52.9,172.1,53.3,172.3,53.5z"/>
										<path fill="#88CA90" d="M168.9,56.3c0.2,0.3,0.6,0.3,0.9,0.1c0.3-0.2,0.3-0.6,0.1-0.9c-0.2-0.3-0.6-0.3-0.8-0.1
											C168.7,55.7,168.7,56,168.9,56.3"/>
										<path fill="#88CA90" d="M168.9,56.3c0.2,0.3,0.6,0.3,0.9,0.1c0.3-0.2,0.3-0.6,0.1-0.9c-0.2-0.3-0.6-0.3-0.8-0.1
											C168.7,55.7,168.7,56,168.9,56.3z"/>
										<path fill="#88CA90" d="M165.5,59.1c0.2,0.3,0.6,0.3,0.8,0.1c0.3-0.2,0.3-0.6,0.1-0.9c-0.2-0.3-0.6-0.3-0.8-0.1
											C165.3,58.4,165.3,58.8,165.5,59.1"/>
										<path fill="#88CA90" d="M165.5,59.1c0.2,0.3,0.6,0.3,0.8,0.1c0.3-0.2,0.3-0.6,0.1-0.9c-0.2-0.3-0.6-0.3-0.8-0.1
											C165.3,58.4,165.3,58.8,165.5,59.1z"/>
										<path fill="#88CA90" d="M182.1,48.5c0.2,0.3,0.6,0.3,0.9,0.1c0.3-0.2,0.3-0.6,0.1-0.9c-0.2-0.3-0.6-0.3-0.8-0.1
											C182,47.8,181.9,48.2,182.1,48.5"/>
										<path fill="#88CA90" d="M182.1,48.5c0.2,0.3,0.6,0.3,0.9,0.1c0.3-0.2,0.3-0.6,0.1-0.9c-0.2-0.3-0.6-0.3-0.8-0.1
											C182,47.8,181.9,48.2,182.1,48.5z"/>
										<path fill="#88CA90" d="M178.7,51.2c0.2,0.3,0.6,0.3,0.9,0.1c0.3-0.2,0.3-0.6,0.1-0.9c-0.2-0.3-0.6-0.3-0.8-0.1
											C178.6,50.6,178.5,51,178.7,51.2"/>
										<path fill="#88CA90" d="M178.7,51.2c0.2,0.3,0.6,0.3,0.9,0.1c0.3-0.2,0.3-0.6,0.1-0.9c-0.2-0.3-0.6-0.3-0.8-0.1
											C178.6,50.6,178.5,51,178.7,51.2z"/>
										<path fill="#88CA90" d="M175.4,54c0.2,0.3,0.6,0.3,0.9,0.1c0.3-0.2,0.3-0.6,0.1-0.9c-0.2-0.3-0.6-0.3-0.8-0.1
											C175.2,53.3,175.1,53.7,175.4,54"/>
										<path fill="#88CA90" d="M175.4,54c0.2,0.3,0.6,0.3,0.9,0.1c0.3-0.2,0.3-0.6,0.1-0.9c-0.2-0.3-0.6-0.3-0.8-0.1
											C175.2,53.3,175.1,53.7,175.4,54z"/>
										<path fill="#88CA90" d="M172,56.7c0.2,0.3,0.6,0.3,0.9,0.1c0.3-0.2,0.3-0.6,0.1-0.9c-0.2-0.3-0.6-0.3-0.8-0.1
											C171.8,56.1,171.8,56.5,172,56.7"/>
										<path fill="#88CA90" d="M172,56.7c0.2,0.3,0.6,0.3,0.9,0.1c0.3-0.2,0.3-0.6,0.1-0.9c-0.2-0.3-0.6-0.3-0.8-0.1
											C171.8,56.1,171.8,56.5,172,56.7z"/>
										<path fill="#88CA90" d="M168.6,59.5c0.2,0.3,0.6,0.3,0.9,0.1c0.3-0.2,0.3-0.6,0.1-0.9c-0.2-0.3-0.6-0.3-0.8-0.1
											C168.4,58.9,168.4,59.2,168.6,59.5"/>
										<path fill="#88CA90" d="M168.6,59.5c0.2,0.3,0.6,0.3,0.9,0.1c0.3-0.2,0.3-0.6,0.1-0.9c-0.2-0.3-0.6-0.3-0.8-0.1
											C168.4,58.9,168.4,59.2,168.6,59.5z"/>
										<path fill="#88CA90" d="M165.2,62.3c0.2,0.3,0.6,0.3,0.9,0.1c0.3-0.2,0.3-0.6,0.1-0.9c-0.2-0.3-0.6-0.3-0.8-0.1
											C165,61.6,165,62,165.2,62.3"/>
										<path fill="#88CA90" d="M165.2,62.3c0.2,0.3,0.6,0.3,0.9,0.1c0.3-0.2,0.3-0.6,0.1-0.9c-0.2-0.3-0.6-0.3-0.8-0.1
											C165,61.6,165,62,165.2,62.3z"/>
										<path fill="#88CA90" d="M185.3,48.8c0.2,0.3,0.6,0.3,0.8,0.1c0.3-0.2,0.3-0.6,0.1-0.8c-0.2-0.3-0.6-0.3-0.8-0.1
											C185.2,48.2,185.1,48.5,185.3,48.8"/>
										<path fill="#88CA90" d="M185.3,48.8c0.2,0.3,0.6,0.3,0.8,0.1c0.3-0.2,0.3-0.6,0.1-0.8c-0.2-0.3-0.6-0.3-0.8-0.1
											C185.2,48.2,185.1,48.5,185.3,48.8z"/>
										<path fill="#88CA90" d="M181.9,51.6c0.2,0.3,0.6,0.3,0.9,0.1c0.3-0.2,0.3-0.6,0.1-0.8c-0.2-0.3-0.6-0.3-0.8-0.1
											C181.8,50.9,181.7,51.3,181.9,51.6"/>
										<circle fill="#88CA90" cx="182.4" cy="51.2" r="0.6"/>
										<path fill="#88CA90" d="M178.6,54.3c0.2,0.3,0.6,0.3,0.8,0.1c0.3-0.2,0.3-0.6,0.1-0.9c-0.2-0.3-0.6-0.3-0.8-0.1
											C178.4,53.7,178.3,54.1,178.6,54.3"/>
										<circle fill="#88CA90" cx="179" cy="53.9" r="0.6"/>
										<path fill="#88CA90" d="M175.2,57.1c0.2,0.3,0.6,0.3,0.8,0.1c0.3-0.2,0.3-0.6,0.1-0.9c-0.2-0.3-0.6-0.3-0.8-0.1
											C175,56.4,175,56.8,175.2,57.1"/>
										<circle fill="#88CA90" cx="175.6" cy="56.7" r="0.6"/>
										<path fill="#88CA90" d="M171.8,59.8c0.2,0.3,0.6,0.3,0.8,0.1c0.3-0.2,0.3-0.6,0.1-0.9c-0.2-0.3-0.6-0.3-0.9-0.1
											C171.6,59.2,171.6,59.6,171.8,59.8"/>
										<circle fill="#88CA90" cx="172.2" cy="59.5" r="0.6"/>
										<path fill="#88CA90" d="M168.4,62.6c0.2,0.3,0.6,0.3,0.8,0.1c0.3-0.2,0.3-0.6,0.1-0.9c-0.2-0.3-0.6-0.3-0.9-0.1
											C168.2,62,168.2,62.3,168.4,62.6"/>
										<path fill="#88CA90" d="M168.4,62.6c0.2,0.3,0.6,0.3,0.8,0.1c0.3-0.2,0.3-0.6,0.1-0.9c-0.2-0.3-0.6-0.3-0.9-0.1
											C168.2,62,168.2,62.3,168.4,62.6z"/>
										<path fill="#88CA90" d="M185,52c0.2,0.3,0.6,0.3,0.9,0.1c0.3-0.2,0.3-0.6,0.1-0.9c-0.2-0.3-0.6-0.3-0.8-0.1
											C184.9,51.4,184.8,51.7,185,52"/>
										<path fill="#88CA90" d="M185,52c0.2,0.3,0.6,0.3,0.9,0.1c0.3-0.2,0.3-0.6,0.1-0.9c-0.2-0.3-0.6-0.3-0.8-0.1
											C184.9,51.4,184.8,51.7,185,52z"/>
										<path fill="#88CA90" d="M181.6,54.8c0.2,0.3,0.6,0.3,0.8,0.1c0.3-0.2,0.3-0.6,0.1-0.9c-0.2-0.3-0.6-0.3-0.8-0.1
											C181.5,54.1,181.4,54.5,181.6,54.8"/>
										<path fill="#88CA90" d="M181.6,54.8c0.2,0.3,0.6,0.3,0.8,0.1c0.3-0.2,0.3-0.6,0.1-0.9c-0.2-0.3-0.6-0.3-0.8-0.1
											C181.5,54.1,181.4,54.5,181.6,54.8z"/>
										<path fill="#88CA90" d="M178.2,57.5c0.2,0.3,0.6,0.3,0.9,0.1c0.3-0.2,0.3-0.6,0.1-0.9c-0.2-0.3-0.6-0.3-0.9-0.1
											C178.1,56.9,178,57.3,178.2,57.5"/>
										<path fill="#88CA90" d="M178.2,57.5c0.2,0.3,0.6,0.3,0.9,0.1c0.3-0.2,0.3-0.6,0.1-0.9c-0.2-0.3-0.6-0.3-0.9-0.1
											C178.1,56.9,178,57.3,178.2,57.5z"/>
										<path fill="#88CA90" d="M174.9,60.3c0.2,0.3,0.6,0.3,0.9,0.1c0.3-0.2,0.3-0.6,0.1-0.9c-0.2-0.3-0.6-0.3-0.9-0.1
											C174.7,59.6,174.6,60,174.9,60.3"/>
										<path fill="#88CA90" d="M174.9,60.3c0.2,0.3,0.6,0.3,0.9,0.1c0.3-0.2,0.3-0.6,0.1-0.9c-0.2-0.3-0.6-0.3-0.9-0.1
											C174.7,59.6,174.6,60,174.9,60.3z"/>
										<path fill="#88CA90" d="M171.5,63c0.2,0.3,0.6,0.3,0.9,0.1c0.3-0.2,0.3-0.6,0.1-0.9c-0.2-0.3-0.6-0.3-0.9-0.1
											C171.3,62.4,171.3,62.8,171.5,63"/>
										<path fill="#88CA90" d="M171.5,63c0.2,0.3,0.6,0.3,0.9,0.1c0.3-0.2,0.3-0.6,0.1-0.9c-0.2-0.3-0.6-0.3-0.9-0.1
											C171.3,62.4,171.3,62.8,171.5,63z"/>
										<path fill="#88CA90" d="M168.1,65.8c0.2,0.3,0.6,0.3,0.9,0.1c0.3-0.2,0.3-0.6,0.1-0.8c-0.2-0.3-0.6-0.3-0.8-0.1
											C167.9,65.2,167.9,65.5,168.1,65.8"/>
										<path fill="#88CA90" d="M168.1,65.8c0.2,0.3,0.6,0.3,0.9,0.1c0.3-0.2,0.3-0.6,0.1-0.8c-0.2-0.3-0.6-0.3-0.8-0.1
											C167.9,65.2,167.9,65.5,168.1,65.8z"/>
									</g>
									<g>
										<path fill="#88CA90" d="M189.1,51.9c0.2,0.3,0.6,0.3,0.8,0.1c0.3-0.2,0.3-0.6,0.1-0.9c-0.2-0.3-0.6-0.3-0.9-0.1
											C189,51.2,188.9,51.6,189.1,51.9"/>
										<path fill="#88CA90" d="M189.1,51.9c0.2,0.3,0.6,0.3,0.8,0.1c0.3-0.2,0.3-0.6,0.1-0.9c-0.2-0.3-0.6-0.3-0.9-0.1
											C189,51.2,188.9,51.6,189.1,51.9z"/>
										<path fill="#88CA90" d="M185.8,54.6c0.2,0.3,0.6,0.3,0.8,0.1c0.3-0.2,0.3-0.6,0.1-0.9c-0.2-0.3-0.6-0.3-0.9-0.1
											C185.6,54,185.5,54.4,185.8,54.6"/>
										<path fill="#88CA90" d="M185.8,54.6c0.2,0.3,0.6,0.3,0.8,0.1c0.3-0.2,0.3-0.6,0.1-0.9c-0.2-0.3-0.6-0.3-0.9-0.1
											C185.6,54,185.5,54.4,185.8,54.6z"/>
										<path fill="#88CA90" d="M182.4,57.4c0.2,0.3,0.6,0.3,0.9,0.1c0.3-0.2,0.3-0.6,0.1-0.9c-0.2-0.3-0.6-0.3-0.9-0.1
											C182.2,56.8,182.2,57.1,182.4,57.4"/>
										<path fill="#88CA90" d="M182.4,57.4c0.2,0.3,0.6,0.3,0.9,0.1c0.3-0.2,0.3-0.6,0.1-0.9c-0.2-0.3-0.6-0.3-0.9-0.1
											C182.2,56.8,182.2,57.1,182.4,57.4z"/>
										<path fill="#88CA90" d="M179,60.2c0.2,0.3,0.6,0.3,0.9,0.1c0.3-0.2,0.3-0.6,0.1-0.9c-0.2-0.3-0.6-0.3-0.8-0.1
											C178.8,59.5,178.8,59.9,179,60.2"/>
										<path fill="#88CA90" d="M179,60.2c0.2,0.3,0.6,0.3,0.9,0.1c0.3-0.2,0.3-0.6,0.1-0.9c-0.2-0.3-0.6-0.3-0.8-0.1
											C178.8,59.5,178.8,59.9,179,60.2z"/>
										<path fill="#88CA90" d="M175.6,62.9c0.2,0.3,0.6,0.3,0.9,0.1c0.3-0.2,0.3-0.6,0.1-0.9c-0.2-0.3-0.6-0.3-0.9-0.1
											C175.4,62.3,175.4,62.7,175.6,62.9"/>
										<path fill="#88CA90" d="M175.6,62.9c0.2,0.3,0.6,0.3,0.9,0.1c0.3-0.2,0.3-0.6,0.1-0.9c-0.2-0.3-0.6-0.3-0.9-0.1
											C175.4,62.3,175.4,62.7,175.6,62.9z"/>
										<path fill="#88CA90" d="M172.2,65.7c0.2,0.3,0.6,0.3,0.9,0.1c0.3-0.2,0.3-0.6,0.1-0.9c-0.2-0.3-0.6-0.3-0.9-0.1
											C172,65,172,65.4,172.2,65.7"/>
										<path fill="#88CA90" d="M172.2,65.7c0.2,0.3,0.6,0.3,0.9,0.1c0.3-0.2,0.3-0.6,0.1-0.9c-0.2-0.3-0.6-0.3-0.9-0.1
											C172,65,172,65.4,172.2,65.7z"/>
										<path fill="#88CA90" d="M188.8,55.1c0.2,0.3,0.6,0.3,0.9,0.1c0.3-0.2,0.3-0.6,0.1-0.9c-0.2-0.3-0.6-0.3-0.8-0.1
											C188.7,54.4,188.6,54.8,188.8,55.1"/>
										<path fill="#88CA90" d="M188.8,55.1c0.2,0.3,0.6,0.3,0.9,0.1c0.3-0.2,0.3-0.6,0.1-0.9c-0.2-0.3-0.6-0.3-0.8-0.1
											C188.7,54.4,188.6,54.8,188.8,55.1z"/>
										<path fill="#88CA90" d="M185.4,57.8c0.2,0.3,0.6,0.3,0.9,0.1c0.3-0.2,0.3-0.6,0.1-0.9c-0.2-0.3-0.6-0.3-0.9-0.1
											C185.3,57.2,185.2,57.6,185.4,57.8"/>
										<path fill="#88CA90" d="M185.4,57.8c0.2,0.3,0.6,0.3,0.9,0.1c0.3-0.2,0.3-0.6,0.1-0.9c-0.2-0.3-0.6-0.3-0.9-0.1
											C185.3,57.2,185.2,57.6,185.4,57.8z"/>
										<path fill="#88CA90" d="M182.1,60.6c0.2,0.3,0.6,0.3,0.9,0.1c0.3-0.2,0.3-0.6,0.1-0.9c-0.2-0.3-0.6-0.3-0.8-0.1
											C181.9,60,181.8,60.4,182.1,60.6"/>
										<path fill="#88CA90" d="M182.1,60.6c0.2,0.3,0.6,0.3,0.9,0.1c0.3-0.2,0.3-0.6,0.1-0.9c-0.2-0.3-0.6-0.3-0.8-0.1
											C181.9,60,181.8,60.4,182.1,60.6z"/>
										<path fill="#88CA90" d="M178.7,63.4c0.2,0.3,0.6,0.3,0.9,0.1c0.3-0.2,0.3-0.6,0.1-0.9c-0.2-0.3-0.6-0.3-0.9-0.1
											C178.5,62.7,178.5,63.1,178.7,63.4"/>
										<path fill="#88CA90" d="M178.7,63.4c0.2,0.3,0.6,0.3,0.9,0.1c0.3-0.2,0.3-0.6,0.1-0.9c-0.2-0.3-0.6-0.3-0.9-0.1
											C178.5,62.7,178.5,63.1,178.7,63.4z"/>
										<path fill="#88CA90" d="M175.3,66.1c0.2,0.3,0.6,0.3,0.9,0.1c0.3-0.2,0.3-0.6,0.1-0.9c-0.2-0.3-0.6-0.3-0.8-0.1
											C175.1,65.5,175.1,65.9,175.3,66.1"/>
										<path fill="#88CA90" d="M175.3,66.1c0.2,0.3,0.6,0.3,0.9,0.1c0.3-0.2,0.3-0.6,0.1-0.9c-0.2-0.3-0.6-0.3-0.8-0.1
											C175.1,65.5,175.1,65.9,175.3,66.1z"/>
										<path fill="#88CA90" d="M171.9,68.9c0.2,0.3,0.6,0.3,0.9,0.1c0.3-0.2,0.3-0.6,0.1-0.9c-0.2-0.3-0.6-0.3-0.8-0.1
											C171.7,68.3,171.7,68.6,171.9,68.9"/>
										<path fill="#88CA90" d="M171.9,68.9c0.2,0.3,0.6,0.3,0.9,0.1c0.3-0.2,0.3-0.6,0.1-0.9c-0.2-0.3-0.6-0.3-0.8-0.1
											C171.7,68.3,171.7,68.6,171.9,68.9z"/>
										<path fill="#88CA90" d="M192,55.4c0.2,0.3,0.6,0.3,0.9,0.1c0.3-0.2,0.3-0.6,0.1-0.9c-0.2-0.3-0.6-0.3-0.9-0.1
											C191.9,54.8,191.8,55.2,192,55.4"/>
										<path fill="#88CA90" d="M192,55.4c0.2,0.3,0.6,0.3,0.9,0.1c0.3-0.2,0.3-0.6,0.1-0.9c-0.2-0.3-0.6-0.3-0.9-0.1
											C191.9,54.8,191.8,55.2,192,55.4z"/>
										<path fill="#88CA90" d="M188.6,58.2c0.2,0.3,0.6,0.3,0.9,0.1c0.3-0.2,0.3-0.6,0.1-0.9c-0.2-0.3-0.6-0.3-0.8-0.1
											C188.5,57.5,188.4,57.9,188.6,58.2"/>
										<path fill="#88CA90" d="M188.6,58.2c0.2,0.3,0.6,0.3,0.9,0.1c0.3-0.2,0.3-0.6,0.1-0.9c-0.2-0.3-0.6-0.3-0.8-0.1
											C188.5,57.5,188.4,57.9,188.6,58.2z"/>
										<path fill="#88CA90" d="M185.3,61c0.2,0.3,0.6,0.3,0.8,0.1c0.3-0.2,0.3-0.6,0.1-0.9c-0.2-0.3-0.6-0.3-0.9-0.1
											C185.1,60.3,185,60.7,185.3,61"/>
										<path fill="#88CA90" d="M185.3,61c0.2,0.3,0.6,0.3,0.8,0.1c0.3-0.2,0.3-0.6,0.1-0.9c-0.2-0.3-0.6-0.3-0.9-0.1
											C185.1,60.3,185,60.7,185.3,61z"/>
										<path fill="#88CA90" d="M181.9,63.7c0.2,0.3,0.6,0.3,0.9,0.1c0.3-0.2,0.3-0.6,0.1-0.8c-0.2-0.3-0.6-0.3-0.8-0.1
											C181.7,63.1,181.7,63.5,181.9,63.7"/>
										<path fill="#88CA90" d="M181.9,63.7c0.2,0.3,0.6,0.3,0.9,0.1c0.3-0.2,0.3-0.6,0.1-0.8c-0.2-0.3-0.6-0.3-0.8-0.1
											C181.7,63.1,181.7,63.5,181.9,63.7z"/>
										<path fill="#88CA90" d="M178.5,66.5c0.2,0.3,0.6,0.3,0.9,0.1c0.3-0.2,0.3-0.6,0.1-0.9c-0.2-0.3-0.6-0.3-0.8-0.1
											C178.3,65.8,178.3,66.2,178.5,66.5"/>
										<path fill="#88CA90" d="M178.5,66.5c0.2,0.3,0.6,0.3,0.9,0.1c0.3-0.2,0.3-0.6,0.1-0.9c-0.2-0.3-0.6-0.3-0.8-0.1
											C178.3,65.8,178.3,66.2,178.5,66.5z"/>
										<path fill="#88CA90" d="M175.1,69.2c0.2,0.3,0.6,0.3,0.9,0.1c0.3-0.2,0.3-0.6,0.1-0.9c-0.2-0.3-0.6-0.3-0.8-0.1
											C174.9,68.6,174.9,69,175.1,69.2"/>
										<path fill="#88CA90" d="M175.1,69.2c0.2,0.3,0.6,0.3,0.9,0.1c0.3-0.2,0.3-0.6,0.1-0.9c-0.2-0.3-0.6-0.3-0.8-0.1
											C174.9,68.6,174.9,69,175.1,69.2z"/>
										<path fill="#88CA90" d="M191.7,58.6c0.2,0.3,0.6,0.3,0.9,0.1c0.3-0.2,0.3-0.6,0.1-0.9c-0.2-0.3-0.6-0.3-0.8-0.1
											C191.6,58,191.5,58.4,191.7,58.6"/>
										<path fill="#88CA90" d="M191.7,58.6c0.2,0.3,0.6,0.3,0.9,0.1c0.3-0.2,0.3-0.6,0.1-0.9c-0.2-0.3-0.6-0.3-0.8-0.1
											C191.6,58,191.5,58.4,191.7,58.6z"/>
										<path fill="#88CA90" d="M188.3,61.4c0.2,0.3,0.6,0.3,0.9,0.1c0.3-0.2,0.3-0.6,0.1-0.9c-0.2-0.3-0.6-0.3-0.8-0.1
											C188.2,60.8,188.1,61.1,188.3,61.4"/>
										<path fill="#88CA90" d="M188.3,61.4c0.2,0.3,0.6,0.3,0.9,0.1c0.3-0.2,0.3-0.6,0.1-0.9c-0.2-0.3-0.6-0.3-0.8-0.1
											C188.2,60.8,188.1,61.1,188.3,61.4z"/>
										<path fill="#88CA90" d="M184.9,64.2c0.2,0.3,0.6,0.3,0.9,0.1c0.3-0.2,0.3-0.6,0.1-0.9c-0.2-0.3-0.6-0.3-0.9-0.1
											C184.8,63.5,184.7,63.9,184.9,64.2"/>
										<path fill="#88CA90" d="M184.9,64.2c0.2,0.3,0.6,0.3,0.9,0.1c0.3-0.2,0.3-0.6,0.1-0.9c-0.2-0.3-0.6-0.3-0.9-0.1
											C184.8,63.5,184.7,63.9,184.9,64.2z"/>
										<path fill="#88CA90" d="M181.6,66.9c0.2,0.3,0.6,0.3,0.9,0.1c0.3-0.2,0.3-0.6,0.1-0.9c-0.2-0.3-0.6-0.3-0.9-0.1
											C181.4,66.3,181.3,66.7,181.6,66.9"/>
										<path fill="#88CA90" d="M181.6,66.9c0.2,0.3,0.6,0.3,0.9,0.1c0.3-0.2,0.3-0.6,0.1-0.9c-0.2-0.3-0.6-0.3-0.9-0.1
											C181.4,66.3,181.3,66.7,181.6,66.9z"/>
										<path fill="#88CA90" d="M178.2,69.7c0.2,0.3,0.6,0.3,0.9,0.1c0.3-0.2,0.3-0.6,0.1-0.9c-0.2-0.3-0.6-0.3-0.9-0.1
											C178,69,178,69.4,178.2,69.7"/>
										<path fill="#88CA90" d="M178.2,69.7c0.2,0.3,0.6,0.3,0.9,0.1c0.3-0.2,0.3-0.6,0.1-0.9c-0.2-0.3-0.6-0.3-0.9-0.1
											C178,69,178,69.4,178.2,69.7z"/>
										<path fill="#88CA90" d="M174.8,72.4c0.2,0.3,0.6,0.3,0.9,0.1c0.3-0.2,0.3-0.6,0.1-0.9c-0.2-0.3-0.6-0.3-0.9-0.1
											C174.6,71.8,174.6,72.2,174.8,72.4"/>
										<path fill="#88CA90" d="M174.8,72.4c0.2,0.3,0.6,0.3,0.9,0.1c0.3-0.2,0.3-0.6,0.1-0.9c-0.2-0.3-0.6-0.3-0.9-0.1
											C174.6,71.8,174.6,72.2,174.8,72.4z"/>
										<path fill="#88CA90" d="M194.9,59c0.2,0.3,0.6,0.3,0.9,0.1c0.3-0.2,0.3-0.6,0.1-0.9c-0.2-0.3-0.6-0.3-0.8-0.1
											C194.7,58.3,194.7,58.7,194.9,59"/>
										<path fill="#88CA90" d="M194.9,59c0.2,0.3,0.6,0.3,0.9,0.1c0.3-0.2,0.3-0.6,0.1-0.9c-0.2-0.3-0.6-0.3-0.8-0.1
											C194.7,58.3,194.7,58.7,194.9,59z"/>
										<path fill="#88CA90" d="M191.5,61.7c0.2,0.3,0.6,0.3,0.9,0.1c0.3-0.2,0.3-0.6,0.1-0.9c-0.2-0.3-0.6-0.3-0.8-0.1
											C191.4,61.1,191.3,61.5,191.5,61.7"/>
										<path fill="#88CA90" d="M191.5,61.7c0.2,0.3,0.6,0.3,0.9,0.1c0.3-0.2,0.3-0.6,0.1-0.9c-0.2-0.3-0.6-0.3-0.8-0.1
											C191.4,61.1,191.3,61.5,191.5,61.7z"/>
										<path fill="#88CA90" d="M188.1,64.5c0.2,0.3,0.6,0.3,0.8,0.1c0.3-0.2,0.3-0.6,0.1-0.9c-0.2-0.3-0.6-0.3-0.8-0.1
											C188,63.9,187.9,64.2,188.1,64.5"/>
										<path fill="#88CA90" d="M188.1,64.5c0.2,0.3,0.6,0.3,0.8,0.1c0.3-0.2,0.3-0.6,0.1-0.9c-0.2-0.3-0.6-0.3-0.8-0.1
											C188,63.9,187.9,64.2,188.1,64.5z"/>
										<path fill="#88CA90" d="M184.8,67.3c0.2,0.3,0.6,0.3,0.8,0.1c0.3-0.2,0.3-0.6,0.1-0.8c-0.2-0.3-0.6-0.3-0.9-0.1
											C184.6,66.6,184.5,67,184.8,67.3"/>
										<path fill="#88CA90" d="M184.8,67.3c0.2,0.3,0.6,0.3,0.8,0.1c0.3-0.2,0.3-0.6,0.1-0.8c-0.2-0.3-0.6-0.3-0.9-0.1
											C184.6,66.6,184.5,67,184.8,67.3z"/>
										<path fill="#88CA90" d="M181.4,70c0.2,0.3,0.6,0.3,0.9,0.1c0.3-0.2,0.3-0.6,0.1-0.8c-0.2-0.3-0.6-0.3-0.9-0.1
											C181.2,69.4,181.2,69.8,181.4,70"/>
										<path fill="#88CA90" d="M181.4,70c0.2,0.3,0.6,0.3,0.9,0.1c0.3-0.2,0.3-0.6,0.1-0.8c-0.2-0.3-0.6-0.3-0.9-0.1
											C181.2,69.4,181.2,69.8,181.4,70z"/>
										<path fill="#88CA90" d="M178,72.8c0.2,0.3,0.6,0.3,0.9,0.1c0.3-0.2,0.3-0.6,0.1-0.8c-0.2-0.3-0.6-0.3-0.9-0.1
											C177.8,72.1,177.8,72.5,178,72.8"/>
										<path fill="#88CA90" d="M178,72.8c0.2,0.3,0.6,0.3,0.9,0.1c0.3-0.2,0.3-0.6,0.1-0.8c-0.2-0.3-0.6-0.3-0.9-0.1
											C177.8,72.1,177.8,72.5,178,72.8z"/>
										<path fill="#88CA90" d="M194.6,62.2c0.2,0.3,0.6,0.3,0.9,0.1c0.3-0.2,0.3-0.6,0.1-0.9c-0.2-0.3-0.6-0.3-0.8-0.1
											C194.4,61.5,194.4,61.9,194.6,62.2"/>
										<path fill="#88CA90" d="M194.6,62.2c0.2,0.3,0.6,0.3,0.9,0.1c0.3-0.2,0.3-0.6,0.1-0.9c-0.2-0.3-0.6-0.3-0.8-0.1
											C194.4,61.5,194.4,61.9,194.6,62.2z"/>
										<path fill="#88CA90" d="M191.2,64.9c0.2,0.3,0.6,0.3,0.9,0.1c0.3-0.2,0.3-0.6,0.1-0.9c-0.2-0.3-0.6-0.3-0.8-0.1
											C191,64.3,191,64.7,191.2,64.9"/>
										<path fill="#88CA90" d="M191.2,64.9c0.2,0.3,0.6,0.3,0.9,0.1c0.3-0.2,0.3-0.6,0.1-0.9c-0.2-0.3-0.6-0.3-0.8-0.1
											C191,64.3,191,64.7,191.2,64.9z"/>
										<path fill="#88CA90" d="M187.8,67.7c0.2,0.3,0.6,0.3,0.9,0.1c0.3-0.2,0.3-0.6,0.1-0.9c-0.2-0.3-0.6-0.3-0.8-0.1
											C187.7,67.1,187.6,67.4,187.8,67.7"/>
										<path fill="#88CA90" d="M187.8,67.7c0.2,0.3,0.6,0.3,0.9,0.1c0.3-0.2,0.3-0.6,0.1-0.9c-0.2-0.3-0.6-0.3-0.8-0.1
											C187.7,67.1,187.6,67.4,187.8,67.7z"/>
										<path fill="#88CA90" d="M184.4,70.5c0.2,0.3,0.6,0.3,0.9,0.1c0.3-0.2,0.3-0.6,0.1-0.9c-0.2-0.3-0.6-0.3-0.8-0.1
											C184.3,69.8,184.2,70.2,184.4,70.5"/>
										<path fill="#88CA90" d="M184.4,70.5c0.2,0.3,0.6,0.3,0.9,0.1c0.3-0.2,0.3-0.6,0.1-0.9c-0.2-0.3-0.6-0.3-0.8-0.1
											C184.3,69.8,184.2,70.2,184.4,70.5z"/>
										<path fill="#88CA90" d="M181.1,73.2c0.2,0.3,0.6,0.3,0.9,0.1c0.3-0.2,0.3-0.6,0.1-0.9c-0.2-0.3-0.6-0.3-0.9-0.1
											C180.9,72.6,180.8,73,181.1,73.2"/>
										<path fill="#88CA90" d="M181.1,73.2c0.2,0.3,0.6,0.3,0.9,0.1c0.3-0.2,0.3-0.6,0.1-0.9c-0.2-0.3-0.6-0.3-0.9-0.1
											C180.9,72.6,180.8,73,181.1,73.2z"/>
										<path fill="#88CA90" d="M177.7,76c0.2,0.3,0.6,0.3,0.9,0.1c0.3-0.2,0.3-0.6,0.1-0.9c-0.2-0.3-0.6-0.3-0.9-0.1
											C177.5,75.3,177.5,75.7,177.7,76"/>
										<path fill="#88CA90" d="M177.7,76c0.2,0.3,0.6,0.3,0.9,0.1c0.3-0.2,0.3-0.6,0.1-0.9c-0.2-0.3-0.6-0.3-0.9-0.1
											C177.5,75.3,177.5,75.7,177.7,76z"/>
										<path fill="#88CA90" d="M197.8,62.5c0.2,0.3,0.6,0.3,0.9,0.1c0.3-0.2,0.3-0.6,0.1-0.9c-0.2-0.3-0.6-0.3-0.8-0.1
											C197.6,61.9,197.6,62.3,197.8,62.5"/>
										<path fill="#88CA90" d="M197.8,62.5c0.2,0.3,0.6,0.3,0.9,0.1c0.3-0.2,0.3-0.6,0.1-0.9c-0.2-0.3-0.6-0.3-0.8-0.1
											C197.6,61.9,197.6,62.3,197.8,62.5z"/>
										<path fill="#88CA90" d="M194.4,65.3c0.2,0.3,0.6,0.3,0.9,0.1c0.3-0.2,0.3-0.6,0.1-0.9c-0.2-0.3-0.6-0.3-0.8-0.1
											C194.3,64.6,194.2,65,194.4,65.3"/>
										<path fill="#88CA90" d="M194.4,65.3c0.2,0.3,0.6,0.3,0.9,0.1c0.3-0.2,0.3-0.6,0.1-0.9c-0.2-0.3-0.6-0.3-0.8-0.1
											C194.3,64.6,194.2,65,194.4,65.3z"/>
										<path fill="#88CA90" d="M191,68c0.2,0.3,0.6,0.3,0.9,0.1c0.3-0.2,0.3-0.6,0.1-0.9c-0.2-0.3-0.6-0.3-0.8-0.1
											C190.9,67.4,190.8,67.8,191,68"/>
										<path fill="#88CA90" d="M191,68c0.2,0.3,0.6,0.3,0.9,0.1c0.3-0.2,0.3-0.6,0.1-0.9c-0.2-0.3-0.6-0.3-0.8-0.1
											C190.9,67.4,190.8,67.8,191,68z"/>
										<path fill="#88CA90" d="M187.6,70.8c0.2,0.3,0.6,0.3,0.9,0.1c0.3-0.2,0.3-0.6,0.1-0.9c-0.2-0.3-0.6-0.3-0.8-0.1
											C187.5,70.2,187.4,70.5,187.6,70.8"/>
										<path fill="#88CA90" d="M187.6,70.8c0.2,0.3,0.6,0.3,0.9,0.1c0.3-0.2,0.3-0.6,0.1-0.9c-0.2-0.3-0.6-0.3-0.8-0.1
											C187.5,70.2,187.4,70.5,187.6,70.8z"/>
										<path fill="#88CA90" d="M184.3,73.6c0.2,0.3,0.6,0.3,0.9,0.1c0.3-0.2,0.3-0.6,0.1-0.9c-0.2-0.3-0.6-0.3-0.8-0.1
											C184.1,72.9,184,73.3,184.3,73.6"/>
										<path fill="#88CA90" d="M184.3,73.6c0.2,0.3,0.6,0.3,0.9,0.1c0.3-0.2,0.3-0.6,0.1-0.9c-0.2-0.3-0.6-0.3-0.8-0.1
											C184.1,72.9,184,73.3,184.3,73.6z"/>
										<path fill="#88CA90" d="M180.9,76.3c0.2,0.3,0.6,0.3,0.9,0.1c0.3-0.2,0.3-0.6,0.1-0.9c-0.2-0.3-0.6-0.3-0.8-0.1
											C180.7,75.7,180.7,76.1,180.9,76.3"/>
										<path fill="#88CA90" d="M180.9,76.3c0.2,0.3,0.6,0.3,0.9,0.1c0.3-0.2,0.3-0.6,0.1-0.9c-0.2-0.3-0.6-0.3-0.8-0.1
											C180.7,75.7,180.7,76.1,180.9,76.3z"/>
										<path fill="#88CA90" d="M197.5,65.7c0.2,0.3,0.6,0.3,0.9,0.1c0.3-0.2,0.3-0.6,0.1-0.9c-0.2-0.3-0.6-0.3-0.8-0.1
											C197.3,65.1,197.3,65.5,197.5,65.7"/>
										<path fill="#88CA90" d="M197.5,65.7c0.2,0.3,0.6,0.3,0.9,0.1c0.3-0.2,0.3-0.6,0.1-0.9c-0.2-0.3-0.6-0.3-0.8-0.1
											C197.3,65.1,197.3,65.5,197.5,65.7z"/>
										<path fill="#88CA90" d="M194.1,68.5c0.2,0.3,0.6,0.3,0.9,0.1c0.3-0.2,0.3-0.6,0.1-0.9c-0.2-0.3-0.6-0.3-0.8-0.1
											C193.9,67.8,193.9,68.2,194.1,68.5"/>
										<path fill="#88CA90" d="M194.1,68.5c0.2,0.3,0.6,0.3,0.9,0.1c0.3-0.2,0.3-0.6,0.1-0.9c-0.2-0.3-0.6-0.3-0.8-0.1
											C193.9,67.8,193.9,68.2,194.1,68.5z"/>
										<path fill="#88CA90" d="M190.7,71.2c0.2,0.3,0.6,0.3,0.9,0.1c0.3-0.2,0.3-0.6,0.1-0.9c-0.2-0.3-0.6-0.3-0.8-0.1
											C190.6,70.6,190.5,71,190.7,71.2"/>
										<path fill="#88CA90" d="M190.7,71.2c0.2,0.3,0.6,0.3,0.9,0.1c0.3-0.2,0.3-0.6,0.1-0.9c-0.2-0.3-0.6-0.3-0.8-0.1
											C190.6,70.6,190.5,71,190.7,71.2z"/>
										<path fill="#88CA90" d="M187.3,74c0.2,0.3,0.6,0.3,0.9,0.1c0.3-0.2,0.3-0.6,0.1-0.9c-0.2-0.3-0.6-0.3-0.9-0.1
											C187.2,73.4,187.1,73.7,187.3,74"/>
										<circle fill="#88CA90" cx="187.8" cy="73.6" r="0.6"/>
										<path fill="#88CA90" d="M183.9,76.8c0.2,0.3,0.6,0.3,0.9,0.1c0.3-0.2,0.3-0.6,0.1-0.9c-0.2-0.3-0.6-0.3-0.9-0.1
											C183.8,76.1,183.7,76.5,183.9,76.8"/>
										<path fill="#88CA90" d="M183.9,76.8c0.2,0.3,0.6,0.3,0.9,0.1c0.3-0.2,0.3-0.6,0.1-0.9c-0.2-0.3-0.6-0.3-0.9-0.1
											C183.8,76.1,183.7,76.5,183.9,76.8z"/>
										<path fill="#88CA90" d="M180.6,79.5c0.2,0.3,0.6,0.3,0.8,0.1c0.3-0.2,0.3-0.6,0.1-0.9c-0.2-0.3-0.6-0.3-0.9-0.1
											C180.4,78.9,180.3,79.3,180.6,79.5"/>
										<path fill="#88CA90" d="M180.6,79.5c0.2,0.3,0.6,0.3,0.8,0.1c0.3-0.2,0.3-0.6,0.1-0.9c-0.2-0.3-0.6-0.3-0.9-0.1
											C180.4,78.9,180.3,79.3,180.6,79.5z"/>
										<path fill="#88CA90" d="M200.7,66.1c0.2,0.3,0.6,0.3,0.9,0.1c0.3-0.2,0.3-0.6,0.1-0.9c-0.2-0.3-0.6-0.3-0.9-0.1
											C200.5,65.4,200.5,65.8,200.7,66.1"/>
										<path fill="#88CA90" d="M200.7,66.1c0.2,0.3,0.6,0.3,0.9,0.1c0.3-0.2,0.3-0.6,0.1-0.9c-0.2-0.3-0.6-0.3-0.9-0.1
											C200.5,65.4,200.5,65.8,200.7,66.1z"/>
										<path fill="#88CA90" d="M197.3,68.8c0.2,0.3,0.6,0.3,0.9,0.1c0.3-0.2,0.3-0.6,0.1-0.9c-0.2-0.3-0.6-0.3-0.9-0.1
											C197.1,68.2,197.1,68.6,197.3,68.8"/>
										<path fill="#88CA90" d="M197.3,68.8c0.2,0.3,0.6,0.3,0.9,0.1c0.3-0.2,0.3-0.6,0.1-0.9c-0.2-0.3-0.6-0.3-0.9-0.1
											C197.1,68.2,197.1,68.6,197.3,68.8z"/>
										<path fill="#88CA90" d="M193.9,71.6c0.2,0.3,0.6,0.3,0.9,0.1c0.3-0.2,0.3-0.6,0.1-0.9c-0.2-0.3-0.6-0.3-0.9-0.1
											C193.8,70.9,193.7,71.3,193.9,71.6"/>
										<path fill="#88CA90" d="M193.9,71.6c0.2,0.3,0.6,0.3,0.9,0.1c0.3-0.2,0.3-0.6,0.1-0.9c-0.2-0.3-0.6-0.3-0.9-0.1
											C193.8,70.9,193.7,71.3,193.9,71.6z"/>
										<path fill="#88CA90" d="M190.5,74.3c0.2,0.3,0.6,0.3,0.8,0.1c0.3-0.2,0.3-0.6,0.1-0.9c-0.2-0.3-0.6-0.3-0.8-0.1
											C190.4,73.7,190.3,74.1,190.5,74.3"/>
										<path fill="#88CA90" d="M190.5,74.3c0.2,0.3,0.6,0.3,0.8,0.1c0.3-0.2,0.3-0.6,0.1-0.9c-0.2-0.3-0.6-0.3-0.8-0.1
											C190.4,73.7,190.3,74.1,190.5,74.3z"/>
										<path fill="#88CA90" d="M187.1,77.1c0.2,0.3,0.6,0.3,0.9,0.1c0.3-0.2,0.3-0.6,0.1-0.9c-0.2-0.3-0.6-0.3-0.9-0.1
											C187,76.5,186.9,76.9,187.1,77.1"/>
										<path fill="#88CA90" d="M187.1,77.1c0.2,0.3,0.6,0.3,0.9,0.1c0.3-0.2,0.3-0.6,0.1-0.9c-0.2-0.3-0.6-0.3-0.9-0.1
											C187,76.5,186.9,76.9,187.1,77.1z"/>
										<path fill="#88CA90" d="M183.8,79.9c0.2,0.3,0.6,0.3,0.9,0.1c0.3-0.2,0.3-0.6,0.1-0.9c-0.2-0.3-0.6-0.3-0.8-0.1
											C183.6,79.2,183.5,79.6,183.8,79.9"/>
										<path fill="#88CA90" d="M183.8,79.9c0.2,0.3,0.6,0.3,0.9,0.1c0.3-0.2,0.3-0.6,0.1-0.9c-0.2-0.3-0.6-0.3-0.8-0.1
											C183.6,79.2,183.5,79.6,183.8,79.9z"/>
										<path fill="#88CA90" d="M200.4,69.3c0.2,0.3,0.6,0.3,0.9,0.1c0.3-0.2,0.3-0.6,0.1-0.9c-0.2-0.3-0.6-0.3-0.8-0.1
											C200.2,68.6,200.2,69,200.4,69.3"/>
										<path fill="#88CA90" d="M200.4,69.3c0.2,0.3,0.6,0.3,0.9,0.1c0.3-0.2,0.3-0.6,0.1-0.9c-0.2-0.3-0.6-0.3-0.8-0.1
											C200.2,68.6,200.2,69,200.4,69.3z"/>
										<path fill="#88CA90" d="M197,72c0.2,0.3,0.6,0.3,0.9,0.1c0.3-0.2,0.3-0.6,0.1-0.9c-0.2-0.3-0.6-0.3-0.8-0.1
											C196.8,71.4,196.8,71.8,197,72"/>
										<path fill="#88CA90" d="M197,72c0.2,0.3,0.6,0.3,0.9,0.1c0.3-0.2,0.3-0.6,0.1-0.9c-0.2-0.3-0.6-0.3-0.8-0.1
											C196.8,71.4,196.8,71.8,197,72z"/>
										<path fill="#88CA90" d="M193.6,74.8c0.2,0.3,0.6,0.3,0.9,0.1c0.3-0.2,0.3-0.6,0.1-0.9c-0.2-0.3-0.6-0.3-0.8-0.1
											C193.4,74.2,193.4,74.5,193.6,74.8"/>
										<path fill="#88CA90" d="M193.6,74.8c0.2,0.3,0.6,0.3,0.9,0.1c0.3-0.2,0.3-0.6,0.1-0.9c-0.2-0.3-0.6-0.3-0.8-0.1
											C193.4,74.2,193.4,74.5,193.6,74.8z"/>
										<path fill="#88CA90" d="M190.2,77.6c0.2,0.3,0.6,0.3,0.9,0.1c0.3-0.2,0.3-0.6,0.1-0.9c-0.2-0.3-0.6-0.3-0.9-0.1
											C190.1,76.9,190,77.3,190.2,77.6"/>
										<path fill="#88CA90" d="M190.2,77.6c0.2,0.3,0.6,0.3,0.9,0.1c0.3-0.2,0.3-0.6,0.1-0.9c-0.2-0.3-0.6-0.3-0.9-0.1
											C190.1,76.9,190,77.3,190.2,77.6z"/>
										<path fill="#88CA90" d="M186.8,80.3c0.2,0.3,0.6,0.3,0.9,0.1c0.3-0.2,0.3-0.6,0.1-0.9c-0.2-0.3-0.6-0.3-0.8-0.1
											C186.7,79.7,186.6,80.1,186.8,80.3"/>
										<path fill="#88CA90" d="M186.8,80.3c0.2,0.3,0.6,0.3,0.9,0.1c0.3-0.2,0.3-0.6,0.1-0.9c-0.2-0.3-0.6-0.3-0.8-0.1
											C186.7,79.7,186.6,80.1,186.8,80.3z"/>
										<path fill="#88CA90" d="M183.4,83.1c0.2,0.3,0.6,0.3,0.9,0.1c0.3-0.2,0.3-0.6,0.1-0.9c-0.2-0.3-0.6-0.3-0.8-0.1
											C183.3,82.4,183.2,82.8,183.4,83.1"/>
										<path fill="#88CA90" d="M183.4,83.1c0.2,0.3,0.6,0.3,0.9,0.1c0.3-0.2,0.3-0.6,0.1-0.9c-0.2-0.3-0.6-0.3-0.8-0.1
											C183.3,82.4,183.2,82.8,183.4,83.1z"/>
										<path fill="#88CA90" d="M203.6,69.6c0.2,0.3,0.6,0.3,0.8,0.1c0.3-0.2,0.3-0.6,0.1-0.8c-0.2-0.3-0.6-0.3-0.8-0.1
											C203.4,69,203.4,69.4,203.6,69.6"/>
										<path fill="#88CA90" d="M203.6,69.6c0.2,0.3,0.6,0.3,0.8,0.1c0.3-0.2,0.3-0.6,0.1-0.8c-0.2-0.3-0.6-0.3-0.8-0.1
											C203.4,69,203.4,69.4,203.6,69.6z"/>
										<path fill="#88CA90" d="M200.2,72.4c0.2,0.3,0.6,0.3,0.8,0.1c0.3-0.2,0.3-0.6,0.1-0.9c-0.2-0.3-0.6-0.3-0.8-0.1
											C200,71.7,200,72.1,200.2,72.4"/>
										<circle fill="#88CA90" cx="200.7" cy="72" r="0.6"/>
										<path fill="#88CA90" d="M196.8,75.1c0.2,0.3,0.6,0.3,0.8,0.1c0.3-0.2,0.3-0.6,0.1-0.9c-0.2-0.3-0.6-0.3-0.8-0.1
											C196.6,74.5,196.6,74.9,196.8,75.1"/>
										<circle fill="#88CA90" cx="197.3" cy="74.8" r="0.6"/>
										<path fill="#88CA90" d="M193.4,77.9c0.2,0.3,0.6,0.3,0.8,0.1c0.3-0.2,0.3-0.6,0.1-0.9c-0.2-0.3-0.6-0.3-0.8-0.1
											C193.3,77.3,193.2,77.6,193.4,77.9"/>
										<path fill="#88CA90" d="M193.4,77.9c0.2,0.3,0.6,0.3,0.8,0.1c0.3-0.2,0.3-0.6,0.1-0.9c-0.2-0.3-0.6-0.3-0.8-0.1
											C193.3,77.3,193.2,77.6,193.4,77.9z"/>
										<path fill="#88CA90" d="M190,80.7c0.2,0.3,0.6,0.3,0.8,0.1c0.3-0.2,0.3-0.6,0.1-0.9c-0.2-0.3-0.6-0.3-0.9-0.1
											C189.9,80,189.8,80.4,190,80.7"/>
										<circle fill="#88CA90" cx="190.5" cy="80.3" r="0.6"/>
										<path fill="#88CA90" d="M186.6,83.4c0.2,0.3,0.6,0.3,0.8,0.1c0.3-0.2,0.3-0.6,0.1-0.9c-0.2-0.3-0.6-0.3-0.8-0.1
											C186.5,82.8,186.4,83.2,186.6,83.4"/>
										<path fill="#88CA90" d="M186.6,83.4c0.2,0.3,0.6,0.3,0.8,0.1c0.3-0.2,0.3-0.6,0.1-0.9c-0.2-0.3-0.6-0.3-0.8-0.1
											C186.5,82.8,186.4,83.2,186.6,83.4z"/>
										<path fill="#88CA90" d="M203.3,72.8c0.2,0.3,0.6,0.3,0.9,0.1c0.3-0.2,0.3-0.6,0.1-0.9c-0.2-0.3-0.6-0.3-0.8-0.1
											C203.1,72.2,203.1,72.6,203.3,72.8"/>
										<circle fill="#88CA90" cx="203.7" cy="72.4" r="0.6"/>
										<path fill="#88CA90" d="M199.9,75.6c0.2,0.3,0.6,0.3,0.9,0.1c0.3-0.2,0.3-0.6,0.1-0.9c-0.2-0.3-0.6-0.3-0.9-0.1
											C199.7,74.9,199.7,75.3,199.9,75.6"/>
										<path fill="#88CA90" d="M199.9,75.6c0.2,0.3,0.6,0.3,0.9,0.1c0.3-0.2,0.3-0.6,0.1-0.9c-0.2-0.3-0.6-0.3-0.9-0.1
											C199.7,74.9,199.7,75.3,199.9,75.6z"/>
										<path fill="#88CA90" d="M196.5,78.3c0.2,0.3,0.6,0.3,0.8,0.1c0.3-0.2,0.3-0.6,0.1-0.8c-0.2-0.3-0.6-0.3-0.9-0.1
											C196.3,77.7,196.3,78.1,196.5,78.3"/>
										<path fill="#88CA90" d="M196.5,78.3c0.2,0.3,0.6,0.3,0.8,0.1c0.3-0.2,0.3-0.6,0.1-0.8c-0.2-0.3-0.6-0.3-0.9-0.1
											C196.3,77.7,196.3,78.1,196.5,78.3z"/>
										<path fill="#88CA90" d="M193.1,81.1c0.2,0.3,0.6,0.3,0.8,0.1c0.3-0.2,0.3-0.6,0.1-0.8c-0.2-0.3-0.6-0.3-0.8-0.1
											C192.9,80.5,192.9,80.8,193.1,81.1"/>
										<path fill="#88CA90" d="M193.1,81.1c0.2,0.3,0.6,0.3,0.8,0.1c0.3-0.2,0.3-0.6,0.1-0.8c-0.2-0.3-0.6-0.3-0.8-0.1
											C192.9,80.5,192.9,80.8,193.1,81.1z"/>
										<path fill="#88CA90" d="M189.7,83.9c0.2,0.3,0.6,0.3,0.9,0.1c0.3-0.2,0.3-0.6,0.1-0.9c-0.2-0.3-0.6-0.3-0.9-0.1
											C189.5,83.2,189.5,83.6,189.7,83.9"/>
										<path fill="#88CA90" d="M189.7,83.9c0.2,0.3,0.6,0.3,0.9,0.1c0.3-0.2,0.3-0.6,0.1-0.9c-0.2-0.3-0.6-0.3-0.9-0.1
											C189.5,83.2,189.5,83.6,189.7,83.9z"/>
										<path fill="#88CA90" d="M186.3,86.6c0.2,0.3,0.6,0.3,0.9,0.1c0.3-0.2,0.3-0.6,0.1-0.8c-0.2-0.3-0.6-0.3-0.9-0.1
											C186.2,86,186.1,86.4,186.3,86.6"/>
										<path fill="#88CA90" d="M186.3,86.6c0.2,0.3,0.6,0.3,0.9,0.1c0.3-0.2,0.3-0.6,0.1-0.8c-0.2-0.3-0.6-0.3-0.9-0.1
											C186.2,86,186.1,86.4,186.3,86.6z"/>
									</g>
								</g>
							</g>
							<polygon fill="none" stroke="#595A5C" stroke-width="1.5777" stroke-miterlimit="10" points="166.6,36.2 165,31.8 
								154.4,40.3 158.3,42.9 190.3,82.4 191.9,86.8 202.5,78.2 198.6,75.6 							"/>
						</g>
					</g>
				</g>
			</g>
			<rect x="147.5" y="27.6" fill="none" width="59.3" height="63"/>
			<g>
				<g>
					<path fill="none" stroke="#505978" stroke-width="0.7827" stroke-miterlimit="10" d="M212.8,43.6l0.1-2.8
						c-1.2,0-2.3-0.8-2.6-1.9v-1.8c0.4-1.1,1.4-1.9,2.6-1.9l0-2.4c-1.2,0-2.2-0.7-2.6-1.8v-2c0.4-1.1,1.4-1.8,2.6-1.8l0-2.4h-2.6V22
						l-2.9,0c0,1.5-1.2,2.8-2.7,2.8c-1.5,0-2.7-1.3-2.7-2.8l-2.3,0c0,1.5-1.2,2.8-2.7,2.8c-1.5,0-2.7-1.3-2.7-2.8l-2.7-0.1
						c0,1.5-1.2,2.8-2.7,2.8c-1.5,0-2.7-1.3-2.7-2.8l-2.3,0.1c0,1.5-1.2,2.8-2.7,2.8c-1.5,0-2.7-1.3-2.7-2.8l-3.1,0
						c0,1.5-1.2,2.8-2.7,2.8s-2.7-1.3-2.7-2.8l-2.3-0.1c0,1.5-1.2,2.8-2.7,2.8c-1.5,0-2.7-1.3-2.7-2.8l-2.7-0.1
						c0,1.5-1.2,2.8-2.7,2.8c-1.5,0-2.7-1.3-2.7-2.8l-2.3,0c0,1.5-1.2,2.8-2.7,2.8c-1.5,0-2.7-1.3-2.7-2.8l-2.4,0v3h-2.6l0,2.4
						c1.2,0,2.2,0.7,2.6,1.8v2c-0.4,1.1-1.4,1.8-2.6,1.8l0,2.4c1.2,0,2.3,0.8,2.6,1.9v1.8c-0.4,1.1-1.4,1.9-2.6,1.9l0.1,2.8
						c1.1,0,2.1,0.7,2.6,1.7v2.3c-0.4,1-1.4,1.7-2.6,1.7l0.1,2.4c1.1,0,2,0.6,2.5,1.6v2.5c-0.5,0.9-1.4,1.6-2.5,1.6l0,3.2
						c1.1,0,2.1,0.7,2.5,1.6v2.4c-0.4,0.9-1.4,1.6-2.5,1.6l-0.1,2.4c1.2,0,2.2,0.7,2.6,1.7v2.2c-0.4,1-1.4,1.7-2.6,1.7l0.1,2.8
						c1.1,0,2,0.6,2.5,1.5v2.6c-0.5,0.9-1.4,1.5-2.5,1.5l0,2.4c1.1,0,2,0.6,2.4,1.4v2.7c-0.5,0.9-1.4,1.5-2.4,1.5l0,3h2.5v3l2.4,0
						c0-1.5,1.2-2.8,2.7-2.8c1.5,0,2.7,1.3,2.7,2.8l2.3,0c0-1.5,1.2-2.8,2.7-2.8c1.5,0,2.7,1.3,2.7,2.8l2.7-0.1
						c0-1.5,1.2-2.8,2.7-2.8c1.5,0,2.7,1.3,2.7,2.8l2.3-0.1c0-1.5,1.2-2.8,2.7-2.8s2.7,1.3,2.7,2.8l3.1,0c0-1.5,1.2-2.8,2.7-2.8
						c1.5,0,2.7,1.3,2.7,2.8l2.3,0.1c0-1.5,1.2-2.8,2.7-2.8c1.5,0,2.7,1.3,2.7,2.8l2.7-0.1c0-1.5,1.2-2.8,2.7-2.8
						c1.5,0,2.7,1.3,2.7,2.8l2.3,0c0-1.5,1.2-2.8,2.7-2.8c1.5,0,2.7,1.3,2.7,2.8l2.9,0v-2.8h2.5l0-3c-1.1,0-2-0.6-2.4-1.5v-2.7
						c0.5-0.9,1.4-1.4,2.4-1.4l0-2.4c-1.1,0-2-0.6-2.5-1.5v-2.6c0.5-0.9,1.4-1.5,2.5-1.5l0.1-2.8c-1.2,0-2.2-0.7-2.6-1.7v-2.2
						c0.4-1,1.4-1.7,2.6-1.7l-0.1-2.4c-1.1,0-2.1-0.7-2.5-1.6V62c0.4-0.9,1.4-1.6,2.5-1.6l0-3.2c-1.1,0-2-0.6-2.5-1.6v-2.5
						c0.5-0.9,1.4-1.6,2.5-1.6l0.1-2.4c-1.1,0-2.1-0.7-2.6-1.7v-2.3C210.7,44.3,211.7,43.6,212.8,43.6z"/>
					
						<rect x="147.5" y="27.6" fill="none" stroke="#505978" stroke-width="1.5655" stroke-miterlimit="10" width="59.3" height="63"/>
				</g>
			</g>
			<g>
				<g>
					<g>
						
							<path fill="none" stroke="#505978" stroke-width="0.9915" stroke-linecap="round" stroke-linejoin="round" stroke-miterlimit="10" d="
							M372.3,42.9l0.1-2.8c-1.2,0-2.3-0.8-2.7-1.9v-1.8c0.4-1.1,1.4-1.9,2.7-1.9l0-2.4c-1.2,0-2.2-0.7-2.6-1.8v-2
							c0.4-1,1.4-1.8,2.6-1.8l0-2.4h-2.7v-2.8l-2.9,0c0,1.5-1.2,2.8-2.7,2.8c-1.5,0-2.7-1.2-2.7-2.8l-2.3,0c0,1.5-1.2,2.8-2.7,2.8
							c-1.5,0-2.7-1.2-2.7-2.8l-2.7-0.1c0,1.5-1.2,2.8-2.7,2.8c-1.5,0-2.7-1.2-2.7-2.8l-2.3,0.1c0,1.5-1.2,2.8-2.7,2.8
							s-2.7-1.2-2.7-2.8l-3.1,0c0,1.5-1.2,2.8-2.7,2.8c-1.5,0-2.7-1.2-2.7-2.8l-2.3-0.1c0,1.5-1.2,2.8-2.7,2.8
							c-1.5,0-2.7-1.2-2.7-2.8l-2.7-0.1c0,1.5-1.2,2.8-2.7,2.8c-1.5,0-2.7-1.2-2.7-2.8l-2.3,0c0,1.5-1.2,2.8-2.7,2.8
							c-1.5,0-2.7-1.2-2.7-2.8l-2.4,0v3h-2.7l0,2.4c1.2,0,2.2,0.7,2.6,1.8v2c-0.4,1-1.4,1.8-2.6,1.8l0,2.4c1.2,0,2.3,0.8,2.7,1.9
							v1.8c-0.4,1.1-1.4,1.9-2.7,1.9l0.1,2.8c1.1,0,2.1,0.7,2.6,1.6v2.3c-0.4,1-1.4,1.6-2.6,1.6l0.1,2.4c1.1,0,2.1,0.6,2.5,1.5v2.5
							c-0.5,0.9-1.4,1.5-2.5,1.5l0,3.2c1.1,0,2.1,0.7,2.5,1.6v2.4c-0.5,0.9-1.4,1.6-2.5,1.6l-0.1,2.4c1.2,0,2.2,0.7,2.6,1.7v2.2
							c-0.4,1-1.4,1.7-2.6,1.7l0.1,2.8c1.1,0,2,0.6,2.5,1.5v2.6c-0.5,0.9-1.4,1.5-2.5,1.5l0,2.4c1.1,0,2,0.6,2.5,1.4v2.7
							c-0.5,0.9-1.4,1.4-2.5,1.4l0,3h2.5v3l2.4,0c0-1.5,1.2-2.8,2.7-2.8c1.5,0,2.7,1.2,2.7,2.8l2.3,0c0-1.5,1.2-2.8,2.7-2.8
							c1.5,0,2.7,1.2,2.7,2.8l2.7-0.1c0-1.5,1.2-2.8,2.7-2.8c1.5,0,2.7,1.2,2.7,2.8l2.3-0.1c0-1.5,1.2-2.8,2.7-2.8
							c1.5,0,2.7,1.2,2.7,2.8l3.1,0c0-1.5,1.2-2.8,2.7-2.8c1.5,0,2.7,1.2,2.7,2.8l2.3,0.1c0-1.5,1.2-2.8,2.7-2.8
							c1.5,0,2.7,1.2,2.7,2.8l2.7-0.1c0-1.5,1.2-2.8,2.7-2.8c1.5,0,2.7,1.2,2.7,2.8l2.3,0c0-1.5,1.2-2.8,2.7-2.8
							c1.5,0,2.7,1.2,2.7,2.8l2.9,0v-2.8h2.5l0-3c-1.1,0-2-0.6-2.5-1.4v-2.7c0.5-0.9,1.4-1.4,2.5-1.4l0-2.4c-1.1,0-2-0.6-2.5-1.5
							v-2.6c0.5-0.9,1.4-1.5,2.5-1.5l0.1-2.8c-1.2,0-2.2-0.7-2.6-1.7v-2.2c0.4-1,1.4-1.7,2.6-1.7l-0.1-2.4c-1.1,0-2.1-0.7-2.5-1.6
							v-2.4c0.5-0.9,1.4-1.6,2.5-1.6l0-3.2c-1.1,0-2.1-0.6-2.5-1.5v-2.5c0.5-0.9,1.4-1.5,2.5-1.5l0.1-2.4c-1.1,0-2.1-0.7-2.6-1.6
							v-2.3C370.1,43.6,371.1,42.9,372.3,42.9z"/>
						
							<rect x="306.4" y="27" fill="none" stroke="#505978" stroke-width="1.983" stroke-miterlimit="10" width="59.8" height="62.6"/>
					</g>
					<g>
						<path fill="#88CA90" stroke="#505978" stroke-miterlimit="10" d="M357.1,75.8c0,0.6-0.5,1.1-1.1,1.1h-39.1
							c-0.6,0-1.1-0.5-1.1-1.1v-34c0-0.6,0.5-1.1,1.1-1.1H356c0.6,0,1.1,0.5,1.1,1.1V75.8z"/>
						
							<line fill="none" stroke="#505978" stroke-width="1.6115" stroke-miterlimit="10" x1="345.2" y1="40.7" x2="345.2" y2="76.9"/>
						
							<rect x="340.9" y="59.2" fill="#FCF9F0" stroke="#505978" stroke-width="0.4958" stroke-miterlimit="10" width="9.3" height="2.4"/>
					</g>
				</g>
			</g>
		</g>
	</g>
	<g>
		<rect x="131" y="106.6" fill="none" width="85" height="43.5"/>
		<text transform="matrix(1 0 0 1 131.6523 112.4375)"><tspan x="0" y="0" fill="#939598" font-family="'Hero-Light'" font-size="9">Choose between a </tspan><tspan x="11.4" y="10.8" fill="#939598" font-family="'Hero-Light'" font-size="9">box of 18 or 24 </tspan><tspan x="21.6" y="21.6" fill="#939598" font-family="'Hero-Light'" font-size="9">tampons</tspan></text>
	</g>
	<g>
		<rect x="294" y="102.5" fill="none" width="85" height="43.5"/>
		<text transform="matrix(1 0 0 1 294.6309 108.3496)"><tspan x="0" y="0" fill="#939598" font-family="'Hero-Light'" font-size="9">Choose between a </tspan><tspan x="11.4" y="10.8" fill="#939598" font-family="'Hero-Light'" font-size="9">box of 18 or 24 </tspan><tspan x="31.1" y="21.6" fill="#939598" font-family="'Hero-Light'" font-size="9">pads</tspan></text>
	</g>
</g>
</svg>
