<?xml version="1.0" encoding="utf-8"?>
<!-- Generator: Adobe Illustrator 18.1.1, SVG Export Plug-In . SVG Version: 6.00 Build 0)  -->
<svg version="1.1" id="Layer_1" xmlns="http://www.w3.org/2000/svg" xmlns:xlink="http://www.w3.org/1999/xlink" x="0px" y="0px"
	 viewBox="0 0 510 171.2" enable-background="new 0 0 510 171.2" xml:space="preserve">
<g>
	<g>
		<g>
			<g>
				<g>
					<g>
						<defs>
							<rect id="SVGID_1_" x="50.1" y="11.6" width="60.8" height="64.6"/>
						</defs>
						<clipPath id="SVGID_2_">
							<use xlink:href="#SVGID_1_"  overflow="visible"/>
						</clipPath>
					</g>
					<g>
						<g>
							<path fill="none" stroke="#505978" stroke-linecap="round" stroke-linejoin="round" stroke-miterlimit="10" d="M117.1,28.1
								l0.1-2.9c-1.3,0-2.3-0.8-2.7-1.9v-1.8c0.4-1.1,1.4-1.9,2.7-1.9l0-2.5c-1.2,0-2.3-0.8-2.7-1.8v-2c0.4-1.1,1.4-1.8,2.7-1.8
								l0-2.5h-2.7V5.9l-3,0c0,1.6-1.2,2.9-2.8,2.9c-1.5,0-2.8-1.3-2.8-2.9l-2.4,0c0,1.6-1.2,2.9-2.8,2.9c-1.5,0-2.8-1.3-2.8-2.9
								l-2.8-0.1c0,1.6-1.2,2.9-2.8,2.9c-1.5,0-2.8-1.3-2.8-2.9l-2.4,0.1c0,1.6-1.2,2.9-2.8,2.9c-1.5,0-2.8-1.3-2.8-2.9l-3.1,0
								c0,1.6-1.2,2.9-2.8,2.9c-1.5,0-2.8-1.3-2.8-2.9l-2.4-0.1c0,1.6-1.2,2.9-2.8,2.9c-1.5,0-2.8-1.3-2.8-2.9l-2.8-0.1
								c0,1.6-1.2,2.9-2.8,2.9c-1.5,0-2.8-1.3-2.8-2.9l-2.4,0c0,1.6-1.2,2.9-2.8,2.9c-1.5,0-2.8-1.3-2.8-2.9l-2.4,0v3.1h-2.7l0,2.5
								c1.2,0,2.3,0.8,2.7,1.8v2c-0.4,1.1-1.4,1.8-2.7,1.8l0,2.5c1.3,0,2.3,0.8,2.7,1.9v1.9c-0.4,1.1-1.4,1.9-2.7,1.9l0.1,2.9
								c1.2,0,2.2,0.7,2.6,1.7v2.3c-0.4,1-1.4,1.7-2.6,1.7l0.1,2.4c1.1,0,2.1,0.7,2.6,1.6v2.6C46.1,41.4,45.1,42,44,42l0,3.3
								c1.1,0,2.1,0.7,2.6,1.6v2.4c-0.5,1-1.4,1.6-2.6,1.6l-0.1,2.4c1.2,0,2.2,0.7,2.6,1.8v2.2c-0.4,1-1.5,1.8-2.6,1.8l0.1,2.9
								c1.1,0,2,0.6,2.5,1.5v2.7c-0.5,0.9-1.4,1.5-2.5,1.5l0,2.4c1.1,0,2,0.6,2.5,1.5v2.8C46,75.4,45.1,76,44,76l0,3.1h2.5v3.1
								l2.4,0c0-1.6,1.2-2.9,2.8-2.9c1.5,0,2.8,1.3,2.8,2.9l2.4,0c0-1.6,1.2-2.9,2.8-2.9c1.5,0,2.8,1.3,2.8,2.9l2.8-0.1
								c0-1.6,1.2-2.9,2.8-2.9c1.5,0,2.8,1.3,2.8,2.9l2.4-0.1c0-1.6,1.2-2.9,2.8-2.9c1.5,0,2.8,1.3,2.8,2.9l3.1,0
								c0-1.6,1.2-2.9,2.8-2.9c1.5,0,2.8,1.3,2.8,2.9l2.4,0.1c0-1.6,1.2-2.9,2.8-2.9c1.5,0,2.8,1.3,2.8,2.9L98,82
								c0-1.6,1.2-2.9,2.8-2.9c1.5,0,2.8,1.3,2.8,2.9l2.4,0c0-1.6,1.2-2.9,2.8-2.9c1.5,0,2.8,1.3,2.8,2.9l3,0v-2.9h2.5l0-3.1
								c-1.1,0-2-0.6-2.5-1.5v-2.8c0.5-0.9,1.4-1.5,2.5-1.5l0-2.4c-1.1,0-2-0.6-2.5-1.5v-2.7c0.5-0.9,1.4-1.5,2.5-1.5l0.1-2.9
								c-1.2,0-2.2-0.7-2.6-1.8v-2.2c0.4-1,1.5-1.8,2.6-1.8l-0.1-2.4c-1.1,0-2.1-0.7-2.6-1.6v-2.4c0.5-1,1.4-1.6,2.6-1.6l0-3.3
								c-1.1,0-2.1-0.6-2.6-1.6v-2.5c0.5-0.9,1.4-1.6,2.6-1.6l0.1-2.4c-1.2,0-2.2-0.7-2.6-1.7v-2.3
								C114.9,28.8,115.9,28.1,117.1,28.1z"/>
							
								<rect x="50.1" y="11.6" fill="#8FCD94" stroke="#505978" stroke-width="2" stroke-miterlimit="10" width="60.8" height="64.6"/>
						</g>
					</g>
				</g>
				<g>
					<path fill-rule="evenodd" clip-rule="evenodd" fill="#FFFFFF" d="M95.2,16.5h4.7c0,0.2,0.1,0.4,0.1,0.6c0,7.8,0,15.7,0,23.5
						c0,2.5-0.3,4.9-1,7.3c-1.6,5.5-5.1,9-10.5,10.8c-1.9,0.6-4,0.9-6,1c-3.8,0-7.6-0.5-11-2.3c-3.6-2-5.8-5-6.8-8.9
						c-0.5-1.7-0.7-3.5-0.8-5.3c-0.1-2.4-0.2-4.9-0.2-7.3c-0.1-4.3-0.1-8.6-0.2-12.9c0-2,0.7-3.7,2.2-5.1c1.2-1.2,2.7-1.7,4.3-1.9
						c0.8-0.1,1.6,0,2.4,0c0,0.3,0.1,0.6,0.1,0.9c0.1,6.9,0.1,13.8,0.2,20.6c0.1,2.8,0,5.7,0.7,8.5c0.4,1.5,0.9,2.8,1.7,4.1
						c1.2,1.9,2.8,3.2,4.8,3.9c2.6,0.9,5.3,1.1,8,0.3c2.7-0.7,4.5-2.5,5.6-4.9c0.9-1.9,1.4-3.8,1.5-5.9c0.1-1.6,0.2-3.2,0.2-4.8
						c0-7,0-14.1,0-21.2V16.5z"/>
					<path fill-rule="evenodd" clip-rule="evenodd" fill="#FFFFFF" d="M67.6,69.6c-0.6,0.4-0.8,0.8-0.8,1.5c0,0.5,0,0.9,0,1.5h-1.4
						c0-3.2,0-6.4-0.1-9.6c0.7,0,1.1,0.2,1.2,0.8c0.1,0.5,0.2,1,0.2,1.5c0,0.9,0,1.7,0.2,2.6c0.5-0.7,1-1.4,1.5-2
						c0.7-0.9,1.7-1.3,2.8-1.1c-1,1.2-2,2.3-3,3.5c1.3,1.8,2.5,3.6,4.3,5c-1,0.2-1.8,0-2.5-0.6c-0.4-0.3-0.7-0.7-1-1.1
						C68.6,70.9,68.1,70.2,67.6,69.6"/>
					<path fill-rule="evenodd" clip-rule="evenodd" fill="#FFFFFF" d="M91.4,69.6h-5.8c-0.2,0.7,0.2,1.2,0.6,1.5
						c0.9,0.7,1.8,0.8,2.8,0.2C89.7,71,90.3,71,91,71c-0.6,1.5-2.9,2.2-4.7,1.5c-1.6-0.6-2.5-2.5-2-4.3c0.5-1.8,2.3-2.8,4.4-2.3
						C90.5,66.3,91.6,67.7,91.4,69.6 M90.1,68.5c-0.5-1.2-1.3-1.8-2.5-1.6c-1,0.1-1.7,0.7-1.9,1.6H90.1z"/>
					<path fill-rule="evenodd" clip-rule="evenodd" fill="#FFFFFF" d="M79.1,69.3c0.2,1.6-1.5,3.5-3.6,3.5c-2.1,0-3.7-1.5-3.7-3.5
						c0-1.9,1.6-3.6,3.6-3.5C77.8,65.9,79.1,67.6,79.1,69.3 M75.4,67.1c-1.3-0.1-2.2,1-2.3,2.2c-0.1,1.3,1,2.4,2.2,2.4
						c1.3,0,2.3-1,2.3-2.3C77.7,68,76.7,67.1,75.4,67.1"/>
					<path fill-rule="evenodd" clip-rule="evenodd" fill="#FFFFFF" d="M94.8,69C94,67.8,93.1,66.8,92,66c1.7-0.3,2.7,0.6,3.6,1.8
						c0.5-0.5,1-1,1.6-1.4c0.6-0.4,1.3-0.5,2.1-0.4c-1.1,1-2,1.9-2.8,3.1c1,1.3,1.9,2.7,3.3,3.7c-1.5,0.3-2.5-0.3-3.2-1.3
						c-0.3-0.4-0.6-0.7-0.9-1.2c-0.4,0.5-0.6,0.8-0.9,1.2c-0.8,1-1.7,1.6-3.2,1.3C92.9,71.7,93.8,70.4,94.8,69"/>
					<path fill-rule="evenodd" clip-rule="evenodd" fill="#FFFFFF" d="M81.1,67c-0.6,0-0.9-0.1-1.3-0.1c0-0.9,0.7-1,1.3-1.3
						c0-0.6,0.1-1.2,0.1-1.8c1.3,0.1,1.2,1.1,1.4,1.9c0.4,0,0.9,0.1,1.3,0.1c0.1,1-0.7,1-1.4,1.2v5.5c-0.3,0-0.5,0.1-0.6,0.1
						c-0.2,0-0.4,0-0.7,0c-0.1-0.9,0-1.9,0-2.8C81.1,68.9,81.1,67.9,81.1,67"/>
					<path fill-rule="evenodd" clip-rule="evenodd" fill="#FFFFFF" d="M57.7,65.2c0-1.2,0-2.4,0-3.6c0-0.1,0.2-0.2,0.3-0.4
						c0.1,0.1,0.3,0.2,0.3,0.3c0.1,0.3,0.1,0.7,0.1,1c0.2,0,0.2,0.1,0.3,0.1c1.2-0.2,1.9,0.5,1.6,1.7c-0.2,0.7-0.6,1-1.3,1
						C58.6,65.3,58.2,65.2,57.7,65.2 M59.6,64c0-0.2-0.1-0.4-0.2-0.6c-0.1-0.3-0.4-0.5-0.6-0.3c-0.2,0.1-0.4,0.3-0.4,0.5
						c0,0.3,0,0.6,0.1,0.9c0,0.2,0.3,0.3,0.4,0.4c0.2,0,0.4-0.1,0.5-0.3C59.5,64.4,59.5,64.2,59.6,64"/>
					<path fill-rule="evenodd" clip-rule="evenodd" fill="#FFFFFF" d="M63.5,62.6c-0.4,1.2-0.7,2.2-1,3.2c-0.1,0.3-0.4,0.5-0.7,0.6
						c-0.3,0.2-0.7,0.1-0.9-0.3c0.3-0.3,1,0,1.1-0.8c-0.6-0.7-0.8-1.7-1.1-2.7c0.4-0.2,0.7-0.1,0.8,0.3c0.2,0.4,0.3,0.9,0.5,1.3
						C62.8,64,62.2,62.8,63.5,62.6"/>
				</g>
			</g>
			<g>
				<g>
					<defs>
						<rect id="SVGID_3_" x="131.9" y="11.6" width="60.8" height="64.6"/>
					</defs>
					<clipPath id="SVGID_4_">
						<use xlink:href="#SVGID_3_"  overflow="visible"/>
					</clipPath>
				</g>
				<path fill="none" stroke="#505978" stroke-linecap="round" stroke-linejoin="round" stroke-miterlimit="10" d="M198.9,28.1
					l0.1-2.9c-1.3,0-2.3-0.8-2.7-1.9v-1.8c0.4-1.1,1.4-1.9,2.7-1.9l0-2.5c-1.2,0-2.3-0.8-2.7-1.8v-2c0.4-1.1,1.4-1.8,2.7-1.8l0-2.5
					h-2.7V5.9l-3,0c0,1.6-1.2,2.9-2.8,2.9c-1.5,0-2.8-1.3-2.8-2.9l-2.4,0c0,1.6-1.2,2.9-2.8,2.9c-1.5,0-2.8-1.3-2.8-2.9l-2.8-0.1
					c0,1.6-1.2,2.9-2.8,2.9c-1.5,0-2.8-1.3-2.8-2.9l-2.4,0.1c0,1.6-1.2,2.9-2.8,2.9c-1.5,0-2.8-1.3-2.8-2.9l-3.1,0
					c0,1.6-1.2,2.9-2.8,2.9c-1.5,0-2.8-1.3-2.8-2.9l-2.4-0.1c0,1.6-1.2,2.9-2.8,2.9c-1.5,0-2.8-1.3-2.8-2.9l-2.8-0.1
					c0,1.6-1.2,2.9-2.8,2.9c-1.5,0-2.8-1.3-2.8-2.9l-2.4,0c0,1.6-1.2,2.9-2.8,2.9c-1.5,0-2.8-1.3-2.8-2.9l-2.4,0v3.1h-2.7l0,2.5
					c1.2,0,2.3,0.8,2.7,1.8v2c-0.4,1.1-1.4,1.8-2.7,1.8l0,2.5c1.3,0,2.3,0.8,2.7,1.9v1.9c-0.4,1.1-1.4,1.9-2.7,1.9l0.1,2.9
					c1.2,0,2.2,0.7,2.6,1.7v2.3c-0.4,1-1.4,1.7-2.6,1.7l0.1,2.4c1.1,0,2.1,0.7,2.6,1.6v2.6c-0.5,0.9-1.4,1.6-2.6,1.6l0,3.3
					c1.1,0,2.1,0.7,2.6,1.6v2.4c-0.5,1-1.4,1.6-2.6,1.6l-0.1,2.4c1.2,0,2.2,0.7,2.6,1.8v2.2c-0.4,1-1.5,1.8-2.6,1.8l0.1,2.9
					c1.1,0,2,0.6,2.5,1.5v2.7c-0.5,0.9-1.4,1.5-2.5,1.5l0,2.4c1.1,0,2,0.6,2.5,1.5v2.8c-0.5,0.9-1.4,1.5-2.5,1.5l0,3.1h2.5v3.1
					l2.4,0c0-1.6,1.2-2.9,2.8-2.9c1.5,0,2.8,1.3,2.8,2.9l2.4,0c0-1.6,1.2-2.9,2.8-2.9c1.5,0,2.8,1.3,2.8,2.9l2.8-0.1
					c0-1.6,1.2-2.9,2.8-2.9c1.5,0,2.8,1.3,2.8,2.9l2.4-0.1c0-1.6,1.2-2.9,2.8-2.9c1.5,0,2.8,1.3,2.8,2.9l3.1,0
					c0-1.6,1.2-2.9,2.8-2.9c1.5,0,2.8,1.3,2.8,2.9l2.4,0.1c0-1.6,1.2-2.9,2.8-2.9c1.5,0,2.8,1.3,2.8,2.9l2.8-0.1
					c0-1.6,1.2-2.9,2.8-2.9c1.5,0,2.8,1.3,2.8,2.9l2.4,0c0-1.6,1.2-2.9,2.8-2.9c1.5,0,2.8,1.3,2.8,2.9l3,0v-2.9h2.5l0-3.1
					c-1.1,0-2-0.6-2.5-1.5v-2.8c0.5-0.9,1.4-1.5,2.5-1.5l0-2.4c-1.1,0-2-0.6-2.5-1.5v-2.7c0.5-0.9,1.4-1.5,2.5-1.5l0.1-2.9
					c-1.2,0-2.2-0.7-2.6-1.8v-2.2c0.4-1,1.5-1.8,2.6-1.8l-0.1-2.4c-1.1,0-2.1-0.7-2.6-1.6v-2.4c0.5-1,1.4-1.6,2.6-1.6l0-3.3
					c-1.1,0-2.1-0.6-2.6-1.6v-2.5c0.5-0.9,1.4-1.6,2.6-1.6l0.1-2.4c-1.2,0-2.2-0.7-2.6-1.7v-2.3C196.7,28.8,197.7,28.1,198.9,28.1z"
					/>
				
					<rect x="131.9" y="11.6" fill="#8FCD94" stroke="#505978" stroke-width="2" stroke-miterlimit="10" width="60.8" height="64.6"/>
				<g>
					<g>
						<g>
							<g>
								<path fill-rule="evenodd" clip-rule="evenodd" fill="#FFFFFF" d="M150.7,33.9c-5.4,0-9.7,4.4-9.7,9.7c0,5.4,4.4,9.7,9.7,9.7
									c5.4,0,9.7-4.4,9.7-9.7C160.4,38.2,156.1,33.9,150.7,33.9 M150.7,47.8c-2.3,0-4.2-1.9-4.2-4.2c0-2.3,1.9-4.2,4.2-4.2
									c2.3,0,4.2,1.9,4.2,4.2C154.9,45.9,153,47.8,150.7,47.8"/>
							</g>
						</g>
						<g>
							<path fill-rule="evenodd" clip-rule="evenodd" fill="#FFFFFF" d="M160.6,53.3c1.1,0,1.9-0.9,1.9-1.9c0-1.1-0.9-1.9-1.9-1.9
								c-1.1,0-1.9,0.9-1.9,1.9C158.7,52.4,159.5,53.3,160.6,53.3"/>
						</g>
						<g>
							<path fill-rule="evenodd" clip-rule="evenodd" fill="#FFFFFF" d="M181.2,53.3c1.1,0,1.9-0.9,1.9-1.9c0-1.1-0.9-1.9-1.9-1.9
								c-1.1,0-1.9,0.9-1.9,1.9C179.3,52.4,180.1,53.3,181.2,53.3"/>
						</g>
						<g>
							<g>
								<path fill-rule="evenodd" clip-rule="evenodd" fill="#FFFFFF" d="M171.8,33.9c-1.5,0-2.9,0.3-4.2,1v-2.2c0-3,0-5.7-2.8-5.8
									c-2.7,0-2.8,2.7-2.8,5.8c0,0,0.1,10.4,0.1,10.9c0,5.4,4.4,9.7,9.7,9.7c5.4,0,9.7-4.4,9.7-9.7
									C181.5,38.2,177.2,33.9,171.8,33.9 M171.8,47.8c-2.3,0-4.2-1.9-4.2-4.2c0-2.3,1.9-4.2,4.2-4.2c2.3,0,4.2,1.9,4.2,4.2
									C176,45.9,174.1,47.8,171.8,47.8"/>
							</g>
						</g>
					</g>
				</g>
			</g>
			<g>
				<g>
					<defs>
						<rect id="SVGID_5_" x="213.2" y="11.6" width="60.8" height="64.6"/>
					</defs>
					<clipPath id="SVGID_6_">
						<use xlink:href="#SVGID_5_"  overflow="visible"/>
					</clipPath>
				</g>
				<path fill="none" stroke="#505978" stroke-linecap="round" stroke-linejoin="round" stroke-miterlimit="10" d="M280.2,28.1
					l0.1-2.9c-1.3,0-2.3-0.8-2.7-1.9v-1.8c0.4-1.1,1.4-1.9,2.7-1.9l0-2.5c-1.2,0-2.3-0.8-2.7-1.8v-2c0.4-1.1,1.5-1.8,2.7-1.8l0-2.5
					h-2.7V5.9l-3,0c0,1.6-1.2,2.9-2.8,2.9c-1.5,0-2.8-1.3-2.8-2.9l-2.4,0c0,1.6-1.2,2.9-2.8,2.9c-1.5,0-2.8-1.3-2.8-2.9l-2.8-0.1
					c0,1.6-1.2,2.9-2.8,2.9c-1.5,0-2.8-1.3-2.8-2.9l-2.4,0.1c0,1.6-1.2,2.9-2.8,2.9c-1.5,0-2.8-1.3-2.8-2.9l-3.1,0
					c0,1.6-1.2,2.9-2.8,2.9c-1.5,0-2.8-1.3-2.8-2.9l-2.4-0.1c0,1.6-1.2,2.9-2.8,2.9c-1.5,0-2.8-1.3-2.8-2.9l-2.8-0.1
					c0,1.6-1.2,2.9-2.8,2.9c-1.5,0-2.8-1.3-2.8-2.9l-2.4,0c0,1.6-1.2,2.9-2.8,2.9c-1.5,0-2.8-1.3-2.8-2.9l-2.4,0v3.1h-2.7l0,2.5
					c1.2,0,2.3,0.8,2.7,1.8v2c-0.4,1.1-1.5,1.8-2.7,1.8l0,2.5c1.3,0,2.3,0.8,2.7,1.9v1.9c-0.4,1.1-1.4,1.9-2.7,1.9l0.1,2.9
					c1.2,0,2.2,0.7,2.6,1.7v2.3c-0.4,1-1.4,1.7-2.6,1.7l0.1,2.4c1.1,0,2.1,0.7,2.6,1.6v2.6c-0.5,0.9-1.4,1.6-2.6,1.6l0,3.3
					c1.1,0,2.1,0.7,2.6,1.6v2.4c-0.5,1-1.4,1.6-2.6,1.6l-0.1,2.4c1.2,0,2.2,0.7,2.6,1.8v2.2c-0.4,1-1.5,1.8-2.6,1.8l0.1,2.9
					c1.1,0,2,0.6,2.5,1.5v2.7c-0.5,0.9-1.4,1.5-2.5,1.5l0,2.4c1.1,0,2,0.6,2.5,1.5v2.8c-0.5,0.9-1.4,1.5-2.5,1.5l0,3.1h2.5v3.1
					l2.4,0c0-1.6,1.2-2.9,2.8-2.9c1.5,0,2.8,1.3,2.8,2.9l2.4,0c0-1.6,1.2-2.9,2.8-2.9c1.5,0,2.8,1.3,2.8,2.9l2.8-0.1
					c0-1.6,1.2-2.9,2.8-2.9c1.5,0,2.8,1.3,2.8,2.9l2.4-0.1c0-1.6,1.2-2.9,2.8-2.9c1.5,0,2.8,1.3,2.8,2.9l3.1,0
					c0-1.6,1.2-2.9,2.8-2.9c1.5,0,2.8,1.3,2.8,2.9l2.4,0.1c0-1.6,1.2-2.9,2.8-2.9c1.5,0,2.8,1.3,2.8,2.9l2.8-0.1
					c0-1.6,1.2-2.9,2.8-2.9c1.5,0,2.8,1.3,2.8,2.9l2.4,0c0-1.6,1.2-2.9,2.8-2.9c1.5,0,2.8,1.3,2.8,2.9l3,0v-2.9h2.5l0-3.1
					c-1.1,0-2-0.6-2.5-1.5v-2.8c0.5-0.9,1.4-1.5,2.5-1.5l0-2.4c-1.1,0-2-0.6-2.5-1.5v-2.7c0.5-0.9,1.4-1.5,2.5-1.5l0.1-2.9
					c-1.2,0-2.2-0.7-2.6-1.8v-2.2c0.4-1,1.5-1.8,2.6-1.8l-0.1-2.4c-1.1,0-2.1-0.7-2.6-1.6v-2.4c0.5-1,1.4-1.6,2.6-1.6l0-3.3
					c-1.1,0-2.1-0.6-2.6-1.6v-2.5c0.5-0.9,1.4-1.6,2.6-1.6l0.1-2.4c-1.2,0-2.2-0.7-2.6-1.7v-2.3C278,28.8,279,28.1,280.2,28.1z"/>
				
					<rect x="213.2" y="11.6" fill="#8FCD94" stroke="#505978" stroke-width="2" stroke-miterlimit="10" width="60.8" height="64.6"/>
				<g>
					<g>
						<g>
							<path fill="#FFFFFF" d="M217.5,38.7c-0.2,0-0.4,0.2-0.5,0.4l-0.1,0.2c0,0-0.1,0.2-0.1,0.2c-0.1,0.5,0.1,0.5,0.3,0.5
								c0.1-0.1,0.3-0.1,0.7-0.1h2.4v5.7c0,0.5,0,1.5-0.2,1.8l-0.2,0.2c0,0-0.2,0.3,0.2,0.4h2.5c0.3-0.1,0.2-0.3,0.1-0.4
								c-0.3-0.3-0.3-1.4-0.3-2V40h1.7c2.5-0.1,2.3-1.1,2.3-1.1c-0.1-0.2-0.4-0.1-0.5-0.1H217.5z"/>
						</g>
						<g>
							<g>
								<path fill="#FFFFFF" d="M270.3,47.5c-0.1-0.1-1.1-1.5-1.3-1.8c0,0-1.8-2.6-2.1-3c0.1-0.1,2.2-3,2.2-3s0.3-0.5,0.5-0.7
									c0.1-0.1,0.2-0.3,0-0.3l-1,0c-0.2,0-0.1,0.3-0.1,0.3c0,0.1-1.3,1.7-2.1,2.9c0,0-0.4-0.6-0.4-0.6c-0.2-0.3-1.4-2.3-1.4-2.3
									c-0.3-0.4-0.6-0.4-0.8-0.4l-1.8,0c-0.2,0-0.2,0.3,0.1,0.4c0,0,0.1,0.1,0.2,0.2c0.5,0.8,2.5,4,2.7,4.2
									c-0.1,0.1-1.6,2.5-1.6,2.5c-0.2,0.3-0.6,0.9-0.9,1.3l-0.5-1.1c-0.2-0.3-2.1-4.7-3-7.2c-0.1-0.2-0.2-0.3-0.4-0.3h-1.6
									c-0.3,0-0.3,0.4-0.3,0.4c-0.1,0.4-3.6,7.7-3.8,8.1c-0.1,0.2-0.2,0.2-0.2,0.4c0,0.1,0,0.4,0.2,0.4h1.1c0.3,0,0.2-0.3,0.1-0.4
									c0-0.1,0-0.3,0.1-0.5c0.1-0.3,0.3-0.9,0.5-1.5h4.6c0.3,0.8,0.6,1.3,0.6,1.5l0.3,0.5c0,0-0.1,0.3,0.2,0.3l2.1,0
									c0,0,0.1,0,0.1,0l1.1,0c0.3,0,0.1-0.4,0.1-0.4l0-0.1c0.1-0.3,0.5-0.9,0.7-1.3c0.2-0.4,0.9-1.4,1.2-1.7
									c0.2,0.2,2.1,2.9,2.1,2.9c0.3,0.4-0.2,0.7,0.4,0.7h2.1c0.3,0,0.5,0,0.5-0.1C270.5,47.7,270.4,47.6,270.3,47.5 M244.8,47.6
									c-0.2-0.3-0.3-1.5-0.3-2.1l0-4.5l0-0.2c0-0.3,0-0.9,0-1.1c0-0.2,0.2-0.7,0.2-0.7s0.3-0.4-0.1-0.4h-0.7l-0.9,0
									c-0.6,0-1,0.4-1.2,0.8c0,0-1.8,4.1-2.2,4.9c-0.2-0.5-2.6-4.9-2.6-4.9c-0.1-0.3-0.4-0.7-0.9-0.7l-0.7,0l-1.3,0
									c-0.2,0-0.2,0.3-0.1,0.4c0,0.1,0.2,0.2,0.2,0.5c0,0.2,0,0.6,0,0.6c0,0,0,4.4,0,4.4c0,1.3-0.1,2-0.1,2.3
									c0,0.2-0.1,0.6-0.2,0.7c0,0,0,0-0.1,0.1c-0.1-0.1-0.2-0.2-0.2-0.2l-0.5-1.2c-0.2-0.3-2.1-4.7-3-7.2
									c-0.1-0.2-0.2-0.3-0.4-0.3h-1.6c-0.3,0-0.3,0.4-0.3,0.4c-0.1,0.4-3.6,7.7-3.8,8.1c-0.1,0.2-0.2,0.3-0.2,0.4
									c0,0.1,0,0.4,0.2,0.4h1c0.3,0,0.1-0.4,0.1-0.4l0.1-0.5c0.1-0.5,0.3-0.9,0.5-1.5h4.5c0.3,0.8,0.6,1.3,0.7,1.5l0.3,0.5
									c0,0-0.1,0.3,0.2,0.3h2.2c0.1,0,0.2,0,0.3,0c0,0,0.1,0,0.2,0h1c0.4,0,0.1-0.2,0.1-0.4c-0.1-0.4-0.1-1.8-0.1-2.4
									c0,0,0-3.8,0-4.5c0.4,0.7,3.8,7,3.8,7s2.9-5.9,3.4-7c0,0.8,0,5,0,5c0,0.6,0,1.5-0.1,1.8c-0.2,0.2-0.2,0.5,0.1,0.5h2.2
									C244.8,47.9,244.9,47.8,244.8,47.6 M226.3,44.8c0.1-0.3,1.9-4.3,2.1-4.8c0.1,0.3,1.7,4.5,1.8,4.8H226.3z M254.8,44.7
									c0.1-0.3,2-4.3,2.2-4.7c0.1,0.3,1.6,4.4,1.7,4.7H254.8z"/>
							</g>
						</g>
						<g>
							<path fill="#FFFFFF" d="M254,41.7c0,1.8-1.4,3.1-3.4,3.1c-0.8,0-1.2-0.2-1.2-0.7c0,0,0.1,0.1,0.6,0.1c1.1,0,2-0.7,2-2.5
								c0-0.8-0.4-2.2-2.2-2.2c0,0-1,0-1.2,0c0,0.4,0,6.2,0,6.2c0,0.6,0,1.5,0.3,1.9c0.1,0.1,0.1,0.2,0.1,0.2c-0.1,0.1-0.2,0-0.2,0
								h-2.5c-0.1,0-0.3,0-0.2-0.1c0-0.1,0.1-0.1,0.1-0.2c0.3-0.4,0.3-1.3,0.3-2l0-4.8c0-0.3-0.1-1-0.1-1.2c0-0.2-0.1-0.4-0.3-0.7
								c0,0,0-0.1,0-0.1c0-0.1,0.1-0.1,0.2-0.1h1.2l1.1,0l2.1,0C253.1,38.7,254,40.3,254,41.7"/>
						</g>
					</g>
				</g>
			</g>
		</g>
		<g>
			<g>
				<g>
					<defs>
						<rect id="SVGID_7_" x="213.1" y="95" width="60.8" height="64.6"/>
					</defs>
					<clipPath id="SVGID_8_">
						<use xlink:href="#SVGID_7_"  overflow="visible"/>
					</clipPath>
				</g>
				<path fill="none" stroke="#505978" stroke-linecap="round" stroke-linejoin="round" stroke-miterlimit="10" d="M280.1,111.5
					l0.1-2.9c-1.3,0-2.3-0.8-2.7-1.9v-1.8c0.4-1.1,1.4-1.9,2.7-1.9l0-2.5c-1.2,0-2.3-0.8-2.7-1.8v-2c0.4-1.1,1.4-1.8,2.7-1.8l0-2.5
					h-2.7v-2.9l-3,0c0,1.6-1.2,2.9-2.8,2.9c-1.5,0-2.8-1.3-2.8-2.9l-2.4,0c0,1.6-1.2,2.9-2.8,2.9c-1.5,0-2.8-1.3-2.8-2.9l-2.8-0.1
					c0,1.6-1.2,2.9-2.8,2.9c-1.5,0-2.8-1.3-2.8-2.9l-2.4,0.1c0,1.6-1.2,2.9-2.8,2.9c-1.5,0-2.8-1.3-2.8-2.9l-3.1,0
					c0,1.6-1.2,2.9-2.8,2.9c-1.5,0-2.8-1.3-2.8-2.9l-2.4-0.1c0,1.6-1.2,2.9-2.8,2.9c-1.5,0-2.8-1.3-2.8-2.9l-2.8-0.1
					c0,1.6-1.2,2.9-2.8,2.9c-1.5,0-2.8-1.3-2.8-2.9l-2.4,0c0,1.6-1.2,2.9-2.8,2.9c-1.5,0-2.8-1.3-2.8-2.9l-2.4,0v3.1h-2.7l0,2.5
					c1.2,0,2.3,0.8,2.7,1.8v2c-0.4,1.1-1.5,1.8-2.7,1.8l0,2.5c1.3,0,2.3,0.8,2.7,1.9v1.9c-0.4,1.1-1.4,1.9-2.7,1.9l0.1,2.9
					c1.2,0,2.2,0.7,2.6,1.7v2.3c-0.4,1-1.4,1.7-2.6,1.7l0.1,2.4c1.1,0,2.1,0.7,2.6,1.6v2.5c-0.5,0.9-1.4,1.6-2.6,1.6l0,3.3
					c1.1,0,2.1,0.7,2.6,1.6v2.4c-0.5,1-1.4,1.6-2.6,1.6l-0.1,2.4c1.2,0,2.2,0.7,2.6,1.8v2.2c-0.4,1-1.5,1.8-2.6,1.8l0.1,2.9
					c1.1,0,2,0.6,2.5,1.5v2.7c-0.5,0.9-1.4,1.5-2.5,1.5l0,2.4c1.1,0,2,0.6,2.5,1.5v2.8c-0.5,0.9-1.4,1.5-2.5,1.5l0,3.1h2.5v3.1
					l2.4,0c0-1.6,1.2-2.9,2.8-2.9c1.5,0,2.8,1.3,2.8,2.9l2.4,0c0-1.6,1.2-2.9,2.8-2.9c1.5,0,2.8,1.3,2.8,2.9l2.8-0.1
					c0-1.6,1.2-2.9,2.8-2.9c1.5,0,2.8,1.3,2.8,2.9l2.4-0.1c0-1.6,1.2-2.9,2.8-2.9c1.5,0,2.8,1.3,2.8,2.9l3.1,0
					c0-1.6,1.2-2.9,2.8-2.9c1.5,0,2.8,1.3,2.8,2.9l2.4,0.1c0-1.6,1.2-2.9,2.8-2.9c1.5,0,2.8,1.3,2.8,2.9l2.8-0.1
					c0-1.6,1.2-2.9,2.8-2.9c1.5,0,2.8,1.3,2.8,2.9l2.4,0c0-1.6,1.2-2.9,2.8-2.9c1.5,0,2.8,1.3,2.8,2.9l3,0v-2.9h2.5l0-3.1
					c-1.1,0-2-0.6-2.5-1.5v-2.8c0.5-0.9,1.4-1.5,2.5-1.5l0-2.4c-1.1,0-2-0.6-2.5-1.5V147c0.5-0.9,1.4-1.5,2.5-1.5l0.1-2.9
					c-1.2,0-2.2-0.7-2.6-1.8v-2.2c0.4-1,1.5-1.8,2.6-1.8l-0.1-2.4c-1.1,0-2.1-0.7-2.6-1.6v-2.4c0.5-1,1.4-1.6,2.6-1.6l0-3.3
					c-1.1,0-2.1-0.7-2.6-1.6v-2.5c0.5-0.9,1.4-1.6,2.6-1.6l0.1-2.4c-1.2,0-2.2-0.7-2.6-1.7v-2.3
					C277.9,112.2,278.9,111.5,280.1,111.5z"/>
				<rect x="213.1" y="95" fill="#8FCD94" stroke="#505978" stroke-width="2" stroke-miterlimit="10" width="60.8" height="64.6"/>
				<g>
					<g>
						<g>
							<path fill="#FFFFFF" d="M217.4,117.1c-0.2,0-0.4,0.2-0.5,0.4l-0.1,0.2l-0.1,0.2c-0.1,0.5,0.1,0.5,0.3,0.5
								c0.1-0.1,0.3-0.1,0.7-0.1h2.4v5.7c0,0.5,0,1.5-0.2,1.8l-0.1,0.1c0,0-0.2,0.3,0.2,0.4h2.5c0.3-0.1,0.2-0.3,0.1-0.4
								c-0.3-0.3-0.3-1.4-0.3-2v-5.6h1.7c2.5-0.1,2.4-1.1,2.4-1.1c-0.1-0.2-0.4-0.1-0.5-0.1H217.4z"/>
						</g>
						<g>
							<g>
								<path fill="#FFFFFF" d="M270.2,125.9c-0.1-0.1-1.1-1.5-1.3-1.8c0,0-1.8-2.6-2.1-3c0.1-0.1,2.2-3,2.2-3s0.3-0.5,0.5-0.7
									c0.1-0.1,0.2-0.3,0-0.3l-1,0c-0.2,0-0.1,0.3-0.1,0.4c0,0.1-1.3,1.7-2.1,2.9c0,0-0.4-0.6-0.4-0.6c-0.2-0.3-1.4-2.3-1.4-2.3
									c-0.3-0.4-0.6-0.4-0.8-0.4l-1.8,0c-0.2,0-0.2,0.3,0.1,0.4c0,0,0.1,0.1,0.2,0.2c0.5,0.8,2.5,4,2.7,4.2
									c-0.1,0.1-1.6,2.5-1.6,2.5c-0.2,0.3-0.6,0.9-0.9,1.3l-0.5-1.1c-0.2-0.3-2.1-4.7-3-7.2c-0.1-0.2-0.2-0.3-0.4-0.3h-1.6
									c-0.3,0-0.3,0.4-0.3,0.4c-0.1,0.4-3.6,7.7-3.8,8.1c-0.1,0.2-0.2,0.2-0.2,0.4c0,0.1,0,0.4,0.2,0.4h1.1c0.3,0,0.2-0.3,0.1-0.4
									c0-0.1,0-0.3,0.1-0.5c0.1-0.3,0.3-0.9,0.5-1.5h4.6c0.3,0.8,0.6,1.3,0.6,1.5l0.2,0.5c0,0-0.1,0.3,0.2,0.3h2.1
									c0,0,0.1,0,0.1,0l1.1,0c0.3,0,0.1-0.4,0.1-0.4l0-0.1c0.2-0.3,0.5-0.9,0.7-1.3c0.2-0.4,0.9-1.4,1.2-1.7
									c0.2,0.2,2.1,2.9,2.1,2.9c0.3,0.4-0.2,0.7,0.4,0.7h2.1c0.3,0,0.5,0,0.5-0.1C270.4,126.1,270.3,126,270.2,125.9 M244.6,126
									c-0.2-0.3-0.3-1.5-0.3-2.1l0-4.5l0-0.2c0-0.3,0-0.9,0-1.1c0-0.2,0.2-0.7,0.2-0.7s0.3-0.4-0.1-0.4h-0.6l-0.9,0
									c-0.6,0-1,0.4-1.2,0.8c0,0-1.8,4.1-2.2,4.9c-0.2-0.5-2.6-4.9-2.6-4.9c-0.1-0.3-0.4-0.7-0.9-0.7l-0.7,0l-1.3,0
									c-0.2,0-0.2,0.3-0.1,0.4c0,0.1,0.2,0.2,0.2,0.5c0,0.2,0,0.6,0,0.6c0,0,0,4.4,0,4.4c0,1.3-0.1,2-0.1,2.3
									c0,0.2-0.1,0.6-0.2,0.7c0,0,0,0-0.1,0.1c-0.1-0.1-0.2-0.2-0.2-0.2l-0.5-1.2c-0.2-0.3-2.1-4.7-3-7.2
									c-0.1-0.2-0.2-0.3-0.4-0.3h-1.6c-0.3,0-0.3,0.4-0.3,0.4c-0.1,0.4-3.6,7.7-3.8,8.1c-0.1,0.2-0.2,0.3-0.2,0.4
									c0,0.1,0,0.4,0.2,0.4h1c0.3,0,0.1-0.4,0.1-0.4l0.1-0.5c0.1-0.5,0.3-0.9,0.5-1.5h4.5c0.3,0.8,0.6,1.3,0.7,1.5l0.3,0.6
									c0,0-0.1,0.3,0.2,0.3l2.2,0c0.1,0,0.2,0,0.2,0c0,0,0.1,0,0.2,0h1c0.4,0,0.1-0.2,0.1-0.4c-0.1-0.4-0.1-1.8-0.1-2.4
									c0,0,0-3.8,0-4.5c0.4,0.7,3.8,7,3.8,7s2.9-5.9,3.4-7c0,0.8,0,5,0,5c0,0.6,0,1.6-0.1,1.8c-0.2,0.3-0.2,0.5,0.1,0.5h2.2
									C244.6,126.3,244.8,126.2,244.6,126 M226.2,123.1c0.1-0.3,1.9-4.4,2.1-4.8c0.1,0.4,1.7,4.5,1.8,4.8H226.2z M254.7,123.1
									c0.1-0.3,2-4.3,2.2-4.7c0.1,0.4,1.6,4.4,1.7,4.7H254.7z"/>
							</g>
						</g>
						<g>
							<path fill="#FFFFFF" d="M253.9,120.1c0,1.8-1.4,3.1-3.3,3.1c-0.8,0-1.2-0.2-1.2-0.7c0,0,0.1,0.1,0.6,0.1c1.1,0,2-0.7,2-2.5
								c0-0.8-0.4-2.2-2.2-2.2c0,0-1,0-1.2,0c0,0.4,0,6.2,0,6.2c0,0.6,0,1.5,0.3,1.9c0.1,0.1,0.1,0.2,0.1,0.2c-0.1,0.1-0.2,0-0.2,0
								h-2.5c-0.1,0-0.2,0-0.2-0.1c0-0.1,0.1-0.1,0.1-0.2c0.3-0.4,0.3-1.3,0.3-2l0-4.8c0-0.3-0.1-1-0.1-1.2c0-0.2-0.1-0.4-0.2-0.7
								c0,0-0.1-0.1,0-0.1c0-0.1,0.1-0.1,0.2-0.1h1.2l1.1,0l2.1,0C253,117.1,253.9,118.7,253.9,120.1"/>
						</g>
						<g>
							<g>
								<g>
									<path fill-rule="evenodd" clip-rule="evenodd" fill="#FFFFFF" d="M237.4,137.4h-1.7c0.3-0.2,0.6-0.4,0.9-0.6
										c-0.1-0.1-0.1-0.1-0.2-0.2c-0.1,0.1-0.3,0.1-0.4,0.2c-1.1,0.5-2.3,0.8-3.5,0.8c-1.7,0.1-3.1-1-2.5-3.1
										c0.7-2.6,2.4-4.4,5.1-5.1c0.5-0.1,1-0.1,1.5,0c0.6,0.1,0.9,0.6,0.7,1.2c-0.1,0.7-0.6,1.3-1.2,1.7c-1.2,0.8-2.6,1.2-4,1.4
										c-0.4,0.1-0.5,0.2-0.6,0.5c-0.1,0.4-0.1,0.9-0.1,1.3c0,0.8,0.4,1.3,1.2,1.3c0.7,0,1.4,0,2.1-0.2c2.1-0.6,2.1-0.6,3.2-2.5
										c0.9-1.5,1.8-3.1,2.7-4.6c0.1-0.1,0.1-0.2,0.2-0.3c0.6,1.1,1.2,2.1,1.9,3.2c0.2-0.2,0.4-0.3,0.7-0.5
										c0.6-0.4,1.1-0.8,1.7-1.2c0.6-0.5,0.6-0.5,0.4-1.2c0.1,0,0.1,0,0.2,0c0.9,0.2,1.7-0.2,2.5-0.7c0.6-0.4,1.3-0.7,1.9-1.1
										c0.2-0.1,0.5-0.2,0.7-0.2c0,0.1,0.1,0.1,0.1,0.2c-1,0.6-2.1,1.2-3.2,1.8c0.7,0.1,1.2,0.1,1.8,0.2c0.6,0.1,1.1,0.3,1.6,0.7
										c0.8,0.6,0.9,1.7,0.2,2.3c-0.5,0.4-1,0.7-1.6,1.1c0.7,1.1,1.5,2.2,2.6,3c0.4,0.3,0.8,0.5,1.3,0.5c0.6,0,1-0.3,1-1
										c0-2.1,0-4.1,0-6.2c0-0.2-0.1-0.4-0.1-0.6h1.7c0,0.4-0.1,0.7-0.1,1.1c0,1.9,0,3.9,0,5.8c0,0.5,0,0.5,0.5,0.5
										c0.8,0,1.6,0,2.4,0c0.5,0,1.1,0,1.5-0.4c0.1,0.1,0.1,0.1,0.1,0.1c-0.2,1-0.2,1-1.2,1c-2.4,0-4.7,0-7.1,0
										c-0.8,0-1.4-0.3-1.9-0.9c-0.6-0.8-1.2-1.6-1.8-2.4c-0.3-0.3-1-0.6-1.4-0.4c-0.1,0-0.1,0.2-0.1,0.3c0,0.9,0,1.9,0,2.8
										c0,0.2,0.1,0.4,0.2,0.6h-3.9c0.4-0.5,0.4-0.5,0.1-1.1c-0.5-0.9-1.1-1.9-1.6-2.8c-1.3,0.8-2.5,1.5-3.7,2.3
										c-0.3,0.2-0.5,0.7-0.7,1.1C237.2,137,237.4,137.2,237.4,137.4 M231.8,133.4c0.3-0.1,0.5-0.1,0.6-0.1
										c1.1-0.3,2.1-0.7,2.9-1.6c0.4-0.4,0.6-0.9,0.7-1.5c0-0.5-0.2-0.7-0.7-0.7c-0.6,0-1,0.3-1.4,0.6c-0.9,0.8-1.6,1.8-2,2.9
										C231.9,133.2,231.9,133.3,231.8,133.4 M245.5,130.7c-0.8,0.6-1.6,1.2-2.3,1.7c-0.2,0.2-0.3,0.3-0.1,0.6
										c0.7,1.2,1.4,2.4,2.1,3.6c0.1,0.2,0.2,0.3,0.3,0.5c0,0,0.1,0,0.1,0V130.7z M247,131.6L247,131.6c0,0.4,0,0.9,0,1.3
										c0,0.1,0.1,0.3,0.2,0.3c0.9,0.1,1.8,0.1,2.5-0.6c0.4-0.4,0.6-1,0.5-1.6c-0.1-0.6-0.6-0.9-1.1-1c-0.6-0.1-1.1-0.1-1.7-0.1
										c-0.3,0-0.3,0.1-0.3,0.4C247,130.7,247,131.1,247,131.6 M238.4,134.9C238.4,135,238.5,135,238.4,134.9
										c1-0.5,1.9-1.1,2.9-1.6c0.2-0.1,0.3-0.3,0.1-0.5c-0.3-0.5-0.6-1-0.9-1.5C239.8,132.6,239.1,133.8,238.4,134.9"/>
								</g>
							</g>
							<g>
								<g>
									<path fill-rule="evenodd" clip-rule="evenodd" fill="#FFFFFF" d="M223.8,137.4c0-0.3,0.1-0.6,0.1-0.9c0-2.1,0-4.3,0-6.4
										c0-0.3-0.1-0.5-0.1-0.9c0.7,0,1.5,0,2.3,0c0.8,0,1.7,0.1,2.5,0.2c0.3,0,0.5,0.2,0.8,0.3c1.3,0.7,1.5,2.2,0.4,3.2
										c-0.6,0.6-1.4,0.9-2.2,1c-0.7,0-1.4,0-2,0c-0.1,0.7-0.1,3,0.1,3.5H223.8z M225.4,131.7c0,0.5,0,1,0,1.5
										c0,0.2,0,0.3,0.3,0.3c1,0.1,1.9,0,2.7-0.6c0.6-0.5,0.6-1.1,0.5-1.8c-0.1-0.6-0.6-1-1.2-1.1c-0.6-0.1-1.2-0.1-1.9-0.1
										c-0.2,0-0.4,0.1-0.3,0.4C225.4,130.7,225.4,131.2,225.4,131.7"/>
								</g>
							</g>
							<g>
								<path fill="#FFFFFF" d="M261.4,132.3l-0.2-0.3c0.9-0.4,1.4-1.1,1.5-1.9c0.2-1.2-0.5-2.6-1.2-3.4c-1.2-1.2-3.4-1.4-7-0.6
									c-3.4,0.8-7.5,3.4-7.5,3.4l-0.2-0.3c0,0,4.2-2.7,7.6-3.5c3.8-0.8,6.1-0.6,7.3,0.7c0.8,0.9,1.6,2.3,1.3,3.7
									C262.9,131.1,262.3,131.8,261.4,132.3"/>
							</g>
						</g>
						<g>
							<path fill="#FFFFFF" d="M262.1,131.2c0,0.7-0.6,1.3-1.3,1.3c-0.7,0-1.3-0.6-1.3-1.3c0-0.7,0.6-1.3,1.3-1.3
								C261.6,129.9,262.1,130.5,262.1,131.2"/>
						</g>
					</g>
				</g>
			</g>
			<g>
				<g>
					<defs>
						<rect id="SVGID_9_" x="50.1" y="95" width="60.8" height="64.6"/>
					</defs>
					<clipPath id="SVGID_10_">
						<use xlink:href="#SVGID_9_"  overflow="visible"/>
					</clipPath>
				</g>
				<path fill="none" stroke="#505978" stroke-linecap="round" stroke-linejoin="round" stroke-miterlimit="10" d="M117.1,111.5
					l0.1-2.9c-1.3,0-2.3-0.8-2.7-1.9v-1.8c0.4-1.1,1.4-1.9,2.7-1.9l0-2.4c-1.2,0-2.3-0.8-2.7-1.8v-2c0.4-1.1,1.5-1.8,2.7-1.8l0-2.5
					h-2.7v-2.9l-3,0c0,1.6-1.2,2.9-2.8,2.9c-1.5,0-2.8-1.3-2.8-2.9l-2.4,0c0,1.6-1.2,2.9-2.8,2.9c-1.5,0-2.8-1.3-2.8-2.9l-2.8-0.1
					c0,1.6-1.2,2.9-2.8,2.9c-1.5,0-2.8-1.3-2.8-2.9l-2.4,0.1c0,1.6-1.2,2.9-2.8,2.9c-1.5,0-2.8-1.3-2.8-2.9l-3.1,0
					c0,1.6-1.2,2.9-2.8,2.9c-1.5,0-2.8-1.3-2.8-2.9l-2.4-0.1c0,1.6-1.2,2.9-2.8,2.9c-1.5,0-2.8-1.3-2.8-2.9l-2.8-0.1
					c0,1.6-1.2,2.9-2.8,2.9c-1.5,0-2.8-1.3-2.8-2.9l-2.4,0c0,1.6-1.2,2.9-2.8,2.9c-1.5,0-2.8-1.3-2.8-2.9l-2.4,0v3.1h-2.7l0,2.5
					c1.2,0,2.3,0.8,2.7,1.8v2c-0.4,1.1-1.4,1.8-2.7,1.8l0,2.4c1.3,0,2.3,0.8,2.7,1.9v1.9c-0.4,1.1-1.4,1.9-2.7,1.9l0.1,2.9
					c1.2,0,2.2,0.7,2.6,1.7v2.3c-0.4,1-1.4,1.7-2.6,1.7l0.1,2.4c1.1,0,2.1,0.7,2.6,1.6v2.5c-0.5,0.9-1.4,1.6-2.6,1.6l0,3.3
					c1.1,0,2.1,0.7,2.6,1.6v2.4c-0.5,1-1.4,1.6-2.6,1.6l-0.1,2.4c1.2,0,2.2,0.7,2.6,1.8v2.2c-0.4,1-1.5,1.8-2.6,1.8l0.1,2.9
					c1.1,0,2,0.6,2.5,1.5v2.7c-0.5,0.9-1.4,1.5-2.5,1.5l0,2.4c1.1,0,2,0.6,2.5,1.5v2.8c-0.5,0.9-1.4,1.5-2.5,1.5l0,3.1h2.5v3.1
					l2.4,0c0-1.6,1.2-2.9,2.8-2.9c1.5,0,2.8,1.3,2.8,2.9l2.4,0c0-1.6,1.2-2.9,2.8-2.9c1.5,0,2.8,1.3,2.8,2.9l2.8-0.1
					c0-1.6,1.2-2.9,2.8-2.9c1.5,0,2.8,1.3,2.8,2.9l2.4-0.1c0-1.6,1.2-2.9,2.8-2.9c1.5,0,2.8,1.3,2.8,2.9l3.1,0
					c0-1.6,1.2-2.9,2.8-2.9c1.5,0,2.8,1.3,2.8,2.9l2.4,0.1c0-1.6,1.2-2.9,2.8-2.9c1.5,0,2.8,1.3,2.8,2.9l2.8-0.1
					c0-1.6,1.2-2.9,2.8-2.9c1.5,0,2.8,1.3,2.8,2.9l2.4,0c0-1.6,1.2-2.9,2.8-2.9c1.5,0,2.8,1.3,2.8,2.9l3,0v-2.9h2.5l0-3.1
					c-1.1,0-2-0.6-2.5-1.5v-2.8c0.5-0.9,1.4-1.5,2.5-1.5l0-2.4c-1.1,0-2-0.6-2.5-1.5V147c0.5-0.9,1.4-1.5,2.5-1.5l0.1-2.9
					c-1.2,0-2.2-0.7-2.6-1.8v-2.2c0.4-1,1.5-1.8,2.6-1.8l-0.1-2.4c-1.1,0-2.1-0.7-2.6-1.6v-2.4c0.5-1,1.4-1.6,2.6-1.6l0-3.3
					c-1.1,0-2.1-0.7-2.6-1.6v-2.5c0.5-0.9,1.4-1.6,2.6-1.6l0.1-2.4c-1.2,0-2.2-0.7-2.6-1.7v-2.3
					C114.9,112.2,115.9,111.5,117.1,111.5z"/>
				<rect x="50.1" y="95" fill="#8FCD94" stroke="#505978" stroke-width="2" stroke-miterlimit="10" width="60.8" height="64.6"/>
				<g>
					<path fill="#FFFFFF" d="M54.4,113.5c-0.2,0-0.4,0.2-0.5,0.4l-0.1,0.2l-0.1,0.2c-0.1,0.5,0.1,0.5,0.3,0.5
						c0.1-0.1,0.3-0.1,0.7-0.1H57v5.7c0,0.5,0,1.5-0.2,1.8l-0.2,0.2c0,0-0.2,0.3,0.2,0.4h2.5c0.3-0.1,0.2-0.3,0.1-0.4
						c-0.3-0.3-0.3-1.4-0.3-2v-5.6h1.7c2.5-0.1,2.4-1.1,2.4-1.1c-0.1-0.2-0.4-0.1-0.5-0.1H54.4z"/>
					<path fill="#FFFFFF" d="M107.2,122.3c-0.1-0.1-1.1-1.5-1.3-1.8c0,0-1.8-2.6-2.1-3c0.1-0.1,2.2-3,2.2-3s0.3-0.5,0.5-0.7
						c0.1-0.1,0.2-0.3,0-0.4l-1,0c-0.3,0-0.1,0.3-0.1,0.4c0,0.1-1.3,1.7-2.1,2.9c0,0-0.4-0.6-0.4-0.6c-0.2-0.3-1.4-2.3-1.4-2.3
						c-0.3-0.4-0.6-0.4-0.8-0.4l-1.8,0c-0.2,0-0.2,0.3,0.1,0.4c0,0,0.1,0.1,0.2,0.2c0.5,0.8,2.5,4,2.7,4.2c-0.1,0.1-1.6,2.5-1.6,2.5
						c-0.2,0.3-0.6,0.9-0.9,1.3l-0.5-1.1c-0.2-0.3-2.1-4.7-3-7.2c-0.1-0.2-0.2-0.3-0.4-0.3h-1.6c-0.3,0-0.3,0.4-0.3,0.4
						c-0.1,0.4-3.6,7.7-3.8,8.1c-0.1,0.2-0.2,0.3-0.2,0.4c0,0.1,0,0.4,0.2,0.4h1.1c0.3,0,0.2-0.3,0.1-0.4c0-0.1,0-0.3,0.1-0.5
						c0.1-0.3,0.3-0.9,0.6-1.5H96c0.3,0.8,0.6,1.3,0.6,1.5l0.3,0.5c0,0-0.1,0.3,0.2,0.3l2.1,0c0,0,0.1,0,0.1,0l1.1,0
						c0.3,0,0.1-0.4,0.1-0.4l0-0.1c0.1-0.3,0.5-0.9,0.7-1.3c0.2-0.4,0.9-1.4,1.2-1.7c0.2,0.2,2.1,2.9,2.1,2.9
						c0.3,0.4-0.2,0.7,0.4,0.7h2.1c0.3,0,0.5,0,0.5-0.1C107.4,122.5,107.3,122.4,107.2,122.3 M81.6,122.4c-0.2-0.3-0.3-1.5-0.3-2.1
						l0-4.5v-0.2c0-0.3,0-0.9,0-1.1c0-0.2,0.2-0.7,0.2-0.7s0.3-0.4-0.1-0.4h-0.6l-0.9,0c-0.6,0-1,0.4-1.2,0.8c0,0-1.8,4.1-2.2,4.9
						c-0.2-0.5-2.6-4.9-2.6-4.9c-0.1-0.3-0.4-0.7-0.9-0.7l-0.7,0l-1.3,0c-0.2,0-0.2,0.3-0.1,0.4c0,0.1,0.2,0.2,0.2,0.5
						c0,0.2,0,0.6,0,0.6c0,0,0,4.4,0,4.4c0,1.3-0.1,1.9-0.1,2.3c0,0.2-0.1,0.6-0.2,0.7c0,0,0,0-0.1,0.1c-0.1-0.1-0.1-0.2-0.2-0.2
						l-0.5-1.2c-0.2-0.3-2.1-4.7-3-7.2c-0.1-0.2-0.2-0.3-0.4-0.3h-1.6c-0.3,0-0.3,0.4-0.3,0.4c-0.1,0.4-3.6,7.7-3.8,8.1
						c-0.1,0.2-0.2,0.2-0.2,0.4c0,0.1,0,0.4,0.2,0.4h1c0.3,0,0.1-0.4,0.1-0.4l0.1-0.5c0.1-0.5,0.3-0.9,0.5-1.5h4.5
						c0.3,0.8,0.6,1.3,0.7,1.5l0.3,0.6c0,0-0.1,0.3,0.2,0.3l2.2,0c0.1,0,0.2,0,0.2,0c0,0,0.1,0,0.2,0h1c0.4,0,0.1-0.2,0.1-0.4
						c-0.1-0.4-0.1-1.8-0.1-2.4c0,0,0-3.8,0-4.5c0.4,0.7,3.8,7,3.8,7s2.9-5.9,3.4-7c0,0.8,0,5,0,5c0,0.6,0,1.6-0.1,1.8
						c-0.2,0.3-0.2,0.5,0.1,0.5h2.2C81.6,122.7,81.8,122.6,81.6,122.4 M63.2,119.6c0.1-0.3,1.9-4.4,2.1-4.8c0.1,0.3,1.7,4.5,1.8,4.8
						H63.2z M91.7,119.5c0.1-0.3,2-4.3,2.2-4.7c0.1,0.3,1.6,4.4,1.7,4.7H91.7z"/>
					<path fill="#FFFFFF" d="M90.9,116.5c0,1.8-1.4,3.1-3.3,3.1c-0.8,0-1.2-0.2-1.2-0.7c0,0,0.1,0.1,0.6,0.1c1.1,0,2-0.7,2-2.5
						c0-0.8-0.4-2.2-2.2-2.2c0,0-1,0-1.2,0c0,0.4,0,6.2,0,6.2c0,0.6,0,1.5,0.3,1.9c0.1,0.1,0.1,0.2,0.1,0.2c-0.1,0.1-0.2,0-0.2,0
						h-2.5c-0.1,0-0.2,0-0.2-0.1c0-0.1,0.1-0.1,0.1-0.2c0.3-0.4,0.3-1.3,0.3-2l0-4.8c0-0.3-0.1-1-0.1-1.2c0-0.2-0.1-0.4-0.3-0.7
						c0-0.1,0-0.1,0-0.1c0-0.1,0.1-0.1,0.2-0.1h1.2l1.1,0l2.1,0C90,113.5,90.9,115.1,90.9,116.5"/>
					<path fill-rule="evenodd" clip-rule="evenodd" fill="#FFFFFF" d="M74.4,133.9h-1.7c0.3-0.2,0.6-0.4,0.9-0.6
						c-0.1-0.1-0.1-0.1-0.2-0.2c-0.1,0.1-0.3,0.1-0.4,0.2c-1.1,0.5-2.3,0.8-3.5,0.8c-1.7,0.1-3.1-1-2.5-3.1c0.7-2.6,2.4-4.4,5.1-5.1
						c0.5-0.1,1-0.1,1.5,0c0.6,0.1,0.9,0.6,0.7,1.2c-0.1,0.7-0.6,1.3-1.2,1.7c-1.2,0.8-2.6,1.2-4,1.4c-0.4,0.1-0.5,0.2-0.6,0.5
						c-0.1,0.4-0.1,0.9-0.1,1.3c0,0.8,0.4,1.3,1.2,1.3c0.7,0,1.4,0,2.1-0.2c2.1-0.6,2.1-0.6,3.2-2.5c0.9-1.5,1.8-3.1,2.7-4.6
						c0.1-0.1,0.1-0.2,0.2-0.3c0.6,1.1,1.2,2.1,1.9,3.2c0.2-0.2,0.4-0.3,0.7-0.5c0.6-0.4,1.1-0.8,1.7-1.2c0.6-0.5,0.6-0.5,0.4-1.2
						c0.1,0,0.1,0,0.2,0c0.9,0.2,1.7-0.2,2.5-0.7c0.6-0.4,1.3-0.7,1.9-1.1c0.2-0.1,0.5-0.2,0.7-0.2c0,0.1,0,0.1,0.1,0.2
						c-1,0.6-2.1,1.2-3.2,1.8c0.7,0.1,1.2,0.1,1.8,0.2c0.6,0.1,1.1,0.3,1.6,0.7c0.8,0.6,0.9,1.7,0.2,2.3c-0.4,0.4-1,0.7-1.6,1.1
						c0.7,1.1,1.5,2.2,2.6,3c0.4,0.3,0.8,0.5,1.3,0.5c0.6,0,1-0.3,1-1c0-2.1,0-4.1,0-6.2c0-0.2-0.1-0.4-0.1-0.6h1.7
						c0,0.4-0.1,0.7-0.1,1.1c0,1.9,0,3.9,0,5.8c0,0.5,0,0.5,0.5,0.5c0.8,0,1.6,0,2.4,0c0.5,0,1.1,0,1.5-0.4c0.1,0.1,0.1,0.1,0.1,0.1
						c-0.2,1-0.2,1-1.2,1c-2.4,0-4.7,0-7.1,0c-0.8,0-1.4-0.3-1.9-0.9c-0.6-0.8-1.2-1.6-1.8-2.4c-0.3-0.3-1-0.6-1.4-0.4
						c-0.1,0-0.1,0.2-0.1,0.3c0,0.9,0,1.9,0,2.8c0,0.2,0.1,0.4,0.2,0.6h-3.9c0.4-0.5,0.4-0.5,0.1-1.1c-0.5-0.9-1.1-1.9-1.6-2.8
						c-1.3,0.8-2.5,1.5-3.7,2.3c-0.3,0.2-0.5,0.7-0.7,1.1C74.3,133.5,74.4,133.7,74.4,133.9 M68.8,129.9c0.3,0,0.5-0.1,0.6-0.1
						c1.1-0.3,2.2-0.7,2.9-1.6c0.4-0.4,0.6-0.9,0.7-1.5c0-0.5-0.2-0.7-0.7-0.7c-0.6,0-1,0.3-1.4,0.6c-0.9,0.8-1.6,1.8-2,2.9
						C68.9,129.6,68.9,129.7,68.8,129.9 M82.5,127.1c-0.8,0.6-1.6,1.2-2.3,1.7c-0.2,0.2-0.3,0.3-0.1,0.6c0.7,1.2,1.4,2.4,2.1,3.6
						c0.1,0.2,0.2,0.3,0.3,0.5c0,0,0.1,0,0.1,0V127.1z M84,128L84,128c0,0.4,0,0.9,0,1.3c0,0.1,0.1,0.3,0.2,0.3
						c0.9,0.1,1.8,0.1,2.5-0.6c0.4-0.4,0.6-1,0.5-1.6c-0.1-0.6-0.6-0.9-1.1-1c-0.6-0.1-1.1-0.1-1.7-0.1c-0.3,0-0.3,0.1-0.3,0.4
						C84,127.1,84,127.5,84,128 M75.4,131.4C75.4,131.4,75.5,131.4,75.4,131.4c1-0.5,1.9-1.1,2.9-1.6c0.2-0.1,0.3-0.3,0.1-0.5
						c-0.3-0.5-0.6-1-0.9-1.5C76.8,129,76.1,130.2,75.4,131.4"/>
					<path fill-rule="evenodd" clip-rule="evenodd" fill="#FFFFFF" d="M60.8,133.8c0-0.3,0.1-0.6,0.1-0.8c0-2.1,0-4.3,0-6.4
						c0-0.3-0.1-0.5-0.1-0.9c0.7,0,1.5,0,2.3,0c0.8,0,1.7,0.1,2.5,0.2c0.3,0,0.5,0.2,0.8,0.3c1.3,0.7,1.5,2.2,0.4,3.2
						c-0.6,0.6-1.4,0.9-2.2,1c-0.7,0-1.4,0-2,0c-0.1,0.7-0.1,3,0.1,3.5H60.8z M62.4,128.1c0,0.5,0,1,0,1.5c0,0.2,0.1,0.3,0.3,0.3
						c1,0.1,1.9,0,2.7-0.6c0.6-0.5,0.6-1.1,0.5-1.8c-0.1-0.6-0.6-1-1.2-1.1c-0.6-0.1-1.2-0.1-1.9-0.1c-0.3,0-0.4,0.1-0.4,0.4
						C62.4,127.1,62.4,127.6,62.4,128.1"/>
					<path fill="#FFFFFF" stroke="#FFFFFF" stroke-width="0.75" stroke-miterlimit="10" d="M98.4,128.8l-0.2-0.3
						c0.9-0.4,1.4-1.1,1.5-1.9c0.2-1.2-0.5-2.6-1.2-3.4c-1.2-1.2-3.4-1.4-7-0.6c-3.4,0.8-7.5,3.4-7.5,3.4l-0.2-0.3
						c0,0,4.2-2.7,7.6-3.5c3.8-0.8,6.1-0.6,7.3,0.7c0.8,0.9,1.6,2.3,1.3,3.7C99.9,127.5,99.4,128.3,98.4,128.8"/>
					<path fill="#FFFFFF" d="M99.1,127.6c0,0.7-0.6,1.3-1.3,1.3c-0.7,0-1.3-0.6-1.3-1.3c0-0.7,0.6-1.3,1.3-1.3
						C98.6,126.3,99.1,126.9,99.1,127.6"/>
					<g>
						<g>
							<path fill="#FFFFFF" d="M69.8,141c-0.3,0.2-0.7,0.3-1.1,0.3c-1.2,0-2.3-1-2.3-2.4c0-1.2,0.8-2.1,1.9-2.2
								c0.8-0.1,1.5,0.1,2.1,0.7c0.2,0.2-0.2,0.5-0.4,0.3c-0.5-0.5-1-0.6-1.7-0.5c-0.9,0.1-1.5,0.7-1.5,1.8c0,1.1,0.8,1.9,1.8,1.9
								c0.3,0,0.5-0.1,0.8-0.2c0.2-0.1,0.4-0.3,0.6-0.5c0.2-0.2,0.6,0,0.4,0.3C70.4,140.7,70.1,140.9,69.8,141z"/>
							<path fill="#FFFFFF" d="M71.5,140.6c-0.3-0.4-0.4-0.8-0.4-1.3c0.1-0.8,0.5-1.4,1.3-1.7c0.2,0,0.4-0.1,0.5-0.1
								c0.2,0,0.3,0,0.5,0.1c0.8,0.2,1.2,0.9,1.3,1.7c0,0.5-0.1,1-0.4,1.3c-0.3,0.4-0.9,0.6-1.4,0.6C72.4,141.3,71.9,141,71.5,140.6
								z M72.9,138c-0.1,0-0.3,0-0.4,0c-0.6,0.2-0.9,0.7-0.9,1.3c0,0.3,0.1,0.6,0.3,0.9c0.2,0.3,0.6,0.5,1,0.5c0.4,0,0.8-0.2,1-0.5
								c0.2-0.2,0.3-0.6,0.3-0.9c0-0.6-0.3-1.2-0.9-1.3C73.2,138.1,73.1,138,72.9,138z"/>
							<path fill="#FFFFFF" d="M81.5,139.1c0-0.6-0.5-1-1.1-1c-0.7,0-1.3,0.5-1.3,1.4v1.5c0,0.2-0.1,0.2-0.3,0.2s-0.3-0.1-0.3-0.2
								v-1.7c0-0.4-0.2-0.8-0.5-1c-0.2-0.1-0.4-0.2-0.6-0.2c-0.7,0-1.3,0.5-1.3,1.3v1.6c0,0.3-0.5,0.3-0.5,0v-3.1
								c0-0.1,0.1-0.2,0.3-0.2c0.2,0,0.2,0.1,0.2,0.2v0.5c0.3-0.5,0.8-0.7,1.3-0.7c0.6,0,1.2,0.3,1.4,0.9c0.3-0.6,0.9-0.9,1.5-0.9
								c0.8,0,1.6,0.5,1.6,1.5v1.9c0,0.2-0.1,0.2-0.3,0.2c-0.2,0-0.3-0.1-0.3-0.2V139.1z"/>
							<path fill="#FFFFFF" d="M84.8,141.3c-0.5,0-0.9-0.2-1.1-0.6v1.5c0,0.3-0.5,0.3-0.5,0v-4.4c0-0.2,0.1-0.2,0.3-0.2
								c0.2,0,0.2,0.1,0.2,0.2v0.3c0.2-0.4,0.7-0.6,1.2-0.6c0.2,0,0.5,0,0.7,0.1l0,0c0.8,0.3,1.2,1,1.1,1.8
								C86.5,140.5,85.8,141.3,84.8,141.3z M83.6,139.1v0.6c0,0.6,0.5,1.1,1.1,1.1c0.5,0,1-0.3,1.2-0.8c0.1-0.1,0.1-0.3,0.1-0.5
								c0-0.5-0.1-0.9-0.5-1.2c-0.2-0.2-0.5-0.2-0.7-0.3C84.2,138,83.6,138.5,83.6,139.1z"/>
							<path fill="#FFFFFF" d="M88.3,137.7c0.2-0.1,0.5-0.1,0.8-0.1c0.4,0,0.9,0.1,1.1,0.5v-0.3c0-0.1,0.1-0.3,0.3-0.3
								c0.2,0,0.3,0.1,0.3,0.3v3.1c0,0.2-0.1,0.3-0.3,0.3c-0.2,0-0.3-0.1-0.3-0.3v-0.3c-0.2,0.4-0.7,0.6-1.1,0.6
								c-0.3,0-0.7-0.1-1-0.3c-0.5-0.4-0.8-1-0.8-1.7C87.3,138.6,87.7,138,88.3,137.7L88.3,137.7z M90.2,139.7v-0.6
								c0-0.7-0.5-1.1-1.1-1.1c-0.5,0-1,0.3-1.2,0.8c-0.1,0.1-0.1,0.3-0.1,0.5c0,0.5,0.1,0.9,0.5,1.2c0.2,0.2,0.5,0.2,0.7,0.3
								C89.7,140.8,90.2,140.4,90.2,139.7z"/>
							<path fill="#FFFFFF" d="M94.1,137.7c0.3-0.2,0.6,0.1,0.4,0.4l-1.3,1.2l1.4,1.6c0.2,0.3-0.2,0.6-0.4,0.3l-1.4-1.6l-0.4,0.4
								v1.1c0,0.3-0.5,0.3-0.5,0v-4.2c0-0.3,0.5-0.3,0.5,0v2.5l0.5-0.5L94.1,137.7z"/>
						</g>
					</g>
				</g>
			</g>
			<g>
				<g>
					<defs>
						<rect id="SVGID_11_" x="131.4" y="95" width="60.8" height="64.6"/>
					</defs>
					<clipPath id="SVGID_12_">
						<use xlink:href="#SVGID_11_"  overflow="visible"/>
					</clipPath>
				</g>
				<path fill="none" stroke="#505978" stroke-linecap="round" stroke-linejoin="round" stroke-miterlimit="10" d="M198.9,111.5
					l0.1-2.9c-1.3,0-2.3-0.8-2.7-1.9v-1.8c0.4-1.1,1.4-1.9,2.7-1.9l0-2.4c-1.2,0-2.3-0.8-2.7-1.8v-2c0.4-1.1,1.5-1.8,2.7-1.8l0-2.5
					h-2.7v-2.9l-3,0c0,1.6-1.2,2.9-2.8,2.9c-1.5,0-2.8-1.3-2.8-2.9l-2.4,0c0,1.6-1.2,2.9-2.8,2.9c-1.5,0-2.8-1.3-2.8-2.9l-2.8-0.1
					c0,1.6-1.2,2.9-2.8,2.9c-1.5,0-2.8-1.3-2.8-2.9l-2.4,0.1c0,1.6-1.2,2.9-2.8,2.9c-1.5,0-2.8-1.3-2.8-2.9l-3.1,0
					c0,1.6-1.2,2.9-2.8,2.9c-1.5,0-2.8-1.3-2.8-2.9l-2.4-0.1c0,1.6-1.2,2.9-2.8,2.9c-1.5,0-2.8-1.3-2.8-2.9l-2.8-0.1
					c0,1.6-1.2,2.9-2.8,2.9c-1.5,0-2.8-1.3-2.8-2.9l-2.4,0c0,1.6-1.2,2.9-2.8,2.9c-1.5,0-2.8-1.3-2.8-2.9l-2.4,0v3.1h-2.7l0,2.5
					c1.2,0,2.3,0.8,2.7,1.8v2c-0.4,1.1-1.4,1.8-2.7,1.8l0,2.4c1.3,0,2.3,0.8,2.7,1.9v1.9c-0.4,1.1-1.4,1.9-2.7,1.9l0.1,2.9
					c1.2,0,2.2,0.7,2.6,1.7v2.3c-0.4,1-1.4,1.7-2.6,1.7l0.1,2.4c1.1,0,2.1,0.7,2.6,1.6v2.5c-0.5,0.9-1.4,1.6-2.6,1.6l0,3.3
					c1.1,0,2.1,0.7,2.6,1.6v2.4c-0.5,1-1.4,1.6-2.6,1.6l-0.1,2.4c1.2,0,2.2,0.7,2.6,1.8v2.2c-0.4,1-1.5,1.8-2.6,1.8l0.1,2.9
					c1.1,0,2,0.6,2.5,1.5v2.7c-0.5,0.9-1.4,1.5-2.5,1.5l0,2.4c1.1,0,2,0.6,2.5,1.5v2.8c-0.5,0.9-1.4,1.5-2.5,1.5l0,3.1h2.5v3.1
					l2.4,0c0-1.6,1.2-2.9,2.8-2.9c1.5,0,2.8,1.3,2.8,2.9l2.4,0c0-1.6,1.2-2.9,2.8-2.9c1.5,0,2.8,1.3,2.8,2.9l2.8-0.1
					c0-1.6,1.2-2.9,2.8-2.9c1.5,0,2.8,1.3,2.8,2.9l2.4-0.1c0-1.6,1.2-2.9,2.8-2.9c1.5,0,2.8,1.3,2.8,2.9l3.1,0
					c0-1.6,1.2-2.9,2.8-2.9c1.5,0,2.8,1.3,2.8,2.9l2.4,0.1c0-1.6,1.2-2.9,2.8-2.9c1.5,0,2.8,1.3,2.8,2.9l2.8-0.1
					c0-1.6,1.2-2.9,2.8-2.9c1.5,0,2.8,1.3,2.8,2.9l2.4,0c0-1.6,1.2-2.9,2.8-2.9c1.5,0,2.8,1.3,2.8,2.9l3,0v-2.9h2.5l0-3.1
					c-1.1,0-2-0.6-2.5-1.5v-2.8c0.5-0.9,1.4-1.5,2.5-1.5l0-2.4c-1.1,0-2-0.6-2.5-1.5V147c0.5-0.9,1.4-1.5,2.5-1.5l0.1-2.9
					c-1.2,0-2.2-0.7-2.6-1.8v-2.2c0.4-1,1.5-1.8,2.6-1.8l-0.1-2.4c-1.1,0-2.1-0.7-2.6-1.6v-2.4c0.5-1,1.4-1.6,2.6-1.6l0-3.3
					c-1.1,0-2.1-0.7-2.6-1.6v-2.5c0.5-0.9,1.4-1.6,2.6-1.6l0.1-2.4c-1.2,0-2.2-0.7-2.6-1.7v-2.3
					C196.7,112.2,197.7,111.5,198.9,111.5z"/>
				<rect x="131.4" y="95" fill="#8FCD94" stroke="#505978" stroke-width="2" stroke-miterlimit="10" width="60.8" height="64.6"/>
				<g>
					<g>
						<g>
							<g>
								<path fill-rule="evenodd" clip-rule="evenodd" fill="#FFFFFF" d="M152.2,116.9L152.2,116.9c0-0.3,0-0.6,0-0.9
									c-0.3-1.8-2.4-2.8-5-2.9c-2.8-0.1-7.7,1.2-9.9,3.2c-0.6,0.6-0.6,0.9-0.3,1.3c0.5,0.5,1.6,0.3,2.2-0.2c0.4-0.3,0.3-0.7,0.8-1
									c0.8-0.5,2.1-1.2,3.3-1.6c-3.2,3.7-5.6,9.7-6.8,13.8c-0.1,0.4,0.1,0.9,0.5,1c0.6,0.2,1.5,0.1,1.9-0.3c0.2-0.3,0.1-0.5,0-0.8
									c-0.2-0.4,1.8-5.3,2.3-6.4c0.4,0.1,0.8,0.3,1.2,0.4c2.4,0.2,5.4-0.1,7.8-2.2C150.8,119.7,152.1,118.7,152.2,116.9
									 M144.2,121.2c-1.1,0.1-2.5-0.1-2.3-0.8v0c0.9-1.9,1.9-3.3,3.2-5.2c0.1-0.2,0-0.4-0.1-0.5c-0.3-0.1-0.5-0.1-0.9-0.1
									c5.1-1.4,6.9,1.5,5.9,3.4C148.8,120,146.1,121,144.2,121.2"/>
							</g>
						</g>
						<g>
							<path fill-rule="evenodd" clip-rule="evenodd" fill="#FFFFFF" d="M175.8,119c-0.1-0.3-0.2-0.4-0.5-0.4h-1.8l1.2-1.6
								c0.1-0.2-0.1-0.3-0.2-0.4c-0.4-0.1-1-0.1-1.4,0c-0.2,0.1-0.6,0.3-0.7,0.4c-0.3,0.4-0.8,0.9-1.2,1.6l0,0h-0.9
								c-0.2,0-0.4,0.1-0.6,0.2c-0.3,0.2-0.4,0.6-0.3,0.7c0.1,0.3,0.2,0.4,0.5,0.4h0.5c-0.6,1-1.5,2.6-1.8,3.2
								c-1,1.9,0.2,2.9,1.5,3.2c2.2,0.5,3.3-0.7,2.9-1.5c-0.2-0.3-0.5-0.3-0.7-0.2c-0.3,0.2-0.6,0.4-1,0.4c-0.4,0-0.8-0.3-0.9-0.7
								c-0.1-0.6,1.5-3.7,2.1-4.5h2.4c0.2,0,0.4,0,0.6-0.2C175.7,119.4,175.8,119,175.8,119"/>
						</g>
						<g>
							<g>
								<path fill-rule="evenodd" clip-rule="evenodd" fill="#FFFFFF" d="M186.7,126.3c0.5,0.1,1.1,0.1,1.5-0.2
									c0.4-0.4,0.4-0.9,0-1.2c-0.6-0.4-0.7,0-1.2-0.2c-0.4-0.1-1.2-0.9-1.6-1.5c-0.2-0.3-0.3-0.6-0.4-0.7c1.7-1.1,2.7-1.8,3.3-2.3
									c0.3-0.2,0.3-0.5,0.3-0.8c-0.1-0.2-0.3-0.6-0.5-0.7c-0.2-0.2-0.5-0.2-0.7,0c-0.7,0.6-1.6,1.3-3.1,2.3
									c-0.1-0.3-0.7-1.7-0.8-2c-0.1-0.3-0.5-0.3-0.6-0.3c-0.3,0-0.8,0-1,0.1c-0.3,0.1-0.4,0.3-0.4,0.4c0,0.2,0.5,1.6,1.2,2.9
									c-0.5,0.4-1,0.7-1.5,1c-0.8,0.5-1.6,0.9-2.2,1.2c-0.1,0-0.3,0.1-0.3,0.1c-1.6,0.7-3.4,0.5-3.6-0.4c3.4-0.8,4.7-1.8,5.5-2.7
									c0.8-0.9,0.7-2,0.1-2.3c-2-1.1-6.5,1.1-7.6,3.8c-0.4,1-0.2,2.4,1,3c2.6,1.4,6-0.1,8.7-1.9c0.2-0.1,0.4-0.3,0.6-0.4
									c0.1,0.2,0.3,0.5,0.4,0.7C184.6,125.4,185.8,126.1,186.7,126.3 M179.2,120c0.7,0.5-1.8,2.2-4.1,2.8
									C175.7,121.3,178.5,119.5,179.2,120"/>
							</g>
						</g>
						<g>
							<g>
								<path fill-rule="evenodd" clip-rule="evenodd" fill="#FFFFFF" d="M168.9,118.9c-0.3-0.3-0.7-0.3-1-0.3
									c-0.3,0-0.5,0.1-0.5,0.3c-1.2,2.3-2.1,3.9-2.8,4.9c-0.9,1.1-2.1,1.2-2.1,0.6c0.1-1,1.6-3.5,2.5-4.9c0.1-0.2,0.1-0.5-0.1-0.7
									c-0.2-0.1-0.6-0.3-0.9-0.3c-0.3,0-0.6,0.1-0.8,0.4c-1,1.3-2.7,4.6-2.6,5.6c-0.2,0.3-0.8,0.6-1.3,0.5
									c-0.3-0.1-0.6-0.3-0.5-0.7l1.7-3.8c0.1-0.2,0-0.4-0.3-0.5c-0.2-0.1-0.7-0.1-0.9-0.1c0.2-0.1,0.7-0.2,1-0.2
									c0.2-0.1,0.3-0.2,0.3-0.4c0-0.2-0.2-0.5-0.3-0.7c-0.1-0.1-0.3-0.2-0.5-0.2c-0.5,0-2.4,0.1-4.4,1.5c-1.5,1-2.5,2.5-2.5,3.8
									c-0.3,0.4-0.8,1-1.4,1.2c-0.8,0.2-0.7-0.6-0.3-1.6c1.2-2.7,2.8-5.1,4.6-7.5c0.1-0.2,0.1-0.5-0.2-0.6c-0.3-0.1-0.8-0.1-1.2,0
									c-0.2,0-0.4,0.2-0.5,0.3c-0.4,0.6-1.2,1.6-1.9,2.8c-0.8,1.2-1.9,3.1-2.2,3.7c-0.6,1.3-1,2.4-0.8,3c0.2,0.6,0.9,1.1,1.8,1
									c0.8-0.1,1.6-0.5,2.3-1.3c0,0,1.1,2.5,3.9,0.5c0.3,0.9,2.2,1.2,3.7-0.3c0.6,1.2,2,1.4,3.6,0.2c0.1,0,0.1-0.1,0.2-0.2
									c-0.4,0.8-0.7,1.3-1,1.7c-0.4,0.5-1.1,1.3-2.2,1.3c-0.3,0-0.5-0.1-0.8-0.2c-0.3-0.1-0.5-0.1-0.7,0.2c0,0,0,0.1,0,0.1
									c-0.1,0.5,0.3,1.1,1.1,1.3c0.2,0,0.4,0.1,0.7,0c1.7,0,2.7-0.9,3.4-2.1c0.7-1.1,1.8-3.9,1.8-3.9s0.9-2,2.1-4.1
									C169.3,119.3,169.2,119.1,168.9,118.9 M156.8,124.2c-0.9,1.2-2.3,0.6-1.6-1c0.6-1.5,2.6-2.6,3.9-2.9
									C158.3,121.6,157.6,123,156.8,124.2"/>
							</g>
						</g>
					</g>
				</g>
				<g>
					<g>
						<path fill="#FFFFFF" d="M166.9,135.1c0.2,0.6,1,0.7,1.5,0.7c0.6,0,1.5-0.2,1.5-0.9c0-0.6-0.7-0.7-1.5-0.7c-1-0.1-2-0.2-2-1.2
							c0-0.9,1.1-1.3,1.9-1.3c0.7,0,1.7,0.2,2,1c0.1,0.3-0.4,0.4-0.5,0.2c-0.2-0.5-1-0.6-1.5-0.6c-0.5,0-1.4,0.2-1.4,0.8
							c0,0.6,0.7,0.7,1.5,0.7c1,0.1,2,0.1,2,1.2c0,1.1-1.2,1.4-2.1,1.4c-0.7,0-1.8-0.2-2-1.1C166.3,134.9,166.8,134.8,166.9,135.1z"
							/>
						<path fill="#FFFFFF" d="M171.8,134.9v1.1c0,0.3-0.5,0.3-0.5,0v-4c0-0.1,0.1-0.2,0.3-0.2h1.5c1.2,0,1.8,0.8,1.8,1.6
							c0,0.8-0.6,1.5-1.8,1.5H171.8z M171.8,134.4h1.3c0.9,0,1.3-0.5,1.3-1.1c0-0.6-0.5-1.2-1.3-1.2h-1.3V134.4z"/>
						<path fill="#FFFFFF" d="M175.5,133.9c0-1.1,0.7-2,1.9-2.2c0.3,0,0.5,0,0.7,0c1.1,0.2,1.9,1.1,1.9,2.2c0,1.5-1.1,2.4-2.2,2.4
							C176.5,136.3,175.5,135.4,175.5,133.9z M176,133.9c0,1.2,0.8,1.9,1.7,1.9c0.9,0,1.7-0.7,1.7-1.9c0-0.9-0.6-1.6-1.5-1.8
							c-0.2,0-0.4,0-0.6,0C176.6,132.3,176,133,176,133.9z"/>
						<path fill="#FFFFFF" d="M181.5,134.6v1.4c0,0.3-0.5,0.3-0.5,0v-4c0-0.1,0.1-0.2,0.3-0.2h1.7c1.2,0,1.8,0.7,1.8,1.5
							c0,0.7-0.4,1.2-1.2,1.4l1.1,1.2c0.3,0.3-0.1,0.6-0.4,0.3l-1.4-1.5H181.5z M181.5,134.2h1.4c0.9,0,1.3-0.4,1.3-1
							c0-0.6-0.5-1-1.3-1h-1.4V134.2z"/>
						<path fill="#FFFFFF" d="M188.9,131.7c0.3,0,0.3,0.5,0,0.5h-1.6c0,1.3,0,2.5,0,3.8c0,0.2-0.1,0.3-0.3,0.3
							c-0.1,0-0.3-0.1-0.3-0.3v-3.8h-1.6c-0.3,0-0.3-0.5,0-0.5H188.9z"/>
					</g>
				</g>
			</g>
		</g>
	</g>
	<g>
		<g>
			<g>
				<g>
					<g>
						<path fill="none" stroke="#505978" stroke-width="1.0057" stroke-miterlimit="10" d="M385.7,27.7l0.1-2.8
							c-1.2,0-2.3-0.8-2.6-1.9v-1.8c0.4-1.1,1.4-1.9,2.6-1.9l0-2.4c-1.2,0-2.2-0.8-2.6-1.8v-2c0.4-1.1,1.4-1.8,2.6-1.8l0-2.5h-2.6
							V5.9l-2.9,0c0,1.6-1.2,2.8-2.7,2.8c-1.5,0-2.7-1.3-2.7-2.8l-2.3,0c0,1.6-1.2,2.8-2.7,2.8c-1.5,0-2.7-1.3-2.7-2.8l-2.7-0.1
							c0,1.6-1.2,2.8-2.7,2.8c-1.5,0-2.7-1.3-2.7-2.8l-2.3,0.1c0,1.6-1.2,2.8-2.7,2.8c-1.5,0-2.7-1.3-2.7-2.8l-3.1,0
							c0,1.6-1.2,2.8-2.7,2.8c-1.5,0-2.7-1.3-2.7-2.8l-2.3-0.1c0,1.6-1.2,2.8-2.7,2.8c-1.5,0-2.7-1.3-2.7-2.8l-2.7-0.1
							c0,1.6-1.2,2.8-2.7,2.8c-1.5,0-2.7-1.3-2.7-2.8l-2.3,0c0,1.6-1.2,2.8-2.7,2.8c-1.5,0-2.7-1.3-2.7-2.8l-2.4,0v3h-2.6l0,2.5
							c1.2,0,2.2,0.8,2.6,1.8v2c-0.4,1.1-1.4,1.8-2.6,1.8l0,2.4c1.2,0,2.3,0.8,2.6,1.9v1.8c-0.4,1.1-1.4,1.9-2.6,1.9l0.1,2.8
							c1.1,0,2.1,0.7,2.6,1.7v2.3c-0.4,1-1.4,1.7-2.6,1.7l0.1,2.4c1.1,0,2,0.6,2.5,1.6v2.5c-0.5,0.9-1.4,1.6-2.5,1.6l0,3.2
							c1.1,0,2.1,0.7,2.5,1.6v2.4c-0.4,1-1.4,1.6-2.5,1.6l-0.1,2.4c1.2,0,2.2,0.7,2.6,1.7v2.2c-0.4,1-1.4,1.7-2.6,1.7l0.1,2.8
							c1.1,0,2,0.6,2.5,1.5v2.6c-0.5,0.9-1.4,1.5-2.5,1.5l0,2.4c1.1,0,2,0.6,2.4,1.5v2.7c-0.5,0.9-1.4,1.5-2.4,1.5l0,3h2.5v3l2.4,0
							c0-1.6,1.2-2.8,2.7-2.8s2.7,1.3,2.7,2.8l2.3,0c0-1.6,1.2-2.8,2.7-2.8c1.5,0,2.7,1.3,2.7,2.8l2.7-0.1c0-1.6,1.2-2.8,2.7-2.8
							c1.5,0,2.7,1.3,2.7,2.8l2.3-0.1c0-1.6,1.2-2.8,2.7-2.8c1.5,0,2.7,1.3,2.7,2.8l3.1,0c0-1.6,1.2-2.8,2.7-2.8
							c1.5,0,2.7,1.3,2.7,2.8l2.3,0.1c0-1.6,1.2-2.8,2.7-2.8c1.5,0,2.7,1.3,2.7,2.8l2.7-0.1c0-1.6,1.2-2.8,2.7-2.8
							c1.5,0,2.7,1.3,2.7,2.8l2.3,0c0-1.6,1.2-2.8,2.7-2.8c1.5,0,2.7,1.3,2.7,2.8l2.9,0v-2.9h2.5l0-3c-1.1,0-2-0.6-2.4-1.5v-2.7
							c0.5-0.9,1.4-1.5,2.4-1.5l0-2.4c-1.1,0-2-0.6-2.5-1.5v-2.6c0.5-0.9,1.4-1.5,2.5-1.5l0.1-2.8c-1.2,0-2.2-0.7-2.6-1.7v-2.2
							c0.4-1,1.4-1.7,2.6-1.7l-0.1-2.4c-1.1,0-2.1-0.7-2.5-1.6v-2.4c0.5-1,1.4-1.6,2.5-1.6l0-3.2c-1.1,0-2-0.6-2.5-1.6v-2.5
							c0.5-0.9,1.4-1.6,2.5-1.6l0.1-2.4c-1.1,0-2.1-0.7-2.6-1.7v-2.3C383.6,28.4,384.5,27.7,385.7,27.7z"/>
						
							<rect x="320" y="11.5" fill="#B6ACD4" stroke="#505978" stroke-width="2.0114" stroke-miterlimit="10" width="59.6" height="63.4"/>
					</g>
				</g>
			</g>
			<g>
				<path fill="#FFFFFF" d="M352.4,41.6c0,0.1-0.1,0.2-0.1,0.3c-0.3,0.7-0.7,1.1-1.4,1.4c-1.2,0.5-2.4,0.6-3.5,0.1
					c-1-0.3-1.6-1-1.9-2c-0.3-1-0.3-2,0-3c0.4-1.2,1.2-1.9,2.4-2.1c0.8-0.2,1.6-0.2,2.3,0.1c1.1,0.3,1.8,1.1,2.1,2.2
					c0.1,0.4,0.1,0.9,0.2,1.3c0,0.2,0,0.2-0.2,0.2c-0.1,0-0.1,0-0.2,0c-1.8,0-3.7,0-5.5,0c-0.1,0-0.2,0-0.2,0
					c-0.1,0-0.2,0.1-0.2,0.2c0,0.7,0.2,1.4,0.7,2c0.4,0.4,0.9,0.6,1.5,0.7c0.8,0.1,1.7,0,2.3-0.5c0.2-0.1,0.3-0.4,0.5-0.6
					c0.1-0.1,0.2-0.2,0.3-0.2C351.9,41.6,352.1,41.6,352.4,41.6 M346.3,39.4h0.3h4.5c0.5,0,0.5,0,0.4-0.5c-0.2-1-0.8-1.6-1.7-1.9
					c-0.3-0.1-0.7-0.1-1.1-0.1c-0.7,0-1.3,0.3-1.8,0.9C346.5,38.2,346.3,38.7,346.3,39.4"/>
				<path fill="#FFFFFF" d="M336.8,41.6c-0.2,0.6-0.6,1.1-1.1,1.4c-0.6,0.4-1.3,0.6-2.1,0.6c-0.5,0-1,0-1.5-0.1
					c-1.3-0.4-2-1.2-2.3-2.5c-0.2-0.9-0.2-1.8,0.1-2.7c0.3-0.9,1-1.6,1.9-1.9c0.9-0.3,1.9-0.3,2.8-0.1c1.3,0.4,2,1.3,2.2,2.7
					c0,0.3,0.1,0.5,0.1,0.8c0,0.3,0,0.3-0.3,0.3c-1.1,0-2.2,0-3.4,0c-0.8,0-1.6,0-2.3,0c-0.3,0-0.3,0-0.3,0.3c0,0.9,0.4,1.7,1.2,2.2
					c0.5,0.3,1.1,0.4,1.7,0.4c0.5,0,1-0.1,1.4-0.4c0.3-0.2,0.5-0.4,0.6-0.7c0.1-0.2,0.2-0.2,0.3-0.2
					C336.3,41.6,336.6,41.6,336.8,41.6 M333.4,39.4c0.8,0,1.6,0,2.4,0c0.2,0,0.3,0,0.2-0.2c-0.1-0.9-0.5-1.5-1.2-2
					c-0.4-0.2-0.8-0.3-1.3-0.3c-0.6,0-1.2,0.1-1.7,0.5c-0.6,0.4-0.9,1-1,1.8c0,0.2,0,0.3,0.2,0.3C331.8,39.4,332.6,39.4,333.4,39.4"
					/>
				<path fill="#FFFFFF" d="M369.6,37.4c0.1-0.1,0.2-0.2,0.3-0.3c0.6-0.6,1.3-0.9,2.2-0.9c0.6,0,1.2,0,1.8,0.2
					c0.2,0.1,0.5,0.2,0.7,0.4c0.5,0.3,0.7,0.8,0.7,1.4c0,1.7,0,3.4,0,5c0,0.2,0,0.3-0.3,0.3c-0.1,0-0.3,0-0.4,0
					c-0.3,0-0.3,0-0.3-0.3c0-1.4,0-2.8,0-4.1c0-0.3,0-0.7-0.1-1c-0.1-0.5-0.5-0.9-1-1c-0.8-0.2-1.6-0.2-2.3,0.2
					c-0.7,0.3-1.1,0.9-1.3,1.7c0,0.2-0.1,0.4-0.1,0.6c0,1.2,0,2.4,0,3.7c0,0.1,0,0.2,0,0.3c-0.3,0-0.5,0-0.8,0
					c-0.1,0-0.1-0.1-0.2-0.2c0-0.1,0-0.2,0-0.2v-8.5c0-0.1,0-0.1,0-0.2c0-0.1,0.1-0.2,0.2-0.2c0.2,0,0.4,0,0.6,0
					c0.1,0,0.2,0.1,0.2,0.2c0,0.1,0,0.1,0,0.2V37L369.6,37.4C369.6,37.3,369.6,37.3,369.6,37.4"/>
				<path fill="#FFFFFF" d="M322.1,41.3c0.3,0,0.6,0,0.9,0c0,0,0.1,0.1,0.1,0.1c0.2,0.9,0.8,1.4,1.7,1.5c0.6,0.1,1.2,0,1.8-0.2
					c0.3-0.1,0.5-0.3,0.7-0.5c0.3-0.5,0.3-1.2-0.4-1.5c-0.4-0.2-0.8-0.3-1.3-0.4c-0.8-0.2-1.5-0.3-2.2-0.6c-0.4-0.2-0.8-0.4-1-0.8
					c-0.3-0.6-0.2-1.4,0.3-1.9c0.5-0.6,1.2-0.8,1.9-0.9c0.8-0.1,1.5,0,2.3,0.3c0.8,0.3,1.3,0.9,1.4,1.7c0,0.2,0,0.2-0.2,0.3
					c-0.2,0-0.4,0-0.6,0c-0.1,0-0.2,0-0.2-0.2c-0.1-0.7-0.5-1-1.1-1.2c-0.7-0.2-1.4-0.2-2.1,0.1c-0.5,0.2-0.8,0.6-0.8,1.1
					c0,0.4,0.2,0.7,0.5,0.8c0.3,0.1,0.7,0.3,1.1,0.3c0.8,0.2,1.6,0.4,2.3,0.6c0.2,0.1,0.5,0.2,0.7,0.3c0.8,0.5,0.9,1.6,0.4,2.2
					c-0.3,0.4-0.6,0.7-1.1,0.9c-1.1,0.4-2.2,0.4-3.4,0.1c-0.8-0.2-1.4-0.7-1.7-1.5C322.1,41.7,322.1,41.5,322.1,41.3"/>
				<path fill="#FFFFFF" d="M355.1,37.4c0.1-0.1,0.1-0.1,0.2-0.2c0.6-0.7,1.4-1,2.4-1c0.6,0,1.2,0,1.8,0.3c0.5,0.2,0.9,0.5,1.1,1
					c0.1,0.3,0.2,0.7,0.2,1c0,1.6,0,3.1,0,4.7c0,0,0,0.1,0,0.1c0,0.2-0.1,0.2-0.2,0.2c-0.2,0-0.3,0-0.5,0c-0.1,0-0.2-0.1-0.2-0.2
					c0-0.1,0-0.1,0-0.2c0-1.3,0-2.6,0-3.9c0-0.3,0-0.6-0.1-0.9c-0.1-0.7-0.5-1.1-1.2-1.3c-0.7-0.1-1.4-0.1-2.1,0.2
					c-0.8,0.4-1.3,1-1.3,1.8c0,1.4,0,2.7,0,4.1c0,0.4,0,0.4-0.4,0.4c-0.5,0-0.5,0-0.5-0.5c0-0.9,0-1.8,0-2.6c0-0.4,0-0.8,0-1.3
					c0-0.3,0-0.6,0-1c0-0.5,0-1,0-1.5c0-0.2,0-0.3,0.3-0.3c0.1,0,0.3,0,0.4,0c0.1,0,0.2,0.1,0.2,0.2c0,0.2,0,0.4,0,0.7
					C355,37.2,355,37.3,355.1,37.4C355,37.4,355,37.4,355.1,37.4"/>
				<path fill="#FFFFFF" d="M371.6,46.8V47c0,0.8,0,1.6,0,2.5c0,0.3,0,0.3-0.3,0.3c-0.2,0-0.5,0-0.7,0c-0.2,0-0.2,0-0.2-0.2
					c0-0.9,0-1.8,0-2.8c0-0.5,0-1,0-1.5c0-0.2,0-0.3,0.3-0.3c0.3,0,0.7,0,1,0c0.2,0,0.3,0.1,0.4,0.2c0.6,0.9,1.2,1.8,1.7,2.7
					c0,0.1,0.1,0.1,0.1,0.2c0,0,0,0,0.1,0c0-0.1,0-0.2,0-0.2c0-0.8,0-1.7,0-2.5c0-0.3,0-0.3,0.3-0.3c0.2,0,0.5,0,0.7,0
					c0.2,0,0.2,0,0.2,0.2c0,0.6,0,1.2,0,1.8c0,0.8,0,1.6,0,2.4c0,0.3,0,0.3-0.3,0.3c-0.3,0-0.6,0-0.9,0c-0.2,0-0.3-0.1-0.4-0.2
					c-0.6-0.9-1.1-1.7-1.7-2.6C371.8,46.9,371.7,46.8,371.6,46.8C371.6,46.8,371.6,46.8,371.6,46.8"/>
				<path fill="#FFFFFF" d="M335.4,46.8c0,0.1,0,0.2,0,0.3c0,0.8,0,1.6,0,2.5c0,0.3,0,0.3-0.3,0.3c-0.2,0-0.5,0-0.7,0
					c-0.2,0-0.2,0-0.2-0.2c0-0.7,0-1.4,0-2.1c0-0.7,0-1.4,0-2.1c0-0.2,0-0.3,0.2-0.3c0.3,0,0.7,0,1,0c0.2,0,0.3,0.1,0.3,0.2
					c0.6,0.9,1.1,1.8,1.7,2.6c0.1,0.1,0.1,0.2,0.2,0.2c0,0,0,0,0.1,0c0-0.1,0-0.2,0-0.3c0-0.8,0-1.7,0-2.5c0-0.3,0-0.3,0.3-0.3
					c0.3,0,0.5,0,0.7,0c0.2,0,0.2,0,0.2,0.3v3.3c0,0.3,0,0.6,0,1c0,0.2,0,0.2-0.2,0.2c-0.4,0-0.7,0-1.1,0c-0.2,0-0.3-0.1-0.3-0.2
					c-0.6-0.9-1.1-1.7-1.7-2.6C335.5,46.9,335.5,46.8,335.4,46.8C335.4,46.8,335.4,46.8,335.4,46.8"/>
				<path fill="#FFFFFF" d="M326.7,49.5c-0.1,0-0.1,0-0.2,0.1c-0.9,0.4-1.9,0.4-2.8,0.1c-0.9-0.4-1.5-1.2-1.5-2.2
					c0-0.8,0.2-1.5,0.8-2c0.3-0.3,0.7-0.5,1.2-0.5c0.7-0.2,1.5-0.2,2.2,0.1c0.5,0.2,0.8,0.5,1,1c0,0.1,0,0.1,0.1,0.2
					c0,0,0,0.1,0,0.1c-0.1,0-0.2,0-0.2,0c-0.2,0-0.5,0-0.7,0c-0.2,0-0.4,0-0.5-0.2c-0.3-0.4-1-0.5-1.6-0.3c-0.3,0.1-0.5,0.3-0.7,0.6
					c-0.4,0.7-0.2,1.6,0.3,2.1c0.5,0.4,1.4,0.5,1.9,0.1c0.2-0.1,0.3-0.3,0.3-0.6c-0.1,0-0.2,0-0.3,0c-0.2,0-0.5,0-0.7,0
					c-0.1,0-0.2,0-0.2-0.2c0-0.8-0.1-0.6,0.6-0.7c0.5,0,1.1,0,1.6,0c0.2,0,0.2,0,0.2,0.2c0,0.7,0,1.4,0,2.1c0,0.2,0,0.2-0.2,0.2
					c-0.1,0-0.1,0-0.2,0C327,49.8,326.8,49.8,326.7,49.5"/>
				<path fill="#FFFFFF" d="M366.6,44.9c0.4,0,0.8,0,1.2,0.2c1,0.4,1.6,1.2,1.6,2.2c0,0.4-0.1,0.9-0.3,1.2c-0.3,0.6-0.7,1-1.3,1.2
					c-0.8,0.3-1.7,0.3-2.5,0c-0.9-0.4-1.5-1.1-1.5-2.2c0-0.4,0-0.9,0.2-1.3c0.3-0.6,0.7-0.9,1.3-1.1
					C365.7,44.9,366.2,44.9,366.6,44.9 M366.6,45.8c-0.8,0-1.2,0.4-1.4,1.1c0,0.1,0,0.2,0,0.4c0,0.3,0,0.5,0.1,0.8
					c0.2,0.7,0.9,1,1.6,0.8c0.6-0.1,0.9-0.5,1-1c0-0.3,0.1-0.6,0-0.9C367.9,46.3,367.4,45.8,366.6,45.8"/>
				<path fill="#FFFFFF" d="M349.4,47.6c0.4,0.1,0.4,0.4,0.5,0.7c0.2,0.4,0.4,0.9,0.6,1.3c0,0,0,0.1,0,0.1c-0.1,0-0.1,0-0.2,0
					c-0.3,0-0.7,0-1,0c-0.1,0-0.2,0-0.3-0.2c-0.1-0.4-0.3-0.7-0.4-1.1c-0.1-0.4-0.4-0.5-0.8-0.6c-0.2,0-0.4,0-0.5,0
					c-0.3,0-0.3,0-0.3,0.3c0,0.4,0,0.8,0,1.2c0,0.3,0,0.3-0.3,0.3c-0.3,0-0.5,0-0.8,0c-0.3,0-0.3,0-0.3-0.3v-3c0-0.4,0-0.8,0-1.2
					c0-0.2,0.1-0.2,0.2-0.2c0.9,0,1.9,0,2.8,0c0.3,0,0.7,0.1,1,0.2c0.4,0.2,0.7,0.5,0.7,1c0,0.4-0.1,0.8-0.5,1
					C349.8,47.4,349.6,47.4,349.4,47.6C349.5,47.6,349.4,47.6,349.4,47.6 M347.8,45.9L347.8,45.9c-0.2,0-0.4,0-0.5,0
					c-0.1,0-0.2,0-0.2,0.2c0,0.3,0,0.6,0,0.9c0,0.1,0.1,0.2,0.2,0.2c0.4,0,0.9,0,1.3-0.1c0.3,0,0.5-0.3,0.5-0.6
					c0-0.3-0.2-0.5-0.5-0.5C348.3,45.9,348.1,45.9,347.8,45.9"/>
				<path fill="#FFFFFF" d="M328.7,47.4c0-0.7,0-1.4,0-2.1c0-0.3,0-0.3,0.3-0.3c1.2,0,2.4,0,3.7,0c0.3,0,0.3,0,0.3,0.3
					c0,0.1,0,0.3,0,0.4c0,0.2,0,0.2-0.2,0.2c-0.7,0-1.4,0-2.2,0c-0.1,0-0.2,0-0.3,0c-0.1,0-0.2,0.1-0.2,0.2c0,0.2,0,0.4,0,0.6
					c0,0.2,0.1,0.2,0.2,0.2c0.4,0,0.8,0,1.2,0c0.3,0,0.6,0,0.9,0c0.3,0,0.3,0,0.3,0.3c0,0.1,0,0.2,0,0.3c0,0.3,0,0.3-0.3,0.3
					c-0.6,0-1.2,0-1.8,0c-0.1,0-0.2,0-0.3,0c-0.2,0-0.2,0-0.2,0.2c0,0.2,0,0.4,0,0.7c0,0.2,0,0.2,0.2,0.2c0.8,0,1.6,0,2.3,0
					c0.4,0,0.4,0,0.4,0.4c0,0.1,0,0.2,0,0.3c0,0.1-0.1,0.2-0.2,0.2c-0.3,0-0.5,0-0.8,0c-1,0-2,0-3.1,0c-0.3,0-0.3,0-0.3-0.3
					C328.7,48.8,328.7,48.1,328.7,47.4"/>
				<path fill="#FFFFFF" d="M340.3,47.4c0-0.7,0-1.4,0-2.1c0-0.3,0-0.3,0.3-0.3c1.2,0,2.5,0,3.7,0c0.2,0,0.3,0,0.3,0.3
					c0,0.1,0,0.2,0,0.4c0,0.3,0,0.3-0.3,0.3c-0.7,0-1.4,0-2.1,0c-0.5,0-0.5,0-0.5,0.5c0,0.5-0.1,0.5,0.5,0.5c0.6,0,1.3,0,1.9,0
					c0.3,0,0.3,0,0.3,0.3c0,0.2,0,0.3,0,0.4c0,0.1-0.1,0.2-0.2,0.2c-0.2,0-0.3,0-0.5,0c-0.6,0-1.1,0-1.7,0c-0.2,0-0.3,0-0.3,0.3
					c0,0.2,0,0.4,0,0.6c0,0.2,0,0.3,0.2,0.3c0.4,0,0.9,0,1.3,0c0.4,0,0.8,0,1.2,0c0.2,0,0.2,0.1,0.2,0.2c0,0.2,0,0.4,0,0.5
					c0,0.1,0,0.2-0.2,0.2c0,0-0.1,0-0.1,0h-3.7c-0.3,0-0.3,0-0.3-0.3C340.3,48.8,340.3,48.1,340.3,47.4"/>
				<path fill="#FFFFFF" d="M337.5,36.3c0.4,0,0.7,0,1,0c0.1,0,0.1,0.1,0.1,0.2c0.3,0.6,0.6,1.3,0.8,1.9c0.5,1.2,1.1,2.5,1.6,3.7
					c0,0.1,0.1,0.2,0.2,0.3c0.1-0.2,0.1-0.3,0.2-0.4c0.7-1.6,1.4-3.3,2.1-4.9c0.1-0.2,0.2-0.4,0.3-0.6c0-0.1,0.1-0.1,0.2-0.1
					c0.3,0,0.5,0,0.9,0c0,0.1,0,0.2-0.1,0.2c-1,2.2-2,4.5-2.9,6.7c-0.1,0.2-0.2,0.2-0.4,0.2c-0.2,0-0.4,0-0.7,0
					c-0.1,0-0.2-0.1-0.2-0.2c-0.5-1-0.9-2.1-1.4-3.1c-0.5-1.2-1.1-2.4-1.6-3.6C337.6,36.5,337.5,36.5,337.5,36.3"/>
				<path fill="#FFFFFF" d="M367.1,42.7c0,0.2,0,0.4,0,0.6c0,0.1-0.1,0.2-0.2,0.2c-0.2,0.1-0.4,0.1-0.6,0.2c-0.6,0.1-1.3,0.1-1.9,0
					c-1.1-0.2-1.7-0.9-1.9-2c-0.1-0.3-0.1-0.7-0.1-1.1c0-2,0-4,0-5.9c0-0.1,0-0.2,0-0.2c0-0.1,0.1-0.1,0.1-0.1c0.2,0,0.5,0,0.7,0
					c0.2,0,0.1,0.1,0.1,0.2c0,0.6,0,1.2,0,1.8c0,0.1,0,0.1,0,0.2c0,0.1,0.1,0.2,0.2,0.2c0.1,0,0.1,0,0.2,0h3.1c0.3,0,0.3,0,0.3,0.3
					c0,0,0,0.1,0,0.1c0,0.1-0.1,0.2-0.2,0.2c-0.1,0-0.1,0-0.2,0c-1,0-2,0-3,0c-0.3,0-0.3,0-0.3,0.3c0,1.1,0,2.2,0,3.3
					c0,0.4,0.1,0.7,0.2,1.1c0.2,0.7,0.7,1,1.4,1.1c0.5,0,1,0,1.5,0C366.6,42.8,366.8,42.7,367.1,42.7"/>
				<path fill="#FFFFFF" d="M351.1,49.8c0.1-0.3,0.2-0.5,0.3-0.7c0.5-1.3,1.1-2.5,1.6-3.8c0.1-0.3,0.1-0.3,0.5-0.3c0.3,0,0.7,0,1,0
					c0.2,0,0.2,0.1,0.3,0.2c0.5,1.3,1,2.5,1.5,3.7c0.1,0.3,0.2,0.5,0.3,0.8h-0.4c-0.3,0-0.6,0-0.9,0c-0.2,0-0.3,0-0.3-0.2
					c-0.1-0.2-0.1-0.3-0.2-0.5c0-0.1-0.1-0.2-0.3-0.2c-0.5,0-1.1,0-1.6,0c-0.1,0-0.2,0-0.2,0.2c-0.1,0.2-0.1,0.4-0.2,0.5
					c0,0.1-0.1,0.2-0.2,0.2C352,49.8,351.6,49.8,351.1,49.8 M353.8,46.2C353.8,46.2,353.8,46.2,353.8,46.2c-0.3,0.5-0.5,1.1-0.7,1.7
					h1.3C354.3,47.3,354,46.8,353.8,46.2"/>
				<path fill="#FFFFFF" d="M358.4,45c0.7,0,1.4,0,2,0c0.3,0,0.3,0,0.3,0.3c0,0.1,0,0.3,0,0.4c0,0.2,0,0.2-0.2,0.2
					c-0.4,0-0.8,0-1.1,0c-0.2,0-0.2,0-0.2,0.3c0,1.1,0,2.2,0,3.2c0,0.1,0,0.1,0,0.2c0,0.1-0.1,0.2-0.2,0.2c-0.3,0-0.7,0-1,0
					c-0.1,0-0.2-0.1-0.2-0.2c0-0.1,0-0.1,0-0.2c0-1,0-2.1,0-3.1c0-0.3-0.1-0.3-0.4-0.3c-0.4,0-0.7,0-1.1,0c-0.1,0-0.2-0.1-0.2-0.2
					c0-0.2,0-0.3,0-0.5c0-0.2,0.1-0.2,0.2-0.2c0.5,0,1,0,1.5,0H358.4L358.4,45z"/>
				<path fill="#FFFFFF" d="M361.5,47.4c0-0.7,0-1.4,0-2.1c0-0.3,0-0.3,0.3-0.3c0.3,0,0.6,0,0.8,0c0.2,0,0.3,0,0.3,0.3
					c0,1.3,0,2.6,0,3.9c0,0.1,0,0.3,0,0.4c0,0.1,0,0.2-0.2,0.2c-0.3,0-0.7,0-1,0c-0.2,0-0.2-0.1-0.2-0.2
					C361.5,48.8,361.5,48.1,361.5,47.4"/>
			</g>
		</g>
		<g>
			<g>
				<g>
					<g>
						<path fill="none" stroke="#505978" stroke-width="1.0057" stroke-miterlimit="10" d="M466.1,27.7l0.1-2.8
							c-1.2,0-2.3-0.8-2.6-1.9v-1.8c0.4-1.1,1.4-1.9,2.6-1.9l0-2.4c-1.2,0-2.2-0.8-2.6-1.8v-2c0.4-1.1,1.4-1.8,2.6-1.8l0-2.5h-2.6
							V5.9l-2.9,0c0,1.6-1.2,2.8-2.7,2.8s-2.7-1.3-2.7-2.8l-2.3,0c0,1.6-1.2,2.8-2.7,2.8c-1.5,0-2.7-1.3-2.7-2.8l-2.7-0.1
							c0,1.6-1.2,2.8-2.7,2.8c-1.5,0-2.7-1.3-2.7-2.8L437,5.8c0,1.6-1.2,2.8-2.7,2.8c-1.5,0-2.7-1.3-2.7-2.8l-3.1,0
							c0,1.6-1.2,2.8-2.7,2.8c-1.5,0-2.7-1.3-2.7-2.8l-2.3-0.1c0,1.6-1.2,2.8-2.7,2.8c-1.5,0-2.7-1.3-2.7-2.8l-2.7-0.1
							c0,1.6-1.2,2.8-2.7,2.8c-1.5,0-2.7-1.3-2.7-2.8l-2.3,0c0,1.6-1.2,2.8-2.7,2.8c-1.5,0-2.7-1.3-2.7-2.8l-2.4,0v3h-2.6l0,2.5
							c1.2,0,2.2,0.8,2.6,1.8v2c-0.4,1.1-1.4,1.8-2.6,1.8l0,2.4c1.2,0,2.3,0.8,2.6,1.9v1.8c-0.4,1.1-1.4,1.9-2.6,1.9l0.1,2.8
							c1.1,0,2.1,0.7,2.6,1.7v2.3c-0.4,1-1.4,1.7-2.6,1.7l0.1,2.4c1.1,0,2,0.6,2.5,1.6v2.5c-0.5,0.9-1.4,1.6-2.5,1.6l0,3.2
							c1.1,0,2.1,0.7,2.5,1.6v2.4c-0.5,1-1.4,1.6-2.5,1.6l-0.1,2.4c1.2,0,2.2,0.7,2.6,1.7v2.2c-0.4,1-1.4,1.7-2.6,1.7l0.1,2.8
							c1.1,0,2,0.6,2.5,1.5v2.6c-0.5,0.9-1.4,1.5-2.5,1.5l0,2.4c1.1,0,2,0.6,2.4,1.5v2.7c-0.5,0.9-1.4,1.5-2.4,1.5l0,3h2.5v3l2.4,0
							c0-1.6,1.2-2.8,2.7-2.8c1.5,0,2.7,1.3,2.7,2.8l2.3,0c0-1.6,1.2-2.8,2.7-2.8c1.5,0,2.7,1.3,2.7,2.8l2.7-0.1
							c0-1.6,1.2-2.8,2.7-2.8c1.5,0,2.7,1.3,2.7,2.8l2.3-0.1c0-1.6,1.2-2.8,2.7-2.8c1.5,0,2.7,1.3,2.7,2.8l3.1,0
							c0-1.6,1.2-2.8,2.7-2.8c1.5,0,2.7,1.3,2.7,2.8l2.3,0.1c0-1.6,1.2-2.8,2.7-2.8c1.5,0,2.7,1.3,2.7,2.8l2.7-0.1
							c0-1.6,1.2-2.8,2.7-2.8c1.5,0,2.7,1.3,2.7,2.8l2.3,0c0-1.6,1.2-2.8,2.7-2.8c1.5,0,2.7,1.3,2.7,2.8l2.9,0v-2.9h2.5l0-3
							c-1.1,0-2-0.6-2.4-1.5v-2.7C464,69.6,465,69,466,69l0-2.4c-1.1,0-2-0.6-2.5-1.5v-2.6C464,61.6,465,61,466,61l0.1-2.8
							c-1.2,0-2.2-0.7-2.6-1.7v-2.2c0.4-1,1.4-1.7,2.6-1.7l-0.1-2.4c-1.1,0-2.1-0.7-2.5-1.6v-2.4c0.4-1,1.4-1.6,2.5-1.6l0-3.2
							c-1.1,0-2-0.6-2.5-1.6v-2.5c0.5-0.9,1.4-1.6,2.5-1.6l0.1-2.4c-1.1,0-2.1-0.7-2.6-1.7v-2.3C464,28.4,465,27.7,466.1,27.7z"/>
						
							<rect x="400.5" y="11.5" fill="#B6ACD4" stroke="#505978" stroke-width="2.0114" stroke-miterlimit="10" width="59.6" height="63.4"/>
					</g>
				</g>
			</g>
			<g>
				<g>
					<g>
						<path fill="#FFFFFF" d="M402.3,41.9c0.3-0.2,0.5-0.3,0.9-0.4c0,0,0.1,0,0.1,0c0.1,0,0.2,0.1,0.2,0.2c0,0.1,0,0.2,0,0.3
							c0,0.2,0,0.5,0,0.7c0,0,0,0.1,0,0.2c0,0,0,0,0,0c0.3-0.7,0.8-1.1,1.4-1.3c0.9-0.3,1.8-0.3,2.6,0.2c0.7,0.4,1.1,1,1.2,1.8
							c0,0.2,0,0.4,0,0.7c0,1.2,0,2.5,0,3.7c0,0.2,0,0.2-0.2,0.2c-0.2,0-0.5,0-0.7,0c-0.1,0-0.1,0-0.1-0.1c0-0.9,0-1.9,0-2.8
							c0-0.4,0-0.8,0-1.2c0-0.4-0.1-0.8-0.3-1.2c-0.3-0.6-0.8-1-1.5-1c-1.2-0.1-1.9,0.7-2.2,1.6c-0.1,0.3-0.2,0.7-0.2,1.1
							c0,1.2,0,2.3,0,3.5c0,0.2,0,0.2-0.2,0.2c-0.2,0-0.4,0-0.7,0c-0.1,0-0.1,0-0.1-0.1c0,0,0-0.1,0-0.1c0-1.5,0-3.1,0-4.6
							c0-0.2,0-0.5-0.1-0.7c0-0.2-0.1-0.3-0.3-0.4V41.9L402.3,41.9z"/>
					</g>
					<g>
						<g>
							<path fill="#FFFFFF" d="M416.6,47.9c-0.1,0-0.1,0-0.1,0c-0.3,0-0.5,0-0.8,0c-0.2,0-0.2,0-0.2-0.2c-0.1-0.4-0.2-0.7-0.2-1.1
								c0,0,0,0,0,0.1c-0.4,0.8-1.1,1.2-2,1.3c-0.7,0.1-1.3,0-2-0.3c-0.4-0.2-0.8-0.5-1-0.9c-0.3-0.7-0.2-1.6,0.5-2.1
								c0.4-0.3,0.9-0.5,1.5-0.6c0.6-0.1,1.2-0.2,1.9-0.2c0.3,0,0.7,0,1,0c0.1,0,0.1,0,0.1-0.1c0-0.3,0-0.7-0.1-1
								c-0.2-0.6-0.6-1-1.2-1.2c-0.7-0.1-1.4,0-2,0.4c-0.4,0.2-0.7,0.5-0.8,1c0,0.1-0.1,0.1-0.2,0c-0.2-0.3-0.3-0.6-0.3-0.9
								c0-0.1,0.1-0.2,0.2-0.3c0.1-0.1,0.2-0.1,0.3-0.2c0.5-0.2,1.1-0.4,1.6-0.4c0.8-0.1,1.5,0,2.2,0.2c0.8,0.3,1.2,0.9,1.3,1.8
								c0,0.7,0,1.4,0,2.1c0,0.4,0,0.7,0,1.1C416.3,47,416.4,47.4,416.6,47.9C416.6,47.9,416.6,47.9,416.6,47.9 M415.2,44.7
								c0-0.1,0-0.2,0-0.4c0-0.1,0-0.1-0.1-0.1c-0.4,0-0.7,0-1.1,0c-0.5,0-1,0.1-1.5,0.3c-0.3,0.1-0.6,0.3-0.9,0.6
								c-0.3,0.3-0.4,0.7-0.4,1.1c0,0.6,0.3,1,0.8,1.3c0.4,0.2,0.8,0.3,1.3,0.2c0.4,0,0.7-0.1,1-0.3c0.4-0.3,0.6-0.7,0.7-1.1
								C415.2,45.8,415.2,45.3,415.2,44.7"/>
						</g>
					</g>
					<g>
						<g>
							<path fill="#FFFFFF" d="M432.3,47.9c-0.1,0-0.1,0-0.1,0c-0.3,0-0.5,0-0.8,0c-0.2,0-0.2,0-0.2-0.2c-0.1-0.3-0.1-0.6-0.2-0.9
								c0-0.1,0-0.1,0-0.2c0,0,0,0,0,0c-0.4,0.8-1.1,1.2-1.9,1.3c-0.7,0.1-1.4,0-2-0.2c-0.4-0.1-0.7-0.3-0.9-0.6
								c-0.6-0.7-0.5-1.8,0.3-2.4c0.4-0.4,1-0.5,1.5-0.7c0.6-0.1,1.3-0.2,2-0.2c0.3,0,0.6,0,0.9,0c0.1,0,0.1,0,0.1-0.1
								c0-0.4,0-0.8-0.2-1.2c-0.2-0.5-0.6-0.8-1.2-0.9c-0.8-0.1-1.5,0-2.1,0.4c-0.3,0.2-0.6,0.5-0.7,0.9c0,0.1-0.1,0.1-0.2,0
								c-0.2-0.3-0.3-0.6-0.3-0.9c0-0.1,0.1-0.2,0.1-0.2c0.1-0.1,0.2-0.2,0.3-0.2c0.7-0.3,1.3-0.4,2.1-0.5c0.7,0,1.3,0,1.9,0.3
								c0.7,0.3,1,0.9,1.1,1.6c0,0.2,0,0.3,0,0.5c0,0.8,0,1.7,0,2.5c0,0.5,0.1,1,0.3,1.5C432.2,47.7,432.3,47.8,432.3,47.9
								 M430.1,44.2C430.1,44.2,430.1,44.2,430.1,44.2c-0.3,0-0.6,0-0.9,0c-0.4,0-0.9,0.1-1.3,0.3c-0.6,0.3-1,0.7-1,1.4
								c-0.1,0.7,0.2,1.3,0.9,1.6c0.6,0.2,1.2,0.2,1.7,0c0.4-0.1,0.7-0.4,0.9-0.8c0.1-0.2,0.2-0.4,0.2-0.6c0.2-0.6,0.2-1.3,0.2-1.9
								c0-0.1,0-0.1-0.1-0.1H430.1L430.1,44.2z"/>
						</g>
					</g>
					<g>
						<g>
							<path fill="#FFFFFF" d="M446.5,47.9h-0.4c-0.2,0-0.3,0-0.5,0c-0.2,0-0.2,0-0.2-0.2c-0.1-0.3-0.1-0.7-0.2-1c0,0,0-0.1,0-0.1
								c0,0-0.1,0-0.1,0.1c-0.5,0.9-1.2,1.2-2.2,1.3c-0.6,0-1.2,0-1.7-0.2c-0.4-0.2-0.7-0.4-1-0.7c-0.5-0.6-0.5-1.7,0.3-2.3
								c0.4-0.3,0.9-0.5,1.4-0.6c0.5-0.1,1-0.2,1.5-0.2c0.5,0,1,0,1.5,0c0.2,0,0.2,0,0.2-0.2c0-0.4,0-0.7-0.2-1
								c-0.2-0.6-0.6-0.9-1.2-1.1c-0.8-0.2-1.5-0.1-2.2,0.4c-0.3,0.2-0.6,0.5-0.7,1c0,0.1-0.1,0.1-0.2,0c-0.2-0.2-0.3-0.6-0.3-0.9
								c0-0.1,0.1-0.2,0.2-0.3c0.2-0.1,0.4-0.2,0.6-0.3c0.7-0.3,1.5-0.4,2.3-0.3c0.4,0,0.9,0.1,1.3,0.3c0.7,0.3,1.1,0.9,1.2,1.6
								c0,0.2,0,0.3,0,0.5c0,0.8,0,1.5,0,2.3c0,0.6,0.1,1.1,0.3,1.6C446.4,47.7,446.5,47.8,446.5,47.9 M444.3,44.2L444.3,44.2
								c-0.1,0-0.2,0-0.3,0c-0.6,0-1.1,0.1-1.6,0.3c-0.7,0.2-1.1,0.7-1.2,1.4c-0.1,0.6,0.1,1.1,0.7,1.5c0.4,0.3,0.8,0.3,1.3,0.3
								c0.9,0,1.5-0.5,1.8-1.4c0.2-0.7,0.2-1.4,0.2-2.1c0-0.1,0-0.1-0.1-0.1C444.8,44.2,444.6,44.2,444.3,44.2"/>
						</g>
					</g>
					<g>
						<g>
							<path fill="#FFFFFF" d="M455.3,43.8h-2.4c-0.2,0-0.2,0-0.2,0.2c-0.1,0.6,0,1.3,0.2,1.9c0.1,0.4,0.3,0.8,0.6,1.1
								c0.4,0.4,0.9,0.6,1.4,0.7c0.6,0.1,1.1,0,1.7-0.3c0.8-0.4,1.3-1.1,1.6-1.9c0,0,0-0.1,0.1-0.1c0,0,0.1-0.1,0.1,0
								c0,0,0.1,0.1,0.1,0.1c0,0.1,0,0.2-0.1,0.3c-0.3,1-1,1.7-2,2.1c-0.5,0.2-1.1,0.3-1.7,0.3c-1-0.1-1.9-0.5-2.5-1.4
								c-0.4-0.6-0.6-1.2-0.7-1.9c-0.1-1.5,0.9-3,2.4-3.4c1.1-0.3,2.2-0.2,3.2,0.4c0.6,0.4,1,0.9,1.1,1.6c0,0.2,0,0.3-0.2,0.3
								c-0.1,0-0.2,0-0.4,0C456.8,43.8,456,43.8,455.3,43.8 M454.8,43.5h1.8c0.1,0,0.2,0,0.2,0c0.1,0,0.1-0.1,0.1-0.2
								c-0.1-0.7-0.4-1.3-1.1-1.6c-0.4-0.2-0.9-0.2-1.3-0.1c-0.3,0-0.7,0.2-1,0.4c-0.5,0.3-0.7,0.8-0.9,1.4c0,0.1,0,0.2,0.1,0.2
								H454.8L454.8,43.5z"/>
						</g>
					</g>
					<g>
						<path fill="#FFFFFF" d="M436.5,41.2c0.8,0,1.6,0.2,2.3,0.5c0.1,0,0.3,0.1,0.4,0.2c0.1,0.1,0.1,0.2,0.1,0.3
							c0,0.3-0.1,0.6-0.3,0.8c0,0,0,0-0.1,0.1c0,0-0.1,0-0.1,0c0,0,0,0,0,0c-0.1-0.4-0.4-0.7-0.7-1c-0.7-0.4-1.4-0.5-2.2-0.4
							c-0.8,0.1-1.3,0.6-1.6,1.3c-0.2,0.4-0.2,0.8-0.3,1.2c0,0.5,0,1,0.1,1.5c0.2,0.6,0.4,1.2,0.9,1.5c0.4,0.3,0.8,0.5,1.3,0.5
							c1,0,1.7-0.4,2.4-1.1c0.1-0.2,0.3-0.3,0.4-0.5c0,0,0.1-0.1,0.1-0.1c0,0.1,0.1,0.1,0.1,0.2c0,0,0,0.1,0,0.1
							c-0.5,0.8-1.1,1.3-2,1.6c-1.2,0.3-2.3,0.1-3.3-0.7c-0.6-0.5-1-1.1-1.1-1.9c-0.2-0.9,0-1.7,0.4-2.5c0.5-0.8,1.3-1.3,2.2-1.5
							C435.9,41.3,436.2,41.3,436.5,41.2"/>
					</g>
					<g>
						<path fill="#FFFFFF" d="M421.4,41.8c0,0,0.1-0.1,0.1-0.1c0.3-0.2,0.6-0.3,0.9-0.3c0.1,0,0.2,0,0.2,0.2c0,0.1,0,0.3,0,0.4
							c0,0.4,0,0.7,0,1.1c0,0,0-0.1,0.1-0.1c0.2-0.3,0.4-0.7,0.7-1c0.5-0.4,1-0.7,1.6-0.7c0.2,0,0.2,0.1,0.2,0.2
							c0,0.3-0.1,0.6-0.3,0.9c0,0.1-0.1,0.1-0.2,0c-0.5-0.4-1.1-0.2-1.5,0.3c-0.2,0.3-0.4,0.7-0.4,1.1c-0.1,0.4-0.1,0.8-0.2,1.3
							c0,0.4,0,0.9,0,1.3c0,0.5,0,0.9,0,1.4c0,0.2,0,0.2-0.2,0.2H422c-0.2,0-0.2,0-0.2-0.2c0-1.7,0-3.4,0-5.1c0-0.1,0-0.1,0-0.2
							C421.8,42.1,421.7,41.9,421.4,41.8"/>
					</g>
					<g>
						<path fill="#FFFFFF" d="M448.8,43c0.1-0.1,0.1-0.2,0.2-0.3c0.4-0.7,0.9-1.2,1.7-1.4c0.2,0,0.4-0.1,0.6-0.1
							c0.1,0,0.2,0,0.2,0.2c0,0.3-0.1,0.6-0.3,0.9c0,0.1-0.1,0.1-0.2,0c-0.4-0.4-1.1-0.2-1.5,0.3c-0.2,0.4-0.4,0.7-0.4,1.2
							c-0.1,0.4-0.1,0.7-0.1,1.1c0,0.5,0,1,0,1.5c0,0.4,0,0.8,0,1.3c0,0.2,0,0.2-0.2,0.2c-0.2,0-0.4,0-0.6,0c-0.1,0-0.1,0-0.1-0.1
							c0,0,0-0.1,0-0.1c0-1.7,0-3.4,0-5c0-0.2,0-0.3-0.1-0.5c0-0.1-0.1-0.2-0.2-0.3c-0.1-0.1-0.1-0.1,0-0.2c0.2-0.2,0.5-0.3,0.7-0.3
							c0,0,0,0,0.1,0c0.3,0,0.4,0,0.4,0.3c0,0.4,0,0.7,0,1.1L448.8,43C448.8,43,448.8,43,448.8,43"/>
					</g>
					<g>
						<path fill="#FFFFFF" d="M418.2,45v-2.7c0-0.2,0-0.2-0.2-0.2c-0.2,0-0.4,0-0.6,0c0,0-0.1,0-0.1-0.1c0,0,0-0.1,0.1-0.1
							c0,0,0.1-0.1,0.1-0.1c0.7-0.4,1.2-0.9,1.4-1.7c0,0,0,0,0,0c0-0.1,0.1-0.2,0.1-0.1c0,0,0.1,0.1,0.1,0.2c0,0.5,0,1,0,1.5
							c0,0.2,0,0.2,0.2,0.2c0.3,0,0.6,0,0.9,0c0.1,0,0.2,0,0.2,0.1c0,0.2,0,0.2-0.2,0.2c-0.3,0-0.6,0-0.9,0c-0.1,0-0.1,0-0.1,0.1
							c0,0.4,0,0.7,0,1.1c0,1.4,0,2.7,0,4.1c0,0.1,0,0.2,0,0.3c0,0.1,0,0.1-0.1,0.1c-0.2,0-0.5,0-0.7,0c-0.1,0-0.1,0-0.1-0.1
							c0-0.3,0-0.6,0-0.8L418.2,45L418.2,45z"/>
					</g>
				</g>
			</g>
		</g>
	</g>
	<g>
		<rect x="314.5" y="104" fill="none" width="151.5" height="26"/>
		<text transform="matrix(1 0 0 1 339.0652 109.9224)" fill="#939598" font-family="'Hero-Light'" font-size="9">Weve got organics too.</text>
	</g>
</g>
</svg>
