<?xml version="1.0" encoding="utf-8"?>
<!-- Generator: Adobe Illustrator 18.1.1, SVG Export Plug-In . SVG Version: 6.00 Build 0)  -->
<svg version="1.1" id="Layer_1" xmlns="http://www.w3.org/2000/svg" xmlns:xlink="http://www.w3.org/1999/xlink" x="0px" y="0px"
	 viewBox="0 0 510 171.2" enable-background="new 0 0 510 171.2" xml:space="preserve">
<g>
	<g>
		<g>
			<g>
				<g>
					<defs>
						<rect id="SVGID_1_" x="133" y="26.6" width="60.4" height="64.2"/>
					</defs>
					<clipPath id="SVGID_2_">
						<use xlink:href="#SVGID_1_"  overflow="visible"/>
					</clipPath>
				</g>
				<g>
					<g>
						<path fill="none" stroke="#505978" stroke-miterlimit="10" d="M199.6,43l0.1-2.9c-1.3,0-2.3-0.8-2.7-1.9v-1.8
							c0.4-1.1,1.4-1.9,2.7-1.9l0-2.4c-1.2,0-2.2-0.8-2.7-1.8v-2c0.4-1.1,1.4-1.8,2.7-1.8l0-2.5H197v-2.9l-3,0
							c0,1.6-1.2,2.9-2.8,2.9c-1.5,0-2.8-1.3-2.8-2.9l-2.4,0c0,1.6-1.2,2.9-2.8,2.9c-1.5,0-2.8-1.3-2.8-2.9l-2.8-0.1
							c0,1.6-1.2,2.9-2.8,2.9c-1.5,0-2.8-1.3-2.8-2.9l-2.4,0.1c0,1.6-1.2,2.9-2.8,2.9c-1.5,0-2.8-1.3-2.8-2.9l-3.1,0
							c0,1.6-1.2,2.9-2.8,2.9c-1.5,0-2.8-1.3-2.8-2.9l-2.4-0.1c0,1.6-1.2,2.9-2.8,2.9c-1.5,0-2.8-1.3-2.8-2.9l-2.8-0.1
							c0,1.6-1.2,2.9-2.8,2.9c-1.5,0-2.8-1.3-2.8-2.9l-2.4,0c0,1.6-1.2,2.9-2.8,2.9c-1.5,0-2.8-1.3-2.8-2.9l-2.4,0v3.1h-2.7l0,2.5
							c1.2,0,2.2,0.8,2.7,1.8v2c-0.4,1.1-1.4,1.8-2.7,1.8l0,2.4c1.3,0,2.3,0.8,2.7,1.9v1.8c-0.4,1.1-1.4,1.9-2.7,1.9l0.1,2.9
							c1.2,0,2.2,0.7,2.6,1.7V47c-0.4,1-1.4,1.7-2.6,1.7l0.1,2.4c1.1,0,2.1,0.6,2.5,1.6v2.5c-0.5,0.9-1.4,1.6-2.5,1.6l0,3.2
							c1.1,0,2.1,0.7,2.6,1.6v2.4c-0.5,1-1.4,1.6-2.6,1.6l-0.1,2.4c1.2,0,2.2,0.7,2.6,1.7v2.2c-0.4,1-1.4,1.7-2.6,1.7l0.1,2.9
							c1.1,0,2,0.6,2.5,1.5v2.6c-0.5,0.9-1.4,1.5-2.5,1.5l0,2.4c1.1,0,2,0.6,2.5,1.5v2.7c-0.5,0.9-1.4,1.5-2.5,1.5l0,3.1h2.5v3.1
							l2.4,0c0-1.6,1.2-2.9,2.8-2.9c1.5,0,2.8,1.3,2.8,2.9l2.4,0c0-1.6,1.2-2.9,2.8-2.9c1.5,0,2.8,1.3,2.8,2.9l2.8-0.1
							c0-1.6,1.2-2.9,2.8-2.9c1.5,0,2.8,1.3,2.8,2.9l2.4-0.1c0-1.6,1.2-2.9,2.8-2.9c1.5,0,2.8,1.3,2.8,2.9l3.1,0
							c0-1.6,1.2-2.9,2.8-2.9c1.5,0,2.8,1.3,2.8,2.9l2.4,0.1c0-1.6,1.2-2.9,2.8-2.9c1.5,0,2.8,1.3,2.8,2.9l2.8-0.1
							c0-1.6,1.2-2.9,2.8-2.9c1.5,0,2.8,1.3,2.8,2.9l2.4,0c0-1.6,1.2-2.9,2.8-2.9c1.5,0,2.8,1.3,2.8,2.9l3,0v-2.9h2.5l0-3.1
							c-1.1,0-2-0.6-2.5-1.5v-2.7c0.5-0.9,1.4-1.5,2.5-1.5l0-2.4c-1.1,0-2-0.6-2.5-1.5v-2.6c0.5-0.9,1.4-1.5,2.5-1.5l0.1-2.9
							c-1.2,0-2.2-0.7-2.6-1.7v-2.2c0.4-1,1.4-1.7,2.6-1.7l-0.1-2.4c-1.1,0-2.1-0.7-2.6-1.6v-2.4c0.5-1,1.4-1.6,2.6-1.6l0-3.2
							c-1.1,0-2.1-0.6-2.5-1.6v-2.5c0.5-0.9,1.4-1.6,2.5-1.6l0.1-2.4c-1.2,0-2.2-0.7-2.6-1.7v-2.3C197.5,43.7,198.4,43,199.6,43z"/>
						
							<rect x="133" y="26.6" fill="#D0E6F7" stroke="#505978" stroke-width="2" stroke-miterlimit="10" width="60.4" height="64.2"/>
					</g>
				</g>
			</g>
			<g>
				<path fill="#FCE9A1" stroke="#505978" stroke-miterlimit="10" d="M156.3,54.4l-0.4-0.8c-1.1-1.8-5.9-2.8-6.1-2.7
					c2.1,3.1,2.4,7.1,0.8,10.1c0.2,0.3,4.8-1.5,5.5-3.6v0c0.1,0.3,3.4,5,9,5.3c4.8,0.2,8.6-2.6,8.6-5.8
					C173.8,45.4,156.4,54.4,156.3,54.4z"/>
				<path fill="#FCE9A1" stroke="#505978" stroke-miterlimit="10" d="M163.9,62.1c0,0-5.6,3.6-4.6,1.8c0.8-1.5,1.9-3.2,1.9-3.2"/>
				<path fill="#FCE9A1" stroke="#505978" stroke-miterlimit="10" d="M162.8,51.3"/>
			</g>
			<ellipse fill="#505978" cx="171.7" cy="55.5" rx="0.3" ry="0.4"/>
			<g>
				<path fill="#FFFFFF" stroke="#505978" stroke-miterlimit="10" d="M150,82.1c-0.2,0-0.2-0.1-0.2-0.2v-7.7c0-0.3,0.4-0.3,0.4,0
					v7.5h5.3c0.3,0,0.3,0.4,0,0.4H150z"/>
				<path fill="#FFFFFF" stroke="#505978" stroke-miterlimit="10" d="M157.4,74.8c0,0.3-0.5,0.3-0.5,0v-0.7c0-0.3,0.5-0.3,0.5,0
					V74.8z M156.9,75.9c0-0.3,0.4-0.3,0.4,0V82c0,0.3-0.4,0.3-0.4,0V75.9z"/>
				<path fill="#FFFFFF" stroke="#505978" stroke-miterlimit="10" d="M165.2,81.9c0,1.8-1.4,2.8-3.1,2.8c-1,0-1.7-0.2-2.4-0.8
					c-0.2-0.2,0.1-0.5,0.3-0.3c0.7,0.6,1.3,0.7,2.1,0.7c1.4,0,2.6-0.7,2.6-2.3v-1.2c-0.4,1-1.4,1.5-2.4,1.5c-0.5,0-0.9-0.1-1.3-0.2
					c-1.2-0.5-1.9-1.6-1.9-2.9c0-1.5,0.6-2.7,2-3.3c1-0.4,2-0.3,2.8,0.2c0.4,0.3,0.7,0.6,0.9,1.1v-1.3c0-0.1,0.1-0.2,0.2-0.2
					c0.1,0,0.2,0.1,0.2,0.2V81.9z M162.1,76c-0.6,0-1.1,0.2-1.6,0.6c-0.8,0.7-1.2,1.6-1.1,2.5c0,0.4,0.1,0.8,0.2,1.1
					c0.4,1.1,1.5,1.6,2.6,1.6c1.4-0.1,2.4-1,2.4-2.3v-1.1c-0.1-0.9-0.5-1.7-1.3-2.1C163,76.1,162.6,76,162.1,76z"/>
				<path fill="#FFFFFF" stroke="#505978" stroke-miterlimit="10" d="M172.9,78.4c0-1.6-1.5-2.7-3-2.3c-1.3,0.3-2.2,1.6-2.2,2.9v3
					c0,0.1-0.1,0.2-0.2,0.2c-0.1,0-0.2-0.1-0.2-0.2V74c0-0.3,0.4-0.3,0.4,0v3.6c0.3-1.1,1.2-1.7,2.1-2c1.7-0.4,3.6,0.6,3.6,2.7V82
					c0,0.1-0.1,0.2-0.2,0.2c-0.1,0-0.2-0.1-0.2-0.2V78.4z"/>
				<path fill="#FFFFFF" stroke="#505978" stroke-miterlimit="10" d="M178.2,75.7c0.3,0,0.3,0.4,0,0.4h-1.8V80
					c0,0.9,0.2,1.8,1.3,1.8c0.2,0,0.6-0.1,0.8-0.2c0.3-0.1,0.5,0.2,0.2,0.4c-0.3,0.2-0.6,0.2-0.9,0.2c-1.4,0-1.8-1.1-1.8-2.3v-3.9
					h-1.2c-0.3,0-0.3-0.4,0-0.4h1.2V74c0-0.3,0.4-0.3,0.4,0v1.6H178.2z"/>
			</g>
		</g>
		<g>
			<g>
				<g>
					<g>
						<defs>
							<rect id="SVGID_3_" x="222" y="26.6" width="60.4" height="64.2"/>
						</defs>
						<clipPath id="SVGID_4_">
							<use xlink:href="#SVGID_3_"  overflow="visible"/>
						</clipPath>
					</g>
					<g>
						<g>
							<path fill="none" stroke="#505978" stroke-miterlimit="10" d="M288.6,43l0.1-2.9c-1.3,0-2.3-0.8-2.7-1.9v-1.8
								c0.4-1.1,1.4-1.9,2.7-1.9l0-2.4c-1.2,0-2.2-0.8-2.7-1.8v-2c0.4-1.1,1.4-1.8,2.7-1.8l0-2.5H286v-2.9l-3,0
								c0,1.6-1.2,2.9-2.8,2.9c-1.5,0-2.8-1.3-2.8-2.9l-2.4,0c0,1.6-1.2,2.9-2.8,2.9c-1.5,0-2.8-1.3-2.8-2.9l-2.8-0.1
								c0,1.6-1.2,2.9-2.8,2.9c-1.5,0-2.8-1.3-2.8-2.9l-2.4,0.1c0,1.6-1.2,2.9-2.8,2.9c-1.5,0-2.8-1.3-2.8-2.9l-3.1,0
								c0,1.6-1.2,2.9-2.8,2.9c-1.5,0-2.8-1.3-2.8-2.9l-2.4-0.1c0,1.6-1.2,2.9-2.8,2.9c-1.5,0-2.8-1.3-2.8-2.9l-2.8-0.1
								c0,1.6-1.2,2.9-2.8,2.9c-1.5,0-2.8-1.3-2.8-2.9l-2.4,0c0,1.6-1.2,2.9-2.8,2.9c-1.5,0-2.8-1.3-2.8-2.9l-2.4,0v3.1h-2.7l0,2.5
								c1.2,0,2.2,0.8,2.7,1.8v2c-0.4,1.1-1.4,1.8-2.7,1.8l0,2.4c1.3,0,2.3,0.8,2.7,1.9v1.8c-0.4,1.1-1.4,1.9-2.7,1.9l0.1,2.9
								c1.2,0,2.2,0.7,2.6,1.7V47c-0.4,1-1.4,1.7-2.6,1.7l0.1,2.4c1.1,0,2.1,0.6,2.5,1.6v2.5c-0.5,0.9-1.4,1.6-2.5,1.6l0,3.2
								c1.1,0,2.1,0.7,2.6,1.6v2.4c-0.5,1-1.4,1.6-2.6,1.6l-0.1,2.4c1.2,0,2.2,0.7,2.6,1.7v2.2c-0.4,1-1.4,1.7-2.6,1.7l0.1,2.9
								c1.1,0,2,0.6,2.5,1.5v2.6c-0.5,0.9-1.4,1.5-2.5,1.5l0,2.4c1.1,0,2,0.6,2.5,1.5v2.7c-0.5,0.9-1.4,1.5-2.5,1.5l0,3.1h2.5v3.1
								l2.4,0c0-1.6,1.2-2.9,2.8-2.9c1.5,0,2.8,1.3,2.8,2.9l2.4,0c0-1.6,1.2-2.9,2.8-2.9c1.5,0,2.8,1.3,2.8,2.9l2.8-0.1
								c0-1.6,1.2-2.9,2.8-2.9c1.5,0,2.8,1.3,2.8,2.9l2.4-0.1c0-1.6,1.2-2.9,2.8-2.9c1.5,0,2.8,1.3,2.8,2.9l3.1,0
								c0-1.6,1.2-2.9,2.8-2.9c1.5,0,2.8,1.3,2.8,2.9l2.4,0.1c0-1.6,1.2-2.9,2.8-2.9c1.5,0,2.8,1.3,2.8,2.9l2.8-0.1
								c0-1.6,1.2-2.9,2.8-2.9c1.5,0,2.8,1.3,2.8,2.9l2.4,0c0-1.6,1.2-2.9,2.8-2.9c1.5,0,2.8,1.3,2.8,2.9l3,0v-2.9h2.5l0-3.1
								c-1.1,0-2-0.6-2.5-1.5v-2.7c0.5-0.9,1.4-1.5,2.5-1.5l0-2.4c-1.1,0-2-0.6-2.5-1.5v-2.6c0.5-0.9,1.4-1.5,2.5-1.5l0.1-2.9
								c-1.2,0-2.2-0.7-2.6-1.7v-2.2c0.4-1,1.4-1.7,2.6-1.7l-0.1-2.4c-1.1,0-2.1-0.7-2.6-1.6v-2.4c0.5-1,1.4-1.6,2.6-1.6l0-3.2
								c-1.1,0-2.1-0.6-2.5-1.6v-2.5c0.5-0.9,1.4-1.6,2.5-1.6l0.1-2.4c-1.2,0-2.2-0.7-2.6-1.7v-2.3C286.5,43.7,287.5,43,288.6,43z"
								/>
							
								<rect x="222" y="26.6" fill="#D0E6F7" stroke="#505978" stroke-width="2" stroke-miterlimit="10" width="60.4" height="64.2"/>
						</g>
					</g>
				</g>
				<g>
					
						<path fill="#F79C83" stroke="#505978" stroke-width="0.9196" stroke-linecap="round" stroke-linejoin="round" stroke-miterlimit="10" d="
						M262.1,44.1L262.1,44.1c-6.2-6.1-12.3-6.5-12.3-6.5c1.3,3.3,0.4,6.5-0.5,8.6c-5.7,3.4-8.8,9.2-8.8,9.3l0,0
						c-2.1-3.5-6.6-5.8-7-5.5c3.2,3,5.5,12.2,2.4,19.8c0.5,0.5,3.5-2.9,5-6.9v0c0.3,0.5,6.4,9.5,17.2,10.1
						c9.1,0.5,16.5-6.6,16.5-14.7C274.6,51.5,269.2,45.7,262.1,44.1z"/>
					<polyline fill="#F6F6FB" points="257.4,59.4 260.6,58.8 260.7,61.9 					"/>
					<polyline fill="#F6F6FB" points="260.7,62 263.6,60.3 264.4,63.1 					"/>
					<polyline fill="#F6F6FB" points="264.4,63 266.4,60.9 268.2,63.3 					"/>
					<polyline fill="#F6F6FB" points="268.1,63.3 269.2,61.1 271.2,62.8 					"/>
					<polyline fill="#F6F6FB" points="271.2,62.8 272,59.9 274,62 					"/>
					<path fill="none" stroke="#505978" stroke-width="1.0478" stroke-linecap="round" stroke-miterlimit="10" d="M254.2,54.3
						c0,0,4,13.2,19.8,7.7"/>
					<path fill="#F79C83" stroke="#505978" stroke-width="0.6986" stroke-miterlimit="10" d="M255.6,71.8c0,0-10.7,6.8-8.9,3.4
						c1.5-2.8,3.6-6.1,3.6-6.1"/>
					
						<path fill="#F79C83" stroke="#505978" stroke-width="0.6986" stroke-linecap="round" stroke-linejoin="round" stroke-miterlimit="10" d="
						M253.5,51"/>
					<path fill="#F6F6FB" d="M269.7,51.8c0,0.4,0.1,0.8,0.1,1.2c0,2.7-1.2,4.1-2.5,4.1s-2-1.4-2-4.1c0-1.1,0.1-1.9,0.4-2.7
						L269.7,51.8z"/>
					
						<line fill="#F79C83" stroke="#505978" stroke-width="1.0478" stroke-linecap="round" stroke-linejoin="round" stroke-miterlimit="10" x1="264.6" y1="49.9" x2="271.2" y2="52.5"/>
					<ellipse fill="#505978" cx="268.8" cy="54.1" rx="0.4" ry="0.7"/>
				</g>
			</g>
			<g>
				<g>
					<path fill="#FFFFFF" stroke="#505978" stroke-miterlimit="10" d="M230.4,82.9v2.8c0,0.3-0.4,0.3-0.4,0V78
						c0-0.1,0.1-0.2,0.2-0.2h3.2c2.1,0,3.2,1.2,3.2,2.6c0,1.4-0.9,2.3-2.8,2.5l2.6,2.7c0.2,0.2-0.1,0.5-0.3,0.3l-2.8-3H230.4z
						 M230.4,82.5h3c2,0,2.8-0.9,2.8-2.1c0-1.2-1.1-2.2-2.8-2.2h-3V82.5z"/>
					<path fill="#FFFFFF" stroke="#505978" stroke-miterlimit="10" d="M244.3,82.6c0,0.2,0,0.4-0.4,0.4h-5.7
						c0.1,0.5,0.3,1.1,0.6,1.5c0.5,0.6,1.3,1,2.2,1c0.7,0,1.4-0.2,2-0.6c0.2-0.2,0.5,0.1,0.3,0.3c-0.6,0.5-1.4,0.8-2.2,0.8
						c-1,0-2-0.4-2.5-1.1c-0.5-0.7-0.8-1.5-0.8-2.4c0.1-1.4,1-2.6,2.3-3c0.6-0.2,1.3-0.2,1.9,0C243.4,79.8,244.3,81,244.3,82.6z
						 M238.2,82.6h5.7c0-1.4-0.8-2.4-2-2.8c-0.5-0.1-1.1-0.1-1.6,0C239,80.2,238.2,81.3,238.2,82.6z"/>
					<path fill="#FFFFFF" stroke="#505978" stroke-miterlimit="10" d="M251.8,85.6c0,1.8-1.4,2.8-3.1,2.8c-0.9,0-1.7-0.2-2.4-0.8
						c-0.2-0.2,0.1-0.5,0.3-0.3c0.7,0.6,1.3,0.7,2.1,0.7c1.4,0,2.6-0.7,2.6-2.3v-1.2c-0.4,1-1.4,1.5-2.4,1.5c-0.5,0-0.9-0.1-1.3-0.2
						c-1.2-0.5-1.9-1.6-1.9-2.9c0-1.5,0.6-2.7,2-3.3c1-0.4,2-0.3,2.8,0.2c0.4,0.3,0.7,0.6,0.9,1.1v-1.3c0-0.1,0.1-0.2,0.2-0.2
						c0.1,0,0.2,0.1,0.2,0.2V85.6z M248.7,79.7c-0.6,0-1.1,0.2-1.6,0.6c-0.8,0.7-1.2,1.6-1.1,2.5c0,0.4,0.1,0.8,0.2,1.1
						c0.4,1,1.5,1.6,2.6,1.6c1.4-0.1,2.4-1,2.4-2.3v-1.1c-0.1-0.9-0.5-1.7-1.3-2.1C249.6,79.8,249.2,79.7,248.7,79.7z"/>
					<path fill="#FFFFFF" stroke="#505978" stroke-miterlimit="10" d="M254.2,83.2c0,1.6,1.5,2.7,3,2.3c1.3-0.3,2.2-1.6,2.2-2.9v-3
						c0-0.1,0.1-0.2,0.2-0.2c0.1,0,0.2,0.1,0.2,0.2v6.1c0,0.1-0.1,0.2-0.2,0.2c-0.1,0-0.2-0.1-0.2-0.2v-1.8
						c-0.3,1.1-1.2,1.8-2.1,2.1c-1.6,0.4-3.6-0.6-3.6-2.7v-3.6c0-0.1,0.1-0.2,0.2-0.2c0.1,0,0.2,0.1,0.2,0.2V83.2z"/>
					<path fill="#FFFFFF" stroke="#505978" stroke-miterlimit="10" d="M262.4,85.7c0,0.1-0.1,0.2-0.2,0.2c-0.1,0-0.2-0.1-0.2-0.2v-8
						c0-0.1,0.1-0.2,0.2-0.2c0.1,0,0.2,0.1,0.2,0.2V85.7z"/>
					<path fill="#FFFFFF" stroke="#505978" stroke-miterlimit="10" d="M267.5,79.3c0.5,0,1.1,0.1,1.5,0.4c0.4,0.3,0.7,0.7,0.9,1.2
						v-1.3c0-0.1,0.1-0.2,0.2-0.2c0.1,0,0.2,0.1,0.2,0.2v6.1c0,0.1-0.1,0.2-0.2,0.2c-0.1,0-0.2-0.1-0.2-0.2v-1.3
						c-0.2,0.5-0.5,0.9-0.9,1.2c-0.8,0.5-1.8,0.6-2.8,0.2c-1.4-0.6-2-1.8-2-3.3c0-1.3,0.7-2.5,1.9-2.9
						C266.5,79.4,267,79.3,267.5,79.3z M269.9,83.2v-1.1c0-0.9-0.5-1.7-1.3-2.1c-0.4-0.2-0.7-0.2-1.1-0.3c-1.1,0-2.2,0.6-2.6,1.6
						c-0.1,0.3-0.2,0.7-0.2,1.1c0,1,0.3,1.9,1.1,2.5c0.4,0.3,1,0.5,1.6,0.6c0.4,0,0.9-0.1,1.3-0.3C269.4,84.9,269.9,84.1,269.9,83.2
						z"/>
					<path fill="#FFFFFF" stroke="#505978" stroke-miterlimit="10" d="M272.9,81c0.3-1,1.2-1.6,2.3-1.6c0.1,0,0.2,0.1,0.2,0.2
						c0,0.1-0.1,0.2-0.2,0.2c-1.6,0-2.3,1.4-2.3,2.9v2.9c0,0.1-0.1,0.2-0.2,0.2c-0.1,0-0.2-0.1-0.2-0.2v-6.1c0-0.1,0.1-0.2,0.2-0.2
						c0.1,0,0.2,0.1,0.2,0.2V81z"/>
				</g>
			</g>
		</g>
		<g>
			<g>
				<g>
					<defs>
						<rect id="SVGID_5_" x="316.6" y="26.6" width="60.4" height="64.2"/>
					</defs>
					<clipPath id="SVGID_6_">
						<use xlink:href="#SVGID_5_"  overflow="visible"/>
					</clipPath>
				</g>
				<g>
					<g>
						<path fill="none" stroke="#505978" stroke-miterlimit="10" d="M383.2,43l0.1-2.9c-1.3,0-2.3-0.8-2.7-1.9v-1.8
							c0.4-1.1,1.4-1.9,2.7-1.9l0-2.4c-1.2,0-2.2-0.8-2.7-1.8v-2c0.4-1.1,1.4-1.8,2.7-1.8l0-2.5h-2.7v-2.9l-3,0
							c0,1.6-1.2,2.9-2.8,2.9c-1.5,0-2.8-1.3-2.8-2.9l-2.4,0c0,1.6-1.2,2.9-2.8,2.9c-1.5,0-2.8-1.3-2.8-2.9l-2.8-0.1
							c0,1.6-1.2,2.9-2.8,2.9c-1.5,0-2.8-1.3-2.8-2.9l-2.4,0.1c0,1.6-1.2,2.9-2.8,2.9c-1.5,0-2.8-1.3-2.8-2.9l-3.1,0
							c0,1.6-1.2,2.9-2.8,2.9c-1.5,0-2.8-1.3-2.8-2.9l-2.4-0.1c0,1.6-1.2,2.9-2.8,2.9c-1.5,0-2.8-1.3-2.8-2.9l-2.8-0.1
							c0,1.6-1.2,2.9-2.8,2.9c-1.5,0-2.8-1.3-2.8-2.9l-2.4,0c0,1.6-1.2,2.9-2.8,2.9c-1.5,0-2.8-1.3-2.8-2.9l-2.4,0v3.1h-2.7l0,2.5
							c1.2,0,2.2,0.8,2.7,1.8v2c-0.4,1.1-1.4,1.8-2.7,1.8l0,2.4c1.3,0,2.3,0.8,2.7,1.9v1.8c-0.4,1.1-1.4,1.9-2.7,1.9l0.1,2.9
							c1.2,0,2.2,0.7,2.6,1.7V47c-0.4,1-1.4,1.7-2.6,1.7l0.1,2.4c1.1,0,2.1,0.6,2.5,1.6v2.5c-0.5,0.9-1.4,1.6-2.5,1.6l0,3.2
							c1.1,0,2.1,0.7,2.6,1.6v2.4c-0.5,1-1.4,1.6-2.6,1.6l-0.1,2.4c1.2,0,2.2,0.7,2.6,1.7v2.2c-0.4,1-1.4,1.7-2.6,1.7l0.1,2.9
							c1.1,0,2,0.6,2.5,1.5v2.6c-0.5,0.9-1.4,1.5-2.5,1.5l0,2.4c1.1,0,2,0.6,2.5,1.5v2.8c-0.5,0.9-1.4,1.5-2.5,1.5l0,3.1h2.5v3.1
							l2.4,0c0-1.6,1.2-2.9,2.8-2.9c1.5,0,2.8,1.3,2.8,2.9l2.4,0c0-1.6,1.2-2.9,2.8-2.9c1.5,0,2.8,1.3,2.8,2.9l2.8-0.1
							c0-1.6,1.2-2.9,2.8-2.9c1.5,0,2.8,1.3,2.8,2.9l2.4-0.1c0-1.6,1.2-2.9,2.8-2.9c1.5,0,2.8,1.3,2.8,2.9l3.1,0
							c0-1.6,1.2-2.9,2.8-2.9c1.5,0,2.8,1.3,2.8,2.9l2.4,0.1c0-1.6,1.2-2.9,2.8-2.9c1.5,0,2.8,1.3,2.8,2.9l2.8-0.1
							c0-1.6,1.2-2.9,2.8-2.9c1.5,0,2.8,1.3,2.8,2.9l2.4,0c0-1.6,1.2-2.9,2.8-2.9c1.5,0,2.8,1.3,2.8,2.9l3,0v-2.9h2.5l0-3.1
							c-1.1,0-2-0.6-2.5-1.5v-2.7c0.5-0.9,1.4-1.5,2.5-1.5l0-2.4c-1.1,0-2-0.6-2.5-1.5v-2.6c0.5-0.9,1.4-1.5,2.5-1.5l0.1-2.9
							c-1.2,0-2.2-0.7-2.6-1.7v-2.2c0.4-1,1.4-1.7,2.6-1.7l-0.1-2.4c-1.1,0-2.1-0.7-2.6-1.6v-2.4c0.5-1,1.4-1.6,2.6-1.6l0-3.2
							c-1.1,0-2.1-0.6-2.5-1.6v-2.5c0.5-0.9,1.4-1.6,2.5-1.6l0.1-2.4c-1.2,0-2.2-0.7-2.6-1.7v-2.3C381,43.7,382,43,383.2,43z"/>
						
							<rect x="316.6" y="26.6" fill="#D0E6F7" stroke="#505978" stroke-width="2" stroke-miterlimit="10" width="60.4" height="64.2"/>
					</g>
				</g>
			</g>
			<g>
				<defs>
					<rect id="SVGID_7_" x="316.6" y="26.6" width="60.4" height="64.2"/>
				</defs>
				<clipPath id="SVGID_8_">
					<use xlink:href="#SVGID_7_"  overflow="visible"/>
				</clipPath>
				<g clip-path="url(#SVGID_8_)">
					
						<path fill="#A9B0BE" stroke="#505978" stroke-width="1.7672" stroke-linecap="round" stroke-linejoin="round" stroke-miterlimit="10" d="
						M343.2,39.6L343.2,39.6l-8.5-10.3l-4.6,12.5c-12.3,2.6-22.5,6.4-22.5,6.4l-1.2-2.6c-3.6-5.9-1.8,19.3,0.6,12.5c0,0,0,0,0,0
						c0.3,0.6,5.4,8.1,14.5,12.9c-1.2,2-3,4.9-4.4,7.6c-2.4,4.5,8.2-1.6,12.8-4.4c1.9,0.5,4,0.8,6.1,0.9c15.3,0.8,37.8-6.8,38-19.5
						C374.2,40.3,359.1,37.9,343.2,39.6z"/>
					<ellipse fill="#505978" cx="364.8" cy="50.7" rx="0.6" ry="0.7"/>
					<polyline fill="#F6F6FB" points="374,54.1 372.1,57.1 369.6,54.2 					"/>
					<polyline fill="#F6F6FB" points="369.6,54.2 367.7,57.3 365.2,54.4 					"/>
					<polyline fill="#F6F6FB" points="365.2,54.3 363.3,57.3 360.8,54.4 					"/>
					<polyline fill="#F6F6FB" points="360.8,54.5 359,57.5 356.5,54.6 					"/>
					<polyline fill="#F6F6FB" points="356.5,54.5 354.6,57.5 352.1,54.6 					"/>
					
						<line fill="none" stroke="#505978" stroke-width="1.0103" stroke-linecap="round" stroke-miterlimit="10" x1="351.2" y1="54.5" x2="374" y2="54.1"/>
				</g>
			</g>
			<path fill="#A9B0BE" stroke="#505978" stroke-width="1.4064" stroke-miterlimit="10" d="M328.4,66.8c-1.7,0-3-2.5-3-5.5
				c0-3,1.4-5.5,3-5.5"/>
			<path fill="#A9B0BE" stroke="#505978" stroke-width="1.4064" stroke-miterlimit="10" d="M324.1,66.8c-1.7,0-3-2.5-3-5.5
				c0-3,1.4-5.5,3-5.5"/>
			<g>
				<path fill="#FFFFFF" stroke="#505978" stroke-miterlimit="10" d="M329.7,85.6c0.3,1.1,1.7,1.4,2.7,1.5c0.2,0,0.4,0,0.6,0
					c1.3,0,3.2-0.4,3.2-2c0-2.9-6.7-0.3-6.7-3.7c0-1.3,1.2-1.9,2.3-2.1c0.3-0.1,0.7-0.1,1.1-0.1c1.2,0,3,0.3,3.4,1.6
					c0.1,0.3-0.3,0.4-0.4,0.1c-0.4-1.2-2-1.4-3.1-1.4c-0.1,0-0.2,0-0.3,0c-0.9,0.1-2.2,0.4-2.6,1.4c-0.1,0.1-0.1,0.3-0.1,0.4
					c0,2.9,6.7,0.4,6.7,3.7c0,1.9-2.1,2.4-3.6,2.4c-1.3,0-3.3-0.4-3.7-1.8C329.2,85.5,329.6,85.4,329.7,85.6z"/>
				<path fill="#FFFFFF" stroke="#505978" stroke-miterlimit="10" d="M338.5,84.8c0,1.6,1.5,2.7,3,2.3c1.3-0.3,2.2-1.6,2.2-2.9v-3
					c0-0.1,0.1-0.2,0.2-0.2c0.1,0,0.2,0.1,0.2,0.2v6.1c0,0.1-0.1,0.2-0.2,0.2c-0.1,0-0.2-0.1-0.2-0.2v-1.8c-0.3,1.1-1.2,1.8-2.1,2.1
					c-1.6,0.4-3.6-0.6-3.6-2.7v-3.6c0-0.1,0.1-0.2,0.2-0.2c0.1,0,0.2,0.1,0.2,0.2V84.8z"/>
				<path fill="#FFFFFF" stroke="#505978" stroke-miterlimit="10" d="M349.2,87.6c-1,0-2-0.5-2.4-1.5v3.7c0,0.1-0.1,0.2-0.2,0.2
					c-0.1,0-0.2-0.1-0.2-0.2v-8.5c0-0.1,0.1-0.2,0.2-0.2c0.1,0,0.2,0.1,0.2,0.2v1.3c0.2-0.5,0.5-0.8,0.9-1.1
					c0.8-0.5,1.8-0.6,2.8-0.2c1.4,0.6,2.1,1.8,2,3.3c0,1.3-0.7,2.5-1.9,2.9C350.1,87.5,349.6,87.6,349.2,87.6z M346.7,83.7v1.1
					c0.1,1.3,1,2.3,2.4,2.3c1.1,0,2.2-0.6,2.6-1.6c0.1-0.3,0.2-0.7,0.2-1.1c0-1-0.3-1.9-1.1-2.5c-0.4-0.3-1-0.5-1.6-0.6
					c-0.4,0-0.9,0.1-1.3,0.3C347.2,82,346.8,82.8,346.7,83.7z"/>
				<path fill="#FFFFFF" stroke="#505978" stroke-miterlimit="10" d="M360.3,84.2c0,0.2-0.1,0.4-0.4,0.4h-5.7
					c0.1,0.5,0.3,1.1,0.6,1.5c0.5,0.6,1.3,1,2.2,1c0.7,0,1.4-0.2,2-0.6c0.2-0.2,0.5,0.1,0.3,0.3c-0.6,0.5-1.4,0.8-2.2,0.8
					c-1,0-2-0.4-2.5-1.1c-0.5-0.7-0.8-1.5-0.8-2.4c0.1-1.4,1-2.6,2.3-3c0.6-0.2,1.3-0.2,1.9,0C359.4,81.4,360.3,82.6,360.3,84.2z
					 M354.2,84.2h5.7c0-1.4-0.8-2.4-2-2.8c-0.5-0.1-1.1-0.1-1.6,0C354.9,81.8,354.2,82.9,354.2,84.2z"/>
				<path fill="#FFFFFF" stroke="#505978" stroke-miterlimit="10" d="M362.4,82.6c0.3-1,1.2-1.6,2.3-1.6c0.1,0,0.2,0.1,0.2,0.2
					c0,0.1-0.1,0.2-0.2,0.2c-1.6,0-2.3,1.4-2.3,2.9v2.9c0,0.1-0.1,0.2-0.2,0.2c-0.1,0-0.2-0.1-0.2-0.2v-6.1c0-0.1,0.1-0.2,0.2-0.2
					c0.1,0,0.2,0.1,0.2,0.2V82.6z"/>
			</g>
		</g>
	</g>
	<g>
		<rect x="129.2" y="107" fill="none" width="254.1" height="43.5"/>
		<text transform="matrix(1 0 0 1 164.9116 112.9121)"><tspan x="0" y="0" fill="#939598" font-family="'Hero-Light'" font-size="9">Choose between our different flow mixes </tspan><tspan x="54" y="10.8" fill="#939598" font-family="'Hero-Light'" font-size="9">that best fits you</tspan></text>
	</g>
</g>
</svg>
