<?xml version="1.0" encoding="utf-8"?>
<!-- Generator: Adobe Illustrator 15.1.0, SVG Export Plug-In . SVG Version: 6.00 Build 0)  -->
<!DOCTYPE svg PUBLIC "-//W3C//DTD SVG 1.1//EN" "http://www.w3.org/Graphics/SVG/1.1/DTD/svg11.dtd">
<svg version="1.1" id="Capa_1" xmlns="http://www.w3.org/2000/svg" xmlns:xlink="http://www.w3.org/1999/xlink" x="0px" y="0px"
	 width="139px" height="145px" viewBox="0 0 139 145" enable-background="new 0 0 139 145" xml:space="preserve">
<g>
	<g>
		<g>
			<g>
				<g>
					<g>
						<defs>
							<rect id="SVGID_1_" x="11.943" y="11.935" width="114.327" height="121.639"/>
						</defs>
						<clipPath id="SVGID_2_">
							<use xlink:href="#SVGID_1_"  overflow="visible"/>
						</clipPath>
						<use xlink:href="#SVGID_1_"  overflow="visible" fill="none" stroke="#595A5C" stroke-width="2" stroke-miterlimit="10"/>
					</g>
					<path fill="none" stroke="#505978" stroke-width="1.0057" stroke-miterlimit="10" d="M137.939,42.917l0.166-5.422
						c-2.367,0-4.355-1.535-5.081-3.66v-3.486c0.726-2.123,2.714-3.658,5.081-3.658l-0.058-4.615c-2.297,0-4.247-1.444-5.023-3.473
						v-3.854c0.776-2.03,2.727-3.475,5.023-3.475l0.056-4.713h-5.079V1.083l-5.613,0.053c0,2.983-2.336,5.403-5.218,5.403
						c-2.881,0-5.212-2.419-5.212-5.403l-4.459-0.053c0,2.983-2.333,5.405-5.215,5.405s-5.217-2.421-5.217-5.405l-5.236-0.219
						c0,2.984-2.337,5.403-5.219,5.403c-2.88,0-5.216-2.419-5.216-5.403l-4.453,0.109c0,2.983-2.334,5.403-5.215,5.403
						c-2.886,0-5.218-2.42-5.218-5.403l-5.917,0.053c0,2.988-2.337,5.403-5.219,5.403c-2.881,0-5.216-2.415-5.216-5.403L50.73,0.921
						c0,2.983-2.337,5.398-5.219,5.398c-2.877,0-5.217-2.415-5.217-5.398l-5.237-0.166c0,2.983-2.333,5.4-5.218,5.4
						c-2.876,0-5.212-2.417-5.212-5.4L20.17,0.811c0,2.981-2.334,5.403-5.214,5.403c-2.883,0-5.219-2.421-5.219-5.403l-4.55-0.055
						v5.805h-5.08l0.055,4.713c2.297,0,4.248,1.444,5.024,3.47v3.861c-0.777,2.026-2.728,3.47-5.024,3.47L0.105,26.69
						c2.368,0,4.355,1.535,5.082,3.656v3.488c-0.727,2.125-2.714,3.66-5.082,3.66l0.164,5.422c2.197,0,4.074,1.316,4.917,3.201
						v4.407c-0.844,1.88-2.721,3.198-4.917,3.198l0.107,4.613c2.114,0,3.925,1.223,4.81,2.997v4.806
						c-0.885,1.774-2.696,3.001-4.81,3.001l-0.052,6.13c2.153,0,3.997,1.272,4.862,3.102v4.601
						c-0.865,1.829-2.709,3.101-4.862,3.101l-0.109,4.612c2.235,0,4.155,1.365,4.971,3.31v4.188c-0.816,1.943-2.736,3.31-4.971,3.31
						l0.216,5.422c2.072,0,3.852,1.182,4.755,2.896v5.012c-0.903,1.715-2.683,2.896-4.755,2.896l0.055,4.614
						c2.032,0,3.779,1.135,4.7,2.797v5.209c-0.92,1.66-2.667,2.797-4.7,2.797l-0.053,5.813h4.753v5.806l4.55-0.056
						c0-2.982,2.336-5.401,5.219-5.401c2.879,0,5.214,2.419,5.214,5.401l4.457,0.059c0-2.983,2.336-5.404,5.212-5.404
						c2.884,0,5.218,2.421,5.218,5.404l5.237-0.167c0-2.985,2.339-5.401,5.217-5.401c2.882,0,5.219,2.416,5.219,5.401l4.452-0.108
						c0-2.983,2.334-5.402,5.216-5.402c2.882,0,5.219,2.419,5.219,5.402l5.917,0.057c0-2.986,2.332-5.403,5.218-5.403
						c2.881,0,5.215,2.417,5.215,5.403l4.453,0.11c0-2.983,2.336-5.403,5.216-5.403c2.882,0,5.219,2.42,5.219,5.403l5.236-0.222
						c0-2.985,2.335-5.405,5.217-5.405s5.215,2.42,5.215,5.405l4.459-0.053c0-2.984,2.331-5.405,5.212-5.405
						c2.882,0,5.218,2.421,5.218,5.405l5.613,0.053v-5.479h4.752l-0.053-5.813c-2.032,0-3.779-1.137-4.699-2.8v-5.206
						c0.92-1.662,2.667-2.797,4.699-2.797l0.055-4.614c-2.071,0-3.852-1.181-4.754-2.896v-5.012
						c0.902-1.712,2.683-2.896,4.754-2.896l0.222-5.422c-2.24,0-4.156-1.366-4.976-3.311v-4.187
						c0.819-1.945,2.735-3.311,4.976-3.311l-0.112-4.612c-2.154,0-3.999-1.271-4.863-3.101v-4.601
						c0.864-1.829,2.709-3.102,4.863-3.102l-0.054-6.13c-2.113,0-3.925-1.227-4.81-3.001v-4.804c0.885-1.773,2.696-2.999,4.81-2.999
						l0.105-4.613c-2.194,0-4.075-1.318-4.915-3.2v-4.405C133.864,44.235,135.745,42.917,137.939,42.917z"/>
					
						<rect x="11.943" y="11.935" fill="#FACCC2" stroke="#595A5C" stroke-width="2" stroke-miterlimit="10" width="114.327" height="121.639"/>
				</g>
			</g>
		</g>
	</g>
	<g>
		<path fill="#FFFFFF" stroke="#595A5C" stroke-width="2" stroke-miterlimit="10" d="M86.493,57.876
			c2.389,6.204-0.698,13.173-6.893,15.565l-30.383,11.73c-6.195,2.392-13.155-0.698-15.543-6.903l0,0
			c-2.388-6.204,0.698-13.173,6.894-15.565l30.382-11.73C77.146,48.582,84.105,51.672,86.493,57.876L86.493,57.876z"/>
		<path fill="#FFFFFF" stroke="#595A5C" stroke-width="2" stroke-miterlimit="10" d="M105.344,83.532
			c-0.123,6.647-5.606,11.937-12.245,11.812l-32.557-0.61c-6.639-0.125-11.92-5.615-11.796-12.265l0,0
			c0.125-6.648,5.609-11.936,12.246-11.812l32.558,0.611C100.188,71.393,105.469,76.884,105.344,83.532L105.344,83.532z"/>
	</g>
	<g>
		<path fill="#FFFFFF" stroke="#FFFFFF" stroke-width="0.75" stroke-miterlimit="10" d="M17.988,112.627
			c0.688-0.163,1.792-0.271,2.877-0.271c1.574,0,2.588,0.271,3.33,0.887c0.633,0.472,1.032,1.196,1.032,2.156
			c0,1.195-0.796,2.228-2.063,2.68v0.055c1.158,0.271,2.515,1.231,2.515,3.043c0,1.051-0.416,1.865-1.049,2.445
			c-0.833,0.778-2.208,1.141-4.199,1.141c-1.086,0-1.918-0.072-2.443-0.145V112.627z M19.562,117.626h1.43
			c1.647,0,2.624-0.888,2.624-2.065c0-1.412-1.068-1.992-2.66-1.992c-0.724,0-1.14,0.055-1.394,0.109V117.626z M19.562,123.458
			c0.326,0.055,0.76,0.072,1.321,0.072c1.628,0,3.131-0.598,3.131-2.373c0-1.647-1.43-2.354-3.149-2.354h-1.303V123.458z"/>
		<path fill="#FFFFFF" stroke="#FFFFFF" stroke-width="0.75" stroke-miterlimit="10" d="M35.068,122.244
			c0,0.924,0.018,1.721,0.072,2.409h-1.412l-0.09-1.431h-0.036c-0.398,0.706-1.339,1.63-2.896,1.63c-1.375,0-3.022-0.778-3.022-3.84
			v-5.126h1.593v4.836c0,1.667,0.525,2.808,1.955,2.808c1.067,0,1.81-0.742,2.099-1.467c0.09-0.218,0.145-0.508,0.145-0.815v-5.361
			h1.593V122.244z"/>
		<path fill="#FFFFFF" stroke="#FFFFFF" stroke-width="0.75" stroke-miterlimit="10" d="M37.491,123.041
			c0.489,0.29,1.321,0.616,2.117,0.616c1.14,0,1.683-0.562,1.683-1.304c0-0.761-0.453-1.159-1.611-1.595
			c-1.592-0.579-2.334-1.431-2.334-2.481c0-1.412,1.158-2.571,3.022-2.571c0.887,0,1.665,0.235,2.135,0.543l-0.38,1.159
			c-0.344-0.217-0.978-0.525-1.792-0.525c-0.941,0-1.448,0.544-1.448,1.195c0,0.725,0.506,1.051,1.646,1.504
			c1.502,0.562,2.298,1.322,2.298,2.626c0,1.558-1.212,2.645-3.257,2.645c-0.959,0-1.846-0.254-2.461-0.616L37.491,123.041z"/>
		<path fill="#FFFFFF" stroke="#FFFFFF" stroke-width="0.75" stroke-miterlimit="10" d="M51.116,124.346
			c-0.416,0.199-1.339,0.507-2.516,0.507c-2.642,0-4.361-1.793-4.361-4.474c0-2.699,1.846-4.673,4.706-4.673
			c0.941,0,1.773,0.235,2.208,0.471l-0.362,1.214c-0.38-0.199-0.977-0.417-1.846-0.417c-2.009,0-3.095,1.504-3.095,3.314
			c0,2.028,1.303,3.278,3.04,3.278c0.905,0,1.502-0.217,1.955-0.416L51.116,124.346z"/>
		<path fill="#FFFFFF" stroke="#FFFFFF" stroke-width="0.75" stroke-miterlimit="10" d="M59.131,122.553
			c0,0.761,0.036,1.503,0.126,2.101h-1.43l-0.126-1.104h-0.054c-0.489,0.688-1.43,1.304-2.679,1.304
			c-1.773,0-2.678-1.25-2.678-2.518c0-2.119,1.882-3.278,5.266-3.26v-0.182c0-0.706-0.199-2.028-1.991-2.011
			c-0.832,0-1.683,0.236-2.298,0.652l-0.362-1.068c0.724-0.453,1.792-0.761,2.896-0.761c2.679,0,3.33,1.829,3.33,3.568V122.553z
			 M57.593,120.18c-1.737-0.036-3.71,0.271-3.71,1.975c0,1.05,0.688,1.521,1.484,1.521c1.158,0,1.9-0.724,2.153-1.467
			c0.054-0.181,0.073-0.362,0.073-0.507V120.18z"/>
		<path fill="#FFFFFF" stroke="#FFFFFF" stroke-width="0.75" stroke-miterlimit="10" d="M61.698,118.749
			c0-1.123-0.037-2.029-0.073-2.862h1.412l0.091,1.504h0.036c0.633-1.069,1.683-1.685,3.112-1.685c2.136,0,3.729,1.793,3.729,4.438
			c0,3.151-1.937,4.709-4,4.709c-1.158,0-2.171-0.507-2.696-1.377h-0.036v4.764h-1.574V118.749z M63.272,121.085
			c0,0.235,0.018,0.453,0.072,0.652c0.29,1.104,1.249,1.865,2.389,1.865c1.683,0,2.661-1.376,2.661-3.387
			c0-1.738-0.923-3.242-2.606-3.242c-1.086,0-2.118,0.761-2.407,1.956c-0.054,0.199-0.108,0.435-0.108,0.634V121.085z"/>
		<path fill="#FFFFFF" stroke="#FFFFFF" stroke-width="0.75" stroke-miterlimit="10" d="M73.766,113.424
			c0,0.543-0.38,0.978-1.014,0.978c-0.579,0-0.959-0.435-0.959-0.978s0.398-0.996,0.995-0.996
			C73.367,112.428,73.766,112.862,73.766,113.424z M71.992,124.653v-8.767h1.593v8.767H71.992z"/>
		<path fill="#FFFFFF" stroke="#FFFFFF" stroke-width="0.75" stroke-miterlimit="10" d="M76.226,118.26
			c0-0.924-0.019-1.648-0.072-2.373h1.411l0.091,1.449h0.036c0.435-0.815,1.447-1.63,2.896-1.63c1.212,0,3.095,0.725,3.095,3.731
			v5.216h-1.593V119.6c0-1.412-0.524-2.59-2.027-2.59c-1.031,0-1.846,0.743-2.135,1.63c-0.072,0.199-0.108,0.472-0.108,0.743v5.271
			h-1.593V118.26z"/>
		<path fill="#FFFFFF" stroke="#FFFFFF" stroke-width="0.75" stroke-miterlimit="10" d="M92.419,122.553
			c0,0.761,0.036,1.503,0.127,2.101h-1.43l-0.127-1.104h-0.054c-0.488,0.688-1.43,1.304-2.679,1.304
			c-1.773,0-2.678-1.25-2.678-2.518c0-2.119,1.882-3.278,5.266-3.26v-0.182c0-0.706-0.199-2.028-1.99-2.011
			c-0.833,0-1.684,0.236-2.299,0.652l-0.361-1.068c0.724-0.453,1.791-0.761,2.896-0.761c2.678,0,3.329,1.829,3.329,3.568V122.553z
			 M90.881,120.18c-1.737-0.036-3.71,0.271-3.71,1.975c0,1.05,0.688,1.521,1.484,1.521c1.158,0,1.9-0.724,2.153-1.467
			c0.055-0.181,0.072-0.362,0.072-0.507V120.18z"/>
		<path fill="#FFFFFF" stroke="#FFFFFF" stroke-width="0.75" stroke-miterlimit="10" d="M94.372,124.653l1.447-7.589h-1.176
			l0.235-1.178h1.158l0.09-0.471c0.218-1.214,0.651-2.336,1.43-3.043c0.562-0.507,1.321-0.778,2.081-0.778
			c0.598,0,0.996,0.108,1.213,0.235l-0.326,1.195c-0.235-0.108-0.543-0.163-0.887-0.163c-1.194,0-1.773,1.159-2.026,2.608
			l-0.072,0.416h1.937l-0.218,1.178h-1.954l-1.43,7.589H94.372z"/>
		<path fill="#FFFFFF" stroke="#FFFFFF" stroke-width="0.75" stroke-miterlimit="10" d="M105.608,124.164
			c-0.651,0.362-1.719,0.688-2.896,0.688c-2.316,0-3.329-1.594-3.329-3.532c0-2.644,1.954-5.633,4.777-5.633
			c1.665,0,2.569,0.996,2.569,2.265c0,2.3-2.588,2.897-5.827,2.844c-0.072,0.38-0.018,1.195,0.181,1.666
			c0.345,0.797,1.05,1.177,1.955,1.177c1.031,0,1.81-0.308,2.353-0.598L105.608,124.164z M103.943,116.865
			c-1.43,0-2.497,1.395-2.877,2.771c2.371,0.036,4.217-0.29,4.217-1.667C105.283,117.264,104.74,116.865,103.943,116.865z"/>
		<path fill="#FFFFFF" stroke="#FFFFFF" stroke-width="0.75" stroke-miterlimit="10" d="M107.506,124.653l1.158-6.213
			c0.182-0.978,0.308-1.829,0.398-2.554h1.321l-0.218,1.648h0.037c0.813-1.231,1.918-1.848,3.076-1.848
			c1.339,0,1.973,0.852,2.045,1.956c0.778-1.268,1.9-1.938,3.203-1.956c1.014,0,2.136,0.652,2.136,2.301
			c0,0.398-0.055,0.996-0.146,1.485l-0.977,5.18h-1.466l0.94-5.054c0.072-0.344,0.127-0.778,0.127-1.141
			c0-0.924-0.344-1.521-1.321-1.521c-1.086,0-2.389,1.268-2.751,3.224l-0.832,4.492h-1.447l0.977-5.144
			c0.072-0.398,0.108-0.725,0.108-1.069c0-0.742-0.198-1.503-1.303-1.503c-1.086,0-2.461,1.449-2.805,3.314l-0.797,4.401H107.506z"
			/>
	</g>
</g>
</svg>
