<?xml version="1.0" encoding="utf-8"?>
<!-- Generator: Adobe Illustrator 15.1.0, SVG Export Plug-In . SVG Version: 6.00 Build 0)  -->
<!DOCTYPE svg PUBLIC "-//W3C//DTD SVG 1.1//EN" "http://www.w3.org/Graphics/SVG/1.1/DTD/svg11.dtd">
<svg version="1.1" id="Capa_1" xmlns="http://www.w3.org/2000/svg" xmlns:xlink="http://www.w3.org/1999/xlink" x="0px" y="0px"
	 width="50px" height="50px" viewBox="0 0 50 50" enable-background="new 0 0 50 50" xml:space="preserve">
<g>
	<g>
		<g>
			<g>
				<g>
					<g>
						<defs>
							<rect id="SVGID_1_" x="4.703" y="4.559" width="40.595" height="41.392"/>
						</defs>
						<clipPath id="SVGID_2_">
							<use xlink:href="#SVGID_1_"  overflow="visible"/>
						</clipPath>
						<use xlink:href="#SVGID_1_"  overflow="visible" fill="none" stroke="#595A5C" stroke-width="0.75" stroke-miterlimit="10"/>
					</g>
					<path fill="none" stroke="#505978" stroke-width="0.75" stroke-miterlimit="10" d="M49.44,15.102l0.06-1.845
						c-0.84,0-1.547-0.523-1.804-1.246v-1.187C47.953,10.103,48.66,9.58,49.5,9.58l-0.021-1.57c-0.815,0-1.508-0.492-1.783-1.182
						V5.517c0.275-0.691,0.968-1.183,1.783-1.183l0.02-1.604h-1.803V0.866l-1.994,0.019c0,1.015-0.829,1.838-1.853,1.838
						C42.827,2.723,42,1.9,42,0.885l-1.584-0.019c0,1.016-0.828,1.839-1.852,1.839s-1.853-0.824-1.853-1.839l-1.859-0.075
						c0,1.016-0.83,1.839-1.853,1.839s-1.852-0.823-1.852-1.839l-1.581,0.038c0,1.015-0.829,1.838-1.853,1.838
						c-1.024,0-1.853-0.823-1.853-1.838l-2.101,0.018c0,1.017-0.83,1.838-1.854,1.838c-1.023,0-1.852-0.821-1.852-1.838
						l-1.581-0.035c0,1.015-0.83,1.837-1.854,1.837c-1.021,0-1.852-0.822-1.852-1.837l-1.86-0.056c0,1.015-0.828,1.837-1.853,1.837
						c-1.021,0-1.851-0.822-1.851-1.837L7.624,0.774c0,1.015-0.829,1.838-1.851,1.838c-1.023,0-1.853-0.824-1.853-1.838L2.305,0.755
						V2.73H0.5l0.02,1.604c0.816,0,1.508,0.492,1.785,1.181v1.314C2.028,7.518,1.336,8.01,0.52,8.01L0.5,9.58
						c0.841,0,1.546,0.522,1.805,1.244v1.187c-0.258,0.723-0.964,1.246-1.805,1.246l0.059,1.845c0.78,0,1.446,0.448,1.746,1.089v1.5
						c-0.3,0.64-0.966,1.088-1.746,1.088l0.038,1.57c0.751,0,1.394,0.416,1.708,1.02v1.635c-0.314,0.604-0.958,1.021-1.708,1.021
						l-0.018,2.087c0.764,0,1.419,0.432,1.727,1.055v1.564c-0.308,0.623-0.962,1.057-1.727,1.057l-0.039,1.568
						c0.793,0,1.476,0.465,1.766,1.127v1.424c-0.29,0.662-0.972,1.127-1.766,1.127l0.077,1.846c0.736,0,1.368,0.402,1.689,0.984
						v1.705c-0.321,0.584-0.953,0.986-1.689,0.986l0.02,1.57c0.722,0,1.342,0.385,1.669,0.951v1.773
						c-0.327,0.564-0.948,0.951-1.669,0.951l-0.019,1.979h1.688v1.975l1.615-0.02c0-1.014,0.83-1.838,1.853-1.838
						c1.022,0,1.851,0.824,1.851,1.838l1.583,0.021c0-1.016,0.829-1.84,1.851-1.84c1.024,0,1.853,0.824,1.853,1.84l1.86-0.059
						c0-1.016,0.831-1.836,1.852-1.836c1.023,0,1.854,0.82,1.854,1.836l1.581-0.035c0-1.016,0.829-1.84,1.852-1.84
						c1.023,0,1.854,0.824,1.854,1.84l2.101,0.02c0-1.018,0.828-1.84,1.853-1.84c1.023,0,1.853,0.822,1.853,1.84l1.581,0.037
						c0-1.016,0.829-1.84,1.852-1.84s1.853,0.824,1.853,1.84l1.859-0.076c0-1.016,0.829-1.84,1.853-1.84s1.852,0.824,1.852,1.84
						L42,49.625c0-1.016,0.827-1.84,1.85-1.84c1.023,0,1.853,0.824,1.853,1.84l1.994,0.018v-1.863h1.687l-0.019-1.979
						c-0.722,0-1.342-0.387-1.668-0.953v-1.771c0.326-0.566,0.946-0.951,1.668-0.951l0.02-1.57c-0.735,0-1.367-0.402-1.688-0.986
						v-1.705c0.32-0.582,0.952-0.984,1.688-0.984l0.079-1.846c-0.796,0-1.476-0.465-1.767-1.127v-1.424
						c0.291-0.662,0.971-1.127,1.767-1.127l-0.04-1.568c-0.765,0-1.42-0.434-1.727-1.057v-1.564
						c0.307-0.623,0.962-1.055,1.727-1.055l-0.02-2.087c-0.75,0-1.394-0.417-1.707-1.021v-1.635c0.313-0.603,0.957-1.02,1.707-1.02
						l0.037-1.57c-0.778,0-1.446-0.449-1.744-1.089v-1.499C47.994,15.55,48.662,15.102,49.44,15.102z"/>
					
						<rect x="4.703" y="4.559" fill="#FACCC2" stroke="#595A5C" stroke-width="0.75" stroke-miterlimit="10" width="40.595" height="41.392"/>
				</g>
			</g>
		</g>
	</g>
	<g>
		<path fill="#FFFFFF" stroke="#595A5C" stroke-miterlimit="10" d="M31.174,20.192c0.848,2.11-0.248,4.482-2.447,5.296L17.938,29.48
			c-2.2,0.814-4.671-0.238-5.519-2.35l0,0c-0.848-2.111,0.248-4.482,2.448-5.296l10.787-3.991
			C27.854,17.029,30.326,18.081,31.174,20.192L31.174,20.192z"/>
		<path fill="#FFFFFF" stroke="#595A5C" stroke-miterlimit="10" d="M37.867,28.922c-0.044,2.262-1.99,4.062-4.348,4.02
			l-11.561-0.207c-2.357-0.043-4.232-1.91-4.188-4.174l0,0c0.044-2.262,1.992-4.062,4.348-4.02l11.561,0.208
			C36.036,24.792,37.911,26.66,37.867,28.922L37.867,28.922z"/>
	</g>
	<rect x="4.704" y="38.539" fill="none" width="40.594" height="5.059"/>
	<text transform="matrix(1.042 0 0 1 6.3608 42.9141)"><tspan x="0" y="0" fill="#FFFFFF" stroke="#FFFFFF" stroke-width="0.25" stroke-miterlimit="10" font-family="'MyriadPro-Regular'" font-size="6.1649">Buscapina</tspan><tspan x="26.256" y="0" fill="#FFFFFF" stroke="#FFFFFF" stroke-width="0.25" stroke-miterlimit="10" font-family="'MyriadPro-It'" font-size="6.1649">fem</tspan></text>
</g>
</svg>
