<?xml version="1.0" encoding="utf-8"?>
<!-- Generator: Adobe Illustrator 15.1.0, SVG Export Plug-In . SVG Version: 6.00 Build 0)  -->
<!DOCTYPE svg PUBLIC "-//W3C//DTD SVG 1.1//EN" "http://www.w3.org/Graphics/SVG/1.1/DTD/svg11.dtd">
<svg version="1.1" id="Capa_1" xmlns="http://www.w3.org/2000/svg" xmlns:xlink="http://www.w3.org/1999/xlink" x="0px" y="0px"
	 width="50px" height="50px" viewBox="0 0 50 50" enable-background="new 0 0 50 50" xml:space="preserve">
<g>
	<g>
		<g>
			<g>
				<g>
					<g>
						<defs>
							<rect id="SVGID_1_" x="4.703" y="4.304" width="40.595" height="41.391"/>
						</defs>
						<clipPath id="SVGID_2_">
							<use xlink:href="#SVGID_1_"  overflow="visible"/>
						</clipPath>
						<use xlink:href="#SVGID_1_"  overflow="visible" fill="none" stroke="#595A5C" stroke-width="0.75" stroke-miterlimit="10"/>
					</g>
					<path fill="none" stroke="#505978" stroke-width="0.75" stroke-miterlimit="10" d="M49.441,14.847l0.059-1.845
						c-0.841,0-1.547-0.522-1.805-1.246V10.57c0.258-0.723,0.964-1.245,1.805-1.245l-0.021-1.571c-0.815,0-1.508-0.491-1.784-1.181
						V5.261c0.276-0.691,0.969-1.182,1.784-1.182l0.02-1.604h-1.804V0.611l-1.992,0.018c0,1.015-0.83,1.838-1.854,1.838
						c-1.022,0-1.851-0.823-1.851-1.838l-1.583-0.018c0,1.015-0.828,1.839-1.852,1.839s-1.853-0.824-1.853-1.839l-1.859-0.075
						c0,1.016-0.829,1.839-1.853,1.839c-1.022,0-1.853-0.823-1.853-1.839l-1.581,0.037c0,1.015-0.828,1.838-1.852,1.838
						c-1.024,0-1.853-0.823-1.853-1.838l-2.101,0.018c0,1.017-0.83,1.838-1.854,1.838s-1.853-0.822-1.853-1.838l-1.58-0.035
						c0,1.015-0.83,1.837-1.854,1.837c-1.021,0-1.853-0.822-1.853-1.837L12.91,0.5c0,1.015-0.828,1.838-1.853,1.838
						c-1.021,0-1.851-0.823-1.851-1.838L7.624,0.519c0,1.014-0.829,1.838-1.851,1.838c-1.024,0-1.854-0.824-1.854-1.838L2.305,0.5
						v1.976H0.501l0.02,1.604c0.815,0,1.508,0.491,1.784,1.181v1.314C2.028,7.263,1.336,7.754,0.521,7.754L0.5,9.325
						c0.841,0,1.547,0.522,1.805,1.244v1.187c-0.258,0.723-0.964,1.246-1.805,1.246l0.059,1.845c0.779,0,1.446,0.448,1.746,1.089
						v1.5c-0.3,0.64-0.967,1.088-1.746,1.088l0.038,1.57c0.75,0,1.394,0.416,1.708,1.02v1.635C1.99,23.352,1.347,23.77,0.597,23.77
						l-0.019,2.086c0.765,0,1.419,0.433,1.727,1.056v1.565c-0.308,0.622-0.962,1.055-1.727,1.055l-0.039,1.569
						c0.794,0,1.476,0.465,1.766,1.126v1.426c-0.29,0.661-0.972,1.126-1.766,1.126l0.077,1.845c0.735,0,1.367,0.402,1.688,0.985
						v1.706c-0.321,0.583-0.953,0.984-1.688,0.984l0.02,1.571c0.722,0,1.342,0.386,1.669,0.951v1.772
						c-0.327,0.565-0.947,0.952-1.669,0.952l-0.019,1.978h1.688v1.976L3.92,49.48c0-1.015,0.829-1.839,1.854-1.839
						c1.021,0,1.851,0.824,1.851,1.839l1.583,0.02c0-1.015,0.829-1.839,1.851-1.839c1.024,0,1.853,0.824,1.853,1.839l1.859-0.057
						c0-1.016,0.831-1.838,1.853-1.838c1.023,0,1.854,0.822,1.854,1.838l1.58-0.037c0-1.015,0.829-1.838,1.853-1.838
						s1.854,0.823,1.854,1.838l2.101,0.02c0-1.017,0.828-1.839,1.853-1.839c1.023,0,1.852,0.822,1.852,1.839l1.581,0.037
						c0-1.015,0.83-1.838,1.853-1.838c1.023,0,1.853,0.823,1.853,1.838l1.859-0.075c0-1.016,0.829-1.839,1.853-1.839
						s1.852,0.823,1.852,1.839l1.583-0.018c0-1.016,0.828-1.839,1.851-1.839c1.023,0,1.854,0.823,1.854,1.839l1.992,0.018v-1.864
						h1.688l-0.02-1.978c-0.722,0-1.342-0.387-1.669-0.953v-1.771c0.327-0.565,0.947-0.951,1.669-0.951l0.02-1.571
						c-0.735,0-1.367-0.401-1.688-0.984v-1.706c0.321-0.582,0.953-0.985,1.688-0.985l0.079-1.845c-0.796,0-1.477-0.465-1.768-1.126
						v-1.425c0.291-0.662,0.972-1.127,1.768-1.127l-0.04-1.569c-0.766,0-1.42-0.433-1.728-1.055v-1.565
						c0.308-0.623,0.962-1.056,1.728-1.056l-0.02-2.086c-0.75,0-1.394-0.418-1.708-1.021v-1.634
						c0.314-0.604,0.958-1.021,1.708-1.021l0.038-1.57c-0.779,0-1.447-0.448-1.746-1.089v-1.499
						C47.994,15.295,48.662,14.847,49.441,14.847z"/>
					
						<rect x="4.703" y="4.304" fill="#FACCC2" stroke="#595A5C" stroke-width="0.75" stroke-miterlimit="10" width="40.595" height="41.391"/>
				</g>
			</g>
		</g>
	</g>
	<g>
		<path fill="#FFFFFF" stroke="#595A5C" stroke-width="0.75" stroke-miterlimit="10" d="M31.061,18.966
			c0.849,2.111-0.248,4.482-2.447,5.296l-10.788,3.992c-2.2,0.813-4.671-0.238-5.52-2.35l0,0c-0.848-2.11,0.248-4.482,2.448-5.296
			l10.788-3.992C27.741,15.803,30.212,16.854,31.061,18.966L31.061,18.966z"/>
		<path fill="#FFFFFF" stroke="#595A5C" stroke-width="0.75" stroke-miterlimit="10" d="M37.754,27.696
			c-0.044,2.262-1.991,4.062-4.348,4.02l-11.561-0.208c-2.357-0.043-4.232-1.911-4.188-4.174l0,0
			c0.044-2.262,1.991-4.062,4.349-4.02l11.56,0.208C35.923,23.565,37.799,25.434,37.754,27.696L37.754,27.696z"/>
	</g>
	<g>
		<polygon fill="#FFFFFF" points="13.953,36.597 14.792,36.597 17.665,41.728 17.665,36.597 18.343,36.597 18.343,43.604 
			17.465,43.604 14.592,38.472 14.592,43.604 13.953,43.604 		"/>
		<path fill="#FFFFFF" d="M5.105,42.172l0.732-0.491c0.554,2.096,3.746,2.205,3.802,0.044c0.038-1.515-2.689-2.333-2.689-2.333
			c-3.132-2.087-0.259-3.312-0.259-3.312c3.592-0.594,4.878,2.805,4.878,2.805c1.347-3.743,3.143-2.986,3.143-2.986
			c-4.189,3.149-2.574,7.706-2.574,7.706H11.51c-0.449-2.23-0.12-3.801-0.12-3.801c-2.604-5.811-8.07-2.498-2.483-0.502
			c0,0,3.391,1.68,0.358,4.303C9.265,43.604,6.711,44.944,5.105,42.172z"/>
		<path fill="#FFFFFF" d="M21.814,43.833c-1.928,0-3.112-1.719-3.112-3.838c0-2.12,1.42-4.727,4.173-3.425l0.057,0.026l-0.499,0.574
			c-1.287-1.145-3.032,0.823-2.873,2.929c0.127,1.683,0.958,3.103,2.694,3.103c1.134,0,2.11-0.74,2.548-1.803l0.419,0.21
			C25.221,41.609,24.184,43.833,21.814,43.833z"/>
		<g>
			<path fill="#FFFFFF" d="M25.226,36.136c-1.564,0-2.833,1.724-2.833,3.849c0,2.126,1.269,3.85,2.833,3.85s2.833-1.724,2.833-3.85
				C28.059,37.859,26.79,36.136,25.226,36.136z M25.256,43.259c-1.097,0-1.985-1.491-1.985-3.331c0-1.841,0.889-3.331,1.985-3.331
				c1.096,0,1.985,1.49,1.985,3.331C27.241,41.768,26.352,43.259,25.256,43.259z"/>
		</g>
		<path fill="#FFFFFF" d="M28.438,36.597c0,0,0.015,7.007-0.065,7.007h3.875v-0.9c0,0-0.599,0.46-2.812,0.402v-6.509H28.438z"/>
		<path fill="#FFFFFF" d="M33.057,35.581l-1.511,5.758h0.837l0.809-3.316l0.493,3.217l1.976-3.159l-0.658,3.259h1.092
			c0,0,0.285-1.852,2.29-2.527c0,0-0.195-0.187-1.167,0.173l1.511-2.849l-0.599,5.203h0.748l1.9-2.986l0.913,4.365l0.494-1.106
			l-0.838-4.178c0,0,2.648-2.958,3.321-3.26c0,0-1.616,0.287-3.411,2.513l-0.27-1.105h-0.778l0.389,1.824l-1.436,2.14l0.269-3.964
			h-1.212l-2.14,3.949l0.793-3.906h-0.658l-2.05,3.461l-0.493-3.504H33.057z"/>
	</g>
</g>
</svg>
