<?xml version="1.0" encoding="utf-8"?>
<!-- Generator: Adobe Illustrator 15.1.0, SVG Export Plug-In . SVG Version: 6.00 Build 0)  -->
<!DOCTYPE svg PUBLIC "-//W3C//DTD SVG 1.1//EN" "http://www.w3.org/Graphics/SVG/1.1/DTD/svg11.dtd">
<svg version="1.1" id="Capa_1" xmlns="http://www.w3.org/2000/svg" xmlns:xlink="http://www.w3.org/1999/xlink" x="0px" y="0px"
	 width="139px" height="145px" viewBox="0 0 139 145" enable-background="new 0 0 139 145" xml:space="preserve">
<g>
	<g>
		<g>
			<g>
				<g>
					<g>
						<defs>
							<rect id="SVGID_1_" x="12.892" y="12.179" width="114.328" height="121.64"/>
						</defs>
						<clipPath id="SVGID_2_">
							<use xlink:href="#SVGID_1_"  overflow="visible"/>
						</clipPath>
						<use xlink:href="#SVGID_1_"  overflow="visible" fill="none" stroke="#595A5C" stroke-width="2" stroke-miterlimit="10"/>
					</g>
					<path fill="none" stroke="#505978" stroke-width="1.0057" stroke-miterlimit="10" d="M138.889,43.16l0.166-5.423
						c-2.367,0-4.355-1.535-5.081-3.66v-3.486c0.726-2.123,2.714-3.658,5.081-3.658l-0.058-4.615c-2.297,0-4.247-1.444-5.023-3.473
						v-3.854c0.776-2.03,2.727-3.475,5.023-3.475l0.056-4.713h-5.079V1.326l-5.613,0.053c0,2.983-2.336,5.403-5.218,5.403
						c-2.881,0-5.212-2.419-5.212-5.403l-4.459-0.053c0,2.983-2.333,5.405-5.215,5.405s-5.217-2.421-5.217-5.405l-5.236-0.219
						c0,2.984-2.337,5.403-5.219,5.403c-2.88,0-5.216-2.419-5.216-5.403l-4.453,0.109c0,2.983-2.334,5.403-5.215,5.403
						c-2.886,0-5.218-2.42-5.218-5.403l-5.917,0.053c0,2.988-2.337,5.403-5.219,5.403c-2.881,0-5.216-2.415-5.216-5.403
						l-4.452-0.104c0,2.983-2.337,5.398-5.219,5.398c-2.877,0-5.217-2.415-5.217-5.398l-5.237-0.166c0,2.983-2.333,5.4-5.218,5.4
						c-2.876,0-5.212-2.417-5.212-5.4l-4.457,0.055c0,2.981-2.334,5.403-5.214,5.403c-2.883,0-5.219-2.421-5.219-5.403L6.137,0.999
						v5.805H1.056l0.055,4.713c2.297,0,4.248,1.444,5.025,3.47v3.861c-0.778,2.026-2.729,3.47-5.025,3.47l-0.057,4.615
						c2.368,0,4.355,1.535,5.083,3.656v3.488c-0.728,2.125-2.715,3.66-5.083,3.66l0.164,5.423c2.197,0,4.074,1.316,4.918,3.201
						v4.407c-0.845,1.88-2.722,3.198-4.918,3.198l0.107,4.613c2.114,0,3.925,1.223,4.811,2.997v4.806
						c-0.886,1.774-2.697,3.001-4.811,3.001l-0.052,6.131c2.153,0,3.997,1.271,4.863,3.101v4.601
						c-0.866,1.829-2.71,3.101-4.863,3.101l-0.109,4.612c2.235,0,4.155,1.365,4.972,3.31v4.189c-0.817,1.942-2.737,3.31-4.972,3.31
						l0.216,5.421c2.072,0,3.852,1.182,4.756,2.896v5.013c-0.904,1.715-2.684,2.895-4.756,2.895l0.055,4.615
						c2.032,0,3.779,1.135,4.701,2.796v5.209c-0.921,1.661-2.668,2.798-4.701,2.798l-0.053,5.812h4.754v5.806l4.549-0.055
						c0-2.982,2.336-5.403,5.219-5.403c2.879,0,5.214,2.421,5.214,5.403l4.457,0.058c0-2.983,2.336-5.403,5.212-5.403
						c2.884,0,5.218,2.42,5.218,5.403l5.237-0.166c0-2.985,2.339-5.402,5.217-5.402c2.882,0,5.219,2.417,5.219,5.402l4.452-0.108
						c0-2.983,2.334-5.402,5.216-5.402c2.882,0,5.219,2.419,5.219,5.402l5.917,0.056c0-2.986,2.332-5.403,5.218-5.403
						c2.881,0,5.215,2.417,5.215,5.403l4.453,0.111c0-2.984,2.336-5.404,5.216-5.404c2.882,0,5.219,2.42,5.219,5.404l5.236-0.223
						c0-2.985,2.335-5.404,5.217-5.404s5.215,2.419,5.215,5.404l4.459-0.053c0-2.983,2.331-5.404,5.212-5.404
						c2.882,0,5.218,2.421,5.218,5.404l5.613,0.053v-5.479h4.752l-0.053-5.812c-2.032,0-3.779-1.137-4.699-2.801v-5.206
						c0.92-1.661,2.667-2.796,4.699-2.796l0.055-4.615c-2.071,0-3.852-1.18-4.754-2.895v-5.013c0.902-1.712,2.683-2.896,4.754-2.896
						l0.222-5.421c-2.24,0-4.156-1.367-4.976-3.312v-4.186c0.819-1.946,2.735-3.312,4.976-3.312l-0.112-4.612
						c-2.154,0-3.999-1.271-4.863-3.101v-4.601c0.864-1.829,2.709-3.101,4.863-3.101l-0.054-6.131c-2.113,0-3.925-1.227-4.81-3.001
						v-4.804c0.885-1.773,2.696-2.999,4.81-2.999l0.105-4.613c-2.194,0-4.075-1.318-4.915-3.2v-4.405
						C134.813,44.479,136.694,43.16,138.889,43.16z"/>
					
						<rect x="12.892" y="12.179" fill="#FACCC2" stroke="#595A5C" stroke-width="2" stroke-miterlimit="10" width="114.328" height="121.64"/>
				</g>
			</g>
		</g>
	</g>
	<g>
		<path fill="#FFFFFF" stroke="#595A5C" stroke-width="2" stroke-miterlimit="10" d="M87.123,55.266
			c2.39,6.204-0.697,13.173-6.894,15.565l-30.382,11.73c-6.196,2.392-13.155-0.698-15.543-6.903l0,0
			c-2.388-6.204,0.698-13.172,6.893-15.565l30.383-11.73C77.776,45.97,84.734,49.061,87.123,55.266L87.123,55.266z"/>
		<path fill="#FFFFFF" stroke="#595A5C" stroke-width="2" stroke-miterlimit="10" d="M105.974,80.922
			c-0.123,6.646-5.606,11.937-12.245,11.812l-32.557-0.611c-6.64-0.125-11.92-5.615-11.796-12.265l0,0
			c0.124-6.647,5.608-11.936,12.246-11.812l32.558,0.611C100.818,68.782,106.1,74.272,105.974,80.922L105.974,80.922z"/>
	</g>
	<g>
		<polygon fill="#FFFFFF" points="38.944,107.078 41.305,107.078 49.396,122.156 49.396,107.078 51.306,107.078 51.306,127.671 
			48.832,127.671 40.74,112.59 40.74,127.671 38.944,127.671 		"/>
		<path fill="#FFFFFF" d="M14.024,123.464l2.065-1.445c1.559,6.159,10.548,6.482,10.705,0.13c0.108-4.45-7.572-6.856-7.572-6.856
			c-8.821-6.133-0.731-9.733-0.731-9.733c10.115-1.744,13.738,8.242,13.738,8.242c3.793-11,8.851-8.777,8.851-8.777
			c-11.8,9.255-7.249,22.647-7.249,22.647h-1.77c-1.264-6.556-0.338-11.17-0.338-11.17c-7.332-17.075-22.728-7.342-6.994-1.477
			c0,0,9.551,4.938,1.01,12.646C25.739,127.671,18.547,131.609,14.024,123.464z"/>
		<path fill="#FFFFFF" d="M61.082,128.346c-5.429,0-8.766-5.051-8.766-11.278c0-6.23,4-13.893,11.753-10.067l0.159,0.078
			l-1.404,1.688c-3.626-3.362-8.542,2.419-8.092,8.607c0.358,4.944,2.696,9.117,7.587,9.117c3.194,0,5.944-2.175,7.175-5.296
			l1.181,0.615C70.676,121.81,67.754,128.346,61.082,128.346z"/>
		<g>
			<path fill="#FFFFFF" d="M70.689,105.726c-4.405,0-7.978,5.064-7.978,11.311c0,6.247,3.573,11.311,7.978,11.311
				c4.408,0,7.98-5.063,7.98-11.311C78.67,110.79,75.098,105.726,70.689,105.726z M70.774,126.656c-3.088,0-5.591-4.382-5.591-9.789
				c0-5.408,2.503-9.789,5.591-9.789s5.591,4.381,5.591,9.789C76.365,122.274,73.862,126.656,70.774,126.656z"/>
		</g>
		<path fill="#FFFFFF" d="M79.737,107.078c0,0,0.042,20.593-0.182,20.593h10.913v-2.646c0,0-1.687,1.351-7.922,1.182v-19.129H79.737
			z"/>
		<path fill="#FFFFFF" d="M92.745,104.095l-4.256,16.922h2.359l2.276-9.748l1.39,9.453l5.562-9.284l-1.854,9.579h3.076
			c0,0,0.802-5.443,6.448-7.428c0,0-0.549-0.549-3.286,0.507l4.256-8.37l-1.686,15.291h2.106l5.352-8.777l2.57,12.829l1.392-3.251
			l-2.36-12.278c0,0,7.459-8.693,9.356-9.58c0,0-4.553,0.844-9.608,7.385l-0.759-3.249h-2.191l1.095,5.36l-4.045,6.287l0.758-11.647
			h-3.412l-6.027,11.604l2.234-11.478h-1.854l-5.773,10.17l-1.39-10.297H92.745z"/>
	</g>
</g>
</svg>
