<?xml version="1.0" encoding="UTF-8" standalone="no"?>
<svg width="57px" height="24px" viewBox="0 0 57 24" version="1.1" xmlns="http://www.w3.org/2000/svg" xmlns:xlink="http://www.w3.org/1999/xlink" xmlns:sketch="http://www.bohemiancoding.com/sketch/ns">
    <!-- Generator: Sketch 3.3.1 (12002) - http://www.bohemiancoding.com/sketch -->
    <title>dashboard_botonverde</title>
    <desc>Created with Sketch.</desc>
    <defs></defs>
    <g id="Page-1" stroke="none" stroke-width="1" fill="none" fill-rule="evenodd" sketch:type="MSPage">
        <g id="dashboard_botonverde" sketch:type="MSLayerGroup" transform="translate(28.500000, 12.000000) scale(-1, 1) translate(-28.500000, -12.000000) translate(1.000000, 1.000000)">
            <g id="Group" sketch:type="MSShapeGroup">
                <path d="M54.812,10.689 C54.812,16.568 51.037,21.333 46.382,21.333 L8.498,21.333 C3.843,21.333 0.069,16.568 0.069,10.689 L0.069,10.689 C0.069,4.81 3.843,0.044 8.498,0.044 L46.382,0.044 C51.036,0.044 54.812,4.81 54.812,10.689 L54.812,10.689 L54.812,10.689 Z" id="Shape" stroke="#595A5C" stroke-width="2" transform="translate(27.440500, 10.688500) scale(-1, 1) translate(-27.440500, -10.688500) "></path>
                <ellipse id="Oval" fill="#8FCD94" transform="translate(14.533000, 10.839000) scale(-1, 1) translate(-14.533000, -10.839000) " cx="14.533" cy="10.839" rx="8.77" ry="8.095"></ellipse>
            </g>
        </g>
    </g>
</svg>