<?xml version="1.0" encoding="utf-8"?>
<!-- Generator: Adobe Illustrator 15.1.0, SVG Export Plug-In . SVG Version: 6.00 Build 0)  -->
<!DOCTYPE svg PUBLIC "-//W3C//DTD SVG 1.1//EN" "http://www.w3.org/Graphics/SVG/1.1/DTD/svg11.dtd">
<svg version="1.1" id="Capa_1" xmlns="http://www.w3.org/2000/svg" xmlns:xlink="http://www.w3.org/1999/xlink" x="0px" y="0px"
	 width="12px" height="16px" viewBox="0 0 12 16" enable-background="new 0 0 12 16" xml:space="preserve">
<g>
	<path fill="#82E499" stroke="#4F5877" stroke-width="0.4215" stroke-miterlimit="10" d="M10.977,2.08
		c-0.84-1.298-3.278-1.927-5.024-1.927c-1.755,0-3.909,0.535-4.846,1.778c-3.469,4.594,4.861,11.724,4.861,11.724
		S14.237,7.118,10.977,2.08z"/>
	<path fill="#F79B82" stroke="#4F5877" stroke-width="0.4215" stroke-miterlimit="10" d="M10.245,2.08
		C9.514,0.782,7.392,0.152,5.87,0.152c-1.529,0-3.404,0.535-4.22,1.778c-3.021,4.594,4.232,11.724,4.232,11.724
		S13.086,7.118,10.245,2.08z"/>
	<path fill="#82E499" stroke="#4F5877" stroke-width="0.4215" stroke-miterlimit="10" d="M8.395,2.08
		c-0.42-1.298-1.636-1.927-2.506-1.927c-0.877,0-1.952,0.535-2.418,1.778C1.739,6.524,5.894,13.654,5.894,13.654
		S10.021,7.118,8.395,2.08z"/>
	<path fill="#51C0E8" stroke="#4F5877" stroke-width="0.4215" stroke-miterlimit="10" d="M5.894,13.711
		c0,0-4.155-7.129-2.424-11.725c0.467-1.238,1.542-1.777,2.418-1.777L5.894,13.711z"/>
	<line fill="none" stroke="#4F5877" stroke-width="0.4215" stroke-miterlimit="10" x1="3.565" y1="11.213" x2="5.302" y2="14.129"/>
	<line fill="none" stroke="#4F5877" stroke-width="0.4215" stroke-miterlimit="10" x1="6.575" y1="14.129" x2="8.331" y2="11.41"/>
	<polygon fill="#FAB585" stroke="#4F5877" stroke-width="0.4215" stroke-miterlimit="10" points="6.658,15.547 6.656,14.129 
		6.221,14.131 6.221,14.129 5.559,14.129 5.559,14.131 5.133,14.133 5.135,15.549 5.135,15.549 5.137,15.848 6.656,15.844 
		6.656,15.547 	"/>
</g>
</svg>
