<?xml version="1.0" encoding="utf-8"?>
<!-- Generator: Adobe Illustrator 15.1.0, SVG Export Plug-In . SVG Version: 6.00 Build 0)  -->
<!DOCTYPE svg PUBLIC "-//W3C//DTD SVG 1.1//EN" "http://www.w3.org/Graphics/SVG/1.1/DTD/svg11.dtd">
<svg version="1.1" id="Capa_1" xmlns="http://www.w3.org/2000/svg" xmlns:xlink="http://www.w3.org/1999/xlink" x="0px" y="0px"
	 width="71px" height="74px" viewBox="0 0 71 74" enable-background="new 0 0 71 74" xml:space="preserve">
<g>
	<g>
		<defs>
			<rect id="SVGID_1_" x="6.311" y="5.878" width="58.336" height="62.121"/>
		</defs>
		<clipPath id="SVGID_2_">
			<use xlink:href="#SVGID_1_"  overflow="visible"/>
		</clipPath>
	</g>
	
		<path fill="none" stroke="#505978" stroke-width="0.5089" stroke-linecap="round" stroke-linejoin="round" stroke-miterlimit="10" d="
		M70.604,21.7l0.084-2.769c-1.209,0-2.225-0.785-2.595-1.87v-1.78c0.37-1.083,1.386-1.867,2.595-1.867l-0.029-2.357
		c-1.172,0-2.169-0.738-2.565-1.772V7.314c0.396-1.037,1.394-1.775,2.565-1.775l0.027-2.406h-2.593V0.336l-2.864,0.027
		c0,1.524-1.191,2.759-2.662,2.759c-1.469,0-2.658-1.234-2.658-2.759l-2.275-0.028c0,1.524-1.19,2.76-2.662,2.76
		c-1.47,0-2.661-1.236-2.661-2.76L49.64,0.223c0,1.524-1.193,2.759-2.663,2.759c-1.471,0-2.663-1.235-2.663-2.759l-2.272,0.056
		c0,1.522-1.188,2.758-2.66,2.758s-2.663-1.236-2.663-2.758l-3.019,0.028c0,1.523-1.191,2.759-2.663,2.759
		c-1.471,0-2.663-1.236-2.663-2.759l-2.272-0.056c0,1.524-1.191,2.76-2.662,2.76c-1.469,0-2.662-1.235-2.662-2.76l-2.671-0.084
		c0,1.524-1.191,2.759-2.664,2.759c-1.468,0-2.659-1.235-2.659-2.759l-2.275,0.029c0,1.522-1.189,2.759-2.661,2.759
		c-1.469,0-2.661-1.236-2.661-2.759L2.864,0.168v2.964H0.272l0.027,2.406c1.174,0,2.167,0.738,2.565,1.773v1.971
		c-0.397,1.035-1.391,1.772-2.565,1.772l-0.027,2.357c1.207,0,2.221,0.784,2.592,1.867v1.78c-0.372,1.085-1.385,1.87-2.592,1.87
		L0.355,21.7c1.12,0,2.079,0.672,2.509,1.635v2.25c-0.43,0.96-1.389,1.634-2.509,1.634l0.056,2.354c1.078,0,2.001,0.626,2.453,1.531
		v2.456c-0.452,0.905-1.375,1.532-2.453,1.532l-0.028,3.13c1.098,0,2.039,0.65,2.481,1.585v2.349
		c-0.442,0.935-1.383,1.583-2.481,1.583l-0.057,2.355c1.141,0,2.121,0.698,2.538,1.691v2.139c-0.417,0.991-1.397,1.689-2.538,1.689
		l0.112,2.77c1.058,0,1.964,0.604,2.426,1.479v2.561C2.402,59.299,1.497,59.9,0.438,59.9l0.027,2.357
		c1.037,0,1.929,0.58,2.398,1.427v2.659c-0.47,0.85-1.362,1.431-2.398,1.431L0.44,70.741h2.424v2.965l2.322-0.027
		c0-1.523,1.191-2.76,2.661-2.76c1.471,0,2.661,1.236,2.661,2.76l2.275,0.029c0-1.524,1.191-2.76,2.659-2.76
		c1.473,0,2.664,1.235,2.664,2.76l2.671-0.084c0-1.525,1.193-2.759,2.662-2.759c1.471,0,2.662,1.233,2.662,2.759l2.272-0.055
		c0-1.524,1.191-2.759,2.663-2.759c1.472,0,2.663,1.234,2.663,2.759l3.019,0.027c0-1.522,1.191-2.759,2.663-2.759
		s2.66,1.236,2.66,2.759l2.272,0.056c0-1.521,1.192-2.759,2.663-2.759c1.47,0,2.663,1.237,2.663,2.759l2.671-0.113
		c0-1.521,1.191-2.758,2.661-2.758c1.472,0,2.662,1.236,2.662,2.758l2.275-0.024c0-1.524,1.189-2.761,2.658-2.761
		c1.471,0,2.662,1.236,2.662,2.761l2.864,0.024v-2.798h2.427l-0.027-2.967c-1.037,0-1.929-0.581-2.399-1.432v-2.657
		c0.471-0.848,1.362-1.428,2.399-1.428l0.027-2.357c-1.057,0-1.964-0.603-2.427-1.479v-2.561c0.463-0.874,1.37-1.479,2.427-1.479
		l0.113-2.77c-1.143,0-2.124-0.698-2.54-1.69v-2.138c0.416-0.993,1.397-1.691,2.54-1.691l-0.057-2.355
		c-1.1,0-2.04-0.648-2.483-1.583v-2.349c0.443-0.935,1.384-1.585,2.483-1.585l-0.027-3.13c-1.08,0-2.003-0.627-2.456-1.532v-2.453
		c0.453-0.906,1.376-1.533,2.456-1.533l0.055-2.354c-1.121,0-2.079-0.674-2.511-1.635v-2.25C68.525,22.373,69.483,21.7,70.604,21.7z
		"/>
	
		<rect x="6.311" y="5.878" fill="#E7E9ED" stroke="#505978" stroke-width="1.0178" stroke-miterlimit="10" width="58.336" height="62.121"/>
</g>
</svg>
