<?xml version="1.0" encoding="utf-8"?>
<!-- Generator: Adobe Illustrator 15.1.0, SVG Export Plug-In . SVG Version: 6.00 Build 0)  -->
<!DOCTYPE svg PUBLIC "-//W3C//DTD SVG 1.1//EN" "http://www.w3.org/Graphics/SVG/1.1/DTD/svg11.dtd">
<svg version="1.1" id="Capa_1" xmlns="http://www.w3.org/2000/svg" xmlns:xlink="http://www.w3.org/1999/xlink" x="0px" y="0px"
	 width="10px" height="14px" viewBox="0 0 10 14" enable-background="new 0 0 10 14" xml:space="preserve">
<g>
	<path fill="#F5BB43" stroke="#4F5877" stroke-width="0.2576" stroke-miterlimit="10" d="M9.82,13.705
		c0,0.144-0.113,0.257-0.255,0.257H0.437c-0.144,0-0.257-0.113-0.257-0.257V2.024c0-0.144,0.113-0.259,0.257-0.259h9.128
		c0.142,0,0.255,0.115,0.255,0.259V13.705z"/>
	
		<rect x="1.787" y="3.316" fill="#F1F2F2" stroke="#4F5877" stroke-width="0.2576" stroke-miterlimit="10" width="6.622" height="9.098"/>
	<g>
		<path fill="#CDD1DA" stroke="#4F5877" stroke-width="0.2576" stroke-miterlimit="10" d="M6.479,1.427
			c0-0.767-0.62-1.389-1.381-1.389c-0.763,0-1.383,0.623-1.383,1.389H2.349v1.808h5.496V1.427H6.479z"/>
		<circle fill="#F5BB43" stroke="#4F5877" stroke-width="0.2576" stroke-miterlimit="10" cx="5.095" cy="1.427" r="0.595"/>
	</g>
	<line fill="none" stroke="#58595B" stroke-width="0.5152" stroke-miterlimit="10" x1="2.927" y1="4.797" x2="6.654" y2="4.797"/>
	<line fill="none" stroke="#58595B" stroke-width="0.5152" stroke-miterlimit="10" x1="2.927" y1="5.922" x2="5.818" y2="5.922"/>
	<line fill="none" stroke="#58595B" stroke-width="0.5152" stroke-miterlimit="10" x1="2.927" y1="7.171" x2="6.654" y2="7.171"/>
	<line fill="none" stroke="#58595B" stroke-width="0.5152" stroke-miterlimit="10" x1="2.927" y1="8.119" x2="6.526" y2="8.119"/>
	<line fill="none" stroke="#58595B" stroke-width="0.5152" stroke-miterlimit="10" x1="2.927" y1="9.194" x2="5.818" y2="9.194"/>
</g>
</svg>
