<?xml version="1.0" encoding="utf-8"?>
<!-- Generator: Adobe Illustrator 15.1.0, SVG Export Plug-In . SVG Version: 6.00 Build 0)  -->
<!DOCTYPE svg PUBLIC "-//W3C//DTD SVG 1.1//EN" "http://www.w3.org/Graphics/SVG/1.1/DTD/svg11.dtd">
<svg version="1.1" id="Capa_1" xmlns="http://www.w3.org/2000/svg" xmlns:xlink="http://www.w3.org/1999/xlink" x="0px" y="0px"
	 width="31px" height="23px" viewBox="0 0 31 23" enable-background="new 0 0 31 23" xml:space="preserve">
<g>
	<path fill="#F5F5F5" d="M30.99,21.362c0,0.883-0.704,1.6-1.574,1.6H1.565c-0.869,0-1.575-0.717-1.575-1.6V1.56
		c0-0.882,0.706-1.598,1.575-1.598h27.851c0.87,0,1.574,0.716,1.574,1.598V21.362z"/>
	<path fill="#4F5877" d="M-0.01,4.397V1.56c0-0.882,0.706-1.598,1.575-1.598h27.851c0.87,0,1.574,0.716,1.574,1.598v2.837"/>
	<path fill="#F5BB43" d="M30.99,18.525v2.837c0,0.883-0.704,1.6-1.574,1.6H1.565c-0.869,0-1.575-0.717-1.575-1.6v-2.837"/>
</g>
<rect x="0.034" y="5.483" fill="none" width="30.913" height="11.952"/>
<text transform="matrix(0.9855 0 0 1 6.7378 13.9658)" fill="#4F5877" font-family="'SignPainter-HouseScript'" font-size="13.5296">Visa</text>
</svg>
