<?xml version="1.0" encoding="utf-8"?>
<!-- Generator: Adobe Illustrator 15.1.0, SVG Export Plug-In . SVG Version: 6.00 Build 0)  -->
<!DOCTYPE svg PUBLIC "-//W3C//DTD SVG 1.1//EN" "http://www.w3.org/Graphics/SVG/1.1/DTD/svg11.dtd">
<svg version="1.1" id="Capa_1" xmlns="http://www.w3.org/2000/svg" xmlns:xlink="http://www.w3.org/1999/xlink" x="0px" y="0px"
	 width="31px" height="23px" viewBox="0 0 31 23" enable-background="new 0 0 31 23" xml:space="preserve">
<path fill="#FACBC1" d="M31.023,21.401c0,0.883-0.705,1.599-1.575,1.599H1.596c-0.869,0-1.573-0.716-1.573-1.599V1.598
	C0.023,0.716,0.727,0,1.596,0h27.852c0.87,0,1.575,0.716,1.575,1.598V21.401z"/>
<path opacity="0.52" fill="#F79B82" d="M31.023,1.598v19.803c0,0.883-0.705,1.599-1.575,1.599H1.596"/>
<path fill="#4F5877" d="M4.745,12.618c-0.104,0.219-0.172,0.409-0.206,0.574c-0.032,0.165-0.028,0.296,0.016,0.39
	c0.046,0.095,0.132,0.138,0.258,0.13c0.214-0.009,0.458-0.162,0.728-0.467c0.27-0.307,0.509-0.668,0.715-1.089
	c0.068-0.12,0.126-0.124,0.178-0.012c0.074,0.182,0.044,0.415-0.088,0.699c-0.156,0.324-0.388,0.604-0.695,0.845
	c-0.308,0.242-0.61,0.354-0.905,0.339c-0.6-0.038-0.899-0.339-0.899-0.902c-0.46,0.578-0.919,0.868-1.379,0.868
	c-0.34,0-0.589-0.137-0.744-0.411c-0.156-0.274-0.198-0.63-0.128-1.065c0.072-0.437,0.254-0.869,0.55-1.307
	c0.408-0.609,0.819-1.066,1.233-1.366c0.416-0.301,0.779-0.451,1.089-0.451c0.216,0,0.381,0.073,0.5,0.222
	C5.084,9.759,5.14,9.941,5.134,10.16C5.961,8.561,6.579,7.47,6.979,6.891c0.118-0.166,0.208-0.166,0.266,0
	c0.17,0.404,0.056,0.974-0.344,1.702C6.833,8.713,6.675,8.994,6.427,9.44C6.18,9.88,5.974,10.254,5.812,10.55
	c-0.164,0.296-0.35,0.645-0.562,1.048C5.038,12,4.872,12.341,4.745,12.618z M4.645,9.968c-0.178-0.006-0.442,0.154-0.795,0.479
	c-0.352,0.327-0.676,0.731-0.972,1.21c-0.194,0.317-0.337,0.629-0.434,0.934c-0.096,0.304-0.132,0.553-0.106,0.743
	c0.026,0.192,0.11,0.288,0.252,0.288c0.222,0.007,0.472-0.142,0.75-0.446c0.278-0.304,0.55-0.716,0.817-1.233
	C4.778,10.741,4.96,10.086,4.7,9.979C4.687,9.972,4.667,9.968,4.645,9.968z"/>
<path fill="#4F5877" d="M6.889,14.005c-0.408,0-0.676-0.16-0.806-0.479c-0.13-0.319-0.108-0.707,0.062-1.168
	c0.132-0.384,0.348-0.855,0.644-1.414c0.296-0.561,0.556-1.003,0.777-1.323c0.096-0.137,0.186-0.16,0.268-0.069
	c0.096,0.105,0.148,0.261,0.154,0.472c0.008,0.211-0.048,0.462-0.166,0.756c-0.06,0.121-0.208,0.402-0.443,0.846
	c-0.238,0.444-0.4,0.771-0.49,0.981c-0.134,0.329-0.192,0.594-0.178,0.788c0.016,0.195,0.112,0.29,0.29,0.281
	c0.236-0.007,0.492-0.164,0.766-0.473c0.276-0.308,0.5-0.665,0.677-1.07c0.06-0.114,0.12-0.114,0.178,0
	c0.09,0.172,0.064,0.405-0.078,0.697c-0.162,0.346-0.4,0.629-0.709,0.846C7.522,13.896,7.209,14.005,6.889,14.005z M8.7,8.661
	c0.142,0.293,0.116,0.547-0.078,0.755c-0.066,0.083-0.166,0.11-0.298,0.085C8.188,9.475,8.082,9.39,8,9.248
	C7.918,9.09,7.884,8.936,7.895,8.787C7.906,8.633,7.96,8.511,8.056,8.412c0.088-0.097,0.2-0.117,0.334-0.061
	C8.522,8.408,8.626,8.511,8.7,8.661z"/>
<path fill="#4F5877" d="M8.7,11.986c0.572-0.79,0.996-1.436,1.279-1.939c0.044-0.373,0.178-0.664,0.4-0.867
	c0.118-0.105,0.236-0.173,0.355-0.203c0.118-0.03,0.2-0.019,0.244,0.033c0.08,0.082,0.052,0.248-0.09,0.497
	c-0.008,0.014-0.048,0.086-0.12,0.214c-0.032,0.383-0.02,0.874,0.032,1.473c0.052,0.596,0.074,1.005,0.066,1.223
	c-0.03,0.586-0.196,0.979-0.5,1.182c0.622-0.23,1.119-0.754,1.489-1.565c0.03-0.061,0.066-0.087,0.112-0.085
	c0.044,0.004,0.078,0.032,0.098,0.085c0.076,0.166,0.024,0.414-0.154,0.744c-0.208,0.384-0.485,0.682-0.833,0.895
	c-0.348,0.217-0.726,0.33-1.133,0.345C9.167,14.048,8.62,13.765,8.3,13.17c-0.142-0.248-0.198-0.531-0.172-0.85
	C8.152,12,8.26,11.762,8.444,11.604c0.142-0.122,0.22-0.083,0.234,0.111c0.008,0.03,0.012,0.075,0.012,0.136
	C8.69,11.913,8.692,11.956,8.7,11.986z M9.957,10.769c-0.262,0.48-0.646,1.09-1.157,1.827c0.09,0.338,0.21,0.603,0.362,0.794
	c0.152,0.192,0.316,0.263,0.494,0.208c0.068-0.021,0.126-0.071,0.178-0.149c0.052-0.079,0.09-0.191,0.112-0.334
	s0.04-0.276,0.056-0.4c0.014-0.123,0.02-0.296,0.016-0.513c-0.004-0.219-0.008-0.383-0.012-0.497
	c-0.004-0.112-0.012-0.282-0.026-0.511C9.963,10.963,9.957,10.822,9.957,10.769z"/>
<path fill="#4F5877" d="M14.356,9.484c0.282,0.174,0.486,0.38,0.612,0.62c0.036,0.121,0.058,0.22,0.066,0.298
	c0.006,0.081-0.012,0.187-0.056,0.321c-0.044,0.137-0.086,0.25-0.128,0.344c-0.04,0.095-0.094,0.213-0.16,0.355
	c-0.068,0.144-0.12,0.264-0.156,0.363c-0.038,0.119-0.116,0.149-0.234,0.087c-0.326-0.163-0.416-0.489-0.268-0.979
	c0.022-0.069,0.056-0.15,0.096-0.248c0.04-0.097,0.078-0.179,0.112-0.247c0.032-0.068,0.064-0.143,0.094-0.228
	c0.03-0.081,0.044-0.142,0.044-0.178c0-0.039-0.014-0.076-0.044-0.114c-0.068-0.053-0.188-0.019-0.361,0.101
	c-0.174,0.121-0.372,0.318-0.594,0.593c-0.224,0.274-0.412,0.574-0.568,0.896c-0.29,0.64-0.399,1.168-0.333,1.585
	c0.068,0.418,0.271,0.63,0.611,0.636c0.422,0.008,0.822-0.147,1.199-0.468c0.38-0.318,0.708-0.697,0.99-1.133
	c0.03-0.045,0.066-0.068,0.105-0.068c0.04,0,0.072,0.027,0.094,0.08c0.052,0.15-0.014,0.376-0.2,0.677
	c-0.214,0.338-0.522,0.627-0.922,0.862c-0.399,0.235-0.807,0.357-1.223,0.366c-0.695,0.007-1.157-0.281-1.383-0.861
	c-0.226-0.582-0.154-1.239,0.218-1.969c0.34-0.676,0.75-1.172,1.225-1.487C13.673,9.372,14.059,9.303,14.356,9.484z"/>
<path fill="#4F5877" d="M18.623,11.187c0.526-0.136,0.918-0.704,1.178-1.703c0.044-0.159,0.122-0.189,0.233-0.091
	c0.185,0.159,0.296,0.348,0.332,0.563c0.038,0.22,0.016,0.496-0.065,0.834c-0.03,0.122-0.08,0.318-0.15,0.594
	c-0.07,0.272-0.124,0.484-0.162,0.634c-0.036,0.151-0.078,0.361-0.126,0.626c-0.05,0.267-0.092,0.545-0.13,0.829
	c0.386-0.638,0.884-1.369,1.495-2.19c0.612-0.827,1.113-1.44,1.507-1.844c0.11-0.116,0.177-0.099,0.2,0.043
	c0.03,0.218-0.124,0.541-0.456,0.969c-0.073,0.098-0.283,0.355-0.627,0.768c-0.346,0.414-0.684,0.842-1.018,1.291
	c-0.334,0.447-0.655,0.921-0.968,1.426c-0.073,0.113-0.151,0.15-0.233,0.113c-0.214-0.113-0.359-0.241-0.438-0.384
	s-0.114-0.356-0.106-0.642c0.022-0.384,0.118-1.015,0.288-1.895c-0.191,0.218-0.47,0.347-0.831,0.383"/>
<g>
	<path fill="#F47D30" d="M18.605,10.55c-0.032-0.14-0.072-0.24-0.116-0.3c-0.044-0.059-0.111-0.134-0.199-0.225
		c-0.09-0.09-0.152-0.16-0.188-0.213c-0.201-0.28-0.449-0.406-0.745-0.384c-0.326,0.023-0.649,0.167-0.968,0.439
		c-0.317,0.271-0.587,0.61-0.811,1.015c-0.578,1.068-0.632,1.914-0.166,2.537c0.37,0.504,0.833,0.666,1.389,0.485
		c0.392-0.121,0.751-0.419,1.077-0.896s0.548-0.975,0.668-1.494l0.077-0.327c0-0.022,0.002-0.051,0.004-0.08
		c0.005-0.029,0.007-0.047,0.007-0.056C18.649,10.856,18.64,10.689,18.605,10.55z M17.422,12.291
		c-0.258,0.487-0.537,0.839-0.833,1.05c-0.296,0.21-0.525,0.249-0.688,0.112c-0.15-0.121-0.188-0.398-0.118-0.835
		c0.07-0.436,0.224-0.864,0.462-1.286c0.26-0.457,0.544-0.814,0.855-1.069c0,0.217,0.069,0.43,0.21,0.635
		c0.142,0.207,0.312,0.363,0.512,0.467C17.726,11.666,17.594,11.975,17.422,12.291z M17.912,11.051
		c-0.224-0.203-0.312-0.457-0.268-0.765c0.016-0.105,0.046-0.187,0.094-0.239c0.05-0.053,0.098-0.062,0.146-0.026
		c0.048,0.033,0.08,0.106,0.094,0.217C18.008,10.481,17.983,10.749,17.912,11.051z"/>
</g>
<path fill="#4F5877" d="M29.635,12.844c-0.141,0.339-0.36,0.619-0.656,0.845c-0.296,0.228-0.596,0.331-0.899,0.316
	c-0.415-0.022-0.705-0.198-0.867-0.53c-0.164-0.33-0.174-0.729-0.034-1.195c0.18-0.586,0.638-1.295,1.379-2.13
	c-0.445,0.286-0.889,0.429-1.333,0.429c-0.489,1.034-1.029,1.862-1.617,2.475c-0.589,0.613-1.199,0.923-1.828,0.93
	c-0.695,0.007-1.157-0.281-1.384-0.863c-0.226-0.581-0.153-1.233,0.219-1.955c0.331-0.669,0.739-1.164,1.221-1.484
	c0.481-0.32,0.869-0.392,1.167-0.22c0.288,0.173,0.508,0.365,0.656,0.576c0.102,0.128,0.122,0.341,0.056,0.642
	c-0.068,0.302-0.21,0.591-0.424,0.871c-0.279,0.364-0.592,0.588-0.928,0.663c-0.337,0.075-0.709-0.034-1.117-0.327
	c-0.17,0.511-0.203,0.934-0.1,1.262c0.104,0.333,0.3,0.505,0.59,0.519c0.562,0.022,1.123-0.287,1.683-0.935s1.018-1.387,1.373-2.223
	c-0.2-0.08-0.304-0.228-0.312-0.439c-0.008-0.21,0.048-0.42,0.168-0.629c0.118-0.213,0.258-0.398,0.42-0.56
	c0.163-0.162,0.306-0.248,0.423-0.255c0.261-0.006,0.294,0.324,0.101,0.996c-0.044,0.132-0.094,0.274-0.145,0.416
	c0.362-0.053,0.766-0.23,1.212-0.53c0.155-0.106,0.26-0.117,0.31-0.033c0.09,0.097,0.164,0.207,0.224,0.324
	c0.061,0.122,0.09,0.264,0.094,0.425c0.002,0.162-0.046,0.299-0.149,0.411c-0.682,0.768-1.107,1.422-1.277,1.963
	c-0.09,0.309-0.107,0.564-0.056,0.767c0.05,0.203,0.162,0.308,0.331,0.314c0.225,0.009,0.462-0.138,0.724-0.438
	c0.26-0.303,0.482-0.674,0.666-1.117c0.06-0.12,0.116-0.124,0.168-0.011C29.778,12.306,29.76,12.552,29.635,12.844z M23.345,11.637
	c0.104,0.067,0.21,0.105,0.317,0.116c0.108,0.006,0.202-0.007,0.282-0.037c0.082-0.03,0.17-0.082,0.262-0.158
	c0.094-0.075,0.17-0.146,0.233-0.219c0.062-0.071,0.134-0.156,0.218-0.256c0.178-0.231,0.314-0.469,0.41-0.714
	c0.096-0.243,0.107-0.397,0.034-0.458c-0.082-0.075-0.222-0.053-0.418,0.063c-0.196,0.117-0.412,0.308-0.649,0.576
	c-0.238,0.267-0.438,0.565-0.6,0.896c-0.008,0.015-0.021,0.045-0.04,0.09C23.376,11.582,23.36,11.612,23.345,11.637z"/>
</svg>
