<?xml version="1.0" encoding="utf-8"?>
<!-- Generator: Adobe Illustrator 15.1.0, SVG Export Plug-In . SVG Version: 6.00 Build 0)  -->
<!DOCTYPE svg PUBLIC "-//W3C//DTD SVG 1.1//EN" "http://www.w3.org/Graphics/SVG/1.1/DTD/svg11.dtd">
<svg version="1.1" id="Capa_1" xmlns="http://www.w3.org/2000/svg" xmlns:xlink="http://www.w3.org/1999/xlink" x="0px" y="0px"
	 width="126.75px" height="130.068px" viewBox="0 0 126.75 130.068" enable-background="new 0 0 126.75 130.068"
	 xml:space="preserve">
<g>
	<g>
		<g>
			<g>
				<defs>
					<rect id="SVGID_1_" x="11.888" y="9.624" width="102.977" height="109.389"/>
				</defs>
				<clipPath id="SVGID_2_">
					<use xlink:href="#SVGID_1_"  overflow="visible"/>
				</clipPath>
			</g>
			<path fill="none" stroke="#505978" stroke-width="2" stroke-linecap="round" stroke-linejoin="round" stroke-miterlimit="10" d="
				M125.375,37.486l0.15-4.878c-2.133,0-3.923-1.382-4.579-3.292v-3.134c0.656-1.909,2.446-3.291,4.579-3.291l-0.051-4.151
				c-2.07,0-3.828-1.299-4.528-3.122v-3.466c0.7-1.827,2.458-3.126,4.528-3.126l0.049-4.238h-4.577v-4.926l-5.056,0.048
				c0,2.684-2.104,4.856-4.699,4.856c-2.593,0-4.696-2.172-4.696-4.856l-4.014-0.048c0,2.683-2.102,4.859-4.697,4.859
				c-2.595,0-4.696-2.176-4.696-4.859l-4.721-0.198c0,2.683-2.104,4.858-4.698,4.858c-2.594,0-4.701-2.175-4.701-4.858l-4.01,0.098
				c0,2.682-2.102,4.857-4.696,4.857c-2.598,0-4.699-2.176-4.699-4.857l-5.331,0.047c0,2.685-2.104,4.861-4.702,4.861
				c-2.594,0-4.698-2.176-4.698-4.861l-4.01-0.095c0,2.685-2.104,4.856-4.7,4.856c-2.592,0-4.7-2.171-4.7-4.856l-4.715-0.148
				c0,2.684-2.104,4.858-4.702,4.858c-2.59,0-4.694-2.174-4.694-4.858l-4.015,0.05c0,2.682-2.102,4.859-4.698,4.859
				c-2.594,0-4.7-2.177-4.7-4.859L5.803-0.43v5.22H1.228l0.049,4.238c2.069,0,3.824,1.299,4.527,3.122v3.47
				c-0.703,1.823-2.458,3.122-4.527,3.122l-0.051,4.151c2.131,0,3.922,1.381,4.578,3.287v3.138
				c-0.656,1.909-2.446,3.292-4.578,3.292l0.148,4.878c1.978,0,3.669,1.182,4.43,2.878v3.962c-0.761,1.693-2.452,2.878-4.43,2.878
				l0.095,4.146c1.906,0,3.536,1.102,4.334,2.696v4.324c-0.798,1.592-2.429,2.698-4.334,2.698L1.422,66.58
				c1.938,0,3.601,1.145,4.381,2.789v4.136c-0.78,1.646-2.443,2.789-4.381,2.789l-0.098,4.147c2.012,0,3.742,1.229,4.479,2.977
				v3.768c-0.736,1.746-2.466,2.975-4.479,2.975l0.195,4.878c1.866,0,3.467,1.062,4.284,2.604v4.508
				c-0.816,1.544-2.417,2.604-4.284,2.604l0.05,4.149c1.829,0,3.404,1.021,4.233,2.514v4.686c-0.829,1.491-2.405,2.517-4.233,2.517
				l-0.046,5.227h4.28v5.221l4.096-0.048c0-2.685,2.106-4.86,4.7-4.86c2.596,0,4.698,2.176,4.698,4.86l4.015,0.05
				c0-2.684,2.104-4.858,4.694-4.858c2.597,0,4.702,2.175,4.702,4.858l4.715-0.15c0-2.683,2.107-4.856,4.7-4.856
				c2.596,0,4.7,2.174,4.7,4.856l4.01-0.094c0-2.684,2.104-4.861,4.698-4.861c2.598,0,4.702,2.178,4.702,4.861l5.331,0.048
				c0-2.684,2.102-4.858,4.699-4.858c2.595,0,4.696,2.175,4.696,4.858l4.01,0.1c0-2.684,2.107-4.859,4.701-4.859
				c2.595,0,4.698,2.176,4.698,4.859l4.721-0.198c0-2.686,2.102-4.861,4.696-4.861c2.596,0,4.697,2.176,4.697,4.861l4.014-0.049
				c0-2.684,2.104-4.86,4.696-4.86c2.596,0,4.699,2.177,4.699,4.86l5.056,0.049v-4.928h4.28l-0.048-5.227
				c-1.83,0-3.401-1.025-4.232-2.519v-4.682c0.831-1.494,2.402-2.516,4.232-2.516l0.05-4.149c-1.865,0-3.469-1.064-4.282-2.604
				v-4.508c0.813-1.541,2.417-2.604,4.282-2.604l0.198-4.878c-2.015,0-3.742-1.229-4.48-2.975V83.42
				c0.738-1.749,2.466-2.979,4.48-2.979l-0.1-4.147c-1.938,0-3.602-1.143-4.381-2.789v-4.136c0.779-1.645,2.442-2.789,4.381-2.789
				l-0.046-5.513c-1.904,0-3.537-1.105-4.335-2.7v-4.32c0.798-1.594,2.431-2.698,4.335-2.698l0.094-4.146
				c-1.977,0-3.671-1.185-4.429-2.88v-3.96C121.704,38.67,123.398,37.486,125.375,37.486z"/>
			
				<rect x="11.888" y="9.624" fill="#3B81C4" stroke="#505978" stroke-width="2" stroke-linecap="round" stroke-linejoin="round" stroke-miterlimit="10" width="102.977" height="109.389"/>
		</g>
	</g>
	<ellipse fill="#F0EFEF" cx="66.054" cy="64.702" rx="34.909" ry="26.208"/>
	<g>
		<path fill-rule="evenodd" clip-rule="evenodd" fill="#797D80" d="M49.052,57.57c-0.926,0.479-1.613,0.975-2.124,1.501
			c-0.83,0.878-1.31,1.885-1.31,2.794c0,0.161,0.033,0.335,0.047,0.479c0.191,0.941,0.512,1.421,0.926,1.788
			c0.833,0.769,1.79,0.832,1.837,0.832l0,0c0.111,0,0.223-0.081,0.223-0.208c0-0.145-0.062-0.208-0.174-0.224
			c-0.033-0.017-0.607-0.112-1.135-0.894c-0.24-0.289-0.463-0.704-0.558-1.613c-0.193-1.471,0.909-3.195,2.588-4.074
			c1.213-0.671,2.875-0.894,4.438-0.654c1.583,0.271,2.365,0.654,3.322,1.611c0.929,0.944,1.552,2.572,1.552,4.106
			c0,0.079,0,0.158-0.018,0.207c-0.031,0.83-0.225,2.396-1.246,3.736c-1.214,1.614-3.225,2.429-5.941,2.429
			c-1.15,0-2.219,0.016-2.94,0.032c2.109-1.088,3.452-4.186,4.473-6.502c0.288-0.669,0.544-1.261,0.783-1.692
			c1.102-2.092,2.364-2.172,2.396-2.172c0.095,0,0.176-0.095,0.176-0.175c0-0.127-0.097-0.207-0.176-0.207
			c-0.113,0-1.678-0.16-3.338,1.405c-0.607,0.575-1.135,1.437-1.598,2.54c-0.782,1.932-1.438,3.432-1.965,4.455
			c-0.416,0.831-0.926,1.694-1.565,2.015c-0.702,0.381-1.516,0.335-1.516,0.335c-0.017,0-0.128,0-0.208,0.079
			c-0.047,0.048-0.08,0.096-0.08,0.19c0,0.129,0.033,0.209,0.08,0.24c0.081,0.065,0.16,0.065,0.192,0.065
			c0.017,0,1.533,0.029,5.399,0.029c3.275,0,5.703-0.765,7.205-2.268c1.406-1.355,1.694-3.064,1.694-4.246
			c0-1.726-0.688-3.45-1.871-4.632c-1.358-1.374-2.619-1.916-4.776-2.155C52.232,56.563,50.443,56.882,49.052,57.57L49.052,57.57z"
			/>
		<path fill-rule="evenodd" clip-rule="evenodd" fill="#797D80" d="M65.586,61.258h0.015c-2.109,0-4.311,1.949-4.951,4.344
			c-0.335,1.278-0.158,2.522,0.496,3.354c0.527,0.688,1.325,1.056,2.234,1.056c2.094,0,4.315-1.949,4.953-4.33
			c0.335-1.308,0.145-2.521-0.496-3.386C67.295,61.626,66.511,61.258,65.586,61.258L65.586,61.258z M62.645,69.323L62.645,69.323
			c-0.253-0.111-0.431-0.352-0.527-0.687c-0.319-0.941-0.046-2.477,0.671-3.864c0.977-1.979,2.684-3.29,3.579-2.826
			c0.24,0.126,0.398,0.335,0.51,0.67c0.306,0.942,0.032,2.474-0.687,3.881C65.17,68.494,63.557,69.803,62.645,69.323L62.645,69.323z
			"/>
		<path fill-rule="evenodd" clip-rule="evenodd" fill="#797D80" d="M80.855,61.354L80.855,61.354
			c-1.261,0.049-3.705,0.896-4.934,3.963c-0.656,1.644-0.353,2.715,0.013,3.338c0.545,0.862,1.424,1.26,2.079,1.342
			c2.46,0.271,4.393-2.796,4.456-2.907c0.063-0.096,0.03-0.273-0.129-0.367c-0.176-0.096-0.335-0.018-0.383,0.081
			c0,0.013-1.677,2.632-3.627,2.602c-0.782-0.016-1.15-0.512-1.214-1.581c0-0.032,0-0.096,0-0.128c0-0.639,0.208-1.293,0.307-1.535
			c0.653,0.05,3.977,0.163,5.126-2.201c0.289-0.623,0.289-1.263-0.05-1.775C82.165,61.658,81.544,61.354,80.855,61.354
			L80.855,61.354z M80.41,61.994c0.381-0.145,0.701-0.112,0.973,0.079c0.161,0.097,0.271,0.256,0.304,0.448
			c0.048,0.319-0.048,0.894-0.813,1.868c-1.022,1.293-2.685,1.247-3.213,1.214C78.476,63.351,79.625,62.25,80.41,61.994
			L80.41,61.994z"/>
		<path fill-rule="evenodd" clip-rule="evenodd" fill="#797D80" d="M73.926,61.531c-0.051,0.096-0.099,0.225-0.099,0.319
			c0,0.112,0.048,0.223,0.099,0.32c0.092,0.112,0.254,0.126,0.381,0.126c0.017,0,0.078,0,0.111,0.033
			c0.465,0.159,0.607,0.8,0.641,1.422c0.015,0.335-0.145,1.484-0.319,1.885c-1.071,2.332-2.731,3.93-3.931,3.753
			c-0.238-0.049-0.367-0.145-0.446-0.303c-0.288-0.528,0.079-1.759,0.925-3.372c0.24-0.431,1.359-2.635,0.688-3.8
			c-0.225-0.416-0.641-0.639-1.232-0.672c-1.692-0.095-2.347,1.119-2.377,1.184c-0.033,0.095-0.033,0.237,0.079,0.335
			c0.159,0.111,0.288,0.033,0.352-0.017c0.016-0.033,0.877-1.054,1.677-0.879c0.079,0.017,0.127,0.049,0.145,0.129
			c0.269,0.638-0.768,2.794-1.103,3.48c-0.32,0.672-1.149,2.65-0.447,3.737c0.319,0.511,0.894,0.767,1.707,0.784
			c2.908,0.078,4.794-4.457,5.048-5.687c0-0.047,0.385-1.709-0.205-2.554c-0.192-0.306-0.464-0.464-0.801-0.513
			C74.243,61.164,74.004,61.403,73.926,61.531L73.926,61.531z"/>
		<path fill-rule="evenodd" clip-rule="evenodd" fill="#797D80" d="M83.095,67.807h0.078c0.127,0,0.238,0,0.238,0.145
			c0,0.08-0.08,0.145-0.173,0.145h-0.144V67.807L83.095,67.807z M83.012,68.494h0.083v-0.336h0.125l0.242,0.336h0.092l-0.236-0.336
			c0.063-0.016,0.175-0.079,0.175-0.207c0-0.111-0.03-0.145-0.096-0.193c-0.047-0.03-0.111-0.03-0.224-0.03h-0.161V68.494
			L83.012,68.494z M83.238,67.488c-0.338,0-0.594,0.27-0.594,0.637c0,0.352,0.256,0.624,0.594,0.624
			c0.315,0,0.571-0.272,0.571-0.624C83.81,67.758,83.554,67.488,83.238,67.488L83.238,67.488L83.238,67.488z M83.238,67.551
			c0.27,0,0.51,0.256,0.51,0.574c0,0.305-0.24,0.562-0.51,0.562c-0.288,0-0.514-0.257-0.514-0.562
			C82.725,67.807,82.95,67.551,83.238,67.551L83.238,67.551L83.238,67.551z"/>
		<path fill-rule="evenodd" clip-rule="evenodd" fill="#797D80" d="M63.268,57.889c0,0,1.456,0.542,3.148,1.469
			c2.73,1.55,5,1.533,6.294-0.287c0.849-1.182,1.518-2.57,2.652-3.019c0,0-0.178-0.143-0.273-0.254
			c-0.238-0.241-0.573-0.497-0.927-0.512c-1.102-0.097-1.996,1.356-2.298,1.182c-0.448-0.24,0.894-1.39-0.544-2.461
			c-1.646-1.259-5.129,1.933-7.187,1.471c0,0,0.94,1.148,3.192,1.325c1.119,0.079,1.104,0.334,1.104,0.433
			C68.445,58.353,63.268,57.889,63.268,57.889L63.268,57.889z"/>
	</g>
</g>
</svg>
