<?xml version="1.0" encoding="utf-8"?>
<!-- Generator: Adobe Illustrator 15.1.0, SVG Export Plug-In . SVG Version: 6.00 Build 0)  -->
<!DOCTYPE svg PUBLIC "-//W3C//DTD SVG 1.1//EN" "http://www.w3.org/Graphics/SVG/1.1/DTD/svg11.dtd">
<svg version="1.1" id="Capa_1" xmlns="http://www.w3.org/2000/svg" xmlns:xlink="http://www.w3.org/1999/xlink" x="0px" y="0px"
	 width="126.75px" height="130.068px" viewBox="0 0 126.75 130.068" enable-background="new 0 0 126.75 130.068"
	 xml:space="preserve">
<g>
	<g>
		<g>
			<g>
				<defs>
					<rect id="SVGID_1_" x="11.954" y="10.593" width="102.982" height="109.418"/>
				</defs>
				<clipPath id="SVGID_2_">
					<use xlink:href="#SVGID_1_"  overflow="visible"/>
				</clipPath>
			</g>
			<path fill="none" stroke="#505978" stroke-width="2" stroke-linecap="round" stroke-linejoin="round" stroke-miterlimit="10" d="
				M125.449,38.462l0.148-4.878c-2.133,0-3.924-1.382-4.578-3.293v-3.136c0.654-1.907,2.445-3.289,4.578-3.289l-0.051-4.152
				c-2.07,0-3.826-1.299-4.527-3.123v-3.468c0.701-1.825,2.457-3.126,4.527-3.126l0.049-4.238h-4.576V0.832l-5.055,0.048
				c0,2.685-2.105,4.86-4.701,4.86c-2.594,0-4.695-2.176-4.695-4.86l-4.016-0.049c0,2.685-2.1,4.862-4.697,4.862
				c-2.596,0-4.697-2.178-4.697-4.862l-4.719-0.196c0,2.682-2.105,4.859-4.699,4.859c-2.596,0-4.701-2.178-4.701-4.859l-4.01,0.098
				c0,2.684-2.102,4.859-4.697,4.859c-2.6,0-4.699-2.176-4.699-4.859L60.3,0.78c0,2.687-2.104,4.861-4.7,4.861
				c-2.595,0-4.699-2.175-4.699-4.861L46.89,0.685c0,2.685-2.103,4.857-4.698,4.857c-2.594,0-4.7-2.173-4.7-4.857l-4.717-0.149
				c0,2.685-2.103,4.86-4.701,4.86c-2.591,0-4.694-2.176-4.694-4.86l-4.015,0.051c0,2.683-2.103,4.86-4.698,4.86
				s-4.699-2.178-4.699-4.86L5.869,0.538v5.222H1.293l0.049,4.238c2.07,0,3.826,1.301,4.526,3.122v3.474
				c-0.7,1.822-2.456,3.121-4.526,3.121l-0.051,4.152c2.133,0,3.922,1.382,4.577,3.289v3.136c-0.655,1.911-2.444,3.293-4.577,3.293
				l0.148,4.878c1.978,0,3.67,1.184,4.429,2.88v3.962c-0.759,1.693-2.451,2.878-4.429,2.878l0.096,4.148
				c1.904,0,3.535,1.103,4.333,2.696v4.324C5.071,60.945,3.44,62.05,1.536,62.05l-0.048,5.514c1.94,0,3.603,1.143,4.381,2.789v4.139
				c-0.778,1.645-2.44,2.791-4.381,2.791L1.389,81.43c2.014,0,3.744,1.229,4.479,2.977v3.77c-0.735,1.746-2.466,2.977-4.479,2.977
				l0.197,4.877c1.866,0,3.467,1.062,4.282,2.605v4.508c-0.815,1.543-2.416,2.605-4.282,2.605l0.049,4.15
				c1.829,0,3.404,1.021,4.233,2.514v4.686c-0.829,1.494-2.404,2.518-4.233,2.518l-0.047,5.229h4.28v5.223l4.099-0.049
				c0-2.684,2.104-4.861,4.699-4.861s4.698,2.178,4.698,4.861l4.015,0.051c0-2.686,2.104-4.859,4.694-4.859
				c2.599,0,4.701,2.174,4.701,4.859l4.717-0.148c0-2.686,2.106-4.859,4.7-4.859c2.596,0,4.698,2.174,4.698,4.859l4.011-0.096
				c0-2.686,2.104-4.863,4.699-4.863c2.597,0,4.7,2.178,4.7,4.863l5.333,0.049c0-2.686,2.1-4.859,4.699-4.859
				c2.596,0,4.697,2.174,4.697,4.859l4.01,0.098c0-2.682,2.105-4.859,4.701-4.859c2.594,0,4.699,2.178,4.699,4.859l4.719-0.199
				c0-2.684,2.102-4.861,4.697-4.861c2.598,0,4.697,2.178,4.697,4.861l4.016-0.047c0-2.684,2.102-4.861,4.695-4.861
				c2.596,0,4.701,2.178,4.701,4.861l5.055,0.047v-4.928h4.281l-0.047-5.229c-1.83,0-3.404-1.023-4.234-2.52v-4.682
				c0.83-1.494,2.404-2.516,4.234-2.516l0.049-4.15c-1.865,0-3.469-1.064-4.283-2.605v-4.508c0.814-1.541,2.418-2.605,4.283-2.605
				l0.197-4.877c-2.016,0-3.744-1.23-4.48-2.979v-3.766c0.736-1.75,2.465-2.979,4.48-2.979l-0.1-4.146
				c-1.939,0-3.602-1.146-4.381-2.791v-4.139c0.779-1.646,2.441-2.789,4.381-2.789l-0.047-5.514c-1.904,0-3.537-1.105-4.334-2.7
				v-4.321c0.797-1.594,2.43-2.698,4.334-2.698l0.096-4.148c-1.979,0-3.672-1.185-4.43-2.88v-3.96
				C121.777,39.648,123.471,38.462,125.449,38.462z"/>
			
				<rect x="11.954" y="10.593" fill="#3B81C4" stroke="#505978" stroke-width="2" stroke-linecap="round" stroke-linejoin="round" stroke-miterlimit="10" width="102.982" height="109.418"/>
		</g>
	</g>
	<g>
		<path fill="#80CFD6" d="M75.076,36.781v-0.053h-22.89c-12.005,1.628-12.005,6.024-12.005,6.024v65.421
			c0,1.75,2.057,3.168,4.595,3.168h37.337c2.537,0,4.594-1.418,4.594-3.168V42.752C86.707,42.752,86.705,38.449,75.076,36.781z"/>
		<path fill="#6CBF5C" d="M75.475,23.796c0-2.456-5.361-4.447-11.975-4.447c-6.614,0-11.976,1.991-11.976,4.447
			c0,0.132-0.109,9.342-0.109,9.342c0,1.982,1.725,3.59,3.853,3.59h16.354c2.129,0,3.854-1.607,3.854-3.59
			C75.475,33.138,75.475,23.994,75.475,23.796z"/>
		<g>
			<path fill="#FFFFFF" d="M62.917,77.059c-0.162-0.023-0.179-0.49-0.179-0.838v-1.904c0-1.605,0.536-1.809,1.004-1.809
				c0.258,0,0.499,0.129,0.651,0.291c0.176,0.195,0.26,0.254,0.357,0.254c0.215,0,0.299-0.176,0.35-0.35l0.107-0.32
				c0.027-0.084,0.043-0.172,0.043-0.25c0-0.373-0.316-0.426-0.656-0.426c-1.745,0.014-2.841,1.645-2.841,4.059v0.496
				c0,0.496-0.039,0.893-0.039,0.896l-0.01,0.09l1.203-0.031L62.917,77.059 M68.053,76.896c0.207,0,0.404-0.055,0.578-0.168
				c0.176-0.115,0.336-0.285,0.469-0.5c0.137-0.221,0.246-0.488,0.322-0.795c0.078-0.309,0.117-0.658,0.117-1.039
				c0-0.328-0.039-0.621-0.121-0.875c-0.08-0.25-0.186-0.463-0.312-0.633c-0.129-0.166-0.275-0.293-0.443-0.379
				c-0.164-0.086-0.336-0.131-0.512-0.131c-0.215,0-0.42,0.039-0.617,0.123c-0.193,0.078-0.361,0.209-0.506,0.395
				c-0.145,0.184-0.264,0.434-0.352,0.734c-0.088,0.305-0.131,0.684-0.131,1.129C66.545,76.197,67.037,76.896,68.053,76.896
				 M68.105,77.381c-1.453,0-2.537-0.857-2.537-0.857l0.027-0.801l0.02-0.863l0.006-0.816v-2c0-0.689-0.016-0.51-0.039-1.189
				c-0.006-0.66,1.164-1.27,1.139-0.992c-0.037,0.436-0.127,1.43-0.127,1.992c0,0.559-0.012,0.602-0.02,0.895
				c0.221-0.312,0.459-0.555,0.715-0.711c0.307-0.193,0.668-0.291,1.072-0.291c0.389,0,0.73,0.076,1.014,0.225
				c0.287,0.148,0.525,0.348,0.711,0.592c0.188,0.244,0.328,0.529,0.422,0.852c0.092,0.318,0.139,0.66,0.139,1.012
				c0,0.434-0.064,0.838-0.193,1.199c-0.131,0.363-0.311,0.678-0.535,0.938c-0.229,0.264-0.5,0.467-0.811,0.607
				C68.799,77.311,68.459,77.381,68.105,77.381 M62.088,72.697c0.281,0,0.509-0.229,0.509-0.516c0-0.285-0.228-0.518-0.509-0.518
				s-0.51,0.232-0.51,0.518C61.579,72.469,61.807,72.697,62.088,72.697 M60.981,73.221c-0.094-0.283-0.24-0.533-0.434-0.744
				c-0.196-0.211-0.44-0.381-0.729-0.508c-0.286-0.125-0.633-0.189-1.023-0.189c-0.834,0-1.478,0.271-1.915,0.803
				c-0.433,0.529-0.652,1.264-0.652,2.188c0,0.377,0.065,0.732,0.197,1.057c0.127,0.326,0.317,0.611,0.561,0.852
				c0.241,0.24,0.531,0.424,0.863,0.549c0.331,0.123,0.702,0.188,1.098,0.188c0.356,0,0.704-0.066,1.034-0.193
				c1.122-0.438,0.934-1.115,0.933-1.113l-0.155-0.096l-0.045,0.051c-0.09,0.107-0.198,0.209-0.319,0.301
				c-0.121,0.09-0.252,0.172-0.396,0.24c-0.139,0.066-0.284,0.123-0.431,0.16c-0.146,0.039-0.291,0.059-0.43,0.059
				c-0.29,0-0.551-0.053-0.771-0.152c-0.222-0.102-0.411-0.238-0.562-0.41c-0.152-0.17-0.269-0.379-0.349-0.617
				c-0.023-0.068-0.091-0.338-0.1-0.426c-0.068-0.643-0.009-1.051,0.112-1.607h0.003c0.009-0.031,0.012-0.061,0.021-0.09
				c0.059-0.217,0.147-0.42,0.264-0.604c0.112-0.178,0.26-0.33,0.436-0.451c0.172-0.115,0.387-0.174,0.64-0.174
				c0.267,0,0.482,0.057,0.643,0.174c0.162,0.119,0.292,0.27,0.385,0.451c0.095,0.184,0.159,0.387,0.191,0.6
				c0.026,0.191,0.036,0.373,0.041,0.547l-0.638,0.014l-0.731,0.01l-0.628-0.01c0,0-0.077,0-0.174-0.002
				c-0.079,0.01-0.28,0.061-0.28,0.285c0,0.217,0.179,0.256,0.259,0.266c0.097-0.002,0.168-0.004,0.168-0.004l0.623-0.012
				l1.163,0.012c0,0,0.319,0.004,0.632,0.01c0.651,0,0.637-0.508,0.637-0.508C61.122,73.807,61.075,73.502,60.981,73.221
				 M68.053,76.896c0.207,0,0.404-0.055,0.578-0.168c0.176-0.115,0.336-0.285,0.469-0.5c0.137-0.221,0.246-0.488,0.322-0.795
				c0.078-0.309,0.117-0.658,0.117-1.039c0-0.328-0.039-0.621-0.121-0.875c-0.08-0.25-0.186-0.463-0.312-0.633
				c-0.129-0.166-0.275-0.293-0.443-0.379c-0.164-0.086-0.336-0.131-0.512-0.131c-0.215,0-0.42,0.039-0.617,0.123
				c-0.193,0.078-0.361,0.209-0.506,0.395c-0.145,0.184-0.264,0.434-0.352,0.734c-0.088,0.305-0.131,0.684-0.131,1.129
				C66.545,76.197,67.037,76.896,68.053,76.896 M68.105,77.381c-1.453,0-2.537-0.857-2.537-0.857l0.027-0.801l0.02-0.863
				l0.006-0.816v-2c0-0.689-0.016-0.51-0.039-1.189c-0.006-0.66,1.164-1.27,1.139-0.992c-0.037,0.436-0.127,1.43-0.127,1.992
				c0,0.559-0.012,0.602-0.02,0.895c0.221-0.312,0.459-0.555,0.715-0.711c0.307-0.193,0.668-0.291,1.072-0.291
				c0.389,0,0.73,0.076,1.014,0.225c0.287,0.148,0.525,0.348,0.711,0.592c0.188,0.244,0.328,0.529,0.422,0.852
				c0.092,0.318,0.139,0.66,0.139,1.012c0,0.434-0.064,0.838-0.193,1.199c-0.131,0.363-0.311,0.678-0.535,0.938
				c-0.229,0.264-0.5,0.467-0.811,0.607C68.799,77.311,68.459,77.381,68.105,77.381 M75.053,74.215c0,0.111-0.027,1.447-0.055,2.129
				c-0.012,0.66,1.338,1.229,1.312,0.951c-0.039-0.422-0.141-2.162-0.143-2.73c-0.188-0.035-0.354-0.168-0.537-0.26
				C75.438,74.211,75.213,74.336,75.053,74.215 M55.692,74.953l-0.011-0.545v-1.301h0.003v-0.426h-0.006
				c0.011-0.598,0.069-1.234,0.094-1.836c-0.479,0.09-0.775,0.082-1.247,0l0.036,0.621l0.031,0.561l0.028,1.021v0.059h0.002v0.242
				c-0.131,0.002-0.964,0.018-0.964,0.018l-1.133,0.008l-0.596-0.004l-0.219-0.004c0,0-0.634-0.016-0.736-0.016v-0.303l0.028-1.021
				l0.032-0.561l0.038-0.621c-0.483,0.082-0.795,0.09-1.284,0c0.174,2.156,0.09,4.23,0.028,6.391l0.635,0.012l0.613,0.029v-0.086
				l-0.062-1.371l-0.028-1.412v-0.387c0.097-0.002,0.287-0.01,0.287-0.01l0.449-0.008l0.223-0.002l0.592-0.006l1.133,0.008
				c0,0,0.829,0.016,0.964,0.018v0.387l-0.027,1.412l-0.024,0.508h0.002c-0.018,0.324-0.039,0.662-0.06,0.955
				c-0.026,0.391,0.042,0.586,0.109,0.695c0.181,0.281,1.165-0.316,1.157-0.975C55.759,76.465,55.71,75.422,55.692,74.953
				 M74.375,76.479c-0.207,0.172-0.592,0.33-0.92,0.33c-0.309,0-0.561-0.139-0.746-0.334c-0.324-0.334-0.475-0.967-0.453-1.877
				c0.033-1.457,0.701-2.293,1.543-2.293c0.303,0,0.541,0.096,0.73,0.295c0.355,0.371,0.523,1.1,0.498,2.162v0.023
				c0.207-0.113,0.475-0.102,0.703-0.102c0.146,0,0.287-0.016,0.424-0.039c0.002-0.031,0.002-0.051,0.002-0.051
				c0.021-0.889-0.225-1.629-0.711-2.137c-0.426-0.441-1.023-0.684-1.678-0.684c-1.57,0-2.799,1.154-2.758,2.805
				c0.041,1.801,0.904,2.795,2.422,2.795c0.547,0,0.988-0.273,1.25-0.547c0,0,0.193-0.236,0.055-0.375
				C74.689,76.404,74.533,76.348,74.375,76.479 M77.107,75.467l-0.016,0.637l-0.014,0.271c0,0.004-0.039,0.668-0.068,0.898
				c-0.004,0.023,0.01,0.045,0.029,0.061c0.082,0.059,0.385,0.012,0.645-0.133c0.336-0.184,0.516-0.477,0.51-0.826
				c-0.004-0.15-0.018-0.273-0.018-0.275l-0.016-0.633l-0.008-0.816v-0.557h0.008c-0.006-0.207-0.008-0.42-0.008-0.629
				c0.008-0.967-0.021-1.953,0.029-2.916c0.002-0.004,0.041-0.547,0.07-0.732c0.002-0.023-0.006-0.043-0.025-0.059
				c-0.078-0.055-0.443-0.01-0.734,0.148c-0.283,0.152-0.428,0.377-0.422,0.641c0.004,0.123,0.014,0.223,0.016,0.227
				c0.035,1.104,0.027,2.217,0.014,3.32h0.012v0.557L77.107,75.467"/>
			<path fill="#FFFFFF" d="M82.176,81.443c0.154,0.211,0.23,0.5,0.23,0.861c0,0.248-0.053,0.498-0.158,0.738
				c-0.107,0.24-0.26,0.457-0.459,0.648s-0.441,0.342-0.719,0.449s-0.596,0.16-0.945,0.16c-0.379,0-0.701-0.037-0.963-0.115
				c-0.258-0.074-0.479-0.162-0.654-0.264l-0.059-0.045l0.17-0.494c0.053-0.176,0.076-0.32,0.076-0.434v-0.092h0.291l0.023,0.051
				c0.037,0.072,0.098,0.158,0.178,0.25c0.078,0.092,0.176,0.182,0.289,0.262c0.111,0.08,0.238,0.15,0.381,0.205
				c0.137,0.051,0.291,0.078,0.451,0.078c0.145,0,0.283-0.021,0.416-0.066c0.129-0.047,0.246-0.111,0.348-0.195
				c0.102-0.08,0.18-0.188,0.238-0.312s0.09-0.273,0.09-0.441c0-0.227-0.062-0.396-0.186-0.516
				c-0.139-0.125-0.307-0.232-0.502-0.312c-0.207-0.084-0.436-0.16-0.684-0.225c-0.26-0.068-0.5-0.164-0.717-0.285
				c-0.223-0.125-0.41-0.291-0.557-0.498c-0.152-0.211-0.23-0.502-0.23-0.863c0-0.279,0.045-0.541,0.139-0.775
				s0.23-0.441,0.41-0.613c0.18-0.174,0.402-0.309,0.664-0.406s0.561-0.148,0.896-0.148c0.311,0,0.578,0.045,0.793,0.127
				c0.184,0.1,0.637,0.223,0.461,0.783l-0.107,0.402l-0.018,0.074h-0.281l-0.02-0.062c-0.057-0.178-0.176-0.342-0.35-0.484
				c-0.17-0.143-0.381-0.215-0.637-0.215c-0.107,0-0.225,0.021-0.336,0.059s-0.211,0.094-0.301,0.168
				c-0.084,0.072-0.16,0.17-0.221,0.291c-0.059,0.119-0.086,0.262-0.086,0.426c0,0.236,0.062,0.42,0.186,0.547
				c0.133,0.133,0.299,0.238,0.498,0.318c0.207,0.08,0.438,0.15,0.684,0.209c0.256,0.064,0.498,0.152,0.717,0.268
				C81.838,81.072,82.025,81.234,82.176,81.443"/>
			<path fill="#FFFFFF" d="M53.448,80.277c-0.201-0.104-0.423-0.188-0.657-0.244c-0.228-0.055-0.438-0.123-0.631-0.195
				c-0.183-0.07-0.337-0.17-0.458-0.291c-0.115-0.115-0.174-0.285-0.174-0.504c0-0.152,0.027-0.285,0.081-0.395
				c0.056-0.107,0.124-0.199,0.204-0.268c0.082-0.066,0.175-0.121,0.275-0.152c0.104-0.037,0.207-0.053,0.311-0.053
				c0.232,0,0.431,0.064,0.588,0.193c0.157,0.135,0.268,0.285,0.321,0.449l0.017,0.057h0.259l0.016-0.07l0.101-0.371
				c0.142-0.506-0.426-0.717-0.426-0.717c-0.198-0.08-0.443-0.117-0.73-0.117c-0.309,0-0.584,0.045-0.824,0.135
				c-0.243,0.09-0.447,0.215-0.613,0.373c-0.164,0.156-0.291,0.348-0.376,0.566c-0.086,0.217-0.131,0.457-0.131,0.715
				c0,0.332,0.072,0.602,0.213,0.795c0.138,0.189,0.31,0.344,0.514,0.461c0.2,0.111,0.422,0.197,0.661,0.258
				c0.227,0.062,0.439,0.133,0.628,0.207c0.185,0.076,0.339,0.174,0.464,0.289c0.113,0.111,0.17,0.266,0.17,0.479
				c0,0.148-0.028,0.289-0.082,0.406c-0.056,0.115-0.127,0.213-0.22,0.287c-0.092,0.078-0.201,0.137-0.32,0.178
				c-0.122,0.041-0.249,0.064-0.384,0.064c-0.147,0-0.287-0.027-0.414-0.074c-0.133-0.051-0.252-0.113-0.352-0.188
				c-0.104-0.076-0.193-0.156-0.268-0.242c-0.072-0.084-0.128-0.162-0.16-0.23l-0.023-0.045c-0.115-0.275-1.098,0.697,0.162,1.223
				c0.229,0.094,0.539,0.105,0.886,0.105c0.323,0,0.617-0.051,0.872-0.148s0.479-0.236,0.661-0.414
				c0.184-0.176,0.326-0.375,0.422-0.596c0.1-0.221,0.147-0.451,0.147-0.68c0-0.334-0.07-0.602-0.211-0.795
				C53.827,80.537,53.653,80.385,53.448,80.277"/>
			<path fill="#FFFFFF" d="M57.291,81.363c-0.201-0.107-0.422-0.188-0.657-0.246c-0.226-0.055-0.438-0.121-0.628-0.193
				c-0.185-0.07-0.338-0.17-0.458-0.293c-0.115-0.115-0.172-0.283-0.172-0.502c0-0.15,0.026-0.283,0.08-0.393
				c0.055-0.109,0.122-0.199,0.204-0.268c0.081-0.068,0.175-0.121,0.274-0.152c0.104-0.037,0.206-0.055,0.31-0.055
				c0.232,0,0.43,0.066,0.587,0.195c0.157,0.135,0.267,0.283,0.32,0.447l0.021,0.057h0.254l0.019-0.068l0.098-0.373
				c0.143-0.504-0.424-0.715-0.424-0.715c-0.197-0.08-0.442-0.115-0.729-0.115c-0.309,0-0.586,0.043-0.824,0.131
				c-0.241,0.092-0.447,0.219-0.609,0.375c-0.166,0.158-0.293,0.346-0.38,0.566c-0.087,0.215-0.13,0.453-0.13,0.715
				c0,0.33,0.072,0.596,0.213,0.791c0.137,0.189,0.311,0.344,0.513,0.459c0.2,0.111,0.421,0.199,0.66,0.262
				c0.228,0.059,0.438,0.127,0.628,0.205c0.183,0.074,0.338,0.17,0.462,0.287c0.113,0.111,0.171,0.266,0.171,0.479
				c0,0.152-0.027,0.287-0.083,0.406c-0.053,0.113-0.126,0.211-0.217,0.285c-0.095,0.076-0.203,0.137-0.321,0.178
				c-0.123,0.043-0.249,0.062-0.383,0.062c-0.148,0-0.287-0.023-0.414-0.072c-0.133-0.049-0.251-0.113-0.351-0.186
				c-0.103-0.076-0.193-0.158-0.267-0.242s-0.127-0.162-0.162-0.232l-0.023-0.043c-0.113-0.277-1.096,0.697,0.163,1.221
				c0.23,0.094,0.538,0.104,0.884,0.104c0.323,0,0.616-0.049,0.871-0.145c0.256-0.098,0.477-0.238,0.66-0.416
				c0.183-0.176,0.324-0.377,0.422-0.596c0.099-0.221,0.147-0.451,0.147-0.678c0-0.332-0.072-0.602-0.213-0.795
				C57.669,81.621,57.496,81.471,57.291,81.363"/>
			<path fill="#FFFFFF" d="M70.07,79.883c0.141-0.199,0.324-0.359,0.547-0.473c0.223-0.115,0.494-0.174,0.805-0.174
				c0.162,0,0.314,0.027,0.451,0.078c0.135,0.051,0.264,0.121,0.379,0.195c0.111,0.082,0.211,0.168,0.295,0.262
				c0.082,0.094,0.146,0.186,0.193,0.275l0.023,0.043h0.195l0.117-0.432l0.154-0.389l-0.041-0.041
				c-0.146-0.133-0.379-0.244-0.705-0.346c-0.322-0.1-0.691-0.15-1.094-0.15c-0.354,0-0.705,0.055-1.047,0.162
				c-0.34,0.109-0.646,0.279-0.91,0.508s-0.479,0.523-0.643,0.873c-0.162,0.354-0.242,0.773-0.242,1.258
				c0,0.504,0.078,0.938,0.238,1.289c0.156,0.354,0.371,0.643,0.631,0.863s0.555,0.383,0.881,0.475
				c0.32,0.092,0.645,0.141,0.961,0.141c0.352,0,0.701-0.066,1.033-0.191c0.826-0.318,0.99-0.877,0.922-1.043l0.01-0.053l-0.158-0.1
				l-0.043,0.051c-0.088,0.105-0.197,0.207-0.318,0.297c-0.123,0.088-0.254,0.172-0.396,0.238c-0.137,0.066-0.283,0.121-0.43,0.16
				c-0.143,0.037-0.287,0.057-0.426,0.057c-0.586,0-1.037-0.184-1.34-0.545c-0.305-0.367-0.457-0.922-0.457-1.652
				c0-0.328,0.033-0.635,0.1-0.916C69.822,80.326,69.928,80.086,70.07,79.883"/>
			<path fill="#FFFFFF" d="M63.042,80.158c-0.094-0.279-0.241-0.527-0.437-0.736c-0.193-0.207-0.439-0.375-0.727-0.502
				c-0.288-0.123-0.633-0.184-1.026-0.184c-0.83,0-1.475,0.264-1.909,0.791c-0.436,0.521-0.655,1.248-0.655,2.16
				c0,0.373,0.065,0.723,0.196,1.047c0.129,0.32,0.318,0.604,0.56,0.84c0.242,0.236,0.534,0.42,0.864,0.543
				c0.332,0.123,0.701,0.184,1.098,0.184c0.354,0,0.703-0.062,1.033-0.191c1.122-0.432,0.934-1.1,0.934-1.1l-0.156-0.092
				l-0.043,0.051c-0.09,0.105-0.199,0.203-0.32,0.295c-0.121,0.09-0.254,0.17-0.395,0.236c-0.139,0.068-0.284,0.123-0.432,0.16
				c-0.145,0.039-0.29,0.059-0.428,0.059c-0.291,0-0.553-0.051-0.772-0.15c-0.222-0.102-0.409-0.238-0.562-0.408
				c-0.153-0.168-0.27-0.375-0.35-0.607c-0.022-0.068-0.092-0.334-0.101-0.422c-0.067-0.635-0.007-1.041,0.116-1.588h0.002
				c0.007-0.031,0.01-0.061,0.019-0.088c0.06-0.219,0.147-0.416,0.264-0.6c0.114-0.174,0.263-0.324,0.438-0.443
				c0.171-0.115,0.386-0.174,0.638-0.174c0.267,0,0.485,0.057,0.642,0.174c0.164,0.117,0.295,0.266,0.388,0.443
				c0.093,0.184,0.157,0.381,0.188,0.596c0.027,0.189,0.038,0.367,0.042,0.539l-0.638,0.014l-0.732,0.01l-0.627-0.01
				c0,0-0.074-0.002-0.174-0.004c-0.08,0.01-0.281,0.062-0.281,0.283c0,0.215,0.18,0.254,0.26,0.26c0.097,0,0.17-0.004,0.17-0.004
				l0.623-0.008l1.16,0.008c0,0,0.32,0.006,0.635,0.01c0.649,0,0.633-0.498,0.633-0.498C63.18,80.738,63.135,80.436,63.042,80.158"
				/>
			<path fill="#FFFFFF" d="M45.25,78.934c-0.509,0.615-0.769,1.471-0.769,2.543c0,0.438,0.079,0.852,0.229,1.229
				c0.153,0.375,0.375,0.709,0.658,0.986c0.284,0.277,0.624,0.49,1.016,0.637c0.387,0.143,0.82,0.219,1.289,0.219
				c0.417,0,0.825-0.076,1.215-0.225c0.979-0.379,1.095-0.906,1.095-1.139c0-0.059-0.005-0.092-0.009-0.105
				c-0.02-0.014-0.103-0.064-0.141-0.086c-0.014,0.018-0.03,0.033-0.03,0.033c-0.108,0.127-0.237,0.248-0.384,0.357
				c-0.145,0.109-0.307,0.205-0.479,0.287c-0.166,0.082-0.342,0.146-0.521,0.191c-0.177,0.047-0.352,0.072-0.519,0.072
				c-0.353,0-0.667-0.062-0.932-0.184c-0.27-0.121-0.498-0.287-0.686-0.492c-0.183-0.205-0.325-0.453-0.422-0.738
				c-0.027-0.082-0.109-0.4-0.121-0.51c-0.077-0.734-0.016-1.217,0.135-1.9l0.014-0.043L45.907,80
				c0.072-0.26,0.18-0.504,0.318-0.721c0.139-0.213,0.316-0.396,0.532-0.541c0.214-0.141,0.475-0.215,0.782-0.215
				c0.322,0,0.588,0.074,0.787,0.215c0.199,0.143,0.359,0.328,0.472,0.545c0.114,0.223,0.189,0.463,0.228,0.717
				c0.03,0.201,0.045,0.404,0.051,0.646c0,0.021-0.017,0.041-0.041,0.043l-0.757,0.02l-0.871,0.01l-0.747-0.01l-0.206-0.006
				c-0.105,0.016-0.291,0.072-0.291,0.293c0,0.215,0.168,0.264,0.271,0.271l0.196-0.004l0.74-0.012l1.382,0.012l0.754,0.012
				c0.25,0,0.442-0.068,0.563-0.195c0.153-0.156,0.15-0.357,0.15-0.357c0-0.369-0.057-0.721-0.164-1.051
				c-0.108-0.326-0.28-0.613-0.51-0.859c-0.229-0.242-0.517-0.441-0.851-0.584c-0.338-0.148-0.741-0.221-1.203-0.221
				C46.517,78.008,45.762,78.318,45.25,78.934"/>
			<path fill="#FFFFFF" d="M78.074,80.158c-0.094-0.279-0.242-0.527-0.438-0.736c-0.193-0.207-0.438-0.375-0.727-0.502
				c-0.287-0.123-0.631-0.184-1.025-0.184c-0.832,0-1.473,0.264-1.912,0.791c-0.434,0.521-0.654,1.248-0.654,2.16
				c0,0.373,0.068,0.723,0.197,1.047c0.131,0.32,0.318,0.604,0.561,0.84s0.533,0.42,0.865,0.543c0.33,0.123,0.699,0.184,1.098,0.184
				c0.354,0,0.701-0.062,1.035-0.191c1.119-0.432,0.93-1.1,0.93-1.1l-0.156-0.092l-0.041,0.051c-0.092,0.105-0.199,0.203-0.32,0.295
				c-0.123,0.09-0.254,0.17-0.396,0.236c-0.139,0.068-0.283,0.123-0.432,0.16c-0.145,0.039-0.289,0.059-0.426,0.059
				c-0.293,0-0.555-0.051-0.773-0.15c-0.221-0.102-0.41-0.238-0.562-0.408c-0.152-0.168-0.27-0.375-0.35-0.607
				c-0.021-0.068-0.09-0.334-0.1-0.422c-0.066-0.635-0.008-1.041,0.115-1.588l0,0c0.008-0.031,0.014-0.061,0.023-0.088
				c0.059-0.219,0.146-0.416,0.26-0.6c0.115-0.174,0.262-0.324,0.439-0.443c0.17-0.115,0.387-0.174,0.639-0.174
				c0.268,0,0.482,0.057,0.643,0.174c0.164,0.117,0.293,0.266,0.385,0.443c0.094,0.184,0.16,0.381,0.189,0.596
				c0.029,0.189,0.039,0.367,0.043,0.539l-0.639,0.014l-0.73,0.01l-0.629-0.01c0,0-0.076-0.002-0.172-0.004
				c-0.082,0.01-0.281,0.062-0.281,0.283c0,0.215,0.18,0.254,0.258,0.26c0.096,0,0.17-0.004,0.17-0.004l0.625-0.008l1.16,0.008
				c0,0,0.318,0.006,0.633,0.01c0.648,0,0.635-0.498,0.635-0.498C78.213,80.738,78.166,80.436,78.074,80.158"/>
			<path fill="#FFFFFF" d="M68.035,82.48h-0.986c0,0.348,0.002,0.826,0.002,0.826c0,1.107,1.064,0.9,1.064,0.9
				c-0.035-0.309-0.061-0.648-0.07-1.002L68.035,82.48"/>
			<path fill="#FFFFFF" d="M64.594,83.078l-0.02-1.027v-0.93c0-0.055,0.008-0.104,0.01-0.156l-0.002-1.184
				c0-1.109-1.055-0.904-1.055-0.904c0.034,0.311,0.058,0.648,0.069,1.004l0.017,1.031v1.139l-0.017,1.027
				c-0.012,0.357-0.035,0.686-0.069,0.973l-0.012,0.094l0.579-0.033l0.576,0.033l-0.008-0.094
				C64.625,83.764,64.602,83.438,64.594,83.078"/>
			<path fill="#FFFFFF" d="M66.768,79.795c0.199,0.268,0.301,0.67,0.301,1.195v0.666l-0.02,0.863h0.986l0.014-0.889l0.021-0.973
				c0-0.385-0.055-0.709-0.162-0.965c-0.111-0.252-0.254-0.459-0.43-0.607c-0.174-0.148-0.373-0.256-0.59-0.316
				c-0.209-0.061-0.422-0.092-0.633-0.092c-0.404,0-0.758,0.092-1.053,0.27c-0.09,0.055-0.174,0.119-0.254,0.189
				c-0.279,0.246-0.16,0.818,0.045,0.615c0.225-0.227,0.545-0.344,0.969-0.344C66.311,79.408,66.572,79.535,66.768,79.795"/>
		</g>
		<g>
			<g>
				<circle fill="none" stroke="#6CBF5C" stroke-miterlimit="10" cx="63.259" cy="56.383" r="7.888"/>
				<circle fill="none" stroke="#FFFFFF" stroke-miterlimit="10" cx="63.3" cy="56.342" r="9.306"/>
			</g>
			<g>
				<g>
					<path fill-rule="evenodd" clip-rule="evenodd" fill="#FFFFFF" d="M63.81,66.094c0.03-0.02,2.216,0.006,4.57-1.33
						c1.165-0.65,2.321-1.624,3.195-2.795c0.885-1.163,1.481-2.501,1.775-3.716c0.229-0.648,0.401-1.321,0.515-2.011
						c0.033-0.172,0.053-0.345,0.075-0.52c0.009-0.103,0.025-0.139,0.029-0.298l0.017-0.435c0.007-0.582-0.029-1.167-0.112-1.751
						c-0.023-0.282-0.073-0.6-0.104-0.771c-0.015-0.098-0.034-0.194-0.059-0.291c0.039,0.042,0.08,0.082,0.124,0.119
						c0.101,0.074,0.214,0.144,0.364,0.166c0.026-0.011,0.066,0.002,0.096,0c0.062-0.005,0.132-0.035,0.181-0.061
						c0.032-0.017,0.051-0.042,0.076-0.059c0.009-0.006,0.017,0.001,0.022-0.004c0.03-0.025,0.074-0.088,0.098-0.124l0.027-0.054
						c0.001-0.002,0.009,0.002,0.011-0.001c0.043-0.085,0.064-0.195,0.069-0.325c0-0.008-0.01-0.006-0.007-0.017
						c0-0.038-0.001-0.077-0.007-0.112c-0.027-0.192-0.144-0.397-0.27-0.494c-0.113-0.091-0.286-0.117-0.396-0.063
						c-0.093,0.046-0.166,0.173-0.186,0.336c-0.015,0.145,0.014,0.297,0.102,0.369c-0.004-0.051,0.003-0.093,0.024-0.115
						c0.026-0.01,0.052-0.021,0.093-0.006c0.052,0.036,0.1,0.104,0.081,0.195c-0.026,0.128-0.157,0.183-0.264,0.099
						c-0.021-0.027-0.053-0.047-0.069-0.065c-0.039-0.04-0.068-0.076-0.1-0.117c-0.079-0.11-0.186-0.241-0.245-0.347l-0.03-0.056
						l-0.338-0.999l0.005,0.008c0.053,0.081,0.1,0.136,0.16,0.201l0.062,0.077c0.007,0.008,0.021,0.008,0.03,0.016
						c0.028,0.026,0.053,0.057,0.087,0.082c0.107,0.078,0.265,0.143,0.405,0.097c0.086-0.062,0.154-0.148,0.161-0.32l-0.003-0.054
						c-0.036-0.239-0.24-0.381-0.418-0.317c-0.009,0.018-0.021,0.033-0.04,0.041c-0.041,0.072-0.02,0.248,0.053,0.292
						c-0.012-0.036-0.017-0.052,0.001-0.076c0.057-0.032,0.119,0.049,0.088,0.121c-0.055,0.047-0.116,0.04-0.195,0.008
						c-0.032-0.013-0.059-0.036-0.091-0.057c-0.041-0.027-0.084-0.049-0.116-0.081c-0.03-0.028-0.053-0.065-0.079-0.096l-0.02-0.02
						l-0.054-0.067l-0.063-0.107l-0.044-0.051l-0.023-0.039c-0.076-0.322-0.121-0.611-0.052-0.933
						c0.119-0.64,0.865-0.278,0.595,0.06c-0.262-0.138-0.745-0.337-0.263,0.464c0.314,0.396,0.707,0.245,0.886-0.15
						c0.182-0.389,0.125-1.057-0.443-1.486c-0.963-0.691-1.276,0.3-1.192,1.038c0.131,1.127,0.54,2.071,0.879,3.127
						c-0.774-0.999-1.279-2.396-1.278-3.645c0.023-0.63,0.13-1.434,0.686-1.732c0.581-0.293,0.725,0.762,0.279,0.247
						c-0.196,0.194,0.101,0.521,0.454,0.685c0.353,0.159,0.787,0.17,0.852-0.442c0.046-0.549-0.347-1.006-0.83-1.243
						c-0.481-0.243-1.04-0.265-1.344-0.11c-0.984,0.521-0.823,1.532-0.521,2.53c0.323,1.007,0.784,2.102,1.053,2.817
						c-0.803-1.031-1.584-2.52-2.251-3.691c-0.247-0.464-0.518-1.059-0.547-1.577c-0.056-0.804,0.93-0.63,0.866-0.41
						c-0.059,0.162-0.703-0.229-0.412,0.354c0.234,0.51,0.959,0.318,1.254,0.163c0.679-0.366,0.437-1.025-0.185-1.447
						c-0.619-0.421-1.557-0.514-2.017,0.02c-1.005,1.206-0.225,2.258,0.625,3.321c0.895,1.043,1.93,2.295,2.328,3.055l-0.076-0.041
						c-0.382-0.436-0.857-0.785-1.363-1.008c-0.487-0.529-0.768-1.159-1.112-1.869c-0.343-0.703-0.751-1.491-1.428-2.149
						c-0.792-0.764-2.075-0.755-2.902-1.374c-0.456-0.339-0.797-0.632-0.95-1.174c-0.142-0.927,1.198-0.864,0.871-0.432
						c-0.23-0.007-0.126-0.101-0.28-0.123c-0.556,0.299,0.423,0.941,0.961,0.745c0.987-0.339,0.631-1.326-0.343-1.739
						c-1.354-0.219-2.07,0.389-2.284,1.097c-0.223,0.72-0.021,1.601,0.275,2.234c0.81,1.688,1.679,2.36,2.764,2.845
						c1.064,0.478,2.43,0.86,3.554,1.636c-0.419-0.103-0.842-0.021-1.252,0.083c-0.724,0.174-1.404,0.829-1.288,1.486
						c-0.253,0.331-0.467,0.667-0.467,0.95c-0.001,0.329,0.323,0.374,0.792,0.151c0.231-0.155,0.358-0.292,0.386-0.504
						c0.014-0.139-0.208-0.407-0.335-0.082c0.188,0-0.01,0.143-0.13,0.17c-0.101-0.137,0.022-0.3,0.251-0.493l0.006-0.005
						c0.559-0.468,1.063-0.785,1.528-0.933v0c-0.025,0.046-0.03,0.086-0.049,0.126c-0.007,0.013-0.02,0.015-0.023,0.026
						c-0.018,0.051-0.03,0.146-0.036,0.197l-0.001,0.07c0,0.003-0.012,0.007-0.012,0.012c-0.004,0.112,0.024,0.224,0.078,0.34
						c0.004,0.006,0.014-0.003,0.016,0.008c0.016,0.033,0.033,0.066,0.055,0.093c0.116,0.141,0.332,0.237,0.521,0.246
						c0.174,0.006,0.411-0.083,0.534-0.214c0.104-0.111,0.15-0.304,0.099-0.5c-0.051-0.171-0.164-0.321-0.318-0.313
						c0.035,0.048,0.05,0.098,0.034,0.14c-0.026,0.032-0.053,0.064-0.109,0.083c-0.081,0.006-0.176-0.019-0.205-0.124
						c-0.031-0.111,0.03-0.239,0.138-0.3c0.781,0.021,1.43,0.563,1.832,1.356l-0.008-0.008c-0.095-0.084-0.174-0.137-0.273-0.194
						c-0.036-0.021-0.069-0.055-0.103-0.071c-0.013-0.006-0.032,0-0.047-0.005c-0.047-0.019-0.092-0.042-0.146-0.054
						c-0.175-0.038-0.406-0.018-0.578,0.121c-0.099,0.125-0.157,0.257-0.137,0.451l0.015,0.058c0.097,0.236,0.372,0.318,0.62,0.17
						c0.012-0.025,0.027-0.049,0.053-0.066c0.052-0.105-0.013-0.312-0.121-0.332c0.022,0.038,0.032,0.055,0.013,0.092
						c-0.073,0.064-0.171-0.003-0.144-0.102c0.063-0.083,0.151-0.11,0.266-0.109c0.047,0,0.088,0.018,0.137,0.029
						c0.063,0.015,0.128,0.024,0.182,0.05c0.048,0.023,0.088,0.062,0.129,0.092l0.031,0.018c0.03,0.024,0.06,0.041,0.087,0.068
						l0.105,0.122l0.067,0.056l0.035,0.042l0.125,0.407c0.044,0.167,0.109,0.385,0.146,0.573c0.262,0.722,0.426,1.491,0.485,2.275
						c0.182,1.535-0.126,3.155-0.836,4.577c-0.569,1.029-1.364,2.001-2.277,2.768c-0.908,0.774-1.932,1.331-2.868,1.683
						c-1.893,0.705-3.365,0.601-3.399,0.619c-0.159,0.004-0.288,0.216-0.29,0.474S63.633,66.099,63.81,66.094z"/>
				</g>
			</g>
		</g>
		<g>
			<path fill="#FFFFFF" stroke="#FFFFFF" stroke-width="0.25" stroke-miterlimit="10" d="M59.841,95.609v-3.082h0.147v1.512h1.838
				v-1.512h0.145v3.082h-0.145v-1.445h-1.838v1.445H59.841z"/>
			<path fill="#FFFFFF" stroke="#FFFFFF" stroke-width="0.25" stroke-miterlimit="10" d="M62.483,94.889
				c0-0.105,0.02-0.205,0.057-0.295c0.037-0.092,0.09-0.172,0.156-0.24s0.144-0.123,0.23-0.162c0.088-0.039,0.182-0.059,0.28-0.059
				c0.106,0,0.203,0.018,0.291,0.057s0.162,0.092,0.222,0.162c0.062,0.068,0.108,0.152,0.144,0.248
				c0.034,0.098,0.054,0.203,0.056,0.318h-1.296c0.003,0.098,0.021,0.184,0.055,0.258c0.033,0.076,0.076,0.139,0.132,0.189
				c0.054,0.051,0.118,0.092,0.191,0.119c0.074,0.029,0.154,0.043,0.24,0.043c0.129,0,0.232-0.02,0.311-0.062
				s0.146-0.098,0.204-0.168l0.091,0.082c-0.066,0.084-0.149,0.15-0.249,0.195c-0.1,0.047-0.219,0.07-0.356,0.07
				c-0.112,0-0.215-0.02-0.308-0.059c-0.092-0.039-0.171-0.092-0.237-0.16c-0.066-0.066-0.119-0.148-0.156-0.238
				C62.502,95.094,62.483,94.994,62.483,94.889z M62.627,94.801h1.149c-0.017-0.156-0.071-0.285-0.164-0.393
				c-0.092-0.105-0.228-0.158-0.406-0.158c-0.161,0-0.293,0.051-0.396,0.152C62.706,94.506,62.645,94.637,62.627,94.801z"/>
			<path fill="#FFFFFF" stroke="#FFFFFF" stroke-width="0.25" stroke-miterlimit="10" d="M64.365,95.609v-3.217H64.5v3.217H64.365z"
				/>
			<path fill="#FFFFFF" stroke="#FFFFFF" stroke-width="0.25" stroke-miterlimit="10" d="M65.08,95.609v-3.217h0.135v3.217H65.08z"
				/>
			<path fill="#FFFFFF" stroke="#FFFFFF" stroke-width="0.25" stroke-miterlimit="10" d="M65.66,94.887
				c0-0.105,0.02-0.205,0.059-0.295c0.039-0.092,0.092-0.17,0.158-0.238s0.145-0.123,0.234-0.162
				c0.092-0.039,0.189-0.059,0.291-0.059c0.104,0,0.201,0.02,0.291,0.059s0.168,0.094,0.234,0.162s0.119,0.146,0.158,0.24
				c0.039,0.092,0.059,0.189,0.059,0.293c0,0.107-0.02,0.207-0.059,0.299s-0.092,0.172-0.158,0.24s-0.145,0.121-0.236,0.16
				c-0.09,0.039-0.186,0.059-0.289,0.059c-0.102,0-0.199-0.02-0.291-0.059c-0.09-0.039-0.168-0.092-0.234-0.16
				s-0.119-0.148-0.158-0.24S65.66,94.994,65.66,94.887z M65.799,94.887c0,0.092,0.016,0.176,0.045,0.254
				c0.031,0.08,0.072,0.148,0.127,0.203c0.053,0.057,0.115,0.102,0.189,0.135c0.072,0.033,0.154,0.049,0.242,0.049
				s0.168-0.016,0.242-0.049c0.072-0.033,0.137-0.078,0.189-0.135c0.055-0.055,0.096-0.123,0.125-0.201
				c0.031-0.078,0.047-0.164,0.047-0.256c0-0.09-0.016-0.174-0.047-0.254c-0.029-0.078-0.07-0.145-0.125-0.201
				c-0.053-0.055-0.117-0.1-0.189-0.133c-0.074-0.033-0.154-0.049-0.242-0.049c-0.086,0-0.166,0.016-0.242,0.049
				c-0.074,0.033-0.137,0.078-0.189,0.133c-0.055,0.057-0.096,0.123-0.127,0.201C65.814,94.713,65.799,94.797,65.799,94.887z"/>
			<path fill="#FFFFFF" stroke="#FFFFFF" stroke-width="0.25" stroke-miterlimit="10" d="M55.087,101.047v-3.082h0.146v1.51h1.838
				v-1.51h0.146v3.082h-0.146v-1.445h-1.838v1.445H55.087z"/>
			<path fill="#FFFFFF" stroke="#FFFFFF" stroke-width="0.25" stroke-miterlimit="10" d="M57.646,99.607h0.148l0.263,0.588
				c0.034,0.074,0.067,0.146,0.099,0.217c0.032,0.068,0.06,0.133,0.083,0.189c0.029,0.066,0.059,0.129,0.086,0.188l0.508-1.182
				h0.141l-1.028,2.398h-0.142l0.454-1.055L57.646,99.607z"/>
			<path fill="#FFFFFF" stroke="#FFFFFF" stroke-width="0.25" stroke-miterlimit="10" d="M59.168,100.326
				c0-0.105,0.018-0.205,0.054-0.297s0.088-0.172,0.154-0.238c0.066-0.068,0.145-0.123,0.235-0.162
				c0.091-0.041,0.188-0.061,0.293-0.061c0.266,0,0.463,0.117,0.591,0.352v-2.088h0.135v3.215h-0.135v-0.312
				c-0.127,0.234-0.324,0.35-0.591,0.348c-0.106,0-0.204-0.02-0.294-0.059s-0.168-0.092-0.234-0.16s-0.118-0.146-0.154-0.24
				C59.186,100.531,59.168,100.434,59.168,100.326z M59.307,100.326c0,0.092,0.015,0.174,0.043,0.254
				c0.029,0.078,0.07,0.146,0.123,0.201c0.053,0.057,0.117,0.1,0.19,0.131c0.074,0.033,0.154,0.049,0.241,0.049
				s0.168-0.016,0.242-0.049c0.074-0.031,0.139-0.074,0.191-0.131c0.054-0.055,0.094-0.123,0.123-0.201
				c0.028-0.078,0.043-0.162,0.043-0.254c0-0.09-0.015-0.174-0.043-0.252c-0.029-0.078-0.069-0.146-0.123-0.201
				c-0.053-0.057-0.116-0.1-0.189-0.131c-0.074-0.031-0.155-0.047-0.244-0.047c-0.087,0-0.167,0.016-0.241,0.047
				c-0.073,0.031-0.138,0.074-0.19,0.131c-0.053,0.055-0.094,0.123-0.123,0.201C59.322,100.152,59.307,100.236,59.307,100.326z"/>
			<path fill="#FFFFFF" stroke="#FFFFFF" stroke-width="0.25" stroke-miterlimit="10" d="M61.188,101.047v-1.439h0.135v0.25
				c0.046-0.088,0.105-0.156,0.18-0.209s0.157-0.08,0.252-0.08c0.053,0,0.093,0.004,0.123,0.01c0.029,0.008,0.062,0.021,0.098,0.041
				l-0.049,0.111c-0.039-0.023-0.1-0.035-0.181-0.035c-0.058,0-0.112,0.014-0.165,0.039c-0.051,0.025-0.096,0.061-0.133,0.107
				s-0.067,0.102-0.091,0.166c-0.022,0.062-0.034,0.131-0.034,0.203v0.836H61.188z"/>
			<path fill="#FFFFFF" stroke="#FFFFFF" stroke-width="0.25" stroke-miterlimit="10" d="M62.148,100.326
				c0-0.105,0.019-0.205,0.055-0.297s0.086-0.172,0.149-0.238c0.062-0.068,0.139-0.123,0.229-0.162
				c0.09-0.041,0.186-0.061,0.291-0.061c0.253,0,0.444,0.117,0.57,0.352v-0.156h0.136v1.322h-0.136v-0.352
				c-0.126,0.234-0.317,0.35-0.57,0.348c-0.106,0-0.203-0.02-0.292-0.059s-0.165-0.092-0.228-0.16
				c-0.063-0.068-0.113-0.146-0.149-0.24C62.167,100.531,62.148,100.434,62.148,100.326z M62.288,100.326
				c0,0.092,0.014,0.174,0.043,0.254c0.029,0.078,0.068,0.146,0.121,0.201c0.051,0.057,0.113,0.1,0.184,0.131
				c0.07,0.033,0.149,0.049,0.236,0.049c0.084,0,0.163-0.016,0.235-0.049c0.073-0.031,0.135-0.074,0.185-0.131
				c0.051-0.055,0.09-0.123,0.117-0.201c0.029-0.078,0.042-0.162,0.042-0.254c0-0.09-0.013-0.174-0.042-0.252
				c-0.027-0.078-0.066-0.146-0.117-0.201c-0.05-0.057-0.111-0.1-0.184-0.131s-0.15-0.047-0.236-0.047
				c-0.087,0-0.166,0.016-0.236,0.047s-0.133,0.074-0.184,0.131c-0.053,0.055-0.092,0.123-0.121,0.201
				S62.288,100.236,62.288,100.326z"/>
			<path fill="#FFFFFF" stroke="#FFFFFF" stroke-width="0.25" stroke-miterlimit="10" d="M64,99.725v-0.117h0.203v-0.865h0.135
				v0.865h0.377l-0.068,0.117h-0.309v1.01c0,0.07,0.014,0.125,0.041,0.164c0.027,0.043,0.074,0.062,0.141,0.062
				c0.037,0,0.07-0.008,0.102-0.023c0.033-0.014,0.061-0.031,0.084-0.051l0.068,0.102c-0.068,0.062-0.154,0.094-0.254,0.094
				s-0.178-0.029-0.232-0.09c-0.056-0.061-0.084-0.141-0.084-0.24v-1.027H64z"/>
			<path fill="#FFFFFF" stroke="#FFFFFF" stroke-width="0.25" stroke-miterlimit="10" d="M65.033,100.326
				c0-0.105,0.018-0.205,0.053-0.297c0.037-0.092,0.086-0.172,0.15-0.238c0.064-0.068,0.139-0.123,0.229-0.162
				c0.09-0.041,0.186-0.061,0.291-0.061c0.254,0,0.443,0.117,0.57,0.352v-0.156h0.137v1.322h-0.137v-0.352
				c-0.127,0.234-0.316,0.35-0.57,0.348c-0.105,0-0.203-0.02-0.291-0.059c-0.09-0.039-0.164-0.092-0.229-0.16
				s-0.113-0.146-0.15-0.24C65.051,100.531,65.033,100.434,65.033,100.326z M65.172,100.326c0,0.092,0.016,0.174,0.043,0.254
				c0.029,0.078,0.07,0.146,0.121,0.201c0.051,0.057,0.113,0.1,0.184,0.131c0.07,0.033,0.15,0.049,0.236,0.049
				c0.084,0,0.162-0.016,0.236-0.049c0.072-0.031,0.135-0.074,0.186-0.131c0.049-0.055,0.088-0.123,0.115-0.201
				c0.029-0.078,0.043-0.162,0.043-0.254c0-0.09-0.014-0.174-0.043-0.252c-0.027-0.078-0.066-0.146-0.115-0.201
				c-0.051-0.057-0.113-0.1-0.186-0.131s-0.15-0.047-0.236-0.047s-0.166,0.016-0.236,0.047s-0.133,0.074-0.184,0.131
				c-0.051,0.055-0.092,0.123-0.121,0.201C65.188,100.152,65.172,100.236,65.172,100.326z"/>
			<path fill="#FFFFFF" stroke="#FFFFFF" stroke-width="0.25" stroke-miterlimit="10" d="M66.885,99.725v-0.117h0.203v-0.865h0.135
				v0.865H67.6l-0.068,0.117h-0.309v1.01c0,0.07,0.014,0.125,0.041,0.164c0.027,0.043,0.074,0.062,0.141,0.062
				c0.037,0,0.07-0.008,0.104-0.023c0.031-0.014,0.059-0.031,0.082-0.051l0.068,0.102c-0.068,0.062-0.154,0.094-0.254,0.094
				s-0.178-0.029-0.234-0.09c-0.055-0.061-0.082-0.141-0.082-0.24v-1.027H66.885z"/>
			<path fill="#FFFFFF" stroke="#FFFFFF" stroke-width="0.25" stroke-miterlimit="10" d="M68.029,98.85
				c0-0.033,0.012-0.061,0.035-0.082c0.021-0.02,0.049-0.031,0.08-0.031c0.029,0,0.055,0.012,0.078,0.031
				c0.021,0.021,0.033,0.049,0.033,0.082s-0.012,0.062-0.033,0.082c-0.023,0.02-0.049,0.031-0.078,0.031s-0.057-0.012-0.08-0.031
				S68.029,98.883,68.029,98.85z M68.076,101.047v-1.439h0.135v1.439H68.076z"/>
			<path fill="#FFFFFF" stroke="#FFFFFF" stroke-width="0.25" stroke-miterlimit="10" d="M68.654,100.324
				c0-0.105,0.02-0.205,0.059-0.295c0.039-0.092,0.092-0.172,0.158-0.24s0.145-0.121,0.234-0.16
				c0.092-0.041,0.189-0.061,0.293-0.061s0.199,0.02,0.289,0.061c0.09,0.039,0.168,0.092,0.234,0.16s0.119,0.148,0.158,0.24
				s0.059,0.191,0.059,0.295c0,0.105-0.02,0.207-0.059,0.299s-0.092,0.172-0.158,0.24c-0.066,0.066-0.145,0.121-0.236,0.16
				c-0.09,0.039-0.186,0.059-0.287,0.059c-0.104,0-0.201-0.02-0.293-0.059c-0.09-0.039-0.168-0.094-0.234-0.16
				c-0.066-0.068-0.119-0.148-0.158-0.24S68.654,100.43,68.654,100.324z M68.793,100.324c0,0.09,0.016,0.176,0.047,0.254
				c0.029,0.078,0.07,0.146,0.125,0.203c0.053,0.055,0.115,0.102,0.189,0.133c0.074,0.035,0.154,0.051,0.244,0.051
				c0.086,0,0.166-0.016,0.24-0.051c0.074-0.031,0.137-0.078,0.189-0.133c0.055-0.057,0.096-0.123,0.125-0.203
				C69.984,100.5,70,100.416,70,100.324c0-0.09-0.016-0.176-0.047-0.254c-0.029-0.078-0.07-0.146-0.125-0.201
				c-0.053-0.057-0.115-0.1-0.189-0.133s-0.154-0.051-0.24-0.051c-0.088,0-0.17,0.018-0.244,0.051
				c-0.072,0.033-0.137,0.076-0.189,0.133c-0.055,0.055-0.096,0.123-0.125,0.201C68.809,100.148,68.793,100.234,68.793,100.324z"/>
			<path fill="#FFFFFF" stroke="#FFFFFF" stroke-width="0.25" stroke-miterlimit="10" d="M70.57,101.047v-1.256h0.135v0.09
				c0.049-0.098,0.121-0.176,0.217-0.23c0.094-0.055,0.201-0.082,0.318-0.082c0.156,0,0.289,0.047,0.398,0.141
				s0.164,0.24,0.164,0.439v0.898h-0.135v-0.873c0-0.168-0.039-0.291-0.113-0.367c-0.076-0.074-0.184-0.111-0.318-0.111
				c-0.154,0-0.281,0.047-0.381,0.143c-0.1,0.094-0.15,0.225-0.15,0.389v0.82H70.57z"/>
		</g>
	</g>
</g>
</svg>
