<?xml version="1.0" encoding="utf-8"?>
<!-- Generator: Adobe Illustrator 15.1.0, SVG Export Plug-In . SVG Version: 6.00 Build 0)  -->
<!DOCTYPE svg PUBLIC "-//W3C//DTD SVG 1.1//EN" "http://www.w3.org/Graphics/SVG/1.1/DTD/svg11.dtd">
<svg version="1.1" id="Capa_1" xmlns="http://www.w3.org/2000/svg" xmlns:xlink="http://www.w3.org/1999/xlink" x="0px" y="0px"
	 width="126.75px" height="130.068px" viewBox="0 0 126.75 130.068" enable-background="new 0 0 126.75 130.068"
	 xml:space="preserve">
<g>
	<g>
		<g>
			<g>
				<defs>
					<rect id="SVGID_1_" x="12.106" y="10.325" width="102.982" height="109.418"/>
				</defs>
				<clipPath id="SVGID_2_">
					<use xlink:href="#SVGID_1_"  overflow="visible"/>
				</clipPath>
			</g>
			<path fill="none" stroke="#505978" stroke-width="2" stroke-linecap="round" stroke-linejoin="round" stroke-miterlimit="10" d="
				M125.602,38.194l0.148-4.878c-2.133,0-3.924-1.382-4.578-3.293v-3.136c0.654-1.907,2.445-3.289,4.578-3.289l-0.051-4.152
				c-2.07,0-3.826-1.299-4.527-3.123v-3.468c0.701-1.825,2.457-3.126,4.527-3.126l0.049-4.238h-4.576V0.563l-5.055,0.048
				c0,2.685-2.105,4.86-4.701,4.86c-2.594,0-4.695-2.176-4.695-4.86l-4.016-0.049c0,2.685-2.1,4.862-4.697,4.862
				c-2.596,0-4.697-2.178-4.697-4.862l-4.719-0.196c0,2.682-2.105,4.859-4.699,4.859c-2.596,0-4.701-2.178-4.701-4.859l-4.01,0.098
				c0,2.684-2.102,4.859-4.697,4.859c-2.6,0-4.699-2.176-4.699-4.859l-5.333,0.048c0,2.687-2.104,4.861-4.7,4.861
				c-2.595,0-4.699-2.175-4.699-4.861l-4.011-0.095c0,2.685-2.103,4.857-4.698,4.857c-2.594,0-4.7-2.173-4.7-4.857l-4.717-0.149
				c0,2.685-2.103,4.86-4.701,4.86c-2.591,0-4.694-2.176-4.694-4.86l-4.015,0.051c0,2.683-2.103,4.86-4.698,4.86
				s-4.699-2.178-4.699-4.86L6.021,0.27v5.222H1.446l0.049,4.238c2.07,0,3.826,1.301,4.526,3.122v3.474
				c-0.7,1.822-2.456,3.121-4.526,3.121l-0.051,4.152c2.133,0,3.922,1.382,4.577,3.289v3.136c-0.655,1.911-2.444,3.293-4.577,3.293
				l0.148,4.878c1.978,0,3.67,1.184,4.429,2.88v3.962c-0.759,1.693-2.451,2.878-4.429,2.878l0.096,4.148
				c1.904,0,3.535,1.103,4.333,2.696v4.324c-0.798,1.594-2.429,2.699-4.333,2.699L1.64,67.297c1.94,0,3.603,1.143,4.381,2.789v4.138
				c-0.778,1.646-2.44,2.791-4.381,2.791l-0.099,4.146c2.014,0,3.744,1.229,4.479,2.978v3.769c-0.735,1.747-2.466,2.977-4.479,2.977
				l0.197,4.877c1.866,0,3.467,1.062,4.282,2.605v4.508c-0.815,1.543-2.416,2.605-4.282,2.605l0.049,4.15
				c1.829,0,3.404,1.021,4.233,2.514v4.687c-0.829,1.494-2.404,2.518-4.233,2.518l-0.047,5.229h4.28v5.223l4.099-0.049
				c0-2.685,2.104-4.861,4.699-4.861s4.698,2.177,4.698,4.861l4.015,0.051c0-2.686,2.104-4.86,4.694-4.86
				c2.599,0,4.701,2.175,4.701,4.86l4.717-0.149c0-2.686,2.106-4.859,4.7-4.859c2.596,0,4.698,2.174,4.698,4.859l4.011-0.096
				c0-2.686,2.104-4.862,4.699-4.862c2.597,0,4.7,2.177,4.7,4.862l5.333,0.049c0-2.685,2.1-4.859,4.699-4.859
				c2.596,0,4.697,2.175,4.697,4.859l4.01,0.098c0-2.682,2.105-4.859,4.701-4.859c2.594,0,4.699,2.178,4.699,4.859l4.719-0.198
				c0-2.685,2.102-4.861,4.697-4.861c2.598,0,4.697,2.177,4.697,4.861l4.016-0.048c0-2.684,2.102-4.861,4.695-4.861
				c2.596,0,4.701,2.178,4.701,4.861l5.055,0.048v-4.928h4.281l-0.047-5.229c-1.83,0-3.404-1.023-4.234-2.52v-4.683
				c0.83-1.494,2.404-2.516,4.234-2.516l0.049-4.15c-1.865,0-3.469-1.063-4.283-2.605v-4.508c0.814-1.541,2.418-2.605,4.283-2.605
				l0.197-4.877c-2.016,0-3.744-1.229-4.48-2.979V84.14c0.736-1.75,2.465-2.979,4.48-2.979l-0.1-4.146
				c-1.939,0-3.602-1.146-4.381-2.791v-4.138c0.779-1.646,2.441-2.789,4.381-2.789l-0.047-5.515c-1.904,0-3.537-1.105-4.334-2.7
				v-4.321c0.797-1.594,2.43-2.698,4.334-2.698l0.096-4.148c-1.979,0-3.672-1.185-4.43-2.88v-3.96
				C121.93,39.38,123.623,38.194,125.602,38.194z"/>
			
				<rect x="12.106" y="10.325" fill="#3B81C4" stroke="#505978" stroke-width="2" stroke-linecap="round" stroke-linejoin="round" stroke-miterlimit="10" width="102.982" height="109.418"/>
		</g>
	</g>
	<g>
		<path fill="#80CFD6" d="M84.398,70.43c-1.014-20.659-7.178-52.068-19.817-52.757l-0.001-0.008c-0.041-0.001-0.08,0.001-0.121,0
			c-0.085-0.003-0.171-0.001-0.256-0.001c-0.086,0-0.171-0.002-0.256,0.001c-0.041,0.001-0.081-0.001-0.122,0l-0.001,0.008
			C51.186,18.362,45.021,49.771,44.008,70.43c-0.711,14.494,2.115,20.24,1.97,20.219c0,0,9.707,14.327,13.632,14.895
			c0,0-0.18,0.917,4.593,0.749c4.772,0.168,4.593-0.749,4.593-0.749c3.925-0.567,13.632-14.895,13.632-14.895
			C82.283,90.67,85.109,84.924,84.398,70.43z"/>
		<path fill="#6CBF5C" d="M74.014,102.853c0-2.004-4.372-3.627-9.766-3.627c-5.395,0-9.767,1.623-9.767,3.627
			c0,0.107-0.089,7.619-0.089,7.619c0,1.616,1.407,2.928,3.142,2.928h13.337c1.736,0,3.143-1.312,3.143-2.928
			C74.014,110.472,74.014,103.015,74.014,102.853z"/>
		<path fill="#3B81C4" d="M69.002,24.562c0-0.663-2.148-2.733-4.799-2.733c-2.651,0-4.8,2.07-4.8,2.733c0,0.663,2.149,3,4.8,3
			C66.854,27.562,69.002,25.225,69.002,24.562z"/>
		<g>
			<g>
				<path fill="#FFFFFF" d="M64.229,69.137c-0.12-0.017-0.134-0.363-0.134-0.623v-1.418c0-1.195,0.399-1.347,0.748-1.347
					c0.191,0,0.371,0.097,0.485,0.217c0.13,0.146,0.192,0.188,0.266,0.188c0.159,0,0.223-0.131,0.261-0.26l0.078-0.238
					c0.021-0.063,0.033-0.128,0.033-0.186c0-0.279-0.235-0.318-0.488-0.318c-1.299,0.01-2.116,1.226-2.116,3.021v0.371
					c0,0.368-0.028,0.664-0.028,0.666l-0.008,0.067l0.896-0.023L64.229,69.137 M68.053,69.017c0.154,0,0.301-0.041,0.432-0.124
					c0.131-0.086,0.249-0.213,0.349-0.373c0.101-0.164,0.183-0.363,0.239-0.593c0.059-0.229,0.088-0.489,0.088-0.773
					c0-0.244-0.029-0.462-0.09-0.651c-0.061-0.186-0.139-0.344-0.232-0.471c-0.097-0.123-0.206-0.219-0.33-0.282
					c-0.123-0.064-0.25-0.098-0.382-0.098c-0.159,0-0.312,0.03-0.46,0.092c-0.144,0.058-0.269,0.155-0.375,0.294
					c-0.109,0.137-0.197,0.322-0.264,0.547c-0.064,0.227-0.098,0.509-0.098,0.841C66.93,68.496,67.297,69.017,68.053,69.017
					 M68.092,69.377c-1.082,0-1.889-0.638-1.889-0.638l0.021-0.597l0.014-0.643l0.005-0.608v-1.488c0-0.514-0.013-0.38-0.028-0.886
					c-0.006-0.491,0.866-0.944,0.848-0.738c-0.028,0.324-0.096,1.064-0.096,1.483c0,0.416-0.009,0.448-0.014,0.667
					c0.164-0.233,0.341-0.413,0.531-0.53c0.229-0.144,0.498-0.216,0.799-0.216c0.289,0,0.545,0.056,0.755,0.167
					c0.214,0.111,0.391,0.259,0.53,0.442c0.138,0.181,0.243,0.394,0.312,0.633c0.068,0.238,0.104,0.491,0.104,0.753
					c0,0.323-0.047,0.625-0.145,0.894c-0.097,0.27-0.23,0.504-0.398,0.698c-0.17,0.195-0.371,0.347-0.603,0.452
					C68.607,69.324,68.356,69.377,68.092,69.377 M63.613,65.891c0.209,0,0.379-0.171,0.379-0.385c0-0.212-0.17-0.385-0.379-0.385
					s-0.38,0.173-0.38,0.385C63.233,65.72,63.404,65.891,63.613,65.891 M62.788,66.279c-0.069-0.21-0.179-0.396-0.322-0.554
					c-0.146-0.156-0.328-0.284-0.543-0.378c-0.213-0.093-0.471-0.141-0.762-0.141c-0.621,0-1.1,0.202-1.426,0.598
					c-0.322,0.394-0.486,0.941-0.486,1.629c0,0.279,0.048,0.545,0.147,0.786c0.095,0.242,0.236,0.456,0.417,0.634
					c0.18,0.179,0.395,0.315,0.643,0.408c0.247,0.092,0.523,0.141,0.817,0.141c0.265,0,0.524-0.051,0.77-0.145
					c0.835-0.326,0.695-0.83,0.694-0.829l-0.116-0.071l-0.033,0.039c-0.067,0.079-0.147,0.154-0.238,0.223s-0.187,0.129-0.295,0.179
					c-0.103,0.05-0.211,0.093-0.32,0.119c-0.109,0.03-0.217,0.044-0.32,0.044c-0.216,0-0.41-0.039-0.574-0.113
					c-0.165-0.074-0.306-0.178-0.419-0.305c-0.113-0.127-0.2-0.283-0.259-0.46c-0.017-0.052-0.067-0.251-0.074-0.317
					c-0.051-0.479-0.006-0.782,0.083-1.195l0.002-0.001c0.006-0.022,0.009-0.046,0.016-0.067c0.043-0.161,0.11-0.312,0.197-0.449
					c0.083-0.133,0.193-0.245,0.324-0.335c0.128-0.086,0.288-0.13,0.477-0.13c0.198,0,0.359,0.042,0.478,0.13
					c0.121,0.088,0.217,0.201,0.287,0.335c0.07,0.138,0.118,0.288,0.142,0.446c0.02,0.143,0.027,0.278,0.031,0.407l-0.475,0.012
					l-0.544,0.006l-0.468-0.006c0,0-0.057,0-0.129-0.003c-0.059,0.007-0.208,0.046-0.208,0.212c0,0.162,0.133,0.191,0.192,0.197
					c0.072,0,0.125-0.002,0.125-0.002l0.464-0.01l0.866,0.01c0,0,0.238,0.002,0.47,0.008c0.485,0,0.474-0.378,0.474-0.378
					C62.893,66.717,62.858,66.488,62.788,66.279 M68.053,69.017c0.154,0,0.301-0.041,0.432-0.124
					c0.131-0.086,0.249-0.213,0.349-0.373c0.101-0.164,0.183-0.363,0.239-0.593c0.059-0.229,0.088-0.489,0.088-0.773
					c0-0.244-0.029-0.462-0.09-0.651c-0.061-0.186-0.139-0.344-0.232-0.471c-0.097-0.123-0.206-0.219-0.33-0.282
					c-0.123-0.064-0.25-0.098-0.382-0.098c-0.159,0-0.312,0.03-0.46,0.092c-0.144,0.058-0.269,0.155-0.375,0.294
					c-0.109,0.137-0.197,0.322-0.264,0.547c-0.064,0.227-0.098,0.509-0.098,0.841C66.93,68.496,67.297,69.017,68.053,69.017
					 M68.092,69.377c-1.082,0-1.889-0.638-1.889-0.638l0.021-0.597l0.014-0.643l0.005-0.608v-1.488c0-0.514-0.013-0.38-0.028-0.886
					c-0.006-0.491,0.866-0.944,0.848-0.738c-0.028,0.324-0.096,1.064-0.096,1.483c0,0.416-0.009,0.448-0.014,0.667
					c0.164-0.233,0.341-0.413,0.531-0.53c0.229-0.144,0.498-0.216,0.799-0.216c0.289,0,0.545,0.056,0.755,0.167
					c0.214,0.111,0.391,0.259,0.53,0.442c0.138,0.181,0.243,0.394,0.312,0.633c0.068,0.238,0.104,0.491,0.104,0.753
					c0,0.323-0.047,0.625-0.145,0.894c-0.097,0.27-0.23,0.504-0.398,0.698c-0.17,0.195-0.371,0.347-0.603,0.452
					C68.607,69.324,68.356,69.377,68.092,69.377 M73.265,67.02c0,0.084-0.02,1.078-0.04,1.586c-0.01,0.492,0.995,0.914,0.977,0.707
					c-0.029-0.312-0.105-1.609-0.106-2.033c-0.14-0.025-0.263-0.123-0.399-0.192C73.551,67.018,73.385,67.109,73.265,67.02
					 M58.851,67.569l-0.008-0.405v-0.969h0.002v-0.316H58.84c0.008-0.445,0.052-0.92,0.07-1.368c-0.356,0.067-0.578,0.062-0.929,0
					l0.027,0.463l0.023,0.418l0.021,0.759v0.044h0.001v0.182c-0.097,0.002-0.717,0.012-0.717,0.012l-0.843,0.007l-0.443-0.004
					l-0.164-0.003c0,0-0.472-0.01-0.548-0.01v-0.228l0.021-0.759l0.024-0.418l0.028-0.463c-0.36,0.062-0.592,0.067-0.957,0
					c0.13,1.606,0.067,3.15,0.021,4.758l0.473,0.009l0.457,0.021v-0.063l-0.047-1.021l-0.021-1.051v-0.288
					c0.072-0.001,0.214-0.007,0.214-0.007l0.334-0.006l0.166-0.002l0.441-0.004l0.843,0.006c0,0,0.617,0.012,0.717,0.014v0.287
					l-0.02,1.051l-0.018,0.379h0.001c-0.013,0.242-0.029,0.492-0.044,0.711c-0.02,0.29,0.031,0.436,0.081,0.518
					c0.135,0.209,0.868-0.234,0.862-0.727C58.901,68.695,58.864,67.918,58.851,67.569 M72.76,68.706
					c-0.154,0.127-0.44,0.245-0.686,0.245c-0.229,0-0.416-0.104-0.555-0.249c-0.241-0.249-0.354-0.72-0.337-1.397
					c0.024-1.084,0.521-1.706,1.149-1.706c0.225,0,0.402,0.071,0.543,0.219c0.265,0.276,0.391,0.818,0.371,1.609v0.019
					c0.154-0.086,0.354-0.076,0.523-0.076c0.109,0,0.213-0.012,0.316-0.029c0-0.022,0-0.038,0-0.038
					c0.017-0.661-0.166-1.212-0.529-1.591c-0.316-0.329-0.762-0.508-1.249-0.508c-1.169,0-2.084,0.86-2.054,2.088
					c0.031,1.34,0.674,2.08,1.805,2.08c0.406,0,0.734-0.203,0.93-0.407c0,0,0.144-0.175,0.041-0.278
					C72.994,68.65,72.877,68.607,72.76,68.706 M74.795,67.951l-0.014,0.475l-0.01,0.203c0,0.002-0.028,0.496-0.049,0.668
					c-0.004,0.018,0.006,0.033,0.021,0.045c0.061,0.043,0.286,0.01,0.479-0.098c0.249-0.138,0.384-0.355,0.379-0.615
					c-0.003-0.113-0.013-0.203-0.013-0.205l-0.012-0.473l-0.006-0.606v-0.414h0.006c-0.004-0.155-0.006-0.313-0.006-0.469
					c0.006-0.72-0.016-1.454,0.022-2.171c0.001-0.003,0.03-0.408,0.052-0.546c0.002-0.017-0.004-0.031-0.019-0.043
					c-0.059-0.041-0.33-0.008-0.547,0.111c-0.21,0.112-0.319,0.279-0.315,0.477c0.004,0.091,0.012,0.165,0.014,0.169
					c0.025,0.821,0.02,1.65,0.01,2.472h0.009v0.414L74.795,67.951"/>
				<path fill="#FFFFFF" d="M78.568,72.401c0.114,0.158,0.171,0.373,0.171,0.642c0,0.186-0.039,0.37-0.117,0.551
					c-0.081,0.178-0.193,0.339-0.343,0.482c-0.147,0.141-0.328,0.253-0.535,0.334c-0.207,0.08-0.442,0.118-0.703,0.118
					c-0.282,0-0.522-0.026-0.717-0.085c-0.192-0.056-0.355-0.121-0.486-0.197l-0.045-0.033l0.127-0.367
					c0.039-0.131,0.057-0.238,0.057-0.323v-0.068h0.217l0.018,0.038c0.027,0.054,0.072,0.117,0.133,0.186
					c0.058,0.068,0.131,0.136,0.215,0.195c0.082,0.061,0.177,0.113,0.283,0.153c0.102,0.038,0.217,0.059,0.336,0.059
					c0.108,0,0.211-0.018,0.309-0.051c0.096-0.034,0.185-0.083,0.26-0.146c0.076-0.06,0.133-0.139,0.177-0.232
					c0.045-0.094,0.067-0.203,0.067-0.328c0-0.169-0.046-0.296-0.139-0.385c-0.102-0.093-0.227-0.173-0.373-0.232
					c-0.154-0.062-0.324-0.119-0.51-0.166c-0.192-0.051-0.371-0.123-0.532-0.213c-0.166-0.094-0.306-0.217-0.415-0.371
					c-0.113-0.157-0.172-0.373-0.172-0.643c0-0.208,0.034-0.402,0.104-0.577c0.07-0.175,0.172-0.329,0.306-0.456
					c0.134-0.129,0.3-0.23,0.495-0.303c0.194-0.074,0.417-0.111,0.666-0.111c0.232,0,0.431,0.033,0.592,0.096
					c0.137,0.073,0.473,0.165,0.342,0.582l-0.079,0.3l-0.014,0.056h-0.209l-0.015-0.047c-0.043-0.133-0.131-0.254-0.262-0.361
					c-0.126-0.105-0.281-0.158-0.473-0.158c-0.08,0-0.167,0.016-0.25,0.042c-0.084,0.028-0.158,0.069-0.225,0.126
					c-0.062,0.053-0.119,0.127-0.163,0.217c-0.044,0.088-0.065,0.194-0.065,0.316c0,0.176,0.047,0.313,0.139,0.408
					c0.1,0.098,0.223,0.176,0.371,0.235c0.154,0.061,0.326,0.112,0.51,0.156c0.189,0.048,0.37,0.114,0.533,0.199
					C78.316,72.125,78.456,72.246,78.568,72.401"/>
				<path fill="#FFFFFF" d="M57.18,71.534c-0.15-0.078-0.315-0.141-0.49-0.182c-0.169-0.042-0.326-0.092-0.469-0.146
					c-0.136-0.053-0.25-0.127-0.341-0.218c-0.086-0.085-0.13-0.212-0.13-0.374c0-0.114,0.021-0.213,0.06-0.295
					c0.042-0.08,0.093-0.148,0.152-0.197c0.061-0.051,0.13-0.092,0.205-0.115c0.078-0.027,0.154-0.039,0.232-0.039
					c0.172,0,0.32,0.048,0.437,0.145c0.118,0.1,0.199,0.213,0.24,0.334l0.012,0.042h0.192l0.012-0.052l0.075-0.276
					c0.106-0.377-0.317-0.534-0.317-0.534c-0.147-0.059-0.33-0.087-0.543-0.087c-0.23,0-0.435,0.033-0.614,0.101
					c-0.181,0.066-0.333,0.159-0.457,0.277c-0.122,0.117-0.217,0.258-0.28,0.422c-0.064,0.161-0.097,0.34-0.097,0.532
					c0,0.247,0.053,0.447,0.158,0.592c0.103,0.142,0.23,0.256,0.382,0.343c0.149,0.083,0.314,0.147,0.492,0.193
					c0.169,0.045,0.327,0.098,0.467,0.152c0.138,0.057,0.252,0.13,0.346,0.215c0.084,0.084,0.127,0.199,0.127,0.357
					c0,0.111-0.021,0.215-0.062,0.303c-0.042,0.085-0.095,0.157-0.164,0.213c-0.069,0.059-0.15,0.103-0.238,0.133
					c-0.091,0.031-0.186,0.048-0.286,0.048c-0.109,0-0.214-0.021-0.308-0.055c-0.099-0.038-0.188-0.085-0.262-0.14
					c-0.077-0.057-0.144-0.117-0.2-0.182c-0.053-0.062-0.095-0.12-0.119-0.171l-0.017-0.034c-0.086-0.204-0.817,0.521,0.121,0.911
					c0.171,0.07,0.402,0.078,0.66,0.078c0.24,0,0.459-0.036,0.649-0.11c0.189-0.072,0.355-0.176,0.492-0.309
					c0.136-0.131,0.243-0.278,0.313-0.443c0.075-0.164,0.11-0.336,0.11-0.506c0-0.248-0.053-0.447-0.157-0.592
					C57.462,71.727,57.333,71.613,57.18,71.534"/>
				<path fill="#FFFFFF" d="M60.041,72.342c-0.15-0.08-0.314-0.139-0.489-0.184c-0.168-0.041-0.326-0.09-0.468-0.143
					c-0.137-0.053-0.251-0.127-0.341-0.219c-0.085-0.085-0.127-0.211-0.127-0.373c0-0.112,0.02-0.211,0.06-0.293
					c0.041-0.082,0.091-0.148,0.151-0.2c0.061-0.05,0.13-0.089,0.205-0.112c0.078-0.027,0.154-0.041,0.23-0.041
					c0.173,0,0.32,0.05,0.438,0.146c0.117,0.1,0.198,0.211,0.238,0.332l0.016,0.042h0.188l0.014-0.052l0.072-0.277
					c0.106-0.375-0.315-0.531-0.315-0.531c-0.147-0.061-0.33-0.086-0.542-0.086c-0.23,0-0.437,0.031-0.614,0.098
					c-0.179,0.067-0.333,0.162-0.454,0.278c-0.124,0.118-0.218,0.259-0.282,0.422c-0.065,0.159-0.097,0.338-0.097,0.532
					c0,0.246,0.054,0.443,0.158,0.59c0.102,0.14,0.232,0.256,0.382,0.341c0.148,0.083,0.313,0.147,0.491,0.194
					c0.17,0.045,0.326,0.095,0.468,0.152c0.136,0.057,0.251,0.128,0.344,0.215c0.084,0.083,0.127,0.197,0.127,0.356
					c0,0.112-0.021,0.214-0.062,0.302c-0.04,0.085-0.093,0.156-0.162,0.213c-0.071,0.057-0.151,0.102-0.239,0.133
					c-0.091,0.031-0.185,0.046-0.285,0.046c-0.111,0-0.214-0.019-0.309-0.054c-0.099-0.037-0.187-0.084-0.26-0.139
					c-0.077-0.057-0.145-0.117-0.199-0.18s-0.095-0.121-0.121-0.174l-0.018-0.031c-0.084-0.206-0.816,0.519,0.122,0.908
					c0.171,0.07,0.4,0.076,0.658,0.076c0.241,0,0.458-0.035,0.648-0.106c0.19-0.073,0.354-0.177,0.492-0.31
					c0.136-0.13,0.241-0.279,0.313-0.443c0.074-0.164,0.11-0.336,0.11-0.504c0-0.248-0.054-0.448-0.159-0.593
					C60.323,72.533,60.194,72.422,60.041,72.342"/>
				<path fill="#FFFFFF" d="M69.555,71.24c0.105-0.148,0.242-0.268,0.408-0.353c0.165-0.086,0.367-0.13,0.599-0.13
					c0.121,0,0.233,0.021,0.335,0.059s0.197,0.09,0.283,0.146c0.083,0.061,0.157,0.125,0.219,0.193
					c0.062,0.07,0.109,0.14,0.145,0.205l0.018,0.032h0.146l0.087-0.321l0.115-0.289l-0.031-0.031
					c-0.109-0.099-0.281-0.182-0.525-0.257c-0.24-0.074-0.514-0.112-0.814-0.112c-0.262,0-0.523,0.042-0.777,0.121
					c-0.254,0.082-0.482,0.207-0.679,0.379c-0.196,0.169-0.356,0.389-0.478,0.648c-0.121,0.264-0.18,0.577-0.18,0.937
					c0,0.376,0.057,0.699,0.176,0.96c0.117,0.264,0.276,0.479,0.471,0.643c0.193,0.166,0.412,0.285,0.654,0.354
					c0.24,0.068,0.48,0.104,0.716,0.104c0.263,0,0.522-0.048,0.77-0.142c0.615-0.237,0.737-0.652,0.687-0.776l0.008-0.04
					l-0.118-0.073l-0.032,0.038c-0.065,0.078-0.147,0.152-0.238,0.221c-0.09,0.065-0.188,0.127-0.293,0.177
					c-0.104,0.049-0.211,0.091-0.32,0.119c-0.107,0.028-0.215,0.042-0.317,0.042c-0.437,0-0.772-0.137-0.997-0.406
					c-0.227-0.272-0.341-0.686-0.341-1.229c0-0.244,0.024-0.473,0.073-0.682C69.371,71.569,69.449,71.391,69.555,71.24"/>
				<path fill="#FFFFFF" d="M64.323,71.445c-0.069-0.209-0.181-0.394-0.325-0.549c-0.145-0.154-0.327-0.279-0.541-0.373
					c-0.215-0.092-0.471-0.137-0.764-0.137c-0.619,0-1.098,0.195-1.421,0.588c-0.324,0.389-0.488,0.931-0.488,1.608
					c0,0.278,0.048,0.538,0.146,0.779c0.097,0.238,0.237,0.45,0.417,0.626c0.18,0.176,0.397,0.312,0.643,0.404
					c0.247,0.091,0.522,0.137,0.817,0.137c0.264,0,0.523-0.047,0.769-0.143c0.836-0.322,0.695-0.818,0.695-0.818l-0.117-0.07
					l-0.031,0.039c-0.066,0.078-0.148,0.151-0.238,0.22c-0.09,0.067-0.189,0.126-0.294,0.177c-0.103,0.05-0.211,0.09-0.321,0.119
					c-0.107,0.028-0.216,0.043-0.318,0.043c-0.217,0-0.412-0.038-0.576-0.112c-0.165-0.075-0.305-0.178-0.418-0.304
					c-0.114-0.125-0.201-0.279-0.26-0.451c-0.017-0.053-0.068-0.25-0.075-0.315c-0.049-0.472-0.005-0.774,0.087-1.181l0.001-0.001
					c0.006-0.022,0.007-0.046,0.014-0.065c0.044-0.162,0.11-0.311,0.196-0.446c0.085-0.13,0.196-0.241,0.327-0.33
					c0.127-0.086,0.287-0.13,0.475-0.13c0.199,0,0.361,0.043,0.478,0.129c0.123,0.088,0.22,0.199,0.289,0.331
					c0.069,0.136,0.117,0.284,0.141,0.442c0.021,0.142,0.028,0.273,0.031,0.401l-0.475,0.011l-0.545,0.008l-0.467-0.008
					c0,0-0.056,0-0.13-0.003c-0.059,0.008-0.209,0.046-0.209,0.211c0,0.159,0.133,0.189,0.193,0.194
					c0.072,0,0.126-0.003,0.126-0.003l0.464-0.007l0.863,0.007c0,0,0.239,0.004,0.474,0.007c0.482,0,0.471-0.371,0.471-0.371
					C64.426,71.877,64.393,71.65,64.323,71.445"/>
				<path fill="#FFFFFF" d="M51.078,70.533c-0.379,0.459-0.573,1.094-0.573,1.893c0,0.326,0.059,0.635,0.171,0.915
					c0.114,0.279,0.279,0.528,0.49,0.733c0.211,0.207,0.464,0.365,0.756,0.475c0.287,0.107,0.61,0.163,0.959,0.163
					c0.31,0,0.614-0.058,0.904-0.167c0.729-0.281,0.815-0.676,0.815-0.848c0-0.043-0.003-0.068-0.007-0.078
					c-0.014-0.012-0.076-0.049-0.104-0.064c-0.01,0.014-0.022,0.025-0.022,0.025c-0.081,0.094-0.176,0.185-0.286,0.266
					c-0.107,0.081-0.229,0.152-0.356,0.213c-0.124,0.061-0.254,0.109-0.387,0.144c-0.132,0.035-0.263,0.053-0.387,0.053
					c-0.262,0-0.496-0.046-0.693-0.136c-0.201-0.09-0.371-0.215-0.511-0.367c-0.136-0.152-0.242-0.337-0.314-0.549
					c-0.02-0.062-0.082-0.298-0.09-0.381c-0.058-0.546-0.012-0.904,0.1-1.414l0.01-0.031l0.012-0.05
					c0.053-0.193,0.133-0.375,0.237-0.536c0.104-0.159,0.235-0.296,0.396-0.404c0.159-0.104,0.353-0.159,0.583-0.159
					c0.239,0,0.437,0.056,0.585,0.159c0.148,0.107,0.268,0.245,0.351,0.406c0.085,0.166,0.142,0.345,0.17,0.534
					c0.022,0.149,0.033,0.3,0.038,0.481c0,0.016-0.013,0.03-0.031,0.031l-0.563,0.016l-0.649,0.007l-0.556-0.007l-0.154-0.005
					c-0.079,0.012-0.217,0.055-0.217,0.218c0,0.16,0.125,0.196,0.202,0.203l0.146-0.004l0.551-0.008l1.029,0.008l0.561,0.009
					c0.186,0,0.329-0.05,0.419-0.146c0.114-0.115,0.112-0.266,0.112-0.266c0-0.275-0.042-0.537-0.123-0.783
					c-0.081-0.241-0.208-0.457-0.379-0.64c-0.17-0.18-0.384-0.327-0.633-0.435c-0.251-0.111-0.552-0.164-0.896-0.164
					C52.02,69.844,51.458,70.075,51.078,70.533"/>
				<path fill="#FFFFFF" d="M75.514,71.445c-0.069-0.209-0.18-0.394-0.325-0.549c-0.144-0.154-0.326-0.279-0.54-0.373
					c-0.215-0.092-0.471-0.137-0.764-0.137c-0.619,0-1.098,0.195-1.424,0.588c-0.322,0.389-0.488,0.931-0.488,1.608
					c0,0.278,0.051,0.538,0.147,0.779c0.097,0.238,0.237,0.45,0.418,0.626s0.396,0.312,0.644,0.404
					c0.246,0.091,0.521,0.137,0.818,0.137c0.263,0,0.52-0.047,0.77-0.143c0.834-0.322,0.692-0.818,0.692-0.818l-0.116-0.07
					l-0.031,0.039c-0.068,0.078-0.148,0.151-0.238,0.22c-0.091,0.067-0.189,0.126-0.295,0.177c-0.104,0.05-0.211,0.09-0.322,0.119
					c-0.107,0.028-0.214,0.043-0.316,0.043c-0.219,0-0.412-0.038-0.575-0.112c-0.165-0.075-0.306-0.178-0.419-0.304
					c-0.113-0.125-0.2-0.279-0.26-0.451c-0.016-0.053-0.066-0.25-0.074-0.315c-0.051-0.472-0.006-0.774,0.086-1.181v-0.001
					c0.006-0.022,0.01-0.046,0.017-0.065c0.044-0.162,0.108-0.311,0.194-0.446c0.085-0.13,0.194-0.241,0.326-0.33
					c0.127-0.086,0.287-0.13,0.476-0.13c0.2,0,0.358,0.043,0.478,0.129c0.123,0.088,0.219,0.199,0.287,0.331
					c0.07,0.136,0.119,0.284,0.141,0.442c0.021,0.142,0.029,0.273,0.032,0.401l-0.475,0.011l-0.544,0.008l-0.468-0.008
					c0,0-0.058,0-0.129-0.003c-0.061,0.008-0.21,0.046-0.21,0.211c0,0.159,0.135,0.189,0.193,0.194c0.07,0,0.127-0.003,0.127-0.003
					l0.464-0.007l0.864,0.007c0,0,0.237,0.004,0.471,0.007c0.483,0,0.474-0.371,0.474-0.371
					C75.618,71.877,75.583,71.65,75.514,71.445"/>
				<path fill="#FFFFFF" d="M68.04,73.174h-0.735c0,0.258,0.002,0.615,0.002,0.615c0,0.824,0.793,0.67,0.793,0.67
					c-0.026-0.23-0.045-0.482-0.052-0.746L68.04,73.174"/>
				<path fill="#FFFFFF" d="M65.478,73.619l-0.014-0.766v-0.692c0-0.04,0.006-0.077,0.007-0.116l-0.001-0.881
					c0-0.826-0.786-0.674-0.786-0.674c0.025,0.232,0.043,0.482,0.052,0.749l0.013,0.767v0.848l-0.013,0.766
					c-0.009,0.266-0.026,0.51-0.052,0.724l-0.008,0.069l0.43-0.024l0.43,0.024l-0.006-0.069
					C65.501,74.129,65.484,73.887,65.478,73.619"/>
				<path fill="#FFFFFF" d="M67.097,71.175c0.148,0.198,0.224,0.498,0.224,0.889v0.497l-0.014,0.643h0.734l0.01-0.662l0.016-0.724
					c0-0.287-0.04-0.528-0.121-0.718c-0.082-0.189-0.189-0.343-0.319-0.453c-0.13-0.111-0.278-0.19-0.438-0.235
					c-0.156-0.045-0.315-0.068-0.473-0.068c-0.3,0-0.563,0.068-0.783,0.2c-0.066,0.041-0.13,0.089-0.189,0.141
					c-0.207,0.184-0.119,0.61,0.035,0.459c0.166-0.168,0.404-0.256,0.719-0.256C66.756,70.887,66.951,70.98,67.097,71.175"/>
			</g>
			<g>
				<g>
					<circle fill="none" stroke="#6CBF5C" stroke-miterlimit="10" cx="64.484" cy="53.745" r="5.873"/>
					<circle fill="none" stroke="#FFFFFF" stroke-miterlimit="10" cx="64.514" cy="53.714" r="6.928"/>
				</g>
				<g>
					<g>
						<path fill-rule="evenodd" clip-rule="evenodd" fill="#FFFFFF" d="M64.819,61.279c0.022-0.007,1.101-0.029,2.367-0.529
							c1.279-0.465,2.619-1.499,3.37-2.507c0.265-0.226,0.516-0.471,0.768-0.726l0.186-0.195l0.047-0.049
							c0.012-0.012,0.026-0.028,0.078-0.108c0.084-0.125,0.166-0.251,0.241-0.382c0.307-0.519,0.563-1.075,0.755-1.657
							c0.105-0.274,0.2-0.596,0.248-0.771l0.069-0.3c0.017,0.057,0.035,0.112,0.06,0.167c0.063,0.114,0.137,0.23,0.26,0.317
							c0.029,0.001,0.06,0.032,0.087,0.042c0.059,0.023,0.134,0.025,0.189,0.021c0.036-0.001,0.064-0.018,0.095-0.022
							c0.01-0.001,0.015,0.008,0.021,0.006c0.038-0.011,0.106-0.053,0.144-0.077l0.047-0.04c0.002-0.002,0.007,0.006,0.01,0.003
							c0.073-0.063,0.139-0.161,0.201-0.285c0.004-0.008-0.005-0.01,0.002-0.019c0.017-0.037,0.033-0.075,0.043-0.112
							c0.047-0.2,0.033-0.451-0.045-0.598c-0.068-0.137-0.217-0.235-0.338-0.228c-0.104,0.006-0.221,0.1-0.303,0.249
							c-0.073,0.132-0.114,0.291-0.06,0.397c0.018-0.05,0.04-0.088,0.069-0.1c0.027,0.001,0.055,0.002,0.087,0.033
							c0.032,0.057,0.051,0.143-0.005,0.223c-0.079,0.112-0.222,0.107-0.281-0.019c-0.006-0.035-0.028-0.067-0.036-0.092
							c-0.02-0.055-0.032-0.102-0.045-0.154c-0.029-0.139-0.065-0.309-0.082-0.435l-0.006-0.065c0.04-0.397,0.046-0.776,0.067-1.097
							l0.002,0.01c0.021,0.098,0.041,0.17,0.073,0.257l0.027,0.099c0.004,0.01,0.017,0.016,0.021,0.027l0.053,0.114
							c0.069,0.119,0.189,0.245,0.337,0.258c0.104-0.025,0.199-0.081,0.272-0.247l0.018-0.055c0.05-0.249-0.078-0.472-0.271-0.479
							c-0.015,0.014-0.031,0.024-0.051,0.024c-0.065,0.055-0.112,0.235-0.063,0.307c0.003-0.04,0.005-0.057,0.03-0.073
							c0.065-0.008,0.091,0.096,0.036,0.153c-0.067,0.024-0.125-0.008-0.186-0.07c-0.024-0.025-0.04-0.059-0.062-0.091
							c-0.027-0.043-0.059-0.082-0.077-0.125c-0.017-0.04-0.023-0.085-0.038-0.125L73.24,52.13l-0.027-0.086l-0.021-0.129
							l-0.021-0.067l-0.007-0.047c0.036-0.343,0.095-0.645,0.262-0.939c0.313-0.597,0.915,0.044,0.546,0.282
							c-0.207-0.238-0.594-0.614-0.405,0.362c0.162,0.51,0.57,0.521,0.886,0.196c0.308-0.316,0.479-1.023,0.06-1.675
							c-0.737-1.056-1.314-0.143-1.461,0.61c-0.229,1.163-0.194,2.22-0.326,3.361c-0.281-1.27-0.258-2.767,0.098-4.013
							c0.209-0.616,0.51-1.395,1.133-1.517c0.652-0.104,0.517,1.032,0.214,0.347c-0.243,0.131-0.038,0.565,0.256,0.862
							c0.293,0.291,0.719,0.469,0.951-0.137c0.21-0.554-0.065-1.176-0.486-1.588c-0.421-0.42-0.98-0.622-1.32-0.557
							c-1.104,0.234-1.145,1.301-1.139,2.385c0.036,1.1,0.089,2.323,0.056,3.106c-0.331-1.292-0.61-2.982-1.002-4.327
							c-0.133-0.528-0.283-1.188-0.221-1.715c0.081-0.822,1.064-0.407,0.954-0.191c-0.091,0.147-0.667-0.419-0.484,0.25
							c0.143,0.568,0.901,0.581,1.235,0.512c0.762-0.166,0.659-0.922,0.09-1.527c-0.56-0.609-1.534-0.926-2.086-0.487
							c-0.624,0.483-0.738,1.065-0.661,1.642c0.083,0.581,0.363,1.185,0.666,1.824c0.636,1.25,1.201,2.812,1.275,3.688l-0.055-0.068
							c-0.194-0.558-0.522-1.059-0.926-1.432c-0.297-0.652-0.382-1.329-0.547-2.112c-0.165-0.77-0.413-1.651-1.002-2.436
							c-0.333-0.445-0.859-0.739-1.379-0.978c-0.524-0.243-1.04-0.436-1.469-0.786c-0.458-0.371-0.809-0.69-0.96-1.231
							c-0.134-0.941,1.332-0.798,0.955-0.382c-0.25-0.023-0.132-0.111-0.3-0.143c-0.608,0.267,0.42,0.962,1.001,0.824
							c1.076-0.22,0.779-1.272-0.284-1.773c-1.493-0.327-2.298,0.291-2.526,0.997c-0.243,0.72-0.02,1.601,0.277,2.234
							c0.814,1.707,1.555,2.411,2.504,3.006c0.927,0.573,2.145,1.191,2.991,2.236c-0.367-0.214-0.8-0.238-1.208-0.234
							c-0.739,0.002-1.521,0.518-1.642,1.086c-0.335,0.242-0.643,0.489-0.754,0.697c-0.137,0.239,0.138,0.292,0.646,0.221
							c0.267-0.071,0.441-0.151,0.539-0.312c0.066-0.11-0.047-0.367-0.275-0.128c0.174,0.033-0.058,0.109-0.178,0.112
							c-0.042-0.122,0.132-0.235,0.405-0.353l0.007-0.003c0.672-0.289,1.236-0.453,1.724-0.465l-0.001,0
							c-0.038,0.035-0.055,0.07-0.085,0.1c-0.01,0.01-0.022,0.008-0.029,0.017c-0.033,0.041-0.079,0.124-0.103,0.167l-0.024,0.062
							c-0.002,0.003-0.014,0.003-0.016,0.008c-0.036,0.096-0.052,0.203-0.043,0.318c0.001,0.006,0.014,0.001,0.012,0.011
							c0.005,0.033,0.008,0.067,0.019,0.096c0.06,0.154,0.22,0.303,0.397,0.371c0.157,0.062,0.409,0.063,0.573-0.013
							c0.143-0.065,0.247-0.221,0.271-0.418c0.013-0.173-0.046-0.347-0.192-0.387c0.015,0.055,0.016,0.105-0.014,0.138
							c-0.036,0.021-0.072,0.042-0.132,0.042c-0.078-0.02-0.161-0.07-0.15-0.174c0.012-0.111,0.108-0.209,0.229-0.234
							c0.729,0.251,1.161,0.995,1.217,1.886l-0.004-0.011c-0.053-0.115-0.106-0.194-0.176-0.285
							c-0.026-0.034-0.041-0.077-0.068-0.104c-0.01-0.01-0.03-0.011-0.042-0.022c-0.038-0.035-0.069-0.074-0.115-0.104
							c-0.146-0.1-0.366-0.164-0.579-0.1c-0.138,0.078-0.249,0.175-0.298,0.352l-0.009,0.056c-0.003,0.242,0.218,0.42,0.504,0.385
							c0.021-0.018,0.045-0.033,0.074-0.039c0.089-0.074,0.112-0.287,0.019-0.345c0.006,0.042,0.008,0.062-0.023,0.088
							c-0.093,0.031-0.157-0.066-0.094-0.145c0.091-0.051,0.183-0.043,0.288,0c0.042,0.018,0.074,0.049,0.114,0.078
							c0.053,0.039,0.108,0.071,0.147,0.115c0.036,0.04,0.057,0.091,0.082,0.135l0.022,0.029c0.019,0.034,0.038,0.061,0.054,0.096
							l0.049,0.154l0.037,0.078l0.014,0.053c-0.01,0.14-0.026,0.282-0.054,0.423c-0.023,0.171-0.066,0.396-0.113,0.581
							c-0.04,0.405-0.124,0.81-0.246,1.206c-0.062,0.198-0.129,0.395-0.212,0.586c-0.039,0.097-0.08,0.193-0.127,0.287l-0.068,0.142
							c-0.02,0.041-0.013,0.038-0.021,0.059c-0.081,0.241-0.184,0.477-0.308,0.701c-0.249,0.449-0.579,0.854-0.955,1.211
							c-0.918,0.736-2.135,1.247-3.11,1.429c-0.978,0.19-1.688,0.128-1.709,0.134c-0.078,0.002-0.142,0.213-0.143,0.47
							C64.657,61.074,64.729,61.281,64.819,61.279z"/>
					</g>
				</g>
			</g>
			<g>
				<path fill="#FFFFFF" stroke="#FFFFFF" stroke-width="0.25" stroke-miterlimit="10" d="M61.94,82.948v-2.294h0.11v1.125h1.368
					v-1.125h0.107v2.294h-0.107v-1.076H62.05v1.076H61.94z"/>
				<path fill="#FFFFFF" stroke="#FFFFFF" stroke-width="0.25" stroke-miterlimit="10" d="M63.906,82.411
					c0-0.078,0.015-0.152,0.043-0.219c0.027-0.068,0.066-0.129,0.116-0.18c0.049-0.051,0.106-0.09,0.171-0.121
					c0.066-0.028,0.135-0.043,0.209-0.043c0.08,0,0.151,0.014,0.217,0.043c0.065,0.028,0.121,0.067,0.165,0.119
					c0.046,0.053,0.081,0.114,0.106,0.186c0.025,0.072,0.04,0.15,0.041,0.236h-0.964c0.001,0.073,0.016,0.137,0.04,0.192
					c0.025,0.057,0.058,0.103,0.099,0.142c0.04,0.037,0.088,0.068,0.143,0.088c0.056,0.021,0.114,0.033,0.179,0.033
					c0.096,0,0.174-0.016,0.23-0.048c0.059-0.031,0.109-0.072,0.152-0.124l0.068,0.061c-0.05,0.062-0.111,0.111-0.186,0.146
					c-0.074,0.034-0.163,0.053-0.266,0.053c-0.084,0-0.16-0.017-0.229-0.045c-0.068-0.029-0.128-0.068-0.177-0.119
					c-0.05-0.051-0.089-0.109-0.116-0.178C63.921,82.563,63.906,82.49,63.906,82.411z M64.014,82.347h0.856
					c-0.013-0.116-0.053-0.213-0.122-0.293c-0.068-0.078-0.17-0.118-0.303-0.118c-0.12,0-0.219,0.038-0.295,0.114
					C64.072,82.126,64.027,82.225,64.014,82.347z"/>
				<path fill="#FFFFFF" stroke="#FFFFFF" stroke-width="0.25" stroke-miterlimit="10" d="M65.309,82.948v-2.396h0.1v2.396H65.309z"
					/>
				<path fill="#FFFFFF" stroke="#FFFFFF" stroke-width="0.25" stroke-miterlimit="10" d="M65.841,82.948v-2.396h0.101v2.396H65.841
					z"/>
				<path fill="#FFFFFF" stroke="#FFFFFF" stroke-width="0.25" stroke-miterlimit="10" d="M66.272,82.411
					c0-0.08,0.015-0.153,0.044-0.221c0.029-0.068,0.067-0.127,0.117-0.178s0.107-0.09,0.174-0.121
					c0.069-0.028,0.141-0.043,0.217-0.043c0.078,0,0.15,0.015,0.217,0.043c0.067,0.031,0.125,0.07,0.176,0.121
					c0.048,0.051,0.087,0.109,0.117,0.18c0.029,0.067,0.043,0.141,0.043,0.219s-0.014,0.152-0.043,0.221
					c-0.03,0.068-0.069,0.129-0.117,0.18c-0.051,0.051-0.109,0.09-0.176,0.119c-0.067,0.028-0.141,0.045-0.217,0.045
					s-0.147-0.017-0.217-0.045c-0.066-0.029-0.124-0.068-0.174-0.119s-0.088-0.111-0.117-0.18S66.272,82.489,66.272,82.411z
					 M66.375,82.411c0,0.066,0.012,0.13,0.033,0.188c0.023,0.061,0.055,0.11,0.095,0.15c0.039,0.043,0.087,0.076,0.142,0.102
					c0.054,0.024,0.115,0.037,0.18,0.037c0.066,0,0.126-0.013,0.182-0.037c0.053-0.025,0.102-0.059,0.141-0.102
					c0.04-0.04,0.07-0.09,0.093-0.148s0.034-0.122,0.034-0.189c0-0.068-0.012-0.131-0.034-0.189
					c-0.022-0.06-0.053-0.108-0.093-0.149c-0.039-0.042-0.088-0.075-0.141-0.1c-0.056-0.025-0.115-0.037-0.182-0.037
					c-0.064,0-0.123,0.012-0.18,0.037c-0.055,0.024-0.103,0.058-0.142,0.1c-0.04,0.041-0.071,0.09-0.095,0.149
					C66.387,82.28,66.375,82.343,66.375,82.411z"/>
				<path fill="#FFFFFF" stroke="#FFFFFF" stroke-width="0.25" stroke-miterlimit="10" d="M58.401,86.997v-2.296h0.108v1.125h1.369
					v-1.125h0.109v2.296h-0.109v-1.076h-1.369v1.076H58.401z"/>
				<path fill="#FFFFFF" stroke="#FFFFFF" stroke-width="0.25" stroke-miterlimit="10" d="M60.306,85.925h0.11l0.196,0.438
					c0.025,0.055,0.05,0.109,0.073,0.161c0.025,0.052,0.045,0.099,0.062,0.142c0.022,0.049,0.044,0.096,0.064,0.139l0.378-0.879
					h0.104l-0.766,1.785h-0.105l0.338-0.785L60.306,85.925z"/>
				<path fill="#FFFFFF" stroke="#FFFFFF" stroke-width="0.25" stroke-miterlimit="10" d="M61.439,86.46
					c0-0.079,0.013-0.153,0.04-0.221c0.027-0.068,0.066-0.128,0.115-0.179c0.049-0.05,0.107-0.091,0.175-0.12
					c0.067-0.029,0.14-0.045,0.218-0.045c0.198,0,0.345,0.088,0.44,0.262v-1.555h0.101v2.395h-0.101v-0.232
					c-0.094,0.174-0.241,0.259-0.44,0.258c-0.079,0-0.151-0.016-0.218-0.044c-0.067-0.028-0.125-0.068-0.175-0.119
					c-0.049-0.05-0.088-0.108-0.115-0.179C61.452,86.613,61.439,86.539,61.439,86.46z M61.542,86.46c0,0.068,0.011,0.13,0.032,0.188
					c0.022,0.058,0.052,0.108,0.091,0.15c0.04,0.042,0.087,0.074,0.142,0.098c0.055,0.024,0.115,0.035,0.179,0.035
					c0.065,0,0.125-0.011,0.181-0.035c0.056-0.023,0.104-0.056,0.143-0.098c0.04-0.042,0.069-0.091,0.092-0.149
					c0.021-0.059,0.032-0.121,0.032-0.189c0-0.066-0.011-0.129-0.032-0.188c-0.022-0.059-0.052-0.109-0.092-0.15
					c-0.039-0.041-0.086-0.074-0.141-0.096c-0.055-0.025-0.116-0.037-0.182-0.037c-0.064,0-0.124,0.012-0.179,0.037
					c-0.055,0.021-0.103,0.055-0.142,0.096c-0.039,0.041-0.069,0.092-0.091,0.15C61.553,86.331,61.542,86.394,61.542,86.46z"/>
				<path fill="#FFFFFF" stroke="#FFFFFF" stroke-width="0.25" stroke-miterlimit="10" d="M62.942,86.997v-1.072h0.101v0.186
					c0.034-0.064,0.078-0.115,0.133-0.156c0.055-0.038,0.117-0.059,0.188-0.059c0.04,0,0.069,0.002,0.092,0.008
					c0.021,0.005,0.046,0.016,0.072,0.03l-0.036,0.083c-0.029-0.018-0.074-0.027-0.135-0.027c-0.043,0-0.084,0.011-0.123,0.029
					c-0.038,0.02-0.071,0.046-0.099,0.081c-0.027,0.035-0.05,0.075-0.067,0.122c-0.017,0.048-0.025,0.1-0.025,0.152v0.623H62.942z"
					/>
				<path fill="#FFFFFF" stroke="#FFFFFF" stroke-width="0.25" stroke-miterlimit="10" d="M63.657,86.46
					c0-0.079,0.014-0.153,0.04-0.221c0.027-0.068,0.064-0.128,0.111-0.179c0.047-0.05,0.104-0.091,0.171-0.12
					s0.138-0.045,0.217-0.045c0.188,0,0.331,0.088,0.425,0.262V86.04h0.1v0.985h-0.1v-0.261c-0.094,0.174-0.236,0.259-0.425,0.258
					c-0.08,0-0.151-0.016-0.218-0.044s-0.123-0.068-0.17-0.119c-0.047-0.05-0.084-0.108-0.111-0.179
					C63.671,86.613,63.657,86.539,63.657,86.46z M63.762,86.46c0,0.068,0.01,0.13,0.031,0.188c0.022,0.058,0.051,0.108,0.09,0.15
					c0.038,0.042,0.085,0.074,0.137,0.098c0.053,0.024,0.111,0.035,0.177,0.035c0.062,0,0.12-0.011,0.175-0.035
					c0.055-0.023,0.1-0.056,0.138-0.098s0.067-0.091,0.087-0.149c0.021-0.059,0.031-0.121,0.031-0.189
					c0-0.066-0.01-0.129-0.031-0.188c-0.02-0.059-0.049-0.109-0.087-0.15s-0.083-0.074-0.138-0.096
					c-0.053-0.025-0.111-0.037-0.175-0.037c-0.065,0-0.124,0.012-0.177,0.037c-0.052,0.021-0.099,0.055-0.137,0.096
					c-0.039,0.041-0.067,0.092-0.09,0.15C63.771,86.331,63.762,86.394,63.762,86.46z"/>
				<path fill="#FFFFFF" stroke="#FFFFFF" stroke-width="0.25" stroke-miterlimit="10" d="M65.035,86.012v-0.087h0.152V85.28h0.1
					v0.645h0.281l-0.051,0.087h-0.23v0.753c0,0.051,0.012,0.092,0.031,0.121c0.02,0.032,0.055,0.046,0.104,0.046
					c0.029,0,0.054-0.005,0.076-0.017c0.025-0.011,0.046-0.023,0.062-0.039l0.052,0.076c-0.052,0.047-0.115,0.07-0.19,0.07
					c-0.073,0-0.131-0.021-0.173-0.067c-0.041-0.045-0.062-0.104-0.062-0.178v-0.766H65.035z"/>
				<path fill="#FFFFFF" stroke="#FFFFFF" stroke-width="0.25" stroke-miterlimit="10" d="M65.805,86.46
					c0-0.079,0.014-0.153,0.04-0.221c0.028-0.068,0.063-0.128,0.112-0.179c0.047-0.05,0.104-0.091,0.17-0.12
					s0.139-0.045,0.217-0.045c0.188,0,0.33,0.088,0.424,0.262V86.04h0.102v0.985h-0.102v-0.261
					c-0.094,0.174-0.235,0.259-0.424,0.258c-0.078,0-0.15-0.016-0.217-0.044s-0.123-0.068-0.17-0.119
					c-0.049-0.05-0.084-0.108-0.112-0.179C65.818,86.613,65.805,86.539,65.805,86.46z M65.908,86.46c0,0.068,0.012,0.13,0.033,0.188
					c0.021,0.058,0.051,0.108,0.09,0.15c0.037,0.042,0.084,0.074,0.137,0.098c0.052,0.024,0.111,0.035,0.176,0.035
					c0.062,0,0.121-0.011,0.176-0.035c0.055-0.023,0.101-0.056,0.138-0.098c0.036-0.042,0.065-0.091,0.086-0.149
					c0.021-0.059,0.032-0.121,0.032-0.189c0-0.066-0.011-0.129-0.032-0.188c-0.021-0.059-0.05-0.109-0.086-0.15
					c-0.037-0.041-0.083-0.074-0.138-0.096c-0.055-0.025-0.112-0.037-0.176-0.037c-0.064,0-0.124,0.012-0.176,0.037
					c-0.053,0.021-0.1,0.055-0.137,0.096c-0.039,0.041-0.068,0.092-0.09,0.15S65.908,86.394,65.908,86.46z"/>
				<path fill="#FFFFFF" stroke="#FFFFFF" stroke-width="0.25" stroke-miterlimit="10" d="M67.184,86.012v-0.087h0.152V85.28h0.1
					v0.645h0.279l-0.051,0.087h-0.229v0.753c0,0.051,0.01,0.092,0.031,0.121c0.02,0.032,0.055,0.046,0.104,0.046
					c0.026,0,0.052-0.005,0.076-0.017c0.023-0.011,0.044-0.023,0.062-0.039l0.051,0.076c-0.052,0.047-0.115,0.07-0.188,0.07
					c-0.075,0-0.134-0.021-0.175-0.067c-0.041-0.045-0.061-0.104-0.061-0.178v-0.766H67.184z"/>
				<path fill="#FFFFFF" stroke="#FFFFFF" stroke-width="0.25" stroke-miterlimit="10" d="M68.036,85.36
					c0-0.025,0.009-0.045,0.025-0.062c0.016-0.015,0.037-0.022,0.06-0.022c0.021,0,0.041,0.008,0.059,0.022
					c0.016,0.017,0.025,0.036,0.025,0.062s-0.01,0.047-0.025,0.061c-0.018,0.016-0.037,0.023-0.059,0.023s-0.041-0.008-0.059-0.023
					C68.045,85.407,68.036,85.386,68.036,85.36z M68.071,86.997v-1.072h0.101v1.072H68.071z"/>
				<path fill="#FFFFFF" stroke="#FFFFFF" stroke-width="0.25" stroke-miterlimit="10" d="M68.5,86.458
					c0-0.078,0.016-0.152,0.045-0.22c0.029-0.068,0.068-0.127,0.117-0.179c0.051-0.051,0.108-0.09,0.176-0.119
					s0.14-0.045,0.217-0.045c0.078,0,0.149,0.016,0.215,0.045c0.068,0.029,0.126,0.068,0.176,0.119
					c0.049,0.052,0.088,0.111,0.117,0.18c0.029,0.067,0.044,0.142,0.044,0.219c0,0.079-0.015,0.154-0.044,0.223
					s-0.068,0.129-0.117,0.179c-0.05,0.05-0.108,0.091-0.176,0.119s-0.139,0.044-0.215,0.044c-0.077,0-0.149-0.016-0.217-0.044
					s-0.125-0.069-0.176-0.119c-0.049-0.05-0.088-0.11-0.117-0.179S68.5,86.537,68.5,86.458z M68.605,86.458
					c0,0.067,0.011,0.131,0.033,0.189c0.023,0.059,0.054,0.109,0.094,0.15c0.039,0.042,0.086,0.076,0.141,0.1
					c0.055,0.025,0.115,0.037,0.182,0.037c0.064,0,0.125-0.012,0.18-0.037c0.055-0.023,0.102-0.058,0.141-0.1
					c0.041-0.041,0.072-0.092,0.094-0.15c0.023-0.058,0.033-0.121,0.033-0.189c0-0.066-0.01-0.13-0.033-0.188
					c-0.021-0.059-0.053-0.108-0.094-0.15c-0.039-0.041-0.086-0.074-0.141-0.099c-0.055-0.025-0.115-0.037-0.18-0.037
					s-0.126,0.012-0.182,0.037c-0.054,0.024-0.102,0.058-0.141,0.099c-0.04,0.042-0.07,0.092-0.094,0.15
					C68.616,86.328,68.605,86.392,68.605,86.458z"/>
				<path fill="#FFFFFF" stroke="#FFFFFF" stroke-width="0.25" stroke-miterlimit="10" d="M69.928,86.997v-0.937h0.101v0.067
					c0.036-0.072,0.089-0.131,0.161-0.171c0.07-0.04,0.148-0.062,0.236-0.062c0.117,0,0.217,0.035,0.297,0.105
					c0.082,0.07,0.122,0.178,0.122,0.326v0.67h-0.101v-0.65c0-0.126-0.027-0.217-0.084-0.273c-0.057-0.056-0.137-0.084-0.237-0.084
					c-0.114,0-0.208,0.037-0.282,0.106c-0.075,0.071-0.112,0.167-0.112,0.29v0.611H69.928z"/>
			</g>
		</g>
	</g>
</g>
</svg>
