<?xml version="1.0" encoding="utf-8"?>
<!-- Generator: Adobe Illustrator 15.1.0, SVG Export Plug-In . SVG Version: 6.00 Build 0)  -->
<!DOCTYPE svg PUBLIC "-//W3C//DTD SVG 1.1//EN" "http://www.w3.org/Graphics/SVG/1.1/DTD/svg11.dtd">
<svg version="1.1" id="Capa_1" xmlns="http://www.w3.org/2000/svg" xmlns:xlink="http://www.w3.org/1999/xlink" x="0px" y="0px"
	 width="126.75px" height="130.068px" viewBox="0 0 126.75 130.068" enable-background="new 0 0 126.75 130.068"
	 xml:space="preserve">
<g>
	<g>
		<g>
			<g>
				<defs>
					<rect id="SVGID_1_" x="11.804" y="10.621" width="102.983" height="108.094"/>
				</defs>
				<clipPath id="SVGID_2_">
					<use xlink:href="#SVGID_1_"  overflow="visible"/>
				</clipPath>
			</g>
			<path fill="none" stroke="#505978" stroke-width="2" stroke-linecap="round" stroke-linejoin="round" stroke-miterlimit="10" d="
				M125.301,38.153l0.148-4.819c-2.133,0-3.924-1.365-4.58-3.253v-3.098c0.656-1.884,2.447-3.25,4.58-3.25l-0.051-4.102
				c-2.07,0-3.828-1.283-4.529-3.085v-3.426c0.701-1.803,2.459-3.088,4.529-3.088l0.049-4.187h-4.578V0.978l-5.053,0.047
				c0,2.652-2.105,4.802-4.701,4.802c-2.594,0-4.695-2.149-4.695-4.802l-4.016-0.048c0,2.652-2.102,4.803-4.697,4.803
				s-4.699-2.151-4.699-4.803l-4.717-0.194c0,2.649-2.105,4.8-4.701,4.8c-2.594,0-4.699-2.151-4.699-4.8l-4.01,0.096
				c0,2.651-2.104,4.801-4.699,4.801c-2.598,0-4.699-2.149-4.699-4.801l-5.332,0.047c0,2.654-2.104,4.802-4.7,4.802
				c-2.595,0-4.699-2.148-4.699-4.802l-4.011-0.094c0,2.652-2.103,4.799-4.698,4.799c-2.594,0-4.7-2.146-4.7-4.799l-4.717-0.147
				c0,2.652-2.103,4.801-4.701,4.801c-2.591,0-4.694-2.149-4.694-4.801l-4.015,0.05c0,2.65-2.103,4.801-4.698,4.801
				S9.818,3.385,9.818,0.735L5.719,0.687v5.159H1.144l0.049,4.187c2.07,0,3.826,1.285,4.526,3.084v3.432
				c-0.7,1.8-2.456,3.083-4.526,3.083l-0.051,4.102c2.133,0,3.922,1.365,4.577,3.25v3.098c-0.655,1.888-2.444,3.253-4.577,3.253
				l0.148,4.819c1.978,0,3.67,1.169,4.429,2.845v3.914c-0.759,1.673-2.451,2.842-4.429,2.842l0.096,4.098
				c1.904,0,3.535,1.09,4.333,2.666v4.272c-0.798,1.574-2.429,2.667-4.333,2.667l-0.048,5.446c1.94,0,3.603,1.129,4.381,2.755v4.089
				c-0.778,1.625-2.44,2.757-4.381,2.757L1.24,80.6c2.014,0,3.744,1.214,4.479,2.94v3.724c-0.735,1.726-2.466,2.941-4.479,2.941
				l0.197,4.817c1.866,0,3.467,1.05,4.282,2.574v4.453c-0.815,1.524-2.416,2.574-4.282,2.574l0.049,4.1
				c1.829,0,3.404,1.009,4.233,2.483v4.629c-0.829,1.476-2.404,2.487-4.233,2.487l-0.047,5.165h4.28v5.159l4.099-0.048
				c0-2.651,2.104-4.803,4.699-4.803s4.698,2.151,4.698,4.803l4.015,0.05c0-2.653,2.104-4.801,4.694-4.801
				c2.599,0,4.701,2.147,4.701,4.801l4.717-0.146c0-2.653,2.106-4.801,4.7-4.801c2.596,0,4.698,2.147,4.698,4.801l4.011-0.095
				c0-2.653,2.104-4.805,4.699-4.805c2.597,0,4.7,2.151,4.7,4.805l5.332,0.048c0-2.652,2.102-4.8,4.699-4.8
				c2.596,0,4.699,2.147,4.699,4.8l4.01,0.097c0-2.649,2.105-4.801,4.699-4.801c2.596,0,4.701,2.151,4.701,4.801l4.717-0.196
				c0-2.651,2.104-4.803,4.699-4.803s4.697,2.151,4.697,4.803l4.016-0.047c0-2.65,2.102-4.802,4.695-4.802
				c2.596,0,4.701,2.151,4.701,4.802l5.053,0.047v-4.868h4.283l-0.047-5.165c-1.832,0-3.404-1.012-4.236-2.489v-4.625
				c0.832-1.477,2.404-2.485,4.236-2.485l0.049-4.1c-1.867,0-3.469-1.052-4.285-2.574v-4.453c0.816-1.522,2.418-2.574,4.285-2.574
				l0.197-4.817c-2.016,0-3.744-1.216-4.482-2.943v-3.72c0.738-1.729,2.467-2.942,4.482-2.942l-0.1-4.097
				c-1.939,0-3.602-1.132-4.383-2.757v-4.089c0.781-1.626,2.443-2.755,4.383-2.755l-0.049-5.446c-1.904,0-3.535-1.092-4.334-2.668
				V54.52c0.799-1.576,2.43-2.667,4.334-2.667l0.098-4.098c-1.979,0-3.672-1.169-4.432-2.844v-3.912
				C121.629,39.324,123.322,38.153,125.301,38.153z"/>
			
				<rect x="11.804" y="10.621" fill="#3B81C4" stroke="#505978" stroke-width="2" stroke-linecap="round" stroke-linejoin="round" stroke-miterlimit="10" width="102.983" height="108.094"/>
		</g>
	</g>
	<g>
		<path fill="#80CFD6" d="M74.928,36.245v-0.053H52.037c-12.005,1.628-12.005,6.024-12.005,6.024v65.422
			c0,1.75,2.057,3.168,4.595,3.168h37.338c2.537,0,4.594-1.418,4.594-3.168V42.217C86.559,42.217,86.557,37.913,74.928,36.245z"/>
		<path fill="#E6E7E8" d="M41.508,20.149v2.603c0,0,6.04-1.049,10.784,0.252c-0.024,1.932-0.083,6.607-0.083,6.607
			c0,1.577,1.472,2.854,3.289,2.854h13.961c1.816,0,3.289-1.278,3.289-2.854c0,0,0-7.271,0-7.428
			C72.747,20.23,50.62,16.645,41.508,20.149z"/>
		<rect x="53.845" y="31.131" fill="#E6E7E8" width="17.152" height="5.061"/>
		<g>
			<path fill="#FFFFFF" d="M62.768,76.523c-0.162-0.023-0.179-0.49-0.179-0.838v-1.904c0-1.605,0.536-1.809,1.004-1.809
				c0.258,0,0.499,0.129,0.651,0.291c0.176,0.195,0.26,0.254,0.357,0.254c0.215,0,0.299-0.176,0.35-0.35l0.106-0.32
				c0.028-0.084,0.043-0.172,0.043-0.25c0-0.373-0.315-0.426-0.655-0.426c-1.745,0.014-2.842,1.645-2.842,4.059v0.496
				c0,0.496-0.039,0.893-0.039,0.896l-0.01,0.09l1.203-0.031L62.768,76.523 M67.903,76.361c0.208,0,0.404-0.055,0.579-0.168
				c0.176-0.115,0.335-0.285,0.469-0.5c0.136-0.221,0.246-0.488,0.321-0.795c0.079-0.309,0.118-0.658,0.118-1.039
				c0-0.328-0.04-0.621-0.121-0.875c-0.08-0.25-0.186-0.463-0.312-0.633c-0.129-0.166-0.275-0.293-0.443-0.379
				c-0.164-0.086-0.336-0.131-0.513-0.131c-0.214,0-0.419,0.039-0.617,0.123c-0.192,0.078-0.361,0.209-0.505,0.395
				c-0.145,0.184-0.264,0.434-0.353,0.734c-0.087,0.305-0.131,0.684-0.131,1.129C66.396,75.662,66.889,76.361,67.903,76.361
				 M67.956,76.846c-1.453,0-2.536-0.857-2.536-0.857l0.027-0.801l0.019-0.863l0.007-0.816v-2c0-0.689-0.017-0.51-0.039-1.189
				c-0.007-0.66,1.164-1.27,1.139-0.992c-0.037,0.436-0.127,1.43-0.127,1.992c0,0.559-0.013,0.602-0.02,0.895
				c0.22-0.312,0.458-0.555,0.714-0.711c0.308-0.193,0.669-0.291,1.073-0.291c0.389,0,0.73,0.076,1.014,0.225
				c0.287,0.148,0.525,0.348,0.711,0.592c0.187,0.244,0.328,0.529,0.422,0.852c0.092,0.318,0.139,0.66,0.139,1.012
				c0,0.434-0.064,0.838-0.193,1.199c-0.131,0.363-0.311,0.678-0.536,0.938c-0.228,0.264-0.499,0.467-0.81,0.607
				C68.649,76.775,68.311,76.846,67.956,76.846 M61.939,72.162c0.281,0,0.509-0.229,0.509-0.516c0-0.285-0.228-0.518-0.509-0.518
				s-0.51,0.232-0.51,0.518C61.43,71.934,61.658,72.162,61.939,72.162 M60.832,72.686c-0.094-0.283-0.24-0.533-0.434-0.744
				c-0.196-0.211-0.44-0.381-0.729-0.508c-0.286-0.125-0.633-0.189-1.023-0.189c-0.834,0-1.478,0.271-1.915,0.803
				c-0.433,0.529-0.652,1.264-0.652,2.188c0,0.377,0.065,0.732,0.197,1.057c0.127,0.326,0.317,0.611,0.561,0.852
				c0.241,0.24,0.531,0.424,0.863,0.549c0.331,0.123,0.702,0.188,1.098,0.188c0.356,0,0.704-0.066,1.034-0.193
				c1.122-0.438,0.934-1.115,0.933-1.113l-0.155-0.096l-0.045,0.051c-0.09,0.107-0.198,0.209-0.319,0.301
				c-0.121,0.09-0.252,0.172-0.396,0.24c-0.139,0.066-0.284,0.123-0.431,0.16c-0.146,0.039-0.291,0.059-0.43,0.059
				c-0.29,0-0.551-0.053-0.771-0.152c-0.222-0.102-0.411-0.238-0.562-0.41c-0.152-0.17-0.269-0.379-0.349-0.617
				c-0.023-0.068-0.091-0.338-0.1-0.426c-0.068-0.643-0.009-1.051,0.112-1.607h0.003c0.009-0.031,0.012-0.061,0.021-0.09
				c0.059-0.217,0.147-0.42,0.264-0.604c0.112-0.178,0.26-0.33,0.436-0.451c0.172-0.115,0.387-0.174,0.64-0.174
				c0.267,0,0.482,0.057,0.643,0.174c0.162,0.119,0.292,0.27,0.385,0.451c0.095,0.184,0.159,0.387,0.191,0.6
				c0.026,0.191,0.036,0.373,0.041,0.547l-0.638,0.014l-0.731,0.01l-0.628-0.01c0,0-0.077,0-0.174-0.002
				c-0.079,0.01-0.28,0.061-0.28,0.285c0,0.217,0.179,0.256,0.259,0.266c0.097-0.002,0.168-0.004,0.168-0.004l0.623-0.012
				l1.163,0.012c0,0,0.319,0.004,0.632,0.01c0.651,0,0.637-0.508,0.637-0.508C60.973,73.271,60.926,72.967,60.832,72.686
				 M67.903,76.361c0.208,0,0.404-0.055,0.579-0.168c0.176-0.115,0.335-0.285,0.469-0.5c0.136-0.221,0.246-0.488,0.321-0.795
				c0.079-0.309,0.118-0.658,0.118-1.039c0-0.328-0.04-0.621-0.121-0.875c-0.08-0.25-0.186-0.463-0.312-0.633
				c-0.129-0.166-0.275-0.293-0.443-0.379c-0.164-0.086-0.336-0.131-0.513-0.131c-0.214,0-0.419,0.039-0.617,0.123
				c-0.192,0.078-0.361,0.209-0.505,0.395c-0.145,0.184-0.264,0.434-0.353,0.734c-0.087,0.305-0.131,0.684-0.131,1.129
				C66.396,75.662,66.889,76.361,67.903,76.361 M67.956,76.846c-1.453,0-2.536-0.857-2.536-0.857l0.027-0.801l0.019-0.863
				l0.007-0.816v-2c0-0.689-0.017-0.51-0.039-1.189c-0.007-0.66,1.164-1.27,1.139-0.992c-0.037,0.436-0.127,1.43-0.127,1.992
				c0,0.559-0.013,0.602-0.02,0.895c0.22-0.312,0.458-0.555,0.714-0.711c0.308-0.193,0.669-0.291,1.073-0.291
				c0.389,0,0.73,0.076,1.014,0.225c0.287,0.148,0.525,0.348,0.711,0.592c0.187,0.244,0.328,0.529,0.422,0.852
				c0.092,0.318,0.139,0.66,0.139,1.012c0,0.434-0.064,0.838-0.193,1.199c-0.131,0.363-0.311,0.678-0.536,0.938
				c-0.228,0.264-0.499,0.467-0.81,0.607C68.649,76.775,68.311,76.846,67.956,76.846 M74.903,73.68c0,0.111-0.026,1.447-0.054,2.129
				c-0.012,0.66,1.337,1.229,1.312,0.951c-0.039-0.422-0.142-2.162-0.144-2.73c-0.188-0.035-0.353-0.168-0.537-0.26
				C75.289,73.676,75.064,73.801,74.903,73.68 M55.543,74.418l-0.011-0.545v-1.301h0.003v-0.426h-0.006
				c0.011-0.598,0.069-1.234,0.094-1.836c-0.479,0.09-0.775,0.082-1.247,0l0.036,0.621l0.031,0.561l0.028,1.021v0.059h0.002v0.242
				c-0.131,0.002-0.964,0.018-0.964,0.018l-1.133,0.008l-0.596-0.004l-0.219-0.004c0,0-0.634-0.016-0.736-0.016v-0.303l0.028-1.021
				l0.032-0.561l0.038-0.621c-0.483,0.082-0.795,0.09-1.284,0c0.174,2.156,0.09,4.23,0.028,6.391l0.635,0.012l0.613,0.029v-0.086
				l-0.062-1.371l-0.028-1.412v-0.387c0.097-0.002,0.287-0.01,0.287-0.01l0.449-0.008l0.223-0.002l0.592-0.006l1.133,0.008
				c0,0,0.829,0.016,0.964,0.018v0.387l-0.027,1.412l-0.024,0.508h0.002c-0.018,0.324-0.039,0.662-0.06,0.955
				c-0.026,0.391,0.042,0.586,0.109,0.695c0.181,0.281,1.165-0.316,1.157-0.975C55.61,75.93,55.562,74.887,55.543,74.418
				 M74.227,75.943c-0.207,0.172-0.593,0.33-0.921,0.33c-0.308,0-0.56-0.139-0.745-0.334c-0.324-0.334-0.476-0.967-0.453-1.877
				c0.033-1.457,0.7-2.293,1.543-2.293c0.302,0,0.54,0.096,0.73,0.295c0.355,0.371,0.523,1.1,0.498,2.162l-0.001,0.023
				c0.208-0.113,0.476-0.102,0.704-0.102c0.146,0,0.286-0.016,0.424-0.039c0.001-0.031,0.001-0.051,0.001-0.051
				c0.022-0.889-0.224-1.629-0.711-2.137c-0.425-0.441-1.022-0.684-1.678-0.684c-1.569,0-2.799,1.154-2.758,2.805
				c0.042,1.801,0.905,2.795,2.423,2.795c0.546,0,0.987-0.273,1.25-0.547c0,0,0.192-0.236,0.055-0.375
				C74.541,75.869,74.384,75.812,74.227,75.943 M76.958,74.932l-0.016,0.637l-0.014,0.271c0,0.004-0.039,0.668-0.067,0.898
				c-0.004,0.023,0.009,0.045,0.029,0.061c0.082,0.059,0.385,0.012,0.645-0.133c0.335-0.184,0.516-0.477,0.509-0.826
				c-0.004-0.15-0.017-0.273-0.017-0.275l-0.016-0.633l-0.008-0.816v-0.557h0.008c-0.006-0.207-0.008-0.42-0.008-0.629
				c0.007-0.967-0.021-1.953,0.029-2.916c0.002-0.004,0.041-0.547,0.07-0.732c0.002-0.023-0.007-0.043-0.025-0.059
				c-0.078-0.055-0.443-0.01-0.734,0.148c-0.283,0.152-0.429,0.377-0.423,0.641c0.005,0.123,0.015,0.223,0.017,0.227
				c0.035,1.104,0.026,2.217,0.014,3.32h0.012v0.557L76.958,74.932"/>
			<path fill="#FFFFFF" d="M82.027,80.908c0.154,0.211,0.23,0.5,0.23,0.861c0,0.248-0.053,0.498-0.158,0.738
				c-0.107,0.24-0.26,0.457-0.459,0.648s-0.441,0.342-0.719,0.449c-0.278,0.107-0.596,0.16-0.945,0.16
				c-0.379,0-0.702-0.037-0.964-0.115c-0.258-0.074-0.478-0.162-0.653-0.264l-0.06-0.045l0.171-0.494
				c0.052-0.176,0.076-0.32,0.076-0.434v-0.092h0.291l0.023,0.051c0.037,0.072,0.097,0.158,0.178,0.25
				c0.078,0.092,0.176,0.182,0.289,0.262c0.11,0.08,0.237,0.15,0.38,0.205c0.138,0.051,0.291,0.078,0.451,0.078
				c0.146,0,0.284-0.021,0.416-0.066c0.129-0.047,0.247-0.111,0.349-0.195c0.101-0.08,0.179-0.188,0.237-0.312
				c0.06-0.125,0.09-0.273,0.09-0.441c0-0.227-0.062-0.396-0.186-0.516c-0.138-0.125-0.306-0.232-0.502-0.312
				c-0.206-0.084-0.436-0.16-0.684-0.225c-0.259-0.068-0.499-0.164-0.716-0.285c-0.223-0.125-0.411-0.291-0.558-0.498
				c-0.152-0.211-0.229-0.502-0.229-0.863c0-0.279,0.045-0.541,0.139-0.775s0.23-0.441,0.41-0.613
				c0.18-0.174,0.402-0.309,0.664-0.406s0.561-0.148,0.896-0.148c0.312,0,0.578,0.045,0.794,0.127
				c0.184,0.1,0.637,0.223,0.461,0.783l-0.107,0.402l-0.019,0.074h-0.28l-0.021-0.062c-0.057-0.178-0.176-0.342-0.35-0.484
				c-0.17-0.143-0.38-0.215-0.636-0.215c-0.108,0-0.225,0.021-0.336,0.059c-0.112,0.037-0.212,0.094-0.301,0.168
				c-0.085,0.072-0.16,0.17-0.221,0.291c-0.059,0.119-0.087,0.262-0.087,0.426c0,0.236,0.062,0.42,0.187,0.547
				c0.133,0.133,0.299,0.238,0.498,0.318c0.207,0.08,0.438,0.15,0.684,0.209c0.256,0.064,0.498,0.152,0.717,0.268
				C81.689,80.537,81.877,80.699,82.027,80.908"/>
			<path fill="#FFFFFF" d="M53.299,79.742c-0.201-0.104-0.423-0.188-0.657-0.244c-0.228-0.055-0.438-0.123-0.631-0.195
				c-0.183-0.07-0.337-0.17-0.458-0.291c-0.115-0.115-0.174-0.285-0.174-0.504c0-0.152,0.027-0.285,0.081-0.395
				c0.056-0.107,0.124-0.199,0.204-0.268c0.082-0.066,0.175-0.121,0.275-0.152c0.104-0.037,0.207-0.053,0.311-0.053
				c0.232,0,0.431,0.064,0.588,0.193c0.157,0.135,0.268,0.285,0.321,0.449l0.017,0.057h0.259l0.016-0.07l0.101-0.371
				c0.142-0.506-0.426-0.717-0.426-0.717c-0.198-0.08-0.443-0.117-0.73-0.117c-0.309,0-0.584,0.045-0.824,0.135
				c-0.243,0.09-0.447,0.215-0.613,0.373c-0.164,0.156-0.291,0.348-0.376,0.566c-0.086,0.217-0.131,0.457-0.131,0.715
				c0,0.332,0.072,0.602,0.213,0.795c0.138,0.189,0.31,0.344,0.514,0.461c0.2,0.111,0.422,0.197,0.661,0.258
				c0.227,0.062,0.439,0.133,0.628,0.207c0.185,0.076,0.339,0.174,0.464,0.289c0.113,0.111,0.17,0.266,0.17,0.479
				c0,0.148-0.028,0.289-0.082,0.406c-0.056,0.115-0.127,0.213-0.22,0.287c-0.092,0.078-0.201,0.137-0.32,0.178
				c-0.122,0.041-0.249,0.064-0.384,0.064c-0.147,0-0.287-0.027-0.414-0.074c-0.133-0.051-0.252-0.113-0.352-0.188
				c-0.104-0.076-0.193-0.156-0.268-0.242c-0.072-0.084-0.128-0.162-0.16-0.23l-0.023-0.045c-0.115-0.275-1.098,0.697,0.162,1.223
				c0.229,0.094,0.539,0.105,0.886,0.105c0.323,0,0.617-0.051,0.872-0.148s0.479-0.236,0.661-0.414
				c0.184-0.176,0.326-0.375,0.422-0.596c0.1-0.221,0.147-0.451,0.147-0.68c0-0.334-0.07-0.602-0.211-0.795
				C53.678,80.002,53.504,79.85,53.299,79.742"/>
			<path fill="#FFFFFF" d="M57.142,80.828c-0.201-0.107-0.422-0.188-0.657-0.246c-0.226-0.055-0.438-0.121-0.628-0.193
				c-0.185-0.07-0.338-0.17-0.458-0.293c-0.115-0.115-0.172-0.283-0.172-0.502c0-0.15,0.026-0.283,0.08-0.393
				c0.055-0.109,0.122-0.199,0.204-0.268c0.081-0.068,0.175-0.121,0.274-0.152c0.104-0.037,0.206-0.055,0.31-0.055
				c0.232,0,0.43,0.066,0.587,0.195c0.157,0.135,0.267,0.283,0.32,0.447l0.021,0.057h0.254l0.019-0.068l0.098-0.373
				c0.143-0.504-0.424-0.715-0.424-0.715c-0.197-0.08-0.442-0.115-0.729-0.115c-0.309,0-0.586,0.043-0.824,0.131
				c-0.241,0.092-0.447,0.219-0.609,0.375c-0.166,0.158-0.293,0.346-0.38,0.566c-0.087,0.215-0.13,0.453-0.13,0.715
				c0,0.33,0.072,0.596,0.213,0.791c0.137,0.189,0.311,0.344,0.513,0.459c0.2,0.111,0.421,0.199,0.66,0.262
				c0.228,0.059,0.438,0.127,0.628,0.205c0.183,0.074,0.338,0.17,0.462,0.287c0.113,0.111,0.171,0.266,0.171,0.479
				c0,0.152-0.027,0.287-0.083,0.406c-0.053,0.113-0.126,0.211-0.217,0.285c-0.095,0.076-0.203,0.137-0.321,0.178
				c-0.123,0.043-0.249,0.062-0.383,0.062c-0.148,0-0.287-0.023-0.414-0.072c-0.133-0.049-0.251-0.113-0.351-0.186
				c-0.103-0.076-0.193-0.158-0.267-0.242s-0.127-0.162-0.162-0.232l-0.023-0.043c-0.113-0.277-1.096,0.697,0.163,1.221
				c0.23,0.094,0.538,0.104,0.884,0.104c0.323,0,0.616-0.049,0.871-0.145c0.256-0.098,0.477-0.238,0.66-0.416
				c0.183-0.176,0.324-0.377,0.422-0.596c0.099-0.221,0.147-0.451,0.147-0.678c0-0.332-0.072-0.602-0.213-0.795
				C57.521,81.086,57.347,80.936,57.142,80.828"/>
			<path fill="#FFFFFF" d="M69.921,79.348c0.141-0.199,0.324-0.359,0.548-0.473c0.222-0.115,0.493-0.174,0.805-0.174
				c0.162,0,0.313,0.027,0.45,0.078c0.136,0.051,0.265,0.121,0.379,0.195c0.112,0.082,0.212,0.168,0.295,0.262
				c0.082,0.094,0.146,0.186,0.194,0.275l0.023,0.043h0.195l0.117-0.432l0.154-0.389l-0.042-0.041
				c-0.146-0.133-0.378-0.244-0.705-0.346c-0.322-0.1-0.69-0.15-1.094-0.15c-0.354,0-0.704,0.055-1.046,0.162
				c-0.341,0.109-0.646,0.279-0.911,0.508c-0.263,0.229-0.479,0.523-0.642,0.873c-0.163,0.354-0.242,0.773-0.242,1.258
				c0,0.504,0.078,0.938,0.238,1.289c0.156,0.354,0.37,0.643,0.631,0.863c0.259,0.221,0.555,0.383,0.88,0.475
				c0.321,0.092,0.645,0.141,0.961,0.141c0.353,0,0.701-0.066,1.033-0.191c0.827-0.318,0.99-0.877,0.922-1.043l0.011-0.053
				l-0.158-0.1l-0.044,0.051c-0.088,0.105-0.197,0.207-0.318,0.297c-0.122,0.088-0.254,0.172-0.396,0.238
				c-0.138,0.066-0.283,0.121-0.43,0.16c-0.144,0.037-0.287,0.057-0.426,0.057c-0.586,0-1.037-0.184-1.34-0.545
				c-0.305-0.367-0.458-0.922-0.458-1.652c0-0.328,0.034-0.635,0.1-0.916C69.674,79.791,69.779,79.551,69.921,79.348"/>
			<path fill="#FFFFFF" d="M62.894,79.623c-0.094-0.279-0.241-0.527-0.437-0.736c-0.193-0.207-0.439-0.375-0.727-0.502
				c-0.288-0.123-0.633-0.184-1.026-0.184c-0.83,0-1.475,0.264-1.909,0.791c-0.436,0.521-0.655,1.248-0.655,2.16
				c0,0.373,0.065,0.723,0.196,1.047c0.129,0.32,0.318,0.604,0.56,0.84c0.242,0.236,0.534,0.42,0.864,0.543
				c0.332,0.123,0.701,0.184,1.098,0.184c0.354,0,0.703-0.062,1.033-0.191c1.122-0.432,0.934-1.1,0.934-1.1l-0.156-0.092
				l-0.043,0.051c-0.09,0.105-0.199,0.203-0.32,0.295c-0.121,0.09-0.254,0.17-0.395,0.236c-0.139,0.068-0.284,0.123-0.432,0.16
				c-0.145,0.039-0.29,0.059-0.428,0.059c-0.291,0-0.553-0.051-0.772-0.15c-0.222-0.102-0.409-0.238-0.562-0.408
				c-0.153-0.168-0.27-0.375-0.35-0.607c-0.022-0.068-0.092-0.334-0.101-0.422c-0.067-0.635-0.007-1.041,0.116-1.588h0.002
				c0.007-0.031,0.01-0.061,0.019-0.088c0.06-0.219,0.147-0.416,0.264-0.6c0.114-0.174,0.263-0.324,0.438-0.443
				c0.171-0.115,0.386-0.174,0.638-0.174c0.267,0,0.485,0.057,0.642,0.174c0.164,0.117,0.295,0.266,0.388,0.443
				c0.093,0.184,0.157,0.381,0.188,0.596c0.027,0.189,0.038,0.367,0.042,0.539l-0.638,0.014l-0.732,0.01l-0.627-0.01
				c0,0-0.074-0.002-0.174-0.004c-0.08,0.01-0.281,0.062-0.281,0.283c0,0.215,0.18,0.254,0.26,0.26c0.097,0,0.17-0.004,0.17-0.004
				l0.623-0.008l1.16,0.008c0,0,0.32,0.006,0.635,0.01c0.649,0,0.633-0.498,0.633-0.498C63.031,80.203,62.986,79.9,62.894,79.623"/>
			<path fill="#FFFFFF" d="M45.102,78.398c-0.509,0.615-0.769,1.471-0.769,2.543c0,0.438,0.079,0.852,0.229,1.229
				c0.153,0.375,0.375,0.709,0.658,0.986c0.284,0.277,0.624,0.49,1.016,0.637c0.387,0.143,0.82,0.219,1.289,0.219
				c0.417,0,0.825-0.076,1.215-0.225c0.979-0.379,1.095-0.906,1.095-1.139c0-0.059-0.005-0.092-0.009-0.105
				c-0.02-0.014-0.103-0.064-0.141-0.086c-0.014,0.018-0.03,0.033-0.03,0.033c-0.108,0.127-0.237,0.248-0.384,0.357
				c-0.145,0.109-0.307,0.205-0.479,0.287c-0.166,0.082-0.342,0.146-0.521,0.191c-0.177,0.047-0.352,0.072-0.519,0.072
				c-0.353,0-0.667-0.062-0.932-0.184c-0.27-0.121-0.498-0.287-0.686-0.492c-0.183-0.205-0.325-0.453-0.422-0.738
				c-0.027-0.082-0.109-0.4-0.121-0.51c-0.077-0.734-0.016-1.217,0.135-1.9l0.014-0.043l0.016-0.066
				c0.072-0.26,0.18-0.504,0.318-0.721c0.139-0.213,0.316-0.396,0.532-0.541c0.214-0.141,0.475-0.215,0.782-0.215
				c0.322,0,0.588,0.074,0.787,0.215c0.199,0.143,0.359,0.328,0.472,0.545c0.114,0.223,0.189,0.463,0.228,0.717
				c0.03,0.201,0.045,0.404,0.051,0.646c0,0.021-0.017,0.041-0.041,0.043l-0.757,0.02l-0.871,0.01l-0.747-0.01l-0.206-0.006
				c-0.105,0.016-0.291,0.072-0.291,0.293c0,0.215,0.168,0.264,0.271,0.271l0.196-0.004l0.74-0.012l1.382,0.012l0.754,0.012
				c0.25,0,0.442-0.068,0.563-0.195c0.153-0.156,0.15-0.357,0.15-0.357c0-0.369-0.057-0.721-0.164-1.051
				c-0.108-0.326-0.28-0.613-0.51-0.859c-0.229-0.242-0.517-0.441-0.851-0.584c-0.338-0.148-0.741-0.221-1.203-0.221
				C46.368,77.473,45.613,77.783,45.102,78.398"/>
			<path fill="#FFFFFF" d="M77.926,79.623c-0.095-0.279-0.243-0.527-0.438-0.736c-0.194-0.207-0.438-0.375-0.727-0.502
				c-0.287-0.123-0.631-0.184-1.025-0.184c-0.832,0-1.474,0.264-1.912,0.791c-0.434,0.521-0.655,1.248-0.655,2.16
				c0,0.373,0.068,0.723,0.197,1.047c0.131,0.32,0.319,0.604,0.562,0.84s0.533,0.42,0.865,0.543c0.33,0.123,0.698,0.184,1.098,0.184
				c0.354,0,0.7-0.062,1.034-0.191c1.12-0.432,0.931-1.1,0.931-1.1l-0.156-0.092l-0.042,0.051c-0.092,0.105-0.199,0.203-0.319,0.295
				c-0.123,0.09-0.255,0.17-0.396,0.236c-0.14,0.068-0.283,0.123-0.433,0.16c-0.145,0.039-0.288,0.059-0.426,0.059
				c-0.293,0-0.554-0.051-0.772-0.15c-0.222-0.102-0.41-0.238-0.562-0.408c-0.152-0.168-0.27-0.375-0.35-0.607
				c-0.021-0.068-0.09-0.334-0.1-0.422c-0.067-0.635-0.008-1.041,0.115-1.588l0,0c0.008-0.031,0.013-0.061,0.022-0.088
				c0.059-0.219,0.146-0.416,0.261-0.6c0.115-0.174,0.262-0.324,0.439-0.443c0.17-0.115,0.386-0.174,0.639-0.174
				c0.268,0,0.481,0.057,0.642,0.174c0.165,0.117,0.294,0.266,0.386,0.443c0.094,0.184,0.159,0.381,0.188,0.596
				c0.029,0.189,0.039,0.367,0.043,0.539l-0.638,0.014l-0.731,0.01l-0.628-0.01c0,0-0.076-0.002-0.173-0.004
				c-0.081,0.01-0.281,0.062-0.281,0.283c0,0.215,0.181,0.254,0.259,0.26c0.096,0,0.17-0.004,0.17-0.004l0.624-0.008l1.16,0.008
				c0,0,0.319,0.006,0.633,0.01c0.649,0,0.636-0.498,0.636-0.498C78.064,80.203,78.018,79.9,77.926,79.623"/>
			<path fill="#FFFFFF" d="M67.886,81.945h-0.986c0,0.348,0.002,0.826,0.002,0.826c0,1.107,1.065,0.9,1.065,0.9
				c-0.036-0.309-0.061-0.648-0.07-1.002L67.886,81.945"/>
			<path fill="#FFFFFF" d="M64.444,82.543l-0.019-1.027v-0.93c0-0.055,0.008-0.104,0.01-0.156l-0.002-1.184
				c0-1.109-1.056-0.904-1.056-0.904c0.034,0.311,0.058,0.648,0.069,1.004l0.017,1.031v1.139l-0.017,1.027
				c-0.012,0.357-0.035,0.686-0.069,0.973l-0.012,0.094l0.579-0.033l0.576,0.033l-0.008-0.094
				C64.476,83.229,64.453,82.902,64.444,82.543"/>
			<path fill="#FFFFFF" d="M66.619,79.26c0.199,0.268,0.3,0.67,0.3,1.195v0.666L66.9,81.984h0.986l0.014-0.889l0.021-0.973
				c0-0.385-0.055-0.709-0.163-0.965c-0.11-0.252-0.254-0.459-0.429-0.607c-0.174-0.148-0.373-0.256-0.59-0.316
				c-0.209-0.061-0.423-0.092-0.634-0.092c-0.403,0-0.757,0.092-1.052,0.27c-0.09,0.055-0.175,0.119-0.255,0.189
				c-0.279,0.246-0.159,0.818,0.046,0.615c0.225-0.227,0.545-0.344,0.968-0.344C66.161,78.873,66.424,79,66.619,79.26"/>
		</g>
		<g>
			<g>
				<circle fill="none" stroke="#6CBF5C" stroke-miterlimit="10" cx="63.109" cy="55.848" r="7.888"/>
				<circle fill="none" stroke="#FFFFFF" stroke-miterlimit="10" cx="63.15" cy="55.807" r="9.306"/>
			</g>
			<g>
				<g>
					<path fill-rule="evenodd" clip-rule="evenodd" fill="#FFFFFF" d="M63.661,65.559c0.029-0.02,2.215,0.006,4.57-1.33
						c1.165-0.65,2.321-1.624,3.195-2.795c0.884-1.163,1.481-2.502,1.775-3.716c0.228-0.648,0.4-1.321,0.515-2.011
						c0.032-0.172,0.052-0.346,0.074-0.52c0.009-0.104,0.025-0.139,0.029-0.298l0.017-0.436c0.007-0.581-0.029-1.167-0.112-1.751
						c-0.023-0.282-0.073-0.601-0.104-0.771c-0.015-0.098-0.034-0.194-0.059-0.291c0.039,0.042,0.08,0.082,0.125,0.12
						c0.1,0.073,0.213,0.144,0.363,0.165c0.026-0.011,0.066,0.003,0.096,0c0.062-0.005,0.132-0.035,0.181-0.061
						c0.032-0.018,0.051-0.043,0.076-0.06c0.009-0.005,0.017,0.002,0.022-0.004c0.03-0.025,0.074-0.088,0.098-0.124l0.027-0.054
						c0.001-0.002,0.009,0.002,0.011-0.002c0.043-0.085,0.064-0.194,0.069-0.324c0-0.008-0.01-0.006-0.007-0.017
						c0-0.038-0.001-0.076-0.007-0.112c-0.027-0.192-0.144-0.396-0.27-0.494c-0.113-0.091-0.286-0.117-0.396-0.063
						c-0.093,0.046-0.165,0.173-0.185,0.336c-0.016,0.145,0.013,0.298,0.101,0.369c-0.004-0.051,0.003-0.093,0.025-0.115
						c0.025-0.011,0.051-0.021,0.092-0.007c0.052,0.036,0.1,0.104,0.081,0.195c-0.025,0.128-0.157,0.183-0.264,0.1
						c-0.021-0.027-0.053-0.048-0.069-0.065c-0.039-0.04-0.068-0.076-0.099-0.117c-0.08-0.109-0.187-0.241-0.246-0.347l-0.03-0.056
						l-0.337-0.998l0.004,0.008c0.053,0.08,0.101,0.136,0.16,0.2l0.062,0.077c0.007,0.008,0.021,0.008,0.03,0.016
						c0.029,0.027,0.053,0.058,0.087,0.082c0.107,0.078,0.265,0.143,0.405,0.097c0.086-0.062,0.154-0.148,0.161-0.32l-0.003-0.054
						c-0.036-0.239-0.239-0.382-0.417-0.316c-0.01,0.018-0.022,0.032-0.04,0.04c-0.042,0.072-0.021,0.248,0.052,0.293
						c-0.012-0.036-0.016-0.052,0.001-0.075c0.058-0.032,0.12,0.049,0.088,0.12c-0.055,0.047-0.116,0.04-0.195,0.009
						c-0.032-0.013-0.059-0.036-0.09-0.057c-0.042-0.028-0.085-0.05-0.117-0.081c-0.03-0.028-0.053-0.065-0.078-0.097l-0.021-0.02
						l-0.054-0.066l-0.063-0.107l-0.044-0.051l-0.023-0.039c-0.075-0.322-0.12-0.61-0.051-0.933
						c0.119-0.641,0.865-0.278,0.594,0.059c-0.262-0.138-0.745-0.337-0.262,0.465c0.313,0.396,0.707,0.244,0.886-0.15
						c0.181-0.39,0.124-1.058-0.444-1.486c-0.962-0.69-1.275,0.3-1.192,1.038c0.131,1.128,0.54,2.071,0.879,3.127
						c-0.774-0.998-1.279-2.396-1.278-3.645c0.024-0.63,0.131-1.434,0.686-1.732c0.581-0.293,0.726,0.762,0.28,0.246
						c-0.197,0.194,0.101,0.521,0.453,0.686c0.354,0.159,0.788,0.171,0.853-0.441c0.046-0.55-0.347-1.007-0.83-1.243
						c-0.482-0.243-1.041-0.265-1.344-0.11c-0.984,0.521-0.823,1.531-0.522,2.53c0.323,1.007,0.784,2.102,1.053,2.817
						c-0.803-1.031-1.583-2.52-2.25-3.691c-0.248-0.464-0.519-1.059-0.547-1.577c-0.056-0.804,0.93-0.631,0.866-0.409
						c-0.06,0.162-0.703-0.23-0.412,0.354c0.234,0.51,0.958,0.318,1.254,0.163c0.679-0.366,0.437-1.025-0.185-1.447
						c-0.619-0.421-1.557-0.514-2.017,0.02c-1.005,1.206-0.225,2.258,0.625,3.32c0.894,1.043,1.929,2.296,2.328,3.056l-0.077-0.041
						c-0.382-0.437-0.857-0.785-1.362-1.009c-0.488-0.529-0.768-1.159-1.113-1.869c-0.342-0.702-0.75-1.49-1.428-2.148
						c-0.792-0.765-2.075-0.756-2.902-1.374c-0.455-0.339-0.796-0.633-0.949-1.174c-0.143-0.928,1.198-0.864,0.87-0.433
						c-0.23-0.007-0.125-0.101-0.28-0.122c-0.556,0.299,0.424,0.94,0.961,0.745c0.988-0.34,0.631-1.326-0.342-1.739
						c-1.354-0.219-2.07,0.389-2.284,1.098c-0.224,0.719-0.021,1.601,0.274,2.233c0.81,1.688,1.68,2.36,2.765,2.846
						c1.063,0.477,2.43,0.86,3.554,1.636c-0.42-0.103-0.843-0.022-1.253,0.082c-0.724,0.174-1.404,0.829-1.287,1.485
						c-0.254,0.331-0.468,0.668-0.468,0.95c-0.001,0.329,0.323,0.374,0.792,0.151c0.231-0.155,0.358-0.293,0.386-0.505
						c0.014-0.138-0.208-0.406-0.335-0.081c0.188,0.001-0.01,0.143-0.13,0.171c-0.101-0.138,0.022-0.301,0.252-0.493l0.005-0.005
						c0.559-0.469,1.064-0.786,1.528-0.933l0,0c-0.025,0.047-0.03,0.087-0.049,0.126c-0.007,0.013-0.02,0.015-0.023,0.025
						c-0.018,0.051-0.029,0.146-0.036,0.198l-0.001,0.069c0,0.004-0.012,0.007-0.012,0.013c-0.004,0.111,0.024,0.224,0.078,0.339
						c0.004,0.007,0.014-0.003,0.016,0.009c0.017,0.033,0.033,0.066,0.055,0.094c0.117,0.14,0.332,0.236,0.521,0.246
						c0.174,0.006,0.411-0.083,0.534-0.215c0.104-0.111,0.15-0.304,0.1-0.499c-0.052-0.171-0.165-0.321-0.319-0.313
						c0.035,0.048,0.051,0.098,0.034,0.14c-0.025,0.032-0.053,0.063-0.109,0.084c-0.081,0.006-0.176-0.019-0.205-0.124
						c-0.03-0.111,0.03-0.239,0.138-0.3c0.781,0.021,1.43,0.563,1.832,1.356l-0.008-0.009c-0.095-0.084-0.174-0.137-0.273-0.193
						c-0.036-0.021-0.069-0.055-0.103-0.071c-0.013-0.006-0.032,0-0.047-0.006c-0.046-0.019-0.092-0.042-0.146-0.054
						c-0.175-0.038-0.406-0.019-0.578,0.121c-0.099,0.125-0.157,0.257-0.137,0.45l0.015,0.058c0.097,0.236,0.373,0.318,0.62,0.17
						c0.012-0.025,0.027-0.049,0.053-0.065c0.052-0.105-0.013-0.312-0.121-0.332c0.022,0.038,0.032,0.056,0.014,0.092
						c-0.074,0.065-0.172-0.002-0.145-0.101c0.063-0.083,0.151-0.11,0.266-0.109c0.047,0,0.088,0.018,0.137,0.028
						c0.063,0.016,0.128,0.024,0.182,0.05c0.048,0.023,0.088,0.062,0.129,0.093l0.031,0.018c0.031,0.024,0.06,0.041,0.087,0.067
						l0.105,0.122l0.067,0.056l0.035,0.042l0.125,0.407c0.044,0.166,0.109,0.386,0.146,0.572c0.262,0.723,0.426,1.491,0.485,2.275
						c0.182,1.534-0.126,3.155-0.836,4.577c-0.568,1.029-1.363,2.001-2.276,2.768c-0.909,0.774-1.932,1.33-2.869,1.683
						c-1.893,0.704-3.364,0.601-3.399,0.618c-0.158,0.004-0.288,0.216-0.289,0.474S63.484,65.562,63.661,65.559z"/>
				</g>
			</g>
		</g>
		<g>
			<path fill="#FFFFFF" d="M58.808,89.751h0.494v1.727h0.012c0.177-0.307,0.494-0.499,0.938-0.499c0.688,0,1.165,0.568,1.165,1.397
				c0,0.982-0.625,1.472-1.239,1.472c-0.396,0-0.715-0.153-0.926-0.512h-0.012l-0.027,0.449h-0.427
				c0.012-0.188,0.022-0.466,0.022-0.711V89.751z M59.302,92.683c0,0.062,0.006,0.125,0.023,0.182
				c0.091,0.347,0.387,0.586,0.75,0.586c0.528,0,0.836-0.427,0.836-1.058c0-0.551-0.285-1.022-0.824-1.022
				c-0.336,0-0.654,0.238-0.756,0.613c-0.018,0.062-0.029,0.131-0.029,0.211V92.683z"/>
			<path fill="#FFFFFF" d="M64.528,92.387c0,1.018-0.711,1.461-1.369,1.461c-0.739,0-1.318-0.546-1.318-1.415
				c0-0.915,0.607-1.454,1.363-1.454C63.993,90.979,64.528,91.552,64.528,92.387z M62.352,92.416c0,0.602,0.341,1.057,0.829,1.057
				c0.478,0,0.836-0.449,0.836-1.068c0-0.466-0.233-1.051-0.824-1.051C62.607,91.354,62.352,91.898,62.352,92.416z"/>
			<path fill="#FFFFFF" d="M67.526,89.751v3.323c0,0.245,0.011,0.523,0.022,0.711h-0.443l-0.022-0.478h-0.018
				c-0.147,0.307-0.477,0.54-0.926,0.54c-0.664,0-1.182-0.562-1.182-1.398c-0.006-0.914,0.568-1.471,1.232-1.471
				c0.426,0,0.705,0.198,0.83,0.414h0.012v-1.642H67.526z M67.032,92.154c0-0.062-0.006-0.147-0.023-0.21
				c-0.074-0.312-0.347-0.574-0.721-0.574c-0.518,0-0.824,0.454-0.824,1.057c0,0.558,0.278,1.018,0.812,1.018
				c0.335,0,0.642-0.228,0.732-0.597c0.018-0.068,0.023-0.137,0.023-0.216V92.154z"/>
			<path fill="#FFFFFF" d="M68.541,91.035l0.597,1.625c0.068,0.182,0.137,0.397,0.182,0.562h0.012
				c0.051-0.165,0.107-0.375,0.176-0.574l0.546-1.613h0.528l-0.75,1.96c-0.357,0.943-0.603,1.42-0.943,1.722
				c-0.25,0.21-0.488,0.295-0.613,0.318l-0.125-0.415c0.125-0.04,0.289-0.119,0.438-0.244c0.137-0.108,0.301-0.301,0.42-0.557
				c0.023-0.052,0.04-0.091,0.04-0.119c0-0.029-0.011-0.068-0.04-0.131l-1.012-2.534H68.541z"/>
			<path fill="#FFFFFF" d="M58.973,97.85l0.37,1.397c0.073,0.307,0.147,0.591,0.198,0.875h0.017
				c0.062-0.278,0.154-0.574,0.245-0.869l0.448-1.403h0.421l0.426,1.375c0.103,0.329,0.183,0.619,0.245,0.897h0.017
				c0.046-0.278,0.119-0.568,0.21-0.892l0.393-1.381h0.494l-0.887,2.75h-0.455l-0.42-1.312c-0.096-0.307-0.176-0.579-0.244-0.903
				h-0.012c-0.068,0.329-0.153,0.613-0.25,0.909l-0.443,1.307h-0.454l-0.829-2.75H58.973z"/>
			<path fill="#FFFFFF" d="M64.862,99.94c0,0.239,0.012,0.472,0.04,0.659h-0.449l-0.04-0.347h-0.017
				c-0.153,0.216-0.448,0.409-0.841,0.409c-0.557,0-0.841-0.393-0.841-0.79c0-0.664,0.591-1.028,1.653-1.022v-0.057
				c0-0.222-0.062-0.637-0.625-0.631c-0.262,0-0.528,0.074-0.722,0.204l-0.114-0.335c0.229-0.142,0.563-0.238,0.91-0.238
				c0.84,0,1.045,0.573,1.045,1.119V99.94z M64.38,99.196c-0.546-0.012-1.165,0.085-1.165,0.619c0,0.33,0.216,0.478,0.466,0.478
				c0.363,0,0.597-0.228,0.676-0.46c0.018-0.058,0.023-0.114,0.023-0.159V99.196z"/>
			<path fill="#FFFFFF" d="M65.6,100.094c0.153,0.091,0.415,0.193,0.665,0.193c0.357,0,0.527-0.177,0.527-0.409
				c0-0.238-0.142-0.363-0.505-0.5c-0.5-0.182-0.733-0.449-0.733-0.778c0-0.443,0.363-0.807,0.949-0.807
				c0.278,0,0.522,0.074,0.67,0.171l-0.119,0.363c-0.107-0.068-0.307-0.165-0.562-0.165c-0.295,0-0.454,0.171-0.454,0.375
				c0,0.228,0.159,0.329,0.517,0.472c0.472,0.176,0.723,0.415,0.723,0.824c0,0.488-0.381,0.829-1.023,0.829
				c-0.301,0-0.58-0.08-0.772-0.193L65.6,100.094z"/>
			<path fill="#FFFFFF" d="M67.917,96.565h0.5v1.722h0.011c0.079-0.143,0.204-0.272,0.358-0.358
				c0.147-0.085,0.324-0.136,0.511-0.136c0.37,0,0.96,0.228,0.96,1.17v1.637h-0.5v-1.58c0-0.442-0.164-0.812-0.636-0.812
				c-0.324,0-0.574,0.228-0.671,0.495c-0.028,0.073-0.033,0.147-0.033,0.238v1.659h-0.5V96.565z"/>
		</g>
	</g>
</g>
</svg>
