<?xml version="1.0" encoding="utf-8"?>
<!-- Generator: Adobe Illustrator 15.1.0, SVG Export Plug-In . SVG Version: 6.00 Build 0)  -->
<!DOCTYPE svg PUBLIC "-//W3C//DTD SVG 1.1//EN" "http://www.w3.org/Graphics/SVG/1.1/DTD/svg11.dtd">
<svg version="1.1" id="Capa_1" xmlns="http://www.w3.org/2000/svg" xmlns:xlink="http://www.w3.org/1999/xlink" x="0px" y="0px"
	 width="126.75px" height="130.068px" viewBox="0 0 126.75 130.068" enable-background="new 0 0 126.75 130.068"
	 xml:space="preserve">
<g>
	<g>
		<g>
			<g>
				<defs>
					<rect id="SVGID_1_" x="11.614" y="10.013" width="102.527" height="108.934"/>
				</defs>
				<clipPath id="SVGID_2_">
					<use xlink:href="#SVGID_1_"  overflow="visible"/>
				</clipPath>
				<use xlink:href="#SVGID_1_"  overflow="visible" fill="none" stroke="#595A5C" stroke-width="2" stroke-miterlimit="10"/>
			</g>
			<path fill="none" stroke="#595A5C" stroke-width="2" stroke-linecap="round" stroke-linejoin="round" stroke-miterlimit="10" d="
				M124.608,37.758l0.148-4.856c-2.123,0-3.906-1.375-4.559-3.277v-3.121c0.652-1.9,2.436-3.276,4.559-3.276l-0.051-4.134
				c-2.061,0-3.811-1.293-4.508-3.108v-3.453c0.697-1.817,2.447-3.113,4.508-3.113l0.049-4.219h-4.557V0.295l-5.031,0.047
				c0,2.673-2.098,4.838-4.682,4.838c-2.582,0-4.674-2.165-4.674-4.838l-3.998-0.048c0,2.673-2.091,4.84-4.677,4.84
				c-2.583,0-4.678-2.167-4.678-4.84l-4.696-0.197c0,2.671-2.096,4.839-4.68,4.839c-2.583,0-4.68-2.168-4.68-4.839l-3.992,0.099
				c0,2.671-2.093,4.838-4.676,4.838c-2.588,0-4.68-2.167-4.68-4.838l-5.309,0.047c0,2.674-2.093,4.84-4.679,4.84
				c-2.583,0-4.678-2.166-4.678-4.84l-3.993-0.094c0,2.672-2.094,4.836-4.678,4.836c-2.583,0-4.68-2.164-4.68-4.836L32.344,0
				c0,2.672-2.093,4.837-4.68,4.837c-2.579,0-4.675-2.165-4.675-4.837l-3.997,0.05c0,2.671-2.092,4.839-4.677,4.839
				c-2.583,0-4.678-2.168-4.678-4.839L5.556,0.002v5.197H1.002L1.05,9.418c2.061,0,3.809,1.296,4.506,3.11v3.457
				C4.858,17.8,3.11,19.093,1.05,19.093L1,23.227c2.123,0,3.905,1.376,4.556,3.274v3.123C4.905,31.526,3.123,32.901,1,32.901
				l0.147,4.856c1.969,0,3.653,1.18,4.408,2.868v3.944c-0.755,1.686-2.439,2.865-4.408,2.865l0.096,4.129
				c1.896,0,3.52,1.099,4.312,2.686v4.305c-0.793,1.587-2.417,2.688-4.312,2.688l-0.048,5.489c1.932,0,3.586,1.139,4.36,2.778v4.119
				c-0.774,1.638-2.429,2.777-4.36,2.777l-0.098,4.129c2.005,0,3.727,1.225,4.458,2.964v3.753c-0.731,1.739-2.453,2.963-4.458,2.963
				l0.196,4.855c1.857,0,3.451,1.058,4.262,2.594v4.488c-0.811,1.537-2.404,2.594-4.262,2.594l0.048,4.133
				c1.821,0,3.39,1.017,4.214,2.502v4.665c-0.824,1.488-2.393,2.507-4.214,2.507l-0.048,5.206h4.262v5.198l4.082-0.048
				c0-2.673,2.095-4.84,4.678-4.84c2.585,0,4.677,2.167,4.677,4.84l3.997,0.051c0-2.674,2.096-4.838,4.675-4.838
				c2.587,0,4.68,2.164,4.68,4.838l4.696-0.148c0-2.674,2.097-4.838,4.68-4.838c2.584,0,4.678,2.164,4.678,4.838l3.993-0.096
				c0-2.673,2.095-4.841,4.678-4.841c2.586,0,4.679,2.168,4.679,4.841l5.309,0.048c0-2.672,2.092-4.838,4.68-4.838
				c2.583,0,4.676,2.166,4.676,4.838l3.992,0.099c0-2.671,2.097-4.839,4.68-4.839c2.584,0,4.68,2.168,4.68,4.839l4.696-0.198
				c0-2.672,2.095-4.839,4.678-4.839c2.586,0,4.677,2.167,4.677,4.839l3.998-0.047c0-2.673,2.092-4.84,4.674-4.84
				c2.584,0,4.682,2.167,4.682,4.84l5.031,0.047v-4.905h4.264l-0.048-5.206c-1.823,0-3.39-1.019-4.216-2.508v-4.662
				c0.826-1.487,2.393-2.504,4.216-2.504l0.05-4.133c-1.859,0-3.454-1.059-4.266-2.594v-4.488c0.812-1.534,2.406-2.594,4.266-2.594
				l0.196-4.855c-2.007,0-3.728-1.224-4.462-2.965v-3.749c0.734-1.741,2.455-2.966,4.462-2.966l-0.099-4.129
				c-1.933,0-3.588-1.14-4.363-2.777V69.51c0.775-1.64,2.431-2.778,4.363-2.778l-0.049-5.489c-1.895,0-3.521-1.101-4.314-2.688
				v-4.303c0.793-1.587,2.42-2.688,4.314-2.688l0.096-4.129c-1.969,0-3.656-1.18-4.41-2.867v-3.942
				C120.952,38.939,122.64,37.758,124.608,37.758z"/>
			
				<rect x="11.614" y="10.013" fill="#3B81C4" stroke="#505978" stroke-width="2" stroke-linecap="round" stroke-linejoin="round" stroke-miterlimit="10" width="102.527" height="108.934"/>
		</g>
	</g>
	<g>
		<path fill="#352E7D" d="M74.819,112.894h10.15c2.758,0,4.994-2.525,4.994-5.64V44.211c0-3.115-2.236-5.64-4.994-5.64H40.945
			c-2.759,0-4.993,2.524-4.993,5.64v63.043c0,3.114,2.234,5.64,4.993,5.64H51.57c0,0-1.06-11.141,1.407-11.405l20.312-0.133
			C73.29,101.355,74.704,99.097,74.819,112.894z"/>
		
			<path opacity="0.92" fill="#3F3393" stroke="#3F3393" stroke-width="2" stroke-linecap="round" stroke-linejoin="round" stroke-miterlimit="10" d="
			M34.614,46.931c0,0,0-23.797,3.288-26.146c0,0,38.159-10.215,49.431-0.587c0,0,5.283,7.983,3.405,27.475
			c0,0-0.915-3.873-17.966-3.053C72.772,44.62,39.546,53.115,34.614,46.931z"/>
		<path fill="#2D2869" d="M73.91,107.407c0,3.03-2.407,5.486-5.378,5.486H57.214c-2.971,0-5.378-2.456-5.378-5.486l0,0
			c0-3.03,2.407-5.488,5.378-5.488h11.318C71.503,101.919,73.91,104.377,73.91,107.407L73.91,107.407z"/>
		<circle fill="#FFFFFF" cx="62.874" cy="71.255" r="13.287"/>
		<g>
			<path fill-rule="evenodd" clip-rule="evenodd" fill="#15143F" d="M58.485,63.14l-1.297,5.317c0,0-0.375,1.082,0.422,0.979
				c0.8-0.104,2.48-0.377,2.48-0.377s0.371-0.079,0.512-0.451c0.143-0.37,0.1-0.535-0.437-0.365
				c-0.535,0.169-1.578,0.357-1.704,0.385c-0.127,0.028-0.207-0.005-0.18-0.159c0.053-0.291,1.01-4.477,1.387-5.538
				c0.375-1.063-0.482-0.614-0.552-0.591C59.046,62.361,58.646,62.479,58.485,63.14L58.485,63.14z"/>
			<path fill-rule="evenodd" clip-rule="evenodd" fill="#15143F" d="M63.358,63.345c0,0-0.206-0.188-0.555-0.179
				c-0.347,0.009-1.408,0.253-2.123,1.784c-0.713,1.532-0.524,3.142,0.479,3.092c0.574-0.028,1.02-0.54,1.33-0.897
				c-0.023,0.371,0.362,0.779,0.916,0.513c0,0,0.01-0.902,0.057-1.231c0.047-0.328,0.657-2.753,0.724-2.979
				c0.065-0.226,0.082-0.384-0.255-0.38C63.597,63.07,63.483,63.237,63.358,63.345L63.358,63.345z M62.88,63.777
				c0.24,0.101,0.133,1.003-0.268,1.912c-0.4,0.91-0.924,1.509-1.193,1.391c-0.268-0.118-0.207-0.989,0.193-1.898
				C62.014,64.271,62.642,63.678,62.88,63.777L62.88,63.777z"/>
			<path fill-rule="evenodd" clip-rule="evenodd" fill="#15143F" d="M66.981,62.664c0,0-0.207-0.16-0.488-0.132
				c-0.283,0.028-1.476,0.207-2.199,1.983c-0.723,1.775-0.254,2.922,0.518,2.894c0.77-0.028,1.259-0.762,1.344-0.884
				c0,0,0.131,0.813,0.896,0.521c0,0,0.062-1.033,0.174-1.625s0.701-3.204,1.264-4.887c0,0,0.23-0.502-0.295-0.347
				c-0.527,0.155-0.597,0.53-0.732,0.948C67.325,61.555,67.099,62.246,66.981,62.664L66.981,62.664z M66.563,63.12
				c0.239,0.101,0.087,0.975-0.268,1.912s-0.935,1.546-1.203,1.428s-0.207-1.026,0.223-1.936
				C65.743,63.615,66.325,63.02,66.563,63.12L66.563,63.12z"/>
			<path fill-rule="evenodd" clip-rule="evenodd" fill="#15143F" d="M68.423,62.256c0,0-0.258,0.074-0.149,0.498
				c0.108,0.422,0.522,1.926,0.53,4.021c0,0-0.737,0.874-1.382,1.198c-0.643,0.324,0.283,0.592,0.452,0.588
				c0.17-0.006,0.761-0.202,1.531-1.434c0.77-1.23,1.625-2.979,1.767-3.363c0.141-0.386,0.39-1.058,0.437-1.273
				c0.048-0.216,0.108-0.555-0.084-0.719s-0.414-0.348-0.574,0.184c-0.158,0.53-0.54,2.066-1.301,3.364c0,0-0.216-2.444-0.418-2.881
				c-0.082-0.177-0.153-0.247-0.272-0.271C68.784,62.129,68.554,62.198,68.423,62.256L68.423,62.256z"/>
			<path fill-rule="evenodd" clip-rule="evenodd" fill="#15143F" d="M54.226,72.824c0.382,0.414,0.604,0.864,0.629,1.321
				c0.039,0.698-0.357,1.139-0.827,1.294c-0.515,0.172-1.212,0.051-1.55-0.427c-0.074-0.106-0.266-0.345-0.477-0.024
				c-0.211,0.322-0.277,0.506,0.066,0.783c0.342,0.277,0.742,0.508,1.527,0.46c0.783-0.047,1.512-0.192,2.047-1.047
				c0.536-0.854,0.348-1.907-0.17-2.509c-0.516-0.602-1.324-1.588-1.023-2.265c0.159-0.355,0.543-0.513,0.906-0.518
				c0.661-0.009,0.686,0.389,0.897,0.38c0.138-0.007,0.285-0.219,0.292-0.439c0.01-0.229-0.164-0.453-0.508-0.536
				c-0.612-0.146-1.732-0.05-2.34,0.568C52.805,70.775,53.509,72.043,54.226,72.824L54.226,72.824z"/>
			<path fill-rule="evenodd" clip-rule="evenodd" fill="#15143F" d="M56.992,70.472c0,0-0.013,1.079-0.126,1.554
				c-0.111,0.477-0.328,1.513-0.378,1.701c-0.05,0.188-0.79,2.649-0.876,3.025c-0.09,0.376-0.357,1.002,0.175,0.832
				c0.532-0.168,0.544-0.205,0.707-0.688s0.552-1.674,0.582-1.867c0,0,0.296,0.188,0.685,0.193c0.388,0.008,1.502-0.111,2.229-2.004
				c0.727-1.892,0.283-3.069-0.638-3.069c-0.922,0-1.403,0.902-1.403,0.902S57.923,70.219,56.992,70.472L56.992,70.472z
				 M58.979,71.154c0.403,0.053,0.351,1.027-0.004,1.975c-0.354,0.948-0.852,1.494-1.256,1.467s-0.283-0.977,0.072-1.926
				C58.147,71.723,58.575,71.101,58.979,71.154L58.979,71.154z"/>
			<path fill-rule="evenodd" clip-rule="evenodd" fill="#15143F" d="M63.46,69.397c-0.414,0.013-1.729,0.382-2.537,1.96
				c-0.809,1.579-0.395,2.82,0.214,3.07c0.606,0.251,1.589,0.206,2.718-1.059c0,0,0.207-0.287,0.079-0.574
				c-0.128-0.288-0.35-0.028-0.431,0.064c-0.082,0.096-0.793,0.774-1.41,0.783c-0.617,0.01-0.614-0.779-0.582-0.977
				c1.143-0.069,2.754-1.137,2.826-2.361C64.375,69.679,63.874,69.386,63.46,69.397L63.46,69.397z M61.745,72.027
				c0.056-0.952,1.281-2.229,1.71-2.004C63.882,70.248,62.615,71.972,61.745,72.027L61.745,72.027z"/>
			<path fill-rule="evenodd" clip-rule="evenodd" fill="#15143F" d="M67.23,68.734c-0.413,0.012-1.729,0.382-2.536,1.96
				c-0.809,1.578-0.396,2.819,0.213,3.069c0.606,0.251,1.592,0.207,2.719-1.058c0,0,0.208-0.288,0.079-0.575
				c-0.129-0.288-0.351-0.028-0.433,0.064c-0.082,0.096-0.792,0.774-1.408,0.783c-0.618,0.01-0.615-0.778-0.584-0.977
				c1.143-0.069,2.756-1.136,2.828-2.361C68.146,69.015,67.644,68.723,67.23,68.734L67.23,68.734z M65.516,71.363
				c0.056-0.951,1.282-2.229,1.71-2.005C67.653,69.584,66.386,71.308,65.516,71.363L65.516,71.363z"/>
			<path fill-rule="evenodd" clip-rule="evenodd" fill="#15143F" d="M71.298,68.021c0,0-0.217-0.168-0.518-0.143
				c-0.299,0.026-1.568,0.198-2.358,2.04c-0.79,1.844-0.306,3.044,0.513,3.024c0.819-0.02,1.347-0.779,1.438-0.905
				c0,0,0.131,0.85,0.947,0.555c0,0,0.077-1.076,0.204-1.692c0.126-0.616,0.782-3.333,1.401-5.079c0,0,0.251-0.521-0.311-0.367
				c-0.561,0.157-0.64,0.547-0.79,0.982C71.676,66.869,71.427,67.588,71.298,68.021L71.298,68.021z M70.849,68.492
				c0.254,0.107,0.078,1.018-0.309,1.99s-1.01,1.6-1.293,1.474s-0.209-1.073,0.258-2.015C69.972,68.997,70.597,68.385,70.849,68.492
				L70.849,68.492z"/>
			<path fill-rule="evenodd" clip-rule="evenodd" fill="#15143F" d="M57.831,79.026c0.391,0.403,0.618,0.843,0.645,1.287
				c0.038,0.68-0.366,1.108-0.846,1.26c-0.527,0.168-1.238,0.05-1.584-0.415c-0.077-0.104-0.271-0.336-0.488-0.023
				c-0.215,0.313-0.282,0.492,0.068,0.762c0.35,0.27,0.758,0.494,1.561,0.448c0.801-0.045,1.546-0.188,2.094-1.02
				c0.546-0.833,0.354-1.856-0.174-2.442c-0.528-0.586-1.354-1.547-1.047-2.205c0.162-0.347,0.555-0.499,0.927-0.504
				c0.675-0.008,0.699,0.379,0.917,0.369c0.141-0.006,0.291-0.212,0.3-0.427c0.008-0.225-0.169-0.442-0.521-0.521
				c-0.627-0.143-1.771-0.05-2.392,0.552C56.38,77.033,57.1,78.268,57.831,79.026L57.831,79.026z"/>
			<path fill-rule="evenodd" clip-rule="evenodd" fill="#15143F" d="M60.863,76.933c0,0-0.776,0.079-0.896,0.079
				s-0.307,0.169-0.322,0.372c-0.017,0.204,0.134,0.306,0.301,0.301c0.166-0.007,0.578-0.171,0.645-0.104
				c0.068,0.067-0.21,0.874-0.26,1.094c-0.049,0.219-0.348,1.341-0.311,1.897c0.038,0.558,0.207,0.796,0.602,0.796
				c0.396,0,1.09-0.42,1.26-0.663c0.17-0.246,0.115-0.428,0.046-0.464c-0.067-0.038-0.277,0.009-0.444,0.124
				c-0.166,0.117-0.501,0.285-0.494-0.044c0.006-0.328,0.362-2.414,0.695-2.94c0,0,0.619-0.015,0.863-0.238
				c0.244-0.222,0.336-0.523,0.151-0.572c-0.185-0.051-0.299,0.152-0.847,0.152c0,0,0.072-0.507,0.15-0.701
				c0.078-0.193,0.1-0.348-0.338-0.278s-0.527,0.222-0.595,0.438C61.001,76.397,60.917,76.727,60.863,76.933L60.863,76.933z"/>
			<path fill-rule="evenodd" clip-rule="evenodd" fill="#15143F" d="M64.454,74.526c0.254,0.106,0.265,0.497,0.126,0.816
				c-0.138,0.319-0.392,0.513-0.681,0.414c-0.291-0.101-0.314-0.448-0.176-0.769C63.861,74.67,64.2,74.423,64.454,74.526
				L64.454,74.526z M63.901,76.258c-0.094,0.013-0.503,0.017-0.687,0.508c-0.194,0.521-0.418,1.23-0.559,1.836
				c-0.142,0.606-0.532,1.781-0.216,2.059c0.195,0.172,0.426,0.288,0.563,0.199c0.087-0.057,0.11-0.209,0.144-0.439
				c0.084-0.591,0.408-1.658,0.502-2.081s0.486-1.747,0.503-1.802C64.169,76.483,64.317,76.206,63.901,76.258L63.901,76.258z"/>
			<path fill-rule="evenodd" clip-rule="evenodd" fill="#15143F" d="M67.039,76.604c-0.163,0.008-0.289-0.29-0.653-0.288
				c-0.783,0.006-1.335,1.542-1.414,2.217c-0.066,0.561,0.026,1.114,0.42,1.12c0.686,0.01,1.039-0.663,1.146-0.667
				c0.109-0.006,0.334,0.271,0.076,0.639c-0.26,0.366-0.874,0.884-1.65,0.889c-0.773,0.004-1.079-0.894-1.047-1.494
				c0.018-0.327,0.188-1.273,0.661-2.057c0.398-0.656,1.005-1.152,1.881-1.214c0.446-0.032,0.677,0.092,0.763,0.248
				C67.366,76.262,67.142,76.599,67.039,76.604L67.039,76.604z"/>
			<path fill-rule="evenodd" clip-rule="evenodd" fill="#15143F" d="M67.483,77.3c0,0-0.504,1.846-0.484,2.335
				c0.019,0.488,0.398,0.296,0.508,0.258c0.107-0.037,0.342-0.15,0.355-0.226c0.015-0.075,0.037-0.423,0.075-0.587
				c0.038-0.165,0.263-1.08,0.286-1.264c0,0,0.57,0.662,0.795,0.906c0.227,0.244,0.652,0.63,1.01,0.63
				c0.356,0,0.535-0.357,0.535-0.465c0-0.108-1.032-0.851-1.611-1.757l1.904-1.992c0,0,0.338-0.259-0.158-0.232
				c-0.496,0.025-0.872,0.288-1.06,0.483c-0.188,0.195-1.013,1.071-1.013,1.071s0.305-1.658,0.691-2.607
				c0,0,0.186-0.322-0.203-0.298c-0.387,0.022-0.58,0.161-0.695,0.462C68.305,74.318,67.56,76.879,67.483,77.3L67.483,77.3z"/>
			<path fill-rule="evenodd" clip-rule="evenodd" fill="#15143F" d="M69.952,76.78l-0.074,0.023v0.164l0.076-0.022
				c0.043-0.013,0.072-0.029,0.091-0.047c0.02-0.018,0.028-0.04,0.028-0.068c0-0.029-0.01-0.049-0.028-0.057
				C70.024,76.766,69.995,76.768,69.952,76.78L69.952,76.78z M69.968,76.716c0.064-0.02,0.115-0.022,0.148-0.01
				c0.032,0.014,0.049,0.042,0.049,0.087c0,0.036-0.01,0.068-0.029,0.097c-0.018,0.028-0.045,0.052-0.078,0.069l0.105,0.195
				l-0.101,0.03l-0.097-0.184l-0.088,0.026v0.211l-0.09,0.027v-0.498L69.968,76.716L69.968,76.716z M70.32,76.873
				c0-0.054-0.009-0.101-0.026-0.142s-0.043-0.074-0.076-0.101c-0.035-0.025-0.074-0.042-0.119-0.048
				c-0.044-0.007-0.092-0.002-0.142,0.013c-0.048,0.015-0.095,0.037-0.139,0.069c-0.044,0.031-0.083,0.069-0.114,0.114
				c-0.036,0.048-0.064,0.098-0.082,0.15c-0.02,0.053-0.029,0.104-0.029,0.154c0,0.049,0.009,0.094,0.027,0.135
				c0.019,0.04,0.045,0.074,0.079,0.1c0.034,0.026,0.073,0.042,0.118,0.049c0.044,0.007,0.09,0.003,0.137-0.01
				c0.049-0.015,0.096-0.038,0.141-0.07c0.043-0.032,0.084-0.071,0.12-0.119c0.034-0.045,0.062-0.093,0.079-0.145
				C70.312,76.974,70.32,76.923,70.32,76.873L70.32,76.873z M69.955,76.537c0.058-0.016,0.111-0.021,0.163-0.015
				c0.052,0.009,0.097,0.027,0.137,0.058c0.039,0.029,0.068,0.068,0.089,0.114c0.021,0.047,0.031,0.101,0.031,0.157
				c0,0.061-0.01,0.119-0.031,0.178c-0.021,0.059-0.05,0.115-0.091,0.166c-0.041,0.057-0.086,0.101-0.139,0.139
				c-0.052,0.037-0.104,0.064-0.159,0.08c-0.056,0.017-0.108,0.021-0.159,0.014s-0.096-0.026-0.136-0.059
				c-0.04-0.029-0.069-0.067-0.091-0.114c-0.021-0.046-0.031-0.099-0.031-0.155c0-0.059,0.011-0.117,0.032-0.178
				c0.022-0.061,0.054-0.118,0.095-0.174c0.038-0.053,0.082-0.097,0.131-0.131C69.847,76.581,69.899,76.555,69.955,76.537
				L69.955,76.537z"/>
		</g>
		<rect x="37.042" y="90.231" fill-rule="evenodd" clip-rule="evenodd" fill="#FFFFFF" width="50.371" height="1.762"/>
		<rect x="37.042" y="93.979" fill-rule="evenodd" clip-rule="evenodd" fill="#FFFFFF" width="48.663" height="1.762"/>
	</g>
</g>
</svg>
