<?xml version="1.0" encoding="utf-8"?>
<!-- Generator: Adobe Illustrator 15.1.0, SVG Export Plug-In . SVG Version: 6.00 Build 0)  -->
<!DOCTYPE svg PUBLIC "-//W3C//DTD SVG 1.1//EN" "http://www.w3.org/Graphics/SVG/1.1/DTD/svg11.dtd">
<svg version="1.1" id="Capa_1" xmlns="http://www.w3.org/2000/svg" xmlns:xlink="http://www.w3.org/1999/xlink" x="0px" y="0px"
	 width="139px" height="145px" viewBox="0 0 139 145" enable-background="new 0 0 139 145" xml:space="preserve">
<g>
	<g>
		<g>
			<g>
				<defs>
					<rect id="SVGID_1_" x="12.223" y="9.928" width="114.326" height="122.483"/>
				</defs>
				<clipPath id="SVGID_2_">
					<use xlink:href="#SVGID_1_"  overflow="visible"/>
				</clipPath>
			</g>
			<path fill="none" stroke="#505978" stroke-width="2" stroke-linecap="round" stroke-linejoin="round" stroke-miterlimit="10" d="
				M138.221,41.125l0.165-5.46c-2.367,0-4.355-1.547-5.082-3.687v-3.51c0.727-2.135,2.715-3.682,5.082-3.682l-0.056-4.648
				c-2.299,0-4.248-1.454-5.026-3.496v-3.882c0.778-2.043,2.728-3.499,5.026-3.499l0.054-4.745h-5.08v-5.516l-5.611,0.054
				c0,3.005-2.338,5.441-5.22,5.441c-2.879,0-5.212-2.436-5.212-5.441L112.803-1c0,3.005-2.332,5.443-5.215,5.443
				c-2.882,0-5.216-2.438-5.216-5.443l-5.238-0.22c0,3.002-2.337,5.439-5.216,5.439c-2.883,0-5.219-2.438-5.219-5.439L82.247-1.11
				c0,3.004-2.333,5.439-5.215,5.439c-2.886,0-5.217-2.436-5.217-5.439l-5.92,0.054c0,3.007-2.335,5.441-5.218,5.441
				c-2.88,0-5.217-2.434-5.217-5.441l-4.453-0.106c0,3.005-2.334,5.437-5.216,5.437c-2.879,0-5.218-2.432-5.218-5.437L35.337-1.33
				c0,3.005-2.334,5.441-5.219,5.441c-2.876,0-5.211-2.436-5.211-5.441L20.45-1.273c0,3.003-2.334,5.441-5.216,5.441
				s-5.217-2.438-5.217-5.441l-4.55-0.055v5.845h-5.08l0.055,4.745c2.298,0,4.248,1.456,5.025,3.495v3.889
				c-0.777,2.04-2.727,3.494-5.025,3.494l-0.057,4.648c2.368,0,4.354,1.547,5.082,3.682v3.51c-0.728,2.14-2.714,3.687-5.082,3.687
				l0.165,5.46c2.195,0,4.074,1.325,4.917,3.224v4.435c-0.842,1.896-2.721,3.221-4.917,3.221l0.106,4.644
				c2.114,0,3.925,1.234,4.811,3.018v4.841c-0.886,1.784-2.696,3.021-4.811,3.021l-0.053,6.173c2.154,0,4,1.278,4.863,3.122v4.632
				c-0.864,1.842-2.709,3.124-4.863,3.124l-0.109,4.642c2.235,0,4.156,1.375,4.973,3.333v4.219
				c-0.816,1.955-2.737,3.332-4.973,3.332l0.219,5.459c2.072,0,3.849,1.189,4.754,2.917v5.046c-0.905,1.727-2.682,2.916-4.754,2.916
				l0.054,4.646c2.031,0,3.779,1.144,4.7,2.813v5.246c-0.92,1.673-2.669,2.818-4.7,2.818l-0.052,5.853h4.751v5.847l4.55-0.055
				c0-3.005,2.335-5.442,5.217-5.442s5.216,2.438,5.216,5.442l4.457,0.057c0-3.006,2.335-5.44,5.211-5.44
				c2.885,0,5.219,2.435,5.219,5.44l5.236-0.167c0-3.007,2.339-5.439,5.218-5.439c2.881,0,5.216,2.433,5.216,5.439l4.453-0.107
				c0-3.006,2.336-5.442,5.217-5.442c2.883,0,5.218,2.437,5.218,5.442l5.92,0.055c0-3.005,2.331-5.439,5.217-5.439
				c2.882,0,5.215,2.435,5.215,5.439l4.452,0.109c0-3.002,2.336-5.439,5.219-5.439c2.879,0,5.216,2.438,5.216,5.439l5.238-0.222
				c0-3.006,2.334-5.442,5.216-5.442c2.883,0,5.215,2.437,5.215,5.442l4.458-0.054c0-3.004,2.333-5.442,5.212-5.442
				c2.882,0,5.22,2.438,5.22,5.442l5.611,0.054v-5.517h4.753l-0.053-5.853c-2.031,0-3.779-1.146-4.7-2.82v-5.242
				c0.921-1.672,2.669-2.815,4.7-2.815l0.055-4.646c-2.071,0-3.852-1.19-4.755-2.916v-5.046c0.903-1.726,2.684-2.917,4.755-2.917
				l0.219-5.459c-2.237,0-4.156-1.377-4.974-3.335v-4.215c0.817-1.959,2.736-3.334,4.974-3.334l-0.11-4.642
				c-2.153,0-3.998-1.282-4.863-3.124v-4.632c0.865-1.844,2.71-3.122,4.863-3.122l-0.053-6.173c-2.113,0-3.927-1.238-4.811-3.023
				V59.67c0.884-1.784,2.697-3.021,4.811-3.021l0.106-4.644c-2.195,0-4.075-1.326-4.917-3.224v-4.433
				C134.146,42.453,136.025,41.125,138.221,41.125z"/>
			
				<rect x="12.223" y="9.928" fill="#3B81C4" stroke="#505978" stroke-width="2" stroke-linecap="round" stroke-linejoin="round" stroke-miterlimit="10" width="114.326" height="122.483"/>
		</g>
	</g>
	<g>
		<path fill="#80CFD6" d="M92.646,77.209c-1.134-23.125-8.026-58.284-22.16-59.056l-0.001-0.009c-0.046-0.001-0.09,0.001-0.136,0
			c-0.095-0.004-0.19-0.001-0.286-0.001c-0.095,0-0.191-0.002-0.286,0.001c-0.046,0.001-0.091-0.001-0.137,0l-0.001,0.009
			c-14.133,0.772-21.026,35.931-22.159,59.056c-0.795,16.226,2.365,22.657,2.203,22.634c0,0,10.854,16.038,15.243,16.673
			c0,0-0.201,1.026,5.136,0.839c5.337,0.188,5.136-0.839,5.136-0.839c4.389-0.635,15.243-16.673,15.243-16.673
			C90.281,99.866,93.441,93.435,92.646,77.209z"/>
		<path fill="#6CBF5C" d="M81.034,113.504c0-2.243-4.889-4.06-10.92-4.06c-6.032,0-10.922,1.816-10.922,4.06
			c0,0.12-0.1,8.529-0.1,8.529c0,1.809,1.573,3.277,3.513,3.277H77.52c1.942,0,3.515-1.469,3.515-3.277
			C81.034,122.033,81.034,113.686,81.034,113.504z"/>
		<path fill="#3B81C4" d="M75.43,25.865c0-0.742-2.402-3.059-5.366-3.059s-5.367,2.317-5.367,3.059c0,0.742,2.403,3.357,5.367,3.357
			S75.43,26.607,75.43,25.865z"/>
		<g>
			<g>
				<path fill="#FFFFFF" d="M70.094,75.764c-0.135-0.02-0.149-0.409-0.149-0.7v-1.586c0-1.337,0.446-1.507,0.836-1.507
					c0.214,0,0.415,0.107,0.543,0.243c0.145,0.164,0.215,0.211,0.297,0.211c0.178,0,0.249-0.146,0.291-0.292l0.088-0.266
					c0.023-0.07,0.037-0.144,0.037-0.208c0-0.312-0.264-0.356-0.546-0.356c-1.452,0.011-2.367,1.372-2.367,3.383V75.1
					c0,0.412-0.032,0.742-0.032,0.746l-0.008,0.075l1.002-0.026L70.094,75.764 M74.368,75.628c0.173,0,0.337-0.046,0.483-0.14
					c0.146-0.096,0.278-0.236,0.39-0.418c0.112-0.184,0.204-0.404,0.268-0.662c0.065-0.256,0.098-0.548,0.098-0.866
					c0-0.273-0.032-0.517-0.101-0.729c-0.067-0.208-0.154-0.386-0.26-0.527c-0.107-0.138-0.23-0.245-0.369-0.316
					c-0.138-0.072-0.279-0.109-0.427-0.109c-0.178,0-0.349,0.034-0.515,0.103c-0.16,0.065-0.3,0.174-0.419,0.329
					c-0.122,0.154-0.221,0.361-0.295,0.612c-0.072,0.254-0.109,0.57-0.109,0.941C73.112,75.046,73.523,75.628,74.368,75.628
					 M74.412,76.03c-1.21,0-2.112-0.713-2.112-0.713l0.024-0.667l0.016-0.721l0.005-0.681v-1.666c0-0.575-0.014-0.425-0.031-0.991
					c-0.007-0.549,0.969-1.057,0.947-0.827c-0.031,0.362-0.106,1.191-0.106,1.66c0,0.465-0.01,0.501-0.016,0.746
					c0.184-0.261,0.381-0.462,0.595-0.594c0.256-0.161,0.557-0.242,0.893-0.242c0.323,0,0.609,0.063,0.845,0.187
					c0.238,0.124,0.437,0.29,0.593,0.494c0.153,0.203,0.271,0.441,0.35,0.709c0.076,0.266,0.115,0.55,0.115,0.843
					c0,0.361-0.053,0.699-0.161,1.001c-0.108,0.301-0.258,0.563-0.446,0.781c-0.189,0.218-0.415,0.387-0.674,0.505
					C74.988,75.973,74.708,76.03,74.412,76.03 M69.404,72.129c0.233,0,0.423-0.192,0.423-0.432c0-0.237-0.19-0.431-0.423-0.431
					c-0.234,0-0.425,0.194-0.425,0.431C68.979,71.938,69.17,72.129,69.404,72.129 M68.481,72.563c-0.078-0.235-0.2-0.444-0.36-0.62
					c-0.164-0.175-0.367-0.317-0.607-0.423c-0.238-0.104-0.527-0.158-0.852-0.158c-0.694,0-1.23,0.227-1.594,0.669
					c-0.36,0.441-0.543,1.054-0.543,1.822c0,0.314,0.054,0.611,0.165,0.882c0.106,0.271,0.264,0.509,0.467,0.709
					c0.201,0.2,0.442,0.354,0.719,0.458c0.275,0.102,0.584,0.155,0.914,0.155c0.297,0,0.586-0.055,0.861-0.162
					c0.934-0.362,0.777-0.927,0.776-0.927l-0.129-0.079l-0.037,0.042c-0.075,0.09-0.165,0.175-0.266,0.25
					c-0.101,0.076-0.209,0.145-0.33,0.2c-0.115,0.057-0.236,0.103-0.358,0.134c-0.122,0.032-0.242,0.049-0.358,0.049
					c-0.241,0-0.458-0.044-0.642-0.126c-0.185-0.085-0.342-0.198-0.468-0.342c-0.126-0.143-0.224-0.315-0.29-0.515
					c-0.019-0.057-0.076-0.282-0.083-0.354c-0.057-0.535-0.007-0.877,0.093-1.339l0.003-0.001c0.007-0.025,0.01-0.051,0.018-0.075
					c0.048-0.181,0.123-0.35,0.22-0.503c0.093-0.148,0.216-0.275,0.362-0.376c0.144-0.096,0.322-0.146,0.533-0.146
					c0.222,0,0.401,0.047,0.535,0.146c0.135,0.099,0.243,0.225,0.32,0.376c0.079,0.154,0.132,0.322,0.159,0.499
					c0.022,0.16,0.03,0.312,0.035,0.457l-0.531,0.011l-0.608,0.008l-0.523-0.008c0,0-0.064,0-0.145-0.002
					c-0.066,0.009-0.233,0.05-0.233,0.238c0,0.18,0.148,0.214,0.215,0.221c0.08-0.002,0.14-0.004,0.14-0.004l0.519-0.009
					l0.968,0.009c0,0,0.266,0.004,0.526,0.009c0.542,0,0.53-0.422,0.53-0.422C68.599,73.053,68.56,72.798,68.481,72.563
					 M74.368,75.628c0.173,0,0.337-0.046,0.483-0.14c0.146-0.096,0.278-0.236,0.39-0.418c0.112-0.184,0.204-0.404,0.268-0.662
					c0.065-0.256,0.098-0.548,0.098-0.866c0-0.273-0.032-0.517-0.101-0.729c-0.067-0.208-0.154-0.386-0.26-0.527
					c-0.107-0.138-0.23-0.245-0.369-0.316c-0.138-0.072-0.279-0.109-0.427-0.109c-0.178,0-0.349,0.034-0.515,0.103
					c-0.16,0.065-0.3,0.174-0.419,0.329c-0.122,0.154-0.221,0.361-0.295,0.612c-0.072,0.254-0.109,0.57-0.109,0.941
					C73.112,75.046,73.523,75.628,74.368,75.628 M74.412,76.03c-1.21,0-2.112-0.713-2.112-0.713l0.024-0.667l0.016-0.721
					l0.005-0.681v-1.666c0-0.575-0.014-0.425-0.031-0.991c-0.007-0.549,0.969-1.057,0.947-0.827
					c-0.031,0.362-0.106,1.191-0.106,1.66c0,0.465-0.01,0.501-0.016,0.746c0.184-0.261,0.381-0.462,0.595-0.594
					c0.256-0.161,0.557-0.242,0.893-0.242c0.323,0,0.609,0.063,0.845,0.187c0.238,0.124,0.437,0.29,0.593,0.494
					c0.153,0.203,0.271,0.441,0.35,0.709c0.076,0.266,0.115,0.55,0.115,0.843c0,0.361-0.053,0.699-0.161,1.001
					c-0.108,0.301-0.258,0.563-0.446,0.781c-0.189,0.218-0.415,0.387-0.674,0.505C74.988,75.973,74.708,76.03,74.412,76.03
					 M80.196,73.393c0,0.093-0.021,1.207-0.045,1.775c-0.011,0.55,1.113,1.024,1.093,0.792c-0.033-0.352-0.118-1.803-0.119-2.275
					c-0.156-0.028-0.294-0.141-0.447-0.217C80.517,73.391,80.331,73.494,80.196,73.393 M64.079,74.008l-0.009-0.454V72.47h0.002
					v-0.354h-0.005c0.009-0.499,0.058-1.03,0.079-1.532c-0.398,0.075-0.646,0.069-1.038,0l0.03,0.518l0.026,0.468l0.023,0.85v0.049
					h0.001v0.203c-0.108,0.002-0.802,0.014-0.802,0.014l-0.943,0.008l-0.496-0.004l-0.183-0.003c0,0-0.527-0.011-0.612-0.011V72.42
					l0.023-0.85l0.027-0.468l0.032-0.518c-0.402,0.069-0.663,0.075-1.07,0c0.146,1.797,0.075,3.526,0.024,5.326l0.529,0.011
					l0.51,0.024v-0.072l-0.052-1.143l-0.023-1.177v-0.322c0.08-0.002,0.239-0.009,0.239-0.009l0.373-0.006l0.186-0.002l0.493-0.005
					l0.943,0.007c0,0,0.69,0.013,0.802,0.016v0.321l-0.022,1.177l-0.02,0.425h0.001c-0.015,0.27-0.033,0.55-0.049,0.794
					c-0.022,0.326,0.035,0.49,0.09,0.58c0.151,0.235,0.971-0.263,0.964-0.812C64.135,75.268,64.094,74.399,64.079,74.008
					 M79.632,75.28c-0.173,0.142-0.492,0.274-0.767,0.274c-0.256,0-0.465-0.115-0.62-0.279c-0.27-0.278-0.396-0.804-0.377-1.563
					c0.027-1.214,0.583-1.91,1.285-1.91c0.251,0,0.45,0.08,0.607,0.245c0.296,0.31,0.437,0.916,0.415,1.802v0.021
					c0.173-0.096,0.396-0.086,0.585-0.086c0.122,0,0.238-0.013,0.354-0.032c0-0.025,0-0.043,0-0.043
					c0.019-0.74-0.187-1.357-0.593-1.78c-0.354-0.368-0.852-0.569-1.396-0.569c-1.307,0-2.33,0.962-2.296,2.337
					c0.035,1.502,0.753,2.329,2.018,2.329c0.454,0,0.821-0.228,1.04-0.456c0,0,0.16-0.196,0.046-0.312
					C79.894,75.217,79.763,75.17,79.632,75.28 M81.907,74.437l-0.015,0.53l-0.011,0.226c0,0.005-0.032,0.558-0.055,0.749
					c-0.005,0.02,0.006,0.038,0.023,0.051c0.068,0.049,0.32,0.01,0.536-0.109c0.278-0.154,0.43-0.399,0.424-0.69
					c-0.003-0.124-0.014-0.227-0.014-0.229l-0.014-0.526l-0.007-0.68v-0.464h0.007c-0.004-0.174-0.007-0.351-0.007-0.525
					c0.007-0.806-0.017-1.627,0.025-2.43c0.001-0.004,0.034-0.456,0.058-0.611c0.003-0.019-0.004-0.035-0.021-0.048
					c-0.065-0.045-0.369-0.009-0.611,0.124c-0.234,0.126-0.357,0.313-0.353,0.534c0.004,0.102,0.013,0.185,0.015,0.189
					c0.029,0.919,0.022,1.847,0.012,2.768h0.01v0.464L81.907,74.437"/>
				<path fill="#FFFFFF" d="M86.127,79.417c0.128,0.177,0.191,0.417,0.191,0.718c0,0.207-0.044,0.414-0.131,0.615
					c-0.091,0.2-0.217,0.381-0.384,0.542c-0.165,0.158-0.367,0.282-0.599,0.373c-0.231,0.089-0.494,0.133-0.786,0.133
					c-0.315,0-0.584-0.03-0.802-0.097c-0.215-0.061-0.397-0.134-0.543-0.22l-0.051-0.036l0.143-0.413
					c0.043-0.146,0.062-0.267,0.062-0.36v-0.076h0.243l0.02,0.042c0.03,0.061,0.081,0.133,0.148,0.209
					c0.064,0.075,0.146,0.15,0.24,0.218c0.092,0.067,0.197,0.125,0.316,0.171c0.113,0.042,0.242,0.066,0.376,0.066
					c0.121,0,0.235-0.021,0.345-0.058c0.107-0.039,0.206-0.092,0.291-0.162c0.085-0.067,0.148-0.155,0.197-0.26
					c0.05-0.104,0.075-0.229,0.075-0.367c0-0.19-0.051-0.332-0.155-0.432c-0.113-0.104-0.253-0.193-0.417-0.26
					c-0.172-0.07-0.362-0.134-0.57-0.187c-0.215-0.058-0.414-0.138-0.595-0.239c-0.186-0.103-0.342-0.242-0.464-0.415
					c-0.127-0.175-0.192-0.418-0.192-0.719c0-0.232,0.038-0.45,0.116-0.646c0.078-0.196,0.191-0.367,0.342-0.512
					c0.149-0.145,0.335-0.257,0.553-0.339c0.218-0.081,0.467-0.122,0.745-0.122c0.26,0,0.481,0.037,0.662,0.104
					c0.152,0.083,0.528,0.186,0.382,0.652l-0.088,0.336l-0.016,0.062H85.55l-0.017-0.051c-0.048-0.148-0.146-0.286-0.293-0.404
					c-0.141-0.12-0.314-0.18-0.528-0.18c-0.09,0-0.187,0.018-0.279,0.049c-0.095,0.03-0.177,0.078-0.252,0.14
					c-0.069,0.06-0.133,0.142-0.182,0.242c-0.05,0.1-0.073,0.219-0.073,0.355c0,0.198,0.052,0.352,0.155,0.456
					c0.111,0.109,0.249,0.198,0.415,0.265c0.172,0.067,0.364,0.127,0.569,0.175c0.212,0.055,0.414,0.128,0.597,0.223
					C85.846,79.108,86.002,79.244,86.127,79.417"/>
				<path fill="#FFFFFF" d="M62.211,78.446c-0.168-0.088-0.353-0.157-0.548-0.203c-0.189-0.048-0.365-0.104-0.525-0.164
					c-0.151-0.059-0.28-0.143-0.381-0.243c-0.097-0.096-0.146-0.237-0.146-0.42c0-0.127,0.023-0.238,0.067-0.328
					c0.047-0.09,0.104-0.166,0.17-0.223c0.068-0.056,0.146-0.101,0.229-0.128c0.087-0.029,0.173-0.044,0.26-0.044
					c0.192,0,0.358,0.054,0.488,0.161c0.132,0.113,0.223,0.238,0.268,0.375l0.014,0.047h0.215l0.013-0.058l0.083-0.31
					c0.118-0.422-0.354-0.6-0.354-0.6c-0.165-0.065-0.369-0.096-0.607-0.096c-0.257,0-0.487,0.037-0.687,0.112
					c-0.203,0.074-0.373,0.179-0.511,0.311c-0.136,0.13-0.242,0.29-0.312,0.472c-0.072,0.181-0.109,0.381-0.109,0.597
					c0,0.277,0.06,0.5,0.177,0.662c0.114,0.157,0.257,0.286,0.427,0.383c0.167,0.094,0.351,0.166,0.55,0.218
					c0.189,0.051,0.366,0.109,0.522,0.171c0.154,0.063,0.282,0.145,0.387,0.241c0.094,0.092,0.142,0.222,0.142,0.397
					c0,0.125-0.024,0.24-0.069,0.339c-0.046,0.097-0.106,0.178-0.183,0.24c-0.077,0.063-0.167,0.114-0.266,0.146
					c-0.102,0.036-0.208,0.055-0.32,0.055c-0.122,0-0.239-0.021-0.344-0.061c-0.11-0.042-0.21-0.096-0.293-0.157
					c-0.086-0.063-0.161-0.131-0.223-0.201c-0.06-0.07-0.106-0.136-0.133-0.192l-0.019-0.037c-0.096-0.23-0.914,0.581,0.135,1.019
					c0.191,0.078,0.45,0.087,0.738,0.087c0.269,0,0.514-0.041,0.726-0.123c0.211-0.08,0.397-0.197,0.55-0.345
					c0.152-0.147,0.271-0.312,0.351-0.497c0.083-0.184,0.124-0.375,0.124-0.567c0-0.276-0.06-0.501-0.176-0.66
					C62.526,78.662,62.381,78.536,62.211,78.446"/>
				<path fill="#FFFFFF" d="M65.41,79.349c-0.167-0.087-0.351-0.155-0.547-0.204c-0.188-0.045-0.365-0.102-0.523-0.159
					c-0.153-0.061-0.281-0.144-0.381-0.246c-0.095-0.095-0.143-0.235-0.143-0.418c0-0.124,0.022-0.235,0.066-0.325
					c0.045-0.094,0.102-0.169,0.169-0.226c0.068-0.055,0.146-0.1,0.229-0.127c0.086-0.029,0.172-0.045,0.257-0.045
					c0.194,0,0.358,0.056,0.489,0.163c0.131,0.111,0.222,0.236,0.267,0.372l0.018,0.048h0.21l0.016-0.057l0.081-0.312
					c0.119-0.419-0.353-0.596-0.353-0.596c-0.165-0.066-0.369-0.097-0.606-0.097c-0.258,0-0.489,0.036-0.687,0.11
					c-0.2,0.075-0.372,0.182-0.508,0.312c-0.138,0.133-0.244,0.29-0.315,0.473c-0.073,0.179-0.109,0.378-0.109,0.596
					c0,0.274,0.061,0.497,0.177,0.66c0.114,0.156,0.259,0.285,0.427,0.382c0.166,0.094,0.351,0.166,0.549,0.218
					c0.19,0.049,0.365,0.105,0.523,0.171c0.152,0.062,0.281,0.143,0.385,0.239c0.094,0.093,0.142,0.221,0.142,0.399
					c0,0.127-0.023,0.24-0.069,0.339c-0.044,0.094-0.104,0.175-0.181,0.237c-0.079,0.064-0.169,0.112-0.268,0.148
					c-0.102,0.035-0.207,0.052-0.318,0.052c-0.124,0-0.239-0.021-0.345-0.062c-0.11-0.039-0.208-0.093-0.291-0.154
					c-0.086-0.063-0.162-0.131-0.223-0.201c-0.062-0.071-0.106-0.136-0.135-0.193l-0.02-0.037c-0.094-0.229-0.912,0.581,0.136,1.018
					c0.191,0.08,0.447,0.087,0.736,0.087c0.269,0,0.513-0.041,0.725-0.121c0.213-0.08,0.396-0.198,0.55-0.348
					c0.152-0.144,0.27-0.312,0.351-0.495c0.083-0.184,0.123-0.375,0.123-0.564c0-0.277-0.061-0.501-0.177-0.663
					C65.725,79.565,65.581,79.439,65.41,79.349"/>
				<path fill="#FFFFFF" d="M76.048,78.116c0.118-0.166,0.271-0.3,0.457-0.394c0.184-0.097,0.41-0.145,0.669-0.145
					c0.136,0,0.261,0.021,0.375,0.064c0.113,0.043,0.22,0.101,0.316,0.163c0.093,0.068,0.176,0.14,0.244,0.218
					c0.069,0.078,0.123,0.156,0.162,0.229l0.02,0.036h0.162l0.098-0.359l0.129-0.323l-0.035-0.036
					c-0.122-0.11-0.314-0.202-0.587-0.287c-0.269-0.083-0.575-0.126-0.911-0.126c-0.293,0-0.585,0.047-0.869,0.136
					c-0.284,0.091-0.539,0.232-0.759,0.424c-0.22,0.189-0.398,0.435-0.534,0.728c-0.136,0.295-0.201,0.645-0.201,1.047
					c0,0.421,0.063,0.782,0.196,1.075c0.132,0.293,0.31,0.536,0.526,0.72s0.461,0.318,0.732,0.396
					c0.269,0.075,0.537,0.116,0.8,0.116c0.294,0,0.585-0.054,0.86-0.157c0.688-0.267,0.825-0.732,0.769-0.87l0.008-0.044
					l-0.132-0.083l-0.036,0.042c-0.073,0.089-0.165,0.172-0.267,0.246c-0.1,0.074-0.209,0.144-0.327,0.199
					c-0.116,0.055-0.236,0.101-0.358,0.134c-0.12,0.032-0.24,0.047-0.354,0.047c-0.488,0-0.864-0.153-1.115-0.454
					c-0.253-0.306-0.381-0.769-0.381-1.377c0-0.272,0.027-0.529,0.082-0.764C75.843,78.485,75.93,78.286,76.048,78.116"/>
				<path fill="#FFFFFF" d="M70.198,78.346c-0.078-0.232-0.202-0.439-0.363-0.612c-0.162-0.174-0.366-0.313-0.605-0.419
					c-0.24-0.103-0.527-0.154-0.854-0.154c-0.692,0-1.228,0.221-1.589,0.66c-0.362,0.436-0.545,1.041-0.545,1.8
					c0,0.311,0.054,0.604,0.163,0.872c0.108,0.267,0.266,0.503,0.467,0.7s0.445,0.35,0.719,0.452
					c0.276,0.103,0.583,0.154,0.914,0.154c0.295,0,0.585-0.053,0.86-0.158c0.935-0.361,0.778-0.918,0.778-0.918l-0.131-0.077
					l-0.036,0.042c-0.074,0.088-0.166,0.17-0.266,0.247c-0.101,0.074-0.212,0.141-0.329,0.197c-0.115,0.056-0.236,0.102-0.359,0.133
					c-0.12,0.032-0.242,0.048-0.355,0.048c-0.243,0-0.46-0.042-0.644-0.125c-0.184-0.085-0.34-0.199-0.467-0.339
					c-0.127-0.14-0.224-0.312-0.291-0.507c-0.019-0.057-0.076-0.278-0.084-0.353c-0.055-0.527-0.005-0.866,0.097-1.322h0.001
					c0.007-0.026,0.008-0.051,0.016-0.074c0.049-0.182,0.123-0.346,0.219-0.499c0.095-0.146,0.219-0.271,0.365-0.369
					c0.142-0.097,0.321-0.146,0.531-0.146c0.222,0,0.404,0.049,0.534,0.146c0.136,0.098,0.246,0.221,0.323,0.369
					c0.077,0.153,0.131,0.317,0.157,0.497c0.023,0.157,0.032,0.306,0.035,0.447l-0.53,0.014l-0.61,0.007l-0.522-0.007
					c0,0-0.062-0.002-0.145-0.005c-0.066,0.009-0.234,0.053-0.234,0.236c0,0.18,0.149,0.212,0.216,0.217
					c0.081,0,0.142-0.002,0.142-0.002l0.519-0.008l0.965,0.008c0,0,0.268,0.004,0.529,0.009c0.54,0,0.526-0.417,0.526-0.417
					C70.312,78.829,70.275,78.577,70.198,78.346"/>
				<path fill="#FFFFFF" d="M55.387,77.325c-0.424,0.513-0.64,1.226-0.64,2.12c0,0.363,0.066,0.709,0.191,1.023
					c0.128,0.312,0.312,0.591,0.548,0.821c0.236,0.231,0.519,0.409,0.846,0.531c0.321,0.119,0.683,0.182,1.073,0.182
					c0.347,0,0.687-0.063,1.011-0.187c0.814-0.315,0.911-0.756,0.911-0.948c0-0.049-0.004-0.077-0.007-0.089
					c-0.016-0.012-0.085-0.053-0.117-0.07c-0.011,0.014-0.025,0.026-0.025,0.026c-0.09,0.105-0.197,0.207-0.319,0.297
					c-0.12,0.092-0.256,0.173-0.399,0.241c-0.138,0.067-0.284,0.122-0.432,0.159c-0.148,0.039-0.294,0.059-0.433,0.059
					c-0.293,0-0.555-0.051-0.775-0.151c-0.225-0.102-0.415-0.239-0.571-0.411c-0.152-0.171-0.271-0.377-0.351-0.615
					c-0.022-0.068-0.091-0.333-0.101-0.425c-0.064-0.611-0.013-1.013,0.112-1.584l0.012-0.034l0.013-0.057
					c0.06-0.216,0.149-0.419,0.265-0.6c0.116-0.179,0.263-0.331,0.443-0.451c0.178-0.118,0.395-0.18,0.651-0.18
					c0.268,0,0.489,0.062,0.655,0.18c0.166,0.117,0.299,0.272,0.393,0.454c0.095,0.185,0.158,0.385,0.19,0.597
					c0.025,0.168,0.037,0.337,0.042,0.538c0,0.02-0.015,0.035-0.035,0.036l-0.63,0.017l-0.726,0.009l-0.622-0.009L56.389,78.8
					c-0.088,0.014-0.242,0.062-0.242,0.243c0,0.181,0.14,0.221,0.226,0.229l0.163-0.005l0.616-0.009l1.15,0.009l0.627,0.011
					c0.208,0,0.368-0.058,0.469-0.162c0.127-0.13,0.125-0.299,0.125-0.299c0-0.308-0.047-0.603-0.137-0.875
					c-0.09-0.271-0.233-0.512-0.424-0.718c-0.19-0.201-0.43-0.366-0.708-0.486c-0.281-0.123-0.617-0.184-1.001-0.184
					C56.44,76.554,55.812,76.812,55.387,77.325"/>
				<path fill="#FFFFFF" d="M82.711,78.346c-0.077-0.232-0.2-0.439-0.363-0.612c-0.16-0.174-0.364-0.313-0.604-0.419
					c-0.24-0.103-0.526-0.154-0.854-0.154c-0.692,0-1.228,0.221-1.592,0.66c-0.36,0.436-0.546,1.041-0.546,1.8
					c0,0.311,0.057,0.604,0.165,0.872c0.107,0.267,0.265,0.503,0.467,0.7s0.443,0.35,0.72,0.452
					c0.275,0.103,0.582,0.154,0.915,0.154c0.294,0,0.581-0.053,0.86-0.158c0.933-0.361,0.774-0.918,0.774-0.918l-0.13-0.077
					l-0.035,0.042c-0.076,0.088-0.166,0.17-0.267,0.247c-0.102,0.074-0.212,0.141-0.329,0.197c-0.116,0.056-0.236,0.102-0.36,0.133
					c-0.12,0.032-0.239,0.048-0.354,0.048c-0.244,0-0.46-0.042-0.643-0.125c-0.185-0.085-0.342-0.199-0.469-0.339
					s-0.224-0.312-0.29-0.507c-0.018-0.057-0.074-0.278-0.083-0.353c-0.057-0.527-0.007-0.866,0.096-1.322l0,0
					c0.007-0.026,0.011-0.051,0.019-0.074c0.049-0.182,0.121-0.346,0.218-0.499c0.095-0.146,0.217-0.271,0.364-0.369
					c0.142-0.097,0.321-0.146,0.532-0.146c0.224,0,0.4,0.049,0.533,0.146c0.138,0.098,0.245,0.221,0.321,0.369
					c0.079,0.153,0.134,0.317,0.157,0.497c0.024,0.157,0.033,0.306,0.036,0.447l-0.53,0.014l-0.608,0.007l-0.523-0.007
					c0,0-0.064-0.002-0.144-0.005c-0.068,0.009-0.235,0.053-0.235,0.236c0,0.18,0.151,0.212,0.217,0.217
					c0.078,0,0.142-0.002,0.142-0.002l0.519-0.008l0.967,0.008c0,0,0.265,0.004,0.526,0.009c0.54,0,0.529-0.417,0.529-0.417
					C82.828,78.829,82.789,78.577,82.711,78.346"/>
				<path fill="#FFFFFF" d="M74.354,80.281h-0.822c0,0.29,0.002,0.688,0.002,0.688c0,0.924,0.887,0.751,0.887,0.751
					c-0.029-0.257-0.05-0.538-0.058-0.835L74.354,80.281"/>
				<path fill="#FFFFFF" d="M71.489,80.78l-0.016-0.857v-0.775c0-0.046,0.007-0.086,0.008-0.129L71.48,78.03
					c0-0.924-0.879-0.753-0.879-0.753c0.028,0.259,0.048,0.541,0.058,0.839l0.014,0.857v0.949l-0.014,0.857
					c-0.01,0.296-0.029,0.569-0.058,0.81l-0.009,0.079l0.48-0.028l0.48,0.028l-0.007-0.079C71.515,81.35,71.496,81.079,71.489,80.78
					"/>
				<path fill="#FFFFFF" d="M73.3,78.044c0.166,0.222,0.25,0.558,0.25,0.994v0.556l-0.016,0.72h0.821l0.011-0.74l0.018-0.811
					c0-0.321-0.045-0.591-0.136-0.804c-0.092-0.21-0.212-0.383-0.356-0.507c-0.146-0.123-0.312-0.213-0.49-0.264
					c-0.175-0.05-0.354-0.076-0.529-0.076c-0.335,0-0.63,0.076-0.875,0.223c-0.074,0.048-0.146,0.101-0.212,0.16
					c-0.231,0.204-0.134,0.682,0.039,0.512c0.186-0.188,0.452-0.284,0.804-0.284C72.918,77.723,73.137,77.826,73.3,78.044"/>
			</g>
			<g>
				<g>
					<ellipse fill="none" stroke="#6CBF5C" stroke-miterlimit="10" cx="70.378" cy="58.533" rx="6.567" ry="6.573"/>
					<ellipse fill="none" stroke="#FFFFFF" stroke-miterlimit="10" cx="70.412" cy="58.499" rx="7.747" ry="7.754"/>
				</g>
				<g>
					<g>
						<path fill-rule="evenodd" clip-rule="evenodd" fill="#FFFFFF" d="M70.788,66.824c0.026-0.009,1.488-0.021,3.152-0.784
							c1.683-0.719,3.335-2.321,4.094-3.839c0.277-0.375,0.531-0.772,0.763-1.189c0.061-0.104,0.117-0.209,0.171-0.316
							c0.035-0.077,0.037-0.054,0.101-0.213l0.148-0.419c0.187-0.565,0.318-1.152,0.394-1.749c0.05-0.284,0.088-0.611,0.099-0.788
							c0.009-0.1,0.018-0.201,0.017-0.302c0.027,0.051,0.059,0.102,0.09,0.15c0.079,0.099,0.171,0.198,0.311,0.259
							c0.028-0.003,0.064,0.02,0.094,0.025c0.062,0.011,0.137,0,0.189-0.013c0.035-0.008,0.06-0.029,0.089-0.039
							c0.01-0.003,0.016,0.005,0.022,0.002c0.035-0.018,0.094-0.069,0.126-0.099l0.039-0.046c0.002-0.002,0.009,0.004,0.011,0.001
							c0.062-0.074,0.114-0.178,0.149-0.307c0.002-0.008-0.007-0.008-0.002-0.018c0.009-0.038,0.018-0.078,0.021-0.115
							c0.021-0.2-0.045-0.436-0.143-0.566c-0.089-0.12-0.249-0.19-0.369-0.164c-0.101,0.023-0.202,0.133-0.26,0.291
							c-0.052,0.141-0.059,0.3,0.01,0.394c0.009-0.052,0.025-0.092,0.052-0.109c0.027-0.004,0.055-0.007,0.091,0.017
							c0.041,0.049,0.071,0.129,0.031,0.215c-0.057,0.121-0.197,0.141-0.28,0.031c-0.013-0.032-0.039-0.06-0.051-0.083
							c-0.028-0.05-0.048-0.093-0.067-0.141c-0.053-0.129-0.123-0.287-0.155-0.407l-0.016-0.063l-0.108-1.076l0.003,0.009
							c0.038,0.092,0.069,0.159,0.112,0.238l0.042,0.092c0.005,0.009,0.019,0.013,0.025,0.023c0.023,0.033,0.042,0.069,0.07,0.102
							c0.092,0.103,0.225,0.207,0.373,0.195c0.098-0.042,0.187-0.112,0.23-0.283l0.008-0.056c0.012-0.249-0.146-0.444-0.34-0.419
							c-0.013,0.016-0.027,0.028-0.047,0.031c-0.053,0.062-0.075,0.245-0.015,0.307c-0.003-0.039-0.004-0.056,0.019-0.076
							c0.062-0.019,0.104,0.079,0.058,0.142c-0.062,0.034-0.124,0.013-0.192-0.038c-0.028-0.021-0.049-0.05-0.074-0.079
							c-0.034-0.037-0.07-0.07-0.095-0.109c-0.023-0.035-0.039-0.078-0.059-0.114l-0.016-0.024l-0.04-0.079l-0.039-0.123
							l-0.03-0.062L79.578,55c-0.014-0.338,0.005-0.64,0.129-0.949c0.235-0.624,0.907-0.091,0.577,0.19
							c-0.236-0.198-0.671-0.505-0.351,0.411c0.233,0.469,0.638,0.415,0.902,0.052c0.259-0.353,0.329-1.053-0.163-1.616
							c-0.844-0.913-1.316,0.043-1.365,0.798c-0.077,1.161,0.122,2.19,0.188,3.321c-0.5-1.184-0.699-2.665-0.492-3.924
							c0.128-0.626,0.352-1.422,0.952-1.62c0.632-0.187,0.611,0.928,0.248,0.306c-0.231,0.161,0.021,0.55,0.344,0.795
							c0.327,0.236,0.758,0.348,0.923-0.268c0.137-0.556-0.189-1.115-0.646-1.454c-0.455-0.347-1.018-0.474-1.347-0.37
							c-1.065,0.358-1.018,1.404-0.887,2.463c0.163,1.069,0.389,2.257,0.486,3.028c-0.539-1.21-1.04-2.83-1.549-4.112
							c-0.182-0.505-0.386-1.139-0.359-1.665c0.021-0.815,1.016-0.504,0.923-0.284c-0.08,0.156-0.685-0.344-0.458,0.295
							c0.184,0.545,0.934,0.473,1.254,0.366c0.734-0.251,0.571-0.971-0.026-1.499c-0.592-0.53-1.553-0.757-2.071-0.273
							c-0.585,0.531-0.661,1.11-0.546,1.678c0.122,0.568,0.449,1.14,0.812,1.741c0.744,1.174,1.525,2.621,1.738,3.467l-0.064-0.058
							c-0.278-0.516-0.676-0.96-1.127-1.275c-0.381-0.609-0.548-1.273-0.789-2.031c-0.238-0.75-0.56-1.591-1.186-2.328
							c-0.736-0.861-2.052-0.948-2.877-1.602c-0.456-0.362-0.804-0.664-0.956-1.208c-0.137-0.935,1.277-0.828,0.921-0.404
							c-0.242-0.011-0.129-0.105-0.292-0.134c-0.586,0.277,0.421,0.959,0.985,0.792c1.042-0.273,0.719-1.294-0.308-1.761
							c-1.438-0.275-2.205,0.332-2.429,1.041c-0.234,0.72-0.02,1.601,0.276,2.234c0.812,1.705,1.607,2.386,2.612,2.945
							c0.984,0.536,2.267,1.063,3.238,2.006c-0.396-0.167-0.823-0.151-1.237-0.105c-0.736,0.073-1.48,0.648-1.508,1.263
							c-0.307,0.283-0.575,0.569-0.646,0.813c-0.086,0.285,0.204,0.338,0.703,0.202c0.257-0.108,0.41-0.212,0.485-0.4
							c0.046-0.124-0.11-0.391-0.3-0.111c0.181,0.02-0.043,0.126-0.16,0.138c-0.07-0.128,0.091-0.268,0.347-0.417l0.007-0.004
							c0.631-0.367,1.172-0.594,1.659-0.665l0,0c-0.034,0.041-0.047,0.079-0.073,0.113c-0.009,0.011-0.021,0.011-0.027,0.021
							c-0.027,0.045-0.06,0.134-0.076,0.183l-0.015,0.065c-0.001,0.003-0.013,0.005-0.014,0.01
							c-0.025,0.104-0.022,0.215,0.006,0.332c0.001,0.007,0.014,0,0.012,0.011c0.009,0.034,0.019,0.068,0.033,0.097
							c0.085,0.15,0.266,0.281,0.454,0.324c0.165,0.04,0.414,0.003,0.564-0.098c0.132-0.087,0.21-0.259,0.204-0.459
							c-0.012-0.175-0.097-0.34-0.246-0.362c0.024,0.053,0.027,0.104,0.004,0.141c-0.031,0.026-0.064,0.052-0.124,0.061
							c-0.081-0.009-0.166-0.051-0.174-0.156c-0.007-0.112,0.078-0.225,0.194-0.265c0.756,0.159,1.294,0.826,1.492,1.695
							l-0.006-0.01c-0.071-0.105-0.135-0.174-0.217-0.253c-0.031-0.029-0.058-0.068-0.087-0.092
							c-0.011-0.008-0.031-0.006-0.045-0.015c-0.043-0.028-0.08-0.062-0.13-0.085c-0.158-0.076-0.389-0.106-0.587-0.009
							c-0.122,0.098-0.222,0.215-0.237,0.4l0.001,0.058c0.033,0.245,0.288,0.385,0.561,0.302c0.019-0.021,0.039-0.041,0.067-0.051
							c0.075-0.088,0.059-0.303-0.039-0.346c0.013,0.042,0.018,0.061-0.01,0.092c-0.087,0.046-0.165-0.041-0.114-0.13
							c0.079-0.065,0.173-0.072,0.284-0.046c0.044,0.011,0.08,0.037,0.124,0.059c0.058,0.029,0.118,0.053,0.163,0.09
							c0.04,0.034,0.07,0.081,0.105,0.119l0.027,0.024c0.023,0.031,0.048,0.054,0.067,0.086l0.072,0.144l0.052,0.07l0.023,0.05
							l0.021,0.426c-0.002,0.172,0.01,0.401-0.008,0.591c0.037,0.405,0.036,0.817-0.002,1.228c-0.015,0.207-0.049,0.411-0.08,0.617
							l-0.111,0.534c-0.046,0.34-0.139,0.671-0.25,1c-0.234,0.65-0.584,1.265-1.018,1.816c-1.055,1.192-2.621,2.083-3.925,2.414
							c-1.304,0.354-2.275,0.28-2.303,0.287c-0.105,0.002-0.192,0.214-0.193,0.471C70.571,66.62,70.668,66.827,70.788,66.824z"/>
					</g>
				</g>
			</g>
			<g>
				<path fill="#FFFFFF" stroke="#FFFFFF" stroke-width="0.25" stroke-miterlimit="10" d="M67.533,91.223v-2.567h0.123v1.259h1.53
					v-1.259h0.12v2.567h-0.12v-1.204h-1.53v1.204H67.533z"/>
				<path fill="#FFFFFF" stroke="#FFFFFF" stroke-width="0.25" stroke-miterlimit="10" d="M69.732,90.622
					c0-0.088,0.016-0.171,0.047-0.245c0.031-0.076,0.075-0.145,0.13-0.201c0.055-0.057,0.12-0.101,0.191-0.136
					c0.074-0.031,0.151-0.048,0.234-0.048c0.089,0,0.169,0.016,0.242,0.048s0.136,0.075,0.185,0.134
					c0.051,0.059,0.091,0.128,0.119,0.207c0.028,0.081,0.045,0.169,0.046,0.265h-1.078c0.001,0.082,0.018,0.153,0.045,0.216
					c0.027,0.063,0.064,0.114,0.11,0.158c0.045,0.042,0.098,0.076,0.159,0.099c0.062,0.024,0.128,0.037,0.2,0.037
					c0.106,0,0.194-0.018,0.258-0.054c0.065-0.035,0.122-0.081,0.17-0.139l0.076,0.067c-0.056,0.07-0.124,0.125-0.207,0.164
					c-0.083,0.038-0.183,0.06-0.297,0.06c-0.094,0-0.18-0.019-0.256-0.051c-0.077-0.032-0.143-0.076-0.198-0.133
					c-0.056-0.058-0.1-0.123-0.13-0.199C69.748,90.792,69.732,90.71,69.732,90.622z M69.853,90.55h0.957
					c-0.014-0.13-0.059-0.238-0.137-0.328c-0.076-0.088-0.189-0.132-0.338-0.132c-0.135,0-0.245,0.042-0.331,0.127
					C69.918,90.303,69.867,90.413,69.853,90.55z"/>
				<path fill="#FFFFFF" stroke="#FFFFFF" stroke-width="0.25" stroke-miterlimit="10" d="M71.3,91.223v-2.682h0.111v2.682H71.3z"/>
				<path fill="#FFFFFF" stroke="#FFFFFF" stroke-width="0.25" stroke-miterlimit="10" d="M71.896,91.223v-2.682h0.112v2.682H71.896
					z"/>
				<path fill="#FFFFFF" stroke="#FFFFFF" stroke-width="0.25" stroke-miterlimit="10" d="M72.378,90.622
					c0-0.09,0.017-0.172,0.049-0.247c0.033-0.077,0.075-0.143,0.131-0.199s0.12-0.101,0.194-0.136
					c0.078-0.031,0.157-0.048,0.243-0.048c0.087,0,0.168,0.017,0.242,0.048c0.075,0.035,0.14,0.079,0.196,0.136
					c0.054,0.057,0.098,0.122,0.131,0.201c0.033,0.075,0.049,0.157,0.049,0.245c0,0.087-0.016,0.17-0.049,0.247
					c-0.033,0.076-0.077,0.144-0.131,0.201c-0.057,0.057-0.122,0.101-0.196,0.133c-0.075,0.032-0.157,0.051-0.242,0.051
					c-0.086,0-0.165-0.019-0.243-0.051c-0.074-0.032-0.139-0.076-0.194-0.133c-0.056-0.058-0.098-0.125-0.131-0.201
					C72.395,90.792,72.378,90.709,72.378,90.622z M72.492,90.622c0,0.074,0.014,0.146,0.037,0.21
					c0.026,0.067,0.062,0.123,0.106,0.168c0.043,0.048,0.097,0.085,0.158,0.113c0.06,0.027,0.129,0.042,0.201,0.042
					c0.074,0,0.141-0.015,0.203-0.042c0.059-0.028,0.113-0.065,0.157-0.113c0.044-0.045,0.078-0.101,0.104-0.166
					s0.038-0.137,0.038-0.212c0-0.077-0.013-0.146-0.038-0.212c-0.025-0.067-0.06-0.122-0.104-0.168
					c-0.044-0.047-0.099-0.084-0.157-0.111c-0.062-0.028-0.129-0.041-0.203-0.041c-0.072,0-0.138,0.013-0.201,0.041
					c-0.062,0.027-0.115,0.064-0.158,0.111c-0.045,0.046-0.08,0.101-0.106,0.168C72.506,90.476,72.492,90.545,72.492,90.622z"/>
				<path fill="#FFFFFF" stroke="#FFFFFF" stroke-width="0.25" stroke-miterlimit="10" d="M63.576,95.755v-2.569h0.121v1.259h1.531
					v-1.259h0.122v2.569h-0.122v-1.204h-1.531v1.204H63.576z"/>
				<path fill="#FFFFFF" stroke="#FFFFFF" stroke-width="0.25" stroke-miterlimit="10" d="M65.706,94.555h0.124l0.219,0.49
					c0.028,0.061,0.056,0.122,0.082,0.18c0.028,0.059,0.05,0.111,0.069,0.159c0.025,0.055,0.049,0.106,0.071,0.155l0.423-0.984
					h0.117l-0.856,1.999h-0.118l0.378-0.879L65.706,94.555z"/>
				<path fill="#FFFFFF" stroke="#FFFFFF" stroke-width="0.25" stroke-miterlimit="10" d="M66.973,95.154
					c0-0.089,0.015-0.172,0.044-0.247c0.03-0.077,0.074-0.144,0.128-0.2c0.055-0.056,0.12-0.102,0.196-0.135
					c0.076-0.032,0.157-0.05,0.244-0.05c0.222,0,0.386,0.098,0.492,0.293v-1.74h0.113v2.68h-0.113v-0.26
					c-0.105,0.194-0.27,0.29-0.492,0.288c-0.088,0-0.169-0.017-0.244-0.049c-0.075-0.031-0.14-0.076-0.195-0.133
					c-0.055-0.057-0.098-0.122-0.128-0.2C66.988,95.325,66.973,95.242,66.973,95.154z M67.089,95.154
					c0,0.076,0.012,0.146,0.035,0.211c0.025,0.064,0.059,0.121,0.102,0.168c0.044,0.047,0.098,0.083,0.159,0.109
					c0.062,0.027,0.128,0.039,0.2,0.039c0.073,0,0.141-0.012,0.202-0.039c0.062-0.026,0.116-0.062,0.159-0.109
					c0.045-0.047,0.078-0.102,0.103-0.167c0.023-0.065,0.035-0.136,0.035-0.212c0-0.074-0.012-0.145-0.035-0.21
					c-0.025-0.065-0.058-0.123-0.103-0.169c-0.043-0.046-0.096-0.083-0.158-0.106c-0.062-0.028-0.129-0.042-0.204-0.042
					c-0.072,0-0.139,0.014-0.2,0.042c-0.061,0.023-0.115,0.061-0.159,0.106c-0.043,0.046-0.077,0.104-0.102,0.169
					C67.101,95.01,67.089,95.08,67.089,95.154z"/>
				<path fill="#FFFFFF" stroke="#FFFFFF" stroke-width="0.25" stroke-miterlimit="10" d="M68.654,95.755v-1.2h0.112v0.208
					c0.038-0.072,0.087-0.129,0.149-0.175c0.062-0.043,0.131-0.065,0.21-0.065c0.044,0,0.077,0.002,0.103,0.009
					c0.024,0.005,0.052,0.018,0.081,0.033l-0.04,0.094c-0.032-0.021-0.083-0.031-0.151-0.031c-0.048,0-0.093,0.012-0.137,0.033
					c-0.042,0.021-0.08,0.051-0.111,0.091c-0.03,0.039-0.056,0.084-0.075,0.137c-0.019,0.053-0.028,0.111-0.028,0.17v0.697H68.654z"
					/>
				<path fill="#FFFFFF" stroke="#FFFFFF" stroke-width="0.25" stroke-miterlimit="10" d="M69.454,95.154
					c0-0.089,0.015-0.172,0.045-0.247c0.031-0.077,0.072-0.144,0.125-0.2c0.053-0.056,0.115-0.102,0.191-0.135
					c0.075-0.032,0.154-0.05,0.243-0.05c0.21,0,0.37,0.098,0.475,0.293v-0.132h0.111v1.104h-0.111v-0.292
					c-0.104,0.194-0.265,0.29-0.475,0.288c-0.09,0-0.17-0.017-0.244-0.049c-0.074-0.031-0.137-0.076-0.189-0.133
					s-0.094-0.122-0.125-0.2C69.469,95.325,69.454,95.242,69.454,95.154z M69.57,95.154c0,0.076,0.011,0.146,0.035,0.211
					c0.025,0.064,0.058,0.121,0.101,0.168c0.042,0.047,0.095,0.083,0.153,0.109c0.059,0.027,0.124,0.039,0.198,0.039
					c0.068,0,0.134-0.012,0.195-0.039c0.061-0.026,0.111-0.062,0.153-0.109c0.043-0.047,0.075-0.102,0.098-0.167
					c0.023-0.065,0.035-0.136,0.035-0.212c0-0.074-0.012-0.145-0.035-0.21c-0.022-0.065-0.055-0.123-0.098-0.169
					c-0.042-0.046-0.093-0.083-0.153-0.106c-0.06-0.028-0.125-0.042-0.195-0.042c-0.074,0-0.139,0.014-0.198,0.042
					c-0.058,0.023-0.111,0.061-0.153,0.106c-0.043,0.046-0.076,0.104-0.101,0.169C69.581,95.01,69.57,95.08,69.57,95.154z"/>
				<path fill="#FFFFFF" stroke="#FFFFFF" stroke-width="0.25" stroke-miterlimit="10" d="M70.994,94.652v-0.098h0.17v-0.722h0.112
					v0.722h0.314l-0.058,0.098h-0.257v0.843c0,0.057,0.013,0.103,0.034,0.136c0.022,0.036,0.062,0.051,0.116,0.051
					c0.032,0,0.06-0.005,0.085-0.019c0.028-0.012,0.052-0.026,0.07-0.043l0.058,0.085c-0.058,0.053-0.129,0.078-0.213,0.078
					c-0.082,0-0.146-0.023-0.193-0.075c-0.046-0.05-0.069-0.117-0.069-0.198v-0.857H70.994z"/>
				<path fill="#FFFFFF" stroke="#FFFFFF" stroke-width="0.25" stroke-miterlimit="10" d="M71.854,95.154
					c0-0.089,0.016-0.172,0.045-0.247c0.031-0.077,0.071-0.144,0.126-0.2c0.052-0.056,0.115-0.102,0.189-0.135
					c0.074-0.032,0.155-0.05,0.242-0.05c0.211,0,0.369,0.098,0.475,0.293v-0.132h0.113v1.104h-0.113v-0.292
					c-0.105,0.194-0.264,0.29-0.475,0.288c-0.087,0-0.168-0.017-0.242-0.049c-0.074-0.031-0.138-0.076-0.189-0.133
					c-0.055-0.057-0.095-0.122-0.126-0.2C71.87,95.325,71.854,95.242,71.854,95.154z M71.971,95.154
					c0,0.076,0.013,0.146,0.037,0.211c0.023,0.064,0.057,0.121,0.101,0.168c0.041,0.047,0.094,0.083,0.152,0.109
					c0.058,0.027,0.125,0.039,0.196,0.039c0.07,0,0.136-0.012,0.197-0.039c0.061-0.026,0.112-0.062,0.153-0.109
					s0.073-0.102,0.097-0.167s0.036-0.136,0.036-0.212c0-0.074-0.013-0.145-0.036-0.21s-0.056-0.123-0.097-0.169
					s-0.093-0.083-0.153-0.106c-0.062-0.028-0.126-0.042-0.197-0.042s-0.139,0.014-0.196,0.042
					c-0.059,0.023-0.111,0.061-0.152,0.106c-0.044,0.046-0.077,0.104-0.101,0.169C71.983,95.01,71.971,95.08,71.971,95.154z"/>
				<path fill="#FFFFFF" stroke="#FFFFFF" stroke-width="0.25" stroke-miterlimit="10" d="M73.396,94.652v-0.098h0.171v-0.722h0.111
					v0.722h0.312l-0.057,0.098h-0.255v0.843c0,0.057,0.011,0.103,0.034,0.136c0.022,0.036,0.062,0.051,0.117,0.051
					c0.029,0,0.058-0.005,0.085-0.019c0.026-0.012,0.05-0.026,0.069-0.043l0.057,0.085c-0.058,0.053-0.129,0.078-0.211,0.078
					c-0.084,0-0.149-0.023-0.195-0.075c-0.046-0.05-0.067-0.117-0.067-0.198v-0.857H73.396z"/>
				<path fill="#FFFFFF" stroke="#FFFFFF" stroke-width="0.25" stroke-miterlimit="10" d="M74.35,93.923
					c0-0.028,0.01-0.05,0.028-0.068c0.018-0.017,0.042-0.025,0.067-0.025c0.023,0,0.046,0.009,0.065,0.025
					c0.018,0.019,0.028,0.04,0.028,0.068s-0.011,0.053-0.028,0.068c-0.02,0.018-0.042,0.026-0.065,0.026
					c-0.024,0-0.046-0.009-0.066-0.026C74.359,93.976,74.35,93.951,74.35,93.923z M74.39,95.755v-1.2h0.112v1.2H74.39z"/>
				<path fill="#FFFFFF" stroke="#FFFFFF" stroke-width="0.25" stroke-miterlimit="10" d="M74.868,95.151
					c0-0.087,0.018-0.17,0.051-0.245c0.032-0.077,0.076-0.143,0.131-0.2c0.057-0.057,0.121-0.101,0.196-0.134
					c0.075-0.032,0.156-0.05,0.243-0.05s0.167,0.018,0.24,0.05c0.076,0.033,0.141,0.077,0.196,0.134
					c0.055,0.058,0.098,0.124,0.131,0.201c0.033,0.075,0.049,0.158,0.049,0.244c0,0.089-0.016,0.173-0.049,0.25
					c-0.033,0.076-0.076,0.144-0.131,0.2c-0.056,0.056-0.121,0.102-0.196,0.133c-0.076,0.032-0.155,0.049-0.24,0.049
					c-0.087,0-0.168-0.017-0.243-0.049c-0.075-0.031-0.14-0.077-0.196-0.133c-0.055-0.057-0.099-0.124-0.131-0.2
					C74.886,95.324,74.868,95.24,74.868,95.151z M74.986,95.151c0,0.076,0.012,0.146,0.037,0.213
					c0.026,0.065,0.061,0.122,0.105,0.168c0.043,0.047,0.096,0.085,0.157,0.111c0.061,0.028,0.129,0.042,0.203,0.042
					c0.071,0,0.14-0.014,0.2-0.042c0.062-0.026,0.114-0.064,0.157-0.111c0.046-0.046,0.081-0.103,0.105-0.168
					c0.026-0.064,0.037-0.136,0.037-0.213c0-0.074-0.011-0.145-0.037-0.211c-0.024-0.065-0.06-0.121-0.105-0.168
					c-0.043-0.046-0.096-0.083-0.157-0.11c-0.061-0.028-0.129-0.042-0.2-0.042c-0.072,0-0.142,0.014-0.203,0.042
					c-0.061,0.027-0.114,0.064-0.157,0.11c-0.045,0.047-0.079,0.103-0.105,0.168C74.998,95.007,74.986,95.077,74.986,95.151z"/>
				<path fill="#FFFFFF" stroke="#FFFFFF" stroke-width="0.25" stroke-miterlimit="10" d="M76.465,95.755v-1.048h0.112v0.075
					c0.041-0.081,0.1-0.146,0.181-0.191c0.078-0.045,0.166-0.068,0.265-0.068c0.131,0,0.242,0.039,0.331,0.118
					c0.092,0.078,0.137,0.198,0.137,0.364v0.75h-0.112v-0.728c0-0.142-0.03-0.243-0.094-0.307c-0.063-0.062-0.153-0.094-0.266-0.094
					c-0.128,0-0.232,0.042-0.315,0.119c-0.084,0.08-0.126,0.188-0.126,0.325v0.684H76.465z"/>
			</g>
		</g>
	</g>
</g>
</svg>
