<svg xmlns="http://www.w3.org/2000/svg" xmlns:xlink="http://www.w3.org/1999/xlink" width="156" height="156" viewBox="0 0 156 156"><defs><circle id="a" cx="78.181" cy="77.763" r="77.723"/></defs><clipPath id="b"><use xlink:href="#a" overflow="visible"/></clipPath><g clip-path="url(#b)"><circle fill="#F9AD94" cx="78.181" cy="76.723" r="77.723"/><path fill="#7B5944" stroke="#5B3F2A" stroke-width="1.5" stroke-linecap="round" stroke-linejoin="round" stroke-miterlimit="10" d="M103.42 154.383H54.155c-2.464 0-4.462-5.066-4.462-11.307V82.3C49.692 76.06 51.69 71 54.154 71h49.267c2.466 0 16.34 78.46 0 83.385z"/><path fill="#F3D8C0" stroke="#687D89" stroke-width="1.5" stroke-miterlimit="10" d="M71.518 118.497h13.44v27.198h-13.44z"/><path fill="#CBC5C9" d="M85.263 131.213s-1.632 9.828-7.083 9.97c-3.67.094-6.76-8.94-6.76-8.94-3.502.53-19.332 5.576-19.332 7.904v14.3h52.185V140.88c0-2.43-16.444-9.667-19.01-9.667z"/><defs><path id="c" d="M85.263 131.213s-1.632 10.267-7.083 10.415c-3.67.1-6.76-9.342-6.76-9.342-3.502.557-19.332 5.828-19.332 8.26v14.94h52.185V141.31c0-2.536-16.444-10.097-19.01-10.097z"/></defs><clipPath id="d"><use xlink:href="#c" overflow="visible"/></clipPath><g clip-path="url(#d)"><path fill="#CBC5C9" d="M52.704 140.65h4.572v4.775h-4.572z"/><path fill="#C6BFC3" d="M52.704 145.426h4.572v4.78h-4.572z"/><path fill="#CBC5C9" d="M52.704 150.205h4.572v4.78h-4.572z"/><path fill="#C6BFC3" d="M52.704 135.87h4.572v4.78h-4.572z"/><path fill="#D7D6D8" d="M57.276 140.65h4.577v4.775h-4.577z"/><path fill="#E1DEE0" d="M57.276 135.87h4.577v4.78h-4.577z"/><path fill="#D7D6D8" d="M57.276 150.205h4.577v4.78h-4.577z"/><path fill="#E1DEE0" d="M57.276 145.426h4.577v4.78h-4.577z"/><path fill="#CBC5C9" d="M61.854 140.65h4.573v4.775h-4.573z"/><path fill="#C6BFC3" d="M61.854 145.426h4.573v4.78h-4.573z"/><path fill="#CBC5C9" d="M61.854 150.205h4.573v4.78h-4.573z"/><path fill="#C6BFC3" d="M61.854 135.87h4.573v4.78h-4.573z"/><path fill="#CBC5C9" d="M61.854 133.746h4.573v2.123h-4.573z"/><path fill="#D7D6D8" d="M66.427 140.65h4.57v4.775h-4.57z"/><path fill="#E1DEE0" d="M66.427 135.87h4.57v4.78h-4.57z"/><path fill="#D7D6D8" d="M66.427 150.205h4.57v4.78h-4.57z"/><path fill="#E1DEE0" d="M66.427 145.426h4.57v4.78h-4.57z"/><path fill="#D7D6D8" d="M66.427 132.347h4.57v3.522h-4.57z"/><path fill="#CBC5C9" d="M70.998 140.65h4.57v4.775H71z"/><path fill="#C6BFC3" d="M70.998 145.426h4.57v4.78H71z"/><path fill="#CBC5C9" d="M70.998 150.205h4.57v4.78H71z"/><path fill="#C6BFC3" d="M70.998 135.87h4.57v4.78H71z"/><path fill="#CBC5C9" d="M70.998 132.347h4.57v3.522H71z"/><path fill="#D7D6D8" d="M75.57 140.65h4.572v4.775H75.57zM75.57 150.205h4.572v4.78H75.57z"/><path fill="#E1DEE0" d="M75.57 145.426h4.572v4.78H75.57z"/><path fill="#CBC5C9" d="M80.143 140.65h4.575v4.775h-4.575z"/><path fill="#C6BFC3" d="M80.143 145.426h4.575v4.78h-4.575z"/><path fill="#CBC5C9" d="M80.143 150.205h4.575v4.78h-4.575z"/><path fill="#C6BFC3" d="M80.143 135.91h4.575v4.74h-4.575z"/><path fill="#D7D6D8" d="M84.718 140.65h4.572v4.775h-4.572z"/><path fill="#E1DEE0" d="M84.718 135.87h4.572v4.78h-4.572z"/><path fill="#D7D6D8" d="M84.718 150.205h4.572v4.78h-4.572z"/><path fill="#E1DEE0" d="M84.718 145.426h4.572v4.78h-4.572z"/><path fill="#D7D6D8" d="M84.718 132.347h4.572v3.522h-4.572zM93.862 140.65h4.574v4.775h-4.574z"/><path fill="#E1DEE0" d="M93.862 135.87h4.574v4.78h-4.574z"/><path fill="#D7D6D8" d="M93.862 150.205h4.574v4.78h-4.574z"/><path fill="#E1DEE0" d="M93.862 145.426h4.574v4.78h-4.574z"/><path fill="#D7D6D8" d="M93.862 132.347h4.574v3.522h-4.574z"/><path fill="#CBC5C9" d="M89.29 140.65h4.572v4.775H89.29z"/><path fill="#C6BFC3" d="M89.29 145.426h4.572v4.78H89.29z"/><path fill="#CBC5C9" d="M89.29 150.205h4.572v4.78H89.29z"/><path fill="#C6BFC3" d="M89.29 135.87h4.572v4.78H89.29z"/><path fill="#CBC5C9" d="M89.29 132.347h4.572v3.522H89.29z"/><path fill="#E1DEE0" d="M84.718 127.566h4.572v4.78h-4.572z"/><path fill="#CBC5C9" d="M98.437 140.65h4.572v4.775h-4.573z"/><path fill="#C6BFC3" d="M98.437 145.426h4.572v4.78h-4.573z"/><path fill="#CBC5C9" d="M98.437 150.205h4.572v4.78h-4.573z"/><path fill="#C6BFC3" d="M98.437 135.87h4.572v4.78h-4.573z"/><path fill="#D7D6D8" d="M103.01 140.65h4.575v4.775h-4.576z"/><path fill="#E1DEE0" d="M103.01 135.87h4.575v4.78h-4.576z"/><path fill="#D7D6D8" d="M103.01 150.205h4.575v4.78h-4.576z"/><path fill="#E1DEE0" d="M103.01 145.426h4.575v4.78h-4.576z"/></g><path stroke="#687D89" stroke-width="1.5" stroke-linecap="round" stroke-linejoin="round" stroke-miterlimit="10" d="M85.263 131.213s-1.632 9.828-7.083 9.97c-3.67.094-6.76-8.94-6.76-8.94-3.502.53-19.332 5.576-19.332 7.904v17.577l52.185 1.064v-17.91c0-2.428-16.444-9.665-19.01-9.665z" fill="none"/><path stroke="#fff" stroke-width="1.5" stroke-linecap="round" stroke-linejoin="round" stroke-miterlimit="10" d="M71.763 135.82s5.935 13.848 13.27.517" fill="none"/><path stroke="#687D89" stroke-width="1.5" stroke-linecap="round" stroke-linejoin="round" stroke-miterlimit="10" d="M71.208 137.49s6.972 13.328 14.31 0" fill="none"/><path stroke="#687D89" stroke-width="1.5" stroke-linecap="round" stroke-linejoin="round" stroke-miterlimit="10" d="M85.52 131.213v10.3s3.73-3.195 5.807.373v-8.993l-5.808-1.68zM71.208 132.153v10.302s-3.73-3.194-5.807.374v-8.994l5.808-1.683z" fill="none"/><ellipse fill="#F3D8C0" stroke="#687D89" stroke-width="1.5" stroke-miterlimit="10" cx="106.273" cy="92.916" rx="4.079" ry="5.021"/><path fill="#7B5944" stroke="#5B3F2A" stroke-width="1.5" stroke-linecap="round" stroke-linejoin="round" stroke-miterlimit="10" d="M52.93 76.955s-10.425 31.603 8.28 42.333c0 0 15.67 10.526 7.154 35.095h-21.05s-12.72-61.92 5.615-77.428z"/><path fill="#F3D8C0" stroke="#687D89" stroke-width="1.5" stroke-miterlimit="10" d="M105.653 87.29c0-9.43-8.56-25.228-19.346-25.228H72.462C61.68 62.062 52.93 77.86 52.93 87.29v18.466c0 11.798 11.804 21.36 26.363 21.36 14.56 0 26.36-9.562 26.36-21.36V87.288z"/><path fill="#F0CBC5" d="M94.52 102.35c-2.87 0-5.194-2.41-5.194-5.383 0-2.975 2.325-5.388 5.195-5.388s5.194 2.412 5.194 5.387c0 2.97-2.324 5.384-5.193 5.384z"/><path fill="#7B5944" stroke="#5B3F2A" stroke-width="1.5" stroke-linejoin="round" stroke-miterlimit="10" d="M98.64 63.44c-7.184-4.27-16.096-6.067-19.287-2.66-.042.045-8.963-3.02-19.6 2.225-8.124 4.003-12.624 15.67-10 18.62 2.627 2.956 27.19-1.63 29.344-14.755.256 13.125 25.598 16.534 28.786 13.126 3.196-3.408-2.062-12.28-9.242-16.555z"/><path fill="#C9A1A0" stroke="#687D89" stroke-width="1.5" stroke-miterlimit="10" d="M84.79 109.414c0 3.62-2.436 6.553-5.44 6.553s-5.437-2.932-5.437-6.553H84.79z"/><path fill="#F0CBC5" d="M63.457 102.35c-2.87 0-5.197-2.412-5.197-5.384 0-2.977 2.327-5.39 5.197-5.39 2.868 0 5.194 2.413 5.194 5.39 0 2.972-2.325 5.384-5.193 5.384z"/><g fill="#687D89"><ellipse cx="93.069" cy="89.066" rx="1.412" ry="2.331"/><ellipse cx="65.512" cy="89.501" rx="1.411" ry="2.331"/></g><g stroke-width="1.5" stroke-miterlimit="10" fill="none"><path stroke="#CBCBC5" d="M76.3 86.592s2.882-3.716 5.766-.507"/><path stroke="#687D89" d="M104.52 88.39c0 5.017-3.885 8.59-9.67 8.59-5.788 0-12.808-4.07-12.808-9.086 0-5.02-.073-9.542 12.538-10.074 5.643-.238 9.94-.238 9.94 10.57zM53.322 86.355c0-5.02 3.972-8.593 9.886-8.593S76.3 81.83 76.3 86.85c0 5.016.074 9.54-12.814 10.07-5.768.24-10.164.24-10.164-10.565z"/></g><path fill="#F0CBC5" d="M84.198 95.958c0 2.738-2.065 4.955-4.615 4.955-2.55 0-4.5-1.558-4.964-4.955"/><path stroke="#687D89" stroke-width="1.5" stroke-miterlimit="10" d="M85.11 93.717c0 4.35-2.507 7.872-5.6 7.872-3.092 0-5.598-3.523-5.598-7.873" fill="none"/><path stroke="#5B3F2A" stroke-width="1.5" stroke-linecap="round" stroke-linejoin="round" stroke-miterlimit="10" d="M82.94 66.63s16.033 16.577 30.797 4.613M105.223 132.518s6.087-13.833 1.05-23.104c0 0 1.73 16.002-11.752 18.718M85.84 62.156s14.523 16.575 27.897 4.612M76.782 66.63s-9.157 14.674-26.177 13.587M60.116 154.383s5.162-18.713-8.116-43.73" fill="none"/><path stroke="#788893" stroke-width="1.5" stroke-linecap="round" stroke-linejoin="round" stroke-miterlimit="10" d="M83 120.642s-2.974 1.23-6.978.3" fill="none"/><path stroke="#788893" stroke-width="1.5" stroke-linecap="round" stroke-miterlimit="10" fill="none" d="M59.22 84.97l7.29-2.837M91.893 81.98l7.16 3.146"/></g></svg>