<svg xmlns="http://www.w3.org/2000/svg" xmlns:xlink="http://www.w3.org/1999/xlink" width="156" height="156" viewBox="0 0 156 156"><defs><circle id="a" cx="78" cy="77.723" r="77.723"/></defs><clipPath id="b"><use xlink:href="#a" overflow="visible"/></clipPath><g clip-path="url(#b)"><circle fill="#D7EAF9" cx="78" cy="77.723" r="77.723"/><path fill="#DAD18F" stroke="#687D89" stroke-width="1.437" stroke-linecap="round" stroke-linejoin="round" stroke-miterlimit="10" d="M108.238 58.873S82.875 53.947 79.682 38.36c0 0-3.028-1.388 17.728-5.817 0 0 40.7 14.653 22.69 60.55 0 0 3.2 7.985.873 14.762-.728 2.116-1.992 4.113-4.063 5.712 0 0-1.664 8.863 9.176 11 0 0-5.8 6.417-12.274 4.583 0 0 2.81 6.725-2.702 10.694 0 0 3.637 9.178 8.857 9.178h-33.68S71.3 115.328 105.24 93.632c0 0 8.17-19.893 2.998-34.76zM44.683 59.068s25.363-4.963 28.557-20.663c0 0 2.273-1.4-18.48-5.862 0 0-39.95 14.763-21.938 61 0 0-5.513 13.85 3.19 20.625 0 0 1.663 8.926-9.176 11.08 0 0 5.798 6.466 12.273 4.614 0 0-2.81 6.777 2.7 10.777 0 0-3.636 9.245-8.856 9.245h33.68s14.986-33.946-18.952-55.8c0 0-8.17-20.04-3-35.017z"/><ellipse fill="#F3E1D4" stroke="#687D89" stroke-width="1.5" stroke-miterlimit="10" cx="40.523" cy="73.121" rx="5.596" ry="6.889"/><ellipse fill="#F3E1D4" stroke="#687D89" stroke-width="1.5" stroke-miterlimit="10" cx="114.973" cy="73.121" rx="5.596" ry="6.889"/><path fill="#F3E1D4" stroke="#687D89" stroke-width="1.5" stroke-miterlimit="10" d="M66.635 107.454h19.098v25.956H66.635zM114.4 64.645c0-12.933-11.746-34.604-26.54-34.604H68.87c-14.794 0-26.798 21.672-26.798 34.605v25.332c0 16.183 16.194 29.302 36.167 29.302 19.968 0 36.16-13.12 36.16-29.303V64.645z"/><circle fill="#F0CBC5" cx="55.375" cy="82.657" r="5.855"/><circle fill="#F0CBC5" cx="100.625" cy="82.657" r="5.856"/><path fill="#F28377" stroke="#687D89" stroke-width="1.437" stroke-miterlimit="10" d="M85.496 120.527s-2.215 12.424-9.604 12.598c-4.978.118-9.168-11.296-9.168-11.296-4.75.67-26.216 7.044-26.216 9.987v26.74l70.77 1.332v-27.147c0-3.068-22.3-12.216-25.782-12.216z"/><g stroke="#788893" stroke-width="1.5" stroke-linecap="round" stroke-miterlimit="10" fill="none"><path d="M56.192 69.314c0-3.025 2.133-5.478 4.765-5.478 2.63 0 4.763 2.452 4.763 5.478M90.967 69.314c0-3.025 2.133-5.478 4.764-5.478 2.633 0 4.765 2.452 4.765 5.478"/></g><path fill="#F0CBC5" d="M84.83 79.244v3.645c0 .373-.444.676-.994.676H72.85c-.55 0-.994-.303-.994-.677v-3.646"/><path stroke="#687D89" stroke-width="1.437" stroke-linecap="round" stroke-miterlimit="10" d="M84.83 71.402v10.66c0 1.094-.453 1.98-1.012 1.98H72.653c-.56 0-1.014-.887-1.014-1.98v-10.66" fill="none"/><path stroke="#788893" stroke-width="1.437" stroke-linecap="round" stroke-miterlimit="10" d="M60.957 92.025" fill="none"/><path fill="#DAD18F" stroke="#687D89" stroke-width="1.437" stroke-linecap="round" stroke-linejoin="round" stroke-miterlimit="10" d="M100.644 31.72c-8.913-5.3-19.968-7.527-23.926-3.302-.05.057-11.118-3.744-24.314 2.758-10.075 4.97-15.658 19.44-12.4 23.1 3.255 3.667 33.725-2.02 36.395-18.3.318 16.277 31.755 20.507 35.708 16.28 3.963-4.228-2.557-15.233-11.464-20.536z"/><circle fill="#D07265" cx="62.696" cy="125.688" r="1.817"/><circle fill="#D07265" cx="53.326" cy="142.328" r="1.817"/><circle fill="#D07265" cx="106.209" cy="145.102" r="1.817"/><circle fill="#D07265" cx="95.976" cy="130.378" r="1.817"/><circle fill="#D07265" cx="84.691" cy="145.102" r="1.817"/><circle fill="#D07265" cx="76.183" cy="137.023" r="1.817"/><circle fill="#D07265" cx="44.144" cy="137.023" r="1.817"/><path stroke="#687D89" stroke-width="1.437" stroke-linecap="round" stroke-linejoin="round" stroke-miterlimit="10" d="M73.312 32.543S61.23 55.345 35.715 52.313M69.615 30.088S51.383 52.592 34.927 46.315" fill="none"/><path stroke="#788893" stroke-width="1.426" stroke-linecap="round" stroke-linejoin="round" stroke-miterlimit="10" d="M94.028 95.995s-14.106 5.576-31.585 1.352M85.283 106.663s-4.37 1.81-10.25.438" fill="none"/><path stroke="#788893" stroke-width="1.5" stroke-linecap="round" stroke-miterlimit="10" d="M89.895 60.462s8.08-5.678 12.912 1.065M54.422 59.878s8.08-5.678 12.912 1.064" fill="none"/></g></svg>