<svg xmlns="http://www.w3.org/2000/svg" xmlns:xlink="http://www.w3.org/1999/xlink" width="156" height="156" viewBox="0 0 156 156"><defs><circle id="a" cx="78" cy="78" r="77.723"/></defs><clipPath id="b"><use xlink:href="#a" overflow="visible"/></clipPath><g clip-path="url(#b)"><circle fill="#AAA4D1" cx="78" cy="78" r="77.723"/><path fill="#E6CFC3" stroke="#687D89" stroke-width="1.5" stroke-miterlimit="10" d="M66.83 103.193h19v38.45h-19z"/><path fill="#EC9EC5" stroke="#687D89" stroke-width="2" stroke-linecap="round" stroke-linejoin="round" stroke-miterlimit="10" d="M86.39 119.917s1.338 16.544-9.398 15.717c-9.326-.716-10.902-13.667-10.902-13.667-5.047.937-26.854 9.61-26.854 13.72v25.234h75.157v-23.938c0-4.29-24.303-17.065-28.002-17.065z"/><circle fill="#F7F7F6" stroke="#687D89" stroke-width=".75" stroke-miterlimit="10" cx="76.522" cy="141.3" r="1.892"/><circle fill="#F7F7F6" stroke="#687D89" stroke-width=".75" stroke-miterlimit="10" cx="76.522" cy="147.174" r="1.892"/><circle fill="#F7F7F6" stroke="#687D89" stroke-width=".75" stroke-miterlimit="10" cx="76.522" cy="152.541" r="1.892"/><path fill="#5E422E" stroke="#3E2613" stroke-width="1.5" stroke-miterlimit="10" d="M114.372 91.003l-72.3-2.897c-5.088-.062-5.088-30.75-5.088-30.75 0-2.732 4.463-4.542 7.193-4.542h70.194c2.733 0 4.945 2.214 4.945 4.943 0 0 .875 33.246-4.943 33.246z"/><g stroke-miterlimit="10"><path fill="#5E422E" stroke="#3E2613" stroke-width="1.5" d="M106.025 115.348c-.278 2.512-3.28 4.242-6.715 3.863-3.43-.376-5.984-2.72-5.708-5.232.278-2.515 3.283-4.243 6.712-3.866 3.434.38 5.99 2.725 5.71 5.236zM115.666 112.758c-.277 2.512-3.28 4.244-6.713 3.863-3.43-.376-5.984-2.72-5.71-5.232.278-2.512 3.284-4.243 6.714-3.865 3.434.38 5.987 2.724 5.71 5.235zM106.308 106.168c-.278 2.514-3.28 4.243-6.714 3.865-3.43-.38-5.986-2.725-5.71-5.236.28-2.512 3.284-4.24 6.714-3.863 3.433.378 5.985 2.724 5.71 5.234zM116.59 104.38c-.273 2.513-3.28 4.243-6.712 3.864-3.43-.378-5.984-2.723-5.708-5.234.277-2.512 3.283-4.244 6.714-3.866 3.43.378 5.985 2.724 5.707 5.237z"/><ellipse transform="matrix(.733 .68 -.68 .733 109.809 -34.522)" fill="#5E422E" stroke="#3E2613" stroke-width="1.5" cx="98.921" cy="122.749" rx="6.249" ry="4.578"/><path fill="#5E422E" stroke="#3E2613" stroke-width="1.5" d="M104.105 128.128c-2.27-1.11-2.89-4.522-1.375-7.627 1.515-3.1 4.584-4.717 6.854-3.605 2.27 1.106 2.887 4.52 1.374 7.622-1.513 3.104-4.58 4.716-6.853 3.61zM99.672 151.703c-2.506-.326-4.865-7.555-4.05-14.92.377-3.427 3.883-5.49 6.39-5.16 2.505.323 4.912 3.375 4.536 6.804-.652 5.924-4.37 13.6-6.876 13.276z"/><path fill="#C7B3D7" stroke="#687D89" stroke-width="2" stroke-linecap="round" stroke-linejoin="round" d="M98.353 127.95l7.803.862-.502 4.548-7.803-.862z"/><ellipse transform="matrix(.994 .11 -.11 .994 11.324 -10.56)" fill="#5E422E" stroke="#3E2613" stroke-width="1.5" cx="101.686" cy="97.691" rx="6.248" ry="4.576"/><ellipse transform="matrix(.994 .11 -.11 .994 11.084 -11.561)" fill="#5E422E" stroke="#3E2613" stroke-width="1.5" cx="110.68" cy="95.027" rx="6.249" ry="4.579"/><path fill="#5E422E" stroke="#3E2613" stroke-width="1.5" d="M107.76 91.175c-.277 2.51-3.282 4.243-6.714 3.862-3.43-.377-5.986-2.722-5.707-5.233.273-2.512 3.28-4.242 6.71-3.865 3.432.377 5.986 2.723 5.71 5.235zM116.753 88.51c-.276 2.515-3.28 4.244-6.715 3.867-3.43-.38-5.984-2.726-5.708-5.237.28-2.51 3.283-4.24 6.713-3.863 3.434.377 5.987 2.724 5.71 5.233z"/></g><ellipse fill="#E6CFC3" stroke="#687D89" stroke-width="1.5" stroke-miterlimit="10" cx="39.235" cy="69.573" rx="5.768" ry="7.101"/><ellipse fill="#E6CFC3" stroke="#687D89" stroke-width="1.5" stroke-miterlimit="10" cx="115.968" cy="69.573" rx="5.767" ry="7.101"/><path fill="#E6CFC3" stroke="#687D89" stroke-width="1.5" stroke-miterlimit="10" d="M115.092 59.068c0-13.33-46.927-35.665-46.927-35.665-15.245 0-27.618 22.336-27.618 35.665v26.11c0 16.68 16.69 30.2 37.275 30.2 20.582 0 37.27-13.52 37.27-30.2v-26.11z"/><ellipse fill="#687D89" cx="61.089" cy="67.616" rx="1.995" ry="3.294"/><path fill="#687D89" d="M95.557 67.616c0 1.82-.893 3.294-1.996 3.294-1.098 0-1.992-1.475-1.992-3.294s.895-3.294 1.993-3.294c1.104 0 1.997 1.475 1.997 3.294z"/><path stroke="#788893" stroke-width="1.5" stroke-linecap="round" stroke-linejoin="round" stroke-miterlimit="10" d="M83.063 106.223s-4.205 1.742-9.863.423" fill="none"/><path stroke="#687D89" stroke-width="1.5" stroke-linecap="round" stroke-linejoin="round" stroke-miterlimit="10" d="M62.776 88.044s14.778 13.32 30.4 0" fill="none"/><path fill="#5E422E" stroke="#3E2613" stroke-width="1.5" stroke-miterlimit="10" d="M102.57 29.123c-9.426-5.603-35.324-9.158-49.28-2.278-10.655 5.25-20.257 24.458-16.813 28.33 3.443 3.878 38.156-3.954 40.98-21.174.518 20.236 37.662 26.117 41.844 21.648 4.194-4.47-7.31-20.92-16.73-26.525z"/><path fill="#D5C0B5" d="M78.178 81.97h-4.963l1.63-4.198h6.452l1.844 4.2z"/><path stroke="#687D89" stroke-width="1.5" stroke-linecap="round" stroke-linejoin="round" stroke-miterlimit="10" fill="none" d="M78.136 82.83H71.94l3.1-7.467 3.096-7.467 3.098 7.467 3.1 7.466z"/><circle fill="#D5C0B5" cx="53.019" cy="80.432" r="6.335"/><circle fill="#D5C0B5" cx="101.751" cy="80.432" r="6.335"/><path stroke="#788893" stroke-width="1.5" stroke-linecap="round" stroke-miterlimit="10" d="M90.225 60.066s8.08-5.678 12.912 1.065M55.02 60.828s6.703-7.25 12.848-1.677" fill="none"/></g></svg>