<svg xmlns="http://www.w3.org/2000/svg" xmlns:xlink="http://www.w3.org/1999/xlink" width="155.445" height="155.444" viewBox="0 0 155.445 155.444"><defs><circle id="a" cx="77.723" cy="77.723" r="77.723"/></defs><clipPath id="b"><use xlink:href="#a" overflow="visible"/></clipPath><g clip-path="url(#b)"><circle fill="#FFECB0" cx="77.723" cy="77.723" r="77.723"/><path fill="#F3E1D4" stroke="#687C89" stroke-width="1.5" stroke-miterlimit="10" d="M66.208 106.173h18.51v26.083h-18.51z"/><path fill="#F1D8E8" stroke="#687C89" stroke-width="2" stroke-linecap="round" stroke-linejoin="round" stroke-miterlimit="10" d="M85.145 121.345l-.28 4.528c0 3.415-2.98 6.216-6.272 6.216H72.01c-3.295 0-5.965-2.77-5.965-6.183v-4.974c-4.493.744-24.07 10.02-24.07 13.295v20.094h66.98v-19.064c0-3.413-20.52-13.913-23.81-13.913z"/><path fill="#E99197" stroke="#687C89" stroke-width="1.426" stroke-linecap="round" stroke-linejoin="round" stroke-miterlimit="10" d="M111.784 56.043c-1.86-13.743-3.65-30.883-27.516-38.397H69.51C44.786 19.584 40.35 61.22 40.494 66.27c-3.314 26.927 1.602 55.075 1.602 55.075-1.214-80.468 43.99-69.835 62.46-46.398 7.92 10.05 7.635 46.398 7.635 46.398s5.915-35.82-.406-65.302z"/><path fill="#AAA3D0" stroke="#687C89" stroke-width="2" stroke-linecap="round" stroke-linejoin="round" stroke-miterlimit="10" d="M83.878 22.094c1.216-.84.978-3.457-.396-6.605 3.165-1.337 5.14-3.066 4.837-4.517-.257-1.223-2.08-1.973-4.7-2.157.586-2.56.396-4.522-.697-5.122-1.26-.69-3.396.602-5.53 3.088-2.382-2.253-4.64-3.318-5.82-2.5-1.22.84-.98 3.454.39 6.604-3.163 1.336-5.138 3.066-4.835 4.517.256 1.22 2.078 1.973 4.7 2.154-.587 2.56-.397 4.523.696 5.125 1.26.69 3.396-.603 5.53-3.09 2.382 2.254 4.64 3.32 5.824 2.502z"/><g fill="#F3E1D4" stroke="#687C89" stroke-width="1.5" stroke-miterlimit="10"><ellipse cx="112.072" cy="80.982" rx="5.451" ry="6.959"/><ellipse cx="41.978" cy="80.982" rx="5.453" ry="6.959"/><path d="M112.07 87.105V73.19s-1.15-13.643-10.44-21.144C87.448 40.6 55.632 37.696 41.977 73.19V89.77c0 3.953.934 7.72 2.615 11.164 3.866 7.916 11.716 14.1 21.456 16.798 3.454.955 7.142 1.48 10.978 1.48 2.587 0 5.105-.24 7.532-.687 11.364-2.092 20.657-8.812 24.947-17.69 1.65-3.417 2.566-7.148 2.566-11.063v-2.667z"/></g><g stroke-miterlimit="10"><g stroke="#91E5DB" stroke-width="3" fill="none"><path d="M111.013 63.568c0 9.195-6.888 16.648-15.384 16.648-8.498 0-15.385-7.453-15.385-16.648s30.768-9.195 30.768 0zM43.037 63.568c0-9.195 30.768-9.195 30.768 0S66.918 80.216 58.42 80.216s-15.383-7.452-15.383-16.648zM80.245 63.568s-1.27-3.11-5.825-.017"/></g><ellipse fill="#687C89" stroke="#687C89" cx="60.266" cy="66.548" rx="2.532" ry="3.673"/><ellipse fill="#687C89" stroke="#687C89" cx="94.12" cy="66.548" rx="2.532" ry="3.673"/></g><path fill="#F3E1D4" stroke="#687C89" stroke-width="1.5" stroke-linecap="round" stroke-linejoin="round" stroke-miterlimit="10" d="M77.33 83.54h-7.82l3.91-8.593 3.91-8.594 3.913 8.594 3.91 8.594z"/><path fill="#E1CBC1" d="M77.386 82.556h-6.268l2.06-4.833h8.146l2.326 4.833z"/><g fill="#E1CBC1" stroke="#687C89" stroke-miterlimit="10"><ellipse cx="55.015" cy="87.941" rx="4.824" ry="4.063"/><ellipse cx="99.65" cy="87.941" rx="4.822" ry="4.063"/></g><path stroke="#687C89" stroke-width="1.426" stroke-linecap="round" stroke-linejoin="round" stroke-miterlimit="10" d="M61.592 92.966S75.7 98.543 93.177 94.32M70.338 103.634s4.37 1.81 10.25.438" fill="none"/><g stroke="#687C89" stroke-linecap="round" stroke-linejoin="round" stroke-miterlimit="10"><path fill="#AAA3D0" d="M59.27 25.09l9.058 9.06-9.058 9.057-9.06-9.06z"/><path fill="#B4856C" stroke-width=".89" d="M77.386 25.09l9.058 9.058-9.057 9.057-9.058-9.058z"/><path fill="#AAA3D0" d="M95.495 25.16l9.057 9.06-9.057 9.057-9.058-9.058z"/><path fill="#F1D8E8" d="M59.27 28.53l5.618 5.62-5.62 5.618-5.618-5.62zM77.386 28.534l5.618 5.62-5.62 5.618-5.618-5.62zM95.497 28.53l5.62 5.62-5.62 5.618-5.62-5.62z"/></g><path stroke="#fff" stroke-width="1.055" stroke-linecap="round" stroke-linejoin="round" stroke-miterlimit="10" stroke-dasharray="1.0554,2.1108,1.0554,2.1108,1.0554,2.1108" fill="none" d="M95.63 22.88l-9.19 6.997-9.057-8.933-9.058 9.375-9.87-8.492"/><path stroke="#F8F8F9" stroke-width="1.055" stroke-linecap="round" stroke-linejoin="round" stroke-miterlimit="10" stroke-dasharray="1.0554,2.1108,1.0554,2.1108,1.0554,2.1108" fill="none" d="M47.488 36.388l11.782 10.26 9.055-9.672 9.058 7.37 9.058-7.958 9.894 10.26 10.08-11.874"/><path fill="#D4EAD5" stroke="#687C89" stroke-width="2" stroke-miterlimit="10" d="M41.977 135.547h66.978v4.525H41.977zM41.977 144.703h66.978v4.524H41.977z"/><path stroke="#778793" stroke-width="2" stroke-linecap="round" stroke-miterlimit="10" fill="none" d="M89.814 56.672H99.84M57.784 56.672H67.81"/></g></svg>