<svg xmlns="http://www.w3.org/2000/svg" xmlns:xlink="http://www.w3.org/1999/xlink" width="173" height="156" viewBox="0 0 173 156"><circle fill="#97D0A1" cx="77.723" cy="77.723" r="77.723"/><path fill="#5E422E" stroke="#3E2613" stroke-width="1.5" stroke-miterlimit="10" d="M158.35 82.52c.985-2.896 12.876-34.477-19.75-34.477-27.723 0-29.254 41.662-9.585 47.527l-.002.002c25.365 16.496 42.213-5.867 42.213-5.867-8.71 1.226-11.956-2.58-12.876-7.186z"/><path fill="#F3D8C0" stroke="#687D89" stroke-width="1.5" stroke-miterlimit="10" d="M149.848 64.188c0 3.216-2.122 5.826-4.736 5.826s-4.735-2.61-4.735-5.826c0-3.22 2.12-5.83 4.735-5.83s4.736 2.61 4.736 5.83z"/><ellipse fill="#F3D8C0" stroke="#687D89" stroke-width="1.5" stroke-miterlimit="10" cx="82.844" cy="65.224" rx="4.735" ry="5.827"/><path fill="#5E422E" stroke="#3E2613" stroke-width="1.413" stroke-miterlimit="10" d="M134.622 72.08l-48.32-.557c-5.026 4.347-5.958-18.27-5.958-18.27 0-1.34 3.378-9.167 5.957-9.167h46.523c2.58 0 9.33 4.574 9.33 5.913 0 0-4.95 22.08-7.53 22.08z"/><path fill="#F3D8C0" stroke="#687D89" stroke-width="1.5" stroke-miterlimit="10" d="M105.494 93.207h15.6v31.563h-15.6zM145.112 56.988c0-10.942-9.937-29.277-22.452-29.277h-16.07c-12.512 0-22.667 18.336-22.667 29.278V78.42c0 13.693 13.7 24.792 30.596 24.792 16.895 0 30.593-11.1 30.593-24.792V56.99z"/><path fill="#5E422E" stroke="#3E2613" stroke-width="1.5" stroke-miterlimit="10" d="M137.172 30.34c-8.644-5.138-19.363-7.298-23.204-3.2-.05.056-10.785-3.63-23.58 2.676-9.77 4.817-15.187 18.85-12.03 22.4 3.16 3.56 32.713-1.956 35.302-17.748.31 15.79 30.797 19.892 34.63 15.792 3.845-4.1-2.477-14.777-11.118-19.92z"/><path fill="#F0CBC5" d="M119.737 65.483c0 3.177-2.897 5.75-5.855 5.75-2.96 0-5.217-1.81-5.76-5.75"/><path stroke="#687D89" stroke-width="1.5" stroke-linecap="round" stroke-linejoin="round" stroke-miterlimit="10" d="M120.38 62.315c0 5.048-2.906 9.135-6.495 9.135s-6.496-4.087-6.496-9.135" fill="none"/><path stroke="#3E2613" stroke-linecap="round" stroke-linejoin="round" stroke-miterlimit="10" d="M118.284 34.18s19.29 19.94 37.052 5.55M121.77 28.796s17.474 19.94 33.565 5.55M110.875 34.18S99.858 51.832 79.382 50.526" fill="none"/><path stroke="#788893" stroke-width="1.126" stroke-linecap="round" stroke-linejoin="round" stroke-miterlimit="10" d="M118.82 95.695s-3.45 1.43-8.094.347" fill="none"/><path stroke="#788893" stroke-width="1.58" stroke-linecap="round" stroke-miterlimit="10" fill="none" d="M89.362 56.66l9.058-.577"/><path stroke="#4D545D" stroke-width="3" stroke-miterlimit="10" d="M143.805 53.084c0 8.042-6.027 14.56-13.458 14.56-7.43 0-13.45-6.518-13.45-14.56 0-8.038 26.908-8.038 26.908 0zM84.357 53.084c0-8.038 26.905-8.038 26.905 0 0 8.042-6.02 14.56-13.45 14.56-7.433 0-13.455-6.518-13.455-14.56zM116.893 53.512s-3.048-2.264-6.018.81" fill="none"/><path fill="#fff" d="M87.556 49.166c.163.35-.414.965-1.29 1.376-.876.413-1.718.464-1.882.118-.164-.35.412-.97 1.29-1.38s1.718-.46 1.882-.114zM143.67 50.875c-.19.336-1.028.213-1.864-.272-.84-.482-1.36-1.147-1.168-1.48.194-.332 1.027-.21 1.866.272.84.486 1.36 1.15 1.167 1.48z"/><defs><circle id="a" cx="89.958" cy="85.246" r="63.922"/></defs><clipPath id="b"><use xlink:href="#a" overflow="visible"/></clipPath><g clip-path="url(#b)"><path fill="#F3F4F4" stroke="#626D8A" stroke-width="1.5" stroke-linecap="round" stroke-linejoin="round" stroke-miterlimit="10" d="M130.707 117.926l-8.946-10.557-8.27 13.837-8.413-12.718-8.8 9.925 17.226 11.477.02-.522z"/><path fill="#98D0CF" stroke="#626D8A" stroke-width="2" stroke-miterlimit="10" d="M122.49 108s-.01 13.398-9.382 13.212c-8.596-.174-8.96-11.845-8.96-11.845-4.64.7-25.616 7.386-25.616 10.474v18.947h69.146v-17.975c0-3.22-21.786-12.812-25.19-12.812z"/><path stroke="#fff" stroke-width="1.5" stroke-linecap="round" stroke-linejoin="round" stroke-miterlimit="10" stroke-dasharray="1,3,1,3,1,4" d="M99.416 110.512s1.476 6.828 6.012 11.24c5.376 5.232 19.485 6.338 20.622-12.856" fill="none"/></g><path stroke="#788893" stroke-width="1.58" stroke-linecap="round" stroke-miterlimit="10" fill="none" d="M128.146 50l8.09 4.117"/><path fill="#DB91B6" stroke="#626D8A" stroke-miterlimit="10" d="M118.76 88.1c0 2.44-1.975 4.415-4.413 4.415s-4.415-1.977-4.415-4.414h8.83z"/><circle fill="#F0CBC5" cx="97.292" cy="75.87" r="4.969"/><circle fill="#F0CBC5" cx="131.414" cy="75.87" r="4.969"/><ellipse fill="#687D89" cx="97.008" cy="60.788" rx="1.879" ry="3.105"/><ellipse fill="#687D89" cx="126.997" cy="60.788" rx="1.879" ry="3.105"/><defs><circle id="c" cx="77.723" cy="77.723" r="77.723"/></defs><clipPath id="d"><use xlink:href="#c" overflow="visible"/></clipPath><path clip-path="url(#d)" fill="#4D545D" stroke="#414852" stroke-width="2" stroke-miterlimit="10" d="M45.604 104.813s33.46 10.013 39.338 22.836c0 0 60.07-5.354 77.06 11.03l-8.732 46.976L17.705 156.48l27.9-51.667z"/><path clip-path="url(#d)" fill="#F3F4F4" stroke="#414852" stroke-width="2" stroke-linecap="round" stroke-linejoin="round" stroke-miterlimit="10" d="M27.915 135.333s-3.83 17.21-3.12 23.245c.71 6.033 63.17 5.323 63.17 5.323-4.437-19.696-34.425-39.56-34.425-39.56s-7.643 11.968-25.625 10.993z"/><g stroke-miterlimit="10"><path fill="#4D545D" stroke="#414852" stroke-width="1.5" d="M61.566 130.366c-.358 8.453-6.276 15.068-13.223 14.775-6.94-.294-12.28-7.386-11.923-15.84.36-8.453 6.278-15.067 13.222-14.772 6.945.294 12.283 7.386 11.924 15.838z"/><path fill="#BD7D9D" stroke="#353E47" d="M55.06 141.35c.29 2.75-1.88 5.233-4.842 5.544-2.957.313-5.598-1.665-5.886-4.417l-2.8-26.563c-.29-2.75 1.88-5.236 4.844-5.547 2.962-.312 5.6 1.663 5.89 4.417l2.794 26.566z"/></g><g fill="#4D545D" stroke="#414852" stroke-width="1.5" stroke-miterlimit="10"><path d="M29.686 81.496s-11.414-2.49-12.212 16.823c0 0-15.98 6.657-12.47 22.943 0 0 9.873 21.12 13.54 20.727 0 0 11.616-2.907 11.142-60.494zM64.857 81.525s11.583-1.52 10.745 17.796c0 0 15.362 7.987 10.488 23.92 0 0-11.627 20.207-15.248 19.504 0 0-11.325-3.88-5.985-61.22zM24.648 82.74s19.782-18.874 40.21-1.215c0 0 3.105 30.066 8.234 38.317 0 0-.773 18.22-13.497 16.95 0 0-7.7.77-11.29-9.24 0 0 .428 15.717-14.357 11.44 0 0-9.004-2.938-11.043-15.07l1.743-41.182"/></g><path fill="#A66639" d="M23.15 118.096s8.685 5.954 25.323 6.334c0 0 1.72 16.93-12.186 15.098 0 0-13.766-2.093-13.137-21.432M71.77 117.146s-5.884 4.298-22.495 3.27c0 0-3.147 16.726 10.864 16.072 0 0 13.34.634 11.63-19.342"/><path stroke="#414852" stroke-width="1.37" stroke-miterlimit="10" d="M24.648 82.74s19.782-18.874 40.21-1.215c0 0 3.105 30.066 8.234 38.317 0 0-.773 18.22-13.497 16.95 0 0-7.7.77-11.29-9.24 0 0 .428 15.717-14.357 11.44 0 0-9.004-2.938-11.043-15.07l1.743-41.182" fill="none"/><path fill="#F3F4F4" stroke="#414852" stroke-width="1.5" stroke-linecap="round" stroke-linejoin="round" stroke-miterlimit="10" d="M69.455 125.935c-2.407-4.788-21.022-9.602-15.133-50.61 0 0-4.2-1.477-10.394-1.147-6.188.383-8.26 1.79-8.26 1.79 10.56 40.066-5.707 47.797-7.55 52.828-3.077 8.422 8.136 10.748 8.136 10.748 11.643 1.555 12.37-10.89 12.31-11.382-.003.495 2.656 12.264 14.043 9.384 0 0 10.874-3.6 6.848-11.61z"/><path fill="#414852" stroke="#353E47" stroke-width="1.5" stroke-miterlimit="10" d="M57.693 121.415c-.125-1.678-1.585-2.934-3.257-2.806l-13.336.998c-1.677.127-2.932 1.586-2.806 3.26.126 1.673 8.65 7.764 10.327 7.638 1.677-.125 9.198-7.42 9.073-9.09z"/><path fill="#4D545D" stroke="#414852" stroke-width="1.37" stroke-linecap="round" stroke-linejoin="round" stroke-miterlimit="10" d="M79.575 102.407s-4.525-3.47-7.506-4.933M13.37 101.05s4.807-3.075 7.898-4.28"/><path fill="#A66639" d="M35.658 101.87c-1.872 1.057-3.85 1.097-4.418.09-.566-1.01.487-2.682 2.358-3.737 1.873-1.055 3.852-1.096 4.42-.087.567 1.006-.488 2.68-2.36 3.734z"/><path fill="#353E47" d="M39.298 101.59c-.054 1.427-.837 2.572-1.742 2.556-.908-.016-1.597-1.183-1.54-2.61.056-1.426.838-2.572 1.743-2.558.905.014 1.594 1.185 1.538 2.613z"/><path fill="#A66639" d="M57.048 98.384c1.985.817 3.953.614 4.396-.452.44-1.07-.815-2.603-2.8-3.422-1.986-.818-3.956-.613-4.396.457-.44 1.066.812 2.598 2.8 3.417z"/><path fill="#353E47" d="M55.656 99.635c.23 1.41 1.146 2.45 2.042 2.325.9-.126 1.44-1.37 1.207-2.78-.23-1.41-1.146-2.45-2.043-2.324-.9.126-1.436 1.372-1.206 2.78z"/></svg>