<svg xmlns="http://www.w3.org/2000/svg" xmlns:xlink="http://www.w3.org/1999/xlink" width="156" height="156" viewBox="0 0 156 156"><defs><circle id="a" cx="76.981" cy="77.026" r="77.722"/></defs><clipPath id="b"><use xlink:href="#a" overflow="visible"/></clipPath><g clip-path="url(#b)"><circle fill="#F9AD94" cx="77.277" cy="77.432" r="77.723"/><path fill="#5E422E" stroke="#503620" stroke-width="1.332" stroke-miterlimit="10" d="M117.314 37.004c0-3.38-2.716-6.12-6.06-6.12H46.09c-3.346 0-6.06 2.74-6.06 6.12v34.308c0 3.38 2.714 6.12 6.06 6.12h65.164c3.345 0 6.06-2.74 6.06-6.12V37.004z"/><ellipse fill="#F3D8C0" stroke="#626D8A" stroke-width="1.437" stroke-miterlimit="10" cx="115.013" cy="69.271" rx="5.596" ry="6.889"/><path fill="#F3D8C0" stroke="#626D8A" stroke-width="1.5" stroke-miterlimit="10" d="M67.78 105.773h18.995v32.75H67.78z"/><ellipse fill="#F3D8C0" stroke="#626D8A" stroke-width="1.437" stroke-miterlimit="10" cx="43.076" cy="69.271" rx="5.596" ry="6.889"/><path fill="#F3D8C0" stroke="#626D8A" stroke-width="1.437" stroke-miterlimit="10" d="M115.013 63.192c0-12.86-11.68-34.415-26.395-34.415h-18.89c-14.712 0-26.65 21.554-26.65 34.415V88.39c0 16.096 16.104 29.147 35.97 29.147s35.966-13.05 35.966-29.146V63.193z"/><path stroke="#626D8A" stroke-width="1.437" stroke-linecap="round" stroke-linejoin="round" stroke-miterlimit="10" d="M72.763 108.136s4.483 1.79 10.52.434" fill="none"/><path stroke="#788893" stroke-width="2.874" stroke-linecap="round" stroke-miterlimit="10" fill="none" d="M91.216 52.037l13.768 4.243"/><path fill="#4A94CD" stroke="#626D8A" stroke-width="2" stroke-miterlimit="10" d="M87.318 120.955l-.713 6.42c0 4.655-2.562 7.6-5.94 7.6h-6.522c-3.38 0-6.532-2.944-6.532-7.6v-6.78C63 121.613 42.91 134.26 42.91 138.723v27.392h68.74v-25.987c0-4.655-20.822-17.872-24.33-19.173z"/><path stroke="#788893" stroke-width="1.5" stroke-linecap="round" stroke-miterlimit="10" d="M58.308 68.727c0-2.43 1.713-4.397 3.826-4.397 2.112 0 3.824 1.968 3.824 4.397M94.84 68.727c0-2.43 1.71-4.397 3.823-4.397 2.114 0 3.826 1.968 3.826 4.397" fill="none"/><path fill="#5E422E" stroke="#503620" stroke-width="1.338" stroke-miterlimit="10" d="M109.093 29.127c-.526-6.94-9.434-12.467-20.38-12.467-4.33 0-8.336.87-11.64 2.344-3.742-1.828-8.176-2.9-12.945-2.9-13.285 0-24.056 8.218-24.056 18.353 0 10.138 10.77 18.354 24.056 18.354 9.39 0 17.5-4.113 21.462-10.1 1.02.105 2.058.17 3.122.17 3.368 0 6.54-.532 9.345-1.46 1.867 2.212 5.1 3.676 8.777 3.676 5.79 0 10.48-3.616 10.48-8.083 0-3.864-3.52-7.09-8.22-7.886z"/><path stroke="#503620" stroke-width="1.338" stroke-linecap="round" stroke-linejoin="round" stroke-miterlimit="10" d="M86.212 27.915s-32.54 27.207-49.758-1.307M79.162 20.927s-23.945 19.93-42.708-.948" fill="none"/><path fill="#E0C9B4" d="M80.858 86.474h-5.4l1.773-6.712h7.024l2.006 6.712z"/><path stroke="#626D8A" stroke-width="1.508" stroke-linejoin="round" stroke-miterlimit="10" fill="none" d="M80.6 86.474h-5.662l2.833-9.916 2.83-9.917 2.83 9.918 2.83 9.916z"/><path stroke="#626D8A" stroke-width="1.437" stroke-linecap="round" stroke-linejoin="round" stroke-miterlimit="10" d="M63.786 97.575s14.48 5.52 32.418 1.34" fill="none"/><path fill="#fff" stroke="#626D8A" stroke-width="1.338" stroke-linecap="round" stroke-linejoin="round" stroke-miterlimit="10" d="M72.964 134.976h8.727c4.363 0 7.904-3.392 7.904-7.573v-5.188c.26 0-1.664-.83-2.32-.83l-.4 4.138c0 3.378-2.74 6.12-6.12 6.12h-6.756c-3.38 0-6.12-2.742-6.12-6.12v-4.927c-.657.104-1.636.387-2.817.794v6.014c0 4.18 3.54 7.572 7.904 7.572z"/><path stroke="#788893" stroke-width="2.874" stroke-linecap="round" stroke-miterlimit="10" fill="none" d="M53.85 60.864l13.45-5.162"/><circle fill="#E0C9B4" cx="60.053" cy="84.871" r="4.942"/><circle fill="#E0C9B4" cx="100.08" cy="84.871" r="4.942"/></g></svg>