<svg xmlns="http://www.w3.org/2000/svg" width="199" height="279" viewBox="0 0 199 279"><circle fill="#818285" cx="112.693" cy="193.622" r="83.303"/><circle fill="#6C6D6F" cx="95.963" cy="172.23" r="27.461"/><circle fill="#6C6D6F" cx="60.471" cy="238.961" r="13.358"/><circle fill="#6C6D6F" cx="166.644" cy="153.691" r="10.761"/><circle fill="#6C6D6F" cx="120.19" cy="189.53" r="14.854"/><path fill="#8FCD94" d="M3.688 19.484c4.28-9.542 19.925-16.246 31.6-18.04C47.017-.36 61.97 1.02 69.502 8.35c27.9 27.14-20.438 83.342-20.438 83.342s-61.987-35.18-45.377-72.208z"/><path fill="#F79C83" d="M8.578 18.733C12.134 9.303 25.675 2.92 35.84 1.36c10.22-1.573 23.307.094 30.035 7.545 24.904 27.602-16.245 82.7-16.245 82.7S-5.218 55.325 8.578 18.733z"/><path fill="#8FCD94" d="M20.95 16.83C22.418 7.72 29.9 2.27 35.723 1.376c5.854-.9 13.59 1.59 17.988 9.398 16.285 28.928-4.16 80.843-4.16 80.843s-34.293-39.44-28.6-74.787z"/><path fill="#54C0E8" d="M49.608 92s-.035-.895.63-2.228C58.064 74.11 73.338-.57 35.84 1.36L49.61 92z"/><path stroke="#505978" stroke-width=".978" stroke-miterlimit="10" stroke-dasharray="3.9138,2.9353,3.9138,2.9353,3.9138,2.9353" fill="none" d="M52.964 86.79l2.45 14.918M44.692 88.78l2.346 14.3"/><path stroke="#505978" stroke-width="1.468" stroke-linecap="round" stroke-linejoin="round" stroke-miterlimit="10" fill="none" d="M43.863 103.56L30.1 78.41M62.73 73.39l-5.252 27.975M38.15 84.55c.637 5.71 5.783 9.82 11.49 9.184 5.708-.638 9.022-7.013 8.384-12.72"/><path fill="#EF5225" d="M43.863 103.56l1.938 12.76 13.713-2.084-1.937-12.76"/><path fill="#F7F8F9" d="M47.767 102.968l1.357 8.944 5.968-.905-1.36-8.946"/><path fill="#FAB585" d="M45.817 116.304l13.69-2.08.408 2.696L46.227 119z"/><path opacity=".4" fill="#fff" d="M13.19 16.46c4.28-9.54 7.786-8.283 4.26 1.064C4.265 52.5 48.85 91.726 48.85 91.726S-3.42 53.49 13.19 16.46z"/><g opacity=".4" fill="#fff"><ellipse transform="matrix(.903 .43 -.43 .903 8.088 -21.321)" opacity=".69" cx="51.171" cy="7.218" rx="7.895" ry="2.933"/><path opacity=".64" d="M61.54 13.786c-.35.73-1.353.98-2.246.555-.89-.425-1.33-1.363-.98-2.095.348-.728 1.352-.98 2.246-.55.887.423 1.328 1.36.98 2.09z"/></g><path fill="#6C6D6F" d="M161.76 242.118c0 7.38-5.98 13.36-13.357 13.36-7.378 0-13.358-5.98-13.358-13.36 0-7.376 5.98-13.357 13.358-13.357 7.375 0 13.357 5.982 13.357 13.358z"/><circle fill="#6C6D6F" cx="146.415" cy="225.602" r="7.396"/><path fill="#F79C83" d="M99.28 65.046h50.842v28.85H99.28z"/><path fill="#54C0E8" d="M99.28 65.047h19.808V78.41H99.28z"/><g fill="#fff"><circle cx="101.963" cy="68.14" r=".949"/><circle cx="101.963" cy="71.935" r=".949"/><circle cx="101.963" cy="75.731" r=".949"/></g><g fill="#fff"><circle cx="105.677" cy="68.14" r=".949"/><circle cx="105.677" cy="71.935" r=".949"/><circle cx="105.677" cy="75.731" r=".949"/></g><g fill="#fff"><circle cx="108.979" cy="68.14" r=".95"/><circle cx="108.979" cy="71.935" r=".95"/><circle cx="108.979" cy="75.731" r=".95"/></g><g fill="#fff"><circle cx="112.693" cy="68.14" r=".949"/><circle cx="112.693" cy="71.935" r=".949"/><circle cx="112.693" cy="75.731" r=".949"/></g><g fill="#fff"><circle cx="116.777" cy="68.14" r=".949"/><circle cx="116.777" cy="71.935" r=".949"/><circle cx="116.777" cy="75.731" r=".949"/></g><path fill="#fff" d="M119.088 66.947h31.034v1.897h-31.034zM119.088 70.78h31.034v1.897h-31.034zM119.088 74.577h31.034v1.897h-31.034zM99.28 78.372h50.842v1.897H99.28zM99.28 82.167h50.842v1.897H99.28zM99.28 85.96h50.842v1.9H99.28zM99.28 90.102h50.842V92H99.28z"/><path stroke="#505978" stroke-width="1.468" stroke-linecap="round" stroke-linejoin="round" stroke-miterlimit="10" fill="none" d="M99.28 65.046v47.872"/></svg>