<svg xmlns="http://www.w3.org/2000/svg" xmlns:xlink="http://www.w3.org/1999/xlink" width="156" height="156" viewBox="0 0 156 156"><defs><circle id="a" cx="78" cy="78" r="77.722"/></defs><clipPath id="b"><use xlink:href="#a" overflow="visible"/></clipPath><g clip-path="url(#b)"><circle fill="#97D0A1" cx="78" cy="78" r="77.722"/><ellipse fill="#F3D8C0" stroke="#687D89" stroke-width="1.5" stroke-miterlimit="10" cx="115.12" cy="76.374" rx="5.452" ry="6.958"/><path fill="#F3D8C0" stroke="#687D89" stroke-width="1.5" stroke-miterlimit="10" d="M69.098 109.95h18.51v26.08h-18.51z"/><ellipse fill="#F3D8C0" stroke="#687D89" stroke-width="1.5" stroke-miterlimit="10" cx="45.026" cy="76.374" rx="5.452" ry="6.958"/><path fill="#F3D8C0" stroke="#687D89" stroke-width="1.5" stroke-miterlimit="10" d="M115.12 66.936c0-12.993-11.38-34.767-25.718-34.767H70.996c-14.336 0-25.97 21.773-25.97 34.766V92.39c0 16.26 15.692 29.442 35.048 29.442s35.046-13.182 35.046-29.44V66.935z"/><path stroke="#788893" stroke-width="1.5" stroke-miterlimit="10" d="M113.85 73.01c0 3.412-2.67 6.18-5.963 6.18H90.494c-3.293 0-5.963-2.77-5.963-6.18v-5.412c0-3.415 2.67-6.182 5.964-6.182h17.393c3.293 0 5.963 2.768 5.963 6.182v5.41zM76.49 73.01c0 3.412-2.67 6.18-5.965 6.18H53.133c-3.29 0-5.963-2.77-5.963-6.18v-5.412c0-3.415 2.672-6.182 5.963-6.182h17.393c3.295 0 5.965 2.768 5.965 6.182v5.41z" fill="none"/><ellipse fill="#E0C9B4" cx="58.28" cy="87.441" rx="4.823" ry="5.033"/><ellipse fill="#E0C9B4" cx="102.917" cy="87.441" rx="4.823" ry="5.033"/><path stroke="#788893" stroke-width="1.5" stroke-linecap="round" stroke-linejoin="round" stroke-miterlimit="10" d="M65.207 101.668s14.107 5.576 31.585 1.352M73.952 112.336s4.368 1.81 10.25.44" fill="none"/><path stroke="#788893" stroke-width="1.5" stroke-miterlimit="10" fill="none" d="M80.98 79.19v-5.405M76.49 69.454s4.47-3.623 8.04 0"/><path fill="#E0C9B4" d="M88.922 84.008c0 2.55-3.534 4.62-7.895 4.62s-7.896-2.07-7.896-4.62"/><path stroke="#788893" stroke-width="1.5" stroke-linecap="round" stroke-miterlimit="10" fill="none" d="M54.104 64.837l14.994-6.055M91.62 58.782h14.04"/><path fill="#4A94CD" stroke="#687D89" stroke-width="2" stroke-miterlimit="10" d="M87.606 122.266l.144 5.37c0 4.01-2.98 7.298-6.27 7.298h-6.585c-3.293 0-5.963-3.25-5.963-7.26v-5.842c-4.493.875-24.07 11.77-24.07 15.615v23.6h66.98v-22.39c0-4.01-20.944-16.39-24.236-16.39z"/><path stroke="#788893" stroke-width="4" stroke-miterlimit="10" stroke-dasharray="1.4257,2.8514,1.4257,2.8514,1.4257,2.8514" d="M58.28 101.668s19.15-19.875 43.892 0" fill="none"/><g stroke="#788893" stroke-width="1.5" stroke-linecap="round" stroke-miterlimit="10" fill="none"><path d="M59.87 72.525c0-2.454 1.666-4.444 3.725-4.444 2.06 0 3.727 1.99 3.727 4.445M95.463 72.525c0-2.454 1.668-4.444 3.727-4.444s3.728 1.99 3.728 4.445"/></g><path fill="#6C6D6F" stroke="#495A66" stroke-width="1.5" stroke-miterlimit="10" d="M45.025 54.665"/><ellipse stroke="#788893" stroke-width="1.5" stroke-miterlimit="10" cx="80.979" cy="84.297" rx="8.619" ry="5.105" fill="none"/><g stroke="#555E68" stroke-width="1.5" stroke-miterlimit="10"><path fill="#6C6D6F" d="M111.937 36.53c-2.86-13.308-19.71-13.308-19.71-13.308-24.7-10.647-42.205 13.31-42.205 13.31-14.252 7.884-8.93 37.253-4.39 39.888V68.3c0-10.623 7.776-27.105 18.444-32.772 7.836 4.65 21.006 9.49 32.986-.225 10.84 5.436 18.663 22.226 18.663 32.995V77c5.486-3.215 6.55-40.436-3.788-40.47z"/><path stroke-linecap="round" d="M66.78 30.31s24.84 15.57 36.137-7.852M68.242 25.252s25.02 7.453 29.412-7.32" fill="none"/></g><path stroke="#555E68" stroke-width="1.5" stroke-linecap="round" stroke-miterlimit="10" d="M49.513 36.83s-4.68 7.32-4.487 14.774M111.604 36.21s4.68 7.32 4.486 14.774" fill="none"/></g></svg>