<svg xmlns="http://www.w3.org/2000/svg" xmlns:xlink="http://www.w3.org/1999/xlink" width="156" height="156" viewBox="0 0 156 156"><defs><circle id="a" cx="78.383" cy="77.723" r="77.722"/></defs><clipPath id="b"><use xlink:href="#a" overflow="visible"/></clipPath><g clip-path="url(#b)"><circle fill="#D7EAF9" cx="78.383" cy="77.723" r="77.722"/><g fill="#4D545D" stroke="#414852" stroke-width="1.765" stroke-miterlimit="10"><path d="M95.312 117.887c.792-.276 1.602-.374 2.396-.35-.06-.14-.144-.27-.195-.416-1.2-3.47.615-7.256 4.05-8.518-1.034-1.06-1.754-2.45-1.908-4.038-.36-3.708 2.354-7.005 6.06-7.368.19-.016.375.007.566 0-.207-.367-.374-.767-.51-1.174-.363-.23-.64-.52-.75-.918-.225-.808-7.938-3.33-8.943-6.915-1.005-3.588 1.087-7.31 4.673-8.32.183-.05.37-.057.557-.097-.567-.693-1.01-1.51-1.27-2.43-.53-1.902-.172-3.836.8-5.388-1.173-.632-2.16-1.632-2.706-2.963-.414-1.012-.508-2.067-.368-3.08-1.412.168-2.885-.145-4.137-1.027-2.693-1.903-3.336-5.63-1.435-8.32.1-.143.225-.25.328-.38-.777-.162-1.534-.475-2.225-.963-2.695-1.906-3.33-5.634-1.43-8.324 1.9-2.694 5.626-3.332 8.32-1.432.725.51 1.286 1.156 1.704 1.876 2.025-1.842 5.123-2.104 7.45-.462 1.58 1.12 2.43 2.863 2.49 4.662 1.18.63 2.16 1.63 2.71 2.96.244.598.348 1.21.39 1.82.15.21.278.425.4.646 2.577-.287 5.144 1.116 6.183 3.634 1.07 2.604.158 5.513-2.025 7.093.524.534.965 1.176 1.27 1.906 1.102 2.69.105 5.71-2.234 7.253 2.122.648 3.88 2.32 4.526 4.61.728 2.598-1.418 7.36-1.934 9.27.412.767.684 1.623.773 2.543.037.37.03.73.006 1.087.303.6.525 1.26.66 1.972 2.594.73 4.604 2.975 4.88 5.817.307 3.165-1.63 6.01-4.506 7.008.394.75.662 1.583.747 2.478.093.93-.014 1.83-.273 2.667.374.52.705 1.08.926 1.72 1.218 3.52-.65 7.36-4.168 8.578-.948.328-1.913.418-2.85.326.358 3.07-1.442 6.087-4.484 7.142-3 1.037-6.223-.182-7.866-2.746-.636.56-1.385 1.016-2.232 1.31-3.52 1.214-7.36-.65-8.576-4.17-1.22-3.524.648-7.363 4.166-8.58z"/><path stroke-linecap="round" stroke-linejoin="round" d="M120.614 111.23s-1.99-5.614-3.908-6.724M103 130.58s-3.13-3.286.33-5.747"/></g><g fill="#4D545D" stroke="#414852" stroke-width="1.765" stroke-linecap="round" stroke-linejoin="round" stroke-miterlimit="10"><path d="M67.644 117.7c-.803-.248-1.614-.32-2.404-.272.052-.143.13-.27.177-.422 1.09-3.51-.842-7.233-4.32-8.385 1.004-1.093 1.68-2.503 1.78-4.097.242-3.72-2.57-6.928-6.287-7.172-.19-.01-.375.02-.566.02.196-.375.35-.777.475-1.193.353-.24.62-.538.717-.937.2-.814 7.83-3.583 8.72-7.197.89-3.617-1.32-7.27-4.934-8.164-.187-.048-.372-.05-.56-.082.543-.71.96-1.54 1.188-2.468.475-1.92.055-3.84-.97-5.362 1.155-.67 2.105-1.7 2.613-3.045.383-1.026.442-2.085.27-3.09 1.42.12 2.88-.238 4.105-1.16 2.63-1.99 3.152-5.732 1.166-8.364-.102-.136-.23-.244-.34-.37.772-.183 1.52-.522 2.193-1.032 2.633-1.99 3.152-5.734 1.168-8.364-1.987-2.63-5.73-3.15-8.363-1.167-.707.536-1.248 1.198-1.643 1.932-2.085-1.777-5.19-1.942-7.467-.226-1.543 1.167-2.333 2.938-2.337 4.735-1.156.666-2.108 1.7-2.616 3.046-.225.605-.308 1.22-.333 1.833-.14.21-.262.43-.376.657-2.586-.21-5.108 1.277-6.064 3.827-.986 2.634.017 5.515 2.25 7.026-.508.55-.928 1.203-1.21 1.946-1.02 2.72.078 5.706 2.462 7.174-2.097.716-3.802 2.443-4.37 4.753-.648 2.62 1.65 7.312 2.224 9.202-.387.778-.632 1.646-.694 2.568-.023.37-.005.73.03 1.086-.284.607-.484 1.276-.596 1.988-2.57.815-4.51 3.122-4.693 5.972-.207 3.17 1.818 5.954 4.726 6.86-.37.76-.61 1.605-.67 2.5-.06.93.072 1.827.36 2.66-.358.53-.673 1.1-.87 1.746-1.105 3.558.884 7.337 4.44 8.44.954.3 1.92.357 2.853.236-.257 3.082 1.636 6.04 4.71 6.995 3.035.942 6.217-.378 7.776-2.99.655.536 1.416.967 2.272 1.23 3.56 1.106 7.337-.88 8.443-4.438 1.105-3.554-.88-7.334-4.436-8.44zM42.26 113.67s-1.076-4.405 3.146-4.825M46.304 125.103s4.438.943 4.725-3.293"/></g><g fill="#F3D8C0" stroke="#687D89" stroke-width="1.337" stroke-miterlimit="10"><ellipse cx="48.199" cy="74.963" rx="5.208" ry="6.411"/><path d="M110.845 74.964c0-3.54 2.33-6.41 5.21-6.41 2.872 0 5.206 2.87 5.206 6.41s-2.333 6.41-5.206 6.41c-2.88 0-5.21-2.87-5.21-6.41z"/></g><path fill="#F3D8C0" stroke="#687D89" stroke-width="1.671" stroke-linecap="round" stroke-linejoin="round" stroke-miterlimit="10" d="M72.06 111.54h17.156v34.72H72.06zM115.638 71.7c0-12.037-10.93-32.205-24.696-32.205H73.267c-13.767 0-24.94 20.167-24.94 32.204V95.274c0 15.06 15.073 27.27 33.66 27.27 18.583 0 33.65-12.21 33.65-27.27V71.698z"/><path stroke="#788893" stroke-width="1.239" stroke-linecap="round" stroke-linejoin="round" stroke-miterlimit="10" d="M86.716 112.146s-3.793 1.574-8.904.38" fill="none"/><path stroke="#687D89" stroke-width="1.738" stroke-linecap="round" stroke-linejoin="round" stroke-miterlimit="10" d="M68.4 98.93s13.344 12.026 27.448 0" fill="none"/><path fill="#E0C9B4" d="M100.94 90.567c-3.502 0-6.34-2.307-6.34-5.148 0-2.85 2.838-5.155 6.34-5.155 3.503 0 6.342 2.307 6.342 5.154 0 2.84-2.84 5.147-6.343 5.147zM63.022 90.567c-3.502 0-6.342-2.307-6.342-5.148 0-2.85 2.84-5.158 6.342-5.158s6.34 2.31 6.34 5.157c0 2.84-2.838 5.147-6.34 5.147z"/><path fill="#FEE9AC" stroke="#687D89" stroke-width="1.037" stroke-miterlimit="10" d="M46.433 61.157c2.03 1.608 3.215 3.492 2.65 4.21-.57.715-2.676-.005-4.705-1.612-2.03-1.605-3.215-3.49-2.65-4.205.57-.717 2.675.003 4.705 1.607z"/><path fill="#4D545D" stroke="#414852" stroke-width="1.765" stroke-linecap="round" stroke-linejoin="round" stroke-miterlimit="10" d="M79.958 38.65C53.405 24.743 44.195 59.917 44.195 59.917c24.065 2.412 32.706-5.31 35.763-11.94 3.055 6.63 11.695 14.353 35.763 11.94 0 0-9.21-35.174-35.762-21.27z"/><path fill="#E0C9B4" d="M88.367 83.888v2.76c0 .283-.41.512-.92.512H77.28c-.51 0-.924-.23-.924-.513v-2.76"/><path stroke="#687D89" stroke-width="1.203" stroke-linecap="round" stroke-miterlimit="10" d="M88.367 77.952v8.07c0 .83-.42 1.5-.936 1.5H77.098c-.516 0-.938-.67-.938-1.5v-8.07" fill="none"/><path stroke="#414852" stroke-width="1.765" stroke-linecap="round" stroke-linejoin="round" stroke-miterlimit="10" d="M82.956 44.364s9.265 17.6 40.75 5.275M86.35 40.603s16.98 12.862 35.49 2.745" fill="none"/><path fill="#fff" stroke="#687D89" stroke-width="1.666" stroke-miterlimit="10" d="M90.31 125.657s-.01 13.78-9.648 13.586c-8.838-.178-9.213-12.182-9.213-12.182-4.775.724-26.348 7.597-26.348 10.773v19.485h71.112v-18.486c0-3.31-22.402-13.175-25.904-13.175z"/><path fill="#FEE9AC" stroke="#687D89" stroke-width="1.666" stroke-miterlimit="10" d="M45.102 141.91h71.112v4.437H45.102zM45.102 150.778h71.112v4.436H45.102z"/><path fill="#AAA4D1" stroke="#687D89" stroke-width="2" stroke-linecap="round" stroke-linejoin="round" stroke-miterlimit="10" d="M69.507 157.32H43.77v-19.486c0-3.177 21.573-10.05 26.35-10.772l-.613 30.257zM91.355 156.853h24.858v-18.485c0-3.312-22.402-13.175-25.904-13.175l1.045 31.66z"/><path stroke="#687D89" stroke-width="1.5" stroke-linecap="round" stroke-linejoin="round" stroke-miterlimit="10" d="M60.997 74.526c0-2.552 2.067-4.62 4.62-4.62 2.55 0 4.62 2.068 4.62 4.62M93.633 74.526c0-2.552 2.07-4.62 4.62-4.62 2.552 0 4.62 2.068 4.62 4.62M59.042 65.643l9.358-3.185M94.602 61.87l8.867 4.362" fill="none"/></g><g stroke="#788893" stroke-width="1.79" stroke-miterlimit="10" fill="none"><path d="M111.725 73.245c0 3.056-2.39 5.533-5.338 5.533h-15.57c-2.946 0-5.338-2.477-5.338-5.533v-4.842c0-3.057 2.39-5.535 5.338-5.535h15.568c2.95 0 5.338 2.478 5.338 5.535v4.842zM78.28 73.245c0 3.056-2.39 5.533-5.338 5.533h-15.57c-2.945 0-5.337-2.477-5.337-5.533v-4.842c0-3.057 2.392-5.535 5.338-5.535h15.57c2.948 0 5.337 2.478 5.337 5.535v4.842zM78.28 70.062s4-3.243 7.2 0"/></g></svg>