<svg xmlns="http://www.w3.org/2000/svg" width="399" height="558" viewBox="0 0 399 558"><path fill="#818285" d="M397.93 389.028c0 92.95-76.26 168.3-170.335 168.3-94.07 0-170.332-75.35-170.332-168.3 0-92.948 76.262-168.296 170.332-168.296 94.075 0 170.334 75.348 170.334 168.296z"/><path fill="#6C6D6F" d="M249.54 345.81c0 30.64-25.14 55.482-56.156 55.482-31.01 0-56.147-24.842-56.147-55.48 0-30.642 25.137-55.48 56.147-55.48 31.015 0 56.155 24.838 56.155 55.48zM148.13 480.626c0 14.91-12.23 26.99-27.31 26.99-15.09 0-27.317-12.08-27.317-26.99 0-14.905 12.23-26.99 27.316-26.99 15.08 0 27.31 12.085 27.31 26.99zM359.915 308.355c0 12.006-9.85 21.74-22.003 21.74-12.152 0-22.005-9.734-22.005-21.74 0-12.01 9.853-21.742 22.005-21.742 12.154 0 22.003 9.732 22.003 21.742zM273.298 380.762c0 16.574-13.6 30.006-30.374 30.006-16.77 0-30.37-13.432-30.37-30.006 0-16.57 13.6-30.01 30.37-30.01 16.773 0 30.374 13.438 30.374 30.01z"/><path fill="#8FCD94" d="M4.71 37.215C13.465 17.938 45.453 4.395 69.32.772c23.99-3.648 54.56-.86 69.965 13.948 57.045 54.833-41.79 168.378-41.79 168.378S-29.256 112.022 4.71 37.215z"/><path fill="#F79C83" d="M14.708 35.7C21.98 16.644 49.668 3.753 70.454.597c20.893-3.175 47.655.19 61.412 15.245 50.922 55.764-33.217 167.08-33.217 167.08S-13.5 109.627 14.707 35.698z"/><path fill="#8FCD94" d="M40.005 31.854C43.008 13.448 58.303 2.44 70.213.634c11.97-1.82 27.787 3.21 36.78 18.987 33.298 58.444-8.507 163.328-8.507 163.328s-70.12-79.68-58.48-151.094z"/><path fill="#54C0E8" d="M98.605 183.717s-.07-1.805 1.29-4.5c16-31.643 47.234-182.52-29.44-178.62l28.15 183.12z"/><path stroke="#505978" stroke-width=".978" stroke-miterlimit="10" stroke-dasharray="3.9138,2.9353,3.9138,2.9353,3.9138,2.9353" fill="none" d="M105.466 173.192l5.01 30.14M88.552 177.212l4.796 28.893"/><path stroke="#505978" stroke-width="1.468" stroke-linecap="round" stroke-linejoin="round" stroke-miterlimit="10" fill="none" d="M86.857 207.072l-28.143-50.807M125.436 146.125l-10.74 56.516M75.173 168.67c1.305 11.537 11.826 19.84 23.5 18.553 11.667-1.29 18.443-14.168 17.14-25.7"/><path fill="#EF5225" d="M86.857 207.072l3.963 25.782 28.036-4.21-3.96-25.78"/><path fill="#F7F8F9" d="M94.84 205.878l2.774 18.07 12.203-1.827-2.78-18.075"/><path fill="#FAB585" d="M118.83 228.615l-27.99 4.2.84 5.445 27.983-4.198z"/><path opacity=".4" fill="#fff" d="M24.14 31.11c8.754-19.278 15.92-16.737 8.71 2.146-26.96 70.66 64.202 149.91 64.202 149.91S-9.825 105.915 24.14 31.108z"/><g opacity=".4" fill="#fff"><path opacity=".69" d="M116.373 19.3c-1.428 2.954-9.105 2.27-17.153-1.518C91.173 13.99 85.802 8.524 87.23 5.57c1.425-2.95 9.103-2.277 17.15 1.516 8.045 3.792 13.416 9.257 11.993 12.213z"/><path opacity=".64" d="M123.004 25.704c-.718 1.473-2.77 1.977-4.595 1.122-1.82-.86-2.722-2.755-2.008-4.235.714-1.47 2.767-1.976 4.594-1.113 1.816.856 2.718 2.752 2.008 4.227z"/></g><path fill="#6C6D6F" d="M327.924 487.005c0 14.91-12.23 26.994-27.312 26.994-15.086 0-27.314-12.086-27.314-26.995 0-14.9 12.23-26.986 27.314-26.986 15.08 0 27.312 12.084 27.312 26.985zM311.672 453.637c0 8.255-6.772 14.944-15.123 14.944-8.355 0-15.125-6.688-15.125-14.943 0-8.25 6.77-14.94 15.124-14.94 8.35 0 15.122 6.69 15.122 14.94z"/><path fill="#F79C83" d="M200.17 129.266h103.958v58.287H200.17z"/><path fill="#54C0E8" d="M200.17 129.268h40.502v26.996H200.17z"/><g fill="#fff"><ellipse cx="205.656" cy="135.515" rx="1.941" ry="1.917"/><ellipse cx="205.656" cy="143.183" rx="1.941" ry="1.917"/><ellipse cx="205.656" cy="150.853" rx="1.941" ry="1.917"/></g><g fill="#fff"><ellipse cx="213.25" cy="135.515" rx="1.941" ry="1.917"/><ellipse cx="213.25" cy="143.183" rx="1.941" ry="1.917"/><ellipse cx="213.25" cy="150.853" rx="1.941" ry="1.917"/></g><g fill="#fff"><ellipse cx="220.001" cy="135.515" rx="1.942" ry="1.917"/><ellipse cx="220.001" cy="143.183" rx="1.942" ry="1.917"/><ellipse cx="220.001" cy="150.853" rx="1.942" ry="1.917"/></g><g fill="#fff"><ellipse cx="227.596" cy="135.515" rx="1.941" ry="1.917"/><ellipse cx="227.596" cy="143.183" rx="1.941" ry="1.917"/><ellipse cx="227.596" cy="150.853" rx="1.941" ry="1.917"/></g><g fill="#fff"><ellipse cx="235.947" cy="135.515" rx="1.941" ry="1.917"/><ellipse cx="235.947" cy="143.183" rx="1.941" ry="1.917"/><ellipse cx="235.947" cy="150.853" rx="1.941" ry="1.917"/></g><path fill="#fff" d="M240.672 133.106h63.456v3.833h-63.456zM240.672 140.85h63.456v3.833h-63.456zM240.672 148.52h63.456v3.833h-63.456zM200.17 156.188h103.958v3.833H200.17zM200.17 163.854h103.958v3.833H200.17zM200.17 171.52h103.958v3.835H200.17zM200.17 179.885h103.958v3.833H200.17z"/><path stroke="#505978" stroke-width="1.468" stroke-linecap="round" stroke-linejoin="round" stroke-miterlimit="10" fill="none" d="M200.17 129.266v96.715"/></svg>