<?xml version="1.0" encoding="utf-8"?>
<!-- Generator: Adobe Illustrator 15.1.0, SVG Export Plug-In . SVG Version: 6.00 Build 0)  -->
<!DOCTYPE svg PUBLIC "-//W3C//DTD SVG 1.1//EN" "http://www.w3.org/Graphics/SVG/1.1/DTD/svg11.dtd">
<svg version="1.1" id="Capa_1" xmlns="http://www.w3.org/2000/svg" xmlns:xlink="http://www.w3.org/1999/xlink" x="0px" y="0px"
	 width="255px" height="264px" viewBox="0 0 255 264" enable-background="new 0 0 255 264" xml:space="preserve">
<g>
	<g>
		<ellipse fill="#D1D3D4" cx="41.85" cy="182.896" rx="31.546" ry="5.33"/>
		<ellipse fill="#D1D3D4" cx="124.742" cy="182.896" rx="31.545" ry="5.33"/>
		<ellipse fill="#D1D3D4" cx="215.531" cy="182.896" rx="31.546" ry="5.33"/>
	</g>
	<g>
		<g>
			<g>
				<path fill="#F9AF95" stroke="#D69580" stroke-width="3" stroke-miterlimit="10" d="M51.022,179.357
					c0,0,12.024-3.109,10.36,1.557H47.339v-24.58l7.664-1.555L51.022,179.357z"/>
				<path fill="#F9AF95" stroke="#D69580" stroke-width="3" stroke-miterlimit="10" d="M31.79,179.357c0,0-12.024-3.109-10.36,1.557
					h14.042v-24.58l-7.66-1.555L31.79,179.357z"/>
			</g>
			<path fill="#F9AF95" stroke="#D69580" stroke-width="3" stroke-miterlimit="10" d="M56.181,111.489c0,0,21.156,9.357,14,54.471
				c0,0,10.578,0.467,4.978,1.789c0,0-1.555,3.654-5.6,0c0,0-4.459-48.417-12.134-44.132L56.181,111.489z"/>
			<path fill="#F9AF95" stroke="#D69580" stroke-width="3" stroke-miterlimit="10" d="M21.642,111.489
				c0,0-21.158,9.357-14.002,54.471c0,0-10.578,0.465-4.979,1.787c0,0,1.556,3.654,5.601,0c0,0,4.459-48.415,12.134-44.132
				L21.642,111.489z"/>
			<path fill="#F9AF95" stroke="#D69580" stroke-width="3" stroke-miterlimit="10" d="M67.23,147.555
				c0,13.268-11.563,24.025-25.824,24.025l0,0c-14.261,0-25.823-10.758-25.823-24.025v-33.881c0-13.267,11.562-24.024,25.823-24.024
				l0,0c14.261,0,25.824,10.757,25.824,24.024V147.555z"/>
			<path fill="#FFFFFF" d="M38.847,131.679c-0.872-1.887-5.77-3.672-6.895-3.152c-1.124,0.518-0.595,5.13,0.276,7.018
				L38.847,131.679z"/>
			<path fill="#FFFFFF" d="M65.508,129.19c0.262-2.063-2.94-6.174-4.17-6.331c-1.23-0.156-3.228,4.03-3.488,6.095L65.508,129.19z"/>
			<g>
				
					<circle fill="#FFFFFF" stroke="#525255" stroke-width="2" stroke-linecap="round" stroke-linejoin="round" stroke-miterlimit="10" cx="35.08" cy="111.489" r="3.831"/>
				<circle fill="#525255" cx="35.079" cy="111.489" r="1.466"/>
			</g>
			<g>
				
					<circle fill="#FFFFFF" stroke="#525255" stroke-width="2" stroke-linecap="round" stroke-linejoin="round" stroke-miterlimit="10" cx="56.242" cy="111.489" r="3.831"/>
				<circle fill="#525255" cx="56.242" cy="111.489" r="1.467"/>
			</g>
			<path fill="#F9AF95" stroke="#D69580" stroke-width="3" stroke-miterlimit="10" d="M24.87,144.85c0,0,6.153-21.78,42.36-15.66
				c0,0,12.769,5.284-4.241,17.11"/>
			<g>
				
					<path fill-rule="evenodd" clip-rule="evenodd" fill="#DCEDF7" stroke="#DCEDF7" stroke-width="3" stroke-linecap="round" stroke-linejoin="round" stroke-miterlimit="10" d="
					M30.568,121.328c-0.396,1.079,0.173,2.276,1.269,2.678c1.097,0.404,2.305-0.143,2.701-1.22c0.507-1.379-0.268-4.859-0.445-4.925
					C33.917,117.794,31.075,119.949,30.568,121.328z"/>
				
					<path fill-rule="evenodd" clip-rule="evenodd" fill="#FFFFFF" stroke="#FFFFFF" stroke-width="3" stroke-linecap="round" stroke-linejoin="round" stroke-miterlimit="10" d="
					M31.34,122.998c0,0,1.783,1.747,2.916-0.982C34.256,122.016,33.287,123.342,31.34,122.998z"/>
			</g>
			<g>
				<circle fill="#D69580" cx="63.055" cy="135.545" r="0.814"/>
				<ellipse fill="#D69580" cx="65.523" cy="132.687" rx="2.466" ry="1.43"/>
				<circle fill="#D69580" cx="67.989" cy="137.123" r="1.075"/>
			</g>
			<path opacity="0.53" fill="#FFFFFF" d="M45.288,95.209c0,0-22.77-9.626-25.427,18.685
				C19.861,113.894,28.375,93.223,45.288,95.209z"/>
		</g>
		<g>
			<g>
				<path fill="#F9AF95" stroke="#D69580" stroke-width="3" stroke-miterlimit="10" d="M224.359,180.334
					c0,0,12.024-3.111,10.361,1.557H220.68v-24.58l7.659-1.555L224.359,180.334z"/>
				<path fill="#F9AF95" stroke="#D69580" stroke-width="3" stroke-miterlimit="10" d="M205.129,180.334
					c0,0-12.026-3.111-10.361,1.557h14.041v-24.58l-7.661-1.555L205.129,180.334z"/>
			</g>
			
				<path fill="#F9AF95" stroke="#D69580" stroke-width="3" stroke-linecap="round" stroke-linejoin="round" stroke-miterlimit="10" d="
				M230.852,123.012c13.104,0,12.892,17.138,12.892,17.138c0.189,9.273-5.836,17.739-5.836,17.739l9.274,3.429
				c2.823-2.419-6.652-4.838-6.652-4.838c31.247-25.402-6.049-39.517-6.049-40.122L230.852,123.012z"/>
			
				<path fill="#F9AF95" stroke="#D69580" stroke-width="3" stroke-linecap="round" stroke-linejoin="round" stroke-miterlimit="10" d="
				M197.081,122.273c-13.105,0-12.893,17.137-12.893,17.137c-0.191,9.274,5.836,17.742,5.836,17.742l-9.274,3.427
				c-2.823-2.419,6.654-4.839,6.654-4.839c-31.251-25.403,6.047-39.516,6.047-40.119L197.081,122.273z"/>
			<path fill="#F9AF95" stroke="#D69580" stroke-width="3" stroke-miterlimit="10" d="M240.233,147.106
				c0,13.268-11.563,24.024-25.824,24.024l0,0c-14.262,0-25.823-10.757-25.823-24.024v-33.881c0-13.269,11.562-24.024,25.823-24.024
				l0,0c14.261,0,25.824,10.755,25.824,24.024V147.106z"/>
			
				<path fill="#F9AF95" stroke="#D69580" stroke-width="3" stroke-linecap="round" stroke-linejoin="round" stroke-miterlimit="10" d="
				M197.815,128.503h48.639c0,0,5.79,6.121-6.541,19.603"/>
			<path fill="#FFFFFF" d="M205.533,128.739c0.261-2.061-2.943-6.172-4.171-6.331c-1.23-0.155-3.228,4.032-3.491,6.095
				L205.533,128.739z"/>
			<path fill="#FFFFFF" d="M238.511,128.739c0.263-2.061-2.941-6.172-4.169-6.331c-1.23-0.155-3.228,4.032-3.49,6.095
				L238.511,128.739z"/>
			<g>
				<g>
					
						<circle fill="#FFFFFF" stroke="#525255" stroke-width="2" stroke-linecap="round" stroke-linejoin="round" stroke-miterlimit="10" cx="208.082" cy="111.04" r="3.831"/>
					<circle fill="#525255" cx="208.083" cy="111.04" r="1.466"/>
				</g>
				<g>
					
						<circle fill="#FFFFFF" stroke="#525255" stroke-width="2" stroke-linecap="round" stroke-linejoin="round" stroke-miterlimit="10" cx="229.245" cy="111.04" r="3.83"/>
					<circle fill="#525255" cx="229.245" cy="111.04" r="1.467"/>
				</g>
			</g>
			<g>
				<circle fill="#D69580" cx="237.635" cy="135.802" r="0.814"/>
				<path fill="#D69580" d="M242.567,132.944c0,0.788-1.104,1.429-2.465,1.429c-1.363,0-2.466-0.641-2.466-1.429
					c0-0.792,1.103-1.43,2.466-1.43C241.464,131.514,242.567,132.152,242.567,132.944z"/>
				<circle fill="#D69580" cx="242.567" cy="137.38" r="1.075"/>
			</g>
			<path opacity="0.53" fill="#FFFFFF" d="M218.261,93.821c0,0-22.375-10.084-23.819,16.821
				C194.441,110.642,201.846,91.259,218.261,93.821z"/>
			
				<line fill="none" stroke="#4E555E" stroke-width="5" stroke-linecap="round" stroke-linejoin="round" stroke-miterlimit="10" x1="194.55" y1="107.097" x2="238.416" y2="107.097"/>
		</g>
		<g>
			<g>
				<path fill="#F9AF95" stroke="#D69580" stroke-width="3" stroke-miterlimit="10" d="M136.941,179.357
					c0,0,12.024-3.109,10.361,1.557H133.26v-24.58l7.661-1.555L136.941,179.357z"/>
				<path fill="#F9AF95" stroke="#D69580" stroke-width="3" stroke-miterlimit="10" d="M107.109,172.119
					c0,0-7.429-9.951-9.053-5.271l10.952,8.789l15.382-19.169l-5-6.008L107.109,172.119z"/>
			</g>
			<path fill="#F9AF95" stroke="#D69580" stroke-width="3" stroke-miterlimit="10" d="M111.223,138.122
				c0,0-21.158-9.357-14.001-54.471c0,0-10.58-0.466-4.979-1.789c0,0,1.557-3.655,5.601,0c0,0,4.46,48.416,12.135,44.133
				L111.223,138.122z"/>
			<path fill="#F9AF95" stroke="#D69580" stroke-width="3" stroke-miterlimit="10" d="M145.758,138.122
				c0,0,21.156-9.357,14.002-54.471c0,0,10.579-0.464,4.978-1.789c0,0-1.555-3.655-5.601,0c0,0-4.459,48.416-12.136,44.133
				L145.758,138.122z"/>
			<path fill="#F9AF95" stroke="#D69580" stroke-width="3" stroke-miterlimit="10" d="M154.137,143.821
				c0,13.268-11.562,24.024-25.825,24.024l0,0c-14.259,0-25.822-10.757-25.822-24.024V109.94c0-13.267,11.563-24.024,25.822-24.024
				l0,0c14.262,0,25.825,10.757,25.825,24.024V143.821z"/>
			<g>
				<path fill="#575E68" d="M149.463,118.862c1.338,39.504-23.77,33.847-23.77,33.847c-19.758-1.363-18.197-34.582-18.197-34.582
					L149.463,118.862z"/>
				<g>
					<defs>
						<path id="SVGID_1_" d="M149.479,118.847c1.345,39.527-23.918,33.865-23.918,33.865c-19.881-1.361-18.313-34.598-18.313-34.598
							L149.479,118.847z"/>
					</defs>
					<clipPath id="SVGID_2_">
						<use xlink:href="#SVGID_1_"  overflow="visible"/>
					</clipPath>
					<ellipse clip-path="url(#SVGID_2_)" fill="#F7F7FB" cx="111.234" cy="118.721" rx="3.487" ry="5.471"/>
					<path clip-path="url(#SVGID_2_)" fill="#F7F7FB" d="M121.691,118.74c0,3.021-1.562,5.471-3.487,5.471
						c-1.925,0-3.484-2.45-3.484-5.471c0-3.024,1.559-5.473,3.484-5.473C120.129,113.268,121.691,115.716,121.691,118.74z"/>
					<ellipse clip-path="url(#SVGID_2_)" fill="#F7F7FB" cx="125.177" cy="119.137" rx="3.485" ry="5.47"/>
					<ellipse clip-path="url(#SVGID_2_)" fill="#F7F7FB" cx="132.147" cy="119.137" rx="3.485" ry="5.47"/>
					<ellipse clip-path="url(#SVGID_2_)" fill="#F7F7FB" cx="139.119" cy="119.137" rx="3.486" ry="5.47"/>
					<ellipse clip-path="url(#SVGID_2_)" fill="#F7F7FB" cx="145.869" cy="119.373" rx="3.486" ry="5.471"/>
					<ellipse clip-path="url(#SVGID_2_)" fill="#F7F7FB" cx="118.144" cy="151.729" rx="3.486" ry="5.47"/>
					<path clip-path="url(#SVGID_2_)" fill="#F7F7FB" d="M128.6,152.127c0,3.02-1.56,5.47-3.484,5.47
						c-1.926,0-3.486-2.45-3.486-5.47c0-3.024,1.56-5.473,3.486-5.473C127.04,146.654,128.6,149.103,128.6,152.127z"/>
					<path clip-path="url(#SVGID_2_)" fill="#F7F7FB" d="M135.572,152.127c0,3.02-1.561,5.47-3.488,5.47
						c-1.924,0-3.484-2.45-3.484-5.47c0-3.024,1.561-5.473,3.484-5.473C134.012,146.654,135.572,149.103,135.572,152.127z"/>
					<path clip-path="url(#SVGID_2_)" fill="#F7F7FB" d="M142.544,152.127c0,3.02-1.561,5.47-3.486,5.47
						c-1.925,0-3.485-2.45-3.485-5.47c0-3.024,1.561-5.473,3.485-5.473C140.983,146.654,142.544,149.103,142.544,152.127z"/>
				</g>
			</g>
			<path opacity="0.53" fill="#FFFFFF" d="M131.912,91.864c0,0-22.769-9.626-25.426,18.685
				C106.486,110.549,115.002,89.878,131.912,91.864z"/>
			<g>
				<g>
					<g>
						<path fill="none" stroke="#575E68" stroke-width="3" stroke-miterlimit="10" d="M136.73,106.941
							c0-2.115,1.716-3.833,3.831-3.833s3.831,1.717,3.831,3.833"/>
					</g>
				</g>
				<g>
					<g>
						<path fill="none" stroke="#575E68" stroke-width="3" stroke-miterlimit="10" d="M115.358,106.941
							c0-2.115,1.714-3.833,3.829-3.833c2.118,0,3.833,1.717,3.833,3.833"/>
					</g>
				</g>
			</g>
		</g>
	</g>
	<g>
		<path fill="#B5B4B4" d="M181.77,261.638H76.709c-2.18,0-3.958-1.781-3.958-3.963v-25.571c0-2.184,1.778-3.958,3.958-3.958H181.77
			c2.179,0,4.021,1.774,4.021,3.958v25.571C185.79,259.856,183.948,261.638,181.77,261.638L181.77,261.638z"/>
		<path fill="#010101" d="M184.979,257.675c0,1.773-1.435,3.208-3.21,3.208H76.709c-1.775,0-3.212-1.435-3.212-3.208v-25.573
			c0-1.773,1.437-3.212,3.212-3.212H181.77c1.775,0,3.208,1.438,3.208,3.212L184.979,257.675L184.979,257.675z"/>
		<g>
			<g>
				<path fill="#FFFFFF" d="M97.98,244.711c-0.024-2.701,2.208-4.01,2.311-4.074c-1.266-1.845-3.226-2.096-3.915-2.113
					c-1.647-0.174-3.244,0.982-4.087,0.982c-0.854,0-2.146-0.967-3.539-0.939c-1.792,0.024-3.469,1.063-4.387,2.678
					c-1.899,3.283-0.485,8.112,1.335,10.767c0.909,1.298,1.972,2.754,3.362,2.7c1.362-0.057,1.871-0.864,3.513-0.864
					c1.628,0,2.103,0.864,3.522,0.833c1.461-0.025,2.378-1.306,3.256-2.618c1.05-1.493,1.473-2.961,1.488-3.036
					C100.808,249.016,98.005,247.944,97.98,244.711z"/>
				<path fill="#FFFFFF" d="M95.299,236.773c0.731-0.913,1.233-2.16,1.094-3.421c-1.06,0.045-2.385,0.731-3.146,1.624
					c-0.679,0.791-1.277,2.083-1.123,3.3C93.312,238.365,94.536,237.677,95.299,236.773z"/>
			</g>
		</g>
		<g>
			<path fill="#FFFFFF" d="M117.672,254.525h-1.902l-1.043-3.274h-3.618l-0.994,3.274h-1.853l3.589-11.146h2.214L117.672,254.525z
				 M114.412,249.878l-0.938-2.91c-0.1-0.298-0.285-0.996-0.565-2.1h-0.034c-0.108,0.474-0.285,1.174-0.528,2.1l-0.924,2.91H114.412
				z"/>
			<path fill="#FFFFFF" d="M126.894,250.41c0,1.365-0.37,2.444-1.106,3.239c-0.661,0.705-1.483,1.056-2.461,1.056
				c-1.059,0-1.82-0.377-2.282-1.142h-0.035v4.235h-1.785v-8.665c0-0.858-0.023-1.74-0.065-2.642h1.567l0.099,1.271h0.035
				c0.597-0.961,1.499-1.438,2.711-1.438c0.948,0,1.738,0.375,2.369,1.123C126.576,248.2,126.894,249.184,126.894,250.41z
				 M125.074,250.476c0-0.785-0.176-1.431-0.529-1.938c-0.385-0.526-0.902-0.791-1.553-0.791c-0.44,0-0.841,0.146-1.198,0.436
				c-0.358,0.296-0.592,0.677-0.699,1.15c-0.057,0.223-0.086,0.402-0.086,0.545v1.339c0,0.584,0.182,1.077,0.539,1.48
				c0.36,0.402,0.826,0.604,1.395,0.604c0.673,0,1.197-0.259,1.569-0.775C124.888,252.005,125.074,251.321,125.074,250.476z"/>
			<path fill="#FFFFFF" d="M136.134,250.41c0,1.365-0.368,2.444-1.108,3.239c-0.663,0.705-1.485,1.056-2.462,1.056
				c-1.06,0-1.819-0.377-2.283-1.142h-0.033v4.235h-1.782v-8.665c0-0.858-0.023-1.74-0.067-2.642h1.569l0.101,1.271h0.031
				c0.595-0.961,1.5-1.438,2.711-1.438c0.951,0,1.74,0.375,2.374,1.123C135.816,248.2,136.134,249.184,136.134,250.41z
				 M134.313,250.476c0-0.785-0.174-1.431-0.525-1.938c-0.387-0.526-0.905-0.791-1.557-0.791c-0.441,0-0.842,0.146-1.197,0.436
				c-0.359,0.296-0.592,0.677-0.702,1.15c-0.056,0.223-0.085,0.402-0.085,0.545v1.339c0,0.584,0.18,1.077,0.538,1.48
				c0.357,0.4,0.821,0.604,1.397,0.604c0.675,0,1.195-0.259,1.57-0.775C134.13,252.005,134.313,251.321,134.313,250.476z"/>
			<path fill="#FFFFFF" d="M146.465,251.398c0,0.951-0.326,1.721-0.987,2.318c-0.726,0.647-1.737,0.973-3.034,0.973
				c-1.203,0-2.162-0.23-2.89-0.694l0.414-1.489c0.783,0.474,1.646,0.714,2.58,0.714c0.673,0,1.196-0.152,1.572-0.458
				c0.375-0.3,0.561-0.71,0.561-1.215c0-0.452-0.151-0.833-0.462-1.145c-0.31-0.308-0.82-0.592-1.536-0.858
				c-1.951-0.728-2.928-1.797-2.928-3.196c0-0.917,0.341-1.669,1.023-2.253s1.594-0.878,2.732-0.878
				c1.011,0,1.854,0.178,2.527,0.529l-0.447,1.456c-0.628-0.342-1.338-0.512-2.131-0.512c-0.63,0-1.123,0.154-1.472,0.464
				c-0.299,0.276-0.448,0.609-0.448,1.008c0,0.442,0.17,0.806,0.513,1.09c0.298,0.266,0.839,0.552,1.622,0.86
				c0.959,0.388,1.663,0.838,2.115,1.356C146.241,249.984,146.465,250.631,146.465,251.398z"/>
			<path fill="#FFFFFF" d="M152.369,247.83h-1.965v3.9c0,0.992,0.342,1.489,1.038,1.489c0.319,0,0.584-0.031,0.795-0.085
				l0.049,1.355c-0.353,0.134-0.812,0.199-1.387,0.199c-0.706,0-1.255-0.215-1.657-0.644c-0.395-0.432-0.592-1.155-0.592-2.168
				v-4.05h-1.174v-1.34h1.174v-1.474l1.754-0.527v2.001h1.965V247.83L152.369,247.83z"/>
			<path fill="#FFFFFF" d="M161.247,250.441c0,1.233-0.354,2.248-1.057,3.043c-0.74,0.814-1.723,1.221-2.946,1.221
				c-1.178,0-2.116-0.391-2.817-1.172c-0.7-0.785-1.049-1.77-1.049-2.959c0-1.243,0.36-2.267,1.083-3.059
				c0.724-0.795,1.692-1.191,2.916-1.191c1.182,0,2.128,0.391,2.845,1.174C160.906,248.26,161.247,249.236,161.247,250.441z
				 M159.395,250.499c0-0.74-0.157-1.377-0.479-1.906c-0.374-0.643-0.907-0.962-1.602-0.962c-0.72,0-1.263,0.319-1.638,0.962
				c-0.321,0.529-0.478,1.175-0.478,1.939c0,0.74,0.156,1.376,0.478,1.906c0.387,0.642,0.926,0.961,1.622,0.961
				c0.681,0,1.219-0.326,1.604-0.977C159.233,251.882,159.395,251.239,159.395,250.499z"/>
			<path fill="#FFFFFF" d="M167.05,248.061c-0.176-0.033-0.363-0.049-0.561-0.049c-0.631,0-1.114,0.234-1.456,0.71
				c-0.3,0.42-0.447,0.947-0.447,1.588v4.216h-1.784l0.017-5.506c0-0.926-0.021-1.768-0.067-2.527h1.555l0.064,1.535h0.05
				c0.189-0.529,0.489-0.955,0.894-1.272c0.398-0.288,0.825-0.431,1.292-0.431c0.162,0,0.312,0.012,0.444,0.033V248.061z"/>
			<path fill="#FFFFFF" d="M175.034,250.126c0,0.321-0.02,0.59-0.062,0.808h-5.358c0.022,0.797,0.28,1.404,0.777,1.824
				c0.45,0.373,1.034,0.561,1.752,0.561c0.793,0,1.516-0.126,2.165-0.379l0.279,1.237c-0.759,0.331-1.657,0.499-2.692,0.499
				c-1.247,0-2.224-0.369-2.938-1.101c-0.709-0.734-1.065-1.719-1.065-2.95c0-1.213,0.333-2.221,0.994-3.026
				c0.694-0.858,1.628-1.29,2.808-1.29c1.158,0,2.036,0.432,2.632,1.29C174.798,248.279,175.034,249.126,175.034,250.126z
				 M173.334,249.666c0.01-0.532-0.107-0.99-0.348-1.373c-0.31-0.497-0.783-0.747-1.423-0.747c-0.584,0-1.059,0.242-1.422,0.729
				c-0.296,0.387-0.476,0.851-0.527,1.387h3.72V249.666z"/>
		</g>
		<g>
			<g>
				<path fill="#FFFFFF" d="M113.824,236.524c0,0.985-0.295,1.727-0.887,2.228c-0.551,0.46-1.326,0.69-2.332,0.69
					c-0.497,0-0.924-0.023-1.281-0.066v-5.385c0.464-0.072,0.969-0.114,1.508-0.114c0.959,0,1.683,0.207,2.17,0.624
					C113.547,234.975,113.824,235.646,113.824,236.524z M112.897,236.553c0-0.642-0.168-1.131-0.511-1.474
					c-0.334-0.338-0.83-0.512-1.478-0.512c-0.276,0-0.514,0.021-0.708,0.058v4.094c0.108,0.016,0.305,0.025,0.594,0.025
					c0.67,0,1.186-0.188,1.555-0.56C112.714,237.808,112.897,237.267,112.897,236.553z"/>
				<path fill="#FFFFFF" d="M118.729,237.389c0,0.604-0.173,1.102-0.52,1.492c-0.366,0.402-0.846,0.602-1.447,0.602
					c-0.579,0-1.038-0.193-1.382-0.578c-0.345-0.381-0.518-0.87-0.518-1.45c0-0.615,0.177-1.114,0.532-1.505
					c0.355-0.389,0.833-0.582,1.435-0.582c0.578,0,1.044,0.191,1.397,0.573C118.56,236.315,118.729,236.797,118.729,237.389z
					 M117.821,237.413c0-0.367-0.08-0.675-0.239-0.936c-0.186-0.315-0.445-0.472-0.785-0.472c-0.354,0-0.623,0.156-0.803,0.472
					c-0.16,0.261-0.238,0.578-0.238,0.955c0,0.363,0.078,0.675,0.238,0.937c0.189,0.312,0.455,0.47,0.796,0.47
					c0.333,0,0.597-0.161,0.784-0.479C117.736,238.096,117.821,237.779,117.821,237.413z"/>
				<path fill="#FFFFFF" d="M125.308,235.445l-1.237,3.948h-0.803l-0.513-1.715c-0.127-0.428-0.232-0.852-0.316-1.274h-0.016
					c-0.076,0.431-0.181,0.858-0.318,1.274l-0.541,1.715h-0.816l-1.158-3.948h0.899l0.448,1.875
					c0.106,0.445,0.195,0.868,0.269,1.269h0.016c0.062-0.33,0.17-0.752,0.324-1.259l0.56-1.885h0.717l0.538,1.847
					c0.126,0.448,0.23,0.882,0.312,1.299h0.023c0.061-0.406,0.151-0.839,0.27-1.299l0.482-1.847H125.308L125.308,235.445z"/>
				<path fill="#FFFFFF" d="M129.853,239.394h-0.876v-2.263c0-0.696-0.267-1.044-0.795-1.044c-0.264,0-0.471,0.095-0.634,0.288
					c-0.164,0.189-0.245,0.418-0.245,0.671v2.348h-0.877v-2.819c0-0.348-0.01-0.724-0.033-1.131h0.772l0.042,0.616h0.023
					c0.103-0.189,0.255-0.35,0.457-0.476c0.239-0.146,0.503-0.221,0.795-0.221c0.366,0,0.673,0.118,0.917,0.356
					c0.302,0.294,0.454,0.729,0.454,1.309V239.394z"/>
				<path fill="#FFFFFF" d="M132.27,239.394h-0.872v-5.759h0.872V239.394z"/>
				<path fill="#FFFFFF" d="M137.437,237.389c0,0.604-0.172,1.102-0.518,1.492c-0.362,0.402-0.846,0.602-1.445,0.602
					c-0.58,0-1.042-0.193-1.386-0.578c-0.343-0.381-0.517-0.87-0.517-1.45c0-0.615,0.178-1.114,0.533-1.505
					c0.356-0.389,0.834-0.582,1.434-0.582c0.578,0,1.046,0.191,1.399,0.573C137.272,236.315,137.437,236.797,137.437,237.389z
					 M136.528,237.413c0-0.367-0.078-0.675-0.234-0.936c-0.186-0.315-0.446-0.472-0.785-0.472c-0.357,0-0.621,0.156-0.809,0.472
					c-0.154,0.261-0.233,0.578-0.233,0.955c0,0.363,0.079,0.675,0.233,0.937c0.193,0.312,0.459,0.47,0.797,0.47
					c0.337,0,0.598-0.161,0.789-0.479C136.448,238.096,136.528,237.779,136.528,237.413z"/>
				<path fill="#FFFFFF" d="M141.686,239.394h-0.789l-0.062-0.452h-0.024c-0.27,0.357-0.658,0.541-1.153,0.541
					c-0.373,0-0.675-0.122-0.902-0.355c-0.205-0.217-0.306-0.485-0.306-0.809c0-0.481,0.199-0.849,0.604-1.101
					c0.401-0.255,0.971-0.383,1.703-0.375v-0.073c0-0.521-0.272-0.779-0.821-0.779c-0.391,0-0.735,0.097-1.029,0.29l-0.176-0.572
					c0.365-0.23,0.818-0.341,1.354-0.341c1.03,0,1.547,0.542,1.547,1.633v1.452C141.629,238.849,141.648,239.159,141.686,239.394z
					 M140.776,238.034v-0.607c-0.965-0.018-1.454,0.25-1.454,0.795c0,0.207,0.056,0.361,0.17,0.464
					c0.11,0.104,0.255,0.153,0.428,0.153c0.195,0,0.373-0.059,0.537-0.18c0.166-0.124,0.265-0.279,0.304-0.471
					C140.771,238.146,140.776,238.096,140.776,238.034z"/>
				<path fill="#FFFFFF" d="M146.674,239.394h-0.781l-0.038-0.634h-0.025c-0.249,0.481-0.671,0.723-1.269,0.723
					c-0.476,0-0.87-0.186-1.186-0.559c-0.313-0.375-0.472-0.86-0.472-1.454c0-0.641,0.172-1.156,0.515-1.553
					c0.328-0.369,0.736-0.554,1.216-0.554c0.53,0,0.901,0.179,1.116,0.538h0.014v-2.267h0.878v4.693
					C146.642,238.713,146.651,239.066,146.674,239.394z M145.764,237.729v-0.657c0-0.114-0.006-0.207-0.025-0.276
					c-0.049-0.211-0.156-0.391-0.315-0.534c-0.162-0.143-0.359-0.213-0.588-0.213c-0.33,0-0.582,0.13-0.771,0.387
					c-0.188,0.264-0.282,0.596-0.282,0.998c0,0.395,0.089,0.708,0.269,0.953c0.189,0.26,0.449,0.389,0.768,0.389
					c0.29,0,0.521-0.107,0.694-0.322C145.683,238.251,145.764,238.009,145.764,237.729z"/>
				<path fill="#FFFFFF" d="M154.179,237.389c0,0.604-0.176,1.102-0.52,1.492c-0.364,0.402-0.846,0.602-1.447,0.602
					c-0.578,0-1.04-0.193-1.384-0.578c-0.343-0.381-0.515-0.87-0.515-1.45c0-0.615,0.176-1.114,0.527-1.505
					c0.356-0.389,0.836-0.582,1.439-0.582c0.574,0,1.04,0.191,1.394,0.573C154.013,236.315,154.179,236.797,154.179,237.389z
					 M153.269,237.413c0-0.367-0.08-0.675-0.234-0.936c-0.186-0.315-0.446-0.472-0.787-0.472c-0.352,0-0.621,0.156-0.807,0.472
					c-0.158,0.261-0.235,0.578-0.235,0.955c0,0.363,0.079,0.675,0.235,0.937c0.189,0.312,0.455,0.47,0.797,0.47
					c0.337,0,0.598-0.161,0.787-0.479C153.185,238.096,153.269,237.779,153.269,237.413z"/>
				<path fill="#FFFFFF" d="M158.896,239.394h-0.876v-2.263c0-0.696-0.264-1.044-0.797-1.044c-0.259,0-0.47,0.095-0.635,0.288
					c-0.158,0.189-0.241,0.418-0.241,0.671v2.348h-0.878v-2.819c0-0.348-0.01-0.724-0.033-1.131h0.773l0.041,0.616h0.023
					c0.104-0.189,0.255-0.35,0.452-0.476c0.238-0.146,0.505-0.221,0.799-0.221c0.367,0,0.673,0.118,0.916,0.356
					c0.308,0.294,0.455,0.729,0.455,1.309V239.394z"/>
				<path fill="#FFFFFF" d="M164.801,236.103h-0.965v1.92c0,0.483,0.17,0.729,0.511,0.729c0.16,0,0.288-0.016,0.393-0.041
					l0.021,0.665c-0.175,0.066-0.4,0.099-0.68,0.099c-0.348,0-0.618-0.106-0.813-0.319c-0.195-0.208-0.294-0.564-0.294-1.063v-1.989
					h-0.574v-0.657h0.574v-0.724l0.862-0.261v0.984h0.965V236.103L164.801,236.103z"/>
				<path fill="#FFFFFF" d="M169.447,239.394h-0.878v-2.243c0-0.71-0.265-1.063-0.794-1.063c-0.408,0-0.683,0.203-0.836,0.617
					c-0.025,0.087-0.04,0.189-0.04,0.314v2.375h-0.878v-5.759h0.878v2.379h0.015c0.275-0.434,0.671-0.65,1.186-0.65
					c0.363,0,0.663,0.118,0.901,0.36c0.298,0.296,0.446,0.738,0.446,1.322V239.394L169.447,239.394z"/>
				<path fill="#FFFFFF" d="M174.241,237.233c0,0.155-0.014,0.29-0.033,0.396h-2.63c0.01,0.393,0.136,0.687,0.38,0.894
					c0.222,0.186,0.51,0.276,0.86,0.276c0.389,0,0.742-0.063,1.065-0.186l0.135,0.609c-0.373,0.162-0.813,0.243-1.322,0.243
					c-0.613,0-1.095-0.18-1.442-0.541c-0.351-0.359-0.522-0.842-0.522-1.448c0-0.596,0.159-1.093,0.485-1.487
					c0.339-0.424,0.801-0.631,1.383-0.631c0.566,0,1,0.207,1.286,0.631C174.123,236.325,174.241,236.738,174.241,237.233z
					 M173.402,237.004c0.008-0.258-0.051-0.483-0.171-0.672c-0.15-0.245-0.385-0.365-0.697-0.365c-0.286,0-0.521,0.116-0.698,0.358
					c-0.147,0.189-0.232,0.413-0.258,0.679H173.402z"/>
			</g>
		</g>
	</g>
	<g>
		<path fill="#F9E2D9" d="M169.436,66.923c0.688,6.457-3.989,12.25-10.449,12.938l-55.551,5.919
			c-6.458,0.687-12.251-3.991-12.939-10.448L84.577,19.78c-0.688-6.46,3.988-12.254,10.448-12.942l55.551-5.917
			c6.461-0.688,12.254,3.989,12.94,10.448L169.436,66.923z"/>
		<g>
			<g>
				<circle fill="#F9E2D9" cx="127.007" cy="43.35" r="27.256"/>
				<g>
					
						<rect x="114.27" y="28.852" transform="matrix(0.9944 -0.1059 0.1059 0.9944 -3.6692 13.7697)" fill="#F26A31" width="27.014" height="25.141"/>
					
						<rect x="121.445" y="28.879" transform="matrix(0.9944 -0.1059 0.1059 0.9944 -3.276 13.6982)" fill="#F7F8F8" width="11.755" height="17.623"/>
					<polyline fill="none" stroke="#D8D9DA" stroke-width="0.0851" stroke-miterlimit="10" points="131.858,28.347 133.684,45.479 
						122.807,46.638 120.981,29.505 					"/>
					
						<rect x="115.904" y="53.876" transform="matrix(-0.9944 0.106 -0.106 -0.9944 264.0366 99.0323)" fill="#F8AF7D" width="26.966" height="5.311"/>
					<polygon opacity="0.36" fill="#828284" points="116.239,60.582 107.917,50.563 115.048,49.805 					"/>
				</g>
			</g>
		</g>
	</g>
</g>
</svg>
