<svg xmlns="http://www.w3.org/2000/svg" width="263" height="160" viewBox="0 0 263 160"><path opacity=".39" fill="#80AED0" d="M34.605 57.297C34.49 44.52 59.432 33.932 90.312 33.65c5.806-.054 11.41.26 16.68.89C111.415 15.07 131.773.23 156.355.004c27.97-.257 50.815 18.5 51.03 41.89.114 12.794-6.577 24.32-17.234 32.184 5.712 7.63 9.046 16.564 9.133 26.154.26 28.366-27.914 51.62-62.92 51.94-35.01.322-63.602-22.412-63.86-50.777-.07-7.828 2.034-15.262 5.84-21.94-24.94-2.104-43.638-11.144-43.738-22.156z"/><path fill="#FEEAA2" d="M109.84 62.73c-8.227-5.55-18.163-6.003-25.262-1.9.39-7.694-3.736-15.934-11.413-21.114-10.94-7.377-24.907-5.755-31.198 3.632l-39.26 58.558c-6.29 9.383-2.528 22.97 8.412 30.35 8.223 5.547 18.16 6 25.26 1.898-.39 7.697 3.734 15.936 11.413 21.115 10.937 7.376 24.905 5.753 31.196-3.632l39.257-58.56c6.295-9.38 2.526-22.97-8.408-30.347z"/><path fill="#F36E54" d="M109.84 62.73c-8.227-5.55-18.163-6.003-25.262-1.9.39-7.694-3.736-15.934-11.413-21.114-10.94-7.377-24.907-5.755-31.198 3.632l-39.26 58.558c-6.29 9.383-2.528 22.97 8.412 30.35 8.223 5.547 18.16 6 25.26 1.898-.39 7.697 3.734 15.936 11.413 21.115 10.937 7.376 24.905 5.753 31.196-3.632l39.257-58.56c6.295-9.38 2.526-22.97-8.408-30.347z"/><path fill="#A9AFBD" d="M77.064 35.247l-6.602-4.607-1.636 2.357 1.337.933c-.06.074-.124.143-.175.226l-2.637 4.19c-.72 1.144-.39 2.684.77 3.417 1.14.722 2.678.366 3.4-.778l2.635-4.19c.013-.02.02-.04.03-.06l1.244.868 1.634-2.356z"/><path opacity=".42" fill="#fff" d="M83.376 62.23L39.21 125.45c-5.83 8.694-2.782 21.636 7.142 28.778 9.015 6.488 19.76 8.475 29.606.855 0 0-47.96-7.577 7.418-92.854zM43.878 40.93L2.46 102.297c-5.828 8.693-2.78 21.637 7.144 28.78 9.014 6.487 18.31 7.335 26.775 3.077 0 0-47.88-7.947 7.498-93.224z"/><path fill="#FEEAA2" d="M141.546 64.24c6.206-7.755 15.557-11.155 23.55-9.358-2.655-7.23-1.16-16.327 4.63-23.566 8.254-10.31 22.07-12.93 30.86-5.85l54.86 44.18c8.792 7.077 9.232 21.173.98 31.486-6.205 7.75-15.556 11.15-23.55 9.354 2.655 7.234 1.163 16.33-4.63 23.564-8.25 10.31-22.068 12.936-30.86 5.854l-54.858-44.18c-8.796-7.078-9.23-21.178-.982-31.484z"/><path fill="#F36E54" d="M141.546 64.24c6.206-7.755 15.557-11.155 23.55-9.358-2.655-7.23-1.16-16.327 4.63-23.566 8.254-10.31 22.07-12.93 30.86-5.85l54.86 44.18c8.792 7.077 9.232 21.173.98 31.486-6.205 7.75-15.556 11.15-23.55 9.354 2.655 7.234 1.163 16.33-4.63 23.564-8.25 10.31-22.068 12.936-30.86 5.854l-54.858-44.18c-8.796-7.078-9.23-21.178-.982-31.484z"/><path fill="#A9AFBD" d="M164.678 28.212l4.935-6.368 2.262 1.763-1 1.29c.08.052.16.1.234.16l3.76 3.214c1.028.88 1.17 2.446.282 3.494-.875 1.03-2.45 1.15-3.477.272l-3.76-3.21c-.02-.015-.03-.033-.048-.05l-.93 1.2-2.26-1.764z"/><path opacity=".42" fill="#fff" d="M166.66 55.857l60.93 47.164c8.145 6.56 9.076 19.823 1.723 29.608-6.68 8.885-16.35 13.988-28.01 9.658 0 0 43.537-21.557-34.642-86.43zM198.045 23.728L255.8 69.944c8.145 6.558 9.076 19.824 1.722 29.607-6.68 8.888-15.302 12.472-24.646 10.935 0 0 43.347-21.885-34.83-86.757z"/></svg>