<?xml version="1.0" encoding="utf-8"?>
<!-- Generator: Adobe Illustrator 15.1.0, SVG Export Plug-In . SVG Version: 6.00 Build 0)  -->
<!DOCTYPE svg PUBLIC "-//W3C//DTD SVG 1.1//EN" "http://www.w3.org/Graphics/SVG/1.1/DTD/svg11.dtd">
<svg version="1.1" id="Capa_1" xmlns="http://www.w3.org/2000/svg" xmlns:xlink="http://www.w3.org/1999/xlink" x="0px" y="0px"
	 width="220px" height="338px" viewBox="0 0 220 338" enable-background="new 0 0 220 338" xml:space="preserve">
<g>
	<g>
		<path fill="#82E499" d="M7.729,53.743C19.949,26.507,64.603,7.375,97.92,2.25c33.492-5.149,76.162-1.211,97.668,19.708
			c79.637,77.47-58.34,237.894-58.34,237.894S-39.686,159.433,7.729,53.743z"/>
		<path fill="#F79B82" d="M21.685,51.597c10.151-26.92,48.802-45.128,77.817-49.59c29.168-4.485,66.527,0.27,85.729,21.544
			c71.092,78.783-46.365,236.052-46.365,236.052S-17.696,156.052,21.685,51.597z"/>
		<path fill="#82E499" d="M56.998,46.167c4.19-26.003,25.545-41.553,42.17-44.109c16.709-2.569,38.791,4.536,51.342,26.832
			c46.49,82.568-11.875,230.751-11.875,230.751S40.748,147.065,56.998,46.167z"/>
		<path fill="#51C0E8" d="M138.803,260.73c0,0-0.102-2.557,1.799-6.361C162.936,209.664,206.535-3.5,99.502,2.007L138.803,260.73z"
			/>
	</g>
	
		<line fill="none" stroke="#4F5877" stroke-width="0.9784" stroke-miterlimit="10" stroke-dasharray="3.9138,2.9353,3.9138,2.9353,3.9138,2.9353" x1="148.377" y1="245.857" x2="155.371" y2="288.441"/>
	
		<line fill="none" stroke="#4F5877" stroke-width="0.9784" stroke-miterlimit="10" stroke-dasharray="3.9138,2.9353,3.9138,2.9353,3.9138,2.9353" x1="124.766" y1="251.539" x2="131.461" y2="292.359"/>
	
		<line fill="none" stroke="#4F5877" stroke-width="1.4677" stroke-linecap="round" stroke-linejoin="round" stroke-miterlimit="10" x1="122.404" y1="293.729" x2="83.117" y2="221.941"/>
	
		<line fill="none" stroke="#4F5877" stroke-width="1.4677" stroke-linecap="round" stroke-linejoin="round" stroke-miterlimit="10" x1="176.256" y1="207.615" x2="161.268" y2="287.467"/>
	<g>
		
			<path fill="none" stroke="#4F5877" stroke-width="1.4677" stroke-linecap="round" stroke-linejoin="round" stroke-miterlimit="10" d="
			M106.092,239.473c1.82,16.297,16.504,28.029,32.801,26.207c16.291-1.818,25.75-20.016,23.928-36.311"/>
	</g>
	<g>
		<polyline fill="#EF5024" points="122.404,293.729 127.938,330.152 167.074,324.201 161.543,287.781 		"/>
		<polyline fill="#F7F7F8" points="133.539,292.039 137.418,317.566 154.453,314.984 150.57,289.449 		"/>
		<polygon fill="#FAB585" points="167.033,324.164 127.961,330.098 129.133,337.787 168.199,331.857 		"/>
	</g>
	<path opacity="0.4" fill="#FFFFFF" d="M34.852,45.118c12.22-27.237,22.221-23.648,12.16,3.031
		c-37.641,99.832,89.623,211.798,89.623,211.798S-12.564,150.808,34.852,45.118z"/>
	<g opacity="0.4">
		<path opacity="0.69" fill="#FFFFFF" d="M163.604,28.428c-1.992,4.174-12.709,3.215-23.943-2.142s-18.729-13.082-16.74-17.255
			c1.99-4.171,12.709-3.217,23.943,2.141C158.1,16.533,165.594,24.253,163.604,28.428z"/>
		<path opacity="0.64" fill="#FFFFFF" d="M172.861,37.479c-0.998,2.084-3.867,2.795-6.412,1.581
			c-2.543-1.212-3.801-3.889-2.805-5.976c0.996-2.086,3.865-2.796,6.412-1.581C172.598,32.715,173.855,35.393,172.861,37.479z"/>
	</g>
</g>
</svg>
