<?xml version="1.0" encoding="utf-8"?>
<!-- Generator: Adobe Illustrator 15.1.0, SVG Export Plug-In . SVG Version: 6.00 Build 0)  -->
<!DOCTYPE svg PUBLIC "-//W3C//DTD SVG 1.1//EN" "http://www.w3.org/Graphics/SVG/1.1/DTD/svg11.dtd">
<svg version="1.1" id="Capa_1" xmlns="http://www.w3.org/2000/svg" xmlns:xlink="http://www.w3.org/1999/xlink" x="0px" y="0px"
	 width="44.899px" height="25.479px" viewBox="0 0 44.899 25.479" enable-background="new 0 0 44.899 25.479" xml:space="preserve">
<g>
	<rect fill="#F79C83" width="44.899" height="25.479"/>
	<rect y="0" fill="#54C0E8" width="17.493" height="11.8"/>
	<g>
		<circle fill="#FFFFFF" cx="2.369" cy="2.731" r="0.838"/>
		<circle fill="#FFFFFF" cx="2.369" cy="6.083" r="0.838"/>
		<circle fill="#FFFFFF" cx="2.369" cy="9.437" r="0.838"/>
	</g>
	<g>
		<circle fill="#FFFFFF" cx="5.649" cy="2.731" r="0.838"/>
		<circle fill="#FFFFFF" cx="5.649" cy="6.083" r="0.838"/>
		<circle fill="#FFFFFF" cx="5.649" cy="9.437" r="0.838"/>
	</g>
	<g>
		<circle fill="#FFFFFF" cx="8.565" cy="2.731" r="0.838"/>
		<circle fill="#FFFFFF" cx="8.565" cy="6.083" r="0.838"/>
		<circle fill="#FFFFFF" cx="8.565" cy="9.437" r="0.838"/>
	</g>
	<g>
		<circle fill="#FFFFFF" cx="11.845" cy="2.731" r="0.838"/>
		<circle fill="#FFFFFF" cx="11.845" cy="6.083" r="0.838"/>
		<circle fill="#FFFFFF" cx="11.845" cy="9.437" r="0.838"/>
	</g>
	<g>
		<circle fill="#FFFFFF" cx="15.453" cy="2.731" r="0.838"/>
		<circle fill="#FFFFFF" cx="15.453" cy="6.083" r="0.838"/>
		<circle fill="#FFFFFF" cx="15.453" cy="9.437" r="0.838"/>
	</g>
	<rect x="17.493" y="1.678" fill="#FFFFFF" width="27.406" height="1.676"/>
	<rect x="17.493" y="5.063" fill="#FFFFFF" width="27.406" height="1.676"/>
	<rect x="17.493" y="8.415" fill="#FFFFFF" width="27.406" height="1.677"/>
	<rect y="11.767" fill="#FFFFFF" width="44.899" height="1.676"/>
	<rect y="15.118" fill="#FFFFFF" width="44.899" height="1.677"/>
	<rect y="18.471" fill="#FFFFFF" width="44.899" height="1.676"/>
	<rect y="22.127" fill="#FFFFFF" width="44.899" height="1.676"/>
</g>
</svg>
