<?xml version="1.0" encoding="utf-8"?>
<!-- Generator: Adobe Illustrator 15.1.0, SVG Export Plug-In . SVG Version: 6.00 Build 0)  -->
<!DOCTYPE svg PUBLIC "-//W3C//DTD SVG 1.1//EN" "http://www.w3.org/Graphics/SVG/1.1/DTD/svg11.dtd">
<svg version="1.1" id="Capa_1" xmlns="http://www.w3.org/2000/svg" xmlns:xlink="http://www.w3.org/1999/xlink" x="0px" y="0px"
	 width="170px" height="41px" viewBox="0 0 170 41" enable-background="new 0 0 170 41" xml:space="preserve">
<g>
	<path fill="#424143" d="M3.084,31.92v6.693c0,1.914-3.158,1.872-3.158,0.043V14.708c0-0.874,0.745-1.454,1.623-1.454h9.518
		c7.588,0,11.141,4.78,11.141,9.562c0,4.989-3.597,9.104-11.274,9.104H3.084z M3.084,29.219h7.849c5.836,0,8.246-3.245,8.159-6.402
		c-0.044-3.409-2.895-6.86-7.981-6.86H3.084V29.219z"/>
	<path fill="#424143" d="M31.15,36.993h17.324c1.843,0,2.107,2.745,0,2.745H30.01c-1.228,0-2.017-0.833-2.017-1.83V15.082
		c0-0.955,0.789-1.788,2.017-1.788h18.509c1.888,0,1.799,2.662-0.044,2.662H31.15v9.354h16.492c1.752,0,1.841,2.66,0,2.66H31.15
		V36.993z"/>
	<path fill="#424143" d="M59.214,32.753l-3.551,6.569c-0.791,1.538-3.684,0.456-2.894-1.206l13.244-24.74
		c0.263-0.54,0.878-0.789,1.448-0.789c0.571,0,1.097,0.249,1.404,0.789l13.202,24.616c1.143,1.786-2.105,2.828-2.939,1.206
		l-3.42-6.445H59.214z M67.462,17.036l-6.931,13.1h13.817L67.462,17.036z"/>
	<path fill="#424143" d="M104.87,38.699c-2.105,0.914-4.475,1.497-6.58,1.497c-7.499,0-14.253-5.822-14.253-14.055
		c0-6.819,5.132-12.224,11.884-13.223c5.134-0.663,9.607,0.54,13.071,3.992c1.318,1.415-1.053,3.12-2.279,1.872
		c-2.984-2.994-6.447-3.45-10.308-3.036c-5.395,0.79-9.211,4.409-9.211,10.438c0,6.319,5.132,11.142,11.185,11.142
		c1.622,0,3.423-0.415,5.088-1.204c1.358-0.665,2.675-1.666,3.596-2.787c1.011-1.415,3.685,0.124,2.544,1.664
		C108.423,36.578,106.756,37.826,104.87,38.699"/>
	<path fill="#424143" d="M119.339,25.645h16.143V14.292c0-1.995,3.201-1.995,3.201,0V38.53c0,2.037-3.201,2.123-3.201,0V28.263
		h-16.143V38.53c0,2.162-3.156,1.915-3.156,0V14.292c0-2.037,3.156-1.911,3.156,0V25.645z"/>
	<path fill="#424143" d="M154.379,29.053l-11.096-13.928c-1.314-1.666,1.577-3.202,2.763-1.538l9.911,12.846l10.047-12.888
		c1.095-1.58,3.814-0.251,2.629,1.497l-11.007,14.011v9.313c0,1.039-0.878,1.539-1.624,1.539c-0.878,0-1.623-0.5-1.623-1.539V29.053
		z"/>
	<path fill="none" stroke="#424143" stroke-width="2" stroke-linecap="round" stroke-linejoin="round" stroke-miterlimit="10" d="
		M99.778,7.907c0,0-0.19-3.939,3.985-6.113c2.73-1.422,6.192,0.142,6.192,0.142s-0.513,3.476-3.007,5.404
		C104.013,9.612,99.778,7.907,99.778,7.907"/>
</g>
</svg>
