<?xml version="1.0" encoding="utf-8"?>
<!-- Generator: Adobe Illustrator 15.1.0, SVG Export Plug-In . SVG Version: 6.00 Build 0)  -->
<!DOCTYPE svg PUBLIC "-//W3C//DTD SVG 1.1//EN" "http://www.w3.org/Graphics/SVG/1.1/DTD/svg11.dtd">
<svg version="1.1" id="Capa_1" xmlns="http://www.w3.org/2000/svg" xmlns:xlink="http://www.w3.org/1999/xlink" x="0px" y="0px"
	 width="171px" height="42px" viewBox="0 0 171 42" enable-background="new 0 0 171 42" xml:space="preserve">
<g>
	<path fill="#FFFFFF" d="M3.217,32.559v7.143c0,2.043-3.195,1.998-3.195,0.046V14.19c0-0.933,0.753-1.552,1.641-1.552h9.629
		c7.676,0,11.271,5.102,11.271,10.206c0,5.323-3.639,9.714-11.405,9.714H3.217z M3.217,29.676h7.94c5.903,0,8.342-3.463,8.253-6.831
		c-0.045-3.638-2.928-7.322-8.074-7.322h-8.12V29.676z"/>
	<path fill="#FFFFFF" d="M31.609,37.973h17.525c1.865,0,2.131,2.93,0,2.93h-18.68c-1.242,0-2.041-0.889-2.041-1.953V14.59
		c0-1.02,0.798-1.908,2.041-1.908h18.724c1.91,0,1.82,2.841-0.044,2.841H31.609v9.982h16.684c1.773,0,1.862,2.839,0,2.839H31.609
		V37.973z"/>
	<path fill="#FFFFFF" d="M59.999,33.447l-3.592,7.011c-0.8,1.642-3.727,0.488-2.927-1.286L66.877,12.77
		c0.266-0.576,0.889-0.841,1.465-0.841c0.578,0,1.109,0.265,1.42,0.841l13.355,26.27c1.156,1.907-2.13,3.018-2.973,1.287
		l-3.46-6.879H59.999z M68.342,16.676l-7.011,13.979h13.978L68.342,16.676z"/>
	<path fill="#FFFFFF" d="M106.185,39.793c-2.13,0.976-4.526,1.598-6.655,1.598c-7.587,0-14.419-6.213-14.419-14.998
		c0-7.277,5.191-13.044,12.022-14.11c5.194-0.708,9.72,0.575,13.224,4.259c1.333,1.511-1.065,3.33-2.307,1.998
		c-3.019-3.194-6.521-3.682-10.428-3.239c-5.457,0.842-9.317,4.704-9.317,11.139c0,6.743,5.192,11.89,11.314,11.89
		c1.641,0,3.463-0.443,5.147-1.285c1.374-0.71,2.705-1.777,3.637-2.973c1.023-1.512,3.729,0.133,2.574,1.774
		C109.779,37.53,108.094,38.862,106.185,39.793"/>
	<path fill="#FFFFFF" d="M120.822,25.862h16.329V13.747c0-2.129,3.238-2.129,3.238,0v25.867c0,2.173-3.238,2.266-3.238,0V28.656
		h-16.329v10.958c0,2.307-3.193,2.042-3.193,0V13.747c0-2.175,3.193-2.04,3.193,0V25.862z"/>
	<path fill="#FFFFFF" d="M156.27,29.499l-11.226-14.862c-1.33-1.779,1.597-3.419,2.796-1.642l10.025,13.708l10.163-13.754
		c1.107-1.685,3.859-0.268,2.661,1.599l-11.135,14.951v9.938c0,1.11-0.889,1.643-1.645,1.643c-0.887,0-1.641-0.532-1.641-1.643
		V29.499z"/>
	<path fill="#FFFFFF" d="M101.034,6.933c0,0-0.192-4.203,4.031-6.524c2.763-1.518,6.265,0.153,6.265,0.153s-0.518,3.707-3.041,5.765
		C105.318,8.752,101.034,6.933,101.034,6.933"/>
</g>
</svg>
