<svg xmlns="http://www.w3.org/2000/svg" width="280" height="33" viewBox="0 0 280 33"><path fill="#D2D3D3" d="M223.798 27.59c22.482 0 40.706-5.725 40.706-12.793 0-7.063-18.224-12.79-40.706-12.79V27.59z"/><path fill="#A8AFBE" d="M12.483.41h9.77v28.78h-9.77z"/><path fill="#687079" d="M22.254.41h9.77v28.78h-9.77z"/><path fill="#FACCC2" d="M0 4.32h12.483v20.96H0z"/><path fill="#5CAC63" d="M32.022 4.32H155.23v20.96H32.022z"/><path fill="#687079" d="M155.23.41h70.197v28.78H155.23z"/><path fill="#5A5A5D" d="M131.817 12.457h18.553v5.463h-18.553zM112.218 12.455h18.553v5.465H112.22z"/><path fill="#5CAC63" d="M36.737 21.693h6.826v7.495h-6.826zM36.737 27.68h73.54v5.26h-73.54z"/><path stroke="#687079" stroke-miterlimit="10" fill="none" d="M264.504 14.797h15.268"/></svg>