<?xml version="1.0" encoding="utf-8"?>
<!-- Generator: Adobe Illustrator 15.1.0, SVG Export Plug-In . SVG Version: 6.00 Build 0)  -->
<!DOCTYPE svg PUBLIC "-//W3C//DTD SVG 1.1//EN" "http://www.w3.org/Graphics/SVG/1.1/DTD/svg11.dtd">
<svg version="1.1" id="Capa_1" xmlns="http://www.w3.org/2000/svg" xmlns:xlink="http://www.w3.org/1999/xlink" x="0px" y="0px"
	 width="139px" height="145px" viewBox="0 0 139 145" enable-background="new 0 0 139 145" xml:space="preserve">
<g>
	<g>
		<defs>
			<rect id="SVGID_1_" x="11.923" y="11.26" width="115.154" height="122.482"/>
		</defs>
		<clipPath id="SVGID_2_">
			<use xlink:href="#SVGID_1_"  overflow="visible"/>
		</clipPath>
	</g>
	
		<path fill="none" stroke="#4F5877" stroke-width="1.0057" stroke-linecap="round" stroke-linejoin="round" stroke-miterlimit="10" d="
		M138.833,42.457L139,36.995c-2.386,0-4.388-1.546-5.12-3.686V29.8c0.732-2.136,2.734-3.682,5.12-3.682l-0.058-4.648
		c-2.314,0-4.279-1.455-5.062-3.496v-3.882c0.783-2.044,2.748-3.5,5.062-3.5l0.056-4.742h-5.118V0.333l-5.652,0.053
		c0,3.005-2.354,5.442-5.256,5.442c-2.9,0-5.251-2.437-5.251-5.442l-4.489-0.053c0,3.005-2.349,5.44-5.253,5.44
		c-2.902,0-5.254-2.435-5.254-5.44L97.449,0.11c0,3.003-2.354,5.44-5.255,5.44s-5.257-2.437-5.257-5.44l-4.483,0.11
		c0,3.003-2.352,5.44-5.253,5.44c-2.905,0-5.255-2.437-5.255-5.44l-5.962,0.055c0,3.005-2.352,5.441-5.255,5.441
		c-2.902,0-5.255-2.436-5.255-5.441L50.99,0.167c0,3.005-2.352,5.439-5.255,5.439c-2.9,0-5.255-2.434-5.255-5.439L35.206,0
		c0,3.005-2.353,5.44-5.258,5.44c-2.898,0-5.25-2.435-5.25-5.44l-4.49,0.057c0,3.005-2.35,5.441-5.252,5.441
		c-2.901,0-5.255-2.436-5.255-5.441L5.119,0.002v5.847H0.002l0.055,4.742c2.314,0,4.279,1.457,5.062,3.498v3.886
		c-0.783,2.04-2.748,3.495-5.062,3.495L0,26.118c2.385,0,4.386,1.546,5.119,3.68v3.512C4.386,35.449,2.385,36.995,0,36.995
		l0.166,5.461c2.211,0,4.104,1.327,4.953,3.223v4.436c-0.849,1.895-2.741,3.223-4.953,3.223l0.108,4.641
		c2.129,0,3.954,1.235,4.845,3.02v4.841c-0.891,1.784-2.716,3.021-4.845,3.021L0.22,75.032c2.17,0,4.027,1.281,4.898,3.124v4.634
		c-0.871,1.84-2.729,3.121-4.898,3.121l-0.11,4.644c2.252,0,4.185,1.374,5.009,3.332v4.219c-0.824,1.956-2.757,3.331-5.009,3.331
		l0.221,5.46c2.087,0,3.877,1.19,4.788,2.917v5.046c-0.911,1.728-2.701,2.916-4.788,2.916l0.055,4.646
		c2.045,0,3.806,1.146,4.733,2.815v5.244c-0.927,1.673-2.688,2.818-4.733,2.818l-0.053,5.853h4.786V145l4.583-0.056
		c0-3.004,2.354-5.441,5.255-5.441c2.903,0,5.252,2.438,5.252,5.441l4.49,0.056c0-3.005,2.352-5.438,5.25-5.438
		c2.905,0,5.258,2.434,5.258,5.438l5.273-0.166c0-3.006,2.355-5.438,5.255-5.438c2.903,0,5.255,2.433,5.255,5.438l4.484-0.106
		c0-3.006,2.353-5.441,5.255-5.441c2.903,0,5.255,2.436,5.255,5.441l5.962,0.053c0-3.003,2.35-5.438,5.255-5.438
		c2.901,0,5.253,2.436,5.253,5.438l4.483,0.111c0-3.003,2.355-5.44,5.257-5.44s5.255,2.438,5.255,5.44l5.275-0.222
		c0-3.004,2.352-5.441,5.254-5.441c2.904,0,5.253,2.438,5.253,5.441l4.489-0.054c0-3.005,2.351-5.441,5.251-5.441
		c2.902,0,5.256,2.437,5.256,5.441l5.652,0.053v-5.517h4.788l-0.053-5.853c-2.047,0-3.807-1.146-4.735-2.819v-5.242
		c0.929-1.671,2.688-2.816,4.735-2.816l0.055-4.646c-2.087,0-3.879-1.189-4.79-2.916v-5.046c0.911-1.726,2.703-2.917,4.79-2.917
		l0.222-5.46c-2.255,0-4.188-1.375-5.012-3.333v-4.215c0.824-1.96,2.757-3.334,5.012-3.334l-0.111-4.644
		c-2.17,0-4.028-1.281-4.9-3.123v-4.631c0.872-1.844,2.73-3.125,4.9-3.125l-0.055-6.172c-2.129,0-3.953-1.236-4.846-3.021v-4.838
		c0.893-1.784,2.717-3.021,4.846-3.021l0.107-4.641c-2.212,0-4.105-1.329-4.953-3.225v-4.433
		C134.728,43.783,136.621,42.457,138.833,42.457z"/>
	
		<rect x="11.923" y="11.26" fill="#82E499" stroke="#4F5877" stroke-width="2.0114" stroke-miterlimit="10" width="115.154" height="122.482"/>
	<g>
		<g>
			<g>
				<path fill="#FFFFFF" d="M20.085,53.104c-0.367,0-0.811,0.341-1.025,0.703l-0.24,0.413l-0.149,0.47
					c-0.215,0.86,0.273,1.041,0.488,0.943c0.245-0.106,0.6-0.265,1.327-0.265h4.497v10.762c0,1.034-0.009,2.808-0.341,3.479
					l-0.281,0.28c0,0-0.31,0.594,0.326,0.699h4.658c0.485-0.135,0.352-0.528,0.247-0.673c-0.487-0.656-0.487-2.7-0.487-3.785V55.507
					h3.173c4.801-0.192,4.452-2.147,4.452-2.147c-0.147-0.367-0.715-0.256-1.041-0.256H20.085z"/>
			</g>
			<g>
				<g>
					<path fill="#FFFFFF" d="M120.149,69.746c-0.126-0.188-2.155-2.937-2.47-3.36c0,0-3.327-4.891-3.941-5.738
						c0.208-0.252,4.171-5.654,4.171-5.654s0.633-1.004,0.933-1.271c0.283-0.244,0.371-0.583-0.016-0.656l-1.924,0.027
						c-0.475,0.077-0.2,0.507-0.157,0.664c-0.004,0.174-2.412,3.29-3.918,5.517c0,0-0.766-1.089-0.781-1.073
						c-0.314-0.499-2.688-4.436-2.688-4.436c-0.501-0.745-1.064-0.772-1.599-0.772l-3.347,0.052
						c-0.398,0.013-0.336,0.531,0.109,0.701c0,0,0.206,0.169,0.346,0.385c0.94,1.437,4.731,7.525,5.033,8.023
						c-0.162,0.219-3.119,4.801-3.119,4.801c-0.393,0.49-1.115,1.788-1.712,2.54l-0.956-2.128
						c-0.296-0.622-4.013-8.877-5.672-13.708c-0.123-0.363-0.418-0.593-0.762-0.593h-3.078c-0.525,0-0.608,0.678-0.608,0.678
						c-0.263,0.781-6.759,14.659-7.183,15.323c-0.268,0.41-0.336,0.474-0.421,0.763c-0.045,0.144,0.028,0.664,0.359,0.664h2.009
						c0.567-0.078,0.304-0.616,0.276-0.714c-0.033-0.107-0.023-0.528,0.118-1.027c0.146-0.507,0.567-1.797,1.044-2.871h8.695
						c0.622,1.446,1.071,2.538,1.203,2.933l0.472,1.034c0,0-0.246,0.646,0.395,0.646h3.951c0.075,0,0.13-0.005,0.187-0.012
						l2.063,0.007c0.478,0,0.126-0.698,0.126-0.698l-0.014-0.243c0.282-0.61,0.885-1.685,1.335-2.513
						c0.438-0.783,1.704-2.673,2.185-3.215c0.318,0.46,3.987,5.545,3.987,5.545c0.536,0.73-0.398,1.255,0.719,1.236h3.922
						c0.563,0,0.866-0.042,0.944-0.199C120.437,70.24,120.268,69.938,120.149,69.746 M71.653,69.971
						c-0.467-0.521-0.624-2.896-0.624-3.967l-0.008-8.568l-0.006-0.385c-0.006-0.611,0.02-1.665,0.08-2.005
						c0.069-0.343,0.338-1.32,0.338-1.32s0.487-0.678-0.19-0.678h-1.225l-1.793-0.003c-1.096,0-1.873,0.779-2.236,1.509
						c-0.021,0.037-3.389,7.796-4.134,9.213c-0.393-0.865-4.859-9.373-4.859-9.373c-0.211-0.583-0.752-1.321-1.637-1.321
						l-1.321-0.057l-2.432,0.029c-0.379,0-0.307,0.512-0.192,0.665c0.088,0.102,0.414,0.426,0.459,0.92
						c0.03,0.364,0.04,1.176,0.04,1.176c0-0.025,0.035,8.33,0.035,8.33c0,2.397-0.126,3.699-0.187,4.346
						c-0.051,0.391-0.208,1.049-0.302,1.298c0,0-0.057,0.078-0.129,0.178c-0.102-0.178-0.287-0.338-0.298-0.382l-0.996-2.231
						c-0.295-0.616-4.015-8.88-5.673-13.71c-0.125-0.353-0.417-0.589-0.76-0.589H40.52c-0.534,0-0.607,0.677-0.607,0.677
						c-0.271,0.788-6.762,14.663-7.181,15.324c-0.265,0.412-0.34,0.478-0.426,0.758c-0.042,0.153,0.033,0.67,0.369,0.67h1.959
						c0.567-0.081,0.281-0.726,0.281-0.726l0.118-1.024c0.19-0.879,0.57-1.787,1.041-2.866h8.561
						c0.618,1.446,1.122,2.545,1.246,2.928l0.483,1.049c0,0-0.248,0.64,0.389,0.646l4.082-0.006c0.243,0,0.385-0.031,0.467-0.085
						c0.066,0.046,0.175,0.085,0.35,0.085h1.924c0.752,0,0.244-0.36,0.159-0.67c-0.253-0.79-0.253-3.323-0.253-4.552
						c0,0,0.046-7.177,0.041-8.499c0.733,1.416,7.272,13.196,7.272,13.196s5.456-11.201,6.357-13.346c0,1.562,0.05,9.558,0.05,9.558
						c0,1.078,0.067,2.942-0.228,3.391c-0.305,0.477-0.363,0.941,0.159,0.941h4.168C71.685,70.493,71.966,70.324,71.653,69.971
						 M36.695,64.563c0.21-0.505,3.685-8.253,4.022-9.052c0.251,0.667,3.153,8.563,3.333,9.052H36.695z M90.765,64.421
						c0.214-0.509,3.838-8.111,4.184-8.91c0.254,0.667,3.033,8.416,3.22,8.91H90.765z"/>
				</g>
			</g>
			<g>
				<path fill="#FFFFFF" d="M89.249,58.766c0,3.47-2.601,5.938-6.349,5.938c-1.463,0-2.198-0.448-2.268-1.364
					c0,0,0.252,0.108,1.051,0.108c2.01,0,3.718-1.388,3.775-4.761c0.025-1.519-0.839-4.223-4.226-4.223c0,0-1.833,0.045-2.346,0.045
					c0,0.708-0.016,11.821-0.016,11.821c0,1.201-0.031,2.88,0.612,3.679c0.163,0.218,0.238,0.392,0.19,0.428
					c-0.139,0.102-0.296,0.056-0.43,0.056h-4.731c-0.139,0-0.471,0.025-0.434-0.124c0.047-0.131,0.13-0.236,0.198-0.323
					c0.608-0.824,0.608-2.514,0.608-3.715l0.006-9.2c0-0.56-0.113-1.913-0.165-2.286c-0.062-0.444-0.173-0.816-0.471-1.266
					c-0.061-0.09-0.093-0.198-0.068-0.251c0.047-0.172,0.168-0.225,0.308-0.225h2.234l2.046-0.005l3.898-0.026
					C87.516,53.072,89.249,56.2,89.249,58.766"/>
			</g>
			<g>
				<g>
					<g>
						<path fill-rule="evenodd" clip-rule="evenodd" fill="#FFFFFF" d="M58.031,91.705H54.77c0.658-0.464,1.176-0.836,1.698-1.196
							c-0.108-0.138-0.217-0.274-0.332-0.419c-0.253,0.107-0.518,0.199-0.775,0.31c-2.116,0.877-4.28,1.506-6.598,1.603
							c-3.282,0.131-5.825-1.919-4.772-5.974c1.292-4.991,4.578-8.366,9.653-9.729c0.904-0.24,1.959-0.135,2.897,0.051
							c1.152,0.226,1.631,1.182,1.39,2.336c-0.281,1.391-1.14,2.388-2.271,3.158c-2.318,1.579-4.934,2.338-7.663,2.722
							c-0.678,0.094-1.02,0.331-1.089,0.972c-0.1,0.837-0.274,1.678-0.247,2.507c0.048,1.449,0.84,2.383,2.256,2.422
							c1.345,0.036,2.744-0.096,4.038-0.442c3.997-1.067,4.063-1.203,6.074-4.768c1.651-2.936,3.345-5.846,5.026-8.762
							c0.1-0.173,0.229-0.333,0.44-0.637c1.186,2.063,2.314,4.018,3.517,6.103c0.441-0.328,0.847-0.631,1.264-0.933
							c1.05-0.762,2.106-1.521,3.154-2.278c1.196-0.857,1.198-0.877,0.746-2.343c0.136-0.023,0.262-0.085,0.383-0.065
							c1.785,0.287,3.245-0.381,4.681-1.373c1.156-0.791,2.43-1.403,3.661-2.06c0.402-0.209,0.877-0.303,1.312-0.448
							c0.043,0.102,0.094,0.206,0.133,0.305c-1.959,1.128-3.93,2.254-6.05,3.465c1.286,0.12,2.348,0.185,3.408,0.323
							c1.127,0.152,2.159,0.589,3.053,1.314c1.444,1.173,1.68,3.144,0.354,4.439c-0.857,0.834-1.971,1.393-3.011,2.102
							c1.302,2.023,2.835,4.096,4.917,5.698c0.734,0.554,1.5,1.037,2.491,1c1.22-0.047,1.923-0.658,1.933-1.879
							c0.027-3.901,0.027-7.799,0.012-11.698c-0.004-0.367-0.163-0.732-0.26-1.142h3.202c-0.078,0.714-0.208,1.392-0.208,2.065
							c-0.018,3.688-0.008,7.374-0.008,11.067c0,0.945,0.006,0.945,0.983,0.95c1.541,0,3.09-0.018,4.629,0
							c1.023,0.013,2.046,0.055,2.78-0.835c0.1,0.104,0.179,0.166,0.173,0.205c-0.338,1.889-0.344,1.889-2.273,1.894
							c-4.456,0-8.913-0.038-13.369,0.015c-1.514,0.025-2.635-0.526-3.528-1.688c-1.158-1.505-2.322-2.995-3.471-4.504
							c-0.5-0.664-1.979-1.109-2.703-0.739c-0.13,0.068-0.224,0.328-0.229,0.502c-0.012,1.758-0.02,3.52,0.016,5.271
							c0.012,0.354,0.22,0.697,0.35,1.092h-7.339c0.727-0.993,0.727-1.026,0.124-2.069c-1.022-1.786-2.047-3.585-3.045-5.335
							c-2.405,1.451-4.802,2.807-7.082,4.34c-0.658,0.444-1.002,1.39-1.4,2.153C57.693,90.957,57.921,91.319,58.031,91.705
							 M47.393,84.114c0.506-0.094,0.851-0.135,1.186-0.229c2.093-0.534,4.072-1.281,5.573-2.941c0.719-0.8,1.215-1.713,1.306-2.806
							c0.073-0.946-0.325-1.379-1.275-1.356c-1.067,0.02-1.955,0.511-2.733,1.196c-1.698,1.511-2.971,3.337-3.869,5.432
							C47.507,83.595,47.477,83.791,47.393,84.114 M73.41,78.877c-1.566,1.158-2.993,2.231-4.441,3.266
							c-0.434,0.316-0.572,0.554-0.253,1.096c1.337,2.247,2.618,4.538,3.93,6.813c0.171,0.311,0.401,0.584,0.607,0.88
							c0.051-0.027,0.104-0.054,0.156-0.085V78.877z M76.167,80.527h-0.01c0,0.84-0.023,1.682,0.018,2.522
							c0.01,0.217,0.21,0.604,0.354,0.617c1.698,0.151,3.387,0.118,4.728-1.162c0.84-0.799,1.209-1.817,0.912-2.969
							c-0.274-1.1-1.129-1.702-2.171-1.883c-1.064-0.188-2.157-0.169-3.228-0.256c-0.54-0.039-0.63,0.246-0.612,0.708
							C76.19,78.913,76.167,79.717,76.167,80.527 M59.892,86.966c0.057,0.062,0.12,0.123,0.175,0.19
							c1.75-1.098,3.493-2.203,5.251-3.281c0.428-0.262,0.495-0.485,0.229-0.917c-0.564-0.906-1.077-1.846-1.668-2.872
							C62.51,82.448,61.2,84.706,59.892,86.966"/>
					</g>
				</g>
				<g>
					<g>
						<path fill-rule="evenodd" clip-rule="evenodd" fill="#FFFFFF" d="M32.279,91.687c0.073-0.613,0.193-1.114,0.193-1.616
							c0.015-4.029,0.015-8.067,0-12.101c-0.006-0.505-0.112-1.012-0.185-1.635c1.371,0,2.829-0.046,4.278,0.021
							c1.571,0.073,3.131,0.22,4.686,0.413c0.499,0.054,1,0.313,1.451,0.567c2.458,1.35,2.806,4.115,0.758,6.051
							c-1.186,1.124-2.639,1.733-4.254,1.816c-1.284,0.069-2.581-0.056-3.883-0.089c-0.257,1.411-0.133,5.641,0.232,6.571H32.279z
							 M35.223,80.771c0,0.945,0.012,1.892-0.003,2.838c-0.009,0.372,0.093,0.617,0.488,0.658c1.826,0.181,3.581,0.007,5.047-1.234
							c1.052-0.895,1.221-2.108,0.946-3.367c-0.248-1.184-1.143-1.846-2.283-2.028c-1.167-0.184-2.362-0.192-3.547-0.276
							c-0.476-0.037-0.675,0.169-0.654,0.672C35.244,78.946,35.223,79.861,35.223,80.771"/>
					</g>
				</g>
				<g>
					<path fill="#FFFFFF" d="M103.411,82.02l-0.29-0.567c1.663-0.854,2.643-2.083,2.901-3.64c0.395-2.334-0.899-4.91-2.352-6.431
						c-2.191-2.284-6.41-2.627-13.289-1.065c-6.397,1.441-14.148,6.442-14.225,6.488l-0.34-0.529
						c0.08-0.047,7.915-5.109,14.422-6.578c7.122-1.608,11.527-1.216,13.883,1.246c1.566,1.635,2.953,4.42,2.528,6.975
						C106.353,79.685,105.263,81.061,103.411,82.02"/>
				</g>
			</g>
			<g>
				<path fill="#FFFFFF" d="M104.843,79.81c0,1.341-1.08,2.425-2.415,2.425c-1.343,0-2.422-1.084-2.422-2.425
					c0-1.335,1.079-2.423,2.422-2.423C103.763,77.387,104.843,78.475,104.843,79.81"/>
			</g>
		</g>
	</g>
</g>
</svg>
