<?xml version="1.0" encoding="utf-8"?>
<!-- Generator: Adobe Illustrator 15.1.0, SVG Export Plug-In . SVG Version: 6.00 Build 0)  -->
<!DOCTYPE svg PUBLIC "-//W3C//DTD SVG 1.1//EN" "http://www.w3.org/Graphics/SVG/1.1/DTD/svg11.dtd">
<svg version="1.1" id="Capa_1" xmlns="http://www.w3.org/2000/svg" xmlns:xlink="http://www.w3.org/1999/xlink" x="0px" y="0px"
	 width="139px" height="145px" viewBox="0 0 139 145" enable-background="new 0 0 139 145" xml:space="preserve">
<g>
	<g>
		<defs>
			<rect id="SVGID_1_" x="11.814" y="11.259" width="115.155" height="122.483"/>
		</defs>
		<clipPath id="SVGID_2_">
			<use xlink:href="#SVGID_1_"  overflow="visible"/>
		</clipPath>
	</g>
	
		<path fill="none" stroke="#4F5877" stroke-width="1.0057" stroke-linecap="round" stroke-linejoin="round" stroke-miterlimit="10" d="
		M138.725,42.454l0.167-5.459c-2.387,0-4.389-1.547-5.12-3.686V29.8c0.731-2.136,2.733-3.683,5.12-3.683l-0.058-4.648
		c-2.314,0-4.279-1.452-5.062-3.495v-3.882c0.783-2.044,2.748-3.5,5.062-3.5l0.056-4.744h-5.118V0.332l-5.652,0.053
		c0,3.005-2.354,5.44-5.257,5.44c-2.9,0-5.25-2.435-5.25-5.44l-4.49-0.055c0,3.005-2.349,5.442-5.253,5.442
		c-2.901,0-5.253-2.437-5.253-5.442l-5.275-0.222c0,3.005-2.354,5.442-5.255,5.442c-2.902,0-5.258-2.437-5.258-5.442L82.345,0.22
		c0,3.003-2.35,5.44-5.253,5.44c-2.904,0-5.255-2.437-5.255-5.44l-5.961,0.053c0,3.007-2.353,5.442-5.256,5.442
		c-2.902,0-5.255-2.435-5.255-5.442l-4.484-0.108c0,3.007-2.352,5.44-5.255,5.44c-2.9,0-5.255-2.433-5.255-5.44L35.097,0
		c0,3.005-2.353,5.44-5.258,5.44c-2.898,0-5.25-2.435-5.25-5.44L20.1,0.057c0,3.003-2.35,5.441-5.252,5.441
		c-2.901,0-5.255-2.438-5.255-5.441L5.01,0.002v5.845h-5.117l0.055,4.744c2.314,0,4.279,1.457,5.062,3.497v3.887
		c-0.783,2.042-2.748,3.494-5.062,3.494l-0.057,4.648c2.385,0,4.386,1.547,5.119,3.681v3.512c-0.732,2.138-2.734,3.685-5.119,3.685
		l0.166,5.459c2.211,0,4.104,1.327,4.953,3.225v4.436c-0.849,1.895-2.741,3.221-4.953,3.221l0.108,4.643
		c2.129,0,3.954,1.236,4.845,3.02v4.841c-0.891,1.784-2.716,3.021-4.845,3.021l-0.054,6.171c2.17,0,4.027,1.281,4.898,3.125v4.631
		c-0.871,1.842-2.729,3.123-4.898,3.123l-0.11,4.643c2.252,0,4.185,1.375,5.009,3.334v4.219c-0.824,1.955-2.757,3.33-5.009,3.33
		l0.221,5.461c2.087,0,3.877,1.189,4.788,2.916v5.047c-0.911,1.727-2.701,2.916-4.788,2.916l0.055,4.646
		c2.045,0,3.806,1.145,4.733,2.816v5.242c-0.927,1.674-2.688,2.82-4.733,2.82l-0.053,5.852H5.01V145l4.583-0.057
		c0-3.004,2.354-5.441,5.255-5.441c2.903,0,5.252,2.438,5.252,5.441l4.49,0.057c0-3.004,2.352-5.439,5.25-5.439
		c2.905,0,5.258,2.436,5.258,5.439l5.273-0.166c0-3.006,2.355-5.439,5.255-5.439c2.903,0,5.255,2.434,5.255,5.439l4.484-0.107
		c0-3.006,2.353-5.443,5.255-5.443c2.903,0,5.256,2.438,5.256,5.443l5.961,0.053c0-3.004,2.351-5.438,5.255-5.438
		c2.903,0,5.253,2.434,5.253,5.438l4.483,0.111c0-3.002,2.355-5.439,5.258-5.439c2.901,0,5.255,2.438,5.255,5.439l5.275-0.223
		c0-3.004,2.352-5.441,5.253-5.441c2.904,0,5.253,2.438,5.253,5.441l4.49-0.053c0-3.004,2.35-5.441,5.25-5.441
		c2.903,0,5.257,2.438,5.257,5.441l5.652,0.053v-5.516h4.788l-0.054-5.852c-2.047,0-3.806-1.146-4.734-2.822v-5.24
		c0.929-1.672,2.688-2.816,4.734-2.816l0.056-4.646c-2.087,0-3.879-1.191-4.79-2.916v-5.047c0.911-1.725,2.703-2.916,4.79-2.916
		l0.221-5.461c-2.255,0-4.188-1.375-5.011-3.332v-4.215c0.823-1.961,2.756-3.336,5.011-3.336l-0.11-4.643
		c-2.171,0-4.028-1.281-4.9-3.123v-4.631c0.872-1.844,2.729-3.125,4.9-3.125l-0.056-6.171c-2.128,0-3.953-1.237-4.845-3.021V61
		c0.892-1.784,2.717-3.021,4.845-3.021l0.108-4.643c-2.213,0-4.105-1.327-4.953-3.223v-4.434
		C134.619,43.783,136.512,42.454,138.725,42.454z"/>
	
		<rect x="11.814" y="11.259" fill="#82E499" stroke="#4F5877" stroke-width="2.0114" stroke-miterlimit="10" width="115.155" height="122.483"/>
	<g>
		<g>
			<g>
				<g>
					<path fill-rule="evenodd" clip-rule="evenodd" fill="#FFFFFF" d="M47.371,53.391c-10.199,0-18.466,8.272-18.466,18.476
						c0,10.211,8.267,18.483,18.466,18.483c10.191,0,18.457-8.271,18.457-18.483C65.828,61.663,57.562,53.391,47.371,53.391
						 M47.371,79.896c-4.429,0-8.016-3.594-8.016-8.03c0-4.43,3.586-8.028,8.016-8.028c4.433,0,8.021,3.599,8.021,8.028
						C55.392,76.303,51.804,79.896,47.371,79.896"/>
				</g>
			</g>
			<g>
				<path fill-rule="evenodd" clip-rule="evenodd" fill="#FFFFFF" d="M66.154,90.246c2.019,0,3.653-1.635,3.653-3.66
					c0-2.014-1.635-3.66-3.653-3.66c-2.016,0-3.649,1.646-3.649,3.66C62.505,88.611,64.139,90.246,66.154,90.246"/>
			</g>
			<g>
				<path fill-rule="evenodd" clip-rule="evenodd" fill="#FFFFFF" d="M105.231,90.246c2.014,0,3.642-1.635,3.642-3.66
					c0-2.014-1.628-3.66-3.642-3.66c-2.032,0-3.67,1.646-3.67,3.66C101.562,88.611,103.199,90.246,105.231,90.246"/>
			</g>
			<g>
				<g>
					<path fill-rule="evenodd" clip-rule="evenodd" fill="#FFFFFF" d="M87.323,53.391c-2.87,0-5.581,0.654-8.008,1.82v-4.09
						c0-5.729,0-10.831-5.314-10.915c-5.128-0.081-5.32,5.186-5.32,10.915c0,0,0.179,19.816,0.179,20.746
						c0,10.211,8.263,18.483,18.464,18.483c10.2,0,18.457-8.271,18.457-18.483C105.78,61.663,97.523,53.391,87.323,53.391
						 M87.323,79.896c-4.433,0-8.025-3.594-8.025-8.03c0-4.43,3.593-8.028,8.025-8.028c4.423,0,8.014,3.599,8.014,8.028
						C95.337,76.303,91.746,79.896,87.323,79.896"/>
				</g>
			</g>
		</g>
	</g>
</g>
</svg>
