<?xml version="1.0" encoding="utf-8"?>
<!-- Generator: Adobe Illustrator 15.1.0, SVG Export Plug-In . SVG Version: 6.00 Build 0)  -->
<!DOCTYPE svg PUBLIC "-//W3C//DTD SVG 1.1//EN" "http://www.w3.org/Graphics/SVG/1.1/DTD/svg11.dtd">
<svg version="1.1" id="Capa_1" xmlns="http://www.w3.org/2000/svg" xmlns:xlink="http://www.w3.org/1999/xlink" x="0px" y="0px"
	 width="139px" height="145px" viewBox="0 0 139 145" enable-background="new 0 0 139 145" xml:space="preserve">
<g>
	<g>
		<defs>
			<rect id="SVGID_1_" x="10.917" y="11.26" width="115.154" height="122.482"/>
		</defs>
		<clipPath id="SVGID_2_">
			<use xlink:href="#SVGID_1_"  overflow="visible"/>
		</clipPath>
	</g>
	
		<path fill="none" stroke="#4F5877" stroke-width="1.0057" stroke-linecap="round" stroke-linejoin="round" stroke-miterlimit="10" d="
		M138.833,42.457L139,36.995c-2.387,0-4.389-1.547-5.12-3.686V29.8c0.731-2.136,2.733-3.683,5.12-3.683l-0.058-4.648
		c-2.314,0-4.279-1.454-5.062-3.495v-3.882c0.783-2.044,2.748-3.5,5.062-3.5l0.056-4.744h-5.118V0.333l-5.652,0.053
		c0,3.005-2.354,5.44-5.257,5.44c-2.9,0-5.25-2.435-5.25-5.44l-4.49-0.055c0,3.005-2.349,5.442-5.253,5.442
		c-2.901,0-5.253-2.437-5.253-5.442l-5.275-0.22c0,3.003-2.354,5.44-5.255,5.44c-2.902,0-5.258-2.437-5.258-5.44l-4.483,0.11
		c0,3.003-2.351,5.44-5.253,5.44c-2.904,0-5.255-2.437-5.255-5.44l-5.961,0.053c0,3.007-2.352,5.442-5.255,5.442
		c-2.902,0-5.255-2.435-5.255-5.442l-4.484-0.106c0,3.005-2.352,5.438-5.255,5.438c-2.9,0-5.255-2.433-5.255-5.438L35.206,0
		c0,3.005-2.353,5.44-5.258,5.44c-2.898,0-5.25-2.435-5.25-5.44l-4.49,0.057c0,3.003-2.35,5.441-5.252,5.441
		c-2.901,0-5.255-2.438-5.255-5.441L5.118,0.002v5.845H0.001l0.055,4.744c2.314,0,4.279,1.457,5.062,3.497v3.887
		c-0.783,2.04-2.748,3.494-5.062,3.494L0,26.117c2.385,0,4.386,1.547,5.119,3.681v3.512C4.386,35.448,2.384,36.995,0,36.995
		l0.166,5.461c2.211,0,4.104,1.325,4.953,3.223v4.436c-0.849,1.895-2.741,3.221-4.953,3.221l0.108,4.643
		c2.129,0,3.954,1.235,4.845,3.02v4.841c-0.891,1.784-2.716,3.021-4.845,3.021L0.22,75.031c2.17,0,4.027,1.281,4.898,3.125v4.631
		C4.247,84.629,2.39,85.91,0.22,85.91l-0.11,4.643c2.252,0,4.185,1.375,5.009,3.334v4.219c-0.824,1.955-2.757,3.33-5.009,3.33
		l0.221,5.461c2.087,0,3.877,1.189,4.788,2.916v5.047c-0.911,1.727-2.701,2.916-4.788,2.916l0.055,4.646
		c2.045,0,3.806,1.145,4.733,2.814v5.246c-0.927,1.672-2.688,2.816-4.733,2.816l-0.053,5.854h4.786V145l4.583-0.057
		c0-3.004,2.354-5.441,5.255-5.441c2.903,0,5.252,2.438,5.252,5.441l4.49,0.057c0-3.006,2.352-5.439,5.25-5.439
		c2.905,0,5.258,2.434,5.258,5.439l5.273-0.166c0-3.006,2.355-5.439,5.255-5.439c2.903,0,5.255,2.434,5.255,5.439l4.484-0.107
		c0-3.006,2.353-5.443,5.255-5.443c2.903,0,5.255,2.438,5.255,5.443l5.961,0.053c0-3.004,2.351-5.438,5.255-5.438
		c2.902,0,5.253,2.434,5.253,5.438l4.483,0.111c0-3.002,2.355-5.439,5.258-5.439c2.901,0,5.255,2.438,5.255,5.439l5.275-0.223
		c0-3.004,2.352-5.441,5.253-5.441c2.904,0,5.253,2.438,5.253,5.441l4.49-0.053c0-3.004,2.35-5.441,5.25-5.441
		c2.903,0,5.257,2.438,5.257,5.441l5.652,0.053v-5.516h4.788l-0.054-5.854c-2.047,0-3.806-1.145-4.734-2.82v-5.24
		c0.929-1.672,2.688-2.816,4.734-2.816l0.056-4.646c-2.087,0-3.879-1.191-4.79-2.916v-5.047c0.911-1.725,2.703-2.916,4.79-2.916
		l0.221-5.461c-2.255,0-4.188-1.375-5.011-3.332v-4.215c0.823-1.961,2.756-3.336,5.011-3.336l-0.11-4.643
		c-2.171,0-4.028-1.281-4.9-3.123v-4.631c0.872-1.844,2.729-3.125,4.9-3.125l-0.056-6.171c-2.128,0-3.953-1.236-4.845-3.021v-4.838
		c0.892-1.784,2.717-3.021,4.845-3.021l0.108-4.643c-2.213,0-4.105-1.327-4.953-3.223V45.68
		C134.728,43.783,136.62,42.457,138.833,42.457z"/>
	
		<rect x="10.917" y="11.26" fill="#82E499" stroke="#4F5877" stroke-width="2.0114" stroke-miterlimit="10" width="115.154" height="122.482"/>
	<g>
		<g>
			<g>
				<g>
					<path fill-rule="evenodd" clip-rule="evenodd" fill="#FFFFFF" d="M50.402,52.721v-0.029c0.035-0.556,0.035-1.103-0.071-1.653
						c-0.612-3.467-4.625-5.289-9.501-5.458c-5.287-0.244-14.581,2.23-18.664,6.077c-1.167,1.101-1.196,1.784-0.582,2.405
						c0.994,0.997,2.944,0.513,4.15-0.379c0.789-0.65,0.655-1.301,1.541-1.924c1.518-1.028,4.051-2.301,6.313-3.022
						c-5.97,7.04-10.568,18.481-12.866,26.168c-0.203,0.791,0.206,1.619,0.893,1.855c1.231,0.414,2.912,0.172,3.57-0.549
						c0.376-0.482,0.139-0.889-0.068-1.441c-0.309-0.686,3.398-10.099,4.322-12.129c0.683,0.246,1.434,0.66,2.257,0.761
						c4.605,0.442,10.192-0.101,14.858-4.12C47.76,58.083,50.1,56.121,50.402,52.721 M35.275,60.861
						c-2.096,0.208-4.703-0.169-4.328-1.539v-0.04c1.789-3.612,3.54-6.25,5.975-9.824c0.234-0.415,0-0.824-0.276-0.928
						c-0.479-0.169-0.964-0.273-1.616-0.273c9.647-2.677,13.073,2.781,11.118,6.456C44.019,58.7,38.874,60.484,35.275,60.861"/>
				</g>
			</g>
			<g>
				<path fill-rule="evenodd" clip-rule="evenodd" fill="#FFFFFF" d="M95.073,56.636c-0.138-0.515-0.452-0.684-0.989-0.684h-3.435
					l2.294-2.956c0.211-0.305-0.203-0.65-0.344-0.753c-0.789-0.171-1.921-0.242-2.638-0.037c-0.447,0.104-1.103,0.485-1.378,0.79
					c-0.652,0.688-1.434,1.751-2.222,2.987l-0.035,0.033h-1.721c-0.374,0-0.751,0.104-1.097,0.415
					c-0.474,0.448-0.688,1.099-0.646,1.271c0.173,0.511,0.438,0.722,1.025,0.722h0.925c-1.136,1.886-2.845,4.978-3.392,6.047
					c-1.821,3.532,0.375,5.532,2.777,6.146c4.117,0.995,6.247-1.305,5.423-2.885c-0.346-0.655-0.968-0.617-1.412-0.311
					c-0.518,0.375-1.096,0.79-1.819,0.79c-0.687,0.035-1.512-0.623-1.68-1.338c-0.274-1.166,2.812-6.941,4.017-8.48h4.593
					c0.39,0,0.764-0.073,1.098-0.415C94.902,57.53,95.142,56.809,95.073,56.636"/>
			</g>
			<g>
				<g>
					<path fill-rule="evenodd" clip-rule="evenodd" fill="#FFFFFF" d="M115.726,70.476c1.029,0.246,1.991,0.281,2.747-0.307
						c0.723-0.686,0.753-1.717-0.042-2.297c-1.057-0.823-1.363-0.075-2.188-0.346c-0.725-0.275-2.299-1.678-3.054-2.887
						c-0.306-0.511-0.586-1.169-0.72-1.37c3.289-2.065,5.144-3.371,6.276-4.361c0.479-0.417,0.623-0.999,0.479-1.447
						c-0.101-0.379-0.479-1.067-0.857-1.34c-0.449-0.344-0.994-0.307-1.407,0.038c-1.336,1.097-2.946,2.435-5.798,4.326
						c-0.24-0.651-1.303-3.294-1.541-3.882c-0.279-0.513-0.858-0.654-1.14-0.654c-0.646-0.063-1.431,0.069-1.951,0.275
						c-0.52,0.208-0.719,0.481-0.689,0.688c0.042,0.311,0.998,2.954,2.2,5.533c-0.963,0.686-1.888,1.303-2.88,1.955
						c-1.549,0.896-3.025,1.72-4.221,2.266c-0.141,0.069-0.514,0.242-0.548,0.242c-2.953,1.238-6.515,0.89-6.826-0.827
						c6.482-1.441,8.814-3.4,10.496-5.183c1.607-1.682,1.335-3.879,0.274-4.43c-3.775-2.028-12.387,2.093-14.404,7.246
						c-0.761,1.926-0.312,4.499,1.917,5.734c4.867,2.748,11.39-0.104,16.472-3.571c0.366-0.238,0.708-0.481,1.125-0.759
						c0.211,0.381,0.585,1,0.79,1.307C111.712,68.829,113.944,70.103,115.726,70.476 M101.454,58.56
						c1.239,0.861-3.395,4.159-7.682,5.324C94.833,61.172,100.184,57.703,101.454,58.56"/>
				</g>
			</g>
			<g>
				<g>
					<path fill-rule="evenodd" clip-rule="evenodd" fill="#FFFFFF" d="M82.066,56.5c-0.579-0.483-1.374-0.652-1.987-0.548
						c-0.479,0.032-0.855,0.271-1.031,0.611c-2.292,4.298-3.908,7.421-5.351,9.313c-1.746,2.168-4.008,2.232-3.981,1.101
						c0.14-1.956,2.949-6.56,4.806-9.208c0.272-0.411,0.206-0.925-0.206-1.27c-0.38-0.277-1.17-0.517-1.613-0.548
						c-0.481-0.035-1.094,0.169-1.478,0.684c-1.816,2.439-5.036,8.696-4.831,10.65c-0.449,0.617-1.443,1.166-2.373,0.997
						c-0.578-0.134-1.058-0.621-0.884-1.234l3.257-7.183c0.204-0.444,0-0.822-0.481-0.928c-0.412-0.102-1.24-0.205-1.72-0.173
						c0.45-0.171,1.376-0.305,1.891-0.375c0.402-0.14,0.579-0.411,0.542-0.717c0-0.312-0.338-0.932-0.612-1.277
						c-0.176-0.203-0.586-0.442-0.927-0.411c-0.996,0.066-4.529,0.24-8.302,2.887c-2.782,1.891-4.731,4.74-4.771,7.252
						c-0.513,0.717-1.436,1.987-2.64,2.329c-1.439,0.415-1.303-1.232-0.546-2.987c2.362-5.047,5.284-9.616,8.641-14.288
						c0.279-0.415,0.279-0.857-0.446-1.065c-0.616-0.1-1.543-0.173-2.232-0.033c-0.379,0.033-0.754,0.375-0.893,0.548
						c-0.821,1.063-2.193,3.093-3.6,5.259c-1.47,2.229-3.566,5.973-4.114,7.002c-1.131,2.408-1.847,4.534-1.545,5.707
						c0.31,1.167,1.714,2.087,3.328,1.985c1.578-0.104,2.984-0.957,4.396-2.431c0,0,2.153,4.669,7.474,0.922
						c0.624,1.721,4.154,2.23,6.961-0.476c1.207,2.26,3.708,2.642,6.733,0.307c0.138-0.073,0.273-0.175,0.442-0.307
						c-0.689,1.508-1.271,2.398-1.853,3.257c-0.721,0.967-1.993,2.541-4.116,2.512c-0.514-0.039-0.999-0.277-1.443-0.449
						c-0.477-0.205-0.991-0.17-1.235,0.344c-0.028,0.066-0.028,0.135-0.072,0.203c-0.269,0.998,0.55,2.064,2.026,2.406
						c0.38,0.066,0.789,0.104,1.237,0.066c3.227,0.037,5.045-1.783,6.488-3.983c1.364-2.06,3.463-7.486,3.463-7.486
						s1.712-3.848,3.976-7.694C82.686,57.359,82.514,56.88,82.066,56.5 M59.083,66.496c-1.685,2.333-4.325,1.093-3.018-1.961
						c1.233-2.812,4.874-5.014,7.303-5.524C61.901,61.722,60.625,64.332,59.083,66.496"/>
				</g>
			</g>
		</g>
	</g>
	<g>
		<g>
			<path fill="#FFFFFF" d="M78.142,87.268c0.346,1.105,1.824,1.346,2.888,1.346c1.133,0,2.89-0.346,2.89-1.693
				c0-1.158-1.397-1.252-2.862-1.371c-1.837-0.146-3.808-0.32-3.808-2.307c0-1.76,2.023-2.545,3.647-2.545
				c1.399,0,3.143,0.334,3.702,1.854c0.198,0.531-0.707,0.771-0.905,0.32c-0.4-1.016-1.823-1.188-2.783-1.188
				c-0.892,0-2.623,0.359-2.623,1.572c0,1.16,1.331,1.279,2.876,1.398c1.824,0.162,3.781,0.254,3.781,2.252
				c0,2.041-2.277,2.666-3.915,2.666c-1.356,0-3.434-0.467-3.873-2.066C76.997,86.92,78.036,86.721,78.142,87.268z"/>
			<path fill="#FFFFFF" d="M87.436,86.867v2.146c0,0.613-0.958,0.6-0.958,0.012V81.35c0-0.279,0.226-0.467,0.492-0.467h2.891
				c2.303,0,3.38,1.533,3.38,3.066c0,1.6-1.091,2.918-3.422,2.918H87.436z M87.436,86.002h2.383c1.771,0,2.503-1.041,2.478-2.053
				c-0.014-1.092-0.879-2.199-2.424-2.199h-2.437V86.002z"/>
			<path fill="#FFFFFF" d="M94.481,84.988c0-2.092,1.411-3.879,3.527-4.211c0.493-0.066,0.946-0.053,1.412,0
				c2.049,0.32,3.634,2.025,3.634,4.211c0,2.771-1.997,4.531-4.261,4.531C96.399,89.52,94.481,87.812,94.481,84.988z M95.48,85.027
				c0,2.186,1.438,3.572,3.313,3.572c1.799,0,3.274-1.332,3.274-3.572c0-1.719-1.13-3.09-2.768-3.357
				c-0.398-0.053-0.785-0.053-1.158,0C96.53,81.924,95.48,83.217,95.48,85.027z"/>
			<path fill="#FFFFFF" d="M105.893,86.402v2.584c0,0.613-0.972,0.613-0.972,0.014v-7.65c0-0.279,0.2-0.467,0.493-0.467h3.154
				c2.304,0,3.476,1.307,3.476,2.865c0,1.348-0.732,2.32-2.37,2.6l2.158,2.332c0.504,0.508-0.229,1.092-0.666,0.641l-2.689-2.918
				H105.893z M105.893,85.561h2.69c1.743,0,2.503-0.811,2.476-1.812c-0.013-1.092-0.931-1.973-2.476-1.973h-2.69V85.561z"/>
			<path fill="#FFFFFF" d="M119.875,80.883c0.651,0,0.651,0.92,0,0.92h-2.969c0,2.4,0.014,4.84,0.014,7.236
				c0,0.334-0.28,0.494-0.506,0.494c-0.227,0-0.479-0.16-0.479-0.494v-7.236h-2.954c-0.627,0-0.627-0.92,0-0.92H119.875z"/>
		</g>
	</g>
</g>
</svg>
