<svg xmlns="http://www.w3.org/2000/svg" width="220" height="338" viewBox="0 0 220 338"><path fill="#82E499" d="M7.73 53.743C19.95 26.507 64.602 7.375 97.92 2.25c33.492-5.15 76.162-1.21 97.668 19.708 79.637 77.47-58.34 237.894-58.34 237.894S-39.686 159.432 7.728 53.742z"/><path fill="#F79B82" d="M21.685 51.597c10.15-26.92 48.802-45.128 77.817-49.59 29.168-4.485 66.527.27 85.73 21.544 71.09 78.784-46.366 236.053-46.366 236.053S-17.696 156.053 21.686 51.597z"/><path fill="#82E499" d="M56.998 46.167c4.19-26.003 25.545-41.553 42.17-44.11 16.71-2.568 38.79 4.537 51.342 26.833 46.49 82.568-11.875 230.75-11.875 230.75S40.748 147.066 56.998 46.168z"/><path fill="#51C0E8" d="M138.803 260.73s-.102-2.557 1.8-6.36c22.333-44.706 65.932-257.87-41.1-252.363l39.3 258.723z"/><path stroke="#4F5877" stroke-width=".978" stroke-miterlimit="10" stroke-dasharray="3.9138,2.9353,3.9138,2.9353,3.9138,2.9353" fill="none" d="M148.377 245.857l6.994 42.584M124.766 251.54l6.695 40.82"/><path stroke="#4F5877" stroke-width="1.468" stroke-linecap="round" stroke-linejoin="round" stroke-miterlimit="10" fill="none" d="M122.404 293.73l-39.287-71.79M176.256 207.615l-14.988 79.852M106.092 239.473c1.82 16.297 16.504 28.03 32.8 26.207 16.292-1.818 25.75-20.016 23.93-36.31"/><path fill="#EF5024" d="M122.404 293.73l5.534 36.422 39.136-5.95-5.53-36.42"/><path fill="#F7F7F8" d="M133.54 292.04l3.878 25.526 17.035-2.582-3.883-25.535"/><path fill="#FAB585" d="M167.033 324.164l-39.072 5.934 1.173 7.69 39.066-5.93z"/><path opacity=".4" fill="#fff" d="M34.852 45.118c12.22-27.237 22.22-23.648 12.16 3.03-37.64 99.833 89.623 211.8 89.623 211.8s-149.2-109.14-101.783-214.83z"/><g opacity=".4" fill="#fff"><path opacity=".69" d="M163.604 28.428c-1.992 4.174-12.71 3.215-23.943-2.142S120.933 13.204 122.92 9.03c1.99-4.17 12.71-3.216 23.944 2.142 11.236 5.36 18.73 13.08 16.74 17.256z"/><path opacity=".64" d="M172.86 37.48c-.997 2.083-3.866 2.794-6.41 1.58-2.544-1.212-3.802-3.89-2.806-5.976s3.865-2.796 6.412-1.58c2.542 1.21 3.8 3.89 2.805 5.975z"/></g></svg>