<svg xmlns="http://www.w3.org/2000/svg" xmlns:xlink="http://www.w3.org/1999/xlink" width="1024" height="768" viewBox="0 0 1024 768"><path fill="#88CA90" d="M.75-.005h1024v768.01H.75z"/><radialGradient id="a" cx="-91.251" cy="544" r="452.692" gradientTransform="matrix(1 0 0 -1 604 928)" gradientUnits="userSpaceOnUse"><stop offset=".012" stop-color="#fff" stop-opacity=".36"/><stop offset=".399" stop-color="#88CA90"/><stop offset=".657" stop-color="#7FBE88"/><stop offset="1" stop-color="#6FA879"/></radialGradient><path opacity=".4" fill="url(#a)" enable-background="new" d="M.5-.005H1025v768.01H.5z"/><path fill="none" d="M.75-.005h1024v768.01H.75z"/><path fill="#F36E54" d="M256.394 734.938l-65.082 28.148c-5.993 2.592-13.997-2.582-17.877-11.553-3.88-8.973-2.17-18.348 3.824-20.94l46.636-20.17c6.102-5.925 12.162-10.71 16.46-12.57 13.263-5.733 27.23-2.952 31.194 6.214 3.964 9.167-1.89 25.134-15.156 30.87z"/><path fill="#C85B45" d="M251.958 736.857L190.68 763.36c-5.643 2.44-13.364-2.856-17.244-11.827-3.88-8.973-2.452-18.225 3.19-20.664"/><g stroke="#FEEAA2" stroke-width="3.078" stroke-linecap="round" stroke-miterlimit="10" fill="none"><path d="M256.935 712.273c.087 2.406 4.194 9.416-19.612 30.912M257.088 712.627s-4.3-9.947-32.658-2.715"/></g><path fill="#F36E54" d="M198.04 644.91l-54.966 44.795c-5.062 4.125-4.158 13.613 2.017 21.19 6.178 7.58 15.287 10.378 20.348 6.253l39.39-32.102c8.067-2.684 15.107-5.86 18.737-8.816 11.2-9.13 15.167-22.81 8.857-30.548-6.31-7.744-23.18-9.902-34.382-.772z"/><path fill="#C85B45" d="M194.292 647.966l-51.755 42.177c-4.766 3.883-3.622 13.176 2.553 20.754 6.177 7.578 15.047 10.572 19.812 6.69"/><g stroke="#FEEAA2" stroke-width="3.078" stroke-linecap="round" stroke-miterlimit="10" fill="none"><path d="M218.405 654.87c-2.096-1.185-6.426-8.058-36.472 3.167M218.16 654.574s6.848 8.398-12.634 30.236"/></g><path fill="#3A81C3" d="M916.57 387.688l-28.864 46.802s-4.21 2.55-12.37-1.2-10.638-9.38-10.638-9.38l16.518-52.474"/><path opacity=".25" fill="#fff" d="M887.704 434.49s-4.21 2.552-12.37-1.2c-8.157-3.75-10.638-9.38-10.638-9.38l16.52-52.475"/><path fill="#306CA4" d="M908.433 380.507c-2.346-1.36-5.076-2.77-8.045-4.135-9.758-4.485-18.32-6.724-19.12-4.99-.792 1.73 6.476 6.777 16.233 11.266 9.77 4.49 18.327 6.722 19.122 4.99.398-.865-1.22-2.564-4.156-4.6"/><path fill="#2A6195" d="M900.526 376.555c-2.23-1.288 6.127 2.92 7.906 3.952l4.033 2.53c2.936 2.036 4.555 3.735 4.156 4.602-.794 1.73-9.353-.5-19.12-4.992 0 0 16.458 1.652 3.026-6.093z"/><path opacity=".49" stroke="#fff" stroke-width="1.875" stroke-linecap="round" stroke-miterlimit="10" fill="none" d="M880.573 387.33l-8.02 28.25"/><path d="M877.464 425.41c-.22.3-.146.708.152.928l2.475 1.776c.302.215.71.143.93-.152l39.48-55.01c.213-.3.143-.714-.158-.93l-2.477-1.774c-.293-.213-.707-.146-.926.147l-39.476 55.014z" fill="none"/><defs><path id="b" d="M920.345 372.025l-2.477-1.775c-.293-.21-.707-.146-.926.146l-39.475 55.015c-.22.306-.146.71.152.93l2.474 1.776c.3.215.707.146.922-.156l39.486-55.005c.023-.035.045-.074.062-.108.132-.288.048-.63-.22-.822"/></defs><linearGradient id="c" gradientUnits="userSpaceOnUse" x1="1289.2" y1="179.171" x2="1294.204" y2="179.171" gradientTransform="matrix(.807 .591 -.591 .807 -37.606 -508.291)"><stop offset="0" stop-color="#fff"/><stop offset=".838" stop-color="#fff" stop-opacity=".135"/><stop offset=".969" stop-color="#fff" stop-opacity="0"/></linearGradient><use xlink:href="#b" overflow="visible" fill="url(#c)"/><clipPath id="d"><use xlink:href="#b" overflow="visible"/></clipPath><path clip-path="url(#d)" stroke="#F79D82" stroke-width="2" stroke-miterlimit="10" fill="none" d="M919.825 380.464l-5.777-11.948"/><path clip-path="url(#d)" stroke="#CC826C" stroke-width="2" stroke-miterlimit="10" fill="none" d="M916.208 385.51l-5.78-11.96"/><path clip-path="url(#d)" stroke="#F79D82" stroke-width="2" stroke-miterlimit="10" fill="none" d="M912.59 390.546l-5.777-11.955"/><path clip-path="url(#d)" stroke="#CC826C" stroke-width="2" stroke-miterlimit="10" fill="none" d="M908.976 395.59l-5.782-11.958"/><path clip-path="url(#d)" stroke="#F79D82" stroke-width="2" stroke-miterlimit="10" fill="none" d="M905.356 400.628l-5.78-11.953"/><path clip-path="url(#d)" stroke="#CC826C" stroke-width="2" stroke-miterlimit="10" fill="none" d="M901.737 405.67l-5.775-11.958"/><path clip-path="url(#d)" stroke="#F79D82" stroke-width="2" stroke-miterlimit="10" fill="none" d="M898.124 410.708l-5.783-11.953"/><path clip-path="url(#d)" stroke="#CC826C" stroke-width="2" stroke-miterlimit="10" fill="none" d="M894.5 415.75l-5.78-11.954"/><path clip-path="url(#d)" stroke="#F79D82" stroke-width="2" stroke-miterlimit="10" fill="none" d="M890.884 420.796l-5.78-11.967"/><path clip-path="url(#d)" stroke="#CC826C" stroke-width="2" stroke-miterlimit="10" fill="none" d="M887.27 425.838l-5.78-11.956"/><path clip-path="url(#d)" stroke="#F79D82" stroke-width="2" stroke-miterlimit="10" fill="none" d="M883.65 430.88l-5.78-11.96"/><path fill="#FEEAA2" d="M867.24 415.813l-2.548 8.096s2.484 5.63 10.64 9.38c8.16 3.752 12.372 1.2 12.372 1.2l3.572-5.794c-.494-.066-1.023-.197-1.645-.48-3.423-1.576-2.315-3.986-5.743-5.562-3.426-1.577-4.535.835-7.97-.748-3.435-1.58-2.327-3.99-5.755-5.566-1.19-.55-2.095-.607-2.92-.527m1.968 7.375c.354-.766 1.26-1.107 2.025-.756.77.354 1.107 1.268.756 2.033-.353.768-1.265 1.104-2.034.75-.766-.35-1.098-1.26-.746-2.027m-.486-3.462c.156-.344.57-.498.918-.34.35.162.498.574.34.918-.16.35-.568.5-.918.34-.346-.16-.5-.572-.34-.918"/><path opacity=".4" fill="#fff" d="M886.757 425.43c-3.89-5.933-7.828-1.61-10.908-3.534l.433 11.83c3.982 1.645 8.277 2.09 10.746 1.066l-.273-9.363z"/><defs><circle id="e" cx="112.482" cy="592.979" r="73.644"/></defs><clipPath id="f"><use xlink:href="#e" overflow="visible"/></clipPath><g clip-path="url(#f)"><path fill="#F6F6FB" d="M120.076 555.94s16.048 11.705 42.146 101.21c0 0-37.8 31.432-89.56 5.617 0 0 30.63-89.99 47.414-106.827z"/><path fill="#FEEAA2" d="M120.076 555.94s39.807-6.11 72.427 27.99c0 0 6.367 42.1-30.28 73.22-.002 0-22.75-80.067-42.147-101.21z"/><path fill="#F79D82" d="M121.293 554.41s-57.856 8.833-87.012 42.097c0 0-2.855 39.3 38.38 66.26 0 0 30.216-86.354 48.633-108.356zM192.502 583.93s-8.084-50.485-56.007-64.558c0 0-13.628 29.34-16.42 36.568 0 0 39.406-6.224 72.427 27.99z"/><path fill="#FEEAA2" d="M34.282 596.507s-4.136-58.262 61.25-78.695c0 0 21.513 30.998 24.544 38.13 0-.002-53.95 5.252-85.794 40.565z"/><path fill="#F6F6FB" d="M136.247 519.444s-18.432-7.084-40.636-1.516l24.466 38.012 16.584-36.518"/><path fill="#AAB2BD" d="M113.472 557.876c1.07 3.648 4.89 5.738 8.533 4.67 3.65-1.068 5.738-4.89 4.67-8.54-1.068-3.642-4.89-5.73-8.538-4.66-3.643 1.067-5.732 4.887-4.665 8.53z"/></g><g fill="#fff"><path opacity=".69" d="M73.866 548.897c1.854 4.348 12.84 3.832 24.542-1.152 11.704-4.984 19.69-12.55 17.838-16.896-1.852-4.347-12.84-3.833-24.54 1.15-11.706 4.988-19.69 12.55-17.84 16.897z"/><path opacity=".64" d="M64.023 557.74c.927 2.17 3.825 3.02 6.478 1.892 2.65-1.13 4.05-3.807 3.124-5.982-.927-2.172-3.827-3.02-6.478-1.89-2.65 1.128-4.048 3.807-3.123 5.98z"/></g><path fill="#AAB2BD" d="M876.913 689.693c-.17 1.47.877 2.79 2.348 2.96l75.52 8.706c1.464.167 2.792-.882 2.96-2.35l4.836-41.962c.17-1.463-.883-2.79-2.346-2.957l-75.52-8.706c-1.47-.168-2.79.885-2.96 2.346l-4.837 41.963z"/><path opacity=".31" fill="#666E78" d="M881.75 647.73l-4.837 41.963c-.17 1.47.877 2.79 2.348 2.96l75.52 8.706"/><path fill="#666E78" d="M933.005 650.95l1.297-11.257c.17-1.47-.88-2.79-2.342-2.96l-15.566-1.793c-1.47-.17-2.79.877-2.96 2.346l-1.298 11.26"/><g stroke-miterlimit="10"><path fill="#FEEAA2" stroke="#FEEAA2" stroke-width=".53" d="M915.888 642.98c-.17 1.464.88 2.783 2.346 2.953l9.223 1.064c1.465.168 2.79-.88 2.957-2.344l.285-2.475c.17-1.466-.88-2.79-2.347-2.958l-9.223-1.064c-1.47-.168-2.79.88-2.96 2.35l-.282 2.473z"/><path stroke="#fff" stroke-width=".618" fill="none" d="M928.73 639.47l-.895 7.78M926.767 639.038l-.897 7.774M924.784 638.81l-.896 7.776M922.806 638.58l-.9 7.777M920.79 638.556l-.898 7.778M918.806 638.327l-.897 7.778"/></g><path fill="#666E78" d="M955.21 653.512l.283-2.46c.168-1.464-.883-2.79-2.35-2.96l-4.314-.497c-1.464-.17-2.786.885-2.954 2.347l-.285 2.463"/><path fill="#666E78" d="M901.218 671.72c-1.172 10.196 6.143 19.415 16.34 20.59 10.2 1.175 19.42-6.138 20.598-16.333 1.174-10.2-6.14-19.424-16.34-20.6-10.2-1.174-19.42 6.14-20.598 16.342z"/><path fill="#434A54" d="M905.017 672.156c-.934 8.098 4.873 15.428 12.98 16.36 8.106.937 15.433-4.88 16.366-12.976.934-8.104-4.877-15.438-12.984-16.37-8.106-.936-15.43 4.885-16.363 12.986z"/><path stroke="#666E78" stroke-width="1.683" stroke-miterlimit="10" fill="none" d="M961.337 667.8l-28.363-3.27"/><path stroke="#666E78" stroke-width="1.681" stroke-miterlimit="10" fill="none" d="M908.825 661.746l-28.314-3.266"/><path fill="#E6E9ED" d="M886.636 652.09c-.086.76 1.49 1.572 3.527 1.807 2.033.236 3.752-.197 3.84-.957.09-.762-1.486-1.574-3.52-1.81-2.04-.234-3.76.2-3.847.96"/><path fill="#FEEAA2" d="M953.827 660.09c-.105.904.55 1.727 1.453 1.832.9.105 1.715-.553 1.818-1.453.105-.905-.54-1.72-1.44-1.825-.905-.106-1.727.543-1.83 1.445"/><path fill="#88CA90" d="M949.427 659.584c-.105.902.54 1.725 1.45 1.83.9.104 1.718-.55 1.823-1.45.104-.907-.547-1.724-1.447-1.827-.91-.106-1.72.543-1.826 1.447"/><path stroke="#666E78" stroke-width="1.061" stroke-linecap="round" stroke-miterlimit="10" fill="none" d="M953.983 666.953l-3.127 27.127M946.64 666.105l-3.13 27.13M939.315 665.04l-3.127 27.124M902.58 660.805l-3.128 27.125M895.23 659.957l-3.126 27.125M887.884 659.11l-3.125 27.124"/><path stroke="#666E78" stroke-width="1.592" stroke-miterlimit="10" fill="none" d="M958.235 694.705l-80.824-9.316"/><path opacity=".61" fill="#30373F" d="M913.507 673.28c-.434 3.76 2.264 7.165 6.03 7.6 3.765.435 7.17-2.267 7.603-6.028.434-3.764-2.266-7.172-6.03-7.605-3.767-.436-7.17 2.27-7.603 6.032z"/><path opacity=".54" fill="#fff" d="M911.36 665.385c.36 1.398 3.178 1.898 6.297 1.096 3.115-.798 5.346-2.593 4.984-3.99-.358-1.403-3.177-1.9-6.29-1.1-3.117.8-5.35 2.592-4.99 3.995"/><path opacity=".6" fill="#fff" d="M924.87 681.365c.125 1.037 1.355 1.752 2.74 1.582 1.38-.164 2.39-1.148 2.266-2.186-.127-1.04-1.344-1.745-2.72-1.58-1.385.168-2.41 1.148-2.286 2.185"/><path opacity=".69" fill="#fff" stroke="#fff" stroke-width=".53" stroke-miterlimit="10" d="M919.13 638.157c-1.47-.168-2.79.88-2.96 2.35l-.282 2.473c-.17 1.465.88 2.784 2.346 2.954l9.223 1.064"/><path opacity=".72" fill="#fff" d="M894.003 652.94c.09-.763-1.486-1.575-3.52-1.81-2.038-.234-3.76.2-3.847.96"/><path opacity=".46" fill="#fff" d="M957.1 660.47c.104-.905-.542-1.72-1.442-1.825-.904-.105-1.727.543-1.83 1.445M952.7 659.963c.104-.906-.547-1.723-1.447-1.826-.91-.105-1.72.543-1.826 1.447"/><path fill="#9A91C6" d="M917.51 563.042c1.874 2.322 1.515 5.723-.804 7.594l-19.87 16.05c-2.32 1.87-5.72 1.507-7.593-.816l-23.996-29.713c-1.877-2.323-1.518-5.724.8-7.597l19.872-16.045c2.317-1.872 5.718-1.51 7.593.812l23.996 29.715z"/><path fill="#FEEAA2" d="M869.177 546.034l-6.46-7.996c-1-1.24-.907-2.977.21-3.88l9.57-7.728c1.12-.902 2.834-.627 3.834.61l6.46 8-13.613 10.994z"/><path fill="#fff" d="M868.836 560.613l28.268-22.828 14.765 18.282-28.27 22.828z"/><circle fill="#FEEAA2" cx="890.482" cy="558.415" r="4.957"/><path stroke="#FEEAA2" stroke-width="1.817" stroke-linecap="round" stroke-miterlimit="10" fill="none" d="M891.317 547.812l-.382 3.728M889.542 565.118l-.38 3.73M898.26 551.922l-2.906 2.362M883.97 550.35l2.363 2.905M900.75 559.476l-3.73-.383M883.624 557.542l-3.725-.383M894.452 563.343l2.365 2.904M884.96 561.99l-2.904 2.363"/><path opacity=".26" fill="#fff" d="M862.95 534.188c-1.12.9-1.21 2.638-.21 3.876l6.458 7.998-3.13 2.528c-2.315 1.87-2.675 5.27-.8 7.595l23.996 29.71c1.875 2.325 5.275 2.69 7.592.815l19.87-16.047c2.32-1.87 2.68-5.27.804-7.596"/><defs><path id="g" d="M413.558 361.842H985.18V768H413.56z"/></defs><clipPath id="h"><use xlink:href="#g" overflow="visible"/></clipPath><g clip-path="url(#h)"><path fill="#E988B8" d="M486.587 499.89l341.777-10.29 1.677 55.68-341.776 10.293z"/><path fill="#F79D82" d="M488.268 555.57l341.776-10.293 1.677 55.68-341.775 10.292z"/><path fill="#E988B8" d="M489.94 611.252L831.72 600.96l1.677 55.684-341.777 10.293z"/><path fill="#F79D82" d="M491.68 666.89l341.78-10.328 1.683 55.682-341.78 10.326z"/><path fill="#E988B8" d="M493.296 722.617l341.776-10.292 1.677 55.68-341.777 10.292z"/><path fill="#F79D82" d="M495.047 778.25l341.776-10.326 1.683 55.683-341.776 10.326z"/><path fill="#E988B8" d="M496.724 833.936L838.5 823.61l1.68 55.682-341.774 10.327z"/><path fill="#F79D82" d="M828.458 490.79l-341.79 10.31-1.678-55.685 341.792-10.31z"/><path opacity=".13" fill="#306CA4" d="M826.765 434.506l13.398 444.256-341.788 10.312z"/></g><path opacity=".54" fill="#9B95C9" d="M337.27 474.612c0-5.807 11.412-10.514 25.488-10.514 2.646 0 5.2.166 7.6.475 2.096-8.83 11.436-15.487 22.642-15.487 12.75 0 23.084 8.616 23.084 19.245 0 5.815-3.098 11.025-7.988 14.554 2.572 3.49 4.055 7.564 4.055 11.922 0 12.89-12.937 23.34-28.894 23.34-15.958 0-28.896-10.45-28.896-23.34 0-3.557.99-6.926 2.752-9.943-11.358-1.06-19.843-5.247-19.843-10.25z"/><path fill="#9E8271" d="M407.36 493.335l14.113 10.817c1.232.942 1.47 2.71.523 3.942l-.686.895c-.943 1.23-2.713 1.464-3.94.522l-14.133-10.825"/><path fill="#9A91C6" d="M366.857 447.775c-5.763-3.374-10.755-2.4-16.76 5.233l-.005-.003c-.057.075-.107.147-.17.228l-.17.22.004.003c-5.807 7.783-5.447 12.857-.692 17.545 2.79 2.75 36.842 31.763 41.623 35.425 2.46 1.883 3.574 2.736 5.848.232 2.152-2.37 6.742-7.926 8.832-10.607v.002c.05-.063.11-.146.166-.22.06-.074.123-.157.174-.225v-.003c2.043-2.714 6.21-8.592 7.94-11.283 1.825-2.85.71-3.704-1.747-5.587-2.457-1.88-39.166-27.525-45.043-30.958z"/><path fill="#8C85B6" d="M405.197 484.243c1.236.945 1.6 2.535.818 3.56l-.64.83c-.78 1.02-2.413 1.085-3.647.14l-43.22-33.11c-1.23-.942-1.596-2.536-.812-3.556l.635-.832c.784-1.02 2.417-1.08 3.647-.136l43.22 33.103zM397.87 493.808c1.234.947 1.597 2.54.817 3.56l-.64.83c-.782 1.024-2.413 1.085-3.645.138l-43.22-33.105c-1.232-.94-1.6-2.534-.816-3.556l.637-.832c.78-1.018 2.418-1.08 3.646-.14l43.22 33.106z"/><path opacity=".25" fill="#CCC6E3" d="M413.26 479.817c-9.68-6.69-43.627-30.42-46.403-32.042-5.763-3.374-10.755-2.4-16.76 5.233l-.005-.003c-.057.075-.107.147-.17.228l-.17.22s-9.296 10.253-.688 17.548"/><linearGradient id="i" gradientUnits="userSpaceOnUse" x1="3101.914" y1="1921.131" x2="3099.165" y2="1940.691" gradientTransform="matrix(-.196 .981 .981 .196 -873.91 -2916.879)"><stop offset="0" stop-color="#836C5E"/><stop offset=".093" stop-color="#8B7669" stop-opacity=".878"/><stop offset=".255" stop-color="#A19085" stop-opacity=".665"/><stop offset=".465" stop-color="#C5BAB3" stop-opacity=".389"/><stop offset=".715" stop-color="#F5F4F2" stop-opacity=".061"/><stop offset=".761" stop-color="#fff" stop-opacity="0"/></linearGradient><path fill="url(#i)" d="M407.36 493.335l14.113 10.817c1.232.942 1.47 2.71.523 3.942l-.686.895c-.943 1.23-2.713 1.464-3.94.522l-14.133-10.825"/><path fill="#F79D82" d="M803.442 522.36c4.033 1.67 8.656-.242 10.326-4.27 1.67-4.03-.252-8.65-4.283-10.318M721.896 471.495c-4.025-1.666-8.648.242-10.318 4.27-1.668 4.032.252 8.653 4.275 10.32"/><path stroke="#505B79" stroke-width="4.121" stroke-linecap="round" stroke-miterlimit="10" d="M768.802 416.144c-12.752-1.2-25.348 5.934-30.508 18.396l-12.012 29M812.175 499.112l12.01-29c5.158-12.46 1.3-26.4-8.566-34.568" fill="none"/><path fill="#CDD1DA" d="M767.685 418.85c-.424 1.02.06 2.19 1.084 2.61l43.116 17.86c1.023.427 2.19-.056 2.613-1.077l2.188-5.287c.422-1.02-.06-2.188-1.088-2.61l-43.115-17.866c-1.02-.424-2.19.06-2.613 1.08l-2.187 5.29zM778.476 528.827c-.422 1.016.07 2.193 1.082 2.613l9.648 3.996c1.016.422 2.19-.067 2.61-1.086l18.26-44.086c.42-1.02-.065-2.188-1.083-2.61l-9.646-3.995c-1.016-.42-2.19.06-2.613 1.08l-18.258 44.087zM716.114 503c-.42 1.017.06 2.19 1.082 2.614l9.64 3.99c1.02.424 2.196-.062 2.616-1.08l18.256-44.088c.424-1.02-.066-2.19-1.084-2.61l-9.64-3.993c-1.02-.424-2.188.062-2.612 1.08L716.114 503z"/><path stroke="#505B79" stroke-width="4.121" stroke-linecap="round" stroke-miterlimit="10" fill="none" d="M811.153 433.688l-36.877-15.275"/><g stroke="#505B79" stroke-width="1.374" stroke-miterlimit="10" fill="none"><path d="M792.144 533.427l-13.33-5.52M793.11 531.228l-13.34-5.528M794.03 529.003l-13.342-5.525M794.952 526.78l-13.342-5.525M795.874 524.558l-13.344-5.526M796.792 522.34l-13.342-5.528M797.714 520.114l-13.342-5.527M798.634 517.892l-13.342-5.528M799.556 515.667l-13.342-5.525M800.476 513.448l-13.342-5.525M801.394 511.228l-13.34-5.528M802.313 509.003l-13.34-5.524M803.235 506.778l-13.34-5.523M804.155 504.558l-13.34-5.526M805.075 502.338l-13.342-5.528M805.997 500.116l-13.344-5.525M806.93 497.9l-13.327-5.522M807.85 495.68l-13.33-5.52M808.767 493.456l-13.327-5.52M809.69 491.233l-13.33-5.52"/></g><g stroke="#505B79" stroke-width="1.374" stroke-miterlimit="10" fill="none"><path d="M729.968 507.677l-13.338-5.52M730.6 505.34l-13.33-5.523M731.52 503.114l-13.333-5.52M732.44 500.892l-13.332-5.52M733.362 498.67l-13.334-5.52M734.282 496.45l-13.332-5.52M735.202 494.228l-13.332-5.523M736.124 492l-13.334-5.52M737.044 489.778l-13.332-5.52M737.962 487.56l-13.33-5.523M738.884 485.34l-13.334-5.525M739.804 483.114l-13.332-5.52M740.724 480.892l-13.332-5.522M741.646 478.667l-13.333-5.52M742.565 476.446l-13.332-5.52M743.485 474.228l-13.332-5.522M744.417 472.01l-13.334-5.522M745.337 469.792L732 464.272M746.257 467.567l-13.334-5.523M747.18 465.347l-13.335-5.526"/></g><path fill="#CDD1DA" d="M795.27 526.013c-.423 1.02.06 2.186 1.08 2.605l2.51 1.04c1.024.425 2.187-.055 2.61-1.077l11.484-27.728c.422-1.018-.06-2.19-1.082-2.613l-2.512-1.042c-1.016-.42-2.184.07-2.607 1.086l-11.484 27.73zM713.364 492.095c-.424 1.02.064 2.184 1.084 2.605l2.506 1.04c1.027.423 2.19-.058 2.615-1.08l11.48-27.728c.425-1.018-.058-2.19-1.083-2.612l-2.506-1.04c-1.02-.422-2.19.066-2.612 1.084l-11.484 27.73z"/><path opacity=".62" fill="#fff" d="M772.386 412.458c-1.016-.42-2.178.066-2.6 1.086l-2.19 5.287c-.42 1.022.058 2.19 1.07 2.61l43.58 18.12"/><path opacity=".35" fill="#fff" d="M747.77 464.26c.425-1.02-.515-2.126-1.534-2.548l-9.527-3.97c-1.022-.425-1.878.03-2.302 1.047l-3.203 7.385c-.13-.627-.582-1.746-1.22-2.012l-2.51-1.04c-1.02-.418-2.188.068-2.612 1.085l-2.99 7.22c-4.182-1.567-8.646.386-10.236 4.228-1.594 3.846-.096 8.403 4.217 10.43l-2.473 5.852M796.728 485.04c.45-1.006 1.23-1.943 2.234-1.494l10.508 4.355c1.01.45 1.055 1.358.605 2.364l-3.146 7.635c.544-.34 1.218-1.124 1.85-.84l3.497 1.386c1.01.45 1.123 1.398.678 2.406l-2.998 7.153c4.014 1.954 5.506 6.284 3.812 10.083-1.696 3.8-5.4 6.215-9.837 4.483l-2.34 5.71"/><path fill="#FEEAA2" d="M584.25 643.348c-.495.098-.175-1.156-.052-1.812.13-.656.043-1.113-.053-1.488-.1-.383-.408-.798-.79-1.136-.386-.348-.093-.994.052-1.285.145-.297.902-1.836 1.182-2.31 0 0 .185-.565.72-.43.236.066.516.218 1.543.56 1.02.338 6.238 2.938 7.22 3.458.98.518 5.485 2.988 6.417 3.537.934.55 1.686 1.053 3.87 2.454 2.185 1.4 5.52 4.27 7.16 5.902 1.634 1.634 3.058 3.872 3.33 4.41.267.54.034.78-.243 1.058-.28.27-1.266 1.707-2.03 2.455-.76.75-1.683.59-1.858.485-.002 0-7.602-19.58-26.47-15.857z"/><path fill="#30373F" d="M587.013 651.355c-.068 1.568-1.998 2.764-4.314 2.668l-3.737-.154c-2.318-.097-4.14-1.444-4.078-3.015.066-1.568 1.998-2.757 4.314-2.662l3.735.15c2.314.095 4.142 1.448 4.078 3.012z"/><path fill="#434A54" d="M624.573 661.572s-1.455-1.303-5.023-3.402c-3.57-2.1-6.275-3.242-6.275-3.242l-1.232 2.098s3.232 1.277 6.352 3.11c3.11 1.83 5.275 3.728 5.275 3.728l.903-2.292z"/><path opacity=".29" fill="#fff" d="M624.68 661.393s-1.562-1.123-5.13-3.223c-3.57-2.1-6.17-3.42-6.17-3.42l-.57.97s3.354 1.216 6.473 3.05c3.113 1.83 5.156 3.787 5.156 3.787l.24-1.164z"/><path fill="#FEEAA2" d="M622.655 666.225c-.203.02-.768-.83-.484-1.86.29-1.03 1.06-2.595 1.165-2.966.107-.378.203-.698.803-.73.6-.025 3.252.133 5.48.77 2.222.637 6.35 2.156 8.636 3.387 2.285 1.227 3.094 1.64 4.025 2.19.935.548 5.282 3.282 6.206 3.884.934.608 5.742 3.903 6.537 4.634.793.73 1.062.896 1.234 1.07.383.406-.025.84-.025.84-.28.475-1.254 1.89-1.44 2.158-.19.268-.614.834-1.1.672-.48-.17-.993-.238-1.376-.14-.38.097-.814.245-1.332.675-.512.427-1.102.784-1.604.837-.5.055-1.064.074-2.04-.5 0 0 1.524-17.446-24.685-14.922z"/><path fill="#434A54" d="M651.253 676.31c-.186.315.27.93 1.014 1.366.744.436 1.492.53 1.68.213.186-.317-.264-.927-1.008-1.364-.744-.436-1.5-.536-1.687-.217M588 639.112c-.185.32-.938.222-1.68-.217-.743-.438-1.194-1.047-1.01-1.365.19-.318.942-.22 1.685.22.742.435 1.195 1.046 1.006 1.362"/><path fill="#BCAF7A" stroke="#BCAF7A" stroke-width="1.036" stroke-miterlimit="10" d="M619.397 672.422c-.346 1.627-.898 2.896-1.23 2.824-.333-.07-.32-1.45.028-3.08.346-1.633.896-2.9 1.223-2.83.33.068.323 1.45-.02 3.086zM606.854 665.027c-1.236 1.08-2.066 2.19-1.863 2.477.208.287 1.382-.354 2.616-1.436 1.236-1.08 2.074-2.188 1.865-2.477-.203-.287-1.38.357-2.616 1.437z"/><path fill="#30373F" d="M640.808 686.96c.14.548.37 1.106.697 1.642l1.95 3.19c1.206 1.978 3.276 2.92 4.612 2.1 1.342-.82 1.44-3.09.23-5.065l-1.945-3.19c-.576-.946-1.355-1.655-2.145-2.044"/><path opacity=".66" fill="#A79C6D" d="M609.267 663.006c-1.098.182-2.098 1.053-2.986 1.773-1.577 1.28-2.368 3.1-1.517 3.175 1.002.09 1.176.066 2.354-.844l2.15-4.104z"/><path fill="#434A54" d="M620.114 671.348c-.77 2.113-1.025 4.652-.434 8.348.59 3.697 3.01 5.938 6.566 8.03 3.56 2.093 6.666 2.83 9.152 2.575 2.482-.25 4.803-1.612 6.63-3.063 1.827-1.46 4.41-4.457 5.31-6.09l.254-.432c.434-.803 1.287-2.572 1.15-3.94-.182-1.827-.857-3.655-4.006-5.8-3.152-2.145-7.797-4.762-10.47-5.777-2.673-1.018-5.53-1.762-6.69-1.594-1.15.168-2.786.72-3.507 1.352-.716.63-.9.49-1.073.39-1.066 1.443-2.107 3.884-2.883 6.002m20.65 4.644l1.276.16-1.117 8.877-1.283-.16 1.123-8.878zm-2.69-5.115l1.276.162-1.88 14.89-1.282-.166 1.885-14.887z"/><path opacity=".29" fill="#fff" d="M647.372 681.168l.248-.436c.44-.8 1.293-2.57 1.156-3.938-.18-1.826-.86-3.658-4.008-5.803-3.148-2.138-7.797-4.76-10.47-5.774-2.673-1.018-5.532-1.764-6.68-1.594-1.157.17-2.79.727-3.513 1.354-.72.625-.902.488-1.074.39-1.417 1.91-1.487 2.19-2.89 5.997"/><path opacity=".66" fill="#A79C6D" d="M620.083 669.365c.275.99-.05 2.258-.295 3.355-.438 1.955-1.17 3.516-1.742 3.037-.654-.55-.766-1.066-.48-2.502l2.517-3.89z"/><path fill="#434A54" d="M585.677 644.887c-.99 1.578-2.36 5.292-2.734 7.602-.385 2.302-.45 4.99.54 7.282.987 2.295 3.14 4.652 6.698 6.744 3.563 2.096 6.694 3.12 10.212 1.838 3.518-1.28 5.617-2.732 7.09-4.436 2.645-3.076 2.855-3.273 3.838-5.44-.174-.103-.38-.194-.182-1.128.195-.938-.113-2.637-.525-3.73-.41-1.085-2.453-3.22-4.64-5.06-2.187-1.842-6.737-4.632-10.138-6.343-3.404-1.71-5.336-1.412-7.02-.684-1.262.547-2.395 2.152-2.88 2.926l-.258.427zm7.95 1.674l1.28.16-1.877 14.892-1.283-.16 1.88-14.89z"/><path opacity=".29" fill="#fff" d="M607.48 663.918c2.644-3.076 2.854-3.273 3.835-5.443-.172-.1-.377-.19-.18-1.125.195-.938-.113-2.637-.527-3.73-.408-1.085-2.453-3.22-4.64-5.06s-6.735-4.632-10.136-6.343c-3.404-1.71-5.336-1.412-7.02-.684-1.264.547-2.395 2.152-2.88 2.926l-.26.427"/><path fill="#F04F23" d="M244.262 527.17l-25.903-72.028 77.505-27.873 25.903 72.03z"/><path fill="#F8F9FA" stroke="#fff" stroke-width=".548" stroke-miterlimit="10" d="M257.884 497.934l-18.15-50.472 33.84-12.17 18.15 50.472z"/><path stroke="#F8CEBD" stroke-width=".397" stroke-miterlimit="10" fill="none" d="M257.873 497.922l33.84-12.17"/><path fill="#F8A069" d="M249.714 542.29l-5.435-15.114 77.487-27.867 5.435 15.113z"/><path opacity=".17" fill="#C6401B" d="M327.19 514.41l-77.653 27.925-31.185-87.2"/><path fill="#E6B041" d="M563.574 478.938l32.992-22.08c3.188-2.135 4.046-6.453 1.91-9.643l-13.224-19.76-58.465 41.064 12.33 18.424c2.135 3.188 6.45 4.044 9.642 1.908l2.244-1.503 12.57-8.412z"/><path fill="#E5E8EC" d="M560.358 474.705l33.42-22.365-7.61-11.37-53.747 35.97 7.61 11.372 7.66-5.128"/><path fill="#FFCF58" d="M527.5 469.59l-35.592-53.184c-2.135-3.19-1.277-7.506 1.914-9.643l47.806-31.994c3.188-2.136 7.506-1.282 9.64 1.908l37.187 55.56c2.137 3.193 1.28 7.51-1.91 9.645L540.054 473c-7.093 4.746-3.397 10.268-.937 13.944"/><path stroke="#E6B041" stroke-width="1.267" stroke-miterlimit="10" fill="none" d="M495.4 405.708l41.783 62.433"/><g stroke="#676E78" stroke-width="1.056" stroke-linecap="round" stroke-miterlimit="10" fill="none"><path d="M540.95 478.396l4.413-2.955M541.718 482.725l27.54-18.433M574.07 461.072l16.712-11.185M548.57 473.295l39.974-26.753"/></g><path opacity=".16" fill="#fff" d="M493.822 406.764c-3.19 2.137-4.05 6.453-1.914 9.643L527.5 469.59l11.616 17.355c-.158-.235-.32-.48-.484-.728l.486.728c2.135 3.188 6.45 4.044 9.642 1.908l2.245-1.503 12.57-8.412 32.99-22.08"/><path fill="#EA573E" d="M545.994 479.862l7.514 11.228 3.38-8.838 9.19.427-7.515-11.23z"/></svg>