<svg xmlns="http://www.w3.org/2000/svg" width="398" height="184" viewBox="0 0 398 184"><path fill="#D0E7F9" d="M15.122 14.286h146.055v155.427H15.122z"/><path stroke="#4F5877" stroke-width=".999" stroke-miterlimit="10" d="M176.087 53.875l.21-6.93c-3.026 0-5.565-1.962-6.493-4.678v-4.453c.928-2.71 3.467-4.673 6.494-4.673l-.072-5.896c-2.936 0-5.428-1.845-6.422-4.436V17.88c.994-2.59 3.486-4.44 6.422-4.44l.07-6.02h-6.492v-7l-7.168.07c0 3.81-2.986 6.902-6.667 6.902-3.68 0-6.66-3.09-6.66-6.903l-5.696-.07c0 3.813-2.98 6.903-6.662 6.903s-6.665-3.09-6.665-6.904l-6.69-.282c0 3.812-2.986 6.904-6.666 6.904s-6.666-3.092-6.666-6.904l-5.687.142c0 3.81-2.98 6.9-6.662 6.9-3.685 0-6.665-3.09-6.665-6.9l-7.56.067c0 3.815-2.984 6.906-6.666 6.906s-6.666-3.09-6.666-6.906L64.672.21c0 3.815-2.984 6.902-6.666 6.902-3.68 0-6.666-3.087-6.666-6.902L44.652 0c0 3.813-2.984 6.9-6.668 6.9-3.676 0-6.66-3.087-6.66-6.9L25.63.07c0 3.813-2.98 6.905-6.662 6.905-3.68 0-6.666-3.092-6.666-6.904L6.49 0v7.42H0l.07 6.02c2.935 0 5.426 1.85 6.42 4.436v4.933c-.994 2.59-3.485 4.434-6.42 4.434L0 33.14c3.025 0 5.563 1.963 6.492 4.672v4.457C5.562 44.98 3.024 46.944 0 46.944l.21 6.93c2.805 0 5.205 1.68 6.282 4.087v5.63C5.415 65.996 3.015 67.68.21 67.68l.136 5.89c2.7 0 5.015 1.567 6.146 3.832v6.143C5.362 85.81 3.047 87.38.346 87.38l-.068 7.83c2.752 0 5.108 1.627 6.213 3.963v5.883c-1.104 2.334-3.46 3.96-6.212 3.96l-.14 5.892c2.856 0 5.308 1.744 6.353 4.23v5.354c-1.044 2.48-3.496 4.227-6.353 4.227l.28 6.927c2.648 0 4.918 1.51 6.074 3.703v6.402c-1.155 2.19-3.425 3.7-6.072 3.7l.07 5.895c2.594 0 4.828 1.453 6.003 3.572v6.653c-1.174 2.125-3.408 3.578-6.003 3.578l-.067 7.427h6.07v7.42l5.813-.07c0-3.812 2.986-6.904 6.666-6.904s6.66 3.092 6.66 6.904l5.695.073c0-3.814 2.983-6.902 6.66-6.902 3.684 0 6.667 3.088 6.667 6.902l6.69-.21c0-3.815 2.986-6.903 6.665-6.903 3.682 0 6.666 3.088 6.666 6.902l5.687-.138c0-3.814 2.984-6.906 6.666-6.906s6.666 3.092 6.666 6.906l7.56.068c0-3.812 2.98-6.902 6.666-6.902 3.68 0 6.662 3.09 6.662 6.902l5.687.14c0-3.81 2.986-6.903 6.667-6.903 3.68 0 6.666 3.092 6.666 6.904l6.69-.28c0-3.814 2.983-6.906 6.665-6.906 3.683 0 6.662 3.092 6.662 6.906l5.695-.07c0-3.812 2.98-6.904 6.66-6.904 3.682 0 6.667 3.092 6.667 6.904l7.167.068v-7h6.073l-.068-7.426c-2.595 0-4.828-1.453-6.005-3.578v-6.652c1.177-2.12 3.41-3.574 6.005-3.574l.07-5.896c-2.646 0-4.92-1.51-6.075-3.7v-6.4c1.156-2.194 3.43-3.704 6.075-3.704l.28-6.928c-2.858 0-5.31-1.746-6.355-4.23v-5.348c1.045-2.488 3.497-4.232 6.356-4.232l-.142-5.893c-2.75 0-5.108-1.625-6.213-3.96v-5.88c1.105-2.338 3.462-3.965 6.214-3.965l-.067-7.83c-2.7 0-5.015-1.57-6.146-3.834v-6.14c1.132-2.264 3.446-3.832 6.146-3.832l.136-5.892c-2.807 0-5.208-1.684-6.284-4.092v-5.625c1.075-2.41 3.476-4.092 6.28-4.092z" fill="none"/><path stroke="#4F5877" stroke-width="1.997" stroke-miterlimit="10" fill="none" d="M15.122 14.286h146.055v155.427H15.122z"/><path fill="#F69C82" stroke="#4F5877" stroke-width=".999" stroke-miterlimit="10" d="M161.253 160.578H15.12V127.08l12.764-11.943L40.65 127.08v5.475l7.41-4.672h.15v-4.54h4.294v2.362H67.22v-2.363h4.29v4.54h.154l5.81 4.673v-8.174l13.774-13.59 13.776 13.59v-3.226l13.885-15.558 13.886 15.558v5.815l8.758-6.52h.18v-6.34h5.073v3.298h14.447z"/><g fill="#D0E7F9" stroke="#4F5877" stroke-width=".749" stroke-miterlimit="10"><path d="M20.448 135.115h5.02v5.027h-5.02zM20.448 145.95h5.02v5.028h-5.02z"/></g><g fill="#D0E7F9" stroke="#4F5877" stroke-width=".749" stroke-miterlimit="10"><path d="M30.268 135.115h5.02v5.027h-5.02zM30.268 145.95h5.02v5.028h-5.02z"/></g><g fill="#D0E7F9" stroke="#4F5877" stroke-width=".749" stroke-miterlimit="10"><path d="M44.91 135.115h5.02v5.027h-5.02zM44.91 145.95h5.02v5.028h-5.02z"/></g><g fill="#D0E7F9" stroke="#4F5877" stroke-width=".749" stroke-miterlimit="10"><path d="M56.012 135.115h5.02v5.027h-5.02zM56.012 145.95h5.02v5.028h-5.02z"/></g><g fill="#D0E7F9" stroke="#4F5877" stroke-width=".749" stroke-miterlimit="10"><path d="M67.6 135.115h5.02v5.027H67.6zM67.6 145.95h5.02v5.028H67.6z"/></g><g fill="#D0E7F9" stroke="#4F5877" stroke-width=".749" stroke-miterlimit="10"><path d="M88.743 135.115h5.02v5.027h-5.02zM88.743 145.95h5.02v5.028h-5.02z"/></g><path fill="#D0E7F9" stroke="#4F5877" stroke-width=".749" stroke-miterlimit="10" d="M116.405 129.004h5.02v5.03h-5.02z"/><g fill="#D0E7F9" stroke="#4F5877" stroke-width=".749" stroke-miterlimit="10"><path d="M116.405 135.94h5.02v5.028h-5.02zM116.405 143.293h5.02v5.03h-5.02z"/></g><path fill="#D0E7F9" stroke="#4F5877" stroke-width=".749" stroke-miterlimit="10" d="M152.018 133.426h5.02v5.03h-5.02z"/><g fill="#D0E7F9" stroke="#4F5877" stroke-width=".749" stroke-miterlimit="10"><path d="M144.998 133.426h5.02v5.03H145zM137.657 133.426h5.02v5.03h-5.02z"/></g><path fill="#D0E7F9" stroke="#4F5877" stroke-width=".749" stroke-miterlimit="10" d="M151.923 142.658h5.02v5.027h-5.02z"/><g fill="#D0E7F9" stroke="#4F5877" stroke-width=".749" stroke-miterlimit="10"><path d="M144.998 142.658h5.02v5.027H145zM137.657 142.658h5.02v5.027h-5.02z"/></g><path fill="#F9D1C5" stroke="#4F5877" stroke-width=".999" stroke-miterlimit="10" d="M147.363 130.484L133.52 149.48v-.115l-6.866-6.818h-.18v-6.63H121.4v3.448h-17.39v-3.45h-5.074v6.632h-.18L90 149.365v.115l-13.846-12.49-13.843 12.49v-7.17l-10.845-16.867L40.62 142.31v7.17l-12.765-12.49-12.763 12.49v20.45h146.115v-20.45z"/><path stroke="#4F5877" stroke-width=".749" stroke-miterlimit="10" fill="none" d="M19.91 156.492h5.02v5.027h-5.02zM30.73 156.492h5.02v5.027h-5.02z"/><g stroke="#4F5877" stroke-width=".749" stroke-miterlimit="10" fill="none"><path d="M48.955 146.72h5.02v5.028h-5.02zM48.955 157.56h5.02v5.026h-5.02z"/></g><g stroke="#4F5877" stroke-width=".749" stroke-miterlimit="10" fill="none"><path d="M68.75 149.625h5.02v5.03h-5.02zM68.75 160.46h5.02v5.028h-5.02z"/></g><g stroke="#4F5877" stroke-width=".749" stroke-miterlimit="10" fill="none"><path d="M78.57 149.625h5.02v5.03h-5.02zM78.57 160.46h5.02v5.028h-5.02z"/></g><g stroke="#4F5877" stroke-width=".749" stroke-miterlimit="10" fill="none"><path d="M98.795 149.625h5.02v5.03h-5.02zM98.795 160.46h5.02v5.028h-5.02z"/></g><g stroke="#4F5877" stroke-width=".749" stroke-miterlimit="10" fill="none"><path d="M109.898 149.625h5.02v5.03h-5.02zM109.898 160.46h5.02v5.028h-5.02z"/></g><g stroke="#4F5877" stroke-width=".749" stroke-miterlimit="10" fill="none"><path d="M121.483 149.625h5.02v5.03h-5.02zM121.483 160.46h5.02v5.028h-5.02z"/></g><path stroke="#4F5877" stroke-width=".749" stroke-miterlimit="10" fill="none" d="M144.753 147.205h5.02v5.03h-5.02z"/><g stroke="#4F5877" stroke-width=".749" stroke-miterlimit="10" fill="none"><path d="M144.753 154.143h5.02v5.027h-5.02zM144.753 161.492h5.02v5.03h-5.02z"/></g><ellipse fill="#FBE8A4" stroke="#4F5877" stroke-width=".999" stroke-miterlimit="10" cx="137.657" cy="40.229" rx="16.632" ry="16.657"/><path stroke="#4F5877" stroke-width=".559" stroke-miterlimit="10" fill="none" d="M44.383 57.305l12.19 26.456M75.865 81.017l5.556-28.98"/><path fill="#FEEAA2" stroke="#4F5877" stroke-width=".499" stroke-linecap="round" stroke-linejoin="round" stroke-miterlimit="10" d="M72.518 92.833l-9.247 1.315-6.698-10.387 19.293-2.743z"/><path fill="#E95424" d="M64.244 98.193l8.495-1.223 1.14 7.916-8.496 1.223z"/><path fill="#F7F7F8" stroke="#4F5877" stroke-width=".25" stroke-miterlimit="10" d="M66.62 97.86l3.698-.533.8 5.55-3.698.532z"/><path fill="#FAB585" stroke="#4F5877" stroke-width=".25" stroke-miterlimit="10" d="M74.104 106.546l-8.48 1.223-.24-1.673 8.48-1.222z"/><g stroke="#4F5877" stroke-width=".559" stroke-miterlimit="10" fill="none"><path d="M60.752 67.178l.087.61"/><path stroke-dasharray="1.248,0.832,1.248,0.832" d="M60.956 68.61l.525 3.708"/><path stroke-dasharray="1.248,0.832,1.248,0.832,1.248,0.832" d="M61.54 72.73l3.445 24.3"/><path d="M65.043 97.443l.087.61"/></g><g stroke="#4F5877" stroke-width=".559" stroke-miterlimit="10" fill="none"><path d="M67.723 66.187l.087.608"/><path stroke-dasharray="1.248,0.832,1.248,0.832" d="M67.926 67.62l.526 3.706"/><path stroke-dasharray="1.248,0.832,1.248,0.832,1.248,0.832" d="M68.51 71.738l3.446 24.3"/><path d="M72.014 96.45l.087.61"/></g><path fill="#B6ACF3" d="M81.837 43.55c1.583 11.17-6.173 21.507-17.324 23.095-11.15 1.584-21.475-6.183-23.058-17.353-1.583-11.17 6.172-21.508 17.323-23.095 11.15-1.585 21.475 6.183 23.06 17.352z"/><g stroke="#4F5877" stroke-width=".499" stroke-miterlimit="10" fill="none"><path d="M41.25 46.205l39.958-5.685M42.227 52.67l39.898-5.676"/><circle cx="73.266" cy="44.887" r="2.846"/><ellipse transform="matrix(.99 -.141 .141 .99 -5.391 11.559)" cx="79.011" cy="43.89" rx="2.846" ry="2.852"/><ellipse transform="matrix(.99 -.141 .141 .99 -5.756 9.944)" cx="67.497" cy="45.708" rx="2.846" ry="2.851"/><circle cx="61.708" cy="46.531" r="2.846"/><circle cx="49.987" cy="48.29" r="2.846"/><ellipse transform="matrix(.99 -.141 .141 .99 -6.099 8.312)" cx="55.732" cy="47.291" rx="2.846" ry="2.851"/><circle cx="44.22" cy="49.11" r="2.846"/></g><path stroke="#fff" stroke-width=".999" stroke-miterlimit="10" stroke-dasharray="0.5767,0.3845,0.5767,0.3845,0.5767,0.3845" fill="none" d="M41.49 43.273l38.673-5.502M43.17 54.908l38.673-5.5"/><path stroke="#4F5877" stroke-width=".999" stroke-miterlimit="10" fill="none" d="M43 38.146l34.116-4.853M46.11 59.25l34.116-4.852"/><path stroke="#4F5877" stroke-width=".999" stroke-miterlimit="10" d="M81.837 43.55c1.583 11.17-6.173 21.507-17.324 23.095-11.15 1.584-21.475-6.183-23.058-17.353-1.583-11.17 6.172-21.508 17.323-23.095 11.15-1.585 21.475 6.183 23.06 17.352z" fill="none"/><path stroke="#4F5877" stroke-width=".499" stroke-miterlimit="10" fill="none" d="M74.105 106.55l-.238-1.66h.008l-1.14-7.92-8.494 1.225 1.14 7.916h.007l.24 1.663z"/><path fill="#D0E7F9" d="M236.82 14.284h146.057v155.43H236.82z"/><path stroke="#4F5877" stroke-width=".999" stroke-miterlimit="10" d="M397.787 53.874l.213-6.93c-3.027 0-5.566-1.96-6.494-4.677v-4.453c.928-2.71 3.467-4.673 6.494-4.673l-.072-5.898c-2.938 0-5.428-1.845-6.422-4.435V17.88c.994-2.59 3.484-4.44 6.422-4.44l.068-6.02h-6.49v-7l-7.17.067c0 3.812-2.984 6.905-6.666 6.905-3.68 0-6.66-3.092-6.66-6.905L365.316.42c0 3.81-2.98 6.903-6.662 6.903S351.99 4.23 351.99.42L345.3.137c0 3.81-2.986 6.902-6.666 6.902-3.682 0-6.667-3.092-6.667-6.902l-5.688.14c0 3.81-2.982 6.903-6.664 6.903-3.684 0-6.666-3.09-6.666-6.9l-7.56.067c0 3.815-2.984 6.904-6.666 6.904S292.06 4.163 292.06.348L286.37.21c0 3.814-2.982 6.902-6.664 6.902-3.68 0-6.666-3.088-6.666-6.902L266.353 0c0 3.812-2.984 6.9-6.67 6.9-3.675 0-6.657-3.088-6.657-6.9l-5.695.07c0 3.812-2.978 6.905-6.66 6.905-3.68 0-6.665-3.093-6.665-6.905L228.193 0v7.42h-6.49l.068 6.02c2.94 0 5.43 1.846 6.423 4.436v4.932c-.994 2.59-3.484 4.434-6.422 4.434l-.07 5.9c3.026 0 5.563 1.96 6.493 4.67v4.455c-.93 2.715-3.467 4.677-6.492 4.677l.212 6.93c2.805 0 5.204 1.683 6.28 4.09v5.628c-1.076 2.406-3.476 4.088-6.28 4.088l.137 5.89c2.698 0 5.014 1.57 6.144 3.834v6.143c-1.13 2.264-3.445 3.83-6.145 3.83l-.07 7.834c2.753 0 5.11 1.628 6.214 3.964v5.88c-1.104 2.337-3.46 3.962-6.213 3.962l-.14 5.893c2.857 0 5.31 1.743 6.354 4.228v5.354c-1.044 2.48-3.496 4.23-6.354 4.23l.28 6.927c2.647 0 4.918 1.507 6.073 3.7v6.404c-1.155 2.19-3.426 3.7-6.072 3.7l.068 5.895c2.597 0 4.83 1.452 6.005 3.57v6.655c-1.175 2.123-3.408 3.578-6.005 3.578l-.065 7.426h6.07v7.417l5.812-.068c0-3.813 2.985-6.907 6.665-6.907 3.682 0 6.66 3.094 6.66 6.906l5.696.07c0-3.813 2.982-6.9 6.658-6.9 3.685 0 6.67 3.087 6.67 6.9l6.687-.21c0-3.816 2.987-6.904 6.667-6.904 3.682 0 6.665 3.088 6.665 6.904l5.688-.14c0-3.813 2.983-6.903 6.665-6.903s6.666 3.09 6.666 6.904l7.56.07c0-3.812 2.983-6.903 6.667-6.903 3.682 0 6.663 3.092 6.663 6.902l5.688.14c0-3.81 2.985-6.902 6.667-6.902 3.68 0 6.666 3.092 6.666 6.902l6.69-.28c0-3.813 2.982-6.905 6.664-6.905s6.662 3.092 6.662 6.904l5.694-.07c0-3.81 2.98-6.903 6.66-6.903 3.682 0 6.667 3.092 6.667 6.904l7.17.07v-7h6.07l-.067-7.427c-2.596 0-4.827-1.455-6.004-3.58v-6.652c1.177-2.118 3.408-3.57 6.004-3.57l.07-5.897c-2.646 0-4.92-1.51-6.074-3.7v-6.403c1.155-2.19 3.428-3.7 6.074-3.7l.28-6.93c-2.858 0-5.31-1.747-6.354-4.23v-5.35c1.044-2.485 3.496-4.23 6.355-4.23l-.142-5.892c-2.752 0-5.108-1.625-6.213-3.96v-5.88c1.104-2.338 3.46-3.965 6.213-3.965l-.068-7.833c-2.7 0-5.015-1.57-6.145-3.833v-6.14c1.13-2.264 3.445-3.833 6.145-3.833l.137-5.89c-2.805 0-5.206-1.683-6.28-4.09v-5.626c1.074-2.41 3.475-4.094 6.28-4.094z" fill="none"/><path stroke="#4F5877" stroke-width="1.997" stroke-miterlimit="10" fill="none" d="M236.82 14.284h146.057v155.43H236.82z"/><path fill="#fff" stroke="#4F5877" stroke-width=".999" stroke-miterlimit="10" d="M255.45 34.156c.72 0 1.404.127 2.075.31 1.552-4.81 6.05-8.285 11.366-8.285 6.595 0 11.944 5.355 11.944 11.964 0 6.227-4.737 11.332-10.803 11.91v.057h-14.58c-4.404 0-7.972-3.57-7.972-7.977 0-4.41 3.57-7.977 7.973-7.977z"/><path fill="#BEF0CD" stroke="#4F5877" stroke-width=".999" stroke-miterlimit="10" d="M237.82 160.338h144.07v8.244H237.82z"/><ellipse fill="#82E499" stroke="#4F5877" stroke-width=".749" stroke-miterlimit="10" cx="333.958" cy="164.791" rx="32.93" ry="2.643"/><g stroke="#4F5877" stroke-width=".999" stroke-miterlimit="10"><path fill="#C7C9CA" d="M351.456 48.312l-58.317.197c-6.54 1.103-11.546 7.147-11.546 14.46v30.535h83.55V62.972c0-8.097-6.128-14.66-13.69-14.66z"/><path fill="#FACBC1" stroke-linecap="round" stroke-linejoin="round" d="M345.5 41.658v-9.576h-17.782v43.853h.025c.247 3.898 3.475 6.99 7.434 6.99 4.118 0 7.456-3.345 7.456-7.47s-3.338-7.47-7.456-7.47c-.13 0-.256.013-.382.02V41.66H345.5z"/><path fill="#B4B7B9" d="M280.835 93.506V62.972c0-8.097 7.104-14.66 15.87-14.66 8.764 0 15.87 6.562 15.87 14.66v30.534h-31.74z"/><path fill="#E0E1E2" stroke-linejoin="round" d="M260.474 93.506v-4.94c0-1.31 11.663-2.374 26.058-2.374 14.386 0 26.054 1.063 26.054 2.374v4.94h-52.112z"/><path fill="#9E9FA1" d="M331.877 93.506h4.157v72.725h-4.157z"/></g><path fill="#fff" stroke="#4F5877" stroke-width=".999" stroke-miterlimit="10" d="M120.5 85.325c.37 0 .722.064 1.067.158.797-2.472 3.11-4.257 5.84-4.257 3.39 0 6.14 2.75 6.14 6.148 0 3.2-2.436 5.823-5.553 6.118v.03H120.5c-2.262 0-4.095-1.836-4.095-4.1s1.833-4.097 4.096-4.097zM133.385 86.018c-.617-2.74-3.054-4.792-5.978-4.792-1.1 0-2.12.3-3.01.805-.348-.804-.548-1.688-.548-2.622 0-3.654 2.953-6.612 6.598-6.612.6 0 1.168.104 1.72.254 1.286-3.984 5.017-6.866 9.422-6.866 5.465 0 9.9 4.44 9.9 9.917 0 5.16-3.93 9.393-8.953 9.873v.045h-9.152z"/></svg>