<svg xmlns="http://www.w3.org/2000/svg" width="398" height="184" viewBox="0 0 398 184"><path fill="#82E499" d="M236.328 13.2h146.504v154.507H236.328z"/><path stroke="#4F5877" stroke-width=".997" stroke-miterlimit="10" d="M397.787 52.554l.213-6.887c-3.036 0-5.583-1.952-6.514-4.65V36.59c.93-2.694 3.478-4.646 6.514-4.646l-.072-5.862c-2.946 0-5.444-1.833-6.44-4.41v-4.9c.996-2.576 3.494-4.414 6.44-4.414l.068-5.984h-6.51V-.583l-7.19.07c0 3.79-2.995 6.86-6.688 6.86-3.69 0-6.68-3.072-6.68-6.86l-5.713-.07c0 3.79-2.99 6.862-6.683 6.862-3.692 0-6.686-3.073-6.686-6.864l-6.71-.28c0 3.79-2.994 6.863-6.686 6.863-3.692 0-6.688-3.074-6.688-6.864l-5.705.14c0 3.788-2.99 6.862-6.684 6.862-3.695 0-6.686-3.074-6.686-6.862l-7.584.068c0 3.792-2.993 6.866-6.686 6.866s-6.686-3.074-6.686-6.866l-5.704-.135c0 3.79-2.993 6.86-6.686 6.86-3.69 0-6.687-3.07-6.687-6.86L265.95-1c0 3.79-2.994 6.86-6.69 6.86-3.688 0-6.68-3.07-6.68-6.86l-5.71.07c0 3.79-2.99 6.865-6.684 6.865-3.69 0-6.686-3.074-6.686-6.864L227.67-1v7.375h-6.51l.068 5.984c2.946 0 5.444 1.837 6.44 4.41v4.904c-.996 2.576-3.494 4.41-6.44 4.41l-.07 5.86c3.034 0 5.58 1.953 6.512 4.645v4.43c-.933 2.696-3.478 4.648-6.512 4.648l.21 6.887c2.814 0 5.22 1.673 6.302 4.065v5.596c-1.08 2.39-3.487 4.065-6.3 4.065l.137 5.858c2.707 0 5.03 1.557 6.163 3.808v6.106c-1.134 2.25-3.456 3.81-6.163 3.81l-.07 7.784c2.762 0 5.125 1.617 6.233 3.94v5.846c-1.108 2.32-3.472 3.938-6.232 3.938l-.14 5.856c2.865 0 5.324 1.734 6.372 4.203v5.323c-1.048 2.466-3.507 4.2-6.373 4.2l.282 6.888c2.653 0 4.93 1.504 6.09 3.682v6.365c-1.16 2.18-3.437 3.677-6.09 3.677l.067 5.862c2.604 0 4.844 1.443 6.022 3.55v6.617c-1.18 2.11-3.42 3.558-6.023 3.558l-.066 7.38h6.09v7.378l5.83-.07c0-3.79 2.995-6.864 6.686-6.864 3.693 0 6.683 3.073 6.683 6.863l5.71.072c0-3.793 2.992-6.862 6.68-6.862 3.696 0 6.69 3.07 6.69 6.86l6.708-.21c0-3.79 2.995-6.86 6.687-6.86s6.686 3.07 6.686 6.86l5.706-.135c0-3.792 2.992-6.865 6.686-6.865 3.692 0 6.686 3.073 6.686 6.865l7.584.068c0-3.79 2.99-6.86 6.686-6.86 3.692 0 6.684 3.07 6.684 6.86l5.705.14c0-3.79 2.995-6.863 6.688-6.863 3.69 0 6.687 3.074 6.687 6.864l6.71-.28c0-3.79 2.992-6.864 6.685-6.864 3.693 0 6.683 3.074 6.683 6.865l5.712-.068c0-3.79 2.99-6.863 6.68-6.863 3.693 0 6.69 3.072 6.69 6.862l7.19.067v-6.96h6.09l-.067-7.38c-2.604 0-4.843-1.446-6.023-3.557v-6.614c1.18-2.11 3.42-3.554 6.023-3.554l.07-5.862c-2.655 0-4.935-1.5-6.094-3.677v-6.365c1.16-2.178 3.44-3.68 6.095-3.68l.28-6.888c-2.867 0-5.326-1.735-6.374-4.205v-5.317c1.05-2.473 3.508-4.207 6.376-4.207l-.143-5.856c-2.76 0-5.124-1.616-6.232-3.94V97.59c1.11-2.324 3.473-3.94 6.233-3.94l-.068-7.786c-2.708 0-5.03-1.56-6.164-3.81v-6.104c1.135-2.25 3.457-3.81 6.165-3.81l.137-5.857c-2.813 0-5.222-1.674-6.3-4.066v-5.59c1.073-2.395 3.482-4.07 6.295-4.07z" fill="none"/><path stroke="#4F5877" stroke-width="1.994" stroke-miterlimit="10" fill="none" d="M236.328 13.2h146.504v154.507H236.328z"/><g fill="#FEEAA2" stroke="#4F5877" stroke-width="1.994" stroke-miterlimit="10"><path d="M255.55 125.797c.227 1.636.478 3.234.758 4.79.014.51-.084.884-.298 1.12-.212.233-.72.407-1.53.522-.827.057-1.633.11-2.41.168-.78.056-1.502.022-2.16-.092-.658-.112-1.207-.354-1.645-.722-.437-.367-.698-.96-.785-1.77.02-.786-.144-2.04-.497-3.763-.353-1.727-.805-3.665-1.358-5.822-.552-2.16-1.133-4.4-1.738-6.714-.61-2.32-1.156-4.46-1.643-6.43-.488-1.97-.847-3.636-1.073-4.998-.228-1.364-.22-2.167.022-2.41.907-.956 1.924-1.978 3.05-3.056 1.123-1.08 2.313-2.117 3.567-3.113 1.25-.993 2.542-1.903 3.87-2.73 1.328-.824 2.656-1.48 3.988-1.97 1.33-.484 2.63-.758 3.897-.82 1.266-.06 2.463.17 3.59.69 1.372.764 2.693 1.63 3.96 2.607 1.267.974 2.45 2.293 3.548 3.958.515.828.856 1.647 1.025 2.466.17.815.207 1.628.112 2.438-.096.81-.287 1.618-.576 2.43-.29.81-.637 1.624-1.037 2.44-.65 1.322-1.506 2.685-2.57 4.083-1.064 1.398-2.272 2.782-3.624 4.15-1.35 1.367-2.812 2.684-4.38 3.944-1.566 1.266-3.145 2.428-4.733 3.487.223 1.773.445 3.475.67 5.117zm2.984-18.134c1.218-1.467 2.15-2.874 2.796-4.21.645-1.336 1.01-2.535 1.1-3.603.087-1.063-.098-1.874-.55-2.434-.208-.316-.615-.48-1.22-.483-.605 0-1.316.153-2.138.466-.823.31-1.71.76-2.665 1.346-.954.584-1.89 1.295-2.808 2.123.073 1.723.19 3.496.35 5.318.158 1.82.336 3.72.53 5.693 1.85-1.34 3.384-2.748 4.604-4.217zM296.17 81.847c.857.823 1.62 1.832 2.297 3.027 1.054 2.002 1.92 4.27 2.604 6.8.684 2.537 1.106 5.145 1.27 7.824.163 2.676.03 5.304-.398 7.88-.428 2.572-1.242 4.906-2.44 7-.854 1.294-1.87 2.312-3.05 3.056-1.177.742-2.627 1.31-4.35 1.702-1.147.262-2.348.47-3.6.623-1.25.152-2.443.145-3.575-.02-.928-.135-1.88-.393-2.86-.768-.978-.38-1.825-.898-2.545-1.56-1.16-1.09-2.207-2.416-3.14-3.977-.933-1.562-1.702-3.27-2.316-5.133-.61-1.862-1.048-3.826-1.307-5.887-.26-2.064-.313-4.145-.157-6.234.155-2.092.526-4.15 1.11-6.18.583-2.028 1.41-3.955 2.474-5.775.75-1.126 1.76-2.136 3.035-3.025 1.273-.887 2.585-1.45 3.94-1.685 1.752-.31 3.475-.442 5.166-.407 1.69.037 3.17.28 4.43.722 1.42.52 2.556 1.192 3.413 2.017zm-10.74 6.192c-.513.967-.937 2.188-1.274 3.663-.337 1.473-.573 3.068-.713 4.785-.14 1.714-.173 3.334-.1 4.863.063 1.5.262 3.01.593 4.532.333 1.52.744 2.9 1.24 4.14.495 1.24 1.072 2.248 1.732 3.024.663.78 1.36 1.154 2.104 1.127.683-.008 1.278-.354 1.79-1.048.508-.69.932-1.632 1.273-2.815.338-1.184.562-2.58.676-4.186.11-1.608.1-3.314-.036-5.11-.092-1.488-.305-3.09-.64-4.808-.33-1.713-.745-3.28-1.236-4.697-.502-1.45-1.068-2.638-1.702-3.57-.633-.933-1.27-1.387-1.914-1.36-.683.004-1.28.493-1.792 1.46zM315.036 91.4c.166-2.387.343-4.698.53-6.93.188-2.232.38-4.27.572-6.115.19-1.848.39-3.227.595-4.137.13-.76.374-1.294.738-1.61.362-.318 1-.52 1.917-.607.906-.114 1.68-.166 2.317-.158.64.008 1.407.037 2.304.083.497.025.886.09 1.165.188.278.097.51.245.69.444.183.197.336.45.463.763.125.314.262.687.413 1.123.17.49.415 1.344.74 2.56.323 1.22.702 2.644 1.138 4.274l1.39 5.204c.49 1.84.973 3.634 1.448 5.38.12-1.626.265-3.347.433-5.17.167-1.82.338-3.653.517-5.494.177-1.838.358-3.64.547-5.404l.528-4.964c.166-1.544.32-2.932.466-4.162.144-1.232.275-2.24.395-3.023.125-1.048.39-1.696.792-1.946s1.136-.345 2.198-.29c.78.092 1.567.218 2.358.386.793.167 1.58.39 2.363.672.89.407 1.446.978 1.67 1.71.22.734.286 1.538.197 2.407-.268 1.584-.54 3.376-.824 5.383-.283 2.004-.555 4.09-.816 6.25-.264 2.16-.52 4.358-.77 6.596-.253 2.242-.48 4.406-.683 6.498-.206 2.09-.397 4.06-.573 5.9-.176 1.84-.322 3.443-.437 4.81-.102.647-.373 1.13-.817 1.445-.447.314-1.16.557-2.144.73-.556.092-1.04.154-1.453.182-.416.027-.806.056-1.17.083-.366.03-.735.05-1.104.06-.372.015-.776.05-1.215.1-.917-.008-1.638-.205-2.163-.596-.525-.384-.952-.86-1.277-1.43-.3-.578-.665-1.28-1.097-2.102-.433-.825-.884-1.73-1.358-2.72-.472-.986-.945-1.996-1.418-3.032-.474-1.034-.886-2.062-1.235-3.073-.23 1.504-.456 3.06-.68 4.674-.223 1.61-.422 3.178-.598 4.69-.178 1.52-.334 2.926-.472 4.218-.14 1.292-.243 2.357-.313 3.188-.147.7-.403 1.166-.76 1.4-.36.237-.892.425-1.59.566-.954.165-1.885.282-2.79.348s-1.78.112-2.618.14c-.778.01-1.39-.13-1.83-.415-.443-.29-.848-.82-1.217-1.6-.645-1.11-1.328-2.403-2.056-3.888-.727-1.482-1.468-3.082-2.227-4.797-.786-1.8-1.59-3.697-2.41-5.684-.817-1.985-1.62-3.968-2.404-5.95-.785-1.98-1.525-3.93-2.22-5.844-.696-1.912-1.332-3.697-1.902-5.346-.292-.936-.323-1.59-.093-1.958.23-.373.85-.615 1.852-.73 1.156-.137 2.217-.232 3.176-.284.96-.05 1.894.01 2.803.182.527.114.986.31 1.38.6.394.287.728.617 1.005.99.277.376.507.782.69 1.224.186.436.33.85.43 1.235.232.763.563 1.878.99 3.35.43 1.472.915 3.11 1.46 4.917.544 1.805 1.128 3.675 1.752 5.615.622 1.94 1.236 3.778 1.838 5.515.145-2.03.303-4.235.47-6.622zM350.34 93.493c.093-.63.337-1.212.736-1.755.4-.542.954-.99 1.66-1.345.71-.355 1.574-.56 2.6-.62.857-.067 1.6.01 2.23.232s1.146.526 1.54.908c.392.384.677.803.853 1.262.173.457.263.88.267 1.27.002.288-.057.656-.18 1.103-.122.446-.313.884-.572 1.312-.26.43-.605.838-1.04 1.23-.436.392-.975.694-1.615.914-1.362.496-2.65.535-3.875.11-1.223-.424-2.045-1.34-2.47-2.75-.18-.617-.226-1.24-.134-1.87zm6.526-37.328c.374.47.566 1.14.575 2.012-.006 2.43.006 4.884.035 7.366.03 2.484.077 4.925.145 7.33.068 2.407.166 4.71.295 6.915.13 2.206.275 4.253.44 6.138.063.656-.03 1.11-.286 1.362-.258.247-.75.4-1.482.454-.866.136-1.68.21-2.44.23-.76.017-1.517-.026-2.268-.125-.793-.12-1.368-.35-1.734-.697-.363-.345-.618-.96-.763-1.85-.35-1.757-.706-3.847-1.068-6.26-.367-2.417-.703-4.916-1.01-7.497-.31-2.58-.592-5.14-.85-7.67-.26-2.532-.462-4.812-.608-6.835-.077-.974.073-1.64.456-2 .382-.356 1.093-.537 2.138-.535.957-.068 2.025-.062 3.21.018 1.186.084 2.25.255 3.188.517.978.28 1.652.66 2.028 1.128zM367.833 87.517c.092-.628.337-1.21.736-1.754.396-.542.952-.99 1.66-1.343.71-.357 1.573-.563 2.597-.623.857-.066 1.602.012 2.233.235.63.22 1.144.524 1.537.907s.677.8.853 1.26c.176.457.265.88.27 1.268.002.29-.057.66-.182 1.104-.122.446-.312.883-.57 1.314-.26.43-.607.838-1.04 1.228-.436.392-.977.695-1.616.914-1.36.497-2.652.536-3.874.113-1.223-.424-2.046-1.342-2.472-2.75-.18-.617-.225-1.24-.133-1.873zm6.525-37.327c.374.472.567 1.14.576 2.012-.007 2.43.005 4.886.034 7.366.03 2.483.076 4.927.145 7.33.066 2.408.164 4.71.293 6.915.13 2.208.276 4.254.44 6.138.064.657-.03 1.11-.285 1.363-.256.25-.75.402-1.48.454-.867.136-1.68.21-2.44.23s-1.517-.026-2.267-.123c-.794-.12-1.37-.35-1.735-.7-.363-.344-.618-.96-.763-1.848-.348-1.755-.705-3.846-1.07-6.26-.364-2.417-.7-4.915-1.01-7.498-.307-2.58-.59-5.138-.848-7.67-.26-2.532-.462-4.81-.607-6.834-.078-.974.073-1.642.454-2 .383-.356 1.094-.535 2.138-.535.957-.07 2.025-.063 3.21.02 1.187.08 2.25.25 3.188.513.978.28 1.653.658 2.028 1.127z"/></g><path fill="#B6ACF3" d="M15.168 14.292h146.504v154.504H15.168z"/><path stroke="#4F5877" stroke-width=".997" stroke-miterlimit="10" d="M176.628 53.645l.212-6.887c-3.036 0-5.583-1.952-6.514-4.65V37.68c.93-2.696 3.478-4.646 6.514-4.646l-.072-5.862c-2.945 0-5.445-1.833-6.44-4.41v-4.898c.996-2.577 3.495-4.415 6.44-4.415l.07-5.983h-6.512V.51l-7.19.067c0 3.79-2.995 6.86-6.688 6.86-3.69 0-6.68-3.072-6.68-6.86l-5.712-.07c0 3.792-2.988 6.863-6.682 6.863-3.693 0-6.685-3.072-6.685-6.862l-6.71-.28c0 3.79-2.996 6.863-6.687 6.863-3.693 0-6.688-3.073-6.688-6.862l-5.704.14c0 3.788-2.99 6.862-6.682 6.862-3.696 0-6.686-3.074-6.686-6.862l-7.584.068c0 3.792-2.993 6.865-6.686 6.865S70.576 4.228 70.576.437L64.87.3c0 3.79-2.992 6.86-6.685 6.86-3.69 0-6.686-3.07-6.686-6.86L44.79.09c0 3.792-2.993 6.862-6.69 6.862-3.686 0-6.678-3.07-6.678-6.862L25.71.162c0 3.79-2.99 6.864-6.682 6.864-3.69 0-6.686-3.074-6.686-6.864l-5.83-.07v7.375H.002l.07 5.984c2.944 0 5.442 1.838 6.44 4.412v4.904c-.998 2.575-3.497 4.41-6.44 4.41L0 33.035c3.034 0 5.58 1.95 6.512 4.643v4.43C5.58 44.805 3.034 46.757 0 46.757l.21 6.887c2.814 0 5.222 1.672 6.302 4.065v5.597c-1.08 2.39-3.487 4.066-6.3 4.066l.136 5.855c2.71 0 5.03 1.558 6.164 3.81v6.106c-1.134 2.25-3.455 3.81-6.164 3.81L.28 94.737c2.76 0 5.124 1.616 6.232 3.94v5.846c-1.108 2.32-3.472 3.937-6.232 3.937l-.14 5.857c2.865 0 5.324 1.735 6.372 4.203v5.325c-1.048 2.466-3.507 4.2-6.373 4.2l.28 6.888c2.655 0 4.932 1.503 6.092 3.68v6.365c-1.16 2.18-3.437 3.678-6.092 3.678l.07 5.862c2.603 0 4.842 1.443 6.02 3.55v6.617c-1.178 2.11-3.418 3.556-6.02 3.556l-.068 7.383h6.09V183l5.83-.07c0-3.79 2.995-6.864 6.686-6.864 3.693 0 6.682 3.073 6.682 6.863l5.71.07c0-3.792 2.993-6.862 6.68-6.862 3.696 0 6.69 3.07 6.69 6.862l6.708-.21c0-3.792 2.996-6.86 6.686-6.86 3.693 0 6.686 3.068 6.686 6.86l5.705-.136c0-3.792 2.993-6.865 6.686-6.865s6.687 3.072 6.687 6.864l7.584.068c0-3.79 2.99-6.862 6.687-6.862 3.693 0 6.683 3.072 6.683 6.862l5.704.14c0-3.788 2.995-6.864 6.688-6.864 3.69 0 6.686 3.076 6.686 6.863l6.71-.278c0-3.79 2.992-6.865 6.685-6.865 3.694 0 6.682 3.074 6.682 6.865l5.712-.07c0-3.79 2.99-6.862 6.68-6.862 3.693 0 6.688 3.073 6.688 6.863l7.19.067v-6.958h6.09l-.067-7.382c-2.603 0-4.842-1.445-6.023-3.556v-6.614c1.18-2.11 3.42-3.553 6.023-3.553l.07-5.862c-2.655 0-4.934-1.498-6.093-3.678v-6.364c1.16-2.177 3.438-3.68 6.093-3.68l.282-6.888c-2.868 0-5.327-1.735-6.375-4.205v-5.317c1.048-2.472 3.507-4.207 6.375-4.207l-.142-5.856c-2.76 0-5.125-1.616-6.233-3.938V98.68c1.108-2.326 3.473-3.942 6.233-3.942l-.068-7.785c-2.708 0-5.03-1.56-6.165-3.81v-6.104c1.135-2.252 3.456-3.812 6.165-3.812l.137-5.855c-2.814 0-5.223-1.676-6.302-4.068v-5.593c1.08-2.393 3.49-4.067 6.303-4.067z" fill="none"/><path stroke="#4F5877" stroke-width="1.994" stroke-miterlimit="10" fill="none" d="M15.168 14.292h146.504v154.504H15.168z"/><path fill-rule="evenodd" clip-rule="evenodd" fill="#FACBC1" stroke="#4F5877" stroke-width="1.994" stroke-linecap="round" stroke-linejoin="round" stroke-miterlimit="10" d="M46.41 121.728c14.864 6.692 32.504 10.426 49.89 10.426 5.63 0 11.182-.255 16.592-1.143 2.115-.35 4.865-1.133 6.055-2.037 1.666-1.267 2.732-3.264 2.732-5.505 0-2.067-.91-3.944-2.362-5.212h.61c3.874 0 7.003-3.112 7.003-6.95 0-3.845-3.128-6.95-7.002-6.95h3.502c3.87 0 7-3.11 7-6.95 0-3.84-3.13-6.95-7-6.95 3.87 0 7-3.108 7-6.955 0-3.835-3.13-6.946-7-6.946H92.028c-2.418 0-4.375-1.944-4.375-4.343l2.2-14.438c.214-.658.315-1.354.315-2.07 0-3.835-3.13-6.95-7-6.95-3.233 0-5.965 2.193-6.758 5.142l-.3.996c-4.494 14.208-14.684 27.192-29.7 35.565v31.273z"/></svg>