<svg xmlns="http://www.w3.org/2000/svg" xmlns:xlink="http://www.w3.org/1999/xlink" width="1006.117" height="440.323" viewBox="0 0 1006.117 440.323"><path fill="#F36E54" d="M247.452 407.26l-65.082 28.148c-5.993 2.592-13.997-2.582-17.877-11.553-3.88-8.973-2.17-18.348 3.824-20.94l46.637-20.17c6.102-5.925 12.162-10.71 16.46-12.57 13.263-5.733 27.23-2.952 31.194 6.214 3.964 9.167-1.89 25.134-15.156 30.87z"/><path fill="#C85B45" d="M243.016 409.18l-61.278 26.502c-5.643 2.44-13.364-2.855-17.244-11.826-3.88-8.973-2.452-18.225 3.19-20.664"/><g stroke="#FEEAA2" stroke-width="3.078" stroke-linecap="round" stroke-miterlimit="10" fill="none"><path d="M247.993 384.596c.087 2.406 4.194 9.416-19.612 30.912M248.146 384.95s-4.3-9.947-32.658-2.715"/></g><path fill="#F36E54" d="M189.098 317.232l-54.966 44.795c-5.062 4.125-4.158 13.613 2.017 21.19 6.176 7.58 15.285 10.378 20.346 6.253l39.39-32.102c8.067-2.684 15.107-5.86 18.737-8.816 11.2-9.13 15.167-22.81 8.857-30.548-6.31-7.743-23.18-9.9-34.382-.772z"/><path fill="#C85B45" d="M185.35 320.288l-51.754 42.177c-4.766 3.883-3.622 13.176 2.553 20.754 6.176 7.577 15.046 10.57 19.81 6.688"/><g stroke="#FEEAA2" stroke-width="3.078" stroke-linecap="round" stroke-miterlimit="10" fill="none"><path d="M209.463 327.194c-2.096-1.186-6.426-8.06-36.472 3.166M209.22 326.897s6.846 8.398-12.636 30.236"/></g><path fill="#3A81C3" d="M907.628 60.01l-28.863 46.802s-4.21 2.55-12.37-1.2-10.638-9.38-10.638-9.38l16.518-52.474"/><path opacity=".25" fill="#fff" d="M878.763 106.812s-4.21 2.553-12.37-1.2c-8.157-3.75-10.638-9.378-10.638-9.378l16.52-52.476"/><path fill="#306CA4" d="M899.49 52.83c-2.345-1.362-5.075-2.77-8.044-4.136-9.758-4.485-18.32-6.724-19.12-4.99-.792 1.73 6.476 6.777 16.233 11.266 9.767 4.49 18.325 6.722 19.12 4.99.398-.865-1.22-2.564-4.156-4.6"/><path fill="#2A6195" d="M891.585 48.877c-2.23-1.288 6.127 2.92 7.906 3.952l4.034 2.53c2.936 2.035 4.555 3.734 4.156 4.6-.795 1.73-9.354-.5-19.12-4.99 0 0 16.457 1.652 3.025-6.093z"/><path opacity=".49" stroke="#fff" stroke-width="1.875" stroke-linecap="round" stroke-miterlimit="10" fill="none" d="M871.632 59.65l-8.02 28.25"/><path d="M868.522 97.73c-.22.302-.146.71.152.93l2.475 1.776c.3.215.708.143.93-.152l39.478-55.01c.213-.3.143-.714-.158-.93l-2.477-1.774c-.293-.213-.707-.146-.926.147L868.522 97.73z" fill="none"/><defs><path id="a" d="M911.403 44.348l-2.477-1.775c-.293-.21-.707-.146-.926.146l-39.475 55.014c-.22.305-.146.71.152.928l2.475 1.777c.3.214.707.145.922-.157l39.486-55.005c.023-.035.045-.074.062-.108.133-.29.05-.63-.22-.822"/></defs><linearGradient id="b" gradientUnits="userSpaceOnUse" x1="1116.534" y1="-114.191" x2="1121.539" y2="-114.191" gradientTransform="matrix(.807 .591 -.591 .807 -80.466 -497.25)"><stop offset="0" stop-color="#fff"/><stop offset=".838" stop-color="#fff" stop-opacity=".135"/><stop offset=".969" stop-color="#fff" stop-opacity="0"/></linearGradient><use xlink:href="#a" overflow="visible" fill="url(#b)"/><clipPath id="c"><use xlink:href="#a" overflow="visible"/></clipPath><path clip-path="url(#c)" stroke="#F79D82" stroke-width="2" stroke-miterlimit="10" fill="none" d="M910.884 52.786l-5.778-11.948"/><path clip-path="url(#c)" stroke="#CC826C" stroke-width="2" stroke-miterlimit="10" fill="none" d="M907.267 57.833l-5.782-11.96"/><path clip-path="url(#c)" stroke="#F79D82" stroke-width="2" stroke-miterlimit="10" fill="none" d="M903.65 62.868l-5.778-11.955"/><path clip-path="url(#c)" stroke="#CC826C" stroke-width="2" stroke-miterlimit="10" fill="none" d="M900.034 67.912l-5.78-11.958"/><path clip-path="url(#c)" stroke="#F79D82" stroke-width="2" stroke-miterlimit="10" fill="none" d="M896.415 72.95l-5.78-11.953"/><path clip-path="url(#c)" stroke="#CC826C" stroke-width="2" stroke-miterlimit="10" fill="none" d="M892.796 77.992l-5.775-11.958"/><path clip-path="url(#c)" stroke="#F79D82" stroke-width="2" stroke-miterlimit="10" fill="none" d="M889.183 83.03L883.4 71.077"/><path clip-path="url(#c)" stroke="#CC826C" stroke-width="2" stroke-miterlimit="10" fill="none" d="M885.558 88.073l-5.78-11.955"/><path clip-path="url(#c)" stroke="#F79D82" stroke-width="2" stroke-miterlimit="10" fill="none" d="M881.942 93.118l-5.78-11.967"/><path clip-path="url(#c)" stroke="#CC826C" stroke-width="2" stroke-miterlimit="10" fill="none" d="M878.33 98.16l-5.782-11.956"/><path clip-path="url(#c)" stroke="#F79D82" stroke-width="2" stroke-miterlimit="10" fill="none" d="M874.708 103.202l-5.78-11.96"/><path fill="#FEEAA2" d="M858.3 88.136l-2.55 8.096s2.485 5.63 10.642 9.38c8.16 3.753 12.37 1.2 12.37 1.2l3.573-5.793c-.494-.067-1.023-.198-1.645-.48-3.424-1.577-2.316-3.987-5.744-5.563-3.426-1.577-4.535.835-7.97-.748-3.435-1.58-2.327-3.99-5.755-5.567-1.19-.55-2.094-.607-2.92-.527m1.97 7.375c.353-.765 1.26-1.106 2.024-.755.77.354 1.107 1.268.756 2.033-.354.768-1.266 1.104-2.035.75-.766-.35-1.098-1.26-.746-2.027m-.488-3.462c.156-.344.57-.498.918-.34.35.162.498.574.34.918-.16.35-.568.5-.918.34-.346-.16-.498-.57-.34-.918"/><path opacity=".4" fill="#fff" d="M877.815 97.75c-3.89-5.93-7.828-1.607-10.908-3.532l.434 11.83c3.983 1.645 8.278 2.09 10.747 1.066l-.272-9.363z"/><defs><circle id="d" cx="103.54" cy="265.301" r="73.644"/></defs><clipPath id="e"><use xlink:href="#d" overflow="visible"/></clipPath><g clip-path="url(#e)"><path fill="#F6F6FB" d="M111.134 228.263s16.048 11.705 42.146 101.21c0 0-37.8 31.432-89.56 5.617 0 0 30.632-89.99 47.414-106.827z"/><path fill="#FEEAA2" d="M111.134 228.263s39.807-6.11 72.427 27.99c0 0 6.368 42.1-30.28 73.22 0 0-22.75-80.068-42.146-101.21z"/><path fill="#F79D82" d="M112.352 226.733s-57.856 8.832-87.012 42.096c0 0-2.856 39.3 38.38 66.26 0 0 30.215-86.355 48.632-108.357zM183.56 256.253s-8.083-50.486-56.006-64.56c0 0-13.628 29.34-16.42 36.57 0 0 39.405-6.225 72.427 27.99z"/><path fill="#FEEAA2" d="M25.34 268.83s-4.136-58.263 61.25-78.696c0 0 21.513 30.998 24.544 38.13 0 0-53.95 5.253-85.794 40.565z"/><path fill="#F6F6FB" d="M127.305 191.767s-18.432-7.084-40.636-1.516l24.464 38.013 16.584-36.518"/><path fill="#AAB2BD" d="M104.53 230.198c1.07 3.648 4.89 5.738 8.533 4.67 3.65-1.068 5.738-4.89 4.67-8.54-1.068-3.642-4.89-5.73-8.538-4.66-3.643 1.067-5.732 4.888-4.665 8.53z"/></g><g fill="#fff"><path opacity=".69" d="M64.924 221.22c1.854 4.348 12.84 3.832 24.542-1.152 11.704-4.984 19.69-12.55 17.838-16.896-1.852-4.346-12.84-3.832-24.54 1.152-11.705 4.987-19.69 12.548-17.84 16.896z"/><path opacity=".64" d="M55.08 230.062c.928 2.17 3.826 3.02 6.48 1.892 2.647-1.13 4.048-3.807 3.122-5.982-.927-2.172-3.827-3.02-6.478-1.89-2.65 1.128-4.048 3.808-3.123 5.98z"/></g><path fill="#AAB2BD" d="M867.972 362.016c-.17 1.47.877 2.79 2.348 2.96l75.518 8.706c1.465.168 2.793-.88 2.96-2.348l4.837-41.963c.17-1.462-.883-2.788-2.346-2.956l-75.52-8.708c-1.472-.168-2.792.885-2.96 2.346l-4.838 41.964z"/><path opacity=".31" fill="#666E78" d="M872.81 320.053l-4.838 41.963c-.17 1.47.877 2.79 2.348 2.96l75.518 8.706"/><path fill="#666E78" d="M924.063 323.273l1.297-11.258c.17-1.47-.88-2.79-2.342-2.96l-15.566-1.793c-1.47-.17-2.79.877-2.96 2.346l-1.298 11.26"/><g stroke-miterlimit="10"><path fill="#FEEAA2" stroke="#FEEAA2" stroke-width=".53" d="M906.946 315.302c-.17 1.465.88 2.784 2.346 2.954l9.223 1.064c1.465.168 2.79-.88 2.957-2.344l.285-2.475c.17-1.465-.88-2.788-2.346-2.957l-9.222-1.064c-1.47-.17-2.79.88-2.96 2.348l-.282 2.474z"/><path stroke="#fff" stroke-width=".618" fill="none" d="M919.79 311.793l-.896 7.78M917.825 311.36l-.896 7.775M915.843 311.132l-.897 7.776M913.864 310.903l-.898 7.777M911.85 310.878l-.9 7.778M909.864 310.65l-.896 7.778"/></g><path fill="#666E78" d="M946.27 325.834l.282-2.46c.168-1.464-.883-2.79-2.35-2.96l-4.314-.497c-1.463-.17-2.785.885-2.953 2.347l-.285 2.463"/><path fill="#666E78" d="M892.276 344.042c-1.172 10.197 6.143 19.416 16.34 20.592 10.2 1.174 19.42-6.14 20.598-16.334 1.174-10.2-6.14-19.424-16.34-20.6-10.2-1.174-19.42 6.14-20.598 16.342z"/><path fill="#434A54" d="M896.075 344.48c-.934 8.097 4.873 15.427 12.98 16.36 8.106.936 15.433-4.88 16.366-12.977.935-8.104-4.876-15.438-12.983-16.37-8.104-.936-15.428 4.884-16.362 12.986z"/><path stroke="#666E78" stroke-width="1.683" stroke-miterlimit="10" fill="none" d="M952.396 340.122l-28.364-3.27"/><path stroke="#666E78" stroke-width="1.681" stroke-miterlimit="10" fill="none" d="M899.884 334.07l-28.315-3.267"/><path fill="#E6E9ED" d="M877.694 324.412c-.086.76 1.49 1.573 3.527 1.807 2.034.235 3.753-.198 3.84-.958.09-.762-1.485-1.575-3.52-1.81-2.037-.233-3.758.2-3.846.96"/><path fill="#FEEAA2" d="M944.886 332.413c-.105.904.55 1.727 1.453 1.832.9.105 1.714-.553 1.817-1.453.105-.904-.54-1.72-1.44-1.824-.905-.106-1.728.542-1.83 1.445"/><path fill="#88CA90" d="M940.485 331.907c-.105.902.54 1.725 1.45 1.83.9.104 1.718-.55 1.823-1.45.104-.907-.547-1.724-1.447-1.827-.91-.106-1.72.542-1.825 1.447"/><path stroke="#666E78" stroke-width="1.061" stroke-linecap="round" stroke-miterlimit="10" fill="none" d="M945.042 339.276l-3.127 27.127M937.698 338.428l-3.13 27.13M930.374 337.362l-3.127 27.125M893.638 333.127l-3.127 27.125M886.288 332.28l-3.125 27.125M878.942 331.434l-3.125 27.123"/><path stroke="#666E78" stroke-width="1.592" stroke-miterlimit="10" fill="none" d="M949.294 367.028l-80.824-9.317"/><path opacity=".61" fill="#30373F" d="M904.565 345.602c-.434 3.762 2.264 7.166 6.03 7.6 3.765.436 7.17-2.266 7.603-6.027.434-3.764-2.266-7.172-6.03-7.605-3.767-.437-7.17 2.268-7.603 6.032z"/><path opacity=".54" fill="#fff" d="M902.42 337.708c.358 1.398 3.177 1.898 6.296 1.096 3.115-.8 5.346-2.594 4.984-3.992-.36-1.402-3.178-1.898-6.29-1.1-3.118.8-5.35 2.593-4.99 3.996"/><path opacity=".6" fill="#fff" d="M915.93 353.688c.124 1.037 1.354 1.752 2.74 1.582 1.378-.164 2.39-1.148 2.265-2.186-.127-1.04-1.344-1.746-2.72-1.58-1.386.166-2.41 1.147-2.286 2.184"/><path opacity=".69" fill="#fff" stroke="#fff" stroke-width=".53" stroke-miterlimit="10" d="M910.188 310.48c-1.47-.17-2.79.88-2.96 2.348l-.282 2.474c-.17 1.465.88 2.784 2.346 2.954l9.223 1.064"/><path opacity=".72" fill="#fff" d="M885.062 325.262c.09-.762-1.486-1.575-3.52-1.81-2.038-.233-3.76.2-3.847.96"/><path opacity=".46" fill="#fff" d="M948.157 332.792c.105-.904-.54-1.72-1.44-1.824-.905-.105-1.728.543-1.83 1.445M943.76 332.286c.103-.906-.548-1.723-1.448-1.826-.91-.105-1.72.543-1.826 1.447"/><path fill="#9A91C6" d="M908.567 235.364c1.875 2.322 1.516 5.723-.803 7.594l-19.87 16.05c-2.32 1.87-5.72 1.507-7.593-.816l-23.995-29.713c-1.877-2.324-1.518-5.725.8-7.598l19.872-16.045c2.318-1.872 5.72-1.51 7.594.812l23.997 29.714z"/><path fill="#FEEAA2" d="M860.235 218.356l-6.46-7.996c-1-1.24-.907-2.977.21-3.88l9.57-7.728c1.12-.902 2.834-.627 3.834.61l6.458 8-13.613 10.994z"/><path fill="#fff" d="M859.89 232.932l28.267-22.83 14.765 18.283-28.268 22.83z"/><circle fill="#FEEAA2" cx="881.541" cy="230.737" r="4.957"/><path stroke="#FEEAA2" stroke-width="1.817" stroke-linecap="round" stroke-miterlimit="10" fill="none" d="M882.376 220.134l-.383 3.728M880.6 237.44l-.38 3.73M889.317 224.244l-2.904 2.362M875.028 222.673l2.364 2.904M891.808 231.798l-3.73-.383M874.683 229.864l-3.725-.383M885.51 235.665l2.366 2.904M876.02 234.312l-2.906 2.363"/><path opacity=".26" fill="#fff" d="M854.01 206.51c-1.12.9-1.212 2.638-.212 3.876l6.46 7.998-3.13 2.528c-2.316 1.87-2.676 5.27-.8 7.595l23.995 29.71c1.875 2.325 5.275 2.69 7.592.815l19.87-16.047c2.32-1.87 2.68-5.27.804-7.596"/><defs><path id="f" d="M404.616 34.164H976.24v406.16H404.615z"/></defs><clipPath id="g"><use xlink:href="#f" overflow="visible"/></clipPath><g clip-path="url(#g)"><path fill="#E988B8" d="M477.66 172.228l341.778-10.293 1.677 55.682-341.777 10.293z"/><path fill="#F79D82" d="M479.34 227.907l341.776-10.293 1.677 55.68-341.776 10.292z"/><path fill="#E988B8" d="M481.015 283.59l341.777-10.294 1.677 55.684-341.778 10.293z"/><path fill="#F79D82" d="M482.723 339.228l341.78-10.327 1.682 55.682-341.78 10.327z"/><path fill="#E988B8" d="M484.37 394.955l341.776-10.293 1.676 55.68-341.776 10.292z"/><path fill="#F79D82" d="M486.09 450.588l341.776-10.327 1.682 55.684-341.776 10.327z"/><path fill="#E988B8" d="M487.77 506.274l341.775-10.327 1.682 55.683-341.776 10.327z"/><path fill="#F79D82" d="M819.517 163.112l-341.792 10.31-1.677-55.685L817.84 107.43z"/><path opacity=".13" fill="#306CA4" d="M817.823 106.828l13.4 444.256-341.79 10.313z"/></g><path opacity=".54" fill="#9B95C9" d="M328.327 146.935c0-5.807 11.413-10.514 25.49-10.514 2.645 0 5.198.167 7.598.476 2.097-8.83 11.437-15.487 22.643-15.487 12.75 0 23.084 8.615 23.084 19.244 0 5.814-3.098 11.024-7.988 14.553 2.572 3.49 4.055 7.564 4.055 11.922 0 12.89-12.94 23.34-28.896 23.34-15.958 0-28.896-10.45-28.896-23.34 0-3.558.99-6.927 2.752-9.944-11.358-1.06-19.843-5.248-19.843-10.25z"/><path fill="#9E8271" d="M398.417 165.657l14.114 10.817c1.233.942 1.47 2.71.524 3.942l-.686.895c-.943 1.23-2.713 1.466-3.94.524l-14.133-10.825"/><path fill="#9A91C6" d="M357.915 120.098c-5.763-3.374-10.755-2.4-16.76 5.233l-.005-.002c-.057.075-.107.147-.17.228l-.17.22.004.003c-5.807 7.782-5.447 12.856-.692 17.544 2.79 2.748 36.842 31.762 41.623 35.424 2.46 1.883 3.574 2.736 5.848.232 2.152-2.37 6.742-7.926 8.832-10.607v.002c.05-.063.11-.146.166-.22.062-.074.124-.157.175-.225v-.003c2.043-2.714 6.21-8.592 7.94-11.283 1.825-2.85.71-3.705-1.747-5.588-2.457-1.88-39.166-27.526-45.043-30.958z"/><path fill="#8C85B6" d="M396.255 156.565c1.236.945 1.6 2.535.818 3.56l-.64.83c-.78 1.02-2.413 1.085-3.647.14l-43.22-33.11c-1.23-.942-1.596-2.536-.812-3.556l.635-.833c.782-1.02 2.415-1.08 3.645-.136l43.22 33.105zM388.927 166.13c1.235.947 1.598 2.54.818 3.56l-.64.83c-.782 1.024-2.413 1.085-3.645.138l-43.22-33.105c-1.232-.94-1.6-2.535-.816-3.557l.637-.832c.782-1.018 2.42-1.08 3.647-.14l43.22 33.106z"/><path opacity=".25" fill="#CCC6E3" d="M404.317 152.14c-9.678-6.69-43.626-30.42-46.402-32.042-5.763-3.374-10.755-2.4-16.76 5.233l-.005-.002c-.057.075-.107.147-.17.228l-.17.22s-9.296 10.253-.688 17.548"/><linearGradient id="h" gradientUnits="userSpaceOnUse" x1="2795.401" y1="1837.518" x2="2792.652" y2="1857.078" gradientTransform="matrix(-.196 .981 .981 .196 -860.838 -2927.597)"><stop offset="0" stop-color="#836C5E"/><stop offset=".093" stop-color="#8B7669" stop-opacity=".878"/><stop offset=".255" stop-color="#A19085" stop-opacity=".665"/><stop offset=".465" stop-color="#C5BAB3" stop-opacity=".389"/><stop offset=".715" stop-color="#F5F4F2" stop-opacity=".061"/><stop offset=".761" stop-color="#fff" stop-opacity="0"/></linearGradient><path fill="url(#h)" d="M398.417 165.657l14.114 10.817c1.233.942 1.47 2.71.524 3.942l-.686.895c-.943 1.23-2.713 1.466-3.94.524l-14.133-10.825"/><path fill="#F79D82" d="M794.5 194.683c4.034 1.67 8.657-.242 10.327-4.27 1.67-4.03-.252-8.65-4.283-10.318M712.954 143.817c-4.025-1.666-8.648.242-10.318 4.27-1.668 4.032.252 8.653 4.275 10.32"/><path stroke="#505B79" stroke-width="4.121" stroke-linecap="round" stroke-miterlimit="10" d="M759.86 88.466c-12.752-1.2-25.348 5.934-30.508 18.396l-12.012 29M803.233 171.435l12.01-29c5.158-12.46 1.3-26.4-8.566-34.568" fill="none"/><path fill="#CDD1DA" d="M758.743 91.173c-.424 1.02.06 2.188 1.084 2.61l43.117 17.86c1.023.426 2.19-.057 2.613-1.078l2.19-5.287c.42-1.02-.062-2.188-1.09-2.61L763.544 84.8c-1.02-.424-2.19.06-2.613 1.08l-2.187 5.29zM769.534 201.15c-.422 1.015.07 2.192 1.082 2.612l9.648 3.996c1.016.422 2.19-.067 2.61-1.086l18.26-44.086c.42-1.02-.065-2.188-1.083-2.61l-9.645-3.995c-1.016-.42-2.19.062-2.613 1.082l-18.258 44.087zM707.173 175.323c-.42 1.016.06 2.19 1.082 2.613l9.64 3.99c1.02.424 2.196-.062 2.616-1.08l18.257-44.088c.424-1.02-.066-2.19-1.084-2.61l-9.64-3.993c-1.02-.424-2.188.062-2.612 1.08l-18.257 44.088z"/><path stroke="#505B79" stroke-width="4.121" stroke-linecap="round" stroke-miterlimit="10" fill="none" d="M802.212 106.01l-36.877-15.275"/><g stroke="#505B79" stroke-width="1.374" stroke-miterlimit="10" fill="none"><path d="M783.202 205.75l-13.328-5.52M784.17 203.55l-13.343-5.528M785.09 201.325l-13.343-5.525M786.01 199.103l-13.34-5.526M786.933 196.88l-13.344-5.526M787.85 194.66l-13.34-5.526M788.772 192.437l-13.34-5.528M789.692 190.214l-13.34-5.527M790.614 187.99l-13.342-5.526M791.534 185.77l-13.342-5.525M792.452 183.55l-13.34-5.528M793.372 181.325l-13.34-5.523M794.294 179.1l-13.342-5.523M795.214 176.88l-13.34-5.526M796.134 174.66l-13.342-5.528M797.056 172.438l-13.344-5.525M797.987 170.222L784.66 164.7M798.907 168.003l-13.33-5.52M799.825 165.778l-13.326-5.52M800.75 163.556l-13.33-5.52"/></g><g stroke="#505B79" stroke-width="1.374" stroke-miterlimit="10" fill="none"><path d="M721.026 180l-13.338-5.52M721.657 177.66l-13.33-5.52M722.58 175.437l-13.335-5.52M723.5 173.214l-13.333-5.52M724.42 170.993l-13.333-5.52M725.34 168.772l-13.33-5.52M726.26 166.55l-13.33-5.523M727.183 164.323l-13.334-5.52M728.103 162.1l-13.332-5.52M729.02 159.882l-13.33-5.523M729.942 157.66l-13.334-5.522M730.862 155.437l-13.332-5.522M731.782 153.214l-13.332-5.522M732.704 150.99l-13.332-5.52M733.624 148.77l-13.332-5.52M734.544 146.55l-13.332-5.522M735.476 144.33l-13.334-5.52M736.396 142.114l-13.336-5.52M737.315 139.89l-13.334-5.524M738.237 137.67l-13.334-5.526"/></g><path fill="#CDD1DA" d="M786.327 198.335c-.422 1.02.062 2.186 1.08 2.605l2.51 1.04c1.025.425 2.188-.055 2.61-1.077l11.485-27.73c.422-1.017-.06-2.19-1.082-2.612l-2.512-1.04c-1.016-.42-2.184.07-2.607 1.086l-11.483 27.73zM704.423 164.417c-.424 1.02.064 2.184 1.084 2.605l2.506 1.04c1.027.423 2.19-.058 2.615-1.08l11.482-27.728c.424-1.018-.06-2.19-1.084-2.612l-2.506-1.04c-1.02-.422-2.19.066-2.613 1.084l-11.484 27.73z"/><path opacity=".62" fill="#fff" d="M763.444 84.78c-1.016-.42-2.178.066-2.6 1.086l-2.19 5.287c-.42 1.02.058 2.19 1.07 2.61l43.58 18.12"/><path opacity=".35" fill="#fff" d="M738.83 136.58c.423-1.02-.517-2.124-1.536-2.546l-9.527-3.97c-1.02-.425-1.877.03-2.3 1.047l-3.204 7.387c-.13-.627-.582-1.746-1.22-2.012l-2.51-1.04c-1.02-.418-2.188.068-2.612 1.085l-2.99 7.22c-4.18-1.567-8.645.386-10.235 4.228-1.594 3.846-.096 8.403 4.217 10.43l-2.473 5.852M787.786 157.362c.45-1.006 1.23-1.943 2.234-1.494l10.508 4.355c1.01.45 1.055 1.357.605 2.363l-3.146 7.635c.545-.34 1.22-1.122 1.852-.84l3.495 1.388c1.01.45 1.123 1.398.678 2.406l-2.998 7.153c4.014 1.954 5.506 6.284 3.812 10.083-1.695 3.8-5.4 6.215-9.836 4.483l-2.34 5.71"/><path fill="#FEEAA2" d="M575.308 315.67c-.494.098-.174-1.156-.05-1.812.128-.656.042-1.113-.054-1.488-.1-.383-.408-.798-.79-1.136-.386-.348-.093-.994.052-1.285.145-.298.902-1.837 1.182-2.312 0 0 .186-.564.72-.428.237.065.517.217 1.544.56 1.02.337 6.238 2.937 7.22 3.457.98.518 5.485 2.988 6.417 3.537.933.55 1.685 1.053 3.868 2.454 2.186 1.4 5.52 4.27 7.162 5.902 1.633 1.634 3.057 3.873 3.328 4.412.268.54.035.78-.242 1.057-.28.27-1.266 1.706-2.03 2.454-.76.75-1.683.588-1.858.484-.002 0-7.6-19.58-26.47-15.858z"/><path fill="#30373F" d="M578.07 323.678c-.067 1.57-1.997 2.764-4.313 2.668l-3.736-.154c-2.317-.096-4.138-1.443-4.077-3.014.066-1.568 1.998-2.757 4.314-2.662l3.736.15c2.315.094 4.143 1.447 4.078 3.012z"/><path fill="#434A54" d="M615.632 333.895s-1.455-1.303-5.023-3.402c-3.57-2.1-6.276-3.242-6.276-3.242l-1.232 2.1s3.232 1.276 6.352 3.11c3.11 1.83 5.275 3.727 5.275 3.727l.902-2.292z"/><path opacity=".29" fill="#fff" d="M615.737 333.715s-1.56-1.123-5.13-3.223c-3.57-2.1-6.17-3.42-6.17-3.42l-.57.97s3.355 1.216 6.474 3.05c3.114 1.83 5.157 3.787 5.157 3.787l.24-1.165z"/><path fill="#FEEAA2" d="M613.714 338.547c-.203.02-.768-.83-.484-1.86.29-1.03 1.06-2.595 1.164-2.966.107-.376.203-.696.803-.728.6-.025 3.252.133 5.48.77 2.222.637 6.35 2.156 8.636 3.387 2.285 1.226 3.094 1.64 4.025 2.188.936.55 5.283 3.283 6.207 3.885.934.607 5.742 3.902 6.537 4.633.793.73 1.062.896 1.234 1.07.383.406-.025.84-.025.84-.28.475-1.253 1.89-1.44 2.158-.19.268-.613.834-1.098.672-.48-.17-.994-.238-1.377-.14-.38.097-.814.245-1.332.675-.512.43-1.102.786-1.604.84-.5.054-1.065.073-2.042-.5 0 0 1.525-17.446-24.684-14.923z"/><path fill="#434A54" d="M642.312 348.63c-.186.317.27.93 1.014 1.368.744.436 1.492.53 1.68.213.186-.315-.264-.925-1.008-1.362-.743-.435-1.5-.535-1.686-.217M579.06 311.435c-.186.32-.94.222-1.68-.217-.744-.438-1.195-1.047-1.01-1.365.188-.318.94-.22 1.684.22.742.434 1.195 1.045 1.006 1.362"/><path fill="#BCAF7A" stroke="#BCAF7A" stroke-width="1.036" stroke-miterlimit="10" d="M610.456 344.745c-.346 1.627-.898 2.896-1.23 2.824-.333-.07-.32-1.45.028-3.08.346-1.634.896-2.9 1.223-2.83.33.067.323 1.448-.02 3.085zM597.913 337.35c-1.236 1.08-2.066 2.19-1.863 2.477.207.287 1.38-.354 2.615-1.436 1.236-1.08 2.074-2.187 1.865-2.476-.205-.29-1.383.356-2.617 1.436z"/><path fill="#30373F" d="M631.866 359.282c.14.55.37 1.107.697 1.643l1.95 3.19c1.206 1.978 3.276 2.92 4.612 2.1 1.342-.82 1.44-3.09.23-5.065l-1.945-3.19c-.576-.946-1.355-1.655-2.145-2.044"/><path opacity=".66" fill="#A79C6D" d="M600.325 335.33c-1.098.18-2.098 1.052-2.986 1.772-1.58 1.28-2.37 3.1-1.52 3.176 1.003.09 1.177.066 2.355-.844l2.15-4.105z"/><path fill="#434A54" d="M611.173 343.67c-.77 2.113-1.025 4.652-.434 8.348.59 3.697 3.01 5.938 6.565 8.03 3.56 2.093 6.666 2.83 9.152 2.575 2.482-.252 4.803-1.613 6.63-3.064 1.827-1.46 4.41-4.458 5.31-6.09l.254-.433c.435-.803 1.288-2.572 1.15-3.94-.18-1.827-.856-3.655-4.005-5.8-3.152-2.145-7.797-4.762-10.47-5.777-2.673-1.018-5.53-1.762-6.69-1.594-1.15.168-2.786.72-3.507 1.352-.715.63-.898.49-1.072.39-1.067 1.444-2.108 3.885-2.883 6.002m20.648 4.645l1.278.16-1.117 8.877-1.282-.16 1.123-8.877zm-2.688-5.115l1.277.162-1.88 14.89-1.283-.165 1.885-14.887z"/><path opacity=".29" fill="#fff" d="M638.43 353.49l.25-.435c.44-.8 1.292-2.57 1.155-3.938-.18-1.826-.86-3.658-4.008-5.803-3.148-2.14-7.797-4.76-10.47-5.775-2.673-1.02-5.532-1.765-6.68-1.595-1.157.17-2.79.727-3.513 1.354-.72.624-.902.487-1.074.388-1.418 1.912-1.488 2.19-2.89 5.998"/><path opacity=".66" fill="#A79C6D" d="M611.142 341.688c.275.99-.05 2.258-.295 3.355-.438 1.955-1.17 3.516-1.742 3.037-.654-.55-.766-1.066-.48-2.502l2.517-3.89z"/><path fill="#434A54" d="M576.735 317.21c-.99 1.577-2.36 5.29-2.734 7.6-.384 2.304-.45 4.993.542 7.284.986 2.295 3.14 4.652 6.697 6.744 3.56 2.096 6.692 3.12 10.21 1.838 3.518-1.28 5.617-2.732 7.09-4.436 2.645-3.076 2.855-3.273 3.838-5.44-.174-.103-.38-.194-.182-1.128.195-.938-.113-2.637-.525-3.73-.41-1.085-2.452-3.22-4.64-5.062-2.186-1.84-6.736-4.63-10.137-6.342-3.404-1.71-5.336-1.412-7.02-.684-1.262.547-2.395 2.152-2.88 2.926l-.258.43zm7.95 1.673l1.28.158-1.876 14.894-1.284-.16 1.88-14.89z"/><path opacity=".29" fill="#fff" d="M598.538 336.24c2.645-3.075 2.855-3.272 3.836-5.442-.172-.1-.377-.19-.18-1.125.195-.938-.113-2.637-.527-3.73-.408-1.085-2.453-3.22-4.64-5.062s-6.735-4.63-10.136-6.34c-3.403-1.71-5.335-1.413-7.02-.685-1.263.547-2.394 2.152-2.878 2.926l-.26.43"/><path fill="#F04F23" d="M235.32 199.49l-25.905-72.03 77.507-27.874 25.903 72.03z"/><path fill="#F8F9FA" stroke="#fff" stroke-width=".548" stroke-miterlimit="10" d="M248.938 170.246l-18.15-50.473 33.84-12.17 18.152 50.473z"/><path stroke="#F8CEBD" stroke-width=".397" stroke-miterlimit="10" fill="none" d="M248.93 170.244l33.84-12.17"/><path fill="#F8A069" d="M240.77 214.6l-5.436-15.112 77.488-27.866 5.435 15.113z"/><path opacity=".17" fill="#C6401B" d="M318.247 186.73l-77.652 27.927-31.185-87.2"/><path fill="#E6B041" d="M554.633 151.26l32.992-22.08c3.188-2.135 4.046-6.453 1.91-9.643l-13.224-19.76-58.464 41.064 12.33 18.426c2.135 3.188 6.45 4.044 9.642 1.908l2.245-1.503 12.57-8.41z"/><path fill="#E5E8EC" d="M551.417 147.027l33.42-22.365-7.61-11.37-53.748 35.972 7.61 11.37 7.66-5.128"/><path fill="#FFCF58" d="M518.56 141.912l-35.594-53.184c-2.135-3.19-1.277-7.506 1.914-9.643l47.807-31.994c3.188-2.134 7.506-1.28 9.64 1.91l37.187 55.56c2.137 3.193 1.28 7.51-1.91 9.645l-46.49 31.117c-7.094 4.746-3.398 10.268-.938 13.944"/><path stroke="#E6B041" stroke-width="1.267" stroke-miterlimit="10" fill="none" d="M486.458 78.03l41.783 62.433"/><g stroke="#676E78" stroke-width="1.056" stroke-linecap="round" stroke-miterlimit="10" fill="none"><path d="M532.01 150.718l4.412-2.954M532.776 155.047l27.54-18.433M565.13 133.395l16.71-11.186M539.63 145.617l39.973-26.753"/></g><path opacity=".16" fill="#fff" d="M484.88 79.086c-3.19 2.137-4.05 6.453-1.914 9.643l35.594 53.183 11.615 17.354c-.158-.235-.32-.48-.484-.728l.487.727c2.135 3.188 6.45 4.044 9.642 1.908l2.244-1.503 12.57-8.412 32.99-22.08"/><path fill="#EA573E" d="M537.053 152.185l7.513 11.227 3.38-8.838 9.19.427-7.514-11.228z"/></svg>