<svg xmlns="http://www.w3.org/2000/svg" width="398" height="184" viewBox="0 0 398 184"><path fill="#FFFAEC" d="M14.702 14.68h146.505v155.427H14.702z"/><path stroke="#4F5877" stroke-miterlimit="10" d="M176.163 54.27l.212-6.93c-3.036 0-5.583-1.963-6.514-4.68v-4.45c.932-2.713 3.48-4.675 6.515-4.675l-.072-5.897c-2.945 0-5.444-1.845-6.44-4.436v-4.928c.996-2.592 3.496-4.44 6.44-4.44l.07-6.02h-6.512V.816l-7.19.067c0 3.812-2.994 6.902-6.687 6.902-3.69 0-6.68-3.09-6.68-6.902l-5.712-.07c0 3.815-2.987 6.904-6.68 6.904-3.694 0-6.686-3.09-6.686-6.904l-6.71-.28c0 3.812-2.995 6.903-6.686 6.903-3.693 0-6.688-3.09-6.688-6.903l-5.705.14c0 3.81-2.99 6.902-6.683 6.902-3.696 0-6.686-3.092-6.686-6.902l-7.584.068c0 3.814-2.993 6.907-6.686 6.907S70.11 4.555 70.11.74L64.405.606c0 3.813-2.993 6.9-6.686 6.9-3.69 0-6.687-3.087-6.687-6.9l-6.71-.212c0 3.814-2.992 6.902-6.688 6.902-3.687 0-6.68-3.088-6.68-6.902l-5.71.073c0 3.812-2.99 6.903-6.683 6.903-3.69 0-6.686-3.09-6.686-6.903l-5.83-.07v7.417h-6.51l.07 6.02c2.944 0 5.443 1.85 6.44 4.438v4.932c-.997 2.59-3.496 4.435-6.44 4.435l-.072 5.896c3.034 0 5.58 1.962 6.512 4.67v4.46c-.932 2.71-3.478 4.675-6.512 4.675l.21 6.93c2.814 0 5.222 1.682 6.302 4.09v5.628c-1.08 2.405-3.488 4.09-6.3 4.09l.136 5.89c2.708 0 5.03 1.568 6.164 3.832v6.143c-1.134 2.263-3.456 3.832-6.164 3.832l-.068 7.832c2.76 0 5.124 1.626 6.232 3.963v5.88c-1.11 2.336-3.472 3.962-6.232 3.962l-.14 5.892c2.865 0 5.325 1.745 6.373 4.228v5.356c-1.048 2.48-3.507 4.227-6.374 4.227l.282 6.93c2.655 0 4.932 1.51 6.092 3.7v6.404c-1.16 2.19-3.437 3.697-6.092 3.697l.07 5.896c2.602 0 4.842 1.452 6.02 3.573v6.654c-1.178 2.123-3.418 3.577-6.02 3.577l-.068 7.426h6.09v7.42l5.83-.07c0-3.812 2.995-6.904 6.686-6.904 3.693 0 6.682 3.09 6.682 6.903l5.712.073c0-3.815 2.992-6.904 6.68-6.904 3.695 0 6.688 3.09 6.688 6.904l6.71-.212c0-3.814 2.995-6.902 6.685-6.902 3.693 0 6.686 3.088 6.686 6.902l5.705-.137c0-3.813 2.994-6.906 6.687-6.906s6.686 3.094 6.686 6.907l7.584.068c0-3.812 2.99-6.902 6.686-6.902 3.693 0 6.683 3.09 6.683 6.902l5.705.14c0-3.81 2.996-6.903 6.69-6.903 3.69 0 6.685 3.092 6.685 6.904l6.71-.28c0-3.815 2.992-6.907 6.685-6.907 3.694 0 6.682 3.09 6.682 6.905l5.712-.07c0-3.812 2.99-6.903 6.68-6.903 3.693 0 6.688 3.09 6.688 6.903l7.19.068v-7h6.092l-.07-7.426c-2.602 0-4.84-1.454-6.022-3.578v-6.653c1.18-2.122 3.42-3.574 6.023-3.574l.07-5.896c-2.654 0-4.934-1.51-6.093-3.7v-6.402c1.16-2.19 3.438-3.7 6.094-3.7l.28-6.93c-2.867 0-5.326-1.745-6.374-4.23v-5.35c1.048-2.485 3.507-4.23 6.375-4.23l-.142-5.892c-2.76 0-5.125-1.626-6.233-3.963v-5.88c1.108-2.34 3.473-3.965 6.233-3.965l-.068-7.832c-2.71 0-5.03-1.568-6.165-3.833V77.8c1.135-2.263 3.456-3.833 6.165-3.833l.137-5.89c-2.814 0-5.223-1.686-6.302-4.09V58.36c1.078-2.408 3.487-4.09 6.3-4.09z" fill="none"/><path stroke="#4F5877" stroke-width="2" stroke-miterlimit="10" fill="none" d="M14.702 14.68h146.505v155.427H14.702z"/><path fill="#FEEAA2" stroke="#4F5877" stroke-width="1.226" stroke-linecap="round" stroke-linejoin="round" stroke-miterlimit="10" d="M115.7 141.898L36.24 57.32 25.944 31.437 51.56 42.255l79.818 84.958"/><path stroke="#9E8271" stroke-width="1.226" stroke-miterlimit="10" fill="none" d="M120.94 136.99L44.53 55.66M126.33 131.94L49.92 50.61"/><path fill="#FACBC1" stroke="#4F5877" stroke-width="1.226" stroke-linecap="round" stroke-linejoin="round" stroke-miterlimit="10" d="M115.88 142.09l16.33 17.38c3.463 3.688 10.61 2.622 14.304-.84 3.69-3.456 4.837-10.158 1.373-13.845l-15.97-17"/><path fill="#F47D30" d="M135.333 125.304c-.494-.525-1.325-.554-1.85-.06l-19.694 18.443c-.53.496-.555 1.327-.06 1.853.493.527 1.324.555 1.854.06l19.694-18.445c.525-.494.55-1.324.055-1.85"/><path fill="#C7C9CA" stroke="#4F5877" stroke-width="1.226" stroke-miterlimit="10" d="M135.333 125.304c-.494-.525-1.325-.554-1.85-.06l-19.694 18.443c-.53.496-.555 1.327-.06 1.853.493.527 1.324.555 1.854.06l19.694-18.445c.525-.494.55-1.324.055-1.85z"/><path fill="#F47D30" d="M140.18 130.46c-.496-.524-1.327-.553-1.853-.06l-19.693 18.444c-.53.496-.554 1.325-.06 1.853.494.525 1.323.553 1.853.057l19.693-18.445c.526-.495.552-1.324.06-1.85"/><path fill="#C7C9CA" stroke="#4F5877" stroke-width="1.226" stroke-miterlimit="10" d="M140.18 130.46c-.496-.524-1.327-.553-1.853-.06l-19.693 18.444c-.53.496-.554 1.325-.06 1.853.494.525 1.323.553 1.853.057l19.693-18.445c.526-.495.552-1.324.06-1.85z"/><path fill="#F47D30" d="M145.02 135.616c-.493-.525-1.323-.553-1.85-.06l-19.692 18.445c-.53.497-.556 1.324-.062 1.852.497.527 1.326.553 1.855.06l19.694-18.447c.527-.492.554-1.32.057-1.85"/><path fill="#C7C9CA" stroke="#4F5877" stroke-width="1.226" stroke-miterlimit="10" d="M145.02 135.616c-.493-.525-1.323-.553-1.85-.06l-19.692 18.445c-.53.497-.556 1.324-.062 1.852.497.527 1.326.553 1.855.06l19.694-18.447c.527-.492.554-1.32.057-1.85z"/><path fill="#9E8271" stroke="#4F5877" stroke-width=".919" stroke-miterlimit="10" d="M45.03 55.19l75.986 80.883-1.566 1.467-75.987-80.883zM125.125 132.228l-75.987-80.88 1.564-1.47 75.987 80.88z"/><path fill="#F2E2D3" stroke="#4F5877" stroke-width=".919" stroke-miterlimit="10" d="M36.24 57.32L25.993 31.39l25.57 10.865z"/><path fill="#4F5877" d="M29.198 39.34l-3.206-7.95 8.01 3.45z"/><path fill="#FACBC1" d="M235.86 14.68h146.504v155.427H235.86z"/><path stroke="#4F5877" stroke-miterlimit="10" d="M397.32 54.27l.213-6.93c-3.036 0-5.584-1.963-6.515-4.68v-4.45c.93-2.713 3.48-4.675 6.515-4.675l-.073-5.897c-2.943 0-5.444-1.845-6.44-4.436v-4.928c.996-2.592 3.497-4.44 6.44-4.44l.07-6.02h-6.512V.816l-7.19.067c0 3.812-2.995 6.902-6.688 6.902-3.69 0-6.68-3.09-6.68-6.902l-5.713-.07c0 3.815-2.987 6.904-6.682 6.904-3.693 0-6.685-3.09-6.685-6.904l-6.71-.28c0 3.812-2.996 6.903-6.688 6.903-3.692 0-6.688-3.09-6.688-6.903l-5.705.14c0 3.81-2.99 6.902-6.683 6.902-3.697 0-6.687-3.092-6.687-6.902l-7.585.068c0 3.814-2.993 6.907-6.686 6.907-3.694 0-6.688-3.094-6.688-6.908l-5.704-.136c0 3.813-2.993 6.9-6.687 6.9-3.687 0-6.685-3.087-6.685-6.9l-6.71-.212c0 3.814-2.992 6.902-6.688 6.902-3.688 0-6.68-3.088-6.68-6.902L246.4.467c0 3.812-2.99 6.903-6.682 6.903-3.69 0-6.687-3.09-6.687-6.903l-5.828-.07v7.417h-6.51l.07 6.02c2.943 0 5.442 1.85 6.44 4.438v4.932c-.998 2.59-3.497 4.435-6.44 4.435l-.073 5.896c3.033 0 5.58 1.962 6.512 4.67v4.46c-.93 2.71-3.48 4.675-6.513 4.675l.21 6.93c2.813 0 5.223 1.682 6.302 4.09v5.628c-1.08 2.405-3.488 4.09-6.3 4.09l.136 5.89c2.71 0 5.03 1.568 6.164 3.832v6.143c-1.135 2.263-3.455 3.832-6.164 3.832l-.068 7.832c2.76 0 5.124 1.626 6.232 3.963v5.88c-1.108 2.336-3.473 3.962-6.232 3.962l-.142 5.892c2.866 0 5.326 1.745 6.374 4.228v5.356c-1.048 2.48-3.508 4.227-6.374 4.227l.282 6.93c2.654 0 4.932 1.51 6.092 3.7v6.404c-1.16 2.19-3.438 3.697-6.092 3.697l.07 5.896c2.602 0 4.842 1.452 6.02 3.573v6.654c-1.18 2.123-3.42 3.577-6.02 3.577l-.068 7.426h6.09v7.42l5.83-.07c0-3.812 2.994-6.904 6.686-6.904 3.692 0 6.682 3.09 6.682 6.903l5.713.073c0-3.815 2.992-6.904 6.68-6.904 3.695 0 6.688 3.09 6.688 6.904l6.71-.212c0-3.814 2.998-6.902 6.687-6.902 3.693 0 6.687 3.088 6.687 6.902l5.704-.137c0-3.813 2.993-6.906 6.687-6.906 3.692 0 6.686 3.094 6.686 6.907l7.586.068c0-3.812 2.99-6.902 6.687-6.902 3.692 0 6.682 3.09 6.682 6.902l5.705.14c0-3.81 2.995-6.903 6.688-6.903 3.69 0 6.687 3.092 6.687 6.904l6.71-.28c0-3.815 2.992-6.907 6.686-6.907 3.695 0 6.683 3.09 6.683 6.905l5.712-.07c0-3.812 2.99-6.903 6.68-6.903 3.693 0 6.69 3.09 6.69 6.903l7.19.068v-7h6.09l-.067-7.426c-2.602 0-4.843-1.454-6.023-3.578v-6.653c1.18-2.122 3.422-3.574 6.023-3.574l.07-5.896c-2.654 0-4.935-1.51-6.094-3.7v-6.402c1.16-2.19 3.44-3.7 6.094-3.7l.28-6.93c-2.866 0-5.326-1.745-6.374-4.23v-5.35c1.048-2.485 3.508-4.23 6.375-4.23l-.142-5.892c-2.76 0-5.126-1.626-6.234-3.963v-5.88c1.108-2.34 3.475-3.965 6.234-3.965l-.068-7.832c-2.71 0-5.03-1.568-6.166-3.833V77.8c1.136-2.263 3.457-3.833 6.166-3.833l.137-5.89c-2.814 0-5.224-1.686-6.303-4.09V58.36c1.074-2.408 3.483-4.09 6.297-4.09z" fill="none"/><path stroke="#4F5877" stroke-width="2" stroke-miterlimit="10" fill="none" d="M235.86 14.68h146.504v155.427H235.86z"/><path fill="#E95424" d="M355.706 126.298l-92.58.164-.178-86.026 92.593-.176z"/><path fill="#fff" stroke="#4F5877" stroke-miterlimit="10" d="M329.317 100.616l-40.298.088-.113-60.32 40.298-.065z"/><path fill="#FAB585" stroke="#4F5877" stroke-miterlimit="10" d="M263.2 126.354l92.424-.175.035 18.172-92.418.175z"/><path stroke="#4F5877" stroke-width="1.52" stroke-miterlimit="10" fill="none" d="M355.706 126.298l-.165-86.038-92.592.176.177 86.026.117 18.065 92.417-.175z"/></svg>