<svg xmlns="http://www.w3.org/2000/svg" width="603" height="18" viewBox="0 0 603 18"><g fill="#fff"><path d="M163.99 8.644h9.737V1.32c0-1.286 1.932-1.286 1.932 0v15.637c0 1.315-1.933 1.37-1.933 0v-6.624h-9.736v6.624c0 1.396-1.903 1.234-1.903 0V1.32c0-1.313 1.904-1.232 1.904 0v7.324zM181.615 15.966h10.45c1.11 0 1.27 1.77 0 1.77h-11.138c-.742 0-1.217-.536-1.217-1.18V1.83c0-.616.476-1.152 1.217-1.152h11.163c1.138 0 1.085 1.716-.026 1.716h-10.45V8.43h9.948c1.058 0 1.11 1.715 0 1.715h-9.947v5.82zM197.625 17.735c-.714 0-1.005-.35-1.005-.992V1.35c0-1.262 1.958-1.262 1.958 0v14.616h9.894c1.35 0 1.35 1.77 0 1.77h-10.847zM212.867 17.735c-.714 0-1.005-.35-1.005-.992V1.35c0-1.262 1.958-1.262 1.958 0v14.616h9.895c1.35 0 1.35 1.77 0 1.77h-10.848zM225.014 8.912c0-4.21 2.804-7.805 7.01-8.476.98-.134 1.88-.107 2.805 0 4.073.644 7.22 4.077 7.22 8.476 0 5.58-3.968 9.12-8.465 9.12-4.762 0-8.57-3.434-8.57-9.12zm1.985.08c0 4.4 2.855 7.188 6.586 7.188 3.572 0 6.508-2.683 6.508-7.188 0-3.46-2.248-6.222-5.502-6.76-.793-.106-1.56-.106-2.302 0-3.202.51-5.29 3.113-5.29 6.76zM264.57 17.065c-1.27.59-2.698.966-3.968.966-4.523 0-8.598-3.755-8.598-9.065 0-4.4 3.095-7.885 7.17-8.53 3.094-.428 5.792.35 7.883 2.576.793.913-.635 2.013-1.376 1.208-1.798-1.93-3.888-2.226-6.216-1.958-3.254.51-5.555 2.843-5.555 6.732 0 4.076 3.094 7.188 6.745 7.188.978 0 2.063-.27 3.07-.778.82-.43 1.612-1.073 2.168-1.797.608-.91 2.223.08 1.535 1.072-.714 1.02-1.72 1.825-2.857 2.388zM269.602 8.912c0-4.21 2.804-7.805 7.01-8.476.98-.134 1.88-.107 2.805 0 4.074.644 7.222 4.077 7.222 8.476 0 5.58-3.97 9.12-8.467 9.12-4.762 0-8.57-3.434-8.57-9.12zm1.984.08c0 4.4 2.857 7.188 6.587 7.188 3.572 0 6.508-2.683 6.508-7.188 0-3.46-2.247-6.222-5.5-6.76-.794-.106-1.56-.106-2.303 0-3.2.51-5.29 3.113-5.29 6.76zM302.28 1.32c0-1.125 2.01-1.18 2.01 0v15.397c0 1.34-1.825 1.475-2.38.535l-9.895-13.436.21 3.7v9.47c0 1.312-2.008 1.34-2.008 0V1.615c0-1.34 1.48-1.555 2.142-.562l10.184 13.812-.265-4.05V1.322zM306.834 1.75c-.503-1.153 1.323-1.904 1.852-.75l6.8 13.73 6.64-13.677c.424-1.1 2.223-.51 1.825.697l-7.617 15.636c-.37.697-1.323.858-1.773-.08L306.834 1.75zM328.64 15.966h10.447c1.112 0 1.27 1.77 0 1.77H327.95c-.74 0-1.217-.536-1.217-1.18V1.83c0-.616.476-1.152 1.217-1.152h11.164c1.138 0 1.085 1.716-.027 1.716H328.64V8.43h9.945c1.06 0 1.11 1.715 0 1.715h-9.946v5.82zM355.573 1.32c0-1.125 2.01-1.18 2.01 0v15.397c0 1.34-1.824 1.475-2.38.535l-9.895-13.436.21 3.7v9.47c0 1.312-2.008 1.34-2.008 0V1.615c0-1.34 1.48-1.555 2.143-.562l10.185 13.812-.265-4.05V1.322zM361.742 1.027c0-1.34 1.984-1.314 1.984 0v16.04c0 1.23-1.984 1.286-1.984 0V1.026zM369.654 15.966h10.45c1.11 0 1.27 1.77 0 1.77h-11.14c-.74 0-1.216-.536-1.216-1.18V1.83c0-.616.476-1.152 1.217-1.152h11.164c1.137 0 1.084 1.716-.027 1.716h-10.45V8.43h9.947c1.06 0 1.11 1.715 0 1.715h-9.946v5.82zM396.59 1.32c0-1.125 2.01-1.18 2.01 0v15.397c0 1.34-1.825 1.475-2.38.535l-9.896-13.436.212 3.7v9.47c0 1.312-2.01 1.34-2.01 0V1.615c0-1.34 1.48-1.555 2.143-.562l10.184 13.812-.265-4.05V1.322zM414.53 17.065c-1.27.59-2.698.966-3.968.966-4.523 0-8.598-3.755-8.598-9.065 0-4.4 3.095-7.885 7.17-8.53 3.094-.428 5.793.35 7.883 2.576.794.913-.635 2.013-1.376 1.208-1.798-1.93-3.888-2.226-6.216-1.958-3.254.51-5.555 2.843-5.555 6.732 0 4.076 3.094 7.188 6.745 7.188.978 0 2.063-.27 3.068-.778.82-.43 1.613-1.073 2.17-1.797.607-.91 2.222.08 1.534 1.072-.713 1.02-1.718 1.825-2.856 2.388zM422.498 15.966h10.45c1.11 0 1.27 1.77 0 1.77H421.81c-.74 0-1.218-.536-1.218-1.18V1.83c0-.616.477-1.152 1.218-1.152h11.163c1.14 0 1.086 1.716-.026 1.716h-10.45V8.43h9.948c1.058 0 1.11 1.715 0 1.715h-9.947v5.82zM438.377 13.23c0 1.232-1.984 1.207-1.984 0V1.4c0-1.288 1.984-1.26 1.984 0V13.23zm.08 2.923c0-1.233-2.064-1.18-2.064 0v.912c0 1.1 2.063 1.232 2.063 0v-.912z"/></g><path stroke="#fff" stroke-width="2.015" stroke-linecap="round" stroke-miterlimit="10" fill="none" d="M463.778 9.332h139.286"/><path stroke="#fff" stroke-width="2.015" stroke-linecap="round" stroke-linejoin="round" stroke-miterlimit="10" fill="none" d="M.065 9.332H140.72"/></svg>