<?xml version="1.0" encoding="utf-8"?>
<!-- Generator: Adobe Illustrator 15.1.0, SVG Export Plug-In . SVG Version: 6.00 Build 0)  -->
<!DOCTYPE svg PUBLIC "-//W3C//DTD SVG 1.1//EN" "http://www.w3.org/Graphics/SVG/1.1/DTD/svg11.dtd">
<svg version="1.1" id="Capa_1" xmlns="http://www.w3.org/2000/svg" xmlns:xlink="http://www.w3.org/1999/xlink" x="0px" y="0px"
	 width="297px" height="310px" viewBox="0 0 297 310" enable-background="new 0 0 297 310" xml:space="preserve">
<g>
	<path fill="#A6A8AC" d="M270.903,1.24L144.641,0.83L1.506,0.354L0.5,308.387l295.072,0.968l0.526-159.839L296.5,26.476
		C296.55,12.582,285.084,1.287,270.903,1.24z"/>
	
		<rect x="30.992" y="0.784" transform="matrix(1 0.0033 -0.0033 1 0.1761 -0.4322)" fill="#BBBDBF" width="202.298" height="105.633"/>
	
		<rect x="76.623" y="0.861" transform="matrix(1 0.0033 -0.0033 1 0.1768 -0.5078)" fill="#6E6F71" width="156.668" height="105.631"/>
	
		<rect x="166.339" y="15.408" transform="matrix(1 0.0033 -0.0033 1 0.2026 -0.6183)" fill="#D1D2D3" width="41.824" height="91.191"/>
	<polygon fill="#F2F2F2" points="268.191,309.264 30.157,308.486 30.77,121.283 268.81,122.065 	"/>
	
		<rect x="10.484" y="271.708" transform="matrix(1 0.0033 -0.0033 1 0.9139 -0.053)" fill="#6E6F71" width="12.171" height="12.162"/>
	
		<rect x="30.184" y="292.66" transform="matrix(1 0.0033 -0.0033 1 0.983 -0.4857)" fill="#6E6F71" width="238.036" height="16.215"/>
	
		<line fill="none" stroke="#929497" stroke-width="3.1027" stroke-miterlimit="10" x1="30.604" y1="202.396" x2="268.644" y2="203.18"/>
	
		<line fill="none" stroke="#929497" stroke-width="3.1027" stroke-miterlimit="10" x1="31.142" y1="234.112" x2="269.179" y2="234.893"/>
	
		<line fill="none" stroke="#929497" stroke-width="3.1027" stroke-miterlimit="10" x1="31.047" y1="262.131" x2="269.088" y2="262.907"/>
	<polygon fill="#FCE9A1" points="268.646,171.36 30.609,170.584 30.77,121.283 268.81,122.065 	"/>
</g>
</svg>
