<?xml version="1.0" encoding="utf-8"?>
<!-- Generator: Adobe Illustrator 15.1.0, SVG Export Plug-In . SVG Version: 6.00 Build 0)  -->
<!DOCTYPE svg PUBLIC "-//W3C//DTD SVG 1.1//EN" "http://www.w3.org/Graphics/SVG/1.1/DTD/svg11.dtd">
<svg version="1.1" id="Capa_1" xmlns="http://www.w3.org/2000/svg" xmlns:xlink="http://www.w3.org/1999/xlink" x="0px" y="0px"
	 width="137px" height="160px" viewBox="0 0 137 160" enable-background="new 0 0 137 160" xml:space="preserve">
<g>
	
		<rect x="6.854" y="39.285" fill="none" stroke="#9E8271" stroke-width="1.0015" stroke-linejoin="round" stroke-miterlimit="10" width="123.43" height="61.09"/>
	
		<path fill="#9E8271" stroke="#9E8271" stroke-width="0.2504" stroke-linecap="round" stroke-linejoin="round" stroke-miterlimit="10" d="
		M130.413,38.774c0,0-27.706,31.454-64.099,31.409l-0.001-0.016C29.084,71.218,6.854,38.773,6.854,38.773
		C2.547,49.851,0.134,62.259,0.134,75.364c0,46.725,30.669,84.605,68.5,84.605c37.831,0,68.5-37.88,68.5-84.605
		C137.133,62.259,134.72,49.851,130.413,38.774z"/>
	<path fill="#8D7465" d="M67.082,64.977v0.012c23.1,0.029,40.886-19.182,42.182-20.62v-0.094H27.876v0.003
		C27.876,44.278,42.533,65.671,67.082,64.977z"/>
	
		<path fill="none" stroke="#8D7465" stroke-width="2.8352" stroke-linecap="round" stroke-linejoin="round" stroke-miterlimit="10" d="
		M16.601,52.854c0,0-20.498,73.887,46.123,105.039"/>
	<path fill="none" stroke="#8D7465" stroke-width="2.8352" stroke-linecap="round" stroke-miterlimit="10" d="M122.228,52.854
		c0,0,20.497,73.887-46.122,105.039"/>
	<path fill="none" stroke="#8D7465" stroke-width="2.7244" stroke-linecap="round" stroke-miterlimit="10" d="M70.354,154.228
		c0,0-55.038-25.757-33.069-87.913"/>
	<path fill="none" stroke="#8D7465" stroke-width="2.7244" stroke-linecap="round" stroke-miterlimit="10" d="M76.105,152.575
		c0,0,37.003-38.049,19.759-86.26"/>
	
		<line fill="none" stroke="#BC9B8A" stroke-width="2.6365" stroke-linecap="round" stroke-miterlimit="10" x1="60.448" y1="62.813" x2="42.172" y2="26.529"/>
	<polygon fill="#82E499" points="39.344,5.007 89.087,14.641 6.854,49.172 31.278,7.693 36.877,8.818 	"/>
	<polygon fill="#F79D82" points="6.929,48.949 31.141,7.828 30.55,39.023 	"/>
	<polygon fill="#F79D82" points="35.748,4.281 89.087,14.641 68.119,23.445 	"/>
	<path fill="#FEEAA2" d="M39.47,5.003c0,2.784-2.25,5.038-5.029,5.038c-2.785,0-5.035-2.254-5.035-5.038
		c0-2.776,2.25-5.034,5.035-5.034C37.22-0.031,39.47,2.227,39.47,5.003z"/>
</g>
</svg>
