<?xml version="1.0" encoding="utf-8"?>
<!-- Generator: Adobe Illustrator 15.1.0, SVG Export Plug-In . SVG Version: 6.00 Build 0)  -->
<!DOCTYPE svg PUBLIC "-//W3C//DTD SVG 1.1//EN" "http://www.w3.org/Graphics/SVG/1.1/DTD/svg11.dtd">
<svg version="1.1" id="Capa_1" xmlns="http://www.w3.org/2000/svg" xmlns:xlink="http://www.w3.org/1999/xlink" x="0px" y="0px"
	 width="139px" height="144px" viewBox="0 0 139 144" enable-background="new 0 0 139 144" xml:space="preserve">
<g>
	<g>
		<path fill="none" stroke="#4F5877" stroke-linecap="round" stroke-linejoin="round" stroke-miterlimit="10" d="M138.486,42.139
			l0.166-5.428c-2.373,0-4.365-1.537-5.094-3.663v-3.487c0.729-2.123,2.721-3.66,5.094-3.66l-0.057-4.619
			c-2.304,0-4.258-1.445-5.037-3.474V13.95c0.779-2.031,2.733-3.479,5.037-3.479l0.055-4.715h-5.092v-5.48l-5.623,0.053
			c0,2.986-2.342,5.406-5.229,5.406s-5.225-2.42-5.225-5.406l-4.467-0.055c0,2.986-2.336,5.408-5.226,5.408
			s-5.229-2.422-5.229-5.408l-5.246-0.219c0,2.984-2.344,5.406-5.229,5.406c-2.888,0-5.229-2.422-5.229-5.406l-4.461,0.109
			c0,2.984-2.338,5.406-5.227,5.406c-2.891,0-5.229-2.422-5.229-5.406l-5.932,0.053c0,2.988-2.34,5.408-5.229,5.408
			c-2.888,0-5.228-2.42-5.228-5.408L51.09,0.112c0,2.986-2.34,5.404-5.228,5.404c-2.886,0-5.229-2.418-5.229-5.404L35.39-0.055
			c0,2.986-2.341,5.406-5.231,5.406c-2.883,0-5.223-2.42-5.223-5.406l-4.467,0.057c0,2.984-2.337,5.407-5.226,5.407
			c-2.886,0-5.228-2.423-5.228-5.407L5.456-0.053v5.809H0.365l0.055,4.715c2.303,0,4.257,1.447,5.036,3.475v3.863
			c-0.779,2.027-2.733,3.473-5.036,3.473L0.364,25.9c2.373,0,4.364,1.537,5.092,3.658v3.49c-0.729,2.125-2.72,3.662-5.092,3.662
			l0.165,5.428c2.2,0,4.083,1.316,4.927,3.203v4.408c-0.845,1.883-2.727,3.201-4.927,3.201l0.107,4.614
			c2.118,0,3.933,1.228,4.82,3.001v4.811c-0.887,1.773-2.702,3.002-4.82,3.002l-0.054,6.134c2.159,0,4.007,1.273,4.874,3.104v4.604
			c-0.867,1.829-2.715,3.104-4.874,3.104l-0.11,4.613c2.241,0,4.164,1.367,4.983,3.312v4.192c-0.819,1.943-2.743,3.312-4.983,3.312
			l0.22,5.427c2.076,0,3.857,1.182,4.764,2.897v5.016c-0.906,1.718-2.688,2.897-4.764,2.897l0.055,4.617
			c2.035,0,3.787,1.138,4.709,2.799v5.212c-0.922,1.661-2.674,2.801-4.709,2.801l-0.053,5.815h4.762v5.812l4.559-0.055
			c0-2.986,2.342-5.408,5.228-5.408c2.888,0,5.226,2.422,5.226,5.408l4.467,0.056c0-2.986,2.34-5.404,5.223-5.404
			c2.89,0,5.231,2.418,5.231,5.404l5.247-0.165c0-2.987,2.343-5.405,5.229-5.405c2.888,0,5.228,2.418,5.228,5.405l4.461-0.106
			c0-2.986,2.34-5.408,5.228-5.408c2.888,0,5.229,2.422,5.229,5.408l5.931,0.054c0-2.985,2.338-5.405,5.229-5.405
			c2.889,0,5.227,2.42,5.227,5.405l4.461,0.11c0-2.984,2.343-5.406,5.229-5.406c2.886,0,5.229,2.422,5.229,5.406l5.246-0.222
			c0-2.985,2.34-5.407,5.229-5.407s5.226,2.422,5.226,5.407l4.467-0.053c0-2.985,2.338-5.408,5.225-5.408
			c2.889,0,5.229,2.423,5.229,5.408l5.623,0.053v-5.481h4.765l-0.054-5.816c-2.035,0-3.787-1.139-4.711-2.803v-5.209
			c0.924-1.662,2.676-2.799,4.711-2.799l0.055-4.618c-2.076,0-3.857-1.183-4.766-2.897v-5.016c0.906-1.715,2.688-2.898,4.766-2.898
			l0.221-5.426c-2.242,0-4.166-1.367-4.984-3.312v-4.188c0.818-1.946,2.742-3.313,4.984-3.313l-0.111-4.613
			c-2.158,0-4.008-1.273-4.873-3.104v-4.604c0.865-1.831,2.715-3.104,4.873-3.104l-0.053-6.134c-2.119,0-3.934-1.229-4.82-3.003
			v-4.808c0.888-1.773,2.701-3.003,4.82-3.003l0.106-4.614c-2.2,0-4.084-1.318-4.929-3.203v-4.406
			C134.402,43.457,136.287,42.139,138.486,42.139z"/>
		
			<rect x="12.226" y="11.135" fill="#E6E9ED" stroke="#4F5877" stroke-width="2" stroke-miterlimit="10" width="114.565" height="121.725"/>
	</g>
	<g>
		<g>
			<path fill="#F79B82" stroke="#4F5877" stroke-miterlimit="10" d="M118.773,99.725c0.238,0.867-0.271,1.764-1.14,2l-56.686,15.584
				c-0.866,0.238-1.761-0.271-2-1.138L45.19,66.121c-0.238-0.866,0.271-1.761,1.138-2.001l56.686-15.582
				c0.867-0.238,1.764,0.271,2,1.138L118.773,99.725z"/>
			
				<line fill="none" stroke="#4F5877" stroke-width="1.2756" stroke-miterlimit="10" x1="87.247" y1="52.872" x2="101.869" y2="106.061"/>
			
				<rect x="88.708" y="79.922" transform="matrix(-0.9643 0.265 -0.265 -0.9643 209.6816 135.1726)" fill="#FCF9F0" width="14.031" height="3.613"/>
		</g>
		<g>
			<path fill="#82E499" stroke="#4F5877" stroke-width="1.0949" stroke-miterlimit="10" d="M76.881,99.077
				c-0.213,0.874-1.094,1.407-1.967,1.196L17.798,86.352c-0.874-0.213-1.409-1.092-1.196-1.967l12.292-50.43
				c0.212-0.872,1.092-1.409,1.966-1.196l57.117,13.922c0.873,0.214,1.41,1.094,1.196,1.968L76.881,99.077z"/>
			
				<line fill="none" stroke="#4F5877" stroke-width="1.2756" stroke-miterlimit="10" x1="72.091" y1="42.809" x2="59.028" y2="96.4"/>
			
				<rect x="58.468" y="70.349" transform="matrix(-0.9716 -0.2368 0.2368 -0.9716 112.0233 157.7655)" fill="#FCF9F0" width="14.033" height="3.615"/>
		</g>
	</g>
</g>
</svg>
