<?xml version="1.0" encoding="utf-8"?>
<!-- Generator: Adobe Illustrator 15.1.0, SVG Export Plug-In . SVG Version: 6.00 Build 0)  -->
<!DOCTYPE svg PUBLIC "-//W3C//DTD SVG 1.1//EN" "http://www.w3.org/Graphics/SVG/1.1/DTD/svg11.dtd">
<svg version="1.1" id="Capa_1" xmlns="http://www.w3.org/2000/svg" xmlns:xlink="http://www.w3.org/1999/xlink" x="0px" y="0px"
	 width="139px" height="145px" viewBox="0 0 139 145" enable-background="new 0 0 139 145" xml:space="preserve">
<g>
	<g>
		<g>
			<defs>
				<rect id="SVGID_1_" x="11.777" y="11.259" width="115.154" height="122.483"/>
			</defs>
			<clipPath id="SVGID_2_">
				<use xlink:href="#SVGID_1_"  overflow="visible"/>
			</clipPath>
		</g>
		<g>
			<g>
				
					<path fill="none" stroke="#4F5877" stroke-width="1.0057" stroke-linecap="round" stroke-linejoin="round" stroke-miterlimit="10" d="
					M138.688,42.454l0.168-5.459c-2.387,0-4.389-1.547-5.121-3.686V29.8c0.732-2.136,2.734-3.683,5.121-3.683l-0.059-4.648
					c-2.314,0-4.279-1.452-5.062-3.495v-3.882c0.783-2.044,2.748-3.5,5.062-3.5l0.057-4.744h-5.119V0.332l-5.652,0.053
					c0,3.005-2.354,5.44-5.256,5.44c-2.9,0-5.25-2.435-5.25-5.44l-4.49-0.055c0,3.005-2.35,5.442-5.254,5.442
					c-2.9,0-5.252-2.437-5.252-5.442l-5.275-0.222c0,3.005-2.354,5.442-5.256,5.442s-5.258-2.437-5.258-5.442L82.309,0.22
					c0,3.003-2.352,5.44-5.254,5.44c-2.904,0-5.254-2.437-5.254-5.44l-5.962,0.053c0,3.007-2.352,5.442-5.255,5.442
					c-2.902,0-5.255-2.435-5.255-5.442l-4.484-0.108c0,3.007-2.352,5.44-5.255,5.44c-2.9,0-5.255-2.433-5.255-5.44L35.061,0
					c0,3.005-2.353,5.44-5.258,5.44c-2.898,0-5.25-2.435-5.25-5.44l-4.49,0.057c0,3.003-2.35,5.441-5.252,5.441
					c-2.901,0-5.255-2.438-5.255-5.441L4.973,0.002v5.845h-5.117l0.055,4.744c2.314,0,4.279,1.457,5.062,3.497v3.887
					c-0.783,2.042-2.748,3.494-5.062,3.494l-0.057,4.648c2.385,0,4.386,1.547,5.119,3.681v3.512
					c-0.732,2.138-2.734,3.685-5.119,3.685l0.166,5.459c2.211,0,4.104,1.327,4.953,3.225v4.436
					c-0.849,1.895-2.741,3.221-4.953,3.221l0.108,4.643c2.129,0,3.954,1.236,4.845,3.02v4.841c-0.891,1.784-2.716,3.021-4.845,3.021
					l-0.054,6.171c2.17,0,4.027,1.281,4.898,3.125v4.631c-0.871,1.842-2.729,3.123-4.898,3.123l-0.11,4.643
					c2.252,0,4.185,1.375,5.009,3.334v4.219c-0.824,1.955-2.757,3.33-5.009,3.33l0.221,5.461c2.087,0,3.877,1.189,4.788,2.916v5.047
					c-0.911,1.727-2.701,2.916-4.788,2.916l0.055,4.646c2.045,0,3.806,1.145,4.733,2.816v5.242c-0.927,1.674-2.688,2.82-4.733,2.82
					l-0.053,5.852h4.786V145l4.583-0.057c0-3.004,2.354-5.441,5.255-5.441c2.903,0,5.252,2.438,5.252,5.441l4.49,0.057
					c0-3.004,2.352-5.439,5.25-5.439c2.905,0,5.258,2.436,5.258,5.439l5.273-0.166c0-3.006,2.355-5.439,5.255-5.439
					c2.903,0,5.255,2.434,5.255,5.439l4.484-0.107c0-3.006,2.353-5.443,5.255-5.443c2.903,0,5.255,2.438,5.255,5.443l5.962,0.053
					c0-3.004,2.35-5.438,5.254-5.438c2.902,0,5.254,2.434,5.254,5.438l4.482,0.111c0-3.002,2.355-5.439,5.258-5.439
					s5.256,2.438,5.256,5.439l5.275-0.223c0-3.004,2.352-5.441,5.252-5.441c2.904,0,5.254,2.438,5.254,5.441l4.49-0.053
					c0-3.004,2.35-5.441,5.25-5.441c2.902,0,5.256,2.438,5.256,5.441l5.652,0.053v-5.516h4.789l-0.055-5.852
					c-2.047,0-3.805-1.146-4.734-2.822v-5.24c0.93-1.672,2.688-2.816,4.734-2.816l0.057-4.646c-2.088,0-3.879-1.191-4.791-2.916
					v-5.047c0.912-1.725,2.703-2.916,4.791-2.916l0.221-5.461c-2.256,0-4.188-1.375-5.012-3.332v-4.215
					c0.824-1.961,2.756-3.336,5.012-3.336l-0.111-4.643c-2.17,0-4.027-1.281-4.9-3.123v-4.631c0.873-1.844,2.73-3.125,4.9-3.125
					l-0.055-6.171c-2.129,0-3.953-1.237-4.846-3.021V61c0.893-1.784,2.717-3.021,4.846-3.021l0.107-4.643
					c-2.213,0-4.105-1.327-4.953-3.223v-4.434C134.582,43.783,136.475,42.454,138.688,42.454z"/>
				
					<rect x="11.777" y="11.259" fill="#82E499" stroke="#4F5877" stroke-width="2.0114" stroke-miterlimit="10" width="115.154" height="122.483"/>
			</g>
		</g>
	</g>
	<g>
		<path fill-rule="evenodd" clip-rule="evenodd" fill="#FFFFFF" d="M97.182,20.451h8.982c0.039,0.461,0.104,0.841,0.104,1.211
			c0.02,14.861,0.088,29.734-0.02,44.589c-0.049,4.679-0.504,9.354-1.811,13.903c-2.975,10.424-9.742,17.109-19.959,20.443
			c-3.686,1.209-7.514,1.773-11.355,1.799c-7.247,0.057-14.345-0.869-20.844-4.439c-6.827-3.721-10.964-9.525-12.955-16.947
			c-0.89-3.312-1.41-6.671-1.581-10.073c-0.204-4.622-0.375-9.25-0.456-13.873c-0.138-8.166-0.237-16.332-0.293-24.495
			c-0.023-3.779,1.374-7.012,4.102-9.66c2.279-2.201,5.029-3.303,8.102-3.64c1.45-0.156,2.939-0.027,4.603-0.027
			c0.06,0.627,0.159,1.175,0.17,1.732c0.131,13.045,0.159,26.106,0.432,39.171c0.111,5.367,0.08,10.795,1.406,16.077
			c0.697,2.754,1.676,5.389,3.188,7.818c2.223,3.51,5.254,5.994,9.135,7.344c4.982,1.715,10.041,2.027,15.15,0.594
			c5.053-1.4,8.48-4.672,10.643-9.338c1.625-3.531,2.615-7.258,2.891-11.136c0.188-3.003,0.381-6.027,0.381-9.046
			c0.029-13.374-0.014-26.76-0.014-40.149V20.451z"/>
		<path fill-rule="evenodd" clip-rule="evenodd" fill="#FFFFFF" d="M44.948,121.164c-1.159,0.684-1.565,1.602-1.482,2.805
			c0.062,0.889,0.013,1.785,0.013,2.828h-2.566c-0.091-6.057-0.05-12.125-0.124-18.273c1.333-0.084,2.056,0.41,2.298,1.488
			c0.176,0.932,0.309,1.887,0.34,2.852c0.071,1.625,0.061,3.252,0.428,4.998c0.962-1.275,1.836-2.607,2.871-3.799
			c1.403-1.637,3.201-2.41,5.29-2.096c-1.879,2.203-3.753,4.377-5.701,6.648c2.422,3.463,4.681,6.781,8.056,9.547
			c-1.972,0.465-3.458-0.053-4.745-1.17c-0.718-0.615-1.299-1.402-1.889-2.158C46.782,123.625,45.871,122.398,44.948,121.164"/>
		<path fill-rule="evenodd" clip-rule="evenodd" fill="#FFFFFF" d="M90.012,121.119H79.107c-0.303,1.379,0.312,2.248,1.174,2.932
			c1.631,1.238,3.473,1.436,5.236,0.428c1.211-0.701,2.381-0.691,3.68-0.559c-1.137,2.916-5.461,4.115-8.887,2.82
			c-3.104-1.182-4.744-4.738-3.748-8.098c1.035-3.508,4.336-5.234,8.428-4.428C88.309,114.867,90.328,117.512,90.012,121.119
			 M87.502,119.178c-0.971-2.354-2.547-3.332-4.725-3.119c-1.939,0.199-3.223,1.252-3.623,3.119H87.502z"/>
		<path fill-rule="evenodd" clip-rule="evenodd" fill="#FFFFFF" d="M66.626,120.605c0.407,2.996-2.778,6.713-6.772,6.654
			c-3.954-0.041-7.044-2.842-7.062-6.596c-0.034-3.66,3.058-6.854,6.756-6.707C64.193,114.156,66.735,117.34,66.626,120.605
			 M59.741,116.4c-2.495-0.217-4.178,1.834-4.293,4.162c-0.097,2.455,1.832,4.463,4.242,4.473c2.479,0.008,4.333-1.883,4.299-4.41
			C63.979,118.148,62.238,116.43,59.741,116.4"/>
		<path fill-rule="evenodd" clip-rule="evenodd" fill="#FFFFFF" d="M96.459,120.088c-1.508-2.264-3.248-4.113-5.279-5.793
			c3.158-0.648,5.025,1.152,6.766,3.357c1.037-0.957,1.93-1.932,2.994-2.711c1.125-0.846,2.502-0.893,4.008-0.697
			c-2.02,1.805-3.875,3.617-5.268,5.883c1.857,2.549,3.621,5.07,6.258,6.988c-2.818,0.613-4.648-0.572-6.148-2.527
			c-0.527-0.689-1.066-1.396-1.74-2.27c-0.682,0.895-1.227,1.602-1.748,2.305c-1.453,1.965-3.277,3.033-5.988,2.537
			C92.84,125.117,94.65,122.635,96.459,120.088"/>
		<path fill-rule="evenodd" clip-rule="evenodd" fill="#FFFFFF" d="M70.506,116.172c-1.046-0.074-1.726-0.135-2.535-0.197
			c-0.056-1.652,1.347-1.811,2.406-2.383c0.059-1.139,0.119-2.275,0.18-3.477c2.492,0.096,2.213,2.141,2.732,3.656
			c0.846,0.068,1.652,0.131,2.527,0.201c0.109,1.893-1.328,1.971-2.641,2.264v10.518c-0.506,0.074-0.873,0.156-1.223,0.176
			c-0.367,0.02-0.752-0.041-1.361-0.082c-0.139-1.793-0.066-3.572-0.086-5.352C70.486,119.787,70.506,118.059,70.506,116.172"/>
		<path fill-rule="evenodd" clip-rule="evenodd" fill="#FFFFFF" d="M26.154,112.822c0-2.299-0.02-4.539,0.008-6.771
			c0-0.225,0.345-0.445,0.519-0.678c0.187,0.211,0.531,0.396,0.57,0.631c0.117,0.611,0.107,1.244,0.143,1.809
			c0.318,0.068,0.447,0.131,0.563,0.115c2.324-0.34,3.553,0.926,3.085,3.203c-0.286,1.352-1.089,1.977-2.476,1.883
			C27.877,112.965,27.181,112.898,26.154,112.822 M29.695,110.533c-0.091-0.406-0.159-0.783-0.29-1.129
			c-0.233-0.541-0.682-0.869-1.216-0.646c-0.356,0.141-0.72,0.568-0.796,0.936c-0.095,0.545-0.044,1.166,0.119,1.699
			c0.091,0.295,0.514,0.643,0.812,0.676c0.303,0.037,0.741-0.221,0.958-0.484C29.506,111.316,29.562,110.893,29.695,110.533"/>
		<path fill-rule="evenodd" clip-rule="evenodd" fill="#FFFFFF" d="M37.108,108.006c-0.699,2.271-1.234,4.236-1.939,6.158
			c-0.193,0.5-0.835,0.9-1.358,1.191c-0.622,0.332-1.242,0.141-1.723-0.58c0.596-0.592,1.929-0.039,2.028-1.443
			c-1.188-1.373-1.493-3.268-2.138-5.104c0.825-0.436,1.251-0.135,1.529,0.586c0.294,0.822,0.584,1.662,0.907,2.539
			C35.751,110.594,34.626,108.205,37.108,108.006"/>
	</g>
</g>
</svg>
