<?xml version="1.0" encoding="utf-8"?>
<!-- Generator: Adobe Illustrator 15.1.0, SVG Export Plug-In . SVG Version: 6.00 Build 0)  -->
<!DOCTYPE svg PUBLIC "-//W3C//DTD SVG 1.1//EN" "http://www.w3.org/Graphics/SVG/1.1/DTD/svg11.dtd">
<svg version="1.1" id="Capa_1" xmlns="http://www.w3.org/2000/svg" xmlns:xlink="http://www.w3.org/1999/xlink" x="0px" y="0px"
	 width="139px" height="145px" viewBox="0 0 139 145" enable-background="new 0 0 139 145" xml:space="preserve">
<g>
	<g>
		<g>
			<g>
				<defs>
					<rect id="SVGID_1_" x="11.923" y="11.257" width="115.153" height="122.485"/>
				</defs>
				<clipPath id="SVGID_2_">
					<use xlink:href="#SVGID_1_"  overflow="visible"/>
				</clipPath>
			</g>
			<g>
				<g>
					<path fill="none" stroke="#4F5877" stroke-width="1.0057" stroke-miterlimit="10" d="M138.833,42.455l0.167-5.46
						c-2.387,0-4.389-1.546-5.12-3.687V29.8c0.731-2.137,2.733-3.683,5.12-3.683l-0.058-4.648c-2.315,0-4.279-1.454-5.062-3.496
						v-3.881c0.783-2.044,2.747-3.5,5.062-3.5l0.055-4.744h-5.117V0.331l-5.652,0.054c0,3.003-2.354,5.44-5.256,5.44
						c-2.901,0-5.252-2.437-5.252-5.44L113.23,0.33c0,3.005-2.348,5.441-5.252,5.441c-2.903,0-5.255-2.436-5.255-5.441l-5.274-0.222
						c0,3.004-2.354,5.442-5.255,5.442c-2.902,0-5.257-2.438-5.257-5.442L82.454,0.22c0,3.001-2.352,5.439-5.254,5.439
						c-2.905,0-5.255-2.438-5.255-5.439l-5.961,0.053c0,3.006-2.352,5.442-5.255,5.442c-2.902,0-5.255-2.436-5.255-5.442
						L50.99,0.165c0,3.007-2.352,5.44-5.255,5.44c-2.9,0-5.255-2.433-5.255-5.44L35.206,0c0,3.005-2.353,5.439-5.258,5.439
						c-2.898,0-5.25-2.434-5.25-5.439l-4.49,0.055c0,3.005-2.35,5.442-5.252,5.442c-2.901,0-5.255-2.437-5.255-5.442L5.119,0.001
						v5.846H0.002l0.055,4.744c2.314,0,4.279,1.457,5.062,3.497v3.886c-0.783,2.041-2.748,3.495-5.062,3.495L0,26.117
						c2.384,0,4.386,1.546,5.118,3.681v3.511C4.386,35.448,2.385,36.995,0,36.995l0.166,5.46c2.211,0,4.104,1.327,4.953,3.223v4.437
						c-0.849,1.896-2.741,3.222-4.953,3.222l0.108,4.642c2.129,0,3.954,1.236,4.845,3.021v4.84
						c-0.891,1.784-2.716,3.021-4.845,3.021L0.22,75.031c2.17,0,4.027,1.281,4.898,3.123v4.633C4.248,84.629,2.39,85.91,0.22,85.91
						l-0.11,4.643c2.252,0,4.185,1.375,5.009,3.332v4.221c-0.824,1.955-2.757,3.332-5.009,3.332l0.221,5.459
						c2.087,0,3.877,1.189,4.788,2.916v5.047c-0.911,1.729-2.701,2.914-4.788,2.914l0.055,4.648c2.045,0,3.806,1.145,4.733,2.814
						v5.244c-0.927,1.674-2.688,2.82-4.733,2.82l-0.053,5.852h4.786V145l4.583-0.055c0-3.006,2.354-5.443,5.255-5.443
						c2.903,0,5.252,2.438,5.252,5.443l4.49,0.055c0-3.006,2.352-5.439,5.25-5.439c2.905,0,5.258,2.434,5.258,5.439l5.273-0.166
						c0-3.006,2.355-5.439,5.255-5.439c2.903,0,5.255,2.434,5.255,5.439l4.484-0.107c0-3.006,2.353-5.441,5.255-5.441
						c2.903,0,5.255,2.436,5.255,5.441l5.961,0.053c0-3.002,2.35-5.439,5.255-5.439c2.902,0,5.254,2.438,5.254,5.439l4.483,0.111
						c0-3.004,2.354-5.439,5.257-5.439c2.9,0,5.255,2.436,5.255,5.439l5.274-0.221c0-3.006,2.352-5.443,5.255-5.443
						c2.904,0,5.252,2.438,5.252,5.443l4.489-0.055c0-3.004,2.351-5.441,5.252-5.441c2.902,0,5.256,2.438,5.256,5.441l5.652,0.053
						v-5.516h4.788l-0.054-5.852c-2.046,0-3.807-1.146-4.734-2.82v-5.242c0.928-1.672,2.688-2.816,4.734-2.816l0.055-4.648
						c-2.087,0-3.878-1.188-4.789-2.914v-5.047c0.911-1.727,2.702-2.916,4.789-2.916l0.222-5.459c-2.254,0-4.188-1.377-5.011-3.336
						v-4.215c0.823-1.959,2.757-3.334,5.011-3.334l-0.111-4.643c-2.17,0-4.028-1.281-4.899-3.123v-4.631
						c0.871-1.844,2.729-3.125,4.899-3.125l-0.054-6.171c-2.13,0-3.953-1.238-4.846-3.023V61c0.893-1.784,2.716-3.021,4.846-3.021
						l0.107-4.642c-2.212,0-4.105-1.327-4.953-3.223V45.68C134.728,43.783,136.621,42.455,138.833,42.455z"/>
					
						<rect x="11.923" y="11.257" fill="#D0E7F9" stroke="#4F5877" stroke-width="2.0114" stroke-miterlimit="10" width="115.153" height="122.485"/>
				</g>
			</g>
		</g>
		<g>
			
				<path fill="#F79B82" stroke="#4F5877" stroke-width="0.9249" stroke-linecap="round" stroke-linejoin="round" stroke-miterlimit="10" d="
				M88.27,44.66L88.27,44.66C76.543,32.938,64.891,32.247,64.891,32.247c2.402,6.224,0.709,12.443-1.01,16.398
				C53.037,55.201,47.16,66.134,47.048,66.38l-0.001,0.001c-4.025-6.667-12.544-11.071-13.268-10.438
				c6.126,5.65,10.515,23.222,4.488,37.808c0.865,0.971,6.717-5.494,9.455-13.168c0.001,0.002,0.002,0.004,0.002,0.004
				c0.527,1.029,12.251,18.203,32.847,19.227c17.362,0.863,31.479-12.535,31.479-27.999C112.051,58.711,101.933,47.716,88.27,44.66z
				"/>
			<polyline fill="#F6F6FB" points="79.316,73.861 85.385,72.694 85.73,78.486 			"/>
			<polyline fill="#F6F6FB" points="85.73,78.672 91.172,75.432 92.643,80.822 			"/>
			<polyline fill="#F6F6FB" points="92.643,80.717 96.557,76.592 99.893,81.23 			"/>
			<polyline fill="#F6F6FB" points="99.818,81.23 101.863,76.988 105.559,80.262 			"/>
			<polyline fill="#F6F6FB" points="105.559,80.262 107.241,74.697 111.058,78.742 			"/>
			<path fill="none" stroke="#4F5877" stroke-width="1.0538" stroke-linecap="round" stroke-miterlimit="10" d="M73.3,64.058
				c0,0,7.641,25.266,37.758,14.684"/>
			<path fill="#F79B82" stroke="#4F5877" stroke-width="0.7025" stroke-miterlimit="10" d="M76.002,97.355
				c0,0-20.377,13-16.871,6.49c2.891-5.367,6.839-11.602,6.839-11.602"/>
			
				<path fill="#F79B82" stroke="#4F5877" stroke-width="0.7025" stroke-linecap="round" stroke-linejoin="round" stroke-miterlimit="10" d="
				M71.85,57.849"/>
			<path fill="#F6F6FB" d="M102.771,59.325c0.082,0.721,0.126,1.476,0.126,2.254c0,5.111-2.346,7.794-4.673,7.794
				c-2.326,0-3.753-2.684-3.753-7.794c0-2.067,0.188-3.602,0.709-5.143L102.771,59.325z"/>
			
				<line fill="#F79B82" stroke="#4F5877" stroke-width="1.0538" stroke-linecap="round" stroke-linejoin="round" stroke-miterlimit="10" x1="93.037" y1="55.573" x2="105.559" y2="60.611"/>
			<ellipse fill="#4F5877" cx="101.164" cy="63.684" rx="0.834" ry="1.429"/>
		</g>
	</g>
	<g>
		<g>
			<path fill="#FFFFFF" stroke="#4F5877" stroke-width="1.0057" stroke-miterlimit="10" d="M27.889,118.559v5.338
				c0,0.531-0.796,0.531-0.796,0.023v-14.66c0-0.24,0.169-0.41,0.41-0.41h6.08c4.078,0,6.152,2.295,6.152,5.023
				c0,2.607-1.737,4.443-5.259,4.709l4.995,5.145c0.386,0.412-0.121,0.941-0.507,0.557l-5.428-5.725H27.889z M27.889,117.857h5.718
				c3.739,0,5.355-1.787,5.308-3.984c-0.024-2.367-2.002-4.275-5.308-4.275h-5.718V117.857z"/>
			<path fill="#FFFFFF" stroke="#4F5877" stroke-width="1.0057" stroke-miterlimit="10" d="M54.425,118.051
				c0.024,0.338-0.097,0.797-0.748,0.797H42.821c0.12,1.039,0.506,2.029,1.23,2.875c1.013,1.207,2.533,1.836,4.101,1.859
				c1.327,0.023,2.678-0.387,3.788-1.232c0.434-0.338,1.013,0.145,0.555,0.604c-1.085,1.016-2.678,1.475-4.27,1.449
				c-1.882-0.023-3.74-0.723-4.849-2.148c-1.013-1.305-1.544-2.801-1.448-4.613c0.121-2.607,1.81-4.951,4.415-5.676
				c1.11-0.289,2.437-0.314,3.643,0C52.688,112.689,54.377,114.936,54.425,118.051z M42.796,118.051h10.809
				c-0.048-2.656-1.472-4.662-3.884-5.312c-0.965-0.242-2.099-0.242-3.088,0.023C44.22,113.414,42.821,115.637,42.796,118.051z"/>
			<path fill="#FFFFFF" stroke="#4F5877" stroke-width="1.0057" stroke-miterlimit="10" d="M68.634,123.848
				c0,3.479-2.605,5.289-5.887,5.289c-1.81,0-3.281-0.361-4.584-1.594c-0.458-0.459,0.121-0.941,0.555-0.604
				c1.399,1.062,2.412,1.377,4.029,1.377c2.654,0,5.042-1.426,5.042-4.469v-2.246c-0.796,1.885-2.654,2.85-4.657,2.898
				c-0.917,0.023-1.761-0.121-2.557-0.459c-2.292-0.895-3.595-3.141-3.667-5.578c-0.072-2.826,1.23-5.217,3.836-6.279
				c1.834-0.75,3.764-0.533,5.284,0.361c0.796,0.531,1.399,1.184,1.761,2.15v-2.393c0-0.266,0.145-0.434,0.41-0.434
				c0.266,0,0.435,0.168,0.435,0.434V123.848z M62.844,112.568c-1.085,0.072-2.123,0.436-2.968,1.088
				c-1.568,1.256-2.195,2.971-2.123,4.83c0.024,0.699,0.169,1.473,0.434,2.102c0.82,2.004,2.895,3.092,4.945,3.066
				c2.703-0.096,4.488-1.98,4.657-4.469v-2.1c-0.097-1.764-0.917-3.213-2.509-3.986C64.484,112.738,63.688,112.545,62.844,112.568z"
				/>
			<path fill="#FFFFFF" stroke="#4F5877" stroke-width="1.0057" stroke-miterlimit="10" d="M73.337,119.186
				c0,3.045,2.919,5.098,5.766,4.348c2.484-0.627,4.149-2.971,4.222-5.506v-5.773c0-0.264,0.145-0.434,0.409-0.434
				c0.267,0,0.436,0.17,0.436,0.434v11.666c0,0.219-0.169,0.41-0.436,0.41c-0.265,0-0.409-0.168-0.409-0.434v-3.479
				c-0.555,2.029-2.269,3.479-4.005,3.938c-3.112,0.676-6.827-1.16-6.827-5.17v-6.932c0-0.264,0.144-0.434,0.41-0.434
				c0.266,0,0.435,0.17,0.435,0.434V119.186z"/>
			<path fill="#FFFFFF" stroke="#4F5877" stroke-width="1.0057" stroke-miterlimit="10" d="M88.968,124.041
				c0,0.217-0.192,0.41-0.409,0.41c-0.267,0-0.436-0.193-0.436-0.41v-15.168c0-0.217,0.169-0.41,0.436-0.41
				c0.217,0,0.409,0.193,0.409,0.41V124.041z"/>
			<path fill="#FFFFFF" stroke="#4F5877" stroke-width="1.0057" stroke-miterlimit="10" d="M98.546,111.771
				c1.036,0.023,2.026,0.266,2.895,0.773c0.796,0.531,1.398,1.279,1.761,2.246v-2.439c0-0.266,0.145-0.436,0.411-0.436
				c0.265,0,0.435,0.17,0.435,0.436v11.568c0,0.266-0.17,0.436-0.435,0.436c-0.267,0-0.411-0.17-0.411-0.436v-2.439
				c-0.362,0.967-0.965,1.715-1.761,2.246c-1.521,0.895-3.45,1.111-5.283,0.363c-2.605-1.062-3.909-3.455-3.837-6.281
				c0.073-2.438,1.377-4.684,3.668-5.578C96.785,111.893,97.629,111.748,98.546,111.771z M103.201,119.186v-2.1
				c-0.096-1.764-0.916-3.213-2.509-3.986c-0.699-0.312-1.398-0.459-2.146-0.482c-2.052-0.025-4.127,1.062-4.946,3.066
				c-0.266,0.629-0.41,1.402-0.435,2.102c-0.072,1.859,0.556,3.574,2.124,4.83c0.844,0.652,1.881,1.016,2.967,1.088
				c0.845,0.023,1.641-0.17,2.437-0.531C102.285,122.398,103.105,120.949,103.201,119.186z"/>
			<path fill="#FFFFFF" stroke="#4F5877" stroke-width="1.0057" stroke-miterlimit="10" d="M108.846,114.984
				c0.531-1.836,2.364-3.092,4.367-3.092c0.265,0,0.434,0.145,0.434,0.41s-0.169,0.41-0.434,0.41c-3.088,0-4.367,2.633-4.367,5.555
				v5.58c0,0.266-0.193,0.436-0.409,0.436c-0.267,0-0.435-0.17-0.435-0.436v-11.545c0-0.217,0.168-0.41,0.435-0.41
				c0.216,0,0.409,0.193,0.409,0.41V114.984z"/>
		</g>
	</g>
</g>
</svg>
