<?xml version="1.0" encoding="utf-8"?>
<!-- Generator: Adobe Illustrator 15.1.0, SVG Export Plug-In . SVG Version: 6.00 Build 0)  -->
<!DOCTYPE svg PUBLIC "-//W3C//DTD SVG 1.1//EN" "http://www.w3.org/Graphics/SVG/1.1/DTD/svg11.dtd">
<svg version="1.1" id="Capa_1" xmlns="http://www.w3.org/2000/svg" xmlns:xlink="http://www.w3.org/1999/xlink" x="0px" y="0px"
	 width="139px" height="145px" viewBox="0 0 139 145" enable-background="new 0 0 139 145" xml:space="preserve">
<g>
	<g>
		<g>
			<g>
				<defs>
					<polygon id="SVGID_1_" points="48.849,27.51 45.676,18.907 25.114,35.533 32.798,40.642 94.82,117.264 97.993,125.87 
						118.557,109.246 110.875,104.136 					"/>
				</defs>
				<clipPath id="SVGID_2_">
					<use xlink:href="#SVGID_1_"  overflow="visible"/>
				</clipPath>
				<g clip-path="url(#SVGID_2_)">
					<g>
						<path fill="#FAB585" d="M57.44,17.892c0.415,0.495,1.147,0.576,1.65,0.17c0.502-0.414,0.579-1.154,0.173-1.663
							c-0.409-0.494-1.149-0.572-1.654-0.162C57.109,16.645,57.032,17.379,57.44,17.892"/>
						<path fill="#FAB585" d="M57.44,17.892c0.415,0.495,1.147,0.576,1.65,0.17c0.502-0.414,0.579-1.154,0.173-1.663
							c-0.409-0.494-1.149-0.572-1.654-0.162C57.109,16.645,57.032,17.379,57.44,17.892z"/>
						<path fill="#FAB585" d="M50.861,23.258c0.41,0.501,1.15,0.576,1.649,0.168c0.504-0.414,0.583-1.154,0.173-1.661
							c-0.406-0.5-1.15-0.576-1.655-0.16C50.528,22.008,50.449,22.749,50.861,23.258"/>
						<path fill="#FAB585" d="M50.861,23.258c0.41,0.501,1.15,0.576,1.649,0.168c0.504-0.414,0.583-1.154,0.173-1.661
							c-0.406-0.5-1.15-0.576-1.655-0.16C50.528,22.008,50.449,22.749,50.861,23.258z"/>
						<path fill="#FAB585" d="M44.277,28.627c0.414,0.501,1.149,0.574,1.653,0.163c0.501-0.41,0.584-1.153,0.174-1.657
							c-0.407-0.505-1.153-0.574-1.659-0.167C43.946,27.373,43.866,28.123,44.277,28.627"/>
						<path fill="#FAB585" d="M44.277,28.627c0.414,0.501,1.149,0.574,1.653,0.163c0.501-0.41,0.584-1.153,0.174-1.657
							c-0.407-0.505-1.153-0.574-1.659-0.167C43.946,27.373,43.866,28.123,44.277,28.627z"/>
						<path fill="#FAB585" d="M37.697,33.99c0.412,0.503,1.151,0.581,1.654,0.168c0.502-0.414,0.581-1.147,0.168-1.655
							c-0.405-0.502-1.148-0.577-1.651-0.169C37.369,32.739,37.286,33.49,37.697,33.99"/>
						<path fill="#FAB585" d="M37.697,33.99c0.412,0.503,1.151,0.581,1.654,0.168c0.502-0.414,0.581-1.147,0.168-1.655
							c-0.405-0.502-1.148-0.577-1.651-0.169C37.369,32.739,37.286,33.49,37.697,33.99z"/>
						<path fill="#FAB585" d="M31.113,39.358c0.411,0.505,1.154,0.578,1.657,0.164c0.501-0.409,0.583-1.147,0.168-1.654
							c-0.41-0.503-1.149-0.58-1.654-0.172C30.783,38.103,30.703,38.857,31.113,39.358"/>
						<path fill="#FAB585" d="M31.113,39.358c0.411,0.505,1.154,0.578,1.657,0.164c0.501-0.409,0.583-1.147,0.168-1.654
							c-0.41-0.503-1.149-0.58-1.654-0.172C30.783,38.103,30.703,38.857,31.113,39.358z"/>
						<path fill="#FAB585" d="M24.537,44.727c0.414,0.494,1.15,0.572,1.652,0.161c0.5-0.408,0.576-1.146,0.17-1.655
							c-0.41-0.497-1.148-0.573-1.655-0.171C24.208,43.472,24.128,44.216,24.537,44.727"/>
						<path fill="#FAB585" d="M24.537,44.727c0.414,0.494,1.15,0.572,1.652,0.161c0.5-0.408,0.576-1.146,0.17-1.655
							c-0.41-0.497-1.148-0.573-1.655-0.171C24.208,43.472,24.128,44.216,24.537,44.727z"/>
						<path fill="#FAB585" d="M56.833,24.113c0.417,0.505,1.154,0.584,1.655,0.178c0.498-0.42,0.578-1.151,0.164-1.664
							c-0.407-0.499-1.147-0.572-1.651-0.16C56.499,22.872,56.424,23.612,56.833,24.113"/>
						<path fill="#FAB585" d="M56.833,24.113c0.417,0.505,1.154,0.584,1.655,0.178c0.498-0.42,0.578-1.151,0.164-1.664
							c-0.407-0.499-1.147-0.572-1.651-0.16C56.499,22.872,56.424,23.612,56.833,24.113z"/>
						<path fill="#FAB585" d="M50.251,29.482c0.416,0.508,1.154,0.58,1.657,0.176c0.506-0.42,0.579-1.153,0.165-1.663
							c-0.408-0.503-1.143-0.574-1.651-0.159C49.923,28.24,49.842,28.984,50.251,29.482"/>
						<path fill="#FAB585" d="M50.251,29.482c0.416,0.508,1.154,0.58,1.657,0.176c0.506-0.42,0.579-1.153,0.165-1.663
							c-0.408-0.503-1.143-0.574-1.651-0.159C49.923,28.24,49.842,28.984,50.251,29.482z"/>
						<path fill="#FAB585" d="M43.669,34.848c0.421,0.509,1.156,0.581,1.657,0.176c0.505-0.415,0.579-1.149,0.165-1.663
							c-0.406-0.5-1.146-0.571-1.649-0.163C43.337,33.607,43.261,34.35,43.669,34.848"/>
						<path fill="#FAB585" d="M43.669,34.848c0.421,0.509,1.156,0.581,1.657,0.176c0.505-0.415,0.579-1.149,0.165-1.663
							c-0.406-0.5-1.146-0.571-1.649-0.163C43.337,33.607,43.261,34.35,43.669,34.848z"/>
						<path fill="#FAB585" d="M37.089,40.215c0.416,0.512,1.158,0.58,1.658,0.176c0.501-0.417,0.575-1.151,0.162-1.664
							c-0.408-0.497-1.145-0.572-1.646-0.16C36.762,38.975,36.676,39.717,37.089,40.215"/>
						<path fill="#FAB585" d="M37.089,40.215c0.416,0.512,1.158,0.58,1.658,0.176c0.501-0.417,0.575-1.151,0.162-1.664
							c-0.408-0.497-1.145-0.572-1.646-0.16C36.762,38.975,36.676,39.717,37.089,40.215z"/>
						<path fill="#FAB585" d="M30.508,45.582c0.417,0.508,1.157,0.581,1.655,0.178c0.507-0.416,0.578-1.157,0.167-1.661
							c-0.415-0.508-1.148-0.578-1.651-0.171C30.177,44.344,30.101,45.083,30.508,45.582"/>
						<path fill="#FAB585" d="M30.508,45.582c0.417,0.508,1.157,0.581,1.655,0.178c0.507-0.416,0.578-1.157,0.167-1.661
							c-0.415-0.508-1.148-0.578-1.651-0.171C30.177,44.344,30.101,45.083,30.508,45.582z"/>
						<path fill="#FAB585" d="M23.928,50.949c0.416,0.506,1.155,0.575,1.656,0.175c0.5-0.42,0.581-1.156,0.167-1.661
							c-0.41-0.501-1.153-0.576-1.652-0.17C23.596,49.707,23.522,50.446,23.928,50.949"/>
						<path fill="#FAB585" d="M23.928,50.949c0.416,0.506,1.155,0.575,1.656,0.175c0.5-0.42,0.581-1.156,0.167-1.661
							c-0.41-0.501-1.153-0.576-1.652-0.17C23.596,49.707,23.522,50.446,23.928,50.949z"/>
						<path fill="#FAB585" d="M63.045,24.783c0.417,0.501,1.154,0.578,1.652,0.172c0.506-0.421,0.587-1.151,0.174-1.664
							c-0.408-0.493-1.146-0.574-1.649-0.166C62.715,23.54,62.643,24.278,63.045,24.783"/>
						<path fill="#FAB585" d="M63.045,24.783c0.417,0.501,1.154,0.578,1.652,0.172c0.506-0.421,0.587-1.151,0.174-1.664
							c-0.408-0.493-1.146-0.574-1.649-0.166C62.715,23.54,62.643,24.278,63.045,24.783z"/>
						<path fill="#FAB585" d="M56.469,30.153c0.41,0.5,1.155,0.577,1.65,0.166c0.505-0.418,0.586-1.149,0.172-1.658
							c-0.409-0.5-1.146-0.577-1.648-0.171C56.136,28.906,56.057,29.646,56.469,30.153"/>
						<path fill="#FAB585" d="M56.469,30.153c0.41,0.5,1.155,0.577,1.65,0.166c0.505-0.418,0.586-1.149,0.172-1.658
							c-0.409-0.5-1.146-0.577-1.648-0.171C56.136,28.906,56.057,29.646,56.469,30.153z"/>
						<path fill="#FAB585" d="M49.884,35.518c0.412,0.502,1.157,0.58,1.65,0.166c0.509-0.418,0.592-1.149,0.174-1.654
							c-0.407-0.501-1.145-0.578-1.648-0.171C49.552,34.27,49.473,35.017,49.884,35.518"/>
						<path fill="#FAB585" d="M49.884,35.518c0.412,0.502,1.157,0.58,1.65,0.166c0.509-0.418,0.592-1.149,0.174-1.654
							c-0.407-0.501-1.145-0.578-1.648-0.171C49.552,34.27,49.473,35.017,49.884,35.518z"/>
						<path fill="#FAB585" d="M43.304,40.887c0.414,0.503,1.149,0.577,1.655,0.163c0.504-0.415,0.579-1.147,0.169-1.651
							c-0.407-0.502-1.146-0.582-1.646-0.176C42.97,39.638,42.893,40.382,43.304,40.887"/>
						<path fill="#FAB585" d="M43.304,40.887c0.414,0.503,1.149,0.577,1.655,0.163c0.504-0.415,0.579-1.147,0.169-1.651
							c-0.407-0.502-1.146-0.582-1.646-0.176C42.97,39.638,42.893,40.382,43.304,40.887z"/>
						<path fill="#FAB585" d="M36.722,46.252c0.413,0.506,1.153,0.578,1.657,0.165c0.506-0.417,0.587-1.146,0.167-1.657
							c-0.406-0.499-1.15-0.575-1.648-0.169C36.392,45.005,36.31,45.749,36.722,46.252"/>
						<path fill="#FAB585" d="M36.722,46.252c0.413,0.506,1.153,0.578,1.657,0.165c0.506-0.417,0.587-1.146,0.167-1.657
							c-0.406-0.499-1.15-0.575-1.648-0.169C36.392,45.005,36.31,45.749,36.722,46.252z"/>
						<path fill="#FAB585" d="M30.144,51.617c0.421,0.502,1.152,0.579,1.656,0.164c0.502-0.411,0.579-1.142,0.169-1.649
							c-0.411-0.499-1.147-0.574-1.648-0.171C29.816,50.374,29.734,51.108,30.144,51.617"/>
						<path fill="#FAB585" d="M30.144,51.617c0.421,0.502,1.152,0.579,1.656,0.164c0.502-0.411,0.579-1.142,0.169-1.649
							c-0.411-0.499-1.147-0.574-1.648-0.171C29.816,50.374,29.734,51.108,30.144,51.617z"/>
						<path fill="#FAB585" d="M62.44,31.006c0.414,0.504,1.153,0.587,1.654,0.173c0.499-0.411,0.579-1.147,0.166-1.659
							c-0.402-0.497-1.142-0.579-1.649-0.16C62.11,29.769,62.04,30.51,62.44,31.006"/>
						<path fill="#FAB585" d="M62.44,31.006c0.414,0.504,1.153,0.587,1.654,0.173c0.499-0.411,0.579-1.147,0.166-1.659
							c-0.402-0.497-1.142-0.579-1.649-0.16C62.11,29.769,62.04,30.51,62.44,31.006z"/>
						<path fill="#FAB585" d="M55.865,36.376c0.409,0.506,1.148,0.583,1.653,0.169c0.496-0.409,0.573-1.151,0.165-1.657
							c-0.4-0.502-1.143-0.58-1.652-0.161C55.535,35.137,55.458,35.876,55.865,36.376"/>
						<path fill="#FAB585" d="M55.865,36.376c0.409,0.506,1.148,0.583,1.653,0.169c0.496-0.409,0.573-1.151,0.165-1.657
							c-0.4-0.502-1.143-0.58-1.652-0.161C55.535,35.137,55.458,35.876,55.865,36.376z"/>
						<path fill="#FAB585" d="M49.282,41.744c0.409,0.506,1.146,0.58,1.654,0.172c0.493-0.413,0.573-1.155,0.163-1.659
							c-0.404-0.505-1.143-0.579-1.651-0.161C48.951,40.506,48.874,41.246,49.282,41.744"/>
						<path fill="#FAB585" d="M49.282,41.744c0.409,0.506,1.146,0.58,1.654,0.172c0.493-0.413,0.573-1.155,0.163-1.659
							c-0.404-0.505-1.143-0.579-1.651-0.161C48.951,40.506,48.874,41.246,49.282,41.744z"/>
						<path fill="#FAB585" d="M42.699,47.113c0.409,0.503,1.149,0.573,1.658,0.165c0.494-0.411,0.575-1.153,0.169-1.656
							c-0.411-0.508-1.148-0.577-1.657-0.161C42.371,45.869,42.29,46.61,42.699,47.113"/>
						<path fill="#FAB585" d="M42.699,47.113c0.409,0.503,1.149,0.573,1.658,0.165c0.494-0.411,0.575-1.153,0.169-1.656
							c-0.411-0.508-1.148-0.577-1.657-0.161C42.371,45.869,42.29,46.61,42.699,47.113z"/>
						<path fill="#FAB585" d="M36.12,52.479c0.416,0.503,1.156,0.575,1.658,0.169c0.501-0.412,0.572-1.151,0.165-1.653
							c-0.412-0.51-1.146-0.581-1.655-0.163C35.791,51.238,35.711,51.976,36.12,52.479"/>
						<path fill="#FAB585" d="M36.12,52.479c0.416,0.503,1.156,0.575,1.658,0.169c0.501-0.412,0.572-1.151,0.165-1.653
							c-0.412-0.51-1.146-0.581-1.655-0.163C35.791,51.238,35.711,51.976,36.12,52.479z"/>
						<path fill="#FAB585" d="M29.539,57.844c0.416,0.503,1.148,0.573,1.655,0.169c0.499-0.414,0.574-1.152,0.17-1.653
							c-0.414-0.505-1.149-0.582-1.654-0.164C29.206,56.604,29.132,57.34,29.539,57.844"/>
						<path fill="#FAB585" d="M29.539,57.844c0.416,0.503,1.148,0.573,1.655,0.169c0.499-0.414,0.574-1.152,0.17-1.653
							c-0.414-0.505-1.149-0.582-1.654-0.164C29.206,56.604,29.132,57.34,29.539,57.844z"/>
						<path fill="#FAB585" d="M68.656,31.675c0.422,0.508,1.151,0.581,1.659,0.17c0.496-0.413,0.577-1.146,0.16-1.655
							c-0.401-0.498-1.145-0.574-1.647-0.169C68.324,30.433,68.25,31.172,68.656,31.675"/>
						<path fill="#FAB585" d="M68.656,31.675c0.422,0.508,1.151,0.581,1.659,0.17c0.496-0.413,0.577-1.146,0.16-1.655
							c-0.401-0.498-1.145-0.574-1.647-0.169C68.324,30.433,68.25,31.172,68.656,31.675z"/>
						<path fill="#FAB585" d="M62.077,37.04c0.419,0.505,1.146,0.582,1.657,0.169c0.497-0.415,0.58-1.146,0.162-1.656
							c-0.397-0.499-1.146-0.576-1.645-0.17C61.744,35.8,61.67,36.537,62.077,37.04"/>
						<path fill="#FAB585" d="M62.077,37.04c0.419,0.505,1.146,0.582,1.657,0.169c0.497-0.415,0.58-1.146,0.162-1.656
							c-0.397-0.499-1.146-0.576-1.645-0.17C61.744,35.8,61.67,36.537,62.077,37.04z"/>
						<path fill="#FAB585" d="M55.5,42.405c0.416,0.506,1.147,0.583,1.652,0.171c0.5-0.416,0.579-1.143,0.166-1.655
							c-0.401-0.498-1.146-0.576-1.648-0.165C55.164,41.169,55.089,41.904,55.5,42.405"/>
						<path fill="#FAB585" d="M55.5,42.405c0.416,0.506,1.147,0.583,1.652,0.171c0.5-0.416,0.579-1.143,0.166-1.655
							c-0.401-0.498-1.146-0.576-1.648-0.165C55.164,41.169,55.089,41.904,55.5,42.405z"/>
						<path fill="#FAB585" d="M48.921,47.774c0.412,0.502,1.142,0.584,1.646,0.165c0.505-0.408,0.579-1.138,0.174-1.646
							c-0.407-0.504-1.148-0.583-1.65-0.175C48.584,46.537,48.508,47.271,48.921,47.774"/>
						<path fill="#FAB585" d="M48.921,47.774c0.412,0.502,1.142,0.584,1.646,0.165c0.505-0.408,0.579-1.138,0.174-1.646
							c-0.407-0.504-1.148-0.583-1.65-0.175C48.584,46.537,48.508,47.271,48.921,47.774z"/>
						<path fill="#FAB585" d="M42.342,53.14c0.411,0.507,1.141,0.583,1.645,0.165c0.502-0.41,0.582-1.136,0.175-1.647
							c-0.408-0.499-1.154-0.581-1.653-0.168C42.001,51.899,41.932,52.638,42.342,53.14"/>
						<path fill="#FAB585" d="M42.342,53.14c0.411,0.507,1.141,0.583,1.645,0.165c0.502-0.41,0.582-1.136,0.175-1.647
							c-0.408-0.499-1.154-0.581-1.653-0.168C42.001,51.899,41.932,52.638,42.342,53.14z"/>
						<path fill="#FAB585" d="M35.76,58.509c0.41,0.504,1.144,0.58,1.647,0.161c0.505-0.405,0.58-1.139,0.173-1.643
							c-0.406-0.504-1.149-0.584-1.652-0.17C35.421,57.269,35.349,58.009,35.76,58.509"/>
						<path fill="#FAB585" d="M35.76,58.509c0.41,0.504,1.144,0.58,1.647,0.161c0.505-0.405,0.58-1.139,0.173-1.643
							c-0.406-0.504-1.149-0.584-1.652-0.17C35.421,57.269,35.349,58.009,35.76,58.509z"/>
						<path fill="#FAB585" d="M68.049,37.903c0.413,0.512,1.156,0.578,1.657,0.171c0.495-0.411,0.582-1.152,0.164-1.657
							c-0.409-0.5-1.144-0.581-1.647-0.168C67.72,36.666,67.645,37.395,68.049,37.903"/>
						<path fill="#FAB585" d="M68.049,37.903c0.413,0.512,1.156,0.578,1.657,0.171c0.495-0.411,0.582-1.152,0.164-1.657
							c-0.409-0.5-1.144-0.581-1.647-0.168C67.72,36.666,67.645,37.395,68.049,37.903z"/>
						<path fill="#FAB585" d="M61.472,43.267c0.412,0.512,1.154,0.579,1.652,0.173c0.502-0.41,0.583-1.15,0.165-1.658
							c-0.406-0.5-1.143-0.58-1.647-0.162C61.139,42.029,61.066,42.765,61.472,43.267"/>
						<path fill="#FAB585" d="M61.472,43.267c0.412,0.512,1.154,0.579,1.652,0.173c0.502-0.41,0.583-1.15,0.165-1.658
							c-0.406-0.5-1.143-0.58-1.647-0.162C61.139,42.029,61.066,42.765,61.472,43.267z"/>
						<path fill="#FAB585" d="M54.888,48.639c0.411,0.509,1.157,0.578,1.654,0.169c0.506-0.411,0.583-1.152,0.165-1.661
							c-0.406-0.503-1.139-0.573-1.646-0.156C54.561,47.396,54.48,48.135,54.888,48.639"/>
						<path fill="#FAB585" d="M54.888,48.639c0.411,0.509,1.157,0.578,1.654,0.169c0.506-0.411,0.583-1.152,0.165-1.661
							c-0.406-0.503-1.139-0.573-1.646-0.156C54.561,47.396,54.48,48.135,54.888,48.639z"/>
						<path fill="#FAB585" d="M48.306,54.006c0.413,0.506,1.158,0.572,1.658,0.166c0.501-0.407,0.582-1.148,0.165-1.66
							c-0.408-0.496-1.146-0.573-1.648-0.16C47.978,52.763,47.897,53.502,48.306,54.006"/>
						<path fill="#FAB585" d="M48.306,54.006c0.413,0.506,1.158,0.572,1.658,0.166c0.501-0.407,0.582-1.148,0.165-1.66
							c-0.408-0.496-1.146-0.573-1.648-0.16C47.978,52.763,47.897,53.502,48.306,54.006z"/>
						<path fill="#FAB585" d="M41.729,59.371c0.41,0.506,1.15,0.579,1.654,0.172c0.496-0.416,0.583-1.153,0.166-1.664
							c-0.406-0.503-1.144-0.572-1.652-0.155C41.401,58.129,41.32,58.873,41.729,59.371"/>
						<path fill="#FAB585" d="M41.729,59.371c0.41,0.506,1.15,0.579,1.654,0.172c0.496-0.416,0.583-1.153,0.166-1.664
							c-0.406-0.503-1.144-0.572-1.652-0.155C41.401,58.129,41.32,58.873,41.729,59.371z"/>
						<path fill="#FAB585" d="M35.147,64.737c0.414,0.504,1.155,0.58,1.656,0.169c0.498-0.413,0.582-1.149,0.164-1.662
							c-0.408-0.495-1.144-0.574-1.651-0.155C34.818,63.491,34.739,64.235,35.147,64.737"/>
						<path fill="#FAB585" d="M35.147,64.737c0.414,0.504,1.155,0.58,1.656,0.169c0.498-0.413,0.582-1.149,0.164-1.662
							c-0.408-0.495-1.144-0.574-1.651-0.155C34.818,63.491,34.739,64.235,35.147,64.737z"/>
						<path fill="#FAB585" d="M74.27,38.569c0.413,0.506,1.151,0.586,1.652,0.171c0.497-0.415,0.576-1.145,0.164-1.655
							c-0.4-0.501-1.142-0.575-1.646-0.163C73.937,37.329,73.858,38.065,74.27,38.569"/>
						<path fill="#FAB585" d="M74.27,38.569c0.413,0.506,1.151,0.586,1.652,0.171c0.497-0.415,0.576-1.145,0.164-1.655
							c-0.4-0.501-1.142-0.575-1.646-0.163C73.937,37.329,73.858,38.065,74.27,38.569z"/>
						<path fill="#FAB585" d="M67.688,43.934c0.415,0.505,1.15,0.584,1.654,0.17c0.497-0.415,0.575-1.147,0.162-1.657
							c-0.394-0.5-1.145-0.569-1.646-0.16C67.359,42.699,67.278,43.436,67.688,43.934"/>
						<path fill="#FAB585" d="M67.688,43.934c0.415,0.505,1.15,0.584,1.654,0.17c0.497-0.415,0.575-1.147,0.162-1.657
							c-0.394-0.5-1.145-0.569-1.646-0.16C67.359,42.699,67.278,43.436,67.688,43.934z"/>
						<path fill="#FAB585" d="M61.108,49.3c0.415,0.508,1.149,0.585,1.656,0.177c0.499-0.423,0.572-1.153,0.163-1.66
							c-0.407-0.504-1.143-0.575-1.647-0.164C60.776,48.062,60.696,48.798,61.108,49.3"/>
						<path fill="#FAB585" d="M61.108,49.3c0.415,0.508,1.149,0.585,1.656,0.177c0.499-0.423,0.572-1.153,0.163-1.66
							c-0.407-0.504-1.143-0.575-1.647-0.164C60.776,48.062,60.696,48.798,61.108,49.3z"/>
						<path fill="#FAB585" d="M54.528,54.671c0.415,0.5,1.15,0.585,1.654,0.167c0.498-0.415,0.575-1.144,0.161-1.656
							c-0.404-0.504-1.142-0.578-1.648-0.164C54.188,53.43,54.117,54.168,54.528,54.671"/>
						<path fill="#FAB585" d="M54.528,54.671c0.415,0.5,1.15,0.585,1.654,0.167c0.498-0.415,0.575-1.144,0.161-1.656
							c-0.404-0.504-1.142-0.578-1.648-0.164C54.188,53.43,54.117,54.168,54.528,54.671z"/>
						<path fill="#FAB585" d="M47.946,60.033c0.414,0.509,1.15,0.59,1.652,0.176c0.5-0.422,0.578-1.154,0.164-1.661
							c-0.403-0.5-1.143-0.579-1.646-0.165C47.609,58.794,47.535,59.533,47.946,60.033"/>
						<path fill="#FAB585" d="M47.946,60.033c0.414,0.509,1.15,0.59,1.652,0.176c0.5-0.422,0.578-1.154,0.164-1.661
							c-0.403-0.5-1.143-0.579-1.646-0.165C47.609,58.794,47.535,59.533,47.946,60.033z"/>
						<path fill="#FAB585" d="M41.365,65.402c0.413,0.505,1.153,0.586,1.655,0.171c0.495-0.418,0.577-1.146,0.162-1.659
							c-0.404-0.5-1.141-0.578-1.646-0.167C41.03,64.159,40.956,64.9,41.365,65.402"/>
						<path fill="#FAB585" d="M41.365,65.402c0.413,0.505,1.153,0.586,1.655,0.171c0.495-0.418,0.577-1.146,0.162-1.659
							c-0.404-0.5-1.141-0.578-1.646-0.167C41.03,64.159,40.956,64.9,41.365,65.402z"/>
						<path fill="#FAB585" d="M73.658,44.798c0.42,0.514,1.155,0.577,1.664,0.166c0.495-0.411,0.571-1.146,0.156-1.652
							c-0.402-0.497-1.146-0.573-1.644-0.167C73.332,43.56,73.254,44.291,73.658,44.798"/>
						<path fill="#FAB585" d="M73.658,44.798c0.42,0.514,1.155,0.577,1.664,0.166c0.495-0.411,0.571-1.146,0.156-1.652
							c-0.402-0.497-1.146-0.573-1.644-0.167C73.332,43.56,73.254,44.291,73.658,44.798z"/>
						<path fill="#FAB585" d="M67.078,50.163c0.419,0.517,1.163,0.584,1.664,0.17c0.496-0.412,0.575-1.146,0.156-1.66
							c-0.403-0.489-1.144-0.571-1.646-0.159C66.749,48.926,66.674,49.66,67.078,50.163"/>
						<path fill="#FAB585" d="M67.078,50.163c0.419,0.517,1.163,0.584,1.664,0.17c0.496-0.412,0.575-1.146,0.156-1.66
							c-0.403-0.489-1.144-0.571-1.646-0.159C66.749,48.926,66.674,49.66,67.078,50.163z"/>
						<path fill="#FAB585" d="M60.497,55.532c0.413,0.508,1.155,0.577,1.656,0.166c0.5-0.406,0.579-1.145,0.163-1.659
							c-0.399-0.495-1.141-0.568-1.648-0.156C60.17,54.292,60.091,55.027,60.497,55.532"/>
						<path fill="#FAB585" d="M60.497,55.532c0.413,0.508,1.155,0.577,1.656,0.166c0.5-0.406,0.579-1.145,0.163-1.659
							c-0.399-0.495-1.141-0.568-1.648-0.156C60.17,54.292,60.091,55.027,60.497,55.532z"/>
						<path fill="#FAB585" d="M53.918,60.9c0.406,0.504,1.155,0.574,1.655,0.164c0.5-0.406,0.581-1.148,0.167-1.656
							c-0.406-0.5-1.147-0.572-1.654-0.163C53.587,59.656,53.509,60.395,53.918,60.9"/>
						<path fill="#FAB585" d="M53.918,60.9c0.406,0.504,1.155,0.574,1.655,0.164c0.5-0.406,0.581-1.148,0.167-1.656
							c-0.406-0.5-1.147-0.572-1.654-0.163C53.587,59.656,53.509,60.395,53.918,60.9z"/>
						<path fill="#FAB585" d="M47.337,66.267c0.409,0.504,1.152,0.576,1.654,0.165c0.502-0.407,0.583-1.148,0.172-1.655
							c-0.408-0.501-1.148-0.576-1.659-0.164C47.007,65.021,46.927,65.761,47.337,66.267"/>
						<path fill="#FAB585" d="M47.337,66.267c0.409,0.504,1.152,0.576,1.654,0.165c0.502-0.407,0.583-1.148,0.172-1.655
							c-0.408-0.501-1.148-0.576-1.659-0.164C47.007,65.021,46.927,65.761,47.337,66.267z"/>
						<path fill="#FAB585" d="M40.757,71.633c0.415,0.505,1.154,0.576,1.655,0.171c0.501-0.408,0.58-1.151,0.17-1.661
							c-0.41-0.497-1.148-0.579-1.66-0.157C40.427,70.387,40.353,71.127,40.757,71.633"/>
						<path fill="#FAB585" d="M40.757,71.633c0.415,0.505,1.154,0.576,1.655,0.171c0.501-0.408,0.58-1.151,0.17-1.661
							c-0.41-0.497-1.148-0.579-1.66-0.157C40.427,70.387,40.353,71.127,40.757,71.633z"/>
						<path fill="#FAB585" d="M79.875,45.466c0.416,0.499,1.158,0.575,1.659,0.167c0.495-0.417,0.583-1.149,0.168-1.659
							c-0.409-0.498-1.148-0.569-1.65-0.163C79.551,44.217,79.469,44.963,79.875,45.466"/>
						<path fill="#FAB585" d="M79.875,45.466c0.416,0.499,1.158,0.575,1.659,0.167c0.495-0.417,0.583-1.149,0.168-1.659
							c-0.409-0.498-1.148-0.569-1.65-0.163C79.551,44.217,79.469,44.963,79.875,45.466z"/>
						<path fill="#FAB585" d="M73.299,50.828c0.412,0.512,1.152,0.583,1.651,0.171c0.502-0.41,0.591-1.149,0.172-1.658
							c-0.408-0.499-1.152-0.57-1.65-0.164C72.969,49.583,72.887,50.329,73.299,50.828"/>
						<path fill="#FAB585" d="M73.299,50.828c0.412,0.512,1.152,0.583,1.651,0.171c0.502-0.41,0.591-1.149,0.172-1.658
							c-0.408-0.499-1.152-0.57-1.65-0.164C72.969,49.583,72.887,50.329,73.299,50.828z"/>
						<path fill="#FAB585" d="M66.716,56.195c0.416,0.51,1.15,0.585,1.653,0.171c0.505-0.413,0.585-1.15,0.172-1.66
							c-0.399-0.493-1.147-0.573-1.651-0.16C66.385,54.954,66.307,55.692,66.716,56.195"/>
						<path fill="#FAB585" d="M66.716,56.195c0.416,0.51,1.15,0.585,1.653,0.171c0.505-0.413,0.585-1.15,0.172-1.66
							c-0.399-0.493-1.147-0.573-1.651-0.16C66.385,54.954,66.307,55.692,66.716,56.195z"/>
						<path fill="#FAB585" d="M60.137,61.564c0.411,0.51,1.152,0.579,1.65,0.171c0.507-0.415,0.588-1.155,0.174-1.661
							c-0.404-0.497-1.148-0.572-1.652-0.163C59.803,60.319,59.724,61.061,60.137,61.564"/>
						<path fill="#FAB585" d="M60.137,61.564c0.411,0.51,1.152,0.579,1.65,0.171c0.507-0.415,0.588-1.155,0.174-1.661
							c-0.404-0.497-1.148-0.572-1.652-0.163C59.803,60.319,59.724,61.061,60.137,61.564z"/>
						<path fill="#FAB585" d="M53.556,66.931c0.412,0.503,1.149,0.583,1.654,0.172c0.504-0.417,0.582-1.157,0.169-1.663
							c-0.4-0.495-1.146-0.573-1.65-0.161C53.226,65.69,53.145,66.423,53.556,66.931"/>
						<path fill="#FAB585" d="M53.556,66.931c0.412,0.503,1.149,0.583,1.654,0.172c0.504-0.417,0.582-1.157,0.169-1.663
							c-0.4-0.495-1.146-0.573-1.65-0.161C53.226,65.69,53.145,66.423,53.556,66.931z"/>
						<path fill="#FAB585" d="M46.976,72.298c0.411,0.505,1.15,0.583,1.652,0.168c0.502-0.412,0.576-1.153,0.168-1.658
							c-0.406-0.497-1.147-0.578-1.65-0.162C46.641,71.056,46.568,71.788,46.976,72.298"/>
						<path fill="#FAB585" d="M46.976,72.298c0.411,0.505,1.15,0.583,1.652,0.168c0.502-0.412,0.576-1.153,0.168-1.658
							c-0.406-0.497-1.147-0.578-1.65-0.162C46.641,71.056,46.568,71.788,46.976,72.298z"/>
						<path fill="#FAB585" d="M79.271,51.695c0.414,0.501,1.15,0.575,1.657,0.161c0.495-0.406,0.572-1.148,0.168-1.656
							c-0.411-0.494-1.148-0.574-1.65-0.157C78.942,50.449,78.869,51.187,79.271,51.695"/>
						<path fill="#FAB585" d="M79.271,51.695c0.414,0.501,1.15,0.575,1.657,0.161c0.495-0.406,0.572-1.148,0.168-1.656
							c-0.411-0.494-1.148-0.574-1.65-0.157C78.942,50.449,78.869,51.187,79.271,51.695z"/>
						<path fill="#FAB585" d="M72.688,57.058c0.414,0.507,1.151,0.577,1.654,0.168c0.498-0.408,0.573-1.154,0.169-1.653
							c-0.407-0.504-1.147-0.576-1.646-0.166C72.361,55.818,72.277,56.552,72.688,57.058"/>
						<path fill="#FAB585" d="M72.688,57.058c0.414,0.507,1.151,0.577,1.654,0.168c0.498-0.408,0.573-1.154,0.169-1.653
							c-0.407-0.504-1.147-0.576-1.646-0.166C72.361,55.818,72.277,56.552,72.688,57.058z"/>
						<path fill="#FAB585" d="M66.108,62.422c0.415,0.514,1.151,0.581,1.653,0.173c0.5-0.408,0.58-1.149,0.168-1.655
							c-0.407-0.5-1.147-0.574-1.646-0.164C65.78,61.188,65.702,61.924,66.108,62.422"/>
						<path fill="#FAB585" d="M66.108,62.422c0.415,0.514,1.151,0.581,1.653,0.173c0.5-0.408,0.58-1.149,0.168-1.655
							c-0.407-0.5-1.147-0.574-1.646-0.164C65.78,61.188,65.702,61.924,66.108,62.422z"/>
						<path fill="#FAB585" d="M59.526,67.79c0.418,0.51,1.154,0.579,1.656,0.169c0.498-0.409,0.582-1.15,0.167-1.655
							c-0.407-0.5-1.149-0.574-1.649-0.161C59.202,66.546,59.12,67.292,59.526,67.79"/>
						<path fill="#FAB585" d="M59.526,67.79c0.418,0.51,1.154,0.579,1.656,0.169c0.498-0.409,0.582-1.15,0.167-1.655
							c-0.407-0.5-1.149-0.574-1.649-0.161C59.202,66.546,59.12,67.292,59.526,67.79z"/>
						<path fill="#FAB585" d="M52.946,73.153c0.417,0.516,1.152,0.585,1.655,0.173c0.5-0.404,0.58-1.145,0.17-1.654
							c-0.41-0.501-1.147-0.572-1.65-0.16C52.619,71.92,52.536,72.652,52.946,73.153"/>
						<path fill="#FAB585" d="M52.946,73.153c0.417,0.516,1.152,0.585,1.655,0.173c0.5-0.404,0.58-1.145,0.17-1.654
							c-0.41-0.501-1.147-0.572-1.65-0.16C52.619,71.92,52.536,72.652,52.946,73.153z"/>
						<path fill="#FAB585" d="M46.364,78.521c0.42,0.514,1.155,0.582,1.656,0.176c0.498-0.408,0.581-1.151,0.166-1.657
							c-0.407-0.501-1.146-0.576-1.646-0.167C46.034,77.28,45.961,78.02,46.364,78.521"/>
						<path fill="#FAB585" d="M46.364,78.521c0.42,0.514,1.155,0.582,1.656,0.176c0.498-0.408,0.581-1.151,0.166-1.657
							c-0.407-0.501-1.146-0.576-1.646-0.167C46.034,77.28,45.961,78.02,46.364,78.521z"/>
						<path fill="#FAB585" d="M85.492,52.353c0.406,0.51,1.152,0.585,1.649,0.167c0.501-0.407,0.583-1.14,0.167-1.648
							c-0.402-0.504-1.146-0.579-1.646-0.166C85.156,51.109,85.082,51.851,85.492,52.353"/>
						<path fill="#FAB585" d="M85.492,52.353c0.406,0.51,1.152,0.585,1.649,0.167c0.501-0.407,0.583-1.14,0.167-1.648
							c-0.402-0.504-1.146-0.579-1.646-0.166C85.156,51.109,85.082,51.851,85.492,52.353z"/>
						<path fill="#FAB585" d="M78.91,57.724c0.409,0.505,1.149,0.579,1.651,0.167c0.499-0.408,0.582-1.145,0.168-1.651
							c-0.408-0.504-1.14-0.576-1.649-0.166C78.577,56.483,78.502,57.217,78.91,57.724"/>
						<path fill="#FAB585" d="M78.91,57.724c0.409,0.505,1.149,0.579,1.651,0.167c0.499-0.408,0.582-1.145,0.168-1.651
							c-0.408-0.504-1.14-0.576-1.649-0.166C78.577,56.483,78.502,57.217,78.91,57.724z"/>
						<path fill="#FAB585" d="M72.331,63.091c0.408,0.507,1.148,0.577,1.648,0.167c0.504-0.413,0.583-1.145,0.169-1.654
							c-0.406-0.502-1.143-0.576-1.648-0.161C71.999,61.853,71.922,62.584,72.331,63.091"/>
						<path fill="#FAB585" d="M72.331,63.091c0.408,0.507,1.148,0.577,1.648,0.167c0.504-0.413,0.583-1.145,0.169-1.654
							c-0.406-0.502-1.143-0.576-1.648-0.161C71.999,61.853,71.922,62.584,72.331,63.091z"/>
						<path fill="#FAB585" d="M65.749,68.455c0.41,0.51,1.149,0.579,1.65,0.17c0.501-0.411,0.585-1.146,0.169-1.654
							c-0.408-0.501-1.146-0.58-1.649-0.167C65.418,67.216,65.344,67.955,65.749,68.455"/>
						<path fill="#FAB585" d="M65.749,68.455c0.41,0.51,1.149,0.579,1.65,0.17c0.501-0.411,0.585-1.146,0.169-1.654
							c-0.408-0.501-1.146-0.58-1.649-0.167C65.418,67.216,65.344,67.955,65.749,68.455z"/>
						<path fill="#FAB585" d="M59.169,73.827c0.406,0.505,1.143,0.571,1.65,0.165c0.502-0.412,0.58-1.148,0.169-1.657
							c-0.406-0.5-1.146-0.574-1.649-0.161C58.834,72.587,58.764,73.32,59.169,73.827"/>
						<path fill="#FAB585" d="M59.169,73.827c0.406,0.505,1.143,0.571,1.65,0.165c0.502-0.412,0.58-1.148,0.169-1.657
							c-0.406-0.5-1.146-0.574-1.649-0.161C58.834,72.587,58.764,73.32,59.169,73.827z"/>
						<path fill="#FAB585" d="M52.588,79.192c0.407,0.505,1.148,0.577,1.648,0.169c0.503-0.413,0.585-1.148,0.171-1.661
							c-0.411-0.491-1.149-0.572-1.65-0.158C52.252,77.952,52.182,78.689,52.588,79.192"/>
						<path fill="#FAB585" d="M52.588,79.192c0.407,0.505,1.148,0.577,1.648,0.169c0.503-0.413,0.585-1.148,0.171-1.661
							c-0.411-0.491-1.149-0.572-1.65-0.158C52.252,77.952,52.182,78.689,52.588,79.192z"/>
						<path fill="#FAB585" d="M84.878,58.59c0.418,0.503,1.15,0.573,1.655,0.161c0.504-0.407,0.581-1.143,0.166-1.658
							c-0.408-0.501-1.146-0.573-1.646-0.167C84.552,57.345,84.472,58.08,84.878,58.59"/>
						<path fill="#FAB585" d="M84.878,58.59c0.418,0.503,1.15,0.573,1.655,0.161c0.504-0.407,0.581-1.143,0.166-1.658
							c-0.408-0.501-1.146-0.573-1.646-0.167C84.552,57.345,84.472,58.08,84.878,58.59z"/>
						<path fill="#FAB585" d="M78.303,63.952c0.413,0.509,1.149,0.579,1.65,0.166c0.503-0.406,0.579-1.144,0.168-1.652
							c-0.408-0.504-1.154-0.579-1.65-0.169C77.971,62.709,77.89,63.448,78.303,63.952"/>
						<path fill="#FAB585" d="M78.303,63.952c0.413,0.509,1.149,0.579,1.65,0.166c0.503-0.406,0.579-1.144,0.168-1.652
							c-0.408-0.504-1.154-0.579-1.65-0.169C77.971,62.709,77.89,63.448,78.303,63.952z"/>
						<path fill="#FAB585" d="M71.72,69.319c0.415,0.508,1.147,0.58,1.651,0.165c0.499-0.406,0.579-1.146,0.169-1.653
							c-0.406-0.503-1.148-0.571-1.65-0.165C71.388,68.075,71.312,68.814,71.72,69.319"/>
						<path fill="#FAB585" d="M71.72,69.319c0.415,0.508,1.147,0.58,1.651,0.165c0.499-0.406,0.579-1.146,0.169-1.653
							c-0.406-0.503-1.148-0.571-1.65-0.165C71.388,68.075,71.312,68.814,71.72,69.319z"/>
						<path fill="#FAB585" d="M65.139,74.686c0.417,0.507,1.148,0.577,1.652,0.168c0.5-0.409,0.577-1.146,0.167-1.655
							c-0.406-0.502-1.149-0.576-1.651-0.168C64.806,73.44,64.731,74.183,65.139,74.686"/>
						<path fill="#FAB585" d="M65.139,74.686c0.417,0.507,1.148,0.577,1.652,0.168c0.5-0.409,0.577-1.146,0.167-1.655
							c-0.406-0.502-1.149-0.576-1.651-0.168C64.806,73.44,64.731,74.183,65.139,74.686z"/>
						<path fill="#FAB585" d="M58.559,80.053c0.411,0.51,1.145,0.58,1.656,0.168c0.493-0.408,0.573-1.148,0.162-1.655
							c-0.407-0.503-1.151-0.573-1.65-0.166C58.225,78.811,58.153,79.55,58.559,80.053"/>
						<path fill="#FAB585" d="M58.559,80.053c0.411,0.51,1.145,0.58,1.656,0.168c0.493-0.408,0.573-1.148,0.162-1.655
							c-0.407-0.503-1.151-0.573-1.65-0.166C58.225,78.811,58.153,79.55,58.559,80.053z"/>
						<path fill="#FAB585" d="M51.98,85.418c0.413,0.508,1.146,0.58,1.656,0.169c0.497-0.409,0.571-1.147,0.161-1.65
							c-0.406-0.508-1.146-0.576-1.65-0.169C51.648,84.176,51.574,84.915,51.98,85.418"/>
						<path fill="#FAB585" d="M51.98,85.418c0.413,0.508,1.146,0.58,1.656,0.169c0.497-0.409,0.571-1.147,0.161-1.65
							c-0.406-0.508-1.146-0.576-1.65-0.169C51.648,84.176,51.574,84.915,51.98,85.418z"/>
					</g>
					<g>
						<path fill="#FAB585" d="M92.885,58.354c0.411,0.496,1.151,0.575,1.649,0.167c0.507-0.412,0.58-1.153,0.176-1.663
							c-0.413-0.495-1.148-0.57-1.656-0.156C92.558,57.107,92.477,57.845,92.885,58.354"/>
						<path fill="#FAB585" d="M92.885,58.354c0.411,0.496,1.151,0.575,1.649,0.167c0.507-0.412,0.58-1.153,0.176-1.663
							c-0.413-0.495-1.148-0.57-1.656-0.156C92.558,57.107,92.477,57.845,92.885,58.354z"/>
						<path fill="#FAB585" d="M86.309,63.716c0.41,0.503,1.148,0.577,1.648,0.167c0.501-0.411,0.582-1.152,0.171-1.656
							c-0.407-0.501-1.15-0.579-1.652-0.16C85.974,62.471,85.893,63.21,86.309,63.716"/>
						<path fill="#FAB585" d="M86.309,63.716c0.41,0.503,1.148,0.577,1.648,0.167c0.501-0.411,0.582-1.152,0.171-1.656
							c-0.407-0.501-1.15-0.579-1.652-0.16C85.974,62.471,85.893,63.21,86.309,63.716z"/>
						<path fill="#FAB585" d="M79.724,69.086c0.41,0.502,1.151,0.575,1.653,0.165c0.499-0.412,0.58-1.154,0.169-1.66
							c-0.404-0.502-1.148-0.574-1.654-0.165C79.39,67.832,79.312,68.582,79.724,69.086"/>
						<path fill="#FAB585" d="M79.724,69.086c0.41,0.502,1.151,0.575,1.653,0.165c0.499-0.412,0.58-1.154,0.169-1.66
							c-0.404-0.502-1.148-0.574-1.654-0.165C79.39,67.832,79.312,68.582,79.724,69.086z"/>
						<path fill="#FAB585" d="M73.142,74.452c0.412,0.5,1.152,0.578,1.655,0.166c0.502-0.411,0.577-1.151,0.165-1.658
							c-0.405-0.499-1.143-0.575-1.649-0.166C72.813,73.2,72.729,73.946,73.142,74.452"/>
						<path fill="#FAB585" d="M73.142,74.452c0.412,0.5,1.152,0.578,1.655,0.166c0.502-0.411,0.577-1.151,0.165-1.658
							c-0.405-0.499-1.143-0.575-1.649-0.166C72.813,73.2,72.729,73.946,73.142,74.452z"/>
						<path fill="#FAB585" d="M66.56,79.818c0.413,0.501,1.156,0.577,1.654,0.164c0.502-0.406,0.583-1.147,0.17-1.655
							c-0.408-0.501-1.15-0.577-1.654-0.168C66.231,78.562,66.147,79.315,66.56,79.818"/>
						<path fill="#FAB585" d="M66.56,79.818c0.413,0.501,1.156,0.577,1.654,0.164c0.502-0.406,0.583-1.147,0.17-1.655
							c-0.408-0.501-1.15-0.577-1.654-0.168C66.231,78.562,66.147,79.315,66.56,79.818z"/>
						<path fill="#FAB585" d="M59.981,85.185c0.415,0.499,1.149,0.575,1.652,0.162c0.502-0.407,0.579-1.143,0.169-1.654
							c-0.407-0.491-1.147-0.572-1.654-0.167C59.651,83.932,59.574,84.68,59.981,85.185"/>
						<path fill="#FAB585" d="M59.981,85.185c0.415,0.499,1.149,0.575,1.652,0.162c0.502-0.407,0.579-1.143,0.169-1.654
							c-0.407-0.491-1.147-0.572-1.654-0.167C59.651,83.932,59.574,84.68,59.981,85.185z"/>
						<path fill="#FAB585" d="M92.277,64.574c0.419,0.507,1.155,0.586,1.657,0.178c0.501-0.422,0.576-1.149,0.164-1.663
							c-0.41-0.499-1.145-0.573-1.65-0.161C91.942,63.333,91.868,64.074,92.277,64.574"/>
						<path fill="#FAB585" d="M92.277,64.574c0.419,0.507,1.155,0.586,1.657,0.178c0.501-0.422,0.576-1.149,0.164-1.663
							c-0.41-0.499-1.145-0.573-1.65-0.161C91.942,63.333,91.868,64.074,92.277,64.574z"/>
						<path fill="#FAB585" d="M85.697,69.94c0.419,0.51,1.153,0.584,1.655,0.177c0.507-0.42,0.579-1.151,0.166-1.664
							c-0.405-0.501-1.141-0.573-1.649-0.16C85.367,68.701,85.288,69.444,85.697,69.94"/>
						<path fill="#FAB585" d="M85.697,69.94c0.419,0.51,1.153,0.584,1.655,0.177c0.507-0.42,0.579-1.151,0.166-1.664
							c-0.405-0.501-1.141-0.573-1.649-0.16C85.367,68.701,85.288,69.444,85.697,69.94z"/>
						<path fill="#FAB585" d="M79.113,75.31c0.42,0.508,1.158,0.579,1.66,0.175c0.504-0.415,0.576-1.151,0.162-1.665
							c-0.406-0.497-1.145-0.569-1.647-0.158C78.786,74.069,78.708,74.813,79.113,75.31"/>
						<path fill="#FAB585" d="M79.113,75.31c0.42,0.508,1.158,0.579,1.66,0.175c0.504-0.415,0.576-1.151,0.162-1.665
							c-0.406-0.497-1.145-0.569-1.647-0.158C78.786,74.069,78.708,74.813,79.113,75.31z"/>
						<path fill="#FAB585" d="M72.535,80.675c0.416,0.511,1.156,0.581,1.656,0.179c0.505-0.418,0.578-1.154,0.166-1.663
							c-0.411-0.5-1.147-0.579-1.649-0.166C72.207,79.435,72.123,80.176,72.535,80.675"/>
						<path fill="#FAB585" d="M72.535,80.675c0.416,0.511,1.156,0.581,1.656,0.179c0.505-0.418,0.578-1.154,0.166-1.663
							c-0.411-0.5-1.147-0.579-1.649-0.166C72.207,79.435,72.123,80.176,72.535,80.675z"/>
						<path fill="#FAB585" d="M65.952,86.042c0.421,0.511,1.159,0.584,1.659,0.178c0.504-0.415,0.575-1.155,0.165-1.661
							c-0.413-0.504-1.15-0.577-1.651-0.17C65.623,84.804,65.544,85.541,65.952,86.042"/>
						<path fill="#FAB585" d="M65.952,86.042c0.421,0.511,1.159,0.584,1.659,0.178c0.504-0.415,0.575-1.155,0.165-1.661
							c-0.413-0.504-1.15-0.577-1.651-0.17C65.623,84.804,65.544,85.541,65.952,86.042z"/>
						<path fill="#FAB585" d="M59.373,91.408c0.417,0.505,1.156,0.58,1.655,0.176c0.501-0.418,0.583-1.157,0.166-1.661
							c-0.405-0.502-1.153-0.577-1.65-0.167C59.043,90.168,58.966,90.909,59.373,91.408"/>
						<path fill="#FAB585" d="M59.373,91.408c0.417,0.505,1.156,0.58,1.655,0.176c0.501-0.418,0.583-1.157,0.166-1.661
							c-0.405-0.502-1.153-0.577-1.65-0.167C59.043,90.168,58.966,90.909,59.373,91.408z"/>
						<path fill="#FAB585" d="M98.49,65.244c0.418,0.5,1.156,0.577,1.653,0.168c0.505-0.419,0.585-1.146,0.173-1.658
							c-0.409-0.495-1.145-0.572-1.652-0.168C98.161,63.999,98.087,64.736,98.49,65.244"/>
						<path fill="#FAB585" d="M98.49,65.244c0.418,0.5,1.156,0.577,1.653,0.168c0.505-0.419,0.585-1.146,0.173-1.658
							c-0.409-0.495-1.145-0.572-1.652-0.168C98.161,63.999,98.087,64.736,98.49,65.244z"/>
						<path fill="#FAB585" d="M91.912,70.611c0.411,0.504,1.155,0.581,1.655,0.171c0.503-0.419,0.586-1.154,0.168-1.662
							c-0.406-0.499-1.143-0.574-1.646-0.171C91.581,69.363,91.504,70.108,91.912,70.611"/>
						<path fill="#FAB585" d="M91.912,70.611c0.411,0.504,1.155,0.581,1.655,0.171c0.503-0.419,0.586-1.154,0.168-1.662
							c-0.406-0.499-1.143-0.574-1.646-0.171C91.581,69.363,91.504,70.108,91.912,70.611z"/>
						<path fill="#FAB585" d="M85.331,75.979c0.409,0.502,1.155,0.577,1.652,0.165c0.506-0.417,0.589-1.148,0.173-1.656
							c-0.41-0.498-1.146-0.575-1.651-0.167C84.997,74.732,84.917,75.479,85.331,75.979"/>
						<path fill="#FAB585" d="M85.331,75.979c0.409,0.502,1.155,0.577,1.652,0.165c0.506-0.417,0.589-1.148,0.173-1.656
							c-0.41-0.498-1.146-0.575-1.651-0.167C84.997,74.732,84.917,75.479,85.331,75.979z"/>
						<path fill="#FAB585" d="M78.748,81.346c0.415,0.503,1.152,0.58,1.657,0.165c0.505-0.416,0.579-1.146,0.167-1.65
							c-0.405-0.503-1.146-0.58-1.646-0.177C78.417,80.102,78.336,80.843,78.748,81.346"/>
						<path fill="#FAB585" d="M78.748,81.346c0.415,0.503,1.152,0.58,1.657,0.165c0.505-0.416,0.579-1.146,0.167-1.65
							c-0.405-0.503-1.146-0.58-1.646-0.177C78.417,80.102,78.336,80.843,78.748,81.346z"/>
						<path fill="#FAB585" d="M72.169,86.716c0.412,0.499,1.151,0.576,1.656,0.161c0.505-0.417,0.586-1.146,0.166-1.655
							c-0.405-0.502-1.148-0.575-1.646-0.17C71.838,85.467,71.756,86.208,72.169,86.716"/>
						<path fill="#FAB585" d="M72.169,86.716c0.412,0.499,1.151,0.576,1.656,0.161c0.505-0.417,0.586-1.146,0.166-1.655
							c-0.405-0.502-1.148-0.575-1.646-0.17C71.838,85.467,71.756,86.208,72.169,86.716z"/>
						<path fill="#FAB585" d="M65.591,92.076c0.419,0.503,1.149,0.58,1.652,0.167c0.505-0.416,0.582-1.143,0.168-1.657
							c-0.408-0.492-1.144-0.57-1.647-0.165C65.261,90.834,65.18,91.568,65.591,92.076"/>
						<path fill="#FAB585" d="M65.591,92.076c0.419,0.503,1.149,0.58,1.652,0.167c0.505-0.416,0.582-1.143,0.168-1.657
							c-0.408-0.492-1.144-0.57-1.647-0.165C65.261,90.834,65.18,91.568,65.591,92.076z"/>
						<path fill="#FAB585" d="M97.887,71.468c0.416,0.504,1.154,0.586,1.657,0.174c0.496-0.412,0.573-1.149,0.163-1.661
							c-0.405-0.496-1.143-0.579-1.65-0.159C97.558,70.228,97.484,70.969,97.887,71.468"/>
						<path fill="#FAB585" d="M97.887,71.468c0.416,0.504,1.154,0.586,1.657,0.174c0.496-0.412,0.573-1.149,0.163-1.661
							c-0.405-0.496-1.143-0.579-1.65-0.159C97.558,70.228,97.484,70.969,97.887,71.468z"/>
						<path fill="#FAB585" d="M91.309,76.836c0.41,0.505,1.153,0.584,1.655,0.167c0.494-0.407,0.573-1.149,0.163-1.655
							c-0.4-0.5-1.14-0.576-1.649-0.159C90.98,75.596,90.902,76.34,91.309,76.836"/>
						<path fill="#FAB585" d="M91.309,76.836c0.41,0.505,1.153,0.584,1.655,0.167c0.494-0.407,0.573-1.149,0.163-1.655
							c-0.4-0.5-1.14-0.576-1.649-0.159C90.98,75.596,90.902,76.34,91.309,76.836z"/>
						<path fill="#FAB585" d="M84.726,82.201c0.413,0.507,1.149,0.58,1.654,0.175c0.494-0.414,0.576-1.149,0.162-1.66
							c-0.405-0.505-1.139-0.575-1.651-0.159C84.398,80.962,84.319,81.706,84.726,82.201"/>
						<path fill="#FAB585" d="M84.726,82.201c0.413,0.507,1.149,0.58,1.654,0.175c0.494-0.414,0.576-1.149,0.162-1.66
							c-0.405-0.505-1.139-0.575-1.651-0.159C84.398,80.962,84.319,81.706,84.726,82.201z"/>
						<path fill="#FAB585" d="M78.145,87.571c0.408,0.502,1.15,0.576,1.656,0.166c0.496-0.41,0.577-1.149,0.171-1.654
							c-0.41-0.507-1.147-0.577-1.655-0.161C77.815,86.331,77.735,87.07,78.145,87.571"/>
						<path fill="#FAB585" d="M78.145,87.571c0.408,0.502,1.15,0.576,1.656,0.166c0.496-0.41,0.577-1.149,0.171-1.654
							c-0.41-0.507-1.147-0.577-1.655-0.161C77.815,86.331,77.735,87.07,78.145,87.571z"/>
						<path fill="#FAB585" d="M71.565,92.936c0.417,0.507,1.154,0.58,1.655,0.173c0.501-0.413,0.576-1.155,0.168-1.652
							c-0.412-0.509-1.146-0.581-1.654-0.166C71.235,91.701,71.156,92.435,71.565,92.936"/>
						<path fill="#FAB585" d="M71.565,92.936c0.417,0.507,1.154,0.58,1.655,0.173c0.501-0.413,0.576-1.155,0.168-1.652
							c-0.412-0.509-1.146-0.581-1.654-0.166C71.235,91.701,71.156,92.435,71.565,92.936z"/>
						<path fill="#FAB585" d="M64.983,98.304c0.416,0.503,1.15,0.573,1.656,0.169c0.498-0.413,0.576-1.152,0.169-1.654
							c-0.411-0.501-1.149-0.581-1.656-0.162C64.654,97.062,64.577,97.8,64.983,98.304"/>
						<path fill="#FAB585" d="M64.983,98.304c0.416,0.503,1.15,0.573,1.656,0.169c0.498-0.413,0.576-1.152,0.169-1.654
							c-0.411-0.501-1.149-0.581-1.656-0.162C64.654,97.062,64.577,97.8,64.983,98.304z"/>
						<path fill="#FAB585" d="M104.103,72.133c0.422,0.508,1.148,0.583,1.659,0.17c0.497-0.414,0.575-1.144,0.16-1.655
							c-0.4-0.498-1.146-0.574-1.646-0.167C103.769,70.894,103.696,71.631,104.103,72.133"/>
						<path fill="#FAB585" d="M104.103,72.133c0.422,0.508,1.148,0.583,1.659,0.17c0.497-0.414,0.575-1.144,0.16-1.655
							c-0.4-0.498-1.146-0.574-1.646-0.167C103.769,70.894,103.696,71.631,104.103,72.133z"/>
						<path fill="#FAB585" d="M97.526,77.5c0.414,0.507,1.147,0.581,1.654,0.174c0.5-0.417,0.576-1.148,0.163-1.662
							c-0.402-0.496-1.148-0.572-1.647-0.165C97.19,76.256,97.117,76.998,97.526,77.5"/>
						<path fill="#FAB585" d="M97.526,77.5c0.414,0.507,1.147,0.581,1.654,0.174c0.5-0.417,0.576-1.148,0.163-1.662
							c-0.402-0.496-1.148-0.572-1.647-0.165C97.19,76.256,97.117,76.998,97.526,77.5z"/>
						<path fill="#FAB585" d="M90.944,82.865c0.416,0.506,1.147,0.585,1.65,0.171c0.501-0.416,0.581-1.144,0.169-1.655
							c-0.399-0.496-1.146-0.576-1.648-0.165C90.607,81.63,90.535,82.363,90.944,82.865"/>
						<path fill="#FAB585" d="M90.944,82.865c0.416,0.506,1.147,0.585,1.65,0.171c0.501-0.416,0.581-1.144,0.169-1.655
							c-0.399-0.496-1.146-0.576-1.648-0.165C90.607,81.63,90.535,82.363,90.944,82.865z"/>
						<path fill="#FAB585" d="M84.364,88.237c0.416,0.501,1.146,0.581,1.648,0.162c0.503-0.412,0.582-1.139,0.172-1.646
							c-0.405-0.503-1.147-0.582-1.65-0.172C84.026,86.998,83.953,87.734,84.364,88.237"/>
						<path fill="#FAB585" d="M84.364,88.237c0.416,0.501,1.146,0.581,1.648,0.162c0.503-0.412,0.582-1.139,0.172-1.646
							c-0.405-0.503-1.147-0.582-1.65-0.172C84.026,86.998,83.953,87.734,84.364,88.237z"/>
						<path fill="#FAB585" d="M77.786,93.601c0.413,0.504,1.144,0.58,1.649,0.164c0.502-0.407,0.577-1.138,0.172-1.645
							c-0.406-0.503-1.152-0.582-1.654-0.17C77.45,92.359,77.378,93.098,77.786,93.601"/>
						<path fill="#FAB585" d="M77.786,93.601c0.413,0.504,1.144,0.58,1.649,0.164c0.502-0.407,0.577-1.138,0.172-1.645
							c-0.406-0.503-1.152-0.582-1.654-0.17C77.45,92.359,77.378,93.098,77.786,93.601z"/>
						<path fill="#FAB585" d="M71.204,98.971c0.412,0.503,1.146,0.578,1.651,0.159c0.503-0.4,0.578-1.137,0.172-1.646
							c-0.408-0.5-1.148-0.582-1.654-0.168C70.867,97.729,70.794,98.467,71.204,98.971"/>
						<path fill="#FAB585" d="M71.204,98.971c0.412,0.503,1.146,0.578,1.651,0.159c0.503-0.4,0.578-1.137,0.172-1.646
							c-0.408-0.5-1.148-0.582-1.654-0.168C70.867,97.729,70.794,98.467,71.204,98.971z"/>
						<path fill="#FAB585" d="M103.495,78.364c0.416,0.512,1.153,0.579,1.658,0.169c0.493-0.408,0.579-1.149,0.16-1.656
							c-0.404-0.501-1.144-0.579-1.645-0.165C103.168,77.124,103.094,77.855,103.495,78.364"/>
						<path fill="#FAB585" d="M103.495,78.364c0.416,0.512,1.153,0.579,1.658,0.169c0.493-0.408,0.579-1.149,0.16-1.656
							c-0.404-0.501-1.144-0.579-1.645-0.165C103.168,77.124,103.094,77.855,103.495,78.364z"/>
						<path fill="#FAB585" d="M96.915,83.728c0.412,0.512,1.155,0.581,1.657,0.172c0.5-0.406,0.577-1.148,0.163-1.656
							c-0.408-0.503-1.145-0.579-1.647-0.163C96.586,82.489,96.509,83.226,96.915,83.728"/>
						<path fill="#FAB585" d="M96.915,83.728c0.412,0.512,1.155,0.581,1.657,0.172c0.5-0.406,0.577-1.148,0.163-1.656
							c-0.408-0.503-1.145-0.579-1.647-0.163C96.586,82.489,96.509,83.226,96.915,83.728z"/>
						<path fill="#FAB585" d="M90.335,89.098c0.412,0.512,1.156,0.581,1.655,0.169c0.502-0.408,0.579-1.148,0.165-1.659
							c-0.41-0.502-1.144-0.577-1.647-0.161C90.007,87.857,89.927,88.596,90.335,89.098"/>
						<path fill="#FAB585" d="M90.335,89.098c0.412,0.512,1.156,0.581,1.655,0.169c0.502-0.408,0.579-1.148,0.165-1.659
							c-0.41-0.502-1.144-0.577-1.647-0.161C90.007,87.857,89.927,88.596,90.335,89.098z"/>
						<path fill="#FAB585" d="M83.753,94.464c0.413,0.511,1.156,0.577,1.657,0.167c0.501-0.408,0.58-1.146,0.166-1.656
							c-0.412-0.497-1.148-0.573-1.651-0.16C83.425,93.219,83.345,93.961,83.753,94.464"/>
						<path fill="#FAB585" d="M83.753,94.464c0.413,0.511,1.156,0.577,1.657,0.167c0.501-0.408,0.58-1.146,0.166-1.656
							c-0.412-0.497-1.148-0.573-1.651-0.16C83.425,93.219,83.345,93.961,83.753,94.464z"/>
						<path fill="#FAB585" d="M77.172,99.832c0.414,0.507,1.155,0.579,1.657,0.171c0.494-0.416,0.582-1.153,0.165-1.665
							c-0.407-0.503-1.141-0.572-1.651-0.155C76.847,98.589,76.766,99.334,77.172,99.832"/>
						<path fill="#FAB585" d="M77.172,99.832c0.414,0.507,1.155,0.579,1.657,0.171c0.494-0.416,0.582-1.153,0.165-1.665
							c-0.407-0.503-1.141-0.572-1.651-0.155C76.847,98.589,76.766,99.334,77.172,99.832z"/>
						<path fill="#FAB585" d="M70.592,105.199c0.416,0.501,1.158,0.576,1.654,0.166c0.499-0.412,0.585-1.145,0.167-1.66
							c-0.409-0.497-1.145-0.574-1.652-0.156C70.264,103.951,70.186,104.695,70.592,105.199"/>
						<path fill="#FAB585" d="M70.592,105.199c0.416,0.501,1.158,0.576,1.654,0.166c0.499-0.412,0.585-1.145,0.167-1.66
							c-0.409-0.497-1.145-0.574-1.652-0.156C70.264,103.951,70.186,104.695,70.592,105.199z"/>
						<path fill="#FAB585" d="M109.715,79.027c0.416,0.506,1.152,0.586,1.653,0.173c0.499-0.415,0.576-1.146,0.168-1.659
							c-0.401-0.498-1.148-0.572-1.648-0.157C109.384,77.786,109.303,78.526,109.715,79.027"/>
						<path fill="#FAB585" d="M109.715,79.027c0.416,0.506,1.152,0.586,1.653,0.173c0.499-0.415,0.576-1.146,0.168-1.659
							c-0.401-0.498-1.148-0.572-1.648-0.157C109.384,77.786,109.303,78.526,109.715,79.027z"/>
						<path fill="#FAB585" d="M103.135,84.395c0.414,0.503,1.149,0.586,1.655,0.168c0.496-0.412,0.574-1.146,0.161-1.654
							c-0.399-0.502-1.146-0.571-1.645-0.158C102.804,83.157,102.723,83.891,103.135,84.395"/>
						<path fill="#FAB585" d="M103.135,84.395c0.414,0.503,1.149,0.586,1.655,0.168c0.496-0.412,0.574-1.146,0.161-1.654
							c-0.399-0.502-1.146-0.571-1.645-0.158C102.804,83.157,102.723,83.891,103.135,84.395z"/>
						<path fill="#FAB585" d="M96.555,89.762c0.413,0.505,1.151,0.586,1.655,0.17c0.498-0.418,0.571-1.147,0.159-1.655
							c-0.405-0.507-1.139-0.575-1.645-0.161C96.221,88.523,96.144,89.262,96.555,89.762"/>
						<path fill="#FAB585" d="M96.555,89.762c0.413,0.505,1.151,0.586,1.655,0.17c0.498-0.418,0.571-1.147,0.159-1.655
							c-0.405-0.507-1.139-0.575-1.645-0.161C96.221,88.523,96.144,89.262,96.555,89.762z"/>
						<path fill="#FAB585" d="M89.972,95.13c0.415,0.502,1.152,0.587,1.656,0.17c0.496-0.414,0.574-1.146,0.16-1.652
							c-0.404-0.506-1.141-0.581-1.646-0.167C89.636,93.892,89.562,94.624,89.972,95.13"/>
						<path fill="#FAB585" d="M89.972,95.13c0.415,0.502,1.152,0.587,1.656,0.17c0.496-0.414,0.574-1.146,0.16-1.652
							c-0.404-0.506-1.141-0.581-1.646-0.167C89.636,93.892,89.562,94.624,89.972,95.13z"/>
						<path fill="#FAB585" d="M83.393,100.495c0.413,0.507,1.148,0.585,1.653,0.173c0.497-0.42,0.577-1.147,0.164-1.657
							c-0.404-0.504-1.146-0.58-1.648-0.168C83.055,99.257,82.98,99.994,83.393,100.495"/>
						<path fill="#FAB585" d="M83.393,100.495c0.413,0.507,1.148,0.585,1.653,0.173c0.497-0.42,0.577-1.147,0.164-1.657
							c-0.404-0.504-1.146-0.58-1.648-0.168C83.055,99.257,82.98,99.994,83.393,100.495z"/>
						<path fill="#FAB585" d="M76.811,105.864c0.414,0.501,1.153,0.584,1.654,0.167c0.495-0.411,0.576-1.144,0.166-1.651
							c-0.407-0.506-1.146-0.582-1.649-0.17C76.475,104.621,76.399,105.36,76.811,105.864"/>
						<path fill="#FAB585" d="M76.811,105.864c0.414,0.501,1.153,0.584,1.654,0.167c0.495-0.411,0.576-1.144,0.166-1.651
							c-0.407-0.506-1.146-0.582-1.649-0.17C76.475,104.621,76.399,105.36,76.811,105.864z"/>
						<path fill="#FAB585" d="M109.104,85.258c0.42,0.514,1.155,0.575,1.665,0.171c0.492-0.414,0.571-1.151,0.153-1.657
							c-0.401-0.498-1.143-0.571-1.645-0.166C108.774,84.021,108.702,84.751,109.104,85.258"/>
						<path fill="#FAB585" d="M109.104,85.258c0.42,0.514,1.155,0.575,1.665,0.171c0.492-0.414,0.571-1.151,0.153-1.657
							c-0.401-0.498-1.143-0.571-1.645-0.166C108.774,84.021,108.702,84.751,109.104,85.258z"/>
						<path fill="#FAB585" d="M102.524,90.624c0.416,0.517,1.162,0.581,1.664,0.17c0.493-0.409,0.572-1.146,0.153-1.658
							c-0.403-0.493-1.145-0.57-1.645-0.162C102.193,89.387,102.118,90.119,102.524,90.624"/>
						<path fill="#FAB585" d="M102.524,90.624c0.416,0.517,1.162,0.581,1.664,0.17c0.493-0.409,0.572-1.146,0.153-1.658
							c-0.403-0.493-1.145-0.57-1.645-0.162C102.193,89.387,102.118,90.119,102.524,90.624z"/>
						<path fill="#FAB585" d="M95.944,95.994c0.411,0.509,1.153,0.574,1.656,0.166c0.501-0.407,0.578-1.151,0.161-1.658
							c-0.4-0.498-1.14-0.567-1.648-0.159C95.618,94.749,95.537,95.488,95.944,95.994"/>
						<path fill="#FAB585" d="M95.944,95.994c0.411,0.509,1.153,0.574,1.656,0.166c0.501-0.407,0.578-1.151,0.161-1.658
							c-0.4-0.498-1.14-0.567-1.648-0.159C95.618,94.749,95.537,95.488,95.944,95.994z"/>
						<path fill="#FAB585" d="M89.363,101.362c0.407,0.506,1.154,0.572,1.654,0.166c0.503-0.411,0.582-1.152,0.169-1.659
							c-0.408-0.5-1.146-0.571-1.654-0.162C89.031,100.114,88.953,100.854,89.363,101.362"/>
						<path fill="#FAB585" d="M89.363,101.362c0.407,0.506,1.154,0.572,1.654,0.166c0.503-0.411,0.582-1.152,0.169-1.659
							c-0.408-0.5-1.146-0.571-1.654-0.162C89.031,100.114,88.953,100.854,89.363,101.362z"/>
						<path fill="#FAB585" d="M82.782,106.726c0.41,0.508,1.152,0.576,1.654,0.168s0.582-1.151,0.173-1.657
							c-0.407-0.501-1.152-0.574-1.659-0.161C82.451,105.48,82.373,106.222,82.782,106.726"/>
						<path fill="#FAB585" d="M82.782,106.726c0.41,0.508,1.152,0.576,1.654,0.168s0.582-1.151,0.173-1.657
							c-0.407-0.501-1.152-0.574-1.659-0.161C82.451,105.48,82.373,106.222,82.782,106.726z"/>
						<path fill="#FAB585" d="M76.204,112.096c0.41,0.501,1.152,0.575,1.651,0.17c0.5-0.411,0.583-1.156,0.174-1.662
							c-0.414-0.497-1.15-0.576-1.66-0.158C75.87,110.846,75.8,111.585,76.204,112.096"/>
						<path fill="#FAB585" d="M76.204,112.096c0.41,0.501,1.152,0.575,1.651,0.17c0.5-0.411,0.583-1.156,0.174-1.662
							c-0.414-0.497-1.15-0.576-1.66-0.158C75.87,110.846,75.8,111.585,76.204,112.096z"/>
						<path fill="#FAB585" d="M115.322,85.924c0.417,0.505,1.154,0.577,1.654,0.169c0.499-0.415,0.584-1.149,0.174-1.66
							c-0.412-0.494-1.152-0.565-1.651-0.162C114.995,84.679,114.915,85.42,115.322,85.924"/>
						<path fill="#FAB585" d="M115.322,85.924c0.417,0.505,1.154,0.577,1.654,0.169c0.499-0.415,0.584-1.149,0.174-1.66
							c-0.412-0.494-1.152-0.565-1.651-0.162C114.995,84.679,114.915,85.42,115.322,85.924z"/>
						<path fill="#FAB585" d="M108.743,91.289c0.413,0.506,1.152,0.579,1.651,0.17c0.503-0.41,0.592-1.148,0.174-1.662
							c-0.408-0.496-1.151-0.569-1.652-0.158C108.411,90.045,108.335,90.793,108.743,91.289"/>
						<path fill="#FAB585" d="M108.743,91.289c0.413,0.506,1.152,0.579,1.651,0.17c0.503-0.41,0.592-1.148,0.174-1.662
							c-0.408-0.496-1.151-0.569-1.652-0.158C108.411,90.045,108.335,90.793,108.743,91.289z"/>
						<path fill="#FAB585" d="M102.165,96.654c0.409,0.509,1.149,0.587,1.651,0.172c0.501-0.412,0.584-1.153,0.168-1.659
							c-0.398-0.494-1.147-0.572-1.65-0.16C101.83,95.413,101.754,96.151,102.165,96.654"/>
						<path fill="#FAB585" d="M102.165,96.654c0.409,0.509,1.149,0.587,1.651,0.172c0.501-0.412,0.584-1.153,0.168-1.659
							c-0.398-0.494-1.147-0.572-1.65-0.16C101.83,95.413,101.754,96.151,102.165,96.654z"/>
						<path fill="#FAB585" d="M95.582,102.022c0.413,0.512,1.15,0.578,1.652,0.17c0.502-0.413,0.588-1.153,0.174-1.658
							c-0.405-0.498-1.152-0.571-1.653-0.162C95.252,100.778,95.17,101.518,95.582,102.022"/>
						<path fill="#FAB585" d="M95.582,102.022c0.413,0.512,1.15,0.578,1.652,0.17c0.502-0.413,0.588-1.153,0.174-1.658
							c-0.405-0.498-1.152-0.571-1.653-0.162C95.252,100.778,95.17,101.518,95.582,102.022z"/>
						<path fill="#FAB585" d="M89.003,107.39c0.411,0.507,1.151,0.584,1.655,0.171c0.497-0.412,0.58-1.15,0.166-1.659
							c-0.401-0.495-1.146-0.571-1.65-0.16C88.672,106.149,88.593,106.883,89.003,107.39"/>
						<path fill="#FAB585" d="M89.003,107.39c0.411,0.507,1.151,0.584,1.655,0.171c0.497-0.412,0.58-1.15,0.166-1.659
							c-0.401-0.495-1.146-0.571-1.65-0.16C88.672,106.149,88.593,106.883,89.003,107.39z"/>
						<path fill="#FAB585" d="M82.42,112.76c0.415,0.501,1.152,0.581,1.656,0.169c0.499-0.415,0.573-1.152,0.169-1.661
							c-0.41-0.495-1.15-0.576-1.653-0.161C82.088,111.515,82.014,112.25,82.42,112.76"/>
						<path fill="#FAB585" d="M82.42,112.76c0.415,0.501,1.152,0.581,1.656,0.169c0.499-0.415,0.573-1.152,0.169-1.661
							c-0.41-0.495-1.15-0.576-1.653-0.161C82.088,111.515,82.014,112.25,82.42,112.76z"/>
						<path fill="#FAB585" d="M114.716,92.153c0.413,0.503,1.153,0.575,1.656,0.161c0.5-0.404,0.571-1.148,0.167-1.652
							c-0.41-0.494-1.148-0.575-1.649-0.16C114.386,90.907,114.312,91.646,114.716,92.153"/>
						<path fill="#FAB585" d="M114.716,92.153c0.413,0.503,1.153,0.575,1.656,0.161c0.5-0.404,0.571-1.148,0.167-1.652
							c-0.41-0.494-1.148-0.575-1.649-0.16C114.386,90.907,114.312,91.646,114.716,92.153z"/>
						<path fill="#FAB585" d="M108.133,97.519c0.414,0.507,1.154,0.578,1.657,0.163c0.499-0.404,0.573-1.151,0.167-1.652
							c-0.409-0.5-1.145-0.572-1.648-0.162C107.807,96.276,107.725,97.013,108.133,97.519"/>
						<path fill="#FAB585" d="M108.133,97.519c0.414,0.507,1.154,0.578,1.657,0.163c0.499-0.404,0.573-1.151,0.167-1.652
							c-0.409-0.5-1.145-0.572-1.648-0.162C107.807,96.276,107.725,97.013,108.133,97.519z"/>
						<path fill="#FAB585" d="M101.555,102.885c0.412,0.512,1.15,0.578,1.652,0.172c0.501-0.41,0.579-1.152,0.17-1.657
							c-0.407-0.499-1.146-0.575-1.648-0.164C101.227,101.646,101.148,102.383,101.555,102.885"/>
						<path fill="#FAB585" d="M101.555,102.885c0.412,0.512,1.15,0.578,1.652,0.172c0.501-0.41,0.579-1.152,0.17-1.657
							c-0.407-0.499-1.146-0.575-1.648-0.164C101.227,101.646,101.148,102.383,101.555,102.885z"/>
						<path fill="#FAB585" d="M94.973,108.249c0.419,0.51,1.153,0.579,1.654,0.17c0.498-0.408,0.581-1.153,0.171-1.655
							c-0.41-0.501-1.147-0.572-1.651-0.163C94.647,107.01,94.566,107.75,94.973,108.249"/>
						<path fill="#FAB585" d="M94.973,108.249c0.419,0.51,1.153,0.579,1.654,0.17c0.498-0.408,0.581-1.153,0.171-1.655
							c-0.41-0.501-1.147-0.572-1.651-0.163C94.647,107.01,94.566,107.75,94.973,108.249z"/>
						<path fill="#FAB585" d="M88.392,113.613c0.418,0.514,1.152,0.584,1.654,0.174c0.5-0.406,0.578-1.146,0.169-1.653
							c-0.405-0.502-1.146-0.573-1.647-0.165C88.066,112.378,87.982,113.11,88.392,113.613"/>
						<path fill="#FAB585" d="M88.392,113.613c0.418,0.514,1.152,0.584,1.654,0.174c0.5-0.406,0.578-1.146,0.169-1.653
							c-0.405-0.502-1.146-0.573-1.647-0.165C88.066,112.378,87.982,113.11,88.392,113.613z"/>
						<path fill="#FAB585" d="M81.812,118.98c0.417,0.513,1.152,0.585,1.653,0.176c0.497-0.407,0.579-1.15,0.166-1.656
							c-0.405-0.498-1.146-0.58-1.646-0.164C81.483,117.74,81.404,118.479,81.812,118.98"/>
						<path fill="#FAB585" d="M81.812,118.98c0.417,0.513,1.152,0.585,1.653,0.176c0.497-0.407,0.579-1.15,0.166-1.656
							c-0.405-0.498-1.146-0.58-1.646-0.164C81.483,117.74,81.404,118.479,81.812,118.98z"/>
						<path fill="#FAB585" d="M120.938,92.815c0.406,0.509,1.152,0.582,1.649,0.167c0.501-0.41,0.582-1.145,0.166-1.65
							c-0.403-0.507-1.146-0.579-1.645-0.163C120.602,91.572,120.53,92.312,120.938,92.815"/>
						<path fill="#FAB585" d="M120.938,92.815c0.406,0.509,1.152,0.582,1.649,0.167c0.501-0.41,0.582-1.145,0.166-1.65
							c-0.403-0.507-1.146-0.579-1.645-0.163C120.602,91.572,120.53,92.312,120.938,92.815z"/>
						<path fill="#FAB585" d="M114.357,98.183c0.409,0.508,1.148,0.579,1.649,0.17c0.5-0.411,0.581-1.146,0.167-1.653
							c-0.407-0.503-1.141-0.575-1.646-0.167C114.026,96.944,113.947,97.676,114.357,98.183"/>
						<path fill="#FAB585" d="M114.357,98.183c0.409,0.508,1.148,0.579,1.649,0.17c0.5-0.411,0.581-1.146,0.167-1.653
							c-0.407-0.503-1.141-0.575-1.646-0.167C114.026,96.944,113.947,97.676,114.357,98.183z"/>
						<path fill="#FAB585" d="M107.775,103.549c0.408,0.507,1.148,0.579,1.651,0.17c0.5-0.412,0.579-1.147,0.167-1.654
							c-0.405-0.503-1.143-0.577-1.646-0.164S107.369,103.042,107.775,103.549"/>
						<path fill="#FAB585" d="M107.775,103.549c0.408,0.507,1.148,0.579,1.651,0.17c0.5-0.412,0.579-1.147,0.167-1.654
							c-0.405-0.503-1.143-0.577-1.646-0.164S107.369,103.042,107.775,103.549z"/>
						<path fill="#FAB585" d="M101.194,108.918c0.41,0.506,1.148,0.577,1.648,0.168c0.504-0.41,0.584-1.148,0.17-1.657
							c-0.407-0.497-1.144-0.578-1.648-0.164C100.865,107.679,100.79,108.412,101.194,108.918"/>
						<path fill="#FAB585" d="M101.194,108.918c0.41,0.506,1.148,0.577,1.648,0.168c0.504-0.41,0.584-1.148,0.17-1.657
							c-0.407-0.497-1.144-0.578-1.648-0.164C100.865,107.679,100.79,108.412,101.194,108.918z"/>
						<path fill="#FAB585" d="M94.613,114.285c0.405,0.509,1.142,0.575,1.649,0.168c0.503-0.412,0.583-1.149,0.172-1.658
							c-0.408-0.501-1.148-0.572-1.649-0.159C94.283,113.047,94.207,113.78,94.613,114.285"/>
						<path fill="#FAB585" d="M94.613,114.285c0.405,0.509,1.142,0.575,1.649,0.168c0.503-0.412,0.583-1.149,0.172-1.658
							c-0.408-0.501-1.148-0.572-1.649-0.159C94.283,113.047,94.207,113.78,94.613,114.285z"/>
						<path fill="#FAB585" d="M88.033,119.654c0.409,0.504,1.146,0.575,1.648,0.166c0.504-0.41,0.585-1.146,0.171-1.658
							c-0.409-0.494-1.149-0.574-1.649-0.162C87.697,118.411,87.628,119.147,88.033,119.654"/>
						<path fill="#FAB585" d="M88.033,119.654c0.409,0.504,1.146,0.575,1.648,0.166c0.504-0.41,0.585-1.146,0.171-1.658
							c-0.409-0.494-1.149-0.574-1.649-0.162C87.697,118.411,87.628,119.147,88.033,119.654z"/>
						<path fill="#FAB585" d="M120.328,99.051c0.414,0.503,1.148,0.572,1.652,0.159c0.499-0.409,0.58-1.145,0.169-1.653
							c-0.411-0.502-1.151-0.575-1.649-0.167C120,97.806,119.92,98.543,120.328,99.051"/>
						<path fill="#FAB585" d="M120.328,99.051c0.414,0.503,1.148,0.572,1.652,0.159c0.499-0.409,0.58-1.145,0.169-1.653
							c-0.411-0.502-1.151-0.575-1.649-0.167C120,97.806,119.92,98.543,120.328,99.051z"/>
						<path fill="#FAB585" d="M113.748,104.415c0.412,0.504,1.146,0.574,1.65,0.162c0.499-0.409,0.581-1.144,0.17-1.653
							c-0.408-0.501-1.153-0.576-1.654-0.167C113.415,103.169,113.335,103.907,113.748,104.415"/>
						<path fill="#FAB585" d="M113.748,104.415c0.412,0.504,1.146,0.574,1.65,0.162c0.499-0.409,0.581-1.144,0.17-1.653
							c-0.408-0.501-1.153-0.576-1.654-0.167C113.415,103.169,113.335,103.907,113.748,104.415z"/>
						<path fill="#FAB585" d="M107.166,109.784c0.412,0.503,1.146,0.573,1.649,0.159c0.5-0.404,0.58-1.145,0.168-1.65
							c-0.405-0.505-1.147-0.573-1.649-0.166C106.831,108.538,106.757,109.275,107.166,109.784"/>
						<path fill="#FAB585" d="M107.166,109.784c0.412,0.503,1.146,0.573,1.649,0.159c0.5-0.404,0.58-1.145,0.168-1.65
							c-0.405-0.505-1.147-0.573-1.649-0.166C106.831,108.538,106.757,109.275,107.166,109.784z"/>
						<path fill="#FAB585" d="M100.588,115.143c0.411,0.51,1.146,0.581,1.647,0.168c0.5-0.404,0.58-1.147,0.168-1.65
							c-0.406-0.506-1.147-0.578-1.65-0.171C100.254,113.901,100.174,114.644,100.588,115.143"/>
						<path fill="#FAB585" d="M100.588,115.143c0.411,0.51,1.146,0.581,1.647,0.168c0.5-0.404,0.58-1.147,0.168-1.65
							c-0.406-0.506-1.147-0.578-1.65-0.171C100.254,113.901,100.174,114.644,100.588,115.143z"/>
						<path fill="#FAB585" d="M94.006,120.51c0.412,0.512,1.145,0.584,1.655,0.171c0.492-0.409,0.573-1.146,0.161-1.653
							c-0.404-0.505-1.15-0.576-1.651-0.166C93.668,119.271,93.599,120.013,94.006,120.51"/>
						<path fill="#FAB585" d="M94.006,120.51c0.412,0.512,1.145,0.584,1.655,0.171c0.492-0.409,0.573-1.146,0.161-1.653
							c-0.404-0.505-1.15-0.576-1.651-0.166C93.668,119.271,93.599,120.013,94.006,120.51z"/>
						<path fill="#FAB585" d="M87.427,125.876c0.412,0.511,1.146,0.582,1.653,0.171c0.495-0.411,0.574-1.145,0.162-1.649
							c-0.405-0.509-1.148-0.577-1.649-0.172C87.093,124.635,87.023,125.375,87.427,125.876"/>
						<path fill="#FAB585" d="M87.427,125.876c0.412,0.511,1.146,0.582,1.653,0.171c0.495-0.411,0.574-1.145,0.162-1.649
							c-0.405-0.509-1.148-0.577-1.649-0.172C87.093,124.635,87.023,125.375,87.427,125.876z"/>
					</g>
				</g>
			</g>
			<polygon fill="none" stroke="#58595B" stroke-width="1.5867" stroke-miterlimit="10" points="49.128,27.857 45.954,19.251 
				25.391,35.876 33.074,40.984 95.098,117.608 98.271,126.215 118.834,109.591 111.152,104.479 			"/>
		</g>
	</g>
	<rect x="11.934" y="11.147" fill="none" width="115.153" height="122.483"/>
	<path fill="none" stroke="#4F5877" stroke-width="0.7872" stroke-miterlimit="10" d="M138.845,42.345l0.167-5.461
		c-2.388,0-4.39-1.547-5.12-3.686v-3.509c0.73-2.136,2.732-3.683,5.12-3.683l-0.058-4.648c-2.316,0-4.279-1.453-5.062-3.495V13.98
		c0.783-2.044,2.746-3.5,5.062-3.5l0.053-4.744h-5.115V0.221l-5.652,0.053c0,3.005-2.354,5.44-5.257,5.44
		c-2.902,0-5.252-2.435-5.252-5.44l-4.489-0.055c0,3.005-2.349,5.442-5.252,5.442s-5.255-2.437-5.255-5.442l-5.273-0.22
		c0,3.003-2.355,5.44-5.255,5.44c-2.903,0-5.258-2.437-5.258-5.44l-4.483,0.11c0,3.003-2.351,5.44-5.254,5.44
		c-2.905,0-5.255-2.437-5.255-5.44l-5.961,0.053c0,3.007-2.353,5.442-5.255,5.442c-2.902,0-5.254-2.435-5.254-5.442L51,0.055
		c0,3.006-2.353,5.439-5.254,5.439c-2.901,0-5.255-2.433-5.255-5.439l-5.274-0.166c0,3.005-2.353,5.44-5.258,5.44
		c-2.897,0-5.25-2.435-5.25-5.44l-4.49,0.056c0,3.004-2.35,5.442-5.252,5.442c-2.9,0-5.254-2.438-5.254-5.442L5.13-0.109v5.845
		H0.013l0.055,4.744c2.314,0,4.278,1.457,5.062,3.497v3.887c-0.784,2.041-2.748,3.494-5.062,3.494l-0.057,4.648
		c2.385,0,4.387,1.547,5.119,3.681v3.512c-0.732,2.138-2.734,3.685-5.119,3.685l0.167,5.461c2.21,0,4.103,1.325,4.952,3.223v4.436
		c-0.849,1.895-2.742,3.221-4.952,3.221l0.108,4.642c2.128,0,3.952,1.237,4.844,3.021v4.841c-0.892,1.784-2.716,3.021-4.844,3.021
		L0.23,74.921c2.17,0,4.028,1.281,4.899,3.123v4.633C4.259,84.519,2.401,85.8,0.23,85.8l-0.11,4.642
		c2.252,0,4.186,1.376,5.009,3.333v4.22c-0.824,1.956-2.757,3.331-5.009,3.331l0.221,5.46c2.087,0,3.877,1.189,4.789,2.916v5.047
		c-0.911,1.728-2.702,2.917-4.789,2.917l0.055,4.646c2.045,0,3.807,1.145,4.733,2.816v5.243c-0.927,1.673-2.688,2.82-4.733,2.82
		l-0.054,5.851H5.13v5.848l4.583-0.056c0-3.005,2.354-5.441,5.254-5.441c2.903,0,5.252,2.437,5.252,5.441l4.49,0.056
		c0-3.005,2.352-5.438,5.25-5.438c2.906,0,5.258,2.434,5.258,5.438l5.274-0.166c0-3.006,2.354-5.439,5.255-5.439
		c2.902,0,5.254,2.434,5.254,5.439l4.485-0.107c0-3.005,2.352-5.442,5.254-5.442c2.903,0,5.255,2.438,5.255,5.442l5.961,0.054
		c0-3.004,2.35-5.438,5.255-5.438c2.903,0,5.254,2.435,5.254,5.438l4.483,0.111c0-3.003,2.354-5.44,5.258-5.44
		c2.899,0,5.255,2.438,5.255,5.44l5.273-0.223c0-3.005,2.352-5.441,5.255-5.441s5.252,2.437,5.252,5.441l4.489-0.054
		c0-3.004,2.35-5.44,5.252-5.44c2.903,0,5.257,2.437,5.257,5.44l5.652,0.054v-5.517h4.788l-0.056-5.851
		c-2.045,0-3.806-1.147-4.732-2.822v-5.241c0.927-1.672,2.688-2.816,4.732-2.816l0.056-4.646c-2.087,0-3.878-1.191-4.788-2.917
		v-5.047c0.91-1.725,2.701-2.916,4.788-2.916l0.222-5.46c-2.254,0-4.188-1.375-5.01-3.333v-4.215c0.822-1.96,2.756-3.336,5.01-3.336
		l-0.112-4.642c-2.169,0-4.028-1.281-4.897-3.123v-4.632c0.869-1.843,2.729-3.124,4.897-3.124l-0.053-6.172
		c-2.13,0-3.954-1.237-4.845-3.021V60.89c0.891-1.784,2.715-3.022,4.845-3.022l0.108-4.642c-2.213,0-4.105-1.327-4.953-3.223v-4.434
		C134.739,43.672,136.632,42.345,138.845,42.345z"/>
	
		<rect x="11.934" y="11.147" fill="none" stroke="#4F5877" stroke-width="1.5744" stroke-miterlimit="10" width="115.153" height="122.483"/>
	<ellipse fill="#58595B" cx="103.619" cy="32.297" rx="19.16" ry="19.18"/>
	<path fill="#4F5877" d="M51.77,94.438c0.081-0.113,0.242-0.178,0.37-0.129c0.161,0.048,0.242,0.177,0.242,0.306v10.083
		c0,0.37-0.515,0.37-0.515,0v-9.6l-2.188,3.044c-0.226,0.321-0.644,0.031-0.418-0.274L51.77,94.438z"/>
	<path fill="#4F5877" d="M54.021,101.91c0-1.353,0.949-2.175,2.252-2.384c-1.126-0.29-1.979-1.144-1.979-2.415
		c0-0.468,0.113-0.854,0.29-1.192c0.66-1.272,2.285-1.659,3.572-1.659c1.271,0,2.88,0.402,3.523,1.659
		c0.177,0.338,0.306,0.725,0.306,1.192c0,1.336-0.804,2.109-1.995,2.399c1.335,0.193,2.269,1.111,2.269,2.415
		c0,2.352-2.156,3.062-4.135,3.062C56.208,104.971,54.021,104.31,54.021,101.91z M54.503,101.942c0,1.965,2.108,2.609,3.636,2.609
		c1.512,0,3.636-0.58,3.636-2.609c0-1.836-1.834-2.207-3.636-2.207C56.321,99.735,54.503,100.091,54.503,101.942z M61.501,97.143
		c0-0.192-0.016-0.387-0.081-0.58c-0.724-2.447-5.84-2.447-6.563,0c-0.081,0.193-0.097,0.388-0.097,0.58
		c0,1.756,1.625,2.207,3.362,2.207C59.861,99.35,61.501,98.898,61.501,97.143z"/>
	<path fill="#4F5877" d="M24.359,119.658c0.418,0,0.418,0.516,0,0.516h-2.237v4.944c0,1.16,0.193,2.352,1.689,2.352
		c0.306,0,0.74-0.113,0.965-0.241c0.338-0.161,0.644,0.257,0.209,0.482c-0.402,0.21-0.772,0.273-1.174,0.273
		c-1.802,0-2.236-1.368-2.236-2.866v-4.944H20.08c-0.435,0-0.435-0.516,0-0.516h1.497v-2.062c0-0.354,0.546-0.339,0.546,0v2.062
		H24.359z"/>
	<path fill="#4F5877" d="M30.294,119.545c0.691,0.017,1.351,0.178,1.931,0.516c0.531,0.354,0.933,0.854,1.174,1.498v-1.627
		c0-0.177,0.096-0.29,0.273-0.29c0.177,0,0.29,0.113,0.29,0.29v7.715c0,0.177-0.113,0.29-0.29,0.29c-0.177,0-0.273-0.113-0.273-0.29
		v-1.627c-0.241,0.645-0.644,1.144-1.174,1.498c-1.014,0.596-2.301,0.741-3.524,0.242c-1.737-0.71-2.606-2.304-2.558-4.188
		c0.049-1.626,0.917-3.124,2.446-3.72C29.119,119.625,29.682,119.529,30.294,119.545z M33.399,124.489v-1.401
		c-0.064-1.175-0.611-2.142-1.673-2.657c-0.466-0.209-0.933-0.305-1.432-0.322c-1.368-0.016-2.751,0.709-3.298,2.046
		c-0.177,0.419-0.274,0.934-0.29,1.401c-0.048,1.24,0.37,2.384,1.416,3.222c0.563,0.434,1.255,0.676,1.979,0.724
		c0.563,0.017,1.094-0.111,1.625-0.354C32.788,126.632,33.335,125.666,33.399,124.489z"/>
	<path fill="#4F5877" d="M51.028,123.072c-0.033-1.98-1.915-3.286-3.894-2.786c-1.641,0.419-2.768,1.98-2.768,3.672v3.721
		c0,0.178-0.112,0.29-0.29,0.29c-0.177,0-0.29-0.112-0.29-0.29v-4.316c0-1.079-0.451-2.158-1.367-2.722
		c-0.724-0.436-1.658-0.564-2.478-0.354c-1.641,0.419-2.8,1.98-2.8,3.672v3.721c0,0.387-0.562,0.387-0.562,0v-7.779
		c0-0.145,0.128-0.274,0.273-0.274c0.177,0,0.29,0.13,0.29,0.274v2.384c0.403-1.434,1.513-2.238,2.655-2.545
		c0.965-0.241,2.06-0.097,2.913,0.419c0.708,0.436,1.319,1.079,1.512,2.368c0.451-1.676,1.497-2.465,2.768-2.787
		c2.043-0.515,4.602,0.741,4.602,3.286v4.654c0,0.178-0.113,0.29-0.29,0.29c-0.177,0-0.273-0.112-0.273-0.29V123.072z"/>
	<path fill="#4F5877" d="M57.842,128.033c-1.335-0.032-2.574-0.677-3.105-1.934v4.655c0,0.178-0.096,0.29-0.273,0.29
		s-0.29-0.112-0.29-0.29v-10.855c0-0.177,0.113-0.29,0.29-0.29s0.273,0.113,0.273,0.29v1.595c0.242-0.645,0.644-1.079,1.175-1.434
		c1.014-0.597,2.301-0.741,3.524-0.241c1.737,0.708,2.606,2.303,2.558,4.188c-0.048,1.626-0.917,3.124-2.445,3.721
		C59.017,127.952,58.454,128.05,57.842,128.033z M54.737,123.088v1.401c0.113,1.66,1.304,2.916,3.105,2.98
		c1.368,0.016,2.751-0.709,3.298-2.046c0.177-0.419,0.274-0.935,0.29-1.401c0.049-1.24-0.37-2.384-1.415-3.221
		c-0.563-0.436-1.255-0.676-1.979-0.726c-0.563-0.016-1.094,0.113-1.625,0.354C55.349,120.946,54.802,121.913,54.737,123.088z"/>
	<path fill="#4F5877" d="M64.579,126.535c-0.708-0.854-1.029-1.868-0.965-3.076c0.145-1.723,1.207-3.302,2.944-3.784
		c0.74-0.194,1.625-0.211,2.43,0c1.737,0.482,2.815,2.062,2.96,3.784c0.064,1.208-0.258,2.223-0.966,3.076
		c-0.787,0.935-1.931,1.434-3.201,1.434C66.51,127.969,65.368,127.47,64.579,126.535z M66.751,120.222
		c-2.494,0.66-3.363,3.994-1.722,5.959c0.66,0.79,1.673,1.24,2.751,1.24c1.094,0,2.124-0.45,2.783-1.24
		c1.641-1.965,0.739-5.299-1.753-5.959C68.167,120.061,67.411,120.045,66.751,120.222z"/>
	<path fill="#4F5877" d="M81.275,123.072c0-2.094-1.947-3.414-3.846-2.915c-1.656,0.418-2.767,1.98-2.815,3.672v3.85
		c0,0.178-0.097,0.29-0.273,0.29s-0.289-0.112-0.289-0.29v-7.779c0-0.145,0.112-0.274,0.289-0.274s0.273,0.113,0.273,0.29v2.223
		c0.371-1.352,1.479-2.206,2.64-2.513c2.139-0.547,4.584,0.726,4.584,3.447v4.606c0,0.178-0.096,0.29-0.272,0.29
		c-0.178,0-0.29-0.112-0.29-0.29V123.072z"/>
	<path fill="#4F5877" d="M84.231,125.988c0.209,0.998,1.737,1.465,3.152,1.465c0.967,0,3.025-0.403,3.025-1.868
		c0-2.835-6.596-0.241-6.596-3.72c0-1.547,1.914-2.352,3.41-2.352c1.223,0,2.929,0.209,3.476,1.642
		c0.112,0.451-0.419,0.549-0.531,0.21c-0.45-1.208-2.06-1.32-2.944-1.32c-1.158,0-2.863,0.499-2.863,1.82
		c0,2.722,6.612,0.209,6.612,3.72c0,1.933-2.285,2.384-3.589,2.384c-1.318,0-3.361-0.322-3.667-1.885
		C83.588,125.666,84.183,125.553,84.231,125.988z"/>
	<path fill="#FFFFFF" d="M89.634,37.689c0.518,1.847,3.038,2.545,4.704,2.702c0.224,0.024,0.472,0.046,0.697,0.046v-6.443
		c-2.903-0.248-5.784-0.607-5.784-3.604c0-2.188,2.162-3.29,4.028-3.672c0.585-0.137,1.147-0.203,1.756-0.203v-1.307
		c0-0.45,0.63-0.45,0.63,0v1.307c2.093,0.089,4.772,0.676,5.56,2.816c0.202,0.563-0.497,0.676-0.654,0.271
		c-0.674-1.94-3.037-2.346-4.905-2.39v6.175c3.016,0.246,6.077,0.515,6.077,3.512c0,3.202-3.421,4.147-6.077,4.214v1.332
		c0,0.403-0.63,0.403-0.63,0v-1.354c-2.273-0.069-5.401-0.789-6.076-3.199C88.823,37.417,89.475,37.217,89.634,37.689z
		 M95.035,27.212c-0.134,0-0.271,0-0.405,0c-1.598,0.113-3.916,0.745-4.502,2.457c-0.09,0.25-0.135,0.495-0.135,0.767
		c0,2.297,2.409,2.636,5.042,2.884V27.212z M95.665,40.438c2.183-0.046,5.334-0.856,5.334-3.513c0-2.39-2.588-2.66-5.334-2.884
		V40.438z"/>
	<path fill="#FFFFFF" d="M115.76,32.66c-0.851,1.93-3.062,3.141-5.17,3.141c-3.189,0-5.786-2.342-5.814-5.639
		c-0.076-4.917,5.428-7.361,9.312-5.019c1.543,0.926,2.469,2.574,2.469,4.349v4.815c0,2.447-0.437,4.428-2.675,5.846
		c-2.442,1.571-6.172,1.132-8.255-0.875c-0.41-0.415,0.181-1.006,0.617-0.567c1.748,1.725,4.911,2.135,7.047,0.902
		c2.185-1.289,2.47-3.168,2.47-5.357V32.66z M105.575,30.162c0,2.702,2.289,4.841,4.988,4.841c2.675,0,5.066-1.905,5.144-4.557
		l0.025-0.925c0-1.495-0.745-2.913-2.032-3.709C110.28,23.777,105.575,25.862,105.575,30.162z"/>
</g>
</svg>
