<?xml version="1.0" encoding="utf-8"?>
<!-- Generator: Adobe Illustrator 15.1.0, SVG Export Plug-In . SVG Version: 6.00 Build 0)  -->
<!DOCTYPE svg PUBLIC "-//W3C//DTD SVG 1.1//EN" "http://www.w3.org/Graphics/SVG/1.1/DTD/svg11.dtd">
<svg version="1.1" id="Capa_1" xmlns="http://www.w3.org/2000/svg" xmlns:xlink="http://www.w3.org/1999/xlink" x="0px" y="0px"
	 width="139px" height="144px" viewBox="0 0 139 144" enable-background="new 0 0 139 144" xml:space="preserve">
<g>
	<g>
		<g>
			<defs>
				<rect id="SVGID_1_" x="12.396" y="10.901" width="113.498" height="120.792"/>
			</defs>
			<clipPath id="SVGID_2_">
				<use xlink:href="#SVGID_1_"  overflow="visible"/>
			</clipPath>
		</g>
		
			<path fill="none" stroke="#4F5877" stroke-width="0.9915" stroke-linecap="round" stroke-linejoin="round" stroke-miterlimit="10" d="
			M137.48,41.667l0.165-5.386c-2.354,0-4.327-1.525-5.047-3.635v-3.46c0.72-2.107,2.693-3.632,5.047-3.632l-0.057-4.583
			c-2.282,0-4.218-1.435-4.99-3.447v-3.829c0.772-2.016,2.708-3.452,4.99-3.452l0.054-4.679h-5.044V0.125l-5.57,0.052
			c0,2.963-2.32,5.365-5.182,5.365c-2.859,0-5.175-2.401-5.175-5.365l-4.426-0.054c0,2.963-2.314,5.367-5.177,5.367
			c-2.86,0-5.179-2.403-5.179-5.367l-5.198-0.217c0,2.962-2.32,5.365-5.18,5.365c-2.861,0-5.182-2.403-5.182-5.365l-4.419,0.109
			c0,2.961-2.316,5.365-5.178,5.365c-2.863,0-5.18-2.403-5.18-5.365L65.68,0.066c0,2.965-2.319,5.367-5.18,5.367
			s-5.18-2.401-5.18-5.367l-4.419-0.105c0,2.964-2.319,5.363-5.179,5.363c-2.859,0-5.18-2.399-5.18-5.363l-5.197-0.165
			c0,2.963-2.319,5.365-5.183,5.365c-2.856,0-5.174-2.401-5.174-5.365l-4.425,0.056c0,2.961-2.316,5.366-5.177,5.366
			c-2.859,0-5.179-2.404-5.179-5.366L5.689-0.201v5.764H0.646L0.7,10.242c2.281,0,4.217,1.436,4.989,3.448v3.833
			C4.917,19.535,2.981,20.97,0.7,20.97l-0.056,4.583c2.351,0,4.323,1.525,5.045,3.63v3.463c-0.722,2.109-2.694,3.634-5.045,3.634
			l0.164,5.386c2.18,0,4.044,1.306,4.881,3.179v4.375c-0.837,1.868-2.702,3.176-4.881,3.176l0.106,4.579
			c2.098,0,3.896,1.218,4.775,2.978v4.774c-0.878,1.76-2.677,2.979-4.775,2.979l-0.053,6.086c2.139,0,3.97,1.264,4.828,3.081v4.568
			c-0.858,1.816-2.689,3.08-4.828,3.08L0.752,89.1c2.22,0,4.125,1.357,4.937,3.287v4.162c-0.812,1.928-2.717,3.285-4.937,3.285
			l0.218,5.384c2.057,0,3.822,1.173,4.719,2.876v4.978c-0.897,1.704-2.662,2.875-4.719,2.875l0.054,4.583
			c2.016,0,3.752,1.128,4.665,2.776v5.173c-0.913,1.649-2.649,2.779-4.665,2.779l-0.052,5.771h4.717v5.767l4.517-0.055
			c0-2.964,2.32-5.367,5.179-5.367c2.861,0,5.177,2.403,5.177,5.367l4.425,0.055c0-2.963,2.318-5.363,5.174-5.363
			c2.863,0,5.183,2.4,5.183,5.363l5.197-0.163c0-2.965,2.321-5.365,5.18-5.365c2.86,0,5.179,2.4,5.179,5.365l4.419-0.106
			c0-2.964,2.319-5.367,5.18-5.367s5.18,2.403,5.18,5.367l5.875,0.053c0-2.962,2.316-5.363,5.18-5.363
			c2.861,0,5.178,2.401,5.178,5.363l4.419,0.109c0-2.961,2.32-5.364,5.182-5.364c2.859,0,5.18,2.403,5.18,5.364l5.198-0.219
			c0-2.964,2.318-5.367,5.179-5.367c2.862,0,5.177,2.403,5.177,5.367l4.426-0.053c0-2.963,2.315-5.366,5.175-5.366
			c2.861,0,5.182,2.403,5.182,5.366l5.57,0.053v-5.44h4.72l-0.055-5.771c-2.016,0-3.75-1.13-4.665-2.781v-5.17
			c0.915-1.649,2.649-2.777,4.665-2.777l0.056-4.583c-2.057,0-3.822-1.173-4.721-2.875v-4.978c0.898-1.701,2.664-2.876,4.721-2.876
			l0.218-5.384c-2.222,0-4.127-1.357-4.938-3.287v-4.158c0.812-1.932,2.717-3.289,4.938-3.289l-0.109-4.577
			c-2.14,0-3.971-1.264-4.829-3.08v-4.568c0.858-1.817,2.689-3.081,4.829-3.081l-0.054-6.086c-2.098,0-3.896-1.219-4.775-2.98
			v-4.771c0.879-1.76,2.678-2.98,4.775-2.98l0.106-4.579c-2.181,0-4.046-1.308-4.882-3.178v-4.373
			C133.435,42.976,135.3,41.667,137.48,41.667z"/>
		
			<rect x="12.396" y="10.901" fill="#FACBC1" stroke="#4F5877" stroke-width="1.983" stroke-miterlimit="10" width="113.498" height="120.792"/>
		<g>
			<path fill-rule="evenodd" clip-rule="evenodd" fill="#FFFFFF" d="M28.109,68.473c0-0.509,0-1.019,0-1.526
				c1.125-4.553,4.733-9.827,8.817-11.962c2.081-1.087,5.368-1.293,5.85,1.365c-4.128,0.084-6.439,2.767-8.335,5.219
				c-0.819,1.059-1.639,2.254-2.324,3.452c-0.701,1.226-1.617,2.644-1.363,4.095c1.428,0.1,2.436-1.101,3.206-2.008
				c1.684-1.979,2.907-4.252,4.168-6.663c0.547-1.045,1.51-2.619,3.126-1.848c-0.018,1.49-0.87,2.901-1.363,4.497
				c-0.43,1.391-1.166,3.587-0.16,4.977c1.206-0.042,2.154-0.944,2.885-1.766c3.737-4.194,5.087-10.2,7.294-15.977
				c0.666-1.744,1.607-5.44,3.526-5.781c0.994-0.175,1.679,0.14,2.083,0.723c-1.131,3.107-2.43,6.544-3.687,10.115
				c-1.229,3.49-2.716,7.194-2.965,10.919c-0.194,2.897,0.733,5.043,2.324,6.262c-4.748,2.519-6.873-3.491-5.69-8.029
				c-1.541,1.799-3.318,5.664-6.492,6.022c-2.54,0.286-3.003-1.699-2.806-4.014c-1.084,1.173-3.375,4.657-6.091,4.254
				C28.934,70.625,28.48,69.618,28.109,68.473z"/>
			<path fill-rule="evenodd" clip-rule="evenodd" fill="#FFFFFF" d="M84.854,56.509c-5.647,0.949-8.951,5.374-10.739,10.357
				c-0.236,0.657-0.759,1.531-0.242,2.248c1.246-0.05,2.071-1.041,2.727-1.847c1.331-1.64,2.285-3.631,3.367-5.7
				c0.781-1.499,1.592-3.706,3.847-2.89c0.273,2.909-3.939,8.311-1.363,11c0.484,0.505,1.336,0.753,2.244,1.042
				c-0.396,1.07-1.777,1.413-3.046,1.205c-1.961-0.323-3.151-2.452-3.125-4.656c-1.431,1.28-2.947,3.795-5.691,3.613
				c-3.558-0.236-1.796-6.061-0.641-8.108c-1.203,0.439-3.113,0.123-3.848-0.804c-1.363,2.94-3.528,8.177-7.693,8.511
				c-2.25,0.179-3.234-1.758-2.485-4.014c-1.739,1.469-2.36,4.059-5.61,4.014c-1.091-0.565-1.628-1.795-1.363-3.373
				c0.657-3.896,3.663-6.911,3.927-11.239c1.202-0.948,2.916-0.329,3.126,1.044c0.311,2.027-1.034,3.995-1.844,5.78
				c-0.888,1.958-1.712,3.781-2.004,5.619c0.527,0.042,1.013-0.45,1.363-0.802c1.849-1.852,3.145-4.227,4.488-6.904
				c0.53-1.056,1.342-3.5,2.885-2.328c0.35,1.958-0.712,3.63-1.362,5.298c-0.309,0.793-0.706,1.675-0.961,2.569
				c-0.231,0.807-0.649,1.965,0,2.811c0.876-0.231,1.454-1.221,2.003-2.087c0.498-0.784,1.04-1.721,1.442-2.57
				c0.902-1.896,2.17-3.955,2.324-5.7c0.178-2.006-0.439-4.576,1.443-4.897c1.103-0.188,1.673,1.096,1.763,2.168
				c0.102,1.215-0.555,2.418-0.562,3.211c-0.015,1.836,2.125,3.273,3.768,2.007c0.623-0.48,1.103-1.285,1.683-2.007
				c1.525-1.897,4.219-4.497,7.213-4.497C83.16,54.583,84.588,55.053,84.854,56.509z"/>
			<path fill-rule="evenodd" clip-rule="evenodd" fill="#FFFFFF" d="M110.181,56.67c0,0.349,0,0.696,0,1.043
				c-0.31,0.414-0.47,0.976-1.123,1.045c-0.183-0.882-2.721-3.258-4.168-2.007c-1.247,1.079,0.651,4.317,0.963,4.976
				c1.279,2.716,2.664,6.744-0.561,8.27c-1.759,0.831-6.315,0.451-6.652-1.524c-0.089-0.516,0.114-1.984,1.041-2.007
				c0.423-0.012,0.75,0.498,0.962,0.722c0.853,0.907,1.812,1.908,3.526,1.445c0.718-3.267-3.153-5.474-2.725-9.313
				c0.297-2.653,2.572-4.595,5.449-4.575C108.522,54.755,109.705,55.453,110.181,56.67z"/>
			<path fill-rule="evenodd" clip-rule="evenodd" fill="#FFFFFF" d="M86.056,79.871c-0.908,0-1.815,0-2.726,0
				c-0.874-0.38-2.097-0.414-2.244-1.525c4.481,0.07,7.266-2.211,9.218-4.735c1.859-2.404,3.168-5.4,4.007-8.43
				c-0.935,0.988-1.739,2.345-3.045,3.372c-1.451,1.142-6.014,3.528-6.332,0.08c-0.185-2.009,0.926-4.17,1.684-5.86
				c1.09-2.436,2.054-4.691,2.003-7.546c1.138-0.717,2.81-0.163,3.206,0.723c0.418,0.931,0.001,2.356-0.321,3.451
				c-0.971,3.312-2.672,5.988-3.206,9.073c1.446-0.375,2.311-1.5,3.127-2.408c1.658-1.847,3.237-4.243,4.329-6.745
				c0.793-1.822,1.027-5.332,3.926-4.335c-0.006,2.75-0.667,5.512-1.362,8.109C96.261,70.776,93.854,78.088,86.056,79.871z"/>
		</g>
	</g>
	<g>
		<path fill="#FFFFFF" d="M34.146,82.07c-0.06,0.456-0.227,0.835-0.5,1.136c-0.274,0.302-0.558,0.477-0.852,0.526
			c-0.294,0.049-0.507,0.074-0.639,0.074c-0.383,0-0.733-0.081-1.05-0.243c-0.317-0.162-0.562-0.409-0.733-0.739
			c-0.085-0.225-0.138-0.443-0.158-0.655v-3.126h0.841v2.719c0,0.358,0.101,0.67,0.302,0.938c0.202,0.268,0.471,0.402,0.808,0.402
			c0.053,0,0.092,0,0.119,0c0.277-0.034,0.517-0.151,0.718-0.354c0.201-0.202,0.302-0.439,0.302-0.712v-2.994h0.842V82.07z"/>
		<path fill="#FFFFFF" d="M37.435,83.657h-0.822v-7.739h0.822V83.657z"/>
		<path fill="#FFFFFF" d="M41.307,79.737h-0.823v3.92h-0.802v-3.92h-0.723v-0.635h0.723v-1.855h0.802v1.855h0.823V79.737z"/>
		<path fill="#FFFFFF" d="M46.587,79.241l-0.476,0.655c-0.172-0.152-0.35-0.228-0.535-0.228c-0.257,0-0.492,0.127-0.703,0.382
			s-0.35,0.534-0.416,0.838v2.769h-0.803v-4.574h0.743v1.121c0.085-0.304,0.239-0.581,0.46-0.829
			c0.222-0.248,0.478-0.392,0.768-0.431C45.97,78.944,46.291,79.043,46.587,79.241z"/>
		<path fill="#FFFFFF" d="M52.006,83.657h-0.743v-0.912c-0.166,0.327-0.417,0.582-0.753,0.767c-0.336,0.183-0.69,0.274-1.06,0.274
			c-0.186,0-0.363-0.02-0.535-0.059c-0.172-0.041-0.39-0.144-0.654-0.31c-0.264-0.164-0.5-0.443-0.708-0.834
			c-0.208-0.392-0.312-0.81-0.312-1.253c0-0.371,0.079-0.732,0.237-1.085c0.112-0.218,0.294-0.469,0.547-0.75
			c0.253-0.282,0.619-0.466,1.099-0.552c0.053,0,0.11-0.003,0.173-0.01c0.062-0.007,0.109-0.01,0.143-0.01
			c0.368,0,0.705,0.082,1.01,0.248c0.306,0.165,0.564,0.406,0.774,0.724v-0.854h0.783V83.657z M51.075,82.193
			c0.099-0.253,0.148-0.519,0.148-0.799c0-0.372-0.085-0.705-0.257-0.998c-0.171-0.293-0.428-0.509-0.771-0.648
			c-0.118-0.032-0.263-0.053-0.434-0.06c-0.171-0.007-0.27-0.01-0.296-0.01c-0.422,0.066-0.761,0.274-1.017,0.624
			c-0.257,0.349-0.385,0.733-0.385,1.152c0,0.26,0.047,0.497,0.144,0.714c0.095,0.216,0.268,0.426,0.518,0.628
			c0.25,0.204,0.56,0.306,0.929,0.306c0.309,0,0.589-0.079,0.839-0.235C50.743,82.711,50.937,82.486,51.075,82.193z"/>
		<path fill="#FFFFFF" d="M61.121,79.737h-0.822v3.92h-0.803v-3.92h-0.723v-0.635h0.723v-1.855h0.803v1.855h0.822V79.737z"/>
		<path fill="#FFFFFF" d="M66.797,83.657h-0.822v-2.88c-0.04-0.304-0.146-0.565-0.32-0.787c-0.173-0.222-0.396-0.332-0.669-0.332
			c-0.047,0-0.175,0.021-0.385,0.061c-0.209,0.039-0.403,0.162-0.58,0.371c-0.177,0.207-0.282,0.463-0.315,0.767v2.801h-0.802
			v-7.739h0.802v3.84c0.172-0.248,0.385-0.438,0.639-0.573c0.254-0.134,0.52-0.201,0.797-0.201c0.489,0,0.921,0.179,1.298,0.535
			c0.238,0.329,0.356,0.716,0.356,1.158V83.657z"/>
		<path fill="#FFFFFF" d="M69.838,77.426c-0.066,0.013-0.115,0.02-0.149,0.02c-0.158,0-0.289-0.058-0.391-0.173
			c-0.103-0.116-0.153-0.254-0.153-0.412c0-0.1,0.021-0.187,0.064-0.264c0.042-0.075,0.117-0.141,0.222-0.192
			c0.047-0.014,0.101-0.03,0.165-0.051c0.062-0.02,0.12-0.022,0.172-0.01c0.153,0.021,0.271,0.083,0.358,0.189
			c0.085,0.105,0.127,0.225,0.127,0.356C70.254,77.168,70.116,77.346,69.838,77.426z M70.106,83.657h-0.823v-4.584h0.823V83.657z"/>
		<path fill="#FFFFFF" d="M76.645,83.657h-0.842v-3.215c-0.067-0.238-0.196-0.43-0.39-0.576c-0.194-0.146-0.414-0.218-0.66-0.218
			c-0.134,0-0.272,0.026-0.42,0.079c-0.187,0.1-0.349,0.224-0.484,0.372c-0.137,0.149-0.235,0.319-0.295,0.511v3.047h-0.782v-4.614
			h0.782v0.795c0.172-0.285,0.377-0.505,0.614-0.66c0.237-0.156,0.521-0.233,0.852-0.233c0.449,0,0.816,0.138,1.105,0.411
			c0.286,0.274,0.46,0.644,0.52,1.107V83.657z"/>
	</g>
</g>
</svg>
