<?xml version="1.0" encoding="utf-8"?>
<!-- Generator: Adobe Illustrator 15.1.0, SVG Export Plug-In . SVG Version: 6.00 Build 0)  -->
<!DOCTYPE svg PUBLIC "-//W3C//DTD SVG 1.1//EN" "http://www.w3.org/Graphics/SVG/1.1/DTD/svg11.dtd">
<svg version="1.1" id="Capa_1" xmlns="http://www.w3.org/2000/svg" xmlns:xlink="http://www.w3.org/1999/xlink" x="0px" y="0px"
	 width="139px" height="145px" viewBox="0 0 139 145" enable-background="new 0 0 139 145" xml:space="preserve">
<g>
	<g>
		<g>
			<g>
				<g>
					<defs>
						<polygon id="SVGID_1_" points="49.333,27.92 46.184,19.375 25.769,35.886 33.398,40.96 94.975,117.055 98.124,125.601 
							118.539,109.091 110.914,104.017 						"/>
					</defs>
					<clipPath id="SVGID_2_">
						<use xlink:href="#SVGID_1_"  overflow="visible"/>
					</clipPath>
					<g clip-path="url(#SVGID_2_)">
						<g>
							<path fill="#88CA90" d="M57.863,18.368c0.412,0.493,1.139,0.573,1.638,0.169c0.498-0.41,0.574-1.146,0.172-1.651
								c-0.406-0.491-1.141-0.568-1.643-0.16C57.534,17.129,57.458,17.858,57.863,18.368"/>
							<path fill="#88CA90" d="M57.863,18.368c0.412,0.493,1.139,0.573,1.638,0.169c0.498-0.41,0.574-1.146,0.172-1.651
								c-0.406-0.491-1.141-0.568-1.643-0.16C57.534,17.129,57.458,17.858,57.863,18.368z"/>
							<path fill="#88CA90" d="M51.332,23.697c0.407,0.498,1.142,0.572,1.637,0.167c0.5-0.411,0.579-1.146,0.171-1.649
								c-0.403-0.497-1.142-0.572-1.644-0.159C51.001,22.456,50.921,23.19,51.332,23.697"/>
							<path fill="#88CA90" d="M51.332,23.697c0.407,0.498,1.142,0.572,1.637,0.167c0.5-0.411,0.579-1.146,0.171-1.649
								c-0.403-0.497-1.142-0.572-1.644-0.159C51.001,22.456,50.921,23.19,51.332,23.697z"/>
							<path fill="#88CA90" d="M44.795,29.029c0.411,0.498,1.141,0.57,1.641,0.162c0.497-0.407,0.58-1.146,0.172-1.646
								c-0.404-0.501-1.145-0.569-1.647-0.163C44.465,27.784,44.387,28.527,44.795,29.029"/>
							<path fill="#88CA90" d="M44.795,29.029c0.411,0.498,1.141,0.57,1.641,0.162c0.497-0.407,0.58-1.146,0.172-1.646
								c-0.404-0.501-1.145-0.569-1.647-0.163C44.465,27.784,44.387,28.527,44.795,29.029z"/>
							<path fill="#88CA90" d="M38.262,34.354c0.409,0.5,1.143,0.578,1.642,0.167c0.499-0.41,0.576-1.14,0.167-1.643
								c-0.402-0.498-1.14-0.573-1.639-0.168C37.936,33.112,37.854,33.857,38.262,34.354"/>
							<path fill="#88CA90" d="M38.262,34.354c0.409,0.5,1.143,0.578,1.642,0.167c0.499-0.41,0.576-1.14,0.167-1.643
								c-0.402-0.498-1.14-0.573-1.639-0.168C37.936,33.112,37.854,33.857,38.262,34.354z"/>
							<path fill="#88CA90" d="M31.726,39.686c0.408,0.501,1.146,0.574,1.645,0.163c0.498-0.405,0.579-1.139,0.167-1.643
								c-0.407-0.5-1.141-0.576-1.643-0.171C31.397,38.438,31.318,39.188,31.726,39.686"/>
							<path fill="#88CA90" d="M31.726,39.686c0.408,0.501,1.146,0.574,1.645,0.163c0.498-0.405,0.579-1.139,0.167-1.643
								c-0.407-0.5-1.141-0.576-1.643-0.171C31.397,38.438,31.318,39.188,31.726,39.686z"/>
							<path fill="#88CA90" d="M25.196,45.018c0.411,0.49,1.142,0.568,1.64,0.16c0.497-0.405,0.572-1.139,0.168-1.645
								c-0.406-0.493-1.14-0.568-1.643-0.169C24.87,43.772,24.791,44.51,25.196,45.018"/>
							<path fill="#88CA90" d="M25.196,45.018c0.411,0.49,1.142,0.568,1.64,0.16c0.497-0.405,0.572-1.139,0.168-1.645
								c-0.406-0.493-1.14-0.568-1.643-0.169C24.87,43.772,24.791,44.51,25.196,45.018z"/>
							<path fill="#88CA90" d="M57.26,24.546c0.414,0.502,1.146,0.581,1.643,0.178c0.495-0.419,0.574-1.145,0.163-1.653
								c-0.404-0.496-1.139-0.569-1.639-0.159C56.929,23.313,56.854,24.049,57.26,24.546"/>
							<path fill="#88CA90" d="M57.26,24.546c0.414,0.502,1.146,0.581,1.643,0.178c0.495-0.419,0.574-1.145,0.163-1.653
								c-0.404-0.496-1.139-0.569-1.639-0.159C56.929,23.313,56.854,24.049,57.26,24.546z"/>
							<path fill="#88CA90" d="M50.726,29.878c0.414,0.505,1.146,0.576,1.645,0.175c0.503-0.417,0.575-1.146,0.164-1.652
								c-0.405-0.5-1.135-0.568-1.639-0.157C50.4,28.645,50.32,29.384,50.726,29.878"/>
							<path fill="#88CA90" d="M50.726,29.878c0.414,0.505,1.146,0.576,1.645,0.175c0.503-0.417,0.575-1.146,0.164-1.652
								c-0.405-0.5-1.135-0.568-1.639-0.157C50.4,28.645,50.32,29.384,50.726,29.878z"/>
							<path fill="#88CA90" d="M44.19,35.206c0.418,0.506,1.148,0.577,1.645,0.175c0.502-0.412,0.575-1.142,0.164-1.652
								c-0.403-0.496-1.138-0.566-1.637-0.161C43.861,33.975,43.786,34.712,44.19,35.206"/>
							<path fill="#88CA90" d="M44.19,35.206c0.418,0.506,1.148,0.577,1.645,0.175c0.502-0.412,0.575-1.142,0.164-1.652
								c-0.403-0.496-1.138-0.566-1.637-0.161C43.861,33.975,43.786,34.712,44.19,35.206z"/>
							<path fill="#88CA90" d="M37.658,40.537c0.413,0.508,1.15,0.576,1.646,0.175c0.498-0.415,0.571-1.145,0.161-1.653
								c-0.405-0.494-1.137-0.569-1.634-0.159C37.334,39.305,37.248,40.042,37.658,40.537"/>
							<path fill="#88CA90" d="M37.658,40.537c0.413,0.508,1.15,0.576,1.646,0.175c0.498-0.415,0.571-1.145,0.161-1.653
								c-0.405-0.494-1.137-0.569-1.634-0.159C37.334,39.305,37.248,40.042,37.658,40.537z"/>
							<path fill="#88CA90" d="M31.125,45.867c0.415,0.505,1.148,0.577,1.644,0.177c0.502-0.413,0.574-1.151,0.165-1.65
								c-0.412-0.505-1.14-0.572-1.639-0.169C30.796,44.637,30.72,45.371,31.125,45.867"/>
							<path fill="#88CA90" d="M31.125,45.867c0.415,0.505,1.148,0.577,1.644,0.177c0.502-0.413,0.574-1.151,0.165-1.65
								c-0.412-0.505-1.14-0.572-1.639-0.169C30.796,44.637,30.72,45.371,31.125,45.867z"/>
							<path fill="#88CA90" d="M24.592,51.197c0.412,0.503,1.146,0.571,1.644,0.174c0.496-0.418,0.576-1.149,0.166-1.649
								c-0.407-0.498-1.145-0.572-1.64-0.17C24.262,49.963,24.189,50.697,24.592,51.197"/>
							<path fill="#88CA90" d="M24.592,51.197c0.412,0.503,1.146,0.571,1.644,0.174c0.496-0.418,0.576-1.149,0.166-1.649
								c-0.407-0.498-1.145-0.572-1.64-0.17C24.262,49.963,24.189,50.697,24.592,51.197z"/>
							<path fill="#88CA90" d="M63.428,25.21c0.414,0.498,1.146,0.575,1.64,0.171c0.502-0.418,0.583-1.143,0.173-1.652
								c-0.405-0.489-1.138-0.571-1.637-0.165C63.1,23.976,63.028,24.71,63.428,25.21"/>
							<path fill="#88CA90" d="M63.428,25.21c0.414,0.498,1.146,0.575,1.64,0.171c0.502-0.418,0.583-1.143,0.173-1.652
								c-0.405-0.489-1.138-0.571-1.637-0.165C63.1,23.976,63.028,24.71,63.428,25.21z"/>
							<path fill="#88CA90" d="M56.898,30.543c0.407,0.497,1.147,0.574,1.638,0.165c0.502-0.413,0.582-1.141,0.171-1.646
								c-0.406-0.496-1.138-0.574-1.636-0.169C56.568,29.305,56.49,30.041,56.898,30.543"/>
							<path fill="#88CA90" d="M56.898,30.543c0.407,0.497,1.147,0.574,1.638,0.165c0.502-0.413,0.582-1.141,0.171-1.646
								c-0.406-0.496-1.138-0.574-1.636-0.169C56.568,29.305,56.49,30.041,56.898,30.543z"/>
							<path fill="#88CA90" d="M50.361,35.872c0.409,0.499,1.149,0.576,1.639,0.165c0.506-0.415,0.588-1.141,0.172-1.642
								c-0.404-0.5-1.137-0.574-1.637-0.17C50.032,34.632,49.953,35.376,50.361,35.872"/>
							<path fill="#88CA90" d="M50.361,35.872c0.409,0.499,1.149,0.576,1.639,0.165c0.506-0.415,0.588-1.141,0.172-1.642
								c-0.404-0.5-1.137-0.574-1.637-0.17C50.032,34.632,49.953,35.376,50.361,35.872z"/>
							<path fill="#88CA90" d="M43.828,41.204c0.411,0.5,1.141,0.574,1.643,0.162c0.501-0.412,0.574-1.139,0.167-1.639
								c-0.404-0.499-1.138-0.578-1.634-0.175C43.497,39.963,43.42,40.702,43.828,41.204"/>
							<path fill="#88CA90" d="M43.828,41.204c0.411,0.5,1.141,0.574,1.643,0.162c0.501-0.412,0.574-1.139,0.167-1.639
								c-0.404-0.499-1.138-0.578-1.634-0.175C43.497,39.963,43.42,40.702,43.828,41.204z"/>
							<path fill="#88CA90" d="M37.293,46.533c0.41,0.502,1.145,0.573,1.646,0.163c0.502-0.414,0.583-1.138,0.166-1.646
								c-0.403-0.496-1.142-0.571-1.637-0.168C36.966,45.294,36.885,46.033,37.293,46.533"/>
							<path fill="#88CA90" d="M37.293,46.533c0.41,0.502,1.145,0.573,1.646,0.163c0.502-0.414,0.583-1.138,0.166-1.646
								c-0.403-0.496-1.142-0.571-1.637-0.168C36.966,45.294,36.885,46.033,37.293,46.533z"/>
							<path fill="#88CA90" d="M30.763,51.859c0.418,0.499,1.144,0.575,1.644,0.163c0.499-0.408,0.575-1.134,0.168-1.64
								c-0.408-0.494-1.139-0.568-1.637-0.168C30.438,50.625,30.356,51.355,30.763,51.859"/>
							<path fill="#88CA90" d="M30.763,51.859c0.418,0.499,1.144,0.575,1.644,0.163c0.499-0.408,0.575-1.134,0.168-1.64
								c-0.408-0.494-1.139-0.568-1.637-0.168C30.438,50.625,30.356,51.355,30.763,51.859z"/>
							<path fill="#88CA90" d="M62.827,31.392c0.411,0.5,1.145,0.583,1.642,0.173c0.495-0.409,0.575-1.14,0.165-1.648
								c-0.399-0.493-1.133-0.575-1.637-0.159C62.499,30.163,62.429,30.897,62.827,31.392"/>
							<path fill="#88CA90" d="M62.827,31.392c0.411,0.5,1.145,0.583,1.642,0.173c0.495-0.409,0.575-1.14,0.165-1.648
								c-0.399-0.493-1.133-0.575-1.637-0.159C62.499,30.163,62.429,30.897,62.827,31.392z"/>
							<path fill="#88CA90" d="M56.299,36.725c0.406,0.501,1.14,0.578,1.641,0.168c0.492-0.407,0.569-1.143,0.164-1.646
								c-0.397-0.5-1.135-0.577-1.64-0.161C55.972,35.493,55.895,36.227,56.299,36.725"/>
							<path fill="#88CA90" d="M56.299,36.725c0.406,0.501,1.14,0.578,1.641,0.168c0.492-0.407,0.569-1.143,0.164-1.646
								c-0.397-0.5-1.135-0.577-1.64-0.161C55.972,35.493,55.895,36.227,56.299,36.725z"/>
							<path fill="#88CA90" d="M49.764,42.054c0.406,0.503,1.138,0.577,1.642,0.172c0.489-0.41,0.569-1.146,0.162-1.647
								c-0.402-0.502-1.134-0.576-1.64-0.16C49.435,40.825,49.358,41.56,49.764,42.054"/>
							<path fill="#88CA90" d="M49.764,42.054c0.406,0.503,1.138,0.577,1.642,0.172c0.489-0.41,0.569-1.146,0.162-1.647
								c-0.402-0.502-1.134-0.576-1.64-0.16C49.435,40.825,49.358,41.56,49.764,42.054z"/>
							<path fill="#88CA90" d="M43.228,47.385c0.406,0.5,1.141,0.571,1.646,0.165c0.491-0.407,0.571-1.143,0.168-1.642
								c-0.407-0.505-1.14-0.574-1.645-0.161C42.902,46.151,42.822,46.885,43.228,47.385"/>
							<path fill="#88CA90" d="M43.228,47.385c0.406,0.5,1.141,0.571,1.646,0.165c0.491-0.407,0.571-1.143,0.168-1.642
								c-0.407-0.505-1.14-0.574-1.645-0.161C42.902,46.151,42.822,46.885,43.228,47.385z"/>
							<path fill="#88CA90" d="M36.696,52.715c0.413,0.5,1.148,0.571,1.646,0.168c0.498-0.409,0.568-1.143,0.164-1.642
								c-0.408-0.505-1.137-0.576-1.643-0.162C36.369,51.484,36.29,52.216,36.696,52.715"/>
							<path fill="#88CA90" d="M36.696,52.715c0.413,0.5,1.148,0.571,1.646,0.168c0.498-0.409,0.568-1.143,0.164-1.642
								c-0.408-0.505-1.137-0.576-1.643-0.162C36.369,51.484,36.29,52.216,36.696,52.715z"/>
							<path fill="#88CA90" d="M30.163,58.042c0.413,0.5,1.14,0.57,1.644,0.169c0.495-0.411,0.57-1.144,0.168-1.642
								c-0.411-0.5-1.141-0.579-1.643-0.163C29.832,56.812,29.758,57.544,30.163,58.042"/>
							<path fill="#88CA90" d="M30.163,58.042c0.413,0.5,1.14,0.57,1.644,0.169c0.495-0.411,0.57-1.144,0.168-1.642
								c-0.411-0.5-1.141-0.579-1.643-0.163C29.832,56.812,29.758,57.544,30.163,58.042z"/>
							<path fill="#88CA90" d="M68.999,32.055c0.419,0.504,1.142,0.577,1.647,0.169c0.492-0.41,0.573-1.138,0.159-1.644
								c-0.398-0.495-1.136-0.57-1.636-0.169C68.668,30.821,68.595,31.556,68.999,32.055"/>
							<path fill="#88CA90" d="M68.999,32.055c0.419,0.504,1.142,0.577,1.647,0.169c0.492-0.41,0.573-1.138,0.159-1.644
								c-0.398-0.495-1.136-0.57-1.636-0.169C68.668,30.821,68.595,31.556,68.999,32.055z"/>
							<path fill="#88CA90" d="M62.467,37.383c0.416,0.501,1.138,0.579,1.645,0.168c0.494-0.411,0.575-1.137,0.161-1.645
								c-0.394-0.496-1.138-0.572-1.633-0.168C62.135,36.152,62.062,36.884,62.467,37.383"/>
							<path fill="#88CA90" d="M62.467,37.383c0.416,0.501,1.138,0.579,1.645,0.168c0.494-0.411,0.575-1.137,0.161-1.645
								c-0.394-0.496-1.138-0.572-1.633-0.168C62.135,36.152,62.062,36.884,62.467,37.383z"/>
							<path fill="#88CA90" d="M55.937,42.711c0.412,0.503,1.139,0.579,1.64,0.17c0.497-0.413,0.574-1.135,0.165-1.642
								c-0.398-0.496-1.138-0.573-1.637-0.164C55.603,41.484,55.529,42.214,55.937,42.711"/>
							<path fill="#88CA90" d="M55.937,42.711c0.412,0.503,1.139,0.579,1.64,0.17c0.497-0.413,0.574-1.135,0.165-1.642
								c-0.398-0.496-1.138-0.573-1.637-0.164C55.603,41.484,55.529,42.214,55.937,42.711z"/>
							<path fill="#88CA90" d="M49.405,48.044c0.409,0.499,1.134,0.581,1.635,0.164c0.501-0.405,0.574-1.13,0.172-1.634
								c-0.403-0.5-1.14-0.579-1.638-0.174C49.071,46.814,48.995,47.544,49.405,48.044"/>
							<path fill="#88CA90" d="M49.405,48.044c0.409,0.499,1.134,0.581,1.635,0.164c0.501-0.405,0.574-1.13,0.172-1.634
								c-0.403-0.5-1.14-0.579-1.638-0.174C49.071,46.814,48.995,47.544,49.405,48.044z"/>
							<path fill="#88CA90" d="M42.873,53.372c0.408,0.503,1.132,0.58,1.633,0.164c0.499-0.407,0.578-1.128,0.174-1.636
								c-0.405-0.496-1.146-0.577-1.642-0.168C42.535,52.141,42.466,52.874,42.873,53.372"/>
							<path fill="#88CA90" d="M42.873,53.372c0.408,0.503,1.132,0.58,1.633,0.164c0.499-0.407,0.578-1.128,0.174-1.636
								c-0.405-0.496-1.146-0.577-1.642-0.168C42.535,52.141,42.466,52.874,42.873,53.372z"/>
							<path fill="#88CA90" d="M36.339,58.704c0.407,0.5,1.135,0.576,1.635,0.16c0.502-0.403,0.576-1.13,0.171-1.632
								c-0.403-0.5-1.141-0.581-1.64-0.169C36.003,57.473,35.931,58.208,36.339,58.704"/>
							<path fill="#88CA90" d="M36.339,58.704c0.407,0.5,1.135,0.576,1.635,0.16c0.502-0.403,0.576-1.13,0.171-1.632
								c-0.403-0.5-1.141-0.581-1.64-0.169C36.003,57.473,35.931,58.208,36.339,58.704z"/>
							<path fill="#88CA90" d="M68.396,38.241c0.41,0.507,1.147,0.573,1.646,0.169c0.491-0.408,0.577-1.144,0.162-1.646
								c-0.406-0.497-1.135-0.577-1.635-0.167C68.069,37.012,67.995,37.736,68.396,38.241"/>
							<path fill="#88CA90" d="M68.396,38.241c0.41,0.507,1.147,0.573,1.646,0.169c0.491-0.408,0.577-1.144,0.162-1.646
								c-0.406-0.497-1.135-0.577-1.635-0.167C68.069,37.012,67.995,37.736,68.396,38.241z"/>
							<path fill="#88CA90" d="M61.865,43.567c0.41,0.508,1.146,0.575,1.641,0.172c0.499-0.407,0.58-1.142,0.164-1.646
								c-0.403-0.497-1.135-0.576-1.636-0.161C61.535,42.338,61.463,43.07,61.865,43.567"/>
							<path fill="#88CA90" d="M61.865,43.567c0.41,0.508,1.146,0.575,1.641,0.172c0.499-0.407,0.58-1.142,0.164-1.646
								c-0.403-0.497-1.135-0.576-1.636-0.161C61.535,42.338,61.463,43.07,61.865,43.567z"/>
							<path fill="#88CA90" d="M55.329,48.902c0.408,0.506,1.149,0.574,1.643,0.168c0.502-0.408,0.579-1.144,0.164-1.649
								c-0.404-0.5-1.13-0.569-1.635-0.155C55.004,47.668,54.924,48.402,55.329,48.902"/>
							<path fill="#88CA90" d="M55.329,48.902c0.408,0.506,1.149,0.574,1.643,0.168c0.502-0.408,0.579-1.144,0.164-1.649
								c-0.404-0.5-1.13-0.569-1.635-0.155C55.004,47.668,54.924,48.402,55.329,48.902z"/>
							<path fill="#88CA90" d="M48.794,54.234c0.41,0.502,1.15,0.567,1.646,0.164c0.498-0.405,0.578-1.141,0.164-1.648
								c-0.405-0.493-1.138-0.571-1.637-0.159C48.469,52.998,48.389,53.731,48.794,54.234"/>
							<path fill="#88CA90" d="M48.794,54.234c0.41,0.502,1.15,0.567,1.646,0.164c0.498-0.405,0.578-1.141,0.164-1.648
								c-0.405-0.493-1.138-0.571-1.637-0.159C48.469,52.998,48.389,53.731,48.794,54.234z"/>
							<path fill="#88CA90" d="M42.265,59.56c0.406,0.502,1.142,0.575,1.642,0.171c0.492-0.413,0.579-1.146,0.165-1.652
								c-0.403-0.5-1.135-0.568-1.641-0.154C41.939,58.329,41.858,59.065,42.265,59.56"/>
							<path fill="#88CA90" d="M42.265,59.56c0.406,0.502,1.142,0.575,1.642,0.171c0.492-0.413,0.579-1.146,0.165-1.652
								c-0.403-0.5-1.135-0.568-1.641-0.154C41.939,58.329,41.858,59.065,42.265,59.56z"/>
							<path fill="#88CA90" d="M35.73,64.89c0.411,0.5,1.146,0.575,1.644,0.168c0.494-0.411,0.577-1.143,0.163-1.651
								c-0.404-0.492-1.135-0.57-1.639-0.154C35.403,63.652,35.326,64.391,35.73,64.89"/>
							<path fill="#88CA90" d="M35.73,64.89c0.411,0.5,1.146,0.575,1.644,0.168c0.494-0.411,0.577-1.143,0.163-1.651
								c-0.404-0.492-1.135-0.57-1.639-0.154C35.403,63.652,35.326,64.391,35.73,64.89z"/>
							<path fill="#88CA90" d="M74.571,38.902c0.41,0.502,1.143,0.582,1.64,0.171c0.494-0.412,0.572-1.138,0.164-1.645
								c-0.397-0.498-1.134-0.571-1.635-0.162C74.241,37.67,74.163,38.401,74.571,38.902"/>
							<path fill="#88CA90" d="M74.571,38.902c0.41,0.502,1.143,0.582,1.64,0.171c0.494-0.412,0.572-1.138,0.164-1.645
								c-0.397-0.498-1.134-0.571-1.635-0.162C74.241,37.67,74.163,38.401,74.571,38.902z"/>
							<path fill="#88CA90" d="M68.038,44.23c0.412,0.501,1.142,0.58,1.643,0.169c0.493-0.412,0.571-1.14,0.161-1.646
								c-0.391-0.496-1.137-0.563-1.634-0.158C67.71,43.003,67.63,43.735,68.038,44.23"/>
							<path fill="#88CA90" d="M68.038,44.23c0.412,0.501,1.142,0.58,1.643,0.169c0.493-0.412,0.571-1.14,0.161-1.646
								c-0.391-0.496-1.137-0.563-1.634-0.158C67.71,43.003,67.63,43.735,68.038,44.23z"/>
							<path fill="#88CA90" d="M61.504,49.559c0.412,0.506,1.141,0.58,1.644,0.175c0.495-0.418,0.567-1.144,0.161-1.646
								c-0.404-0.502-1.134-0.572-1.635-0.163C61.174,48.329,61.095,49.061,61.504,49.559"/>
							<path fill="#88CA90" d="M61.504,49.559c0.412,0.506,1.141,0.58,1.644,0.175c0.495-0.418,0.567-1.144,0.161-1.646
								c-0.404-0.502-1.134-0.572-1.635-0.163C61.174,48.329,61.095,49.061,61.504,49.559z"/>
							<path fill="#88CA90" d="M54.972,54.894c0.411,0.497,1.142,0.581,1.642,0.166c0.494-0.412,0.571-1.136,0.16-1.643
								c-0.401-0.501-1.133-0.576-1.636-0.163C54.633,53.66,54.563,54.394,54.972,54.894"/>
							<path fill="#88CA90" d="M54.972,54.894c0.411,0.497,1.142,0.581,1.642,0.166c0.494-0.412,0.571-1.136,0.16-1.643
								c-0.401-0.501-1.133-0.576-1.636-0.163C54.633,53.66,54.563,54.394,54.972,54.894z"/>
							<path fill="#88CA90" d="M48.438,60.218c0.41,0.505,1.142,0.585,1.64,0.176c0.497-0.42,0.574-1.146,0.163-1.649
								c-0.4-0.498-1.134-0.576-1.634-0.164C48.103,58.987,48.029,59.721,48.438,60.218"/>
							<path fill="#88CA90" d="M48.438,60.218c0.41,0.505,1.142,0.585,1.64,0.176c0.497-0.42,0.574-1.146,0.163-1.649
								c-0.4-0.498-1.134-0.576-1.634-0.164C48.103,58.987,48.029,59.721,48.438,60.218z"/>
							<path fill="#88CA90" d="M41.903,65.55c0.411,0.501,1.145,0.582,1.643,0.17c0.491-0.414,0.573-1.138,0.161-1.647
								c-0.401-0.496-1.133-0.574-1.634-0.164C41.571,64.315,41.497,65.051,41.903,65.55"/>
							<path fill="#88CA90" d="M41.903,65.55c0.411,0.501,1.145,0.582,1.643,0.17c0.491-0.414,0.573-1.138,0.161-1.647
								c-0.401-0.496-1.133-0.574-1.634-0.164C41.571,64.315,41.497,65.051,41.903,65.55z"/>
							<path fill="#88CA90" d="M73.964,45.088c0.417,0.51,1.147,0.573,1.653,0.166c0.491-0.409,0.566-1.139,0.154-1.642
								c-0.399-0.494-1.137-0.569-1.632-0.166C73.641,43.858,73.562,44.584,73.964,45.088"/>
							<path fill="#88CA90" d="M73.964,45.088c0.417,0.51,1.147,0.573,1.653,0.166c0.491-0.409,0.566-1.139,0.154-1.642
								c-0.399-0.494-1.137-0.569-1.632-0.166C73.641,43.858,73.562,44.584,73.964,45.088z"/>
							<path fill="#88CA90" d="M67.431,50.416c0.417,0.513,1.155,0.579,1.652,0.17c0.492-0.41,0.571-1.14,0.155-1.649
								c-0.4-0.486-1.136-0.566-1.634-0.158C67.104,49.188,67.03,49.917,67.431,50.416"/>
							<path fill="#88CA90" d="M67.431,50.416c0.417,0.513,1.155,0.579,1.652,0.17c0.492-0.41,0.571-1.14,0.155-1.649
								c-0.4-0.486-1.136-0.566-1.634-0.158C67.104,49.188,67.03,49.917,67.431,50.416z"/>
							<path fill="#88CA90" d="M60.898,55.748c0.41,0.505,1.147,0.573,1.644,0.166c0.497-0.404,0.575-1.139,0.162-1.648
								c-0.397-0.492-1.133-0.563-1.636-0.155C60.573,54.517,60.495,55.247,60.898,55.748"/>
							<path fill="#88CA90" d="M60.898,55.748c0.41,0.505,1.147,0.573,1.644,0.166c0.497-0.404,0.575-1.139,0.162-1.648
								c-0.397-0.492-1.133-0.563-1.636-0.155C60.573,54.517,60.495,55.247,60.898,55.748z"/>
							<path fill="#88CA90" d="M54.367,61.08c0.403,0.5,1.147,0.57,1.643,0.163c0.497-0.402,0.577-1.141,0.166-1.644
								c-0.403-0.497-1.139-0.567-1.642-0.162C54.038,59.843,53.959,60.577,54.367,61.08"/>
							<path fill="#88CA90" d="M54.367,61.08c0.403,0.5,1.147,0.57,1.643,0.163c0.497-0.402,0.577-1.141,0.166-1.644
								c-0.403-0.497-1.139-0.567-1.642-0.162C54.038,59.843,53.959,60.577,54.367,61.08z"/>
							<path fill="#88CA90" d="M47.833,66.409c0.406,0.5,1.144,0.572,1.643,0.164c0.499-0.404,0.578-1.141,0.17-1.645
								c-0.405-0.498-1.14-0.571-1.647-0.162C47.505,65.169,47.425,65.907,47.833,66.409"/>
							<path fill="#88CA90" d="M47.833,66.409c0.406,0.5,1.144,0.572,1.643,0.164c0.499-0.404,0.578-1.141,0.17-1.645
								c-0.405-0.498-1.14-0.571-1.647-0.162C47.505,65.169,47.425,65.907,47.833,66.409z"/>
							<path fill="#88CA90" d="M41.3,71.739c0.412,0.5,1.146,0.571,1.643,0.169c0.498-0.405,0.575-1.144,0.169-1.649
								c-0.407-0.493-1.14-0.574-1.648-0.155C40.972,70.5,40.899,71.235,41.3,71.739"/>
							<path fill="#88CA90" d="M41.3,71.739c0.412,0.5,1.146,0.571,1.643,0.169c0.498-0.405,0.575-1.144,0.169-1.649
								c-0.407-0.493-1.14-0.574-1.648-0.155C40.972,70.5,40.899,71.235,41.3,71.739z"/>
							<path fill="#88CA90" d="M80.137,45.751c0.413,0.496,1.149,0.572,1.646,0.166c0.492-0.414,0.579-1.141,0.167-1.649
								c-0.406-0.492-1.141-0.562-1.639-0.16C79.814,44.511,79.733,45.251,80.137,45.751"/>
							<path fill="#88CA90" d="M80.137,45.751c0.413,0.496,1.149,0.572,1.646,0.166c0.492-0.414,0.579-1.141,0.167-1.649
								c-0.406-0.492-1.141-0.562-1.639-0.16C79.814,44.511,79.733,45.251,80.137,45.751z"/>
							<path fill="#88CA90" d="M73.607,51.076c0.409,0.509,1.144,0.579,1.64,0.17c0.498-0.407,0.586-1.141,0.171-1.646
								c-0.405-0.496-1.145-0.566-1.639-0.164C73.28,49.839,73.198,50.582,73.607,51.076"/>
							<path fill="#88CA90" d="M73.607,51.076c0.409,0.509,1.144,0.579,1.64,0.17c0.498-0.407,0.586-1.141,0.171-1.646
								c-0.405-0.496-1.145-0.566-1.639-0.164C73.28,49.839,73.198,50.582,73.607,51.076z"/>
							<path fill="#88CA90" d="M67.072,56.406c0.413,0.508,1.142,0.582,1.641,0.17c0.501-0.41,0.581-1.142,0.17-1.649
								c-0.396-0.489-1.139-0.568-1.639-0.158C66.743,55.172,66.666,55.907,67.072,56.406"/>
							<path fill="#88CA90" d="M67.072,56.406c0.413,0.508,1.142,0.582,1.641,0.17c0.501-0.41,0.581-1.142,0.17-1.649
								c-0.396-0.489-1.139-0.568-1.639-0.158C66.743,55.172,66.666,55.907,67.072,56.406z"/>
							<path fill="#88CA90" d="M60.54,61.737c0.408,0.508,1.144,0.576,1.638,0.17c0.503-0.412,0.583-1.146,0.172-1.651
								c-0.401-0.492-1.14-0.566-1.64-0.16C60.209,60.501,60.13,61.237,60.54,61.737"/>
							<path fill="#88CA90" d="M60.54,61.737c0.408,0.508,1.144,0.576,1.638,0.17c0.503-0.412,0.583-1.146,0.172-1.651
								c-0.401-0.492-1.14-0.566-1.64-0.16C60.209,60.501,60.13,61.237,60.54,61.737z"/>
							<path fill="#88CA90" d="M54.007,67.068c0.409,0.5,1.141,0.58,1.642,0.171c0.5-0.413,0.578-1.149,0.167-1.65
								c-0.397-0.493-1.138-0.571-1.638-0.161C53.679,65.837,53.599,66.564,54.007,67.068"/>
							<path fill="#88CA90" d="M54.007,67.068c0.409,0.5,1.141,0.58,1.642,0.171c0.5-0.413,0.578-1.149,0.167-1.65
								c-0.397-0.493-1.138-0.571-1.638-0.161C53.679,65.837,53.599,66.564,54.007,67.068z"/>
							<path fill="#88CA90" d="M47.474,72.398c0.408,0.5,1.142,0.579,1.64,0.168c0.499-0.41,0.572-1.146,0.168-1.647
								c-0.403-0.494-1.139-0.574-1.638-0.161C47.141,71.165,47.069,71.892,47.474,72.398"/>
							<path fill="#88CA90" d="M47.474,72.398c0.408,0.5,1.142,0.579,1.64,0.168c0.499-0.41,0.572-1.146,0.168-1.647
								c-0.403-0.494-1.139-0.574-1.638-0.161C47.141,71.165,47.069,71.892,47.474,72.398z"/>
							<path fill="#88CA90" d="M79.536,51.938c0.411,0.498,1.143,0.571,1.646,0.161c0.492-0.404,0.567-1.141,0.166-1.646
								c-0.407-0.49-1.14-0.57-1.638-0.156C79.211,50.701,79.138,51.433,79.536,51.938"/>
							<path fill="#88CA90" d="M79.536,51.938c0.411,0.498,1.143,0.571,1.646,0.161c0.492-0.404,0.567-1.141,0.166-1.646
								c-0.407-0.49-1.14-0.57-1.638-0.156C79.211,50.701,79.138,51.433,79.536,51.938z"/>
							<path fill="#88CA90" d="M73.001,57.263c0.411,0.503,1.144,0.573,1.644,0.168c0.494-0.406,0.568-1.146,0.167-1.643
								c-0.404-0.5-1.139-0.572-1.635-0.165C72.677,56.033,72.594,56.759,73.001,57.263"/>
							<path fill="#88CA90" d="M73.001,57.263c0.411,0.503,1.144,0.573,1.644,0.168c0.494-0.406,0.568-1.146,0.167-1.643
								c-0.404-0.5-1.139-0.572-1.635-0.165C72.677,56.033,72.594,56.759,73.001,57.263z"/>
							<path fill="#88CA90" d="M66.469,62.591c0.411,0.51,1.143,0.576,1.641,0.172c0.496-0.406,0.576-1.142,0.168-1.644
								c-0.405-0.497-1.139-0.57-1.635-0.163C66.143,61.364,66.065,62.096,66.469,62.591"/>
							<path fill="#88CA90" d="M66.469,62.591c0.411,0.51,1.143,0.576,1.641,0.172c0.496-0.406,0.576-1.142,0.168-1.644
								c-0.405-0.497-1.139-0.57-1.635-0.163C66.143,61.364,66.065,62.096,66.469,62.591z"/>
							<path fill="#88CA90" d="M59.934,67.921c0.416,0.506,1.146,0.575,1.645,0.167c0.494-0.405,0.578-1.141,0.166-1.642
								c-0.404-0.497-1.141-0.57-1.637-0.16C59.612,66.687,59.53,67.426,59.934,67.921"/>
							<path fill="#88CA90" d="M59.934,67.921c0.416,0.506,1.146,0.575,1.645,0.167c0.494-0.405,0.578-1.141,0.166-1.642
								c-0.404-0.497-1.141-0.57-1.637-0.16C59.612,66.687,59.53,67.426,59.934,67.921z"/>
							<path fill="#88CA90" d="M53.401,73.247c0.414,0.513,1.144,0.581,1.643,0.172c0.496-0.4,0.575-1.136,0.168-1.642
								c-0.407-0.498-1.139-0.569-1.638-0.159C53.076,72.023,52.995,72.748,53.401,73.247"/>
							<path fill="#88CA90" d="M53.401,73.247c0.414,0.513,1.144,0.581,1.643,0.172c0.496-0.4,0.575-1.136,0.168-1.642
								c-0.407-0.498-1.139-0.569-1.638-0.159C53.076,72.023,52.995,72.748,53.401,73.247z"/>
							<path fill="#88CA90" d="M46.866,78.578c0.417,0.51,1.146,0.577,1.645,0.174c0.494-0.404,0.577-1.144,0.164-1.645
								c-0.404-0.498-1.137-0.573-1.635-0.166C46.539,77.346,46.466,78.08,46.866,78.578"/>
							<path fill="#88CA90" d="M46.866,78.578c0.417,0.51,1.146,0.577,1.645,0.174c0.494-0.404,0.577-1.144,0.164-1.645
								c-0.404-0.498-1.137-0.573-1.635-0.166C46.539,77.346,46.466,78.08,46.866,78.578z"/>
							<path fill="#88CA90" d="M85.713,52.59c0.403,0.507,1.144,0.582,1.638,0.166c0.497-0.404,0.579-1.132,0.166-1.636
								c-0.399-0.501-1.138-0.576-1.635-0.166C85.38,51.356,85.307,52.091,85.713,52.59"/>
							<path fill="#88CA90" d="M85.713,52.59c0.403,0.507,1.144,0.582,1.638,0.166c0.497-0.404,0.579-1.132,0.166-1.636
								c-0.399-0.501-1.138-0.576-1.635-0.166C85.38,51.356,85.307,52.091,85.713,52.59z"/>
							<path fill="#88CA90" d="M79.179,57.924c0.406,0.502,1.141,0.575,1.639,0.166c0.496-0.405,0.578-1.137,0.167-1.64
								c-0.405-0.5-1.132-0.572-1.637-0.165C78.849,56.694,78.773,57.421,79.179,57.924"/>
							<path fill="#88CA90" d="M79.179,57.924c0.406,0.502,1.141,0.575,1.639,0.166c0.496-0.405,0.578-1.137,0.167-1.64
								c-0.405-0.5-1.132-0.572-1.637-0.165C78.849,56.694,78.773,57.421,79.179,57.924z"/>
							<path fill="#88CA90" d="M72.646,63.254c0.405,0.504,1.141,0.574,1.637,0.166c0.5-0.41,0.579-1.137,0.168-1.642
								c-0.403-0.499-1.134-0.571-1.637-0.16C72.317,62.025,72.24,62.751,72.646,63.254"/>
							<path fill="#88CA90" d="M72.646,63.254c0.405,0.504,1.141,0.574,1.637,0.166c0.5-0.41,0.579-1.137,0.168-1.642
								c-0.403-0.499-1.134-0.571-1.637-0.16C72.317,62.025,72.24,62.751,72.646,63.254z"/>
							<path fill="#88CA90" d="M66.112,68.582c0.407,0.505,1.141,0.575,1.638,0.168c0.498-0.408,0.582-1.138,0.168-1.641
								c-0.405-0.499-1.138-0.577-1.637-0.167C65.784,67.352,65.71,68.085,66.112,68.582"/>
							<path fill="#88CA90" d="M66.112,68.582c0.407,0.505,1.141,0.575,1.638,0.168c0.498-0.408,0.582-1.138,0.168-1.641
								c-0.405-0.499-1.138-0.577-1.637-0.167C65.784,67.352,65.71,68.085,66.112,68.582z"/>
							<path fill="#88CA90" d="M59.579,73.917c0.403,0.502,1.134,0.568,1.638,0.164c0.499-0.41,0.576-1.141,0.167-1.646
								c-0.403-0.497-1.138-0.57-1.638-0.16C59.247,72.686,59.177,73.413,59.579,73.917"/>
							<path fill="#88CA90" d="M59.579,73.917c0.403,0.502,1.134,0.568,1.638,0.164c0.499-0.41,0.576-1.141,0.167-1.646
								c-0.403-0.497-1.138-0.57-1.638-0.16C59.247,72.686,59.177,73.413,59.579,73.917z"/>
							<path fill="#88CA90" d="M53.045,79.243c0.405,0.504,1.14,0.575,1.637,0.17c0.5-0.411,0.581-1.141,0.17-1.649
								c-0.409-0.488-1.141-0.567-1.638-0.158C52.713,78.014,52.642,78.743,53.045,79.243"/>
							<path fill="#88CA90" d="M53.045,79.243c0.405,0.504,1.14,0.575,1.637,0.17c0.5-0.411,0.581-1.141,0.17-1.649
								c-0.409-0.488-1.141-0.567-1.638-0.158C52.713,78.014,52.642,78.743,53.045,79.243z"/>
							<path fill="#88CA90" d="M85.104,58.785c0.414,0.5,1.143,0.569,1.644,0.16c0.5-0.404,0.576-1.134,0.164-1.646
								c-0.405-0.498-1.138-0.569-1.633-0.166C84.779,57.549,84.7,58.278,85.104,58.785"/>
							<path fill="#88CA90" d="M85.104,58.785c0.414,0.5,1.143,0.569,1.644,0.16c0.5-0.404,0.576-1.134,0.164-1.646
								c-0.405-0.498-1.138-0.569-1.633-0.166C84.779,57.549,84.7,58.278,85.104,58.785z"/>
							<path fill="#88CA90" d="M78.575,64.109c0.41,0.505,1.142,0.575,1.639,0.166c0.5-0.404,0.574-1.136,0.167-1.642
								c-0.405-0.5-1.146-0.574-1.639-0.167C78.246,62.874,78.165,63.609,78.575,64.109"/>
							<path fill="#88CA90" d="M78.575,64.109c0.41,0.505,1.142,0.575,1.639,0.166c0.5-0.404,0.574-1.136,0.167-1.642
								c-0.405-0.5-1.146-0.574-1.639-0.167C78.246,62.874,78.165,63.609,78.575,64.109z"/>
							<path fill="#88CA90" d="M72.039,69.439c0.412,0.505,1.14,0.575,1.641,0.164c0.495-0.402,0.575-1.139,0.167-1.641
								c-0.403-0.5-1.14-0.567-1.638-0.164C71.71,68.204,71.635,68.938,72.039,69.439"/>
							<path fill="#88CA90" d="M72.039,69.439c0.412,0.505,1.14,0.575,1.641,0.164c0.495-0.402,0.575-1.139,0.167-1.641
								c-0.403-0.5-1.14-0.567-1.638-0.164C71.71,68.204,71.635,68.938,72.039,69.439z"/>
							<path fill="#88CA90" d="M65.506,74.769c0.414,0.504,1.14,0.574,1.64,0.167c0.497-0.405,0.573-1.138,0.167-1.644
								c-0.403-0.498-1.141-0.571-1.639-0.166S65.102,74.271,65.506,74.769"/>
							<path fill="#88CA90" d="M65.506,74.769c0.414,0.504,1.14,0.574,1.64,0.167c0.497-0.405,0.573-1.138,0.167-1.644
								c-0.403-0.498-1.141-0.571-1.639-0.166S65.102,74.271,65.506,74.769z"/>
							<path fill="#88CA90" d="M58.974,80.1c0.407,0.506,1.136,0.576,1.644,0.166c0.489-0.403,0.569-1.14,0.161-1.643
								c-0.404-0.5-1.143-0.57-1.639-0.165C58.642,78.865,58.571,79.601,58.974,80.1"/>
							<path fill="#88CA90" d="M58.974,80.1c0.407,0.506,1.136,0.576,1.644,0.166c0.489-0.403,0.569-1.14,0.161-1.643
								c-0.404-0.5-1.143-0.57-1.639-0.165C58.642,78.865,58.571,79.601,58.974,80.1z"/>
							<path fill="#88CA90" d="M52.442,85.429c0.41,0.503,1.138,0.576,1.644,0.167c0.493-0.405,0.566-1.14,0.16-1.639
								c-0.403-0.505-1.138-0.573-1.638-0.168C52.112,84.192,52.04,84.929,52.442,85.429"/>
							<path fill="#88CA90" d="M52.442,85.429c0.41,0.503,1.138,0.576,1.644,0.167c0.493-0.405,0.566-1.14,0.16-1.639
								c-0.403-0.505-1.138-0.573-1.638-0.168C52.112,84.192,52.04,84.929,52.442,85.429z"/>
						</g>
						<g>
							<path fill="#88CA90" d="M93.053,58.55c0.408,0.492,1.144,0.571,1.638,0.166c0.502-0.409,0.575-1.146,0.174-1.651
								c-0.41-0.492-1.14-0.566-1.644-0.155C92.728,57.312,92.647,58.045,93.053,58.55"/>
							<path fill="#88CA90" d="M93.053,58.55c0.408,0.492,1.144,0.571,1.638,0.166c0.502-0.409,0.575-1.146,0.174-1.651
								c-0.41-0.492-1.14-0.566-1.644-0.155C92.728,57.312,92.647,58.045,93.053,58.55z"/>
							<path fill="#88CA90" d="M86.523,63.874c0.407,0.5,1.141,0.575,1.638,0.167c0.497-0.408,0.576-1.145,0.169-1.644
								c-0.404-0.498-1.142-0.575-1.641-0.16C86.191,62.64,86.11,63.374,86.523,63.874"/>
							<path fill="#88CA90" d="M86.523,63.874c0.407,0.5,1.141,0.575,1.638,0.167c0.497-0.408,0.576-1.145,0.169-1.644
								c-0.404-0.498-1.142-0.575-1.641-0.16C86.191,62.64,86.11,63.374,86.523,63.874z"/>
							<path fill="#88CA90" d="M79.986,69.208c0.406,0.499,1.144,0.571,1.642,0.164c0.495-0.409,0.575-1.146,0.167-1.648
								c-0.401-0.499-1.14-0.57-1.642-0.163C79.654,67.963,79.577,68.708,79.986,69.208"/>
							<path fill="#88CA90" d="M79.986,69.208c0.406,0.499,1.144,0.571,1.642,0.164c0.495-0.409,0.575-1.146,0.167-1.648
								c-0.401-0.499-1.14-0.57-1.642-0.163C79.654,67.963,79.577,68.708,79.986,69.208z"/>
							<path fill="#88CA90" d="M73.451,74.538c0.409,0.495,1.145,0.573,1.644,0.164c0.499-0.408,0.572-1.144,0.163-1.645
								c-0.401-0.497-1.134-0.571-1.637-0.167C73.126,73.294,73.042,74.034,73.451,74.538"/>
							<path fill="#88CA90" d="M73.451,74.538c0.409,0.495,1.145,0.573,1.644,0.164c0.499-0.408,0.572-1.144,0.163-1.645
								c-0.401-0.497-1.134-0.571-1.637-0.167C73.126,73.294,73.042,74.034,73.451,74.538z"/>
							<path fill="#88CA90" d="M66.917,79.867c0.41,0.497,1.147,0.572,1.643,0.162c0.498-0.403,0.579-1.14,0.168-1.644
								c-0.405-0.497-1.142-0.573-1.642-0.167C66.591,78.619,66.507,79.367,66.917,79.867"/>
							<path fill="#88CA90" d="M66.917,79.867c0.41,0.497,1.147,0.572,1.643,0.162c0.498-0.403,0.579-1.14,0.168-1.644
								c-0.405-0.497-1.142-0.573-1.642-0.167C66.591,78.619,66.507,79.367,66.917,79.867z"/>
							<path fill="#88CA90" d="M60.386,85.196c0.412,0.495,1.141,0.57,1.64,0.162c0.499-0.406,0.574-1.138,0.168-1.645
								c-0.404-0.487-1.139-0.567-1.643-0.166C60.058,83.952,59.981,84.694,60.386,85.196"/>
							<path fill="#88CA90" d="M60.386,85.196c0.412,0.495,1.141,0.57,1.64,0.162c0.499-0.406,0.574-1.138,0.168-1.645
								c-0.404-0.487-1.139-0.567-1.643-0.166C60.058,83.952,59.981,84.694,60.386,85.196z"/>
							<path fill="#88CA90" d="M92.449,64.727c0.416,0.504,1.147,0.583,1.646,0.177c0.498-0.419,0.572-1.142,0.162-1.651
								c-0.406-0.498-1.136-0.569-1.638-0.16C92.117,63.496,92.043,64.23,92.449,64.727"/>
							<path fill="#88CA90" d="M92.449,64.727c0.416,0.504,1.147,0.583,1.646,0.177c0.498-0.419,0.572-1.142,0.162-1.651
								c-0.406-0.498-1.136-0.569-1.638-0.16C92.117,63.496,92.043,64.23,92.449,64.727z"/>
							<path fill="#88CA90" d="M85.916,70.057c0.417,0.506,1.146,0.582,1.645,0.174c0.503-0.417,0.575-1.143,0.165-1.652
								c-0.403-0.497-1.133-0.568-1.639-0.158C85.589,68.826,85.51,69.563,85.916,70.057"/>
							<path fill="#88CA90" d="M85.916,70.057c0.417,0.506,1.146,0.582,1.645,0.174c0.503-0.417,0.575-1.143,0.165-1.652
								c-0.403-0.497-1.133-0.568-1.639-0.158C85.589,68.826,85.51,69.563,85.916,70.057z"/>
							<path fill="#88CA90" d="M79.38,75.389c0.418,0.505,1.15,0.575,1.648,0.174c0.5-0.413,0.572-1.143,0.161-1.653
								c-0.404-0.494-1.137-0.565-1.636-0.157C79.055,74.157,78.978,74.896,79.38,75.389"/>
							<path fill="#88CA90" d="M79.38,75.389c0.418,0.505,1.15,0.575,1.648,0.174c0.5-0.413,0.572-1.143,0.161-1.653
								c-0.404-0.494-1.137-0.565-1.636-0.157C79.055,74.157,78.978,74.896,79.38,75.389z"/>
							<path fill="#88CA90" d="M72.85,80.717c0.413,0.507,1.147,0.578,1.645,0.177c0.501-0.413,0.573-1.145,0.165-1.65
								c-0.408-0.496-1.14-0.575-1.639-0.164C72.523,79.485,72.439,80.222,72.85,80.717"/>
							<path fill="#88CA90" d="M72.85,80.717c0.413,0.507,1.147,0.578,1.645,0.177c0.501-0.413,0.573-1.145,0.165-1.65
								c-0.408-0.496-1.14-0.575-1.639-0.164C72.523,79.485,72.439,80.222,72.85,80.717z"/>
							<path fill="#88CA90" d="M66.313,86.048c0.418,0.507,1.151,0.58,1.647,0.177c0.5-0.412,0.571-1.148,0.164-1.649
								c-0.41-0.501-1.142-0.573-1.639-0.17C65.987,84.817,65.909,85.55,66.313,86.048"/>
							<path fill="#88CA90" d="M66.313,86.048c0.418,0.507,1.151,0.58,1.647,0.177c0.5-0.412,0.571-1.148,0.164-1.649
								c-0.41-0.501-1.142-0.573-1.639-0.17C65.987,84.817,65.909,85.55,66.313,86.048z"/>
							<path fill="#88CA90" d="M59.782,91.376c0.415,0.502,1.148,0.576,1.643,0.175c0.497-0.414,0.579-1.149,0.165-1.649
								c-0.402-0.499-1.146-0.572-1.638-0.166C59.455,90.145,59.377,90.882,59.782,91.376"/>
							<path fill="#88CA90" d="M59.782,91.376c0.415,0.502,1.148,0.576,1.643,0.175c0.497-0.414,0.579-1.149,0.165-1.649
								c-0.402-0.499-1.146-0.572-1.638-0.166C59.455,90.145,59.377,90.882,59.782,91.376z"/>
							<path fill="#88CA90" d="M98.617,65.394c0.415,0.496,1.148,0.572,1.643,0.166c0.5-0.416,0.58-1.138,0.171-1.646
								c-0.406-0.491-1.136-0.568-1.64-0.167C98.291,64.156,98.218,64.888,98.617,65.394"/>
							<path fill="#88CA90" d="M98.617,65.394c0.415,0.496,1.148,0.572,1.643,0.166c0.5-0.416,0.58-1.138,0.171-1.646
								c-0.406-0.491-1.136-0.568-1.64-0.167C98.291,64.156,98.218,64.888,98.617,65.394z"/>
							<path fill="#88CA90" d="M92.087,70.723c0.408,0.5,1.147,0.577,1.644,0.169c0.5-0.416,0.581-1.146,0.166-1.65
								c-0.403-0.495-1.134-0.57-1.634-0.17C91.759,69.484,91.682,70.223,92.087,70.723"/>
							<path fill="#88CA90" d="M92.087,70.723c0.408,0.5,1.147,0.577,1.644,0.169c0.5-0.416,0.581-1.146,0.166-1.65
								c-0.403-0.495-1.134-0.57-1.634-0.17C91.759,69.484,91.682,70.223,92.087,70.723z"/>
							<path fill="#88CA90" d="M85.553,76.055c0.406,0.498,1.147,0.573,1.642,0.163c0.502-0.413,0.584-1.141,0.171-1.645
								c-0.407-0.494-1.138-0.57-1.64-0.165C85.222,74.816,85.142,75.558,85.553,76.055"/>
							<path fill="#88CA90" d="M85.553,76.055c0.406,0.498,1.147,0.573,1.642,0.163c0.502-0.413,0.584-1.141,0.171-1.645
								c-0.407-0.494-1.138-0.57-1.64-0.165C85.222,74.816,85.142,75.558,85.553,76.055z"/>
							<path fill="#88CA90" d="M79.018,81.384c0.412,0.499,1.145,0.575,1.646,0.163s0.574-1.139,0.165-1.638
								c-0.402-0.5-1.137-0.577-1.633-0.176C78.688,80.148,78.608,80.884,79.018,81.384"/>
							<path fill="#88CA90" d="M79.018,81.384c0.412,0.499,1.145,0.575,1.646,0.163s0.574-1.139,0.165-1.638
								c-0.402-0.5-1.137-0.577-1.633-0.176C78.688,80.148,78.608,80.884,79.018,81.384z"/>
							<path fill="#88CA90" d="M72.485,86.717c0.409,0.496,1.144,0.573,1.645,0.16c0.502-0.414,0.582-1.139,0.165-1.644
								c-0.402-0.499-1.14-0.572-1.635-0.169C72.157,85.478,72.075,86.212,72.485,86.717"/>
							<path fill="#88CA90" d="M72.485,86.717c0.409,0.496,1.144,0.573,1.645,0.16c0.502-0.414,0.582-1.139,0.165-1.644
								c-0.402-0.499-1.14-0.572-1.635-0.169C72.157,85.478,72.075,86.212,72.485,86.717z"/>
							<path fill="#88CA90" d="M65.955,92.04c0.417,0.499,1.141,0.576,1.641,0.167c0.501-0.414,0.578-1.137,0.167-1.646
								c-0.405-0.489-1.135-0.567-1.636-0.164C65.627,90.807,65.547,91.535,65.955,92.04"/>
							<path fill="#88CA90" d="M65.955,92.04c0.417,0.499,1.141,0.576,1.641,0.167c0.501-0.414,0.578-1.137,0.167-1.646
								c-0.405-0.489-1.135-0.567-1.636-0.164C65.627,90.807,65.547,91.535,65.955,92.04z"/>
							<path fill="#88CA90" d="M98.019,71.574c0.412,0.501,1.146,0.582,1.646,0.173c0.492-0.409,0.569-1.14,0.161-1.649
								c-0.402-0.493-1.134-0.574-1.638-0.158C97.691,70.342,97.619,71.077,98.019,71.574"/>
							<path fill="#88CA90" d="M98.019,71.574c0.412,0.501,1.146,0.582,1.646,0.173c0.492-0.409,0.569-1.14,0.161-1.649
								c-0.402-0.493-1.134-0.574-1.638-0.158C97.691,70.342,97.619,71.077,98.019,71.574z"/>
							<path fill="#88CA90" d="M91.487,76.905c0.408,0.501,1.146,0.579,1.644,0.166c0.491-0.405,0.569-1.143,0.162-1.645
								c-0.397-0.497-1.132-0.572-1.638-0.158C91.162,75.674,91.084,76.411,91.487,76.905"/>
							<path fill="#88CA90" d="M91.487,76.905c0.408,0.501,1.146,0.579,1.644,0.166c0.491-0.405,0.569-1.143,0.162-1.645
								c-0.397-0.497-1.132-0.572-1.638-0.158C91.162,75.674,91.084,76.411,91.487,76.905z"/>
							<path fill="#88CA90" d="M84.951,82.233c0.411,0.504,1.142,0.574,1.644,0.174c0.49-0.412,0.572-1.142,0.161-1.647
								c-0.403-0.504-1.131-0.573-1.64-0.16C84.627,81.003,84.549,81.741,84.951,82.233"/>
							<path fill="#88CA90" d="M84.951,82.233c0.411,0.504,1.142,0.574,1.644,0.174c0.49-0.412,0.572-1.142,0.161-1.647
								c-0.403-0.504-1.131-0.573-1.64-0.16C84.627,81.003,84.549,81.741,84.951,82.233z"/>
							<path fill="#88CA90" d="M78.419,87.565c0.405,0.5,1.142,0.574,1.644,0.166c0.493-0.408,0.573-1.142,0.17-1.643
								c-0.407-0.505-1.14-0.573-1.644-0.161C78.092,86.335,78.012,87.068,78.419,87.565"/>
							<path fill="#88CA90" d="M78.419,87.565c0.405,0.5,1.142,0.574,1.644,0.166c0.493-0.408,0.573-1.142,0.17-1.643
								c-0.407-0.505-1.14-0.573-1.644-0.161C78.092,86.335,78.012,87.068,78.419,87.565z"/>
							<path fill="#88CA90" d="M71.887,92.894c0.414,0.504,1.146,0.576,1.644,0.172c0.497-0.411,0.572-1.146,0.167-1.642
								c-0.409-0.503-1.139-0.576-1.644-0.165C71.559,91.668,71.479,92.396,71.887,92.894"/>
							<path fill="#88CA90" d="M71.887,92.894c0.414,0.504,1.146,0.576,1.644,0.172c0.497-0.411,0.572-1.146,0.167-1.642
								c-0.409-0.503-1.139-0.576-1.644-0.165C71.559,91.668,71.479,92.396,71.887,92.894z"/>
							<path fill="#88CA90" d="M65.352,98.225c0.414,0.5,1.142,0.569,1.644,0.167c0.494-0.41,0.572-1.144,0.168-1.642
								c-0.408-0.497-1.142-0.577-1.644-0.162C65.025,96.991,64.949,97.725,65.352,98.225"/>
							<path fill="#88CA90" d="M65.352,98.225c0.414,0.5,1.142,0.569,1.644,0.167c0.494-0.41,0.572-1.144,0.168-1.642
								c-0.408-0.497-1.142-0.577-1.644-0.162C65.025,96.991,64.949,97.725,65.352,98.225z"/>
							<path fill="#88CA90" d="M104.189,72.234c0.419,0.505,1.141,0.58,1.647,0.169c0.493-0.411,0.57-1.135,0.159-1.643
								c-0.397-0.496-1.138-0.569-1.635-0.166C103.858,71.005,103.786,71.736,104.189,72.234"/>
							<path fill="#88CA90" d="M104.189,72.234c0.419,0.505,1.141,0.58,1.647,0.169c0.493-0.411,0.57-1.135,0.159-1.643
								c-0.397-0.496-1.138-0.569-1.635-0.166C103.858,71.005,103.786,71.736,104.189,72.234z"/>
							<path fill="#88CA90" d="M97.66,77.564c0.411,0.503,1.14,0.577,1.644,0.173c0.496-0.415,0.571-1.141,0.161-1.651
								c-0.399-0.492-1.14-0.566-1.635-0.164C97.327,76.329,97.255,77.067,97.66,77.564"/>
							<path fill="#88CA90" d="M97.66,77.564c0.411,0.503,1.14,0.577,1.644,0.173c0.496-0.415,0.571-1.141,0.161-1.651
								c-0.399-0.492-1.14-0.566-1.635-0.164C97.327,76.329,97.255,77.067,97.66,77.564z"/>
							<path fill="#88CA90" d="M91.126,82.892c0.413,0.503,1.14,0.583,1.639,0.171c0.498-0.413,0.576-1.136,0.167-1.645
								c-0.396-0.49-1.138-0.57-1.636-0.163C90.792,81.665,90.72,82.396,91.126,82.892"/>
							<path fill="#88CA90" d="M91.126,82.892c0.413,0.503,1.14,0.583,1.639,0.171c0.498-0.413,0.576-1.136,0.167-1.645
								c-0.396-0.49-1.138-0.57-1.636-0.163C90.792,81.665,90.72,82.396,91.126,82.892z"/>
							<path fill="#88CA90" d="M84.593,88.229c0.413,0.496,1.138,0.575,1.638,0.159c0.499-0.408,0.578-1.129,0.17-1.632
								c-0.402-0.5-1.139-0.58-1.639-0.173C84.258,86.996,84.185,87.729,84.593,88.229"/>
							<path fill="#88CA90" d="M84.593,88.229c0.413,0.496,1.138,0.575,1.638,0.159c0.499-0.408,0.578-1.129,0.17-1.632
								c-0.402-0.5-1.139-0.58-1.639-0.173C84.258,86.996,84.185,87.729,84.593,88.229z"/>
							<path fill="#88CA90" d="M78.062,93.556c0.41,0.499,1.136,0.574,1.638,0.161c0.498-0.405,0.573-1.13,0.17-1.632
								c-0.403-0.501-1.144-0.579-1.642-0.17C77.729,92.322,77.657,93.056,78.062,93.556"/>
							<path fill="#88CA90" d="M78.062,93.556c0.41,0.499,1.136,0.574,1.638,0.161c0.498-0.405,0.573-1.13,0.17-1.632
								c-0.403-0.501-1.144-0.579-1.642-0.17C77.729,92.322,77.657,93.056,78.062,93.556z"/>
							<path fill="#88CA90" d="M71.527,98.888c0.41,0.498,1.138,0.572,1.641,0.158c0.499-0.4,0.573-1.13,0.17-1.635
								c-0.405-0.497-1.14-0.577-1.643-0.167C71.193,97.654,71.12,98.387,71.527,98.888"/>
							<path fill="#88CA90" d="M71.527,98.888c0.41,0.498,1.138,0.572,1.641,0.158c0.499-0.4,0.573-1.13,0.17-1.635
								c-0.405-0.497-1.14-0.577-1.643-0.167C71.193,97.654,71.12,98.387,71.527,98.888z"/>
							<path fill="#88CA90" d="M103.586,78.423c0.414,0.508,1.146,0.574,1.647,0.168c0.489-0.405,0.575-1.144,0.159-1.645
								c-0.402-0.498-1.136-0.576-1.634-0.164C103.262,77.191,103.188,77.917,103.586,78.423"/>
							<path fill="#88CA90" d="M103.586,78.423c0.414,0.508,1.146,0.574,1.647,0.168c0.489-0.405,0.575-1.144,0.159-1.645
								c-0.402-0.498-1.136-0.576-1.634-0.164C103.262,77.191,103.188,77.917,103.586,78.423z"/>
							<path fill="#88CA90" d="M97.054,83.749c0.41,0.508,1.147,0.576,1.646,0.171c0.496-0.403,0.573-1.143,0.162-1.644
								c-0.406-0.5-1.137-0.577-1.636-0.163C96.727,82.52,96.65,83.25,97.054,83.749"/>
							<path fill="#88CA90" d="M97.054,83.749c0.41,0.508,1.147,0.576,1.646,0.171c0.496-0.403,0.573-1.143,0.162-1.644
								c-0.406-0.5-1.137-0.577-1.636-0.163C96.727,82.52,96.65,83.25,97.054,83.749z"/>
							<path fill="#88CA90" d="M90.521,89.082c0.409,0.509,1.147,0.577,1.643,0.168c0.499-0.405,0.575-1.141,0.165-1.647
								c-0.408-0.498-1.136-0.574-1.637-0.16C90.195,87.851,90.115,88.583,90.521,89.082"/>
							<path fill="#88CA90" d="M90.521,89.082c0.409,0.509,1.147,0.577,1.643,0.168c0.499-0.405,0.575-1.141,0.165-1.647
								c-0.408-0.498-1.136-0.574-1.637-0.16C90.195,87.851,90.115,88.583,90.521,89.082z"/>
							<path fill="#88CA90" d="M83.987,94.411c0.409,0.508,1.146,0.573,1.645,0.166c0.497-0.405,0.576-1.139,0.165-1.645
								c-0.409-0.494-1.141-0.569-1.64-0.159C83.66,93.175,83.581,93.911,83.987,94.411"/>
							<path fill="#88CA90" d="M83.987,94.411c0.409,0.508,1.146,0.573,1.645,0.166c0.497-0.405,0.576-1.139,0.165-1.645
								c-0.409-0.494-1.141-0.569-1.64-0.159C83.66,93.175,83.581,93.911,83.987,94.411z"/>
							<path fill="#88CA90" d="M77.453,99.742c0.411,0.504,1.146,0.575,1.645,0.17c0.491-0.413,0.578-1.146,0.164-1.653
								c-0.403-0.499-1.133-0.569-1.64-0.154C77.13,98.508,77.049,99.248,77.453,99.742"/>
							<path fill="#88CA90" d="M77.453,99.742c0.411,0.504,1.146,0.575,1.645,0.17c0.491-0.413,0.578-1.146,0.164-1.653
								c-0.403-0.499-1.133-0.569-1.64-0.154C77.13,98.508,77.049,99.248,77.453,99.742z"/>
							<path fill="#88CA90" d="M70.92,105.072c0.413,0.498,1.149,0.572,1.643,0.165c0.495-0.409,0.581-1.137,0.166-1.648
								c-0.406-0.493-1.137-0.57-1.642-0.155C70.594,103.833,70.517,104.572,70.92,105.072"/>
							<path fill="#88CA90" d="M70.92,105.072c0.413,0.498,1.149,0.572,1.643,0.165c0.495-0.409,0.581-1.137,0.166-1.648
								c-0.406-0.493-1.137-0.57-1.642-0.155C70.594,103.833,70.517,104.572,70.92,105.072z"/>
							<path fill="#88CA90" d="M109.762,79.081c0.413,0.503,1.145,0.582,1.642,0.172c0.495-0.413,0.571-1.14,0.166-1.648
								c-0.398-0.492-1.14-0.567-1.636-0.157C109.433,77.85,109.353,78.584,109.762,79.081"/>
							<path fill="#88CA90" d="M109.762,79.081c0.413,0.503,1.145,0.582,1.642,0.172c0.495-0.413,0.571-1.14,0.166-1.648
								c-0.398-0.492-1.14-0.567-1.636-0.157C109.433,77.85,109.353,78.584,109.762,79.081z"/>
							<path fill="#88CA90" d="M103.229,84.411c0.411,0.5,1.142,0.582,1.644,0.168c0.493-0.411,0.569-1.14,0.16-1.645
								c-0.396-0.497-1.138-0.566-1.633-0.157C102.9,83.183,102.819,83.912,103.229,84.411"/>
							<path fill="#88CA90" d="M103.229,84.411c0.411,0.5,1.142,0.582,1.644,0.168c0.493-0.411,0.569-1.14,0.16-1.645
								c-0.396-0.497-1.138-0.566-1.633-0.157C102.9,83.183,102.819,83.912,103.229,84.411z"/>
							<path fill="#88CA90" d="M96.696,89.741c0.409,0.502,1.144,0.582,1.644,0.169c0.494-0.415,0.566-1.139,0.157-1.645
								c-0.402-0.502-1.13-0.57-1.632-0.159C96.364,88.512,96.288,89.245,96.696,89.741"/>
							<path fill="#88CA90" d="M96.696,89.741c0.409,0.502,1.144,0.582,1.644,0.169c0.494-0.415,0.566-1.139,0.157-1.645
								c-0.402-0.502-1.13-0.57-1.632-0.159C96.364,88.512,96.288,89.245,96.696,89.741z"/>
							<path fill="#88CA90" d="M90.16,95.073c0.412,0.498,1.145,0.582,1.645,0.168c0.493-0.411,0.57-1.138,0.158-1.641
								c-0.4-0.503-1.132-0.577-1.633-0.167C89.827,93.843,89.754,94.57,90.16,95.073"/>
							<path fill="#88CA90" d="M90.16,95.073c0.412,0.498,1.145,0.582,1.645,0.168c0.493-0.411,0.57-1.138,0.158-1.641
								c-0.4-0.503-1.132-0.577-1.633-0.167C89.827,93.843,89.754,94.57,90.16,95.073z"/>
							<path fill="#88CA90" d="M83.628,100.401c0.41,0.503,1.141,0.58,1.643,0.172c0.493-0.418,0.573-1.142,0.162-1.646
								c-0.401-0.501-1.138-0.578-1.636-0.167C83.293,99.172,83.22,99.903,83.628,100.401"/>
							<path fill="#88CA90" d="M83.628,100.401c0.41,0.503,1.141,0.58,1.643,0.172c0.493-0.418,0.573-1.142,0.162-1.646
								c-0.401-0.501-1.138-0.578-1.636-0.167C83.293,99.172,83.22,99.903,83.628,100.401z"/>
							<path fill="#88CA90" d="M77.094,105.733c0.412,0.498,1.146,0.579,1.643,0.166c0.492-0.41,0.572-1.138,0.165-1.641
								c-0.405-0.503-1.139-0.578-1.638-0.169C76.761,104.499,76.686,105.232,77.094,105.733"/>
							<path fill="#88CA90" d="M77.094,105.733c0.412,0.498,1.146,0.579,1.643,0.166c0.492-0.41,0.572-1.138,0.165-1.641
								c-0.405-0.503-1.139-0.578-1.638-0.169C76.761,104.499,76.686,105.232,77.094,105.733z"/>
							<path fill="#88CA90" d="M109.155,85.269c0.418,0.51,1.147,0.571,1.653,0.169c0.489-0.411,0.567-1.142,0.152-1.645
								c-0.398-0.495-1.135-0.568-1.633-0.164C108.828,84.041,108.756,84.766,109.155,85.269"/>
							<path fill="#88CA90" d="M109.155,85.269c0.418,0.51,1.147,0.571,1.653,0.169c0.489-0.411,0.567-1.142,0.152-1.645
								c-0.398-0.495-1.135-0.568-1.633-0.164C108.828,84.041,108.756,84.766,109.155,85.269z"/>
							<path fill="#88CA90" d="M102.622,90.598c0.414,0.512,1.154,0.578,1.653,0.169c0.489-0.406,0.568-1.138,0.152-1.646
								c-0.401-0.491-1.137-0.568-1.634-0.162C102.294,89.369,102.219,90.097,102.622,90.598"/>
							<path fill="#88CA90" d="M102.622,90.598c0.414,0.512,1.154,0.578,1.653,0.169c0.489-0.406,0.568-1.138,0.152-1.646
								c-0.401-0.491-1.137-0.568-1.634-0.162C102.294,89.369,102.219,90.097,102.622,90.598z"/>
							<path fill="#88CA90" d="M96.091,95.93c0.408,0.507,1.145,0.571,1.644,0.166c0.497-0.405,0.574-1.143,0.16-1.646
								c-0.398-0.495-1.132-0.565-1.637-0.158C95.766,94.694,95.686,95.429,96.091,95.93"/>
							<path fill="#88CA90" d="M96.091,95.93c0.408,0.507,1.145,0.571,1.644,0.166c0.497-0.405,0.574-1.143,0.16-1.646
								c-0.398-0.495-1.132-0.565-1.637-0.158C95.766,94.694,95.686,95.429,96.091,95.93z"/>
							<path fill="#88CA90" d="M89.557,101.263c0.404,0.502,1.146,0.568,1.643,0.163c0.499-0.407,0.577-1.143,0.168-1.646
								c-0.405-0.497-1.139-0.568-1.644-0.161C89.227,100.022,89.148,100.757,89.557,101.263"/>
							<path fill="#88CA90" d="M89.557,101.263c0.404,0.502,1.146,0.568,1.643,0.163c0.499-0.407,0.577-1.143,0.168-1.646
								c-0.405-0.497-1.139-0.568-1.644-0.161C89.227,100.022,89.148,100.757,89.557,101.263z"/>
							<path fill="#88CA90" d="M83.023,106.588c0.406,0.505,1.144,0.573,1.642,0.167s0.578-1.142,0.172-1.646
								c-0.404-0.497-1.145-0.57-1.647-0.159C82.693,105.352,82.617,106.088,83.023,106.588"/>
							<path fill="#88CA90" d="M83.023,106.588c0.406,0.505,1.144,0.573,1.642,0.167s0.578-1.142,0.172-1.646
								c-0.404-0.497-1.145-0.57-1.647-0.159C82.693,105.352,82.617,106.088,83.023,106.588z"/>
							<path fill="#88CA90" d="M76.492,111.92c0.407,0.498,1.144,0.573,1.639,0.169c0.497-0.407,0.579-1.146,0.173-1.649
								c-0.41-0.492-1.143-0.572-1.648-0.157C76.16,110.68,76.091,111.415,76.492,111.92"/>
							<path fill="#88CA90" d="M76.492,111.92c0.407,0.498,1.144,0.573,1.639,0.169c0.497-0.407,0.579-1.146,0.173-1.649
								c-0.41-0.492-1.143-0.572-1.648-0.157C76.16,110.68,76.091,111.415,76.492,111.92z"/>
							<path fill="#88CA90" d="M115.328,85.93c0.414,0.502,1.146,0.573,1.644,0.168c0.495-0.412,0.579-1.142,0.172-1.649
								c-0.409-0.49-1.144-0.561-1.64-0.16C115.004,84.692,114.925,85.43,115.328,85.93"/>
							<path fill="#88CA90" d="M115.328,85.93c0.414,0.502,1.146,0.573,1.644,0.168c0.495-0.412,0.579-1.142,0.172-1.649
								c-0.409-0.49-1.144-0.561-1.64-0.16C115.004,84.692,114.925,85.43,115.328,85.93z"/>
							<path fill="#88CA90" d="M108.797,91.258c0.41,0.503,1.145,0.576,1.64,0.169c0.5-0.407,0.587-1.141,0.172-1.65
								c-0.405-0.492-1.143-0.564-1.64-0.155C108.468,90.022,108.392,90.766,108.797,91.258"/>
							<path fill="#88CA90" d="M108.797,91.258c0.41,0.503,1.145,0.576,1.64,0.169c0.5-0.407,0.587-1.141,0.172-1.65
								c-0.405-0.492-1.143-0.564-1.64-0.155C108.468,90.022,108.392,90.766,108.797,91.258z"/>
							<path fill="#88CA90" d="M102.266,96.586c0.406,0.506,1.142,0.583,1.641,0.171c0.497-0.408,0.579-1.146,0.166-1.646
								c-0.396-0.491-1.139-0.569-1.639-0.159C101.934,95.354,101.857,96.087,102.266,96.586"/>
							<path fill="#88CA90" d="M102.266,96.586c0.406,0.506,1.142,0.583,1.641,0.171c0.497-0.408,0.579-1.146,0.166-1.646
								c-0.396-0.491-1.139-0.569-1.639-0.159C101.934,95.354,101.857,96.087,102.266,96.586z"/>
							<path fill="#88CA90" d="M95.73,101.918c0.409,0.507,1.143,0.575,1.641,0.168c0.498-0.41,0.584-1.146,0.172-1.646
								c-0.402-0.495-1.144-0.568-1.641-0.161C95.402,100.681,95.321,101.417,95.73,101.918"/>
							<path fill="#88CA90" d="M95.73,101.918c0.409,0.507,1.143,0.575,1.641,0.168c0.498-0.41,0.584-1.146,0.172-1.646
								c-0.402-0.495-1.144-0.568-1.641-0.161C95.402,100.681,95.321,101.417,95.73,101.918z"/>
							<path fill="#88CA90" d="M89.198,107.248c0.408,0.503,1.144,0.58,1.644,0.17c0.494-0.41,0.576-1.144,0.165-1.647
								c-0.398-0.492-1.137-0.568-1.639-0.159C88.87,106.017,88.791,106.745,89.198,107.248"/>
							<path fill="#88CA90" d="M89.198,107.248c0.408,0.503,1.144,0.58,1.644,0.17c0.494-0.41,0.576-1.144,0.165-1.647
								c-0.398-0.492-1.137-0.568-1.639-0.159C88.87,106.017,88.791,106.745,89.198,107.248z"/>
							<path fill="#88CA90" d="M82.662,112.581c0.413,0.497,1.145,0.576,1.646,0.168c0.495-0.412,0.569-1.145,0.168-1.649
								c-0.408-0.492-1.143-0.573-1.642-0.16C82.333,111.345,82.26,112.074,82.662,112.581"/>
							<path fill="#88CA90" d="M82.662,112.581c0.413,0.497,1.145,0.576,1.646,0.168c0.495-0.412,0.569-1.145,0.168-1.649
								c-0.408-0.492-1.143-0.573-1.642-0.16C82.333,111.345,82.26,112.074,82.662,112.581z"/>
							<path fill="#88CA90" d="M114.727,92.117c0.41,0.499,1.146,0.569,1.645,0.16c0.496-0.402,0.567-1.141,0.166-1.642
								c-0.408-0.491-1.141-0.572-1.638-0.159C114.398,90.88,114.326,91.613,114.727,92.117"/>
							<path fill="#88CA90" d="M114.727,92.117c0.41,0.499,1.146,0.569,1.645,0.16c0.496-0.402,0.567-1.141,0.166-1.642
								c-0.408-0.491-1.141-0.572-1.638-0.159C114.398,90.88,114.326,91.613,114.727,92.117z"/>
							<path fill="#88CA90" d="M108.19,97.445c0.412,0.502,1.146,0.573,1.646,0.162c0.496-0.401,0.569-1.145,0.166-1.642
								c-0.406-0.496-1.137-0.568-1.637-0.16C107.867,96.212,107.785,96.942,108.19,97.445"/>
							<path fill="#88CA90" d="M108.19,97.445c0.412,0.502,1.146,0.573,1.646,0.162c0.496-0.401,0.569-1.145,0.166-1.642
								c-0.406-0.496-1.137-0.568-1.637-0.16C107.867,96.212,107.785,96.942,108.19,97.445z"/>
							<path fill="#88CA90" d="M101.66,102.774c0.409,0.509,1.142,0.573,1.641,0.17c0.497-0.407,0.575-1.143,0.169-1.646
								c-0.404-0.496-1.139-0.571-1.638-0.163C101.334,101.544,101.257,102.275,101.66,102.774"/>
							<path fill="#88CA90" d="M101.66,102.774c0.409,0.509,1.142,0.573,1.641,0.17c0.497-0.407,0.575-1.143,0.169-1.646
								c-0.404-0.496-1.139-0.571-1.638-0.163C101.334,101.544,101.257,102.275,101.66,102.774z"/>
							<path fill="#88CA90" d="M95.126,108.102c0.416,0.506,1.145,0.574,1.642,0.169c0.495-0.406,0.577-1.145,0.17-1.645
								c-0.407-0.498-1.14-0.567-1.64-0.162C94.803,106.871,94.722,107.605,95.126,108.102"/>
							<path fill="#88CA90" d="M95.126,108.102c0.416,0.506,1.145,0.574,1.642,0.169c0.495-0.406,0.577-1.145,0.17-1.645
								c-0.407-0.498-1.14-0.567-1.64-0.162C94.803,106.871,94.722,107.605,95.126,108.102z"/>
							<path fill="#88CA90" d="M88.592,113.428c0.415,0.512,1.144,0.581,1.643,0.174c0.496-0.404,0.574-1.139,0.168-1.643
								c-0.402-0.498-1.138-0.568-1.637-0.164C88.269,112.202,88.186,112.929,88.592,113.428"/>
							<path fill="#88CA90" d="M88.592,113.428c0.415,0.512,1.144,0.581,1.643,0.174c0.496-0.404,0.574-1.139,0.168-1.643
								c-0.402-0.498-1.138-0.568-1.637-0.164C88.269,112.202,88.186,112.929,88.592,113.428z"/>
							<path fill="#88CA90" d="M82.061,118.759c0.413,0.509,1.144,0.581,1.641,0.174c0.493-0.404,0.575-1.142,0.165-1.645
								c-0.402-0.494-1.138-0.575-1.634-0.163C81.732,117.527,81.655,118.262,82.061,118.759"/>
							<path fill="#88CA90" d="M82.061,118.759c0.413,0.509,1.144,0.581,1.641,0.174c0.493-0.404,0.575-1.142,0.165-1.645
								c-0.402-0.494-1.138-0.575-1.634-0.163C81.732,117.527,81.655,118.262,82.061,118.759z"/>
							<path fill="#88CA90" d="M120.904,92.774c0.403,0.505,1.145,0.578,1.638,0.165c0.498-0.407,0.577-1.135,0.165-1.639
								c-0.4-0.503-1.138-0.574-1.633-0.163C120.57,91.539,120.499,92.275,120.904,92.774"/>
							<path fill="#88CA90" d="M120.904,92.774c0.403,0.505,1.145,0.578,1.638,0.165c0.498-0.407,0.577-1.135,0.165-1.639
								c-0.4-0.503-1.138-0.574-1.633-0.163C120.57,91.539,120.499,92.275,120.904,92.774z"/>
							<path fill="#88CA90" d="M114.37,98.104c0.406,0.504,1.141,0.576,1.639,0.168c0.496-0.407,0.576-1.139,0.165-1.642
								c-0.404-0.499-1.132-0.571-1.634-0.165C114.042,96.874,113.964,97.602,114.37,98.104"/>
							<path fill="#88CA90" d="M114.37,98.104c0.406,0.504,1.141,0.576,1.639,0.168c0.496-0.407,0.576-1.139,0.165-1.642
								c-0.404-0.499-1.132-0.571-1.634-0.165C114.042,96.874,113.964,97.602,114.37,98.104z"/>
							<path fill="#88CA90" d="M107.836,103.434c0.405,0.503,1.141,0.575,1.64,0.167c0.497-0.407,0.574-1.138,0.165-1.641
								c-0.402-0.5-1.134-0.573-1.634-0.162C107.507,102.206,107.433,102.93,107.836,103.434"/>
							<path fill="#88CA90" d="M107.836,103.434c0.405,0.503,1.141,0.575,1.64,0.167c0.497-0.407,0.574-1.138,0.165-1.641
								c-0.402-0.5-1.134-0.573-1.634-0.162C107.507,102.206,107.433,102.93,107.836,103.434z"/>
							<path fill="#88CA90" d="M101.302,108.766c0.407,0.502,1.141,0.573,1.638,0.165c0.5-0.405,0.58-1.138,0.168-1.644
								c-0.404-0.493-1.135-0.573-1.637-0.163C100.976,107.534,100.9,108.264,101.302,108.766"/>
							<path fill="#88CA90" d="M101.302,108.766c0.407,0.502,1.141,0.573,1.638,0.165c0.5-0.405,0.58-1.138,0.168-1.644
								c-0.404-0.493-1.135-0.573-1.637-0.163C100.976,107.534,100.9,108.264,101.302,108.766z"/>
							<path fill="#88CA90" d="M94.769,114.096c0.403,0.505,1.134,0.57,1.638,0.167c0.499-0.409,0.579-1.142,0.17-1.646
								c-0.405-0.498-1.14-0.568-1.637-0.158C94.44,112.866,94.365,113.594,94.769,114.096"/>
							<path fill="#88CA90" d="M94.769,114.096c0.403,0.505,1.134,0.57,1.638,0.167c0.499-0.409,0.579-1.142,0.17-1.646
								c-0.405-0.498-1.14-0.568-1.637-0.158C94.44,112.866,94.365,113.594,94.769,114.096z"/>
							<path fill="#88CA90" d="M88.235,119.428c0.407,0.5,1.139,0.571,1.638,0.165c0.5-0.408,0.58-1.139,0.17-1.646
								c-0.407-0.491-1.142-0.57-1.639-0.16C87.902,118.193,87.833,118.924,88.235,119.428"/>
							<path fill="#88CA90" d="M88.235,119.428c0.407,0.5,1.139,0.571,1.638,0.165c0.5-0.408,0.58-1.139,0.17-1.646
								c-0.407-0.491-1.142-0.57-1.639-0.16C87.902,118.193,87.833,118.924,88.235,119.428z"/>
							<path fill="#88CA90" d="M120.298,98.968c0.412,0.499,1.141,0.566,1.642,0.157c0.495-0.405,0.576-1.138,0.168-1.643
								c-0.409-0.498-1.144-0.571-1.639-0.164C119.973,97.73,119.893,98.461,120.298,98.968"/>
							<path fill="#88CA90" d="M120.298,98.968c0.412,0.499,1.141,0.566,1.642,0.157c0.495-0.405,0.576-1.138,0.168-1.643
								c-0.409-0.498-1.144-0.571-1.639-0.164C119.973,97.73,119.893,98.461,120.298,98.968z"/>
							<path fill="#88CA90" d="M113.766,104.294c0.409,0.501,1.138,0.569,1.639,0.161c0.495-0.406,0.577-1.136,0.169-1.643
								c-0.406-0.497-1.146-0.572-1.643-0.165C113.435,103.057,113.355,103.789,113.766,104.294"/>
							<path fill="#88CA90" d="M113.766,104.294c0.409,0.501,1.138,0.569,1.639,0.161c0.495-0.406,0.577-1.136,0.169-1.643
								c-0.406-0.497-1.146-0.572-1.643-0.165C113.435,103.057,113.355,103.789,113.766,104.294z"/>
							<path fill="#88CA90" d="M107.231,109.625c0.409,0.501,1.137,0.57,1.637,0.159c0.497-0.401,0.576-1.137,0.168-1.64
								c-0.402-0.501-1.14-0.568-1.639-0.165C106.898,108.389,106.824,109.12,107.231,109.625"/>
							<path fill="#88CA90" d="M107.231,109.625c0.409,0.501,1.137,0.57,1.637,0.159c0.497-0.401,0.576-1.137,0.168-1.64
								c-0.402-0.501-1.14-0.568-1.639-0.165C106.898,108.389,106.824,109.12,107.231,109.625z"/>
							<path fill="#88CA90" d="M100.7,114.947c0.408,0.507,1.138,0.577,1.636,0.167c0.496-0.401,0.576-1.14,0.167-1.64
								c-0.403-0.502-1.14-0.573-1.639-0.168C100.368,113.715,100.289,114.452,100.7,114.947"/>
							<path fill="#88CA90" d="M100.7,114.947c0.408,0.507,1.138,0.577,1.636,0.167c0.496-0.401,0.576-1.14,0.167-1.64
								c-0.403-0.502-1.14-0.573-1.639-0.168C100.368,113.715,100.289,114.452,100.7,114.947z"/>
							<path fill="#88CA90" d="M94.166,120.277c0.409,0.509,1.136,0.58,1.643,0.171c0.489-0.407,0.569-1.14,0.16-1.644
								c-0.401-0.5-1.143-0.571-1.64-0.165C93.83,119.047,93.762,119.785,94.166,120.277"/>
							<path fill="#88CA90" d="M94.166,120.277c0.409,0.509,1.136,0.58,1.643,0.171c0.489-0.407,0.569-1.14,0.16-1.644
								c-0.401-0.5-1.143-0.571-1.64-0.165C93.83,119.047,93.762,119.785,94.166,120.277z"/>
							<path fill="#88CA90" d="M87.634,125.606c0.409,0.507,1.137,0.578,1.642,0.17c0.491-0.408,0.57-1.137,0.161-1.639
								c-0.402-0.504-1.141-0.572-1.639-0.171C87.302,124.373,87.233,125.109,87.634,125.606"/>
							<path fill="#88CA90" d="M87.634,125.606c0.409,0.507,1.137,0.578,1.642,0.17c0.491-0.408,0.57-1.137,0.161-1.639
								c-0.402-0.504-1.141-0.572-1.639-0.171C87.302,124.373,87.233,125.109,87.634,125.606z"/>
						</g>
					</g>
				</g>
				<polygon fill="none" stroke="#58595B" stroke-width="1.5755" stroke-miterlimit="10" points="49.61,28.263 46.459,19.717 
					26.045,36.227 33.672,41.3 95.249,117.396 98.401,125.944 118.815,109.434 111.188,104.358 				"/>
			</g>
		</g>
	</g>
</g>
<rect x="12.684" y="11.669" fill="none" width="114.325" height="121.639"/>
<g>
	<g>
		<path fill="none" stroke="#4F5877" stroke-width="0.7816" stroke-miterlimit="10" d="M138.682,42.652l0.166-5.424
			c-2.37,0-4.358-1.536-5.084-3.66v-3.485c0.726-2.122,2.714-3.658,5.084-3.658l-0.057-4.616c-2.3,0-4.249-1.443-5.027-3.47v-3.856
			c0.778-2.03,2.728-3.476,5.027-3.476l0.053-4.711h-5.08V0.819l-5.61,0.052c0,2.984-2.337,5.403-5.22,5.403
			c-2.881,0-5.214-2.418-5.214-5.403l-4.457-0.054c0,2.984-2.331,5.404-5.214,5.404s-5.218-2.42-5.218-5.404l-5.235-0.22
			C97.596,3.58,95.257,6,92.379,6c-2.883,0-5.22-2.42-5.22-5.403l-4.452,0.11c0,2.982-2.333,5.402-5.215,5.402
			c-2.885,0-5.218-2.42-5.218-5.402L66.356,0.76c0,2.986-2.336,5.404-5.218,5.404c-2.881,0-5.216-2.418-5.216-5.404L51.47,0.654
			c0,2.985-2.336,5.401-5.216,5.401c-2.881,0-5.218-2.417-5.218-5.401L35.8,0.489c0,2.984-2.336,5.402-5.221,5.402
			c-2.877,0-5.212-2.418-5.212-5.402L20.91,0.544c0,2.983-2.333,5.405-5.215,5.405c-2.88,0-5.216-2.422-5.216-5.405l-4.55-0.054
			v5.805h-5.08l0.055,4.711c2.298,0,4.248,1.446,5.025,3.472v3.86c-0.778,2.027-2.728,3.47-5.025,3.47l-0.057,4.616
			c2.368,0,4.355,1.536,5.082,3.656v3.488c-0.727,2.124-2.714,3.659-5.082,3.659l0.166,5.424c2.195,0,4.074,1.315,4.917,3.201v4.405
			c-0.843,1.882-2.722,3.199-4.917,3.199l0.107,4.611c2.113,0,3.924,1.227,4.809,2.999v4.807c-0.885,1.772-2.696,3-4.809,3
			l-0.055,6.129c2.155,0,4,1.272,4.864,3.102v4.602c-0.864,1.828-2.709,3.101-4.864,3.101l-0.109,4.61
			c2.235,0,4.155,1.366,4.973,3.31v4.19c-0.817,1.942-2.737,3.309-4.973,3.309l0.219,5.422c2.072,0,3.849,1.181,4.753,2.896v5.012
			c-0.904,1.716-2.682,2.896-4.753,2.896l0.054,4.614c2.031,0,3.779,1.136,4.699,2.796v5.208c-0.92,1.661-2.668,2.801-4.699,2.801
			l-0.053,5.811h4.752v5.807l4.55-0.055c0-2.984,2.336-5.405,5.216-5.405c2.882,0,5.215,2.421,5.215,5.405l4.457,0.055
			c0-2.983,2.335-5.401,5.212-5.401c2.885,0,5.221,2.418,5.221,5.401l5.236-0.164c0-2.984,2.337-5.402,5.218-5.402
			c2.88,0,5.216,2.418,5.216,5.402l4.453-0.107c0-2.984,2.335-5.404,5.216-5.404c2.882,0,5.218,2.42,5.218,5.404l5.918,0.055
			c0-2.984,2.333-5.402,5.218-5.402c2.882,0,5.215,2.418,5.215,5.402l4.452,0.109c0-2.982,2.337-5.402,5.22-5.402
			c2.878,0,5.217,2.42,5.217,5.402l5.235-0.221c0-2.984,2.335-5.404,5.218-5.404s5.214,2.42,5.214,5.404l4.457-0.054
			c0-2.983,2.333-5.403,5.214-5.403c2.883,0,5.22,2.42,5.22,5.403l5.61,0.054v-5.479h4.754l-0.055-5.811
			c-2.03,0-3.779-1.14-4.699-2.803v-5.205c0.92-1.661,2.669-2.797,4.699-2.797l0.055-4.614c-2.071,0-3.85-1.183-4.754-2.896v-5.012
			c0.904-1.714,2.683-2.896,4.754-2.896l0.221-5.422c-2.237,0-4.157-1.366-4.975-3.311v-4.186c0.817-1.946,2.737-3.312,4.975-3.312
			l-0.111-4.61c-2.153,0-3.999-1.272-4.863-3.101v-4.601c0.864-1.83,2.71-3.103,4.863-3.103l-0.053-6.129
			c-2.114,0-3.925-1.229-4.811-3.001v-4.803c0.886-1.772,2.696-3.001,4.811-3.001l0.107-4.611c-2.196,0-4.075-1.317-4.918-3.201
			v-4.403C134.606,43.97,136.485,42.652,138.682,42.652z"/>
		
			<rect x="12.684" y="11.669" fill="none" stroke="#4F5877" stroke-width="1.5633" stroke-miterlimit="10" width="114.325" height="121.639"/>
	</g>
</g>
<g>
	<ellipse fill="#58595B" cx="103.709" cy="32.673" rx="19.021" ry="19.048"/>
</g>
<g>
	<path fill="#FFFFFF" d="M90.724,36.377c0.404,1.448,2.378,1.995,3.682,2.118c0.176,0.018,0.368,0.034,0.546,0.034v-5.044
		c-2.272-0.195-4.527-0.476-4.527-2.822c0-1.711,1.691-2.576,3.153-2.875c0.458-0.105,0.897-0.158,1.374-0.158v-1.023
		c0-0.353,0.493-0.353,0.493,0v1.023c1.638,0.07,3.734,0.528,4.351,2.203c0.157,0.442-0.388,0.532-0.511,0.213
		c-0.528-1.516-2.378-1.833-3.84-1.871v4.834c2.36,0.193,4.756,0.405,4.756,2.752c0,2.503-2.678,3.246-4.756,3.298v1.04
		c0,0.317-0.493,0.317-0.493,0v-1.058c-1.779-0.053-4.228-0.617-4.756-2.504C90.089,36.167,90.6,36.006,90.724,36.377z
		 M94.951,28.174c-0.106,0-0.213,0-0.317,0c-1.252,0.089-3.065,0.583-3.522,1.924c-0.071,0.194-0.107,0.387-0.107,0.599
		c0,1.799,1.885,2.063,3.947,2.258V28.174z M95.444,38.529c1.708-0.034,4.174-0.67,4.174-2.751c0-1.87-2.026-2.082-4.174-2.259
		V38.529z"/>
	<path fill="#FFFFFF" d="M106.438,25.325c0.105-0.147,0.316-0.233,0.485-0.17c0.213,0.064,0.317,0.233,0.317,0.404v13.25
		c0,0.485-0.677,0.485-0.677,0V26.192l-2.874,4.002c-0.296,0.423-0.846,0.042-0.55-0.362L106.438,25.325z"/>
	<g>
		<path fill="#FFFFFF" d="M117.685,25.418c0-0.176,0.132-0.33,0.329-0.33c0.176,0,0.33,0.154,0.33,0.33v13.39
			c0,0.483-0.659,0.483-0.659,0.021v-3.035h-8.342c-0.572,0-0.812-0.417-0.506-0.902l5.729-9.76c0.242-0.396,0.835-0.09,0.593,0.351
			l-5.752,9.652h8.277V25.418z"/>
	</g>
</g>
<g>
	<path fill="#4F5877" d="M48.928,104.142l1.406-0.064h5.031c0.384,0,0.384,0.498,0,0.498h-6.757c-0.127,0-0.255-0.098-0.303-0.226
		c-0.032-0.128,0.016-0.272,0.127-0.352c1.693-1.248,3.418-2.495,5.095-3.743c1.006-0.736,1.534-1.728,1.357-2.976
		c-0.208-1.6-1.421-2.383-2.955-2.383c-1.565,0-2.763,0.769-2.987,2.383c-0.016,0.129-0.032,0.289-0.032,0.433
		c0,0.271-0.479,0.256-0.479,0c0-0.176,0.016-0.353,0.032-0.512c0.272-1.889,1.677-2.831,3.482-2.831
		c1.741,0,3.194,0.975,3.45,2.831c0.224,1.392-0.367,2.543-1.517,3.391l-3.786,2.814L48.928,104.142z"/>
	<path fill="#4F5877" d="M63.428,94.593c0-0.128,0.095-0.24,0.239-0.24c0.128,0,0.24,0.112,0.24,0.24v9.741
		c0,0.351-0.479,0.351-0.479,0.016v-2.207h-6.07c-0.416,0-0.591-0.304-0.368-0.656l4.169-7.102c0.176-0.288,0.607-0.064,0.432,0.256
		l-4.185,7.022h6.022V94.593z"/>
	<path fill="#4F5877" d="M25.02,119.432c0.415,0,0.415,0.512,0,0.512H22.8v4.911c0,1.151,0.192,2.335,1.677,2.335
		c0.304,0,0.735-0.112,0.958-0.24c0.336-0.16,0.639,0.256,0.208,0.48c-0.399,0.208-0.766,0.271-1.166,0.271
		c-1.789,0-2.22-1.358-2.22-2.847v-4.911h-1.486c-0.431,0-0.431-0.512,0-0.512h1.486v-2.048c0-0.351,0.543-0.335,0.543,0v2.048
		H25.02z"/>
	<path fill="#4F5877" d="M30.912,119.319c0.687,0.017,1.341,0.177,1.917,0.512c0.527,0.353,0.926,0.85,1.166,1.487v-1.614
		c0-0.176,0.096-0.288,0.271-0.288c0.175,0,0.288,0.112,0.288,0.288v7.661c0,0.176-0.112,0.288-0.288,0.288
		c-0.176,0-0.271-0.112-0.271-0.288v-1.616c-0.24,0.641-0.639,1.136-1.166,1.488c-1.006,0.592-2.284,0.736-3.499,0.241
		c-1.725-0.706-2.587-2.288-2.54-4.16c0.048-1.615,0.911-3.104,2.428-3.694C29.746,119.4,30.305,119.304,30.912,119.319z
		 M33.995,124.229v-1.393c-0.063-1.166-0.607-2.126-1.662-2.637c-0.463-0.209-0.926-0.305-1.421-0.32
		c-1.358-0.016-2.732,0.703-3.274,2.031c-0.176,0.416-0.272,0.926-0.288,1.392c-0.048,1.231,0.367,2.366,1.405,3.199
		c0.559,0.431,1.246,0.671,1.964,0.719c0.56,0.017,1.087-0.111,1.613-0.352C33.388,126.357,33.931,125.397,33.995,124.229z"/>
	<path fill="#4F5877" d="M51.497,122.822c-0.032-1.967-1.901-3.263-3.865-2.768c-1.629,0.417-2.748,1.968-2.748,3.647v3.695
		c0,0.176-0.111,0.288-0.287,0.288s-0.288-0.112-0.288-0.288v-4.287c0-1.071-0.447-2.143-1.357-2.703
		c-0.719-0.433-1.646-0.561-2.46-0.353c-1.629,0.417-2.779,1.968-2.779,3.647v3.695c0,0.384-0.559,0.384-0.559,0v-7.726
		c0-0.144,0.127-0.271,0.271-0.271c0.176,0,0.287,0.128,0.287,0.271v2.367c0.4-1.423,1.502-2.224,2.636-2.527
		c0.958-0.24,2.044-0.096,2.892,0.415c0.703,0.433,1.31,1.072,1.501,2.353c0.447-1.663,1.486-2.448,2.748-2.768
		c2.029-0.512,4.568,0.735,4.568,3.263v4.623c0,0.176-0.112,0.288-0.288,0.288c-0.176,0-0.271-0.112-0.271-0.288V122.822z"/>
	<path fill="#4F5877" d="M58.262,127.749c-1.326-0.031-2.556-0.672-3.083-1.92v4.623c0,0.177-0.095,0.288-0.271,0.288
		c-0.175,0-0.287-0.111-0.287-0.288v-10.78c0-0.176,0.112-0.288,0.287-0.288c0.176,0,0.271,0.112,0.271,0.288v1.583
		c0.24-0.639,0.639-1.071,1.166-1.424c1.007-0.592,2.284-0.735,3.499-0.239c1.725,0.703,2.587,2.287,2.54,4.159
		c-0.048,1.614-0.911,3.102-2.428,3.694C59.428,127.668,58.869,127.766,58.262,127.749z M55.179,122.837v1.393
		c0.112,1.648,1.294,2.896,3.083,2.96c1.358,0.016,2.731-0.704,3.274-2.031c0.176-0.416,0.272-0.929,0.288-1.392
		c0.048-1.231-0.368-2.368-1.405-3.199c-0.56-0.433-1.246-0.672-1.965-0.721c-0.56-0.016-1.086,0.112-1.613,0.354
		C55.787,120.711,55.244,121.671,55.179,122.837z"/>
	<path fill="#4F5877" d="M64.951,126.263c-0.703-0.85-1.022-1.856-0.958-3.057c0.144-1.71,1.198-3.279,2.923-3.757
		c0.734-0.193,1.613-0.21,2.412,0c1.725,0.478,2.795,2.047,2.939,3.757c0.064,1.2-0.256,2.207-0.959,3.057
		c-0.781,0.927-1.917,1.423-3.178,1.423S65.733,127.189,64.951,126.263z M67.107,119.991c-2.476,0.656-3.339,3.967-1.709,5.918
		c0.655,0.784,1.661,1.231,2.731,1.231c1.086,0,2.108-0.447,2.763-1.231c1.629-1.951,0.734-5.262-1.741-5.918
		C68.513,119.831,67.762,119.815,67.107,119.991z"/>
	<path fill="#4F5877" d="M81.526,122.822c0-2.079-1.933-3.391-3.817-2.896c-1.645,0.416-2.747,1.968-2.796,3.647v3.823
		c0,0.176-0.096,0.288-0.271,0.288c-0.176,0-0.288-0.112-0.288-0.288v-7.726c0-0.144,0.112-0.271,0.288-0.271
		c0.175,0,0.271,0.111,0.271,0.287v2.207c0.368-1.343,1.47-2.19,2.62-2.494c2.124-0.545,4.553,0.719,4.553,3.422v4.575
		c0,0.176-0.096,0.288-0.271,0.288s-0.288-0.112-0.288-0.288V122.822z"/>
	<path fill="#4F5877" d="M84.462,125.718c0.207,0.991,1.725,1.455,3.13,1.455c0.959,0,3.003-0.4,3.003-1.855
		c0-2.814-6.549-0.239-6.549-3.694c0-1.536,1.9-2.335,3.386-2.335c1.215,0,2.908,0.208,3.451,1.631
		c0.111,0.448-0.416,0.544-0.527,0.209c-0.447-1.201-2.045-1.312-2.924-1.312c-1.149,0-2.843,0.496-2.843,1.808
		c0,2.703,6.565,0.209,6.565,3.694c0,1.92-2.269,2.368-3.562,2.368c-1.31,0-3.338-0.32-3.641-1.872
		C83.822,125.397,84.413,125.286,84.462,125.718z"/>
</g>
</svg>
