<?xml version="1.0" encoding="utf-8"?>
<!-- Generator: Adobe Illustrator 15.1.0, SVG Export Plug-In . SVG Version: 6.00 Build 0)  -->
<!DOCTYPE svg PUBLIC "-//W3C//DTD SVG 1.1//EN" "http://www.w3.org/Graphics/SVG/1.1/DTD/svg11.dtd">
<svg version="1.1" id="Capa_1" xmlns="http://www.w3.org/2000/svg" xmlns:xlink="http://www.w3.org/1999/xlink" x="0px" y="0px"
	 width="139px" height="145px" viewBox="0 0 139 145" enable-background="new 0 0 139 145" xml:space="preserve">
<g>
	<g>
		<g>
			<defs>
				<rect id="SVGID_1_" x="12.213" y="10.998" width="115.155" height="122.486"/>
			</defs>
			<clipPath id="SVGID_2_">
				<use xlink:href="#SVGID_1_"  overflow="visible"/>
			</clipPath>
		</g>
		<g>
			<g>
				<path fill="none" stroke="#4F5877" stroke-width="1.0057" stroke-miterlimit="10" d="M139.124,42.195l0.167-5.46
					c-2.387,0-4.389-1.546-5.12-3.687V29.54c0.731-2.137,2.733-3.683,5.12-3.683l-0.058-4.648c-2.314,0-4.279-1.454-5.062-3.496
					v-3.881c0.783-2.044,2.748-3.5,5.062-3.5l0.056-4.744h-5.118V0.072l-5.652,0.053c0,3.004-2.354,5.44-5.257,5.44
					c-2.9,0-5.25-2.436-5.25-5.44l-4.49-0.055c0,3.005-2.349,5.441-5.253,5.441c-2.901,0-5.253-2.436-5.253-5.441L97.74-0.152
					c0,3.004-2.354,5.441-5.255,5.441c-2.902,0-5.258-2.437-5.258-5.441L82.744-0.04c0,3.003-2.35,5.439-5.253,5.439
					c-2.904,0-5.255-2.436-5.255-5.439l-5.961,0.053c0,3.007-2.352,5.442-5.255,5.442c-2.902,0-5.255-2.435-5.255-5.442L51.28-0.094
					c0,3.006-2.352,5.439-5.255,5.439c-2.9,0-5.255-2.433-5.255-5.439L35.497-0.26c0,3.005-2.353,5.44-5.258,5.44
					c-2.898,0-5.25-2.435-5.25-5.44l-4.49,0.055c0,3.005-2.35,5.442-5.252,5.442c-2.901,0-5.255-2.437-5.255-5.442L5.409-0.259
					v5.846H0.292l0.055,4.744c2.314,0,4.279,1.457,5.062,3.497v3.886c-0.783,2.041-2.748,3.495-5.062,3.495l-0.056,4.648
					c2.384,0,4.386,1.546,5.118,3.681v3.511c-0.732,2.139-2.734,3.686-5.118,3.686l0.166,5.46c2.211,0,4.104,1.327,4.953,3.223
					v4.438c-0.849,1.895-2.741,3.221-4.953,3.221l0.108,4.643c2.129,0,3.954,1.235,4.845,3.02v4.84
					c-0.891,1.784-2.716,3.021-4.845,3.021l-0.054,6.172c2.17,0,4.027,1.28,4.898,3.122v4.634c-0.871,1.842-2.729,3.123-4.898,3.123
					L0.4,90.294c2.252,0,4.185,1.375,5.009,3.331v4.221c-0.824,1.956-2.757,3.332-5.009,3.332l0.221,5.459
					c2.087,0,3.877,1.189,4.788,2.917v5.047c-0.911,1.727-2.701,2.916-4.788,2.916l0.055,4.646c2.045,0,3.806,1.144,4.733,2.816
					v5.242c-0.927,1.673-2.688,2.819-4.733,2.819l-0.053,5.853h4.786v5.847l4.583-0.055c0-3.005,2.354-5.442,5.255-5.442
					c2.903,0,5.252,2.438,5.252,5.442l4.49,0.055c0-3.004,2.352-5.439,5.25-5.439c2.905,0,5.258,2.436,5.258,5.439l5.273-0.165
					c0-3.007,2.355-5.44,5.255-5.44c2.903,0,5.255,2.434,5.255,5.44l4.484-0.108c0-3.005,2.353-5.441,5.255-5.441
					c2.903,0,5.255,2.437,5.255,5.441l5.961,0.054c0-3.003,2.351-5.439,5.255-5.439c2.903,0,5.253,2.437,5.253,5.439l4.483,0.111
					c0-3.004,2.355-5.439,5.258-5.439c2.901,0,5.255,2.436,5.255,5.439l5.275-0.221c0-3.006,2.352-5.443,5.253-5.443
					c2.904,0,5.253,2.438,5.253,5.443l4.49-0.056c0-3.004,2.35-5.44,5.25-5.44c2.903,0,5.257,2.437,5.257,5.44l5.652,0.053v-5.515
					h4.788l-0.054-5.853c-2.047,0-3.806-1.146-4.734-2.82v-5.241c0.929-1.673,2.688-2.816,4.734-2.816l0.056-4.646
					c-2.087,0-3.879-1.19-4.79-2.917v-5.046c0.911-1.727,2.703-2.917,4.79-2.917l0.221-5.459c-2.255,0-4.188-1.376-5.011-3.335
					v-4.215c0.823-1.959,2.756-3.334,5.011-3.334l-0.11-4.643c-2.171,0-4.028-1.281-4.9-3.123v-4.632
					c0.872-1.844,2.729-3.124,4.9-3.124l-0.056-6.172c-2.128,0-3.953-1.237-4.845-3.022v-4.837c0.892-1.785,2.717-3.021,4.845-3.021
					l0.108-4.643c-2.213,0-4.105-1.327-4.953-3.223V45.42C135.019,43.523,136.911,42.195,139.124,42.195z"/>
				
					<rect x="12.213" y="10.998" fill="#B6ACF3" stroke="#4F5877" stroke-width="2.0114" stroke-miterlimit="10" width="115.155" height="122.486"/>
			</g>
		</g>
	</g>
	<g>
		<g>
			<g>
				<path fill-rule="evenodd" clip-rule="evenodd" fill="#FFFFFF" d="M15.818,69.644c0.495-0.364,1.028-0.642,1.65-0.702
					c0.096-0.01,0.188-0.022,0.28-0.018c0.242,0.01,0.363,0.096,0.408,0.328c0.037,0.2,0.047,0.408,0.054,0.605
					c0.002,0.448,0,0.886,0,1.331c0,0.09,0.005,0.177,0.07,0.294c0.007-0.025,0.015-0.047,0.026-0.07
					c0.512-1.307,1.475-2.149,2.775-2.594c1.716-0.598,3.432-0.517,5.063,0.294c1.39,0.684,2.096,1.859,2.231,3.392
					c0.034,0.419,0.038,0.846,0.038,1.268c0.009,2.379,0.009,4.758,0.015,7.14c0,0.352,0,0.357-0.369,0.352
					c-0.451,0-0.904,0.006-1.353,0c-0.276,0-0.276,0-0.276-0.271c0.011-1.801,0.031-3.601,0.031-5.399c0-0.769,0-1.528-0.037-2.292
					c-0.037-0.781-0.182-1.535-0.496-2.256c-0.549-1.255-1.533-1.864-2.874-1.953c-2.296-0.151-3.725,1.397-4.292,3.052
					c-0.236,0.66-0.35,1.339-0.346,2.034c0.009,2.253,0.009,4.502,0.009,6.751c0,0.334,0,0.334-0.327,0.334
					c-0.43,0.006-0.853,0-1.276,0.006c-0.171,0.007-0.242-0.064-0.228-0.229c0.004-0.079,0-0.161,0-0.245
					c0-2.954,0.011-5.903-0.005-8.858c0-0.433-0.05-0.88-0.138-1.309c-0.063-0.35-0.236-0.666-0.634-0.767V69.644z"/>
			</g>
			<g>
				<g>
					<path fill-rule="evenodd" clip-rule="evenodd" fill="#FFFFFF" d="M43.411,81.298c-0.108,0.015-0.188,0.026-0.266,0.026
						c-0.488,0.008-0.978,0.008-1.46,0.008c-0.324,0-0.366-0.011-0.436-0.313c-0.163-0.68-0.297-1.368-0.454-2.056
						c-0.016,0.029-0.062,0.081-0.093,0.139c-0.845,1.505-2.173,2.251-3.849,2.45c-1.315,0.149-2.595,0.043-3.811-0.507
						c-0.866-0.384-1.593-0.936-2.021-1.799c-0.646-1.291-0.453-3.021,1.015-4.089c0.862-0.625,1.834-0.969,2.855-1.196
						c1.183-0.268,2.378-0.398,3.589-0.396c0.637,0,1.273-0.003,1.908,0.004c0.175,0.003,0.243-0.045,0.234-0.231
						c-0.021-0.634-0.066-1.265-0.229-1.888c-0.336-1.254-1.127-2.025-2.408-2.26c-1.404-0.255-2.736-0.072-3.949,0.712
						c-0.719,0.465-1.282,1.054-1.481,1.921c-0.057,0.238-0.164,0.262-0.342,0.081c-0.448-0.505-0.672-1.09-0.583-1.758
						c0.025-0.174,0.173-0.366,0.318-0.494c0.167-0.142,0.383-0.254,0.594-0.332c1.01-0.4,2.035-0.721,3.119-0.817
						c1.474-0.132,2.941-0.086,4.348,0.462c1.558,0.606,2.403,1.784,2.508,3.432c0.084,1.377,0.042,2.761,0.066,4.144
						c0.006,0.685-0.005,1.372,0.059,2.046c0.09,0.9,0.306,1.781,0.735,2.591C43.387,81.201,43.391,81.229,43.411,81.298
						 M40.632,75.128c0-0.209-0.009-0.453,0-0.687c0.017-0.192-0.05-0.26-0.247-0.257c-0.678,0.008-1.36-0.015-2.039,0.008
						c-1.016,0.039-2.026,0.135-2.985,0.492c-0.635,0.225-1.209,0.545-1.655,1.063c-0.538,0.639-0.724,1.392-0.693,2.213
						c0.043,1.154,0.554,2.026,1.576,2.575c0.77,0.4,1.587,0.5,2.444,0.422c0.686-0.063,1.338-0.233,1.907-0.645
						c0.736-0.523,1.127-1.271,1.366-2.12C40.582,77.197,40.61,76.179,40.632,75.128"/>
				</g>
			</g>
			<g>
				<g>
					<path fill-rule="evenodd" clip-rule="evenodd" fill="#FFFFFF" d="M73.754,81.298c-0.107,0.009-0.188,0.026-0.267,0.026
						c-0.499,0.005-0.994,0.005-1.492,0.005c-0.31,0-0.356-0.017-0.422-0.318c-0.135-0.571-0.243-1.155-0.362-1.73
						c-0.021-0.106-0.03-0.215-0.05-0.341c-0.04,0.032-0.071,0.044-0.078,0.062c-0.805,1.507-2.09,2.297-3.738,2.529
						c-1.319,0.185-2.613,0.095-3.853-0.429c-0.679-0.288-1.297-0.676-1.756-1.254c-1.168-1.444-0.943-3.459,0.521-4.603
						c0.871-0.69,1.895-1.044,2.96-1.284c1.254-0.283,2.527-0.408,3.817-0.396c0.558,0.007,1.12-0.003,1.678,0
						c0.143,0.004,0.231-0.017,0.231-0.191c0-0.802-0.078-1.6-0.371-2.358c-0.396-1.042-1.172-1.625-2.252-1.822
						c-1.479-0.274-2.867-0.063-4.112,0.812c-0.646,0.454-1.136,1.016-1.324,1.808c-0.06,0.253-0.157,0.275-0.332,0.09
						c-0.449-0.485-0.67-1.063-0.613-1.72c0.02-0.171,0.146-0.369,0.281-0.484c0.194-0.162,0.426-0.29,0.664-0.382
						c1.274-0.509,2.585-0.855,3.97-0.868c1.294-0.013,2.559,0.083,3.756,0.627c1.307,0.612,2.012,1.656,2.206,3.059
						c0.054,0.32,0.066,0.645,0.066,0.964c0.008,1.597-0.013,3.198,0.019,4.792c0.021,1.017,0.243,2.006,0.642,2.956
						C73.598,80.99,73.668,81.121,73.754,81.298 M69.573,74.188c0,0,0-0.015-0.005-0.022c-0.595,0.026-1.178,0.035-1.765,0.083
						c-0.849,0.07-1.683,0.224-2.464,0.566c-1.171,0.519-1.889,1.376-2.003,2.688c-0.102,1.298,0.426,2.55,1.794,3.129
						c1.11,0.474,2.239,0.464,3.367,0.077c0.758-0.251,1.333-0.751,1.697-1.455c0.198-0.361,0.349-0.754,0.453-1.154
						c0.338-1.226,0.301-2.483,0.291-3.735c0-0.155-0.083-0.179-0.206-0.176H69.573z"/>
				</g>
			</g>
			<g>
				<g>
					<path fill-rule="evenodd" clip-rule="evenodd" fill="#FFFFFF" d="M101.272,81.307h-0.735c-0.322,0-0.639,0.006-0.964,0.006
						c-0.302,0-0.37-0.028-0.435-0.318c-0.137-0.63-0.254-1.264-0.375-1.895c-0.015-0.056-0.021-0.111-0.038-0.196
						c-0.056,0.049-0.107,0.074-0.126,0.113c-0.913,1.654-2.373,2.388-4.198,2.539c-1.137,0.095-2.227-0.038-3.278-0.45
						c-0.771-0.303-1.443-0.745-1.938-1.425c-0.92-1.254-0.882-3.252,0.634-4.422c0.808-0.623,1.739-0.968,2.705-1.212
						c0.937-0.234,1.898-0.382,2.867-0.414c0.937-0.03,1.878-0.036,2.816-0.05c0.315-0.007,0.335-0.011,0.321-0.33
						c-0.037-0.681-0.088-1.357-0.292-2.013c-0.361-1.12-1.105-1.822-2.251-2.05c-1.486-0.293-2.905-0.124-4.182,0.751
						c-0.669,0.456-1.196,1.032-1.394,1.849c-0.063,0.246-0.129,0.258-0.31,0.071c-0.451-0.485-0.645-1.065-0.577-1.724
						c0.024-0.227,0.161-0.409,0.357-0.501c0.409-0.201,0.816-0.388,1.241-0.542c1.42-0.523,2.892-0.698,4.401-0.598
						c0.832,0.063,1.664,0.203,2.445,0.528c1.401,0.587,2.17,1.658,2.375,3.146c0.048,0.312,0.061,0.639,0.061,0.963
						c0.011,1.487-0.003,2.967,0.011,4.455c0.004,1.075,0.199,2.128,0.595,3.129C101.073,80.895,101.164,81.066,101.272,81.307
						 M96.998,74.17L96.998,74.17c-0.217,0-0.443,0-0.661,0c-1.08,0.016-2.15,0.129-3.179,0.505
						c-1.291,0.482-2.165,1.347-2.287,2.791c-0.104,1.186,0.243,2.188,1.263,2.895c0.758,0.533,1.636,0.663,2.541,0.644
						c1.76-0.046,2.979-0.968,3.487-2.655c0.387-1.304,0.373-2.638,0.367-3.974c0-0.16-0.088-0.205-0.229-0.205
						C97.872,74.174,97.435,74.17,96.998,74.17"/>
				</g>
			</g>
			<g>
				<g>
					<path fill-rule="evenodd" clip-rule="evenodd" fill="#FFFFFF" d="M118.15,73.347h-4.7c-0.369,0-0.381,0-0.428,0.378
						c-0.167,1.239-0.044,2.462,0.297,3.665c0.223,0.819,0.607,1.562,1.19,2.186c0.748,0.785,1.694,1.178,2.744,1.292
						c1.11,0.123,2.195,0.003,3.19-0.546c1.494-0.824,2.515-2.042,3.062-3.665c0.029-0.076,0.047-0.174,0.106-0.215
						c0.062-0.059,0.171-0.103,0.241-0.076c0.061,0.018,0.133,0.135,0.133,0.202c-0.018,0.173-0.051,0.351-0.1,0.512
						c-0.631,1.977-1.959,3.278-3.875,4.002c-1.045,0.396-2.144,0.57-3.256,0.497c-2.006-0.127-3.622-1.025-4.805-2.669
						c-0.771-1.071-1.166-2.282-1.265-3.605c-0.216-2.922,1.741-5.703,4.57-6.513c2.193-0.628,4.315-0.387,6.265,0.856
						c1.117,0.71,1.84,1.73,2.123,3.049c0.091,0.429,0.03,0.554-0.414,0.612c-0.233,0.029-0.477,0.038-0.715,0.038
						C121.062,73.348,119.604,73.347,118.15,73.347 M117.202,72.759h3.57c0.146,0,0.294,0,0.438-0.032
						c0.174-0.036,0.278-0.147,0.253-0.338c-0.153-1.425-0.848-2.455-2.183-3.013c-0.828-0.344-1.684-0.364-2.562-0.264
						c-0.67,0.077-1.306,0.297-1.859,0.708c-0.901,0.663-1.36,1.597-1.651,2.646c-0.073,0.275-0.057,0.291,0.235,0.291H117.202z"/>
				</g>
			</g>
			<g>
				<path fill-rule="evenodd" clip-rule="evenodd" fill="#FFFFFF" d="M81.886,68.429c1.557,0.043,3.041,0.364,4.479,0.922
					c0.243,0.097,0.488,0.232,0.679,0.412c0.128,0.124,0.228,0.349,0.228,0.533c0.017,0.568-0.166,1.081-0.539,1.525
					c-0.044,0.049-0.093,0.092-0.15,0.125c-0.088,0.071-0.147,0.037-0.185-0.064c-0.007-0.022-0.013-0.048-0.021-0.08
					c-0.201-0.831-0.71-1.423-1.425-1.857c-1.315-0.793-2.746-1.057-4.252-0.776c-1.483,0.279-2.438,1.21-3.002,2.579
					c-0.318,0.765-0.462,1.572-0.529,2.396c-0.089,0.987-0.065,1.968,0.179,2.934c0.297,1.183,0.838,2.229,1.813,2.993
					c0.748,0.586,1.599,0.872,2.53,0.924c1.855,0.096,3.34-0.688,4.553-2.033c0.273-0.306,0.499-0.659,0.76-0.981
					c0.059-0.077,0.169-0.115,0.251-0.169c0.054,0.104,0.124,0.205,0.141,0.311c0.015,0.07-0.032,0.17-0.079,0.23
					c-0.96,1.463-2.188,2.604-3.937,3.016c-2.306,0.541-4.43,0.132-6.292-1.382c-1.157-0.939-1.869-2.172-2.124-3.643
					c-0.292-1.695-0.062-3.311,0.854-4.792c0.988-1.593,2.459-2.511,4.265-2.892C80.672,68.538,81.289,68.502,81.886,68.429"/>
			</g>
			<g>
				<path fill-rule="evenodd" clip-rule="evenodd" fill="#FFFFFF" d="M52.732,69.453c0.08-0.087,0.13-0.162,0.202-0.215
					c0.522-0.404,1.121-0.631,1.784-0.646c0.271-0.01,0.385,0.076,0.411,0.336c0.039,0.267,0.05,0.534,0.051,0.8
					c0.009,0.68,0.007,1.366,0.041,2.062c0.039-0.049,0.074-0.104,0.107-0.167c0.35-0.674,0.781-1.306,1.347-1.841
					c0.878-0.855,1.949-1.288,3.168-1.394c0.302-0.027,0.46,0.114,0.427,0.418c-0.059,0.623-0.265,1.201-0.611,1.726
					c-0.094,0.138-0.191,0.172-0.346,0.073c-1.04-0.685-2.095-0.483-2.83,0.528c-0.45,0.616-0.688,1.323-0.852,2.056
					c-0.176,0.812-0.27,1.629-0.29,2.466c-0.008,0.858-0.028,1.714-0.021,2.572c0,0.902,0.017,1.809,0.032,2.712
					c0.002,0.328-0.011,0.352-0.332,0.352h-1.127c-0.375,0-0.375-0.004-0.375-0.368c0-3.283,0-6.566,0-9.852
					c0-0.125,0-0.26-0.021-0.386C53.433,70.173,53.28,69.711,52.732,69.453"/>
			</g>
			<g>
				<path fill-rule="evenodd" clip-rule="evenodd" fill="#FFFFFF" d="M105.666,71.861c0.107-0.191,0.206-0.387,0.313-0.575
					c0.752-1.314,1.787-2.293,3.282-2.693c0.347-0.092,0.707-0.134,1.067-0.161c0.282-0.022,0.384,0.081,0.355,0.355
					c-0.057,0.612-0.258,1.187-0.605,1.707c-0.081,0.138-0.204,0.184-0.334,0.058c-0.837-0.763-2.177-0.406-2.876,0.599
					c-0.472,0.688-0.735,1.449-0.865,2.256c-0.118,0.718-0.195,1.443-0.23,2.17c-0.052,0.963-0.045,1.935-0.045,2.903
					c0,0.808,0.022,1.621,0.036,2.433c0.007,0.332-0.009,0.348-0.336,0.348c-0.403,0.004-0.807,0-1.214,0.004
					c-0.175,0-0.253-0.067-0.244-0.246c0.003-0.093,0-0.183,0-0.278c0-3.243,0.003-6.491-0.009-9.742
					c0-0.303-0.058-0.627-0.162-0.912c-0.073-0.2-0.251-0.384-0.421-0.525c-0.148-0.126-0.14-0.196-0.009-0.298
					c0.422-0.312,0.884-0.534,1.408-0.604c0.031-0.008,0.07-0.01,0.107-0.019c0.564-0.068,0.678,0,0.695,0.581
					c0.025,0.691,0.017,1.399,0.02,2.099v0.523C105.626,71.848,105.648,71.857,105.666,71.861"/>
			</g>
			<g>
				<path fill-rule="evenodd" clip-rule="evenodd" fill="#FFFFFF" d="M46.5,75.701v-5.233c-0.003-0.317-0.003-0.319-0.316-0.319
					c-0.411,0-0.828,0.005-1.237-0.007c-0.085-0.004-0.176-0.073-0.255-0.117c0.047-0.081,0.077-0.177,0.141-0.236
					c0.085-0.079,0.188-0.125,0.286-0.177c1.367-0.739,2.358-1.803,2.772-3.343c0.005-0.019,0.009-0.033,0.021-0.055
					c0.06-0.128,0.098-0.322,0.285-0.259c0.064,0.015,0.12,0.208,0.12,0.319c0.011,0.977,0.005,1.956,0.005,2.935
					c0,0.317,0.005,0.317,0.322,0.317c0.595,0,1.197,0,1.792,0.004c0.125,0,0.304-0.053,0.299,0.18
					c-0.01,0.33-0.085,0.435-0.313,0.435c-0.602,0.005-1.211,0-1.821,0.003c-0.267,0.002-0.278,0.005-0.278,0.276
					c0,0.7,0.005,1.402,0,2.103c-0.007,2.623-0.025,5.254-0.028,7.878c0,0.226,0.013,0.446,0.028,0.664
					c0.011,0.169-0.061,0.262-0.236,0.262c-0.447-0.003-0.881-0.003-1.327,0c-0.192,0-0.261-0.079-0.261-0.27
					c0.009-0.53,0.003-1.065,0.003-1.603V75.701z"/>
			</g>
		</g>
	</g>
</g>
</svg>
