<?xml version="1.0" encoding="utf-8"?>
<!-- Generator: Adobe Illustrator 15.1.0, SVG Export Plug-In . SVG Version: 6.00 Build 0)  -->
<!DOCTYPE svg PUBLIC "-//W3C//DTD SVG 1.1//EN" "http://www.w3.org/Graphics/SVG/1.1/DTD/svg11.dtd">
<svg version="1.1" id="Capa_1" xmlns="http://www.w3.org/2000/svg" xmlns:xlink="http://www.w3.org/1999/xlink" x="0px" y="0px"
	 width="139px" height="145px" viewBox="0 0 139 145" enable-background="new 0 0 139 145" xml:space="preserve">
<g>
	<g>
		<g>
			<g>
				<defs>
					<polygon id="SVGID_1_" points="49.485,27.622 46.335,19.018 25.921,35.644 33.55,40.752 95.127,117.375 98.275,125.98 
						118.691,109.357 111.066,104.246 					"/>
				</defs>
				<clipPath id="SVGID_2_">
					<use xlink:href="#SVGID_1_"  overflow="visible"/>
				</clipPath>
				<g clip-path="url(#SVGID_2_)">
					<g>
						<path fill="#88CA90" d="M58.015,18.003c0.412,0.496,1.139,0.577,1.638,0.169c0.498-0.412,0.574-1.152,0.172-1.662
							c-0.406-0.494-1.141-0.572-1.643-0.161C57.686,16.756,57.609,17.49,58.015,18.003"/>
						<path fill="#88CA90" d="M58.015,18.003c0.412,0.496,1.139,0.577,1.638,0.169c0.498-0.412,0.574-1.152,0.172-1.662
							c-0.406-0.494-1.141-0.572-1.643-0.161C57.686,16.756,57.609,17.49,58.015,18.003z"/>
						<path fill="#88CA90" d="M51.483,23.369c0.407,0.501,1.142,0.576,1.637,0.168c0.5-0.414,0.579-1.155,0.171-1.661
							c-0.403-0.501-1.142-0.576-1.644-0.16C51.153,22.119,51.073,22.859,51.483,23.369"/>
						<path fill="#88CA90" d="M51.483,23.369c0.407,0.501,1.142,0.576,1.637,0.168c0.5-0.414,0.579-1.155,0.171-1.661
							c-0.403-0.501-1.142-0.576-1.644-0.16C51.153,22.119,51.073,22.859,51.483,23.369z"/>
						<path fill="#88CA90" d="M44.947,28.737c0.411,0.502,1.141,0.575,1.641,0.164c0.497-0.41,0.58-1.154,0.172-1.658
							c-0.404-0.504-1.145-0.573-1.647-0.165C44.617,27.484,44.539,28.233,44.947,28.737"/>
						<path fill="#88CA90" d="M44.947,28.737c0.411,0.502,1.141,0.575,1.641,0.164c0.497-0.41,0.58-1.154,0.172-1.658
							c-0.404-0.504-1.145-0.573-1.647-0.165C44.617,27.484,44.539,28.233,44.947,28.737z"/>
						<path fill="#88CA90" d="M38.414,34.1c0.409,0.503,1.143,0.582,1.642,0.169c0.499-0.413,0.576-1.147,0.167-1.655
							c-0.402-0.501-1.14-0.577-1.639-0.17C38.087,32.85,38.006,33.601,38.414,34.1"/>
						<path fill="#88CA90" d="M38.414,34.1c0.409,0.503,1.143,0.582,1.642,0.169c0.499-0.413,0.576-1.147,0.167-1.655
							c-0.402-0.501-1.14-0.577-1.639-0.17C38.087,32.85,38.006,33.601,38.414,34.1z"/>
						<path fill="#88CA90" d="M31.877,39.469c0.408,0.504,1.146,0.578,1.645,0.164c0.498-0.408,0.579-1.146,0.167-1.655
							c-0.407-0.502-1.141-0.579-1.643-0.171C31.549,38.214,31.47,38.968,31.877,39.469"/>
						<path fill="#88CA90" d="M31.877,39.469c0.408,0.504,1.146,0.578,1.645,0.164c0.498-0.408,0.579-1.146,0.167-1.655
							c-0.407-0.502-1.141-0.579-1.643-0.171C31.549,38.214,31.47,38.968,31.877,39.469z"/>
						<path fill="#88CA90" d="M25.348,44.837c0.411,0.495,1.142,0.573,1.64,0.162c0.497-0.408,0.572-1.146,0.168-1.656
							c-0.406-0.496-1.14-0.572-1.643-0.17C25.021,43.584,24.942,44.327,25.348,44.837"/>
						<path fill="#88CA90" d="M25.348,44.837c0.411,0.495,1.142,0.573,1.64,0.162c0.497-0.408,0.572-1.146,0.168-1.656
							c-0.406-0.496-1.14-0.572-1.643-0.17C25.021,43.584,24.942,44.327,25.348,44.837z"/>
						<path fill="#88CA90" d="M57.412,24.224c0.414,0.506,1.146,0.584,1.643,0.179c0.495-0.421,0.574-1.152,0.163-1.665
							c-0.404-0.499-1.139-0.573-1.639-0.16C57.081,22.983,57.006,23.724,57.412,24.224"/>
						<path fill="#88CA90" d="M57.412,24.224c0.414,0.506,1.146,0.584,1.643,0.179c0.495-0.421,0.574-1.152,0.163-1.665
							c-0.404-0.499-1.139-0.573-1.639-0.16C57.081,22.983,57.006,23.724,57.412,24.224z"/>
						<path fill="#88CA90" d="M50.877,29.592c0.414,0.51,1.146,0.581,1.645,0.177c0.503-0.419,0.575-1.153,0.164-1.664
							c-0.405-0.503-1.135-0.572-1.639-0.158C50.552,28.351,50.472,29.096,50.877,29.592"/>
						<path fill="#88CA90" d="M50.877,29.592c0.414,0.51,1.146,0.581,1.645,0.177c0.503-0.419,0.575-1.153,0.164-1.664
							c-0.405-0.503-1.135-0.572-1.639-0.158C50.552,28.351,50.472,29.096,50.877,29.592z"/>
						<path fill="#88CA90" d="M44.342,34.958c0.418,0.509,1.148,0.581,1.645,0.176c0.502-0.415,0.575-1.149,0.164-1.664
							c-0.403-0.499-1.138-0.57-1.637-0.162C44.013,33.717,43.938,34.461,44.342,34.958"/>
						<path fill="#88CA90" d="M44.342,34.958c0.418,0.509,1.148,0.581,1.645,0.176c0.502-0.415,0.575-1.149,0.164-1.664
							c-0.403-0.499-1.138-0.57-1.637-0.162C44.013,33.717,43.938,34.461,44.342,34.958z"/>
						<path fill="#88CA90" d="M37.81,40.326c0.413,0.512,1.15,0.58,1.646,0.177c0.498-0.417,0.571-1.152,0.161-1.665
							c-0.405-0.497-1.137-0.573-1.634-0.16C37.486,39.084,37.4,39.828,37.81,40.326"/>
						<path fill="#88CA90" d="M37.81,40.326c0.413,0.512,1.15,0.58,1.646,0.177c0.498-0.417,0.571-1.152,0.161-1.665
							c-0.405-0.497-1.137-0.573-1.634-0.16C37.486,39.084,37.4,39.828,37.81,40.326z"/>
						<path fill="#88CA90" d="M31.277,45.692c0.415,0.51,1.148,0.582,1.644,0.179c0.502-0.416,0.574-1.157,0.165-1.661
							c-0.412-0.51-1.14-0.577-1.639-0.171C30.948,44.455,30.872,45.194,31.277,45.692"/>
						<path fill="#88CA90" d="M31.277,45.692c0.415,0.51,1.148,0.582,1.644,0.179c0.502-0.416,0.574-1.157,0.165-1.661
							c-0.412-0.51-1.14-0.577-1.639-0.171C30.948,44.455,30.872,45.194,31.277,45.692z"/>
						<path fill="#88CA90" d="M24.744,51.059c0.412,0.508,1.146,0.576,1.644,0.176c0.496-0.42,0.576-1.156,0.166-1.661
							c-0.407-0.501-1.145-0.576-1.64-0.171C24.414,49.817,24.341,50.556,24.744,51.059"/>
						<path fill="#88CA90" d="M24.744,51.059c0.412,0.508,1.146,0.576,1.644,0.176c0.496-0.42,0.576-1.156,0.166-1.661
							c-0.407-0.501-1.145-0.576-1.64-0.171C24.414,49.817,24.341,50.556,24.744,51.059z"/>
						<path fill="#88CA90" d="M63.58,24.894c0.414,0.501,1.146,0.579,1.64,0.171c0.503-0.42,0.583-1.15,0.173-1.663
							c-0.404-0.493-1.137-0.574-1.637-0.166C63.251,23.65,63.18,24.389,63.58,24.894"/>
						<path fill="#88CA90" d="M63.58,24.894c0.414,0.501,1.146,0.579,1.64,0.171c0.503-0.42,0.583-1.15,0.173-1.663
							c-0.404-0.493-1.137-0.574-1.637-0.166C63.251,23.65,63.18,24.389,63.58,24.894z"/>
						<path fill="#88CA90" d="M57.05,30.264c0.407,0.5,1.147,0.578,1.638,0.166c0.502-0.417,0.582-1.149,0.171-1.658
							c-0.406-0.5-1.138-0.577-1.636-0.171C56.72,29.017,56.642,29.757,57.05,30.264"/>
						<path fill="#88CA90" d="M57.05,30.264c0.407,0.5,1.147,0.578,1.638,0.166c0.502-0.417,0.582-1.149,0.171-1.658
							c-0.406-0.5-1.138-0.577-1.636-0.171C56.72,29.017,56.642,29.757,57.05,30.264z"/>
						<path fill="#88CA90" d="M50.513,35.629c0.409,0.502,1.149,0.58,1.639,0.166c0.506-0.418,0.588-1.149,0.172-1.654
							c-0.404-0.503-1.137-0.578-1.637-0.171C50.184,34.381,50.105,35.128,50.513,35.629"/>
						<path fill="#88CA90" d="M50.513,35.629c0.409,0.502,1.149,0.58,1.639,0.166c0.506-0.418,0.588-1.149,0.172-1.654
							c-0.404-0.503-1.137-0.578-1.637-0.171C50.184,34.381,50.105,35.128,50.513,35.629z"/>
						<path fill="#88CA90" d="M43.98,40.997c0.411,0.503,1.141,0.579,1.643,0.164c0.501-0.415,0.574-1.147,0.167-1.651
							c-0.404-0.502-1.138-0.582-1.634-0.176C43.648,39.749,43.572,40.493,43.98,40.997"/>
						<path fill="#88CA90" d="M43.98,40.997c0.411,0.503,1.141,0.579,1.643,0.164c0.501-0.415,0.574-1.147,0.167-1.651
							c-0.404-0.502-1.138-0.582-1.634-0.176C43.648,39.749,43.572,40.493,43.98,40.997z"/>
						<path fill="#88CA90" d="M37.445,46.364c0.41,0.506,1.145,0.577,1.646,0.164c0.502-0.417,0.583-1.146,0.166-1.657
							c-0.403-0.5-1.142-0.575-1.637-0.169C37.118,45.116,37.037,45.86,37.445,46.364"/>
						<path fill="#88CA90" d="M37.445,46.364c0.41,0.506,1.145,0.577,1.646,0.164c0.502-0.417,0.583-1.146,0.166-1.657
							c-0.403-0.5-1.142-0.575-1.637-0.169C37.118,45.116,37.037,45.86,37.445,46.364z"/>
						<path fill="#88CA90" d="M30.915,51.728c0.418,0.502,1.144,0.579,1.644,0.164c0.499-0.411,0.575-1.142,0.168-1.651
							c-0.408-0.497-1.139-0.572-1.637-0.169C30.59,50.484,30.508,51.219,30.915,51.728"/>
						<path fill="#88CA90" d="M30.915,51.728c0.418,0.502,1.144,0.579,1.644,0.164c0.499-0.411,0.575-1.142,0.168-1.651
							c-0.408-0.497-1.139-0.572-1.637-0.169C30.59,50.484,30.508,51.219,30.915,51.728z"/>
						<path fill="#88CA90" d="M62.979,31.117c0.411,0.504,1.145,0.587,1.642,0.174c0.495-0.412,0.574-1.148,0.165-1.66
							c-0.399-0.497-1.133-0.579-1.637-0.16C62.651,29.879,62.581,30.619,62.979,31.117"/>
						<path fill="#88CA90" d="M62.979,31.117c0.411,0.504,1.145,0.587,1.642,0.174c0.495-0.412,0.574-1.148,0.165-1.66
							c-0.399-0.497-1.133-0.579-1.637-0.16C62.651,29.879,62.581,30.619,62.979,31.117z"/>
						<path fill="#88CA90" d="M56.451,36.486c0.406,0.506,1.14,0.583,1.641,0.17c0.492-0.41,0.569-1.151,0.164-1.657
							c-0.397-0.503-1.135-0.581-1.64-0.162C56.124,35.248,56.046,35.986,56.451,36.486"/>
						<path fill="#88CA90" d="M56.451,36.486c0.406,0.506,1.14,0.583,1.641,0.17c0.492-0.41,0.569-1.151,0.164-1.657
							c-0.397-0.503-1.135-0.581-1.64-0.162C56.124,35.248,56.046,35.986,56.451,36.486z"/>
						<path fill="#88CA90" d="M49.916,41.854c0.406,0.506,1.138,0.581,1.642,0.173c0.489-0.413,0.569-1.154,0.162-1.659
							c-0.402-0.505-1.134-0.58-1.64-0.161C49.587,40.617,49.51,41.356,49.916,41.854"/>
						<path fill="#88CA90" d="M49.916,41.854c0.406,0.506,1.138,0.581,1.642,0.173c0.489-0.413,0.569-1.154,0.162-1.659
							c-0.402-0.505-1.134-0.58-1.64-0.161C49.587,40.617,49.51,41.356,49.916,41.854z"/>
						<path fill="#88CA90" d="M43.379,47.222c0.406,0.503,1.141,0.575,1.646,0.166c0.491-0.41,0.571-1.151,0.168-1.654
							c-0.407-0.509-1.14-0.578-1.645-0.162C43.054,45.98,42.974,46.719,43.379,47.222"/>
						<path fill="#88CA90" d="M43.379,47.222c0.406,0.503,1.141,0.575,1.646,0.166c0.491-0.41,0.571-1.151,0.168-1.654
							c-0.407-0.509-1.14-0.578-1.645-0.162C43.054,45.98,42.974,46.719,43.379,47.222z"/>
						<path fill="#88CA90" d="M36.848,52.589c0.413,0.503,1.148,0.575,1.646,0.169c0.498-0.412,0.568-1.151,0.164-1.653
							c-0.408-0.509-1.137-0.58-1.643-0.164C36.521,51.349,36.442,52.086,36.848,52.589"/>
						<path fill="#88CA90" d="M36.848,52.589c0.413,0.503,1.148,0.575,1.646,0.169c0.498-0.412,0.568-1.151,0.164-1.653
							c-0.408-0.509-1.137-0.58-1.643-0.164C36.521,51.349,36.442,52.086,36.848,52.589z"/>
						<path fill="#88CA90" d="M30.314,57.954c0.413,0.504,1.14,0.574,1.644,0.17c0.495-0.414,0.57-1.152,0.168-1.653
							c-0.411-0.504-1.141-0.583-1.643-0.164C29.984,56.714,29.91,57.451,30.314,57.954"/>
						<path fill="#88CA90" d="M30.314,57.954c0.413,0.504,1.14,0.574,1.644,0.17c0.495-0.414,0.57-1.152,0.168-1.653
							c-0.411-0.504-1.141-0.583-1.643-0.164C29.984,56.714,29.91,57.451,30.314,57.954z"/>
						<path fill="#88CA90" d="M69.15,31.786c0.42,0.508,1.143,0.581,1.647,0.17c0.492-0.413,0.574-1.146,0.16-1.655
							c-0.398-0.498-1.137-0.574-1.636-0.17C68.821,30.543,68.747,31.283,69.15,31.786"/>
						<path fill="#88CA90" d="M69.15,31.786c0.42,0.508,1.143,0.581,1.647,0.17c0.492-0.413,0.574-1.146,0.16-1.655
							c-0.398-0.498-1.137-0.574-1.636-0.17C68.821,30.543,68.747,31.283,69.15,31.786z"/>
						<path fill="#88CA90" d="M62.619,37.151c0.416,0.505,1.138,0.583,1.645,0.169c0.494-0.415,0.575-1.145,0.161-1.656
							c-0.394-0.499-1.138-0.576-1.633-0.17C62.287,35.911,62.214,36.648,62.619,37.151"/>
						<path fill="#88CA90" d="M62.619,37.151c0.416,0.505,1.138,0.583,1.645,0.169c0.494-0.415,0.575-1.145,0.161-1.656
							c-0.394-0.499-1.138-0.576-1.633-0.17C62.287,35.911,62.214,36.648,62.619,37.151z"/>
						<path fill="#88CA90" d="M56.088,42.516c0.412,0.506,1.139,0.583,1.64,0.171c0.497-0.416,0.574-1.143,0.165-1.655
							c-0.398-0.498-1.138-0.576-1.637-0.164C55.755,41.28,55.681,42.015,56.088,42.516"/>
						<path fill="#88CA90" d="M56.088,42.516c0.412,0.506,1.139,0.583,1.64,0.171c0.497-0.416,0.574-1.143,0.165-1.655
							c-0.398-0.498-1.138-0.576-1.637-0.164C55.755,41.28,55.681,42.015,56.088,42.516z"/>
						<path fill="#88CA90" d="M49.557,47.885c0.409,0.502,1.134,0.584,1.635,0.165c0.501-0.408,0.574-1.138,0.172-1.646
							c-0.403-0.504-1.14-0.583-1.638-0.175C49.223,46.647,49.147,47.382,49.557,47.885"/>
						<path fill="#88CA90" d="M49.557,47.885c0.409,0.502,1.134,0.584,1.635,0.165c0.501-0.408,0.574-1.138,0.172-1.646
							c-0.403-0.504-1.14-0.583-1.638-0.175C49.223,46.647,49.147,47.382,49.557,47.885z"/>
						<path fill="#88CA90" d="M43.025,53.25c0.408,0.507,1.132,0.583,1.633,0.165c0.499-0.41,0.578-1.136,0.174-1.647
							c-0.405-0.499-1.146-0.581-1.642-0.169C42.687,52.01,42.618,52.749,43.025,53.25"/>
						<path fill="#88CA90" d="M43.025,53.25c0.408,0.507,1.132,0.583,1.633,0.165c0.499-0.41,0.578-1.136,0.174-1.647
							c-0.405-0.499-1.146-0.581-1.642-0.169C42.687,52.01,42.618,52.749,43.025,53.25z"/>
						<path fill="#88CA90" d="M36.491,58.62c0.407,0.504,1.135,0.58,1.635,0.161c0.502-0.406,0.576-1.138,0.171-1.643
							c-0.403-0.504-1.141-0.584-1.64-0.17C36.155,57.379,36.083,58.119,36.491,58.62"/>
						<path fill="#88CA90" d="M36.491,58.62c0.407,0.504,1.135,0.58,1.635,0.161c0.502-0.406,0.576-1.138,0.171-1.643
							c-0.403-0.504-1.141-0.584-1.64-0.17C36.155,57.379,36.083,58.119,36.491,58.62z"/>
						<path fill="#88CA90" d="M68.547,38.014c0.41,0.512,1.148,0.578,1.646,0.171c0.49-0.411,0.576-1.152,0.162-1.657
							c-0.407-0.5-1.135-0.581-1.635-0.168C68.221,36.776,68.146,37.505,68.547,38.014"/>
						<path fill="#88CA90" d="M68.547,38.014c0.41,0.512,1.148,0.578,1.646,0.171c0.49-0.411,0.576-1.152,0.162-1.657
							c-0.407-0.5-1.135-0.581-1.635-0.168C68.221,36.776,68.146,37.505,68.547,38.014z"/>
						<path fill="#88CA90" d="M62.017,43.378c0.41,0.512,1.146,0.579,1.641,0.173c0.499-0.41,0.58-1.15,0.164-1.658
							c-0.403-0.5-1.135-0.58-1.636-0.162C61.687,42.14,61.615,42.875,62.017,43.378"/>
						<path fill="#88CA90" d="M62.017,43.378c0.41,0.512,1.146,0.579,1.641,0.173c0.499-0.41,0.58-1.15,0.164-1.658
							c-0.403-0.5-1.135-0.58-1.636-0.162C61.687,42.14,61.615,42.875,62.017,43.378z"/>
						<path fill="#88CA90" d="M55.48,48.75c0.408,0.509,1.149,0.578,1.643,0.169c0.502-0.411,0.579-1.152,0.164-1.661
							c-0.404-0.503-1.13-0.573-1.635-0.157C55.156,47.507,55.076,48.246,55.48,48.75"/>
						<path fill="#88CA90" d="M55.48,48.75c0.408,0.509,1.149,0.578,1.643,0.169c0.502-0.411,0.579-1.152,0.164-1.661
							c-0.404-0.503-1.13-0.573-1.635-0.157C55.156,47.507,55.076,48.246,55.48,48.75z"/>
						<path fill="#88CA90" d="M48.946,54.118c0.41,0.506,1.15,0.571,1.646,0.165c0.498-0.408,0.578-1.148,0.164-1.66
							c-0.405-0.496-1.138-0.574-1.637-0.16C48.621,52.874,48.541,53.612,48.946,54.118"/>
						<path fill="#88CA90" d="M48.946,54.118c0.41,0.506,1.15,0.571,1.646,0.165c0.498-0.408,0.578-1.148,0.164-1.66
							c-0.405-0.496-1.138-0.574-1.637-0.16C48.621,52.874,48.541,53.612,48.946,54.118z"/>
						<path fill="#88CA90" d="M42.417,59.481c0.406,0.506,1.142,0.579,1.642,0.172c0.492-0.416,0.579-1.153,0.165-1.664
							c-0.403-0.503-1.135-0.572-1.641-0.156C42.091,58.241,42.01,58.983,42.417,59.481"/>
						<path fill="#88CA90" d="M42.417,59.481c0.406,0.506,1.142,0.579,1.642,0.172c0.492-0.416,0.579-1.153,0.165-1.664
							c-0.403-0.503-1.135-0.572-1.641-0.156C42.091,58.241,42.01,58.983,42.417,59.481z"/>
						<path fill="#88CA90" d="M35.882,64.849c0.411,0.503,1.146,0.579,1.644,0.169c0.494-0.414,0.577-1.15,0.163-1.663
							c-0.404-0.495-1.135-0.574-1.639-0.155C35.555,63.602,35.478,64.346,35.882,64.849"/>
						<path fill="#88CA90" d="M35.882,64.849c0.411,0.503,1.146,0.579,1.644,0.169c0.494-0.414,0.577-1.15,0.163-1.663
							c-0.404-0.495-1.135-0.574-1.639-0.155C35.555,63.602,35.478,64.346,35.882,64.849z"/>
						<path fill="#88CA90" d="M74.723,38.68c0.41,0.505,1.143,0.586,1.641,0.171c0.494-0.414,0.572-1.145,0.164-1.655
							c-0.398-0.501-1.135-0.575-1.635-0.163C74.393,37.44,74.314,38.176,74.723,38.68"/>
						<path fill="#88CA90" d="M74.723,38.68c0.41,0.505,1.143,0.586,1.641,0.171c0.494-0.414,0.572-1.145,0.164-1.655
							c-0.398-0.501-1.135-0.575-1.635-0.163C74.393,37.44,74.314,38.176,74.723,38.68z"/>
						<path fill="#88CA90" d="M68.189,44.045c0.413,0.505,1.142,0.584,1.643,0.17c0.493-0.415,0.571-1.147,0.161-1.658
							c-0.391-0.499-1.138-0.567-1.634-0.159C67.863,42.81,67.782,43.546,68.189,44.045"/>
						<path fill="#88CA90" d="M68.189,44.045c0.413,0.505,1.142,0.584,1.643,0.17c0.493-0.415,0.571-1.147,0.161-1.658
							c-0.391-0.499-1.138-0.567-1.634-0.159C67.863,42.81,67.782,43.546,68.189,44.045z"/>
						<path fill="#88CA90" d="M61.656,49.411c0.412,0.508,1.141,0.585,1.644,0.176c0.495-0.423,0.567-1.152,0.161-1.658
							c-0.404-0.505-1.134-0.577-1.635-0.165C61.326,48.172,61.247,48.909,61.656,49.411"/>
						<path fill="#88CA90" d="M61.656,49.411c0.412,0.508,1.141,0.585,1.644,0.176c0.495-0.423,0.567-1.152,0.161-1.658
							c-0.404-0.505-1.134-0.577-1.635-0.165C61.326,48.172,61.247,48.909,61.656,49.411z"/>
						<path fill="#88CA90" d="M55.124,54.781c0.411,0.501,1.142,0.586,1.642,0.168c0.494-0.415,0.571-1.144,0.16-1.655
							c-0.401-0.505-1.133-0.58-1.636-0.165C54.785,53.541,54.715,54.278,55.124,54.781"/>
						<path fill="#88CA90" d="M55.124,54.781c0.411,0.501,1.142,0.586,1.642,0.168c0.494-0.415,0.571-1.144,0.16-1.655
							c-0.401-0.505-1.133-0.58-1.636-0.165C54.785,53.541,54.715,54.278,55.124,54.781z"/>
						<path fill="#88CA90" d="M48.589,60.144c0.41,0.509,1.142,0.59,1.64,0.177c0.497-0.424,0.574-1.154,0.163-1.661
							c-0.4-0.501-1.134-0.58-1.634-0.166C48.254,58.905,48.181,59.644,48.589,60.144"/>
						<path fill="#88CA90" d="M48.589,60.144c0.41,0.509,1.142,0.59,1.64,0.177c0.497-0.424,0.574-1.154,0.163-1.661
							c-0.4-0.501-1.134-0.58-1.634-0.166C48.254,58.905,48.181,59.644,48.589,60.144z"/>
						<path fill="#88CA90" d="M42.055,65.513c0.411,0.505,1.145,0.586,1.643,0.17c0.491-0.416,0.573-1.145,0.161-1.658
							c-0.401-0.5-1.133-0.578-1.634-0.166C41.723,64.27,41.649,65.011,42.055,65.513"/>
						<path fill="#88CA90" d="M42.055,65.513c0.411,0.505,1.145,0.586,1.643,0.17c0.491-0.416,0.573-1.145,0.161-1.658
							c-0.401-0.5-1.133-0.578-1.634-0.166C41.723,64.27,41.649,65.011,42.055,65.513z"/>
						<path fill="#88CA90" d="M74.115,44.909c0.418,0.514,1.148,0.577,1.654,0.167c0.49-0.412,0.566-1.146,0.154-1.653
							c-0.4-0.498-1.137-0.573-1.633-0.167C73.793,43.671,73.715,44.401,74.115,44.909"/>
						<path fill="#88CA90" d="M74.115,44.909c0.418,0.514,1.148,0.577,1.654,0.167c0.49-0.412,0.566-1.146,0.154-1.653
							c-0.4-0.498-1.137-0.573-1.633-0.167C73.793,43.671,73.715,44.401,74.115,44.909z"/>
						<path fill="#88CA90" d="M67.583,50.274c0.416,0.517,1.155,0.583,1.652,0.171c0.492-0.413,0.569-1.147,0.154-1.661
							c-0.4-0.489-1.136-0.57-1.634-0.159C67.256,49.038,67.182,49.771,67.583,50.274"/>
						<path fill="#88CA90" d="M67.583,50.274c0.416,0.517,1.155,0.583,1.652,0.171c0.492-0.413,0.569-1.147,0.154-1.661
							c-0.4-0.489-1.136-0.57-1.634-0.159C67.256,49.038,67.182,49.771,67.583,50.274z"/>
						<path fill="#88CA90" d="M61.05,55.643c0.41,0.508,1.147,0.577,1.644,0.167c0.497-0.408,0.575-1.146,0.162-1.66
							c-0.397-0.495-1.133-0.567-1.636-0.156C60.725,54.403,60.647,55.138,61.05,55.643"/>
						<path fill="#88CA90" d="M61.05,55.643c0.41,0.508,1.147,0.577,1.644,0.167c0.497-0.408,0.575-1.146,0.162-1.66
							c-0.397-0.495-1.133-0.567-1.636-0.156C60.725,54.403,60.647,55.138,61.05,55.643z"/>
						<path fill="#88CA90" d="M54.519,61.011c0.403,0.504,1.147,0.574,1.643,0.164c0.497-0.406,0.577-1.148,0.166-1.656
							c-0.403-0.5-1.139-0.571-1.642-0.163C54.19,59.767,54.111,60.505,54.519,61.011"/>
						<path fill="#88CA90" d="M54.519,61.011c0.403,0.504,1.147,0.574,1.643,0.164c0.497-0.406,0.577-1.148,0.166-1.656
							c-0.403-0.5-1.139-0.571-1.642-0.163C54.19,59.767,54.111,60.505,54.519,61.011z"/>
						<path fill="#88CA90" d="M47.985,66.377c0.406,0.504,1.144,0.576,1.643,0.165c0.499-0.407,0.578-1.148,0.17-1.656
							c-0.405-0.501-1.14-0.575-1.647-0.163C47.657,65.131,47.577,65.873,47.985,66.377"/>
						<path fill="#88CA90" d="M47.985,66.377c0.406,0.504,1.144,0.576,1.643,0.165c0.499-0.407,0.578-1.148,0.17-1.656
							c-0.405-0.501-1.14-0.575-1.647-0.163C47.657,65.131,47.577,65.873,47.985,66.377z"/>
						<path fill="#88CA90" d="M41.452,71.745c0.412,0.504,1.146,0.575,1.643,0.17c0.498-0.407,0.575-1.151,0.169-1.66
							c-0.407-0.497-1.14-0.578-1.648-0.156C41.124,70.498,41.051,71.238,41.452,71.745"/>
						<path fill="#88CA90" d="M41.452,71.745c0.412,0.504,1.146,0.575,1.643,0.17c0.498-0.407,0.575-1.151,0.169-1.66
							c-0.407-0.497-1.14-0.578-1.648-0.156C41.124,70.498,41.051,71.238,41.452,71.745z"/>
						<path fill="#88CA90" d="M80.289,45.577c0.412,0.499,1.148,0.576,1.646,0.166c0.492-0.416,0.578-1.148,0.166-1.659
							c-0.406-0.496-1.141-0.567-1.639-0.162C79.967,44.328,79.885,45.073,80.289,45.577"/>
						<path fill="#88CA90" d="M80.289,45.577c0.412,0.499,1.148,0.576,1.646,0.166c0.492-0.416,0.578-1.148,0.166-1.659
							c-0.406-0.496-1.141-0.567-1.639-0.162C79.967,44.328,79.885,45.073,80.289,45.577z"/>
						<path fill="#88CA90" d="M73.76,50.938c0.408,0.513,1.143,0.583,1.639,0.171c0.498-0.41,0.586-1.149,0.172-1.657
							c-0.406-0.499-1.145-0.57-1.639-0.165C73.432,49.693,73.35,50.44,73.76,50.938"/>
						<path fill="#88CA90" d="M73.76,50.938c0.408,0.513,1.143,0.583,1.639,0.171c0.498-0.41,0.586-1.149,0.172-1.657
							c-0.406-0.499-1.145-0.57-1.639-0.165C73.432,49.693,73.35,50.44,73.76,50.938z"/>
						<path fill="#88CA90" d="M67.224,56.306c0.413,0.511,1.143,0.585,1.641,0.171c0.501-0.413,0.581-1.15,0.17-1.66
							c-0.396-0.493-1.138-0.573-1.639-0.16C66.895,55.063,66.818,55.803,67.224,56.306"/>
						<path fill="#88CA90" d="M67.224,56.306c0.413,0.511,1.143,0.585,1.641,0.171c0.501-0.413,0.581-1.15,0.17-1.66
							c-0.396-0.493-1.138-0.573-1.639-0.16C66.895,55.063,66.818,55.803,67.224,56.306z"/>
						<path fill="#88CA90" d="M60.692,61.674c0.408,0.512,1.144,0.58,1.638,0.172c0.503-0.415,0.583-1.155,0.172-1.662
							c-0.401-0.496-1.14-0.572-1.64-0.162C60.361,60.43,60.282,61.17,60.692,61.674"/>
						<path fill="#88CA90" d="M60.692,61.674c0.408,0.512,1.144,0.58,1.638,0.172c0.503-0.415,0.583-1.155,0.172-1.662
							c-0.401-0.496-1.14-0.572-1.64-0.162C60.361,60.43,60.282,61.17,60.692,61.674z"/>
						<path fill="#88CA90" d="M54.159,67.041c0.409,0.504,1.141,0.584,1.642,0.173c0.5-0.416,0.578-1.157,0.167-1.662
							c-0.397-0.496-1.138-0.575-1.638-0.162C53.831,65.801,53.75,66.534,54.159,67.041"/>
						<path fill="#88CA90" d="M54.159,67.041c0.409,0.504,1.141,0.584,1.642,0.173c0.5-0.416,0.578-1.157,0.167-1.662
							c-0.397-0.496-1.138-0.575-1.638-0.162C53.831,65.801,53.75,66.534,54.159,67.041z"/>
						<path fill="#88CA90" d="M47.625,72.409c0.408,0.505,1.142,0.583,1.64,0.168c0.499-0.411,0.572-1.152,0.168-1.657
							c-0.403-0.497-1.139-0.578-1.638-0.162C47.293,71.167,47.221,71.899,47.625,72.409"/>
						<path fill="#88CA90" d="M47.625,72.409c0.408,0.505,1.142,0.583,1.64,0.168c0.499-0.411,0.572-1.152,0.168-1.657
							c-0.403-0.497-1.139-0.578-1.638-0.162C47.293,71.167,47.221,71.899,47.625,72.409z"/>
						<path fill="#88CA90" d="M79.688,51.806c0.412,0.501,1.143,0.575,1.646,0.162c0.492-0.407,0.566-1.149,0.166-1.657
							c-0.408-0.494-1.141-0.574-1.639-0.158C79.363,50.561,79.289,51.298,79.688,51.806"/>
						<path fill="#88CA90" d="M79.688,51.806c0.412,0.501,1.143,0.575,1.646,0.162c0.492-0.407,0.566-1.149,0.166-1.657
							c-0.408-0.494-1.141-0.574-1.639-0.158C79.363,50.561,79.289,51.298,79.688,51.806z"/>
						<path fill="#88CA90" d="M73.152,57.168c0.412,0.507,1.145,0.577,1.645,0.169c0.494-0.409,0.568-1.155,0.166-1.654
							c-0.404-0.504-1.139-0.576-1.635-0.166C72.828,55.93,72.746,56.662,73.152,57.168"/>
						<path fill="#88CA90" d="M73.152,57.168c0.412,0.507,1.145,0.577,1.645,0.169c0.494-0.409,0.568-1.155,0.166-1.654
							c-0.404-0.504-1.139-0.576-1.635-0.166C72.828,55.93,72.746,56.662,73.152,57.168z"/>
						<path fill="#88CA90" d="M66.621,62.534c0.411,0.513,1.144,0.58,1.642,0.173c0.496-0.409,0.575-1.15,0.167-1.656
							c-0.404-0.5-1.139-0.574-1.634-0.165C66.294,61.298,66.217,62.035,66.621,62.534"/>
						<path fill="#88CA90" d="M66.621,62.534c0.411,0.513,1.144,0.58,1.642,0.173c0.496-0.409,0.575-1.15,0.167-1.656
							c-0.404-0.5-1.139-0.574-1.634-0.165C66.294,61.298,66.217,62.035,66.621,62.534z"/>
						<path fill="#88CA90" d="M60.085,67.901c0.416,0.51,1.146,0.579,1.645,0.168c0.494-0.408,0.578-1.149,0.166-1.654
							c-0.404-0.5-1.141-0.574-1.637-0.162C59.764,66.658,59.682,67.402,60.085,67.901"/>
						<path fill="#88CA90" d="M60.085,67.901c0.416,0.51,1.146,0.579,1.645,0.168c0.494-0.408,0.578-1.149,0.166-1.654
							c-0.404-0.5-1.141-0.574-1.637-0.162C59.764,66.658,59.682,67.402,60.085,67.901z"/>
						<path fill="#88CA90" d="M53.553,73.264c0.414,0.516,1.144,0.586,1.643,0.174c0.496-0.404,0.575-1.145,0.168-1.655
							c-0.407-0.501-1.139-0.571-1.638-0.16C53.228,72.031,53.146,72.762,53.553,73.264"/>
						<path fill="#88CA90" d="M53.553,73.264c0.414,0.516,1.144,0.586,1.643,0.174c0.496-0.404,0.575-1.145,0.168-1.655
							c-0.407-0.501-1.139-0.571-1.638-0.16C53.228,72.031,53.146,72.762,53.553,73.264z"/>
						<path fill="#88CA90" d="M47.018,78.631c0.417,0.514,1.146,0.582,1.645,0.176c0.494-0.408,0.577-1.15,0.164-1.656
							c-0.404-0.502-1.137-0.576-1.635-0.168C46.69,77.391,46.618,78.131,47.018,78.631"/>
						<path fill="#88CA90" d="M47.018,78.631c0.417,0.514,1.146,0.582,1.645,0.176c0.494-0.408,0.577-1.15,0.164-1.656
							c-0.404-0.502-1.137-0.576-1.635-0.168C46.69,77.391,46.618,78.131,47.018,78.631z"/>
						<path fill="#88CA90" d="M85.865,52.463c0.402,0.511,1.143,0.585,1.637,0.167c0.498-0.407,0.58-1.14,0.166-1.647
							c-0.398-0.505-1.137-0.58-1.635-0.167C85.531,51.22,85.459,51.96,85.865,52.463"/>
						<path fill="#88CA90" d="M85.865,52.463c0.402,0.511,1.143,0.585,1.637,0.167c0.498-0.407,0.58-1.14,0.166-1.647
							c-0.398-0.505-1.137-0.58-1.635-0.167C85.531,51.22,85.459,51.96,85.865,52.463z"/>
						<path fill="#88CA90" d="M79.33,57.833c0.406,0.506,1.141,0.58,1.639,0.168c0.496-0.408,0.578-1.145,0.168-1.651
							c-0.406-0.504-1.133-0.576-1.637-0.166C79,56.595,78.926,57.328,79.33,57.833"/>
						<path fill="#88CA90" d="M79.33,57.833c0.406,0.506,1.141,0.58,1.639,0.168c0.496-0.408,0.578-1.145,0.168-1.651
							c-0.406-0.504-1.133-0.576-1.637-0.166C79,56.595,78.926,57.328,79.33,57.833z"/>
						<path fill="#88CA90" d="M72.799,63.202c0.404,0.507,1.141,0.578,1.637,0.167c0.5-0.413,0.578-1.145,0.168-1.654
							c-0.404-0.502-1.135-0.576-1.637-0.161C72.469,61.963,72.393,62.695,72.799,63.202"/>
						<path fill="#88CA90" d="M72.799,63.202c0.404,0.507,1.141,0.578,1.637,0.167c0.5-0.413,0.578-1.145,0.168-1.654
							c-0.404-0.502-1.135-0.576-1.637-0.161C72.469,61.963,72.393,62.695,72.799,63.202z"/>
						<path fill="#88CA90" d="M66.263,68.566c0.407,0.509,1.142,0.579,1.64,0.169c0.496-0.41,0.58-1.145,0.167-1.652
							c-0.405-0.502-1.138-0.581-1.637-0.168C65.936,67.327,65.862,68.065,66.263,68.566"/>
						<path fill="#88CA90" d="M66.263,68.566c0.407,0.509,1.142,0.579,1.64,0.169c0.496-0.41,0.58-1.145,0.167-1.652
							c-0.405-0.502-1.138-0.581-1.637-0.168C65.936,67.327,65.862,68.065,66.263,68.566z"/>
						<path fill="#88CA90" d="M59.731,73.938c0.403,0.506,1.134,0.572,1.638,0.164c0.499-0.41,0.576-1.147,0.167-1.655
							c-0.403-0.501-1.138-0.574-1.638-0.161C59.399,72.698,59.329,73.432,59.731,73.938"/>
						<path fill="#88CA90" d="M59.731,73.938c0.403,0.506,1.134,0.572,1.638,0.164c0.499-0.41,0.576-1.147,0.167-1.655
							c-0.403-0.501-1.138-0.574-1.638-0.161C59.399,72.698,59.329,73.432,59.731,73.938z"/>
						<path fill="#88CA90" d="M53.197,79.303c0.405,0.506,1.14,0.578,1.637,0.17c0.5-0.414,0.581-1.148,0.17-1.66
							c-0.409-0.492-1.141-0.574-1.638-0.16C52.865,78.062,52.794,78.799,53.197,79.303"/>
						<path fill="#88CA90" d="M53.197,79.303c0.405,0.506,1.14,0.578,1.637,0.17c0.5-0.414,0.581-1.148,0.17-1.66
							c-0.409-0.492-1.141-0.574-1.638-0.16C52.865,78.062,52.794,78.799,53.197,79.303z"/>
						<path fill="#88CA90" d="M85.256,58.701c0.414,0.503,1.143,0.573,1.643,0.161c0.5-0.408,0.576-1.142,0.164-1.658
							c-0.404-0.501-1.137-0.573-1.633-0.167C84.932,57.456,84.852,58.19,85.256,58.701"/>
						<path fill="#88CA90" d="M85.256,58.701c0.414,0.503,1.143,0.573,1.643,0.161c0.5-0.408,0.576-1.142,0.164-1.658
							c-0.404-0.501-1.137-0.573-1.633-0.167C84.932,57.456,84.852,58.19,85.256,58.701z"/>
						<path fill="#88CA90" d="M78.727,64.062c0.41,0.509,1.143,0.579,1.639,0.167c0.5-0.408,0.574-1.145,0.168-1.653
							c-0.406-0.504-1.146-0.578-1.639-0.169C78.398,62.818,78.316,63.559,78.727,64.062"/>
						<path fill="#88CA90" d="M78.727,64.062c0.41,0.509,1.143,0.579,1.639,0.167c0.5-0.408,0.574-1.145,0.168-1.653
							c-0.406-0.504-1.146-0.578-1.639-0.169C78.398,62.818,78.316,63.559,78.727,64.062z"/>
						<path fill="#88CA90" d="M72.191,69.43c0.412,0.508,1.139,0.579,1.641,0.165c0.494-0.406,0.574-1.146,0.166-1.653
							c-0.402-0.503-1.139-0.571-1.637-0.165C71.861,68.186,71.787,68.925,72.191,69.43"/>
						<path fill="#88CA90" d="M72.191,69.43c0.412,0.508,1.139,0.579,1.641,0.165c0.494-0.406,0.574-1.146,0.166-1.653
							c-0.402-0.503-1.139-0.571-1.637-0.165C71.861,68.186,71.787,68.925,72.191,69.43z"/>
						<path fill="#88CA90" d="M65.658,74.797c0.414,0.506,1.141,0.576,1.641,0.168c0.497-0.41,0.573-1.148,0.166-1.656
							c-0.402-0.501-1.141-0.576-1.639-0.168C65.328,73.551,65.253,74.293,65.658,74.797"/>
						<path fill="#88CA90" d="M65.658,74.797c0.414,0.506,1.141,0.576,1.641,0.168c0.497-0.41,0.573-1.148,0.166-1.656
							c-0.402-0.501-1.141-0.576-1.639-0.168C65.328,73.551,65.253,74.293,65.658,74.797z"/>
						<path fill="#88CA90" d="M59.126,80.164c0.407,0.51,1.136,0.578,1.644,0.168c0.489-0.408,0.569-1.15,0.161-1.656
							c-0.404-0.502-1.143-0.572-1.639-0.166C58.793,78.922,58.723,79.66,59.126,80.164"/>
						<path fill="#88CA90" d="M59.126,80.164c0.407,0.51,1.136,0.578,1.644,0.168c0.489-0.408,0.569-1.15,0.161-1.656
							c-0.404-0.502-1.143-0.572-1.639-0.166C58.793,78.922,58.723,79.66,59.126,80.164z"/>
						<path fill="#88CA90" d="M52.594,85.529c0.41,0.508,1.138,0.58,1.644,0.17c0.493-0.41,0.566-1.148,0.16-1.652
							c-0.403-0.508-1.138-0.576-1.638-0.168C52.264,84.285,52.191,85.025,52.594,85.529"/>
						<path fill="#88CA90" d="M52.594,85.529c0.41,0.508,1.138,0.58,1.644,0.17c0.493-0.41,0.566-1.148,0.16-1.652
							c-0.403-0.508-1.138-0.576-1.638-0.168C52.264,84.285,52.191,85.025,52.594,85.529z"/>
					</g>
					<g>
						<path fill="#88CA90" d="M93.205,58.464c0.408,0.495,1.143,0.575,1.637,0.167c0.502-0.412,0.576-1.153,0.174-1.663
							c-0.41-0.495-1.139-0.57-1.643-0.157C92.879,57.218,92.799,57.957,93.205,58.464"/>
						<path fill="#88CA90" d="M93.205,58.464c0.408,0.495,1.143,0.575,1.637,0.167c0.502-0.412,0.576-1.153,0.174-1.663
							c-0.41-0.495-1.139-0.57-1.643-0.157C92.879,57.218,92.799,57.957,93.205,58.464z"/>
						<path fill="#88CA90" d="M86.676,63.825c0.406,0.503,1.141,0.579,1.637,0.169c0.498-0.411,0.576-1.152,0.17-1.656
							c-0.404-0.501-1.143-0.579-1.641-0.161C86.344,62.582,86.262,63.322,86.676,63.825"/>
						<path fill="#88CA90" d="M86.676,63.825c0.406,0.503,1.141,0.579,1.637,0.169c0.498-0.411,0.576-1.152,0.17-1.656
							c-0.404-0.501-1.143-0.579-1.641-0.161C86.344,62.582,86.262,63.322,86.676,63.825z"/>
						<path fill="#88CA90" d="M80.139,69.197c0.406,0.502,1.143,0.575,1.641,0.165c0.496-0.412,0.576-1.153,0.168-1.66
							c-0.402-0.502-1.141-0.574-1.643-0.164C79.807,67.943,79.729,68.693,80.139,69.197"/>
						<path fill="#88CA90" d="M80.139,69.197c0.406,0.502,1.143,0.575,1.641,0.165c0.496-0.412,0.576-1.153,0.168-1.66
							c-0.402-0.502-1.141-0.574-1.643-0.164C79.807,67.943,79.729,68.693,80.139,69.197z"/>
						<path fill="#88CA90" d="M73.604,74.562c0.408,0.5,1.145,0.578,1.643,0.166c0.5-0.41,0.572-1.15,0.164-1.656
							c-0.402-0.5-1.135-0.575-1.637-0.167C73.277,73.311,73.193,74.057,73.604,74.562"/>
						<path fill="#88CA90" d="M73.604,74.562c0.408,0.5,1.145,0.578,1.643,0.166c0.5-0.41,0.572-1.15,0.164-1.656
							c-0.402-0.5-1.135-0.575-1.637-0.167C73.277,73.311,73.193,74.057,73.604,74.562z"/>
						<path fill="#88CA90" d="M67.068,79.93c0.41,0.5,1.148,0.576,1.644,0.164c0.498-0.408,0.579-1.148,0.168-1.656
							c-0.405-0.5-1.141-0.576-1.642-0.168C66.743,78.672,66.659,79.426,67.068,79.93"/>
						<path fill="#88CA90" d="M67.068,79.93c0.41,0.5,1.148,0.576,1.644,0.164c0.498-0.408,0.579-1.148,0.168-1.656
							c-0.405-0.5-1.141-0.576-1.642-0.168C66.743,78.672,66.659,79.426,67.068,79.93z"/>
						<path fill="#88CA90" d="M60.538,85.295c0.412,0.5,1.141,0.576,1.64,0.164c0.499-0.408,0.574-1.145,0.168-1.656
							c-0.404-0.49-1.139-0.57-1.643-0.166C60.209,84.043,60.133,84.791,60.538,85.295"/>
						<path fill="#88CA90" d="M60.538,85.295c0.412,0.5,1.141,0.576,1.64,0.164c0.499-0.408,0.574-1.145,0.168-1.656
							c-0.404-0.49-1.139-0.57-1.643-0.166C60.209,84.043,60.133,84.791,60.538,85.295z"/>
						<path fill="#88CA90" d="M92.602,64.685c0.416,0.507,1.146,0.586,1.645,0.177c0.498-0.421,0.572-1.148,0.162-1.662
							c-0.406-0.5-1.135-0.573-1.637-0.161C92.27,63.444,92.195,64.185,92.602,64.685"/>
						<path fill="#88CA90" d="M92.602,64.685c0.416,0.507,1.146,0.586,1.645,0.177c0.498-0.421,0.572-1.148,0.162-1.662
							c-0.406-0.5-1.135-0.573-1.637-0.161C92.27,63.444,92.195,64.185,92.602,64.685z"/>
						<path fill="#88CA90" d="M86.068,70.051c0.416,0.51,1.145,0.585,1.645,0.176c0.502-0.42,0.574-1.151,0.164-1.664
							c-0.402-0.5-1.133-0.572-1.639-0.159C85.74,68.812,85.662,69.555,86.068,70.051"/>
						<path fill="#88CA90" d="M86.068,70.051c0.416,0.51,1.145,0.585,1.645,0.176c0.502-0.42,0.574-1.151,0.164-1.664
							c-0.402-0.5-1.133-0.572-1.639-0.159C85.74,68.812,85.662,69.555,86.068,70.051z"/>
						<path fill="#88CA90" d="M79.531,75.42c0.418,0.508,1.15,0.58,1.648,0.174c0.5-0.414,0.572-1.15,0.162-1.664
							c-0.404-0.496-1.137-0.568-1.637-0.158C79.207,74.18,79.129,74.924,79.531,75.42"/>
						<path fill="#88CA90" d="M79.531,75.42c0.418,0.508,1.15,0.58,1.648,0.174c0.5-0.414,0.572-1.15,0.162-1.664
							c-0.404-0.496-1.137-0.568-1.637-0.158C79.207,74.18,79.129,74.924,79.531,75.42z"/>
						<path fill="#88CA90" d="M73.002,80.785c0.412,0.51,1.146,0.582,1.645,0.178c0.5-0.416,0.572-1.152,0.164-1.662
							c-0.408-0.498-1.139-0.578-1.639-0.164C72.676,79.545,72.592,80.287,73.002,80.785"/>
						<path fill="#88CA90" d="M73.002,80.785c0.412,0.51,1.146,0.582,1.645,0.178c0.5-0.416,0.572-1.152,0.164-1.662
							c-0.408-0.498-1.139-0.578-1.639-0.164C72.676,79.545,72.592,80.287,73.002,80.785z"/>
						<path fill="#88CA90" d="M66.465,86.154c0.418,0.508,1.15,0.582,1.646,0.178c0.5-0.416,0.571-1.158,0.164-1.662
							c-0.41-0.504-1.142-0.578-1.64-0.172C66.138,84.914,66.06,85.652,66.465,86.154"/>
						<path fill="#88CA90" d="M66.465,86.154c0.418,0.508,1.15,0.582,1.646,0.178c0.5-0.416,0.571-1.158,0.164-1.662
							c-0.41-0.504-1.142-0.578-1.64-0.172C66.138,84.914,66.06,85.652,66.465,86.154z"/>
						<path fill="#88CA90" d="M59.934,91.52c0.415,0.504,1.148,0.578,1.643,0.176c0.497-0.418,0.579-1.158,0.165-1.662
							c-0.402-0.502-1.146-0.576-1.638-0.168C59.606,90.279,59.529,91.02,59.934,91.52"/>
						<path fill="#88CA90" d="M59.934,91.52c0.415,0.504,1.148,0.578,1.643,0.176c0.497-0.418,0.579-1.158,0.165-1.662
							c-0.402-0.502-1.146-0.576-1.638-0.168C59.606,90.279,59.529,91.02,59.934,91.52z"/>
						<path fill="#88CA90" d="M98.77,65.355c0.414,0.5,1.148,0.576,1.643,0.167c0.5-0.419,0.58-1.146,0.17-1.658
							c-0.406-0.495-1.135-0.572-1.639-0.168C98.443,64.11,98.369,64.847,98.77,65.355"/>
						<path fill="#88CA90" d="M98.77,65.355c0.414,0.5,1.148,0.576,1.643,0.167c0.5-0.419,0.58-1.146,0.17-1.658
							c-0.406-0.495-1.135-0.572-1.639-0.168C98.443,64.11,98.369,64.847,98.77,65.355z"/>
						<path fill="#88CA90" d="M92.238,70.722c0.408,0.504,1.148,0.579,1.645,0.171c0.5-0.419,0.58-1.154,0.166-1.662
							c-0.404-0.499-1.135-0.574-1.635-0.171C91.91,69.474,91.834,70.219,92.238,70.722"/>
						<path fill="#88CA90" d="M92.238,70.722c0.408,0.504,1.148,0.579,1.645,0.171c0.5-0.419,0.58-1.154,0.166-1.662
							c-0.404-0.499-1.135-0.574-1.635-0.171C91.91,69.474,91.834,70.219,92.238,70.722z"/>
						<path fill="#88CA90" d="M85.705,76.092c0.406,0.5,1.146,0.574,1.641,0.164c0.502-0.418,0.584-1.148,0.172-1.656
							c-0.408-0.498-1.139-0.574-1.641-0.168C85.373,74.844,85.293,75.59,85.705,76.092"/>
						<path fill="#88CA90" d="M85.705,76.092c0.406,0.5,1.146,0.574,1.641,0.164c0.502-0.418,0.584-1.148,0.172-1.656
							c-0.408-0.498-1.139-0.574-1.641-0.168C85.373,74.844,85.293,75.59,85.705,76.092z"/>
						<path fill="#88CA90" d="M79.17,81.457c0.412,0.502,1.145,0.578,1.645,0.164c0.502-0.416,0.574-1.146,0.166-1.65
							c-0.402-0.504-1.137-0.58-1.633-0.176C78.84,80.213,78.76,80.953,79.17,81.457"/>
						<path fill="#88CA90" d="M79.17,81.457c0.412,0.502,1.145,0.578,1.645,0.164c0.502-0.416,0.574-1.146,0.166-1.65
							c-0.402-0.504-1.137-0.58-1.633-0.176C78.84,80.213,78.76,80.953,79.17,81.457z"/>
						<path fill="#88CA90" d="M72.637,86.826c0.41,0.5,1.145,0.578,1.645,0.162c0.502-0.418,0.582-1.146,0.166-1.656
							c-0.402-0.502-1.141-0.574-1.635-0.17C72.309,85.578,72.227,86.318,72.637,86.826"/>
						<path fill="#88CA90" d="M72.637,86.826c0.41,0.5,1.145,0.578,1.645,0.162c0.502-0.418,0.582-1.146,0.166-1.656
							c-0.402-0.502-1.141-0.574-1.635-0.17C72.309,85.578,72.227,86.318,72.637,86.826z"/>
						<path fill="#88CA90" d="M66.107,92.188c0.416,0.502,1.141,0.578,1.641,0.168c0.501-0.418,0.578-1.145,0.166-1.658
							c-0.404-0.492-1.134-0.57-1.635-0.166C65.78,90.945,65.699,91.68,66.107,92.188"/>
						<path fill="#88CA90" d="M66.107,92.188c0.416,0.502,1.141,0.578,1.641,0.168c0.501-0.418,0.578-1.145,0.166-1.658
							c-0.404-0.492-1.134-0.57-1.635-0.166C65.78,90.945,65.699,91.68,66.107,92.188z"/>
						<path fill="#88CA90" d="M98.17,71.579c0.412,0.504,1.146,0.586,1.646,0.174c0.492-0.411,0.568-1.147,0.16-1.661
							c-0.402-0.496-1.133-0.578-1.637-0.159C97.844,70.338,97.771,71.079,98.17,71.579"/>
						<path fill="#88CA90" d="M98.17,71.579c0.412,0.504,1.146,0.586,1.646,0.174c0.492-0.411,0.568-1.147,0.16-1.661
							c-0.402-0.496-1.133-0.578-1.637-0.159C97.844,70.338,97.771,71.079,98.17,71.579z"/>
						<path fill="#88CA90" d="M91.639,76.947c0.408,0.504,1.146,0.584,1.645,0.166c0.49-0.406,0.568-1.148,0.162-1.654
							c-0.398-0.502-1.133-0.576-1.639-0.16C91.314,75.707,91.236,76.451,91.639,76.947"/>
						<path fill="#88CA90" d="M91.639,76.947c0.408,0.504,1.146,0.584,1.645,0.166c0.49-0.406,0.568-1.148,0.162-1.654
							c-0.398-0.502-1.133-0.576-1.639-0.16C91.314,75.707,91.236,76.451,91.639,76.947z"/>
						<path fill="#88CA90" d="M85.104,82.312c0.41,0.506,1.141,0.578,1.643,0.174c0.49-0.414,0.572-1.148,0.162-1.658
							c-0.404-0.506-1.131-0.576-1.641-0.16C84.779,81.072,84.701,81.816,85.104,82.312"/>
						<path fill="#88CA90" d="M85.104,82.312c0.41,0.506,1.141,0.578,1.643,0.174c0.49-0.414,0.572-1.148,0.162-1.658
							c-0.404-0.506-1.131-0.576-1.641-0.16C84.779,81.072,84.701,81.816,85.104,82.312z"/>
						<path fill="#88CA90" d="M78.57,87.682c0.406,0.502,1.143,0.576,1.645,0.166c0.492-0.41,0.572-1.148,0.17-1.652
							c-0.408-0.508-1.141-0.578-1.645-0.162C78.244,86.441,78.164,87.182,78.57,87.682"/>
						<path fill="#88CA90" d="M78.57,87.682c0.406,0.502,1.143,0.576,1.645,0.166c0.492-0.41,0.572-1.148,0.17-1.652
							c-0.408-0.508-1.141-0.578-1.645-0.162C78.244,86.441,78.164,87.182,78.57,87.682z"/>
						<path fill="#88CA90" d="M72.039,93.047c0.414,0.506,1.145,0.58,1.643,0.172c0.498-0.412,0.572-1.154,0.168-1.652
							c-0.41-0.508-1.139-0.58-1.645-0.166C71.711,91.811,71.631,92.545,72.039,93.047"/>
						<path fill="#88CA90" d="M72.039,93.047c0.414,0.506,1.145,0.58,1.643,0.172c0.498-0.412,0.572-1.154,0.168-1.652
							c-0.41-0.508-1.139-0.58-1.645-0.166C71.711,91.811,71.631,92.545,72.039,93.047z"/>
						<path fill="#88CA90" d="M65.503,98.414c0.413,0.504,1.142,0.574,1.645,0.168c0.493-0.412,0.571-1.15,0.168-1.652
							c-0.407-0.5-1.142-0.582-1.644-0.162C65.177,97.172,65.101,97.91,65.503,98.414"/>
						<path fill="#88CA90" d="M65.503,98.414c0.413,0.504,1.142,0.574,1.645,0.168c0.493-0.412,0.571-1.15,0.168-1.652
							c-0.407-0.5-1.142-0.582-1.644-0.162C65.177,97.172,65.101,97.91,65.503,98.414z"/>
						<path fill="#88CA90" d="M104.342,72.244c0.418,0.509,1.141,0.583,1.646,0.17c0.494-0.413,0.57-1.143,0.16-1.654
							c-0.398-0.499-1.139-0.573-1.635-0.167C104.01,71.006,103.938,71.742,104.342,72.244"/>
						<path fill="#88CA90" d="M104.342,72.244c0.418,0.509,1.141,0.583,1.646,0.17c0.494-0.413,0.57-1.143,0.16-1.654
							c-0.398-0.499-1.139-0.573-1.635-0.167C104.01,71.006,103.938,71.742,104.342,72.244z"/>
						<path fill="#88CA90" d="M97.812,77.611c0.41,0.506,1.139,0.58,1.643,0.174c0.496-0.418,0.572-1.148,0.162-1.662
							c-0.4-0.496-1.141-0.572-1.635-0.166C97.479,76.367,97.406,77.109,97.812,77.611"/>
						<path fill="#88CA90" d="M97.812,77.611c0.41,0.506,1.139,0.58,1.643,0.174c0.496-0.418,0.572-1.148,0.162-1.662
							c-0.4-0.496-1.141-0.572-1.635-0.166C97.479,76.367,97.406,77.109,97.812,77.611z"/>
						<path fill="#88CA90" d="M91.277,82.975c0.414,0.508,1.141,0.586,1.639,0.172c0.498-0.416,0.576-1.143,0.168-1.654
							c-0.396-0.496-1.139-0.576-1.637-0.166C90.943,81.74,90.871,82.475,91.277,82.975"/>
						<path fill="#88CA90" d="M91.277,82.975c0.414,0.508,1.141,0.586,1.639,0.172c0.498-0.416,0.576-1.143,0.168-1.654
							c-0.396-0.496-1.139-0.576-1.637-0.166C90.943,81.74,90.871,82.475,91.277,82.975z"/>
						<path fill="#88CA90" d="M84.744,88.348c0.414,0.502,1.139,0.58,1.639,0.162c0.498-0.412,0.576-1.137,0.17-1.645
							c-0.402-0.504-1.139-0.584-1.639-0.174C84.41,87.109,84.336,87.846,84.744,88.348"/>
						<path fill="#88CA90" d="M84.744,88.348c0.414,0.502,1.139,0.58,1.639,0.162c0.498-0.412,0.576-1.137,0.17-1.645
							c-0.402-0.504-1.139-0.584-1.639-0.174C84.41,87.109,84.336,87.846,84.744,88.348z"/>
						<path fill="#88CA90" d="M78.215,93.713c0.41,0.504,1.135,0.578,1.637,0.162c0.498-0.408,0.574-1.137,0.17-1.643
							c-0.402-0.504-1.143-0.584-1.641-0.172C77.881,92.471,77.809,93.209,78.215,93.713"/>
						<path fill="#88CA90" d="M78.215,93.713c0.41,0.504,1.135,0.578,1.637,0.162c0.498-0.408,0.574-1.137,0.17-1.643
							c-0.402-0.504-1.143-0.584-1.641-0.172C77.881,92.471,77.809,93.209,78.215,93.713z"/>
						<path fill="#88CA90" d="M71.68,99.082c0.41,0.502,1.137,0.576,1.641,0.158c0.498-0.4,0.572-1.137,0.17-1.645
							c-0.406-0.502-1.141-0.582-1.643-0.168C71.346,97.84,71.271,98.578,71.68,99.082"/>
						<path fill="#88CA90" d="M71.68,99.082c0.41,0.502,1.137,0.576,1.641,0.158c0.498-0.4,0.572-1.137,0.17-1.645
							c-0.406-0.502-1.141-0.582-1.643-0.168C71.346,97.84,71.271,98.578,71.68,99.082z"/>
						<path fill="#88CA90" d="M103.738,78.475c0.412,0.512,1.145,0.58,1.646,0.17c0.49-0.408,0.576-1.15,0.16-1.656
							c-0.402-0.502-1.137-0.58-1.635-0.166C103.414,77.234,103.34,77.967,103.738,78.475"/>
						<path fill="#88CA90" d="M103.738,78.475c0.412,0.512,1.145,0.58,1.646,0.17c0.49-0.408,0.576-1.15,0.16-1.656
							c-0.402-0.502-1.137-0.58-1.635-0.166C103.414,77.234,103.34,77.967,103.738,78.475z"/>
						<path fill="#88CA90" d="M97.205,83.838c0.41,0.512,1.148,0.582,1.646,0.172c0.496-0.406,0.572-1.148,0.162-1.656
							c-0.406-0.502-1.137-0.578-1.637-0.162C96.879,82.6,96.803,83.336,97.205,83.838"/>
						<path fill="#88CA90" d="M97.205,83.838c0.41,0.512,1.148,0.582,1.646,0.172c0.496-0.406,0.572-1.148,0.162-1.656
							c-0.406-0.502-1.137-0.578-1.637-0.162C96.879,82.6,96.803,83.336,97.205,83.838z"/>
						<path fill="#88CA90" d="M90.674,89.209c0.408,0.512,1.146,0.582,1.643,0.168c0.498-0.408,0.574-1.148,0.164-1.658
							c-0.408-0.502-1.135-0.578-1.637-0.162C90.348,87.969,90.268,88.707,90.674,89.209"/>
						<path fill="#88CA90" d="M90.674,89.209c0.408,0.512,1.146,0.582,1.643,0.168c0.498-0.408,0.574-1.148,0.164-1.658
							c-0.408-0.502-1.135-0.578-1.637-0.162C90.348,87.969,90.268,88.707,90.674,89.209z"/>
						<path fill="#88CA90" d="M84.139,94.574c0.41,0.512,1.146,0.578,1.645,0.168c0.498-0.408,0.576-1.146,0.166-1.656
							c-0.41-0.498-1.141-0.574-1.641-0.16C83.812,93.33,83.732,94.072,84.139,94.574"/>
						<path fill="#88CA90" d="M84.139,94.574c0.41,0.512,1.146,0.578,1.645,0.168c0.498-0.408,0.576-1.146,0.166-1.656
							c-0.41-0.498-1.141-0.574-1.641-0.16C83.812,93.33,83.732,94.072,84.139,94.574z"/>
						<path fill="#88CA90" d="M77.605,99.943c0.41,0.506,1.146,0.578,1.645,0.17c0.49-0.416,0.578-1.152,0.164-1.664
							c-0.404-0.504-1.133-0.572-1.641-0.156C77.281,98.699,77.201,99.445,77.605,99.943"/>
						<path fill="#88CA90" d="M77.605,99.943c0.41,0.506,1.146,0.578,1.645,0.17c0.49-0.416,0.578-1.152,0.164-1.664
							c-0.404-0.504-1.133-0.572-1.641-0.156C77.281,98.699,77.201,99.445,77.605,99.943z"/>
						<path fill="#88CA90" d="M71.072,105.311c0.412,0.5,1.148,0.576,1.643,0.166c0.494-0.412,0.58-1.145,0.166-1.66
							c-0.406-0.498-1.137-0.574-1.643-0.156C70.746,104.062,70.668,104.807,71.072,105.311"/>
						<path fill="#88CA90" d="M71.072,105.311c0.412,0.5,1.148,0.576,1.643,0.166c0.494-0.412,0.58-1.145,0.166-1.66
							c-0.406-0.498-1.137-0.574-1.643-0.156C70.746,104.062,70.668,104.807,71.072,105.311z"/>
						<path fill="#88CA90" d="M109.914,79.139c0.412,0.506,1.145,0.586,1.641,0.172s0.572-1.146,0.166-1.658
							c-0.398-0.498-1.139-0.572-1.635-0.158C109.584,77.898,109.504,78.637,109.914,79.139"/>
						<path fill="#88CA90" d="M109.914,79.139c0.412,0.506,1.145,0.586,1.641,0.172s0.572-1.146,0.166-1.658
							c-0.398-0.498-1.139-0.572-1.635-0.158C109.584,77.898,109.504,78.637,109.914,79.139z"/>
						<path fill="#88CA90" d="M103.381,84.506c0.41,0.502,1.141,0.586,1.643,0.168c0.494-0.412,0.57-1.146,0.16-1.654
							c-0.396-0.502-1.137-0.572-1.633-0.158C103.053,83.268,102.971,84.002,103.381,84.506"/>
						<path fill="#88CA90" d="M103.381,84.506c0.41,0.502,1.141,0.586,1.643,0.168c0.494-0.412,0.57-1.146,0.16-1.654
							c-0.396-0.502-1.137-0.572-1.633-0.158C103.053,83.268,102.971,84.002,103.381,84.506z"/>
						<path fill="#88CA90" d="M96.848,89.873c0.41,0.504,1.145,0.586,1.645,0.17c0.494-0.418,0.566-1.148,0.156-1.656
							c-0.402-0.506-1.129-0.574-1.631-0.16C96.516,88.635,96.439,89.373,96.848,89.873"/>
						<path fill="#88CA90" d="M96.848,89.873c0.41,0.504,1.145,0.586,1.645,0.17c0.494-0.418,0.566-1.148,0.156-1.656
							c-0.402-0.506-1.129-0.574-1.631-0.16C96.516,88.635,96.439,89.373,96.848,89.873z"/>
						<path fill="#88CA90" d="M90.312,95.24c0.412,0.502,1.145,0.588,1.645,0.17c0.492-0.414,0.57-1.145,0.158-1.652
							c-0.4-0.506-1.133-0.58-1.633-0.168C89.979,94.002,89.906,94.734,90.312,95.24"/>
						<path fill="#88CA90" d="M90.312,95.24c0.412,0.502,1.145,0.588,1.645,0.17c0.492-0.414,0.57-1.145,0.158-1.652
							c-0.4-0.506-1.133-0.58-1.633-0.168C89.979,94.002,89.906,94.734,90.312,95.24z"/>
						<path fill="#88CA90" d="M83.779,100.605c0.41,0.508,1.141,0.586,1.643,0.174c0.494-0.42,0.574-1.148,0.162-1.658
							c-0.4-0.504-1.137-0.582-1.635-0.168C83.445,99.367,83.371,100.105,83.779,100.605"/>
						<path fill="#88CA90" d="M83.779,100.605c0.41,0.508,1.141,0.586,1.643,0.174c0.494-0.42,0.574-1.148,0.162-1.658
							c-0.4-0.504-1.137-0.582-1.635-0.168C83.445,99.367,83.371,100.105,83.779,100.605z"/>
						<path fill="#88CA90" d="M77.246,105.975c0.412,0.502,1.145,0.584,1.643,0.168c0.492-0.412,0.572-1.145,0.164-1.652
							c-0.404-0.506-1.139-0.582-1.637-0.17C76.912,104.732,76.838,105.471,77.246,105.975"/>
						<path fill="#88CA90" d="M77.246,105.975c0.412,0.502,1.145,0.584,1.643,0.168c0.492-0.412,0.572-1.145,0.164-1.652
							c-0.404-0.506-1.139-0.582-1.637-0.17C76.912,104.732,76.838,105.471,77.246,105.975z"/>
						<path fill="#88CA90" d="M109.307,85.369c0.418,0.514,1.148,0.574,1.654,0.17c0.488-0.414,0.566-1.15,0.152-1.656
							c-0.398-0.498-1.135-0.572-1.633-0.166C108.98,84.131,108.908,84.861,109.307,85.369"/>
						<path fill="#88CA90" d="M109.307,85.369c0.418,0.514,1.148,0.574,1.654,0.17c0.488-0.414,0.566-1.15,0.152-1.656
							c-0.398-0.498-1.135-0.572-1.633-0.166C108.98,84.131,108.908,84.861,109.307,85.369z"/>
						<path fill="#88CA90" d="M102.773,90.734c0.414,0.518,1.154,0.582,1.654,0.17c0.488-0.408,0.568-1.146,0.152-1.658
							c-0.402-0.492-1.137-0.57-1.635-0.162C102.445,89.496,102.371,90.23,102.773,90.734"/>
						<path fill="#88CA90" d="M102.773,90.734c0.414,0.518,1.154,0.582,1.654,0.17c0.488-0.408,0.568-1.146,0.152-1.658
							c-0.402-0.492-1.137-0.57-1.635-0.162C102.445,89.496,102.371,90.23,102.773,90.734z"/>
						<path fill="#88CA90" d="M96.242,96.104c0.408,0.51,1.145,0.576,1.645,0.168c0.496-0.408,0.574-1.152,0.16-1.658
							c-0.398-0.498-1.133-0.568-1.637-0.16C95.918,94.859,95.838,95.6,96.242,96.104"/>
						<path fill="#88CA90" d="M96.242,96.104c0.408,0.51,1.145,0.576,1.645,0.168c0.496-0.408,0.574-1.152,0.16-1.658
							c-0.398-0.498-1.133-0.568-1.637-0.16C95.918,94.859,95.838,95.6,96.242,96.104z"/>
						<path fill="#88CA90" d="M89.709,101.473c0.404,0.506,1.145,0.572,1.643,0.166c0.498-0.41,0.576-1.152,0.168-1.658
							c-0.406-0.5-1.139-0.572-1.645-0.162C89.379,100.225,89.301,100.965,89.709,101.473"/>
						<path fill="#88CA90" d="M89.709,101.473c0.404,0.506,1.145,0.572,1.643,0.166c0.498-0.41,0.576-1.152,0.168-1.658
							c-0.406-0.5-1.139-0.572-1.645-0.162C89.379,100.225,89.301,100.965,89.709,101.473z"/>
						<path fill="#88CA90" d="M83.176,106.836c0.406,0.508,1.143,0.576,1.641,0.168s0.578-1.15,0.172-1.656
							c-0.404-0.502-1.145-0.574-1.646-0.16C82.846,105.592,82.77,106.332,83.176,106.836"/>
						<path fill="#88CA90" d="M83.176,106.836c0.406,0.508,1.143,0.576,1.641,0.168s0.578-1.15,0.172-1.656
							c-0.404-0.502-1.145-0.574-1.646-0.16C82.846,105.592,82.77,106.332,83.176,106.836z"/>
						<path fill="#88CA90" d="M76.645,112.205c0.406,0.502,1.143,0.576,1.639,0.17c0.496-0.41,0.578-1.154,0.172-1.66
							c-0.41-0.496-1.143-0.576-1.648-0.158C76.312,110.957,76.242,111.695,76.645,112.205"/>
						<path fill="#88CA90" d="M76.645,112.205c0.406,0.502,1.143,0.576,1.639,0.17c0.496-0.41,0.578-1.154,0.172-1.66
							c-0.41-0.496-1.143-0.576-1.648-0.158C76.312,110.957,76.242,111.695,76.645,112.205z"/>
						<path fill="#88CA90" d="M115.48,86.035c0.414,0.504,1.146,0.576,1.643,0.168c0.496-0.414,0.58-1.15,0.172-1.66
							c-0.408-0.494-1.143-0.564-1.639-0.162C115.156,84.789,115.076,85.531,115.48,86.035"/>
						<path fill="#88CA90" d="M115.48,86.035c0.414,0.504,1.146,0.576,1.643,0.168c0.496-0.414,0.58-1.15,0.172-1.66
							c-0.408-0.494-1.143-0.564-1.639-0.162C115.156,84.789,115.076,85.531,115.48,86.035z"/>
						<path fill="#88CA90" d="M108.949,91.4c0.41,0.506,1.145,0.578,1.639,0.17c0.5-0.41,0.588-1.15,0.172-1.662
							c-0.404-0.496-1.143-0.568-1.639-0.158C108.619,90.156,108.543,90.904,108.949,91.4"/>
						<path fill="#88CA90" d="M108.949,91.4c0.41,0.506,1.145,0.578,1.639,0.17c0.5-0.41,0.588-1.15,0.172-1.662
							c-0.404-0.496-1.143-0.568-1.639-0.158C108.619,90.156,108.543,90.904,108.949,91.4z"/>
						<path fill="#88CA90" d="M102.418,96.766c0.406,0.508,1.141,0.586,1.641,0.172c0.496-0.414,0.578-1.154,0.166-1.66
							c-0.396-0.494-1.139-0.572-1.639-0.16C102.086,95.523,102.01,96.262,102.418,96.766"/>
						<path fill="#88CA90" d="M102.418,96.766c0.406,0.508,1.141,0.586,1.641,0.172c0.496-0.414,0.578-1.154,0.166-1.66
							c-0.396-0.494-1.139-0.572-1.639-0.16C102.086,95.523,102.01,96.262,102.418,96.766z"/>
						<path fill="#88CA90" d="M95.883,102.133c0.408,0.512,1.143,0.58,1.641,0.17c0.498-0.414,0.584-1.152,0.172-1.658
							c-0.402-0.498-1.145-0.57-1.641-0.162C95.555,100.889,95.473,101.629,95.883,102.133"/>
						<path fill="#88CA90" d="M95.883,102.133c0.408,0.512,1.143,0.58,1.641,0.17c0.498-0.414,0.584-1.152,0.172-1.658
							c-0.402-0.498-1.145-0.57-1.641-0.162C95.555,100.889,95.473,101.629,95.883,102.133z"/>
						<path fill="#88CA90" d="M89.35,107.5c0.408,0.508,1.145,0.586,1.645,0.172c0.494-0.414,0.576-1.152,0.164-1.66
							c-0.398-0.494-1.137-0.57-1.639-0.16C89.021,106.26,88.943,106.994,89.35,107.5"/>
						<path fill="#88CA90" d="M89.35,107.5c0.408,0.508,1.145,0.586,1.645,0.172c0.494-0.414,0.576-1.152,0.164-1.66
							c-0.398-0.494-1.137-0.57-1.639-0.16C89.021,106.26,88.943,106.994,89.35,107.5z"/>
						<path fill="#88CA90" d="M82.814,112.871c0.412,0.5,1.145,0.58,1.645,0.168c0.496-0.416,0.57-1.152,0.168-1.66
							c-0.408-0.496-1.143-0.576-1.641-0.162C82.484,111.625,82.412,112.361,82.814,112.871"/>
						<path fill="#88CA90" d="M82.814,112.871c0.412,0.5,1.145,0.58,1.645,0.168c0.496-0.416,0.57-1.152,0.168-1.66
							c-0.408-0.496-1.143-0.576-1.641-0.162C82.484,111.625,82.412,112.361,82.814,112.871z"/>
						<path fill="#88CA90" d="M114.879,92.264c0.41,0.504,1.145,0.574,1.645,0.162c0.496-0.404,0.566-1.148,0.166-1.652
							c-0.408-0.494-1.141-0.576-1.639-0.16C114.551,91.018,114.479,91.758,114.879,92.264"/>
						<path fill="#88CA90" d="M114.879,92.264c0.41,0.504,1.145,0.574,1.645,0.162c0.496-0.404,0.566-1.148,0.166-1.652
							c-0.408-0.494-1.141-0.576-1.639-0.16C114.551,91.018,114.479,91.758,114.879,92.264z"/>
						<path fill="#88CA90" d="M108.342,97.629c0.412,0.506,1.146,0.578,1.646,0.164c0.496-0.404,0.568-1.152,0.166-1.652
							c-0.406-0.5-1.137-0.572-1.637-0.162C108.02,96.387,107.938,97.123,108.342,97.629"/>
						<path fill="#88CA90" d="M108.342,97.629c0.412,0.506,1.146,0.578,1.646,0.164c0.496-0.404,0.568-1.152,0.166-1.652
							c-0.406-0.5-1.137-0.572-1.637-0.162C108.02,96.387,107.938,97.123,108.342,97.629z"/>
						<path fill="#88CA90" d="M101.812,102.996c0.408,0.512,1.141,0.578,1.641,0.17c0.496-0.408,0.574-1.15,0.168-1.656
							c-0.404-0.498-1.139-0.574-1.637-0.164S101.408,102.494,101.812,102.996"/>
						<path fill="#88CA90" d="M101.812,102.996c0.408,0.512,1.141,0.578,1.641,0.17c0.496-0.408,0.574-1.15,0.168-1.656
							c-0.404-0.498-1.139-0.574-1.637-0.164S101.408,102.494,101.812,102.996z"/>
						<path fill="#88CA90" d="M95.277,108.359c0.416,0.51,1.145,0.578,1.643,0.17c0.494-0.408,0.576-1.152,0.17-1.654
							c-0.408-0.502-1.141-0.572-1.641-0.164C94.955,107.121,94.873,107.859,95.277,108.359"/>
						<path fill="#88CA90" d="M95.277,108.359c0.416,0.51,1.145,0.578,1.643,0.17c0.494-0.408,0.576-1.152,0.17-1.654
							c-0.408-0.502-1.141-0.572-1.641-0.164C94.955,107.121,94.873,107.859,95.277,108.359z"/>
						<path fill="#88CA90" d="M88.744,113.725c0.414,0.514,1.143,0.584,1.643,0.172c0.496-0.404,0.574-1.145,0.168-1.652
							c-0.402-0.502-1.139-0.572-1.637-0.164S88.338,113.221,88.744,113.725"/>
						<path fill="#88CA90" d="M88.744,113.725c0.414,0.514,1.143,0.584,1.643,0.172c0.496-0.404,0.574-1.145,0.168-1.652
							c-0.402-0.502-1.139-0.572-1.637-0.164S88.338,113.221,88.744,113.725z"/>
						<path fill="#88CA90" d="M82.213,119.092c0.412,0.512,1.143,0.584,1.641,0.174c0.492-0.406,0.574-1.148,0.164-1.654
							c-0.402-0.498-1.137-0.58-1.633-0.164C81.885,117.852,81.807,118.59,82.213,119.092"/>
						<path fill="#88CA90" d="M82.213,119.092c0.412,0.512,1.143,0.584,1.641,0.174c0.492-0.406,0.574-1.148,0.164-1.654
							c-0.402-0.498-1.137-0.58-1.633-0.164C81.885,117.852,81.807,118.59,82.213,119.092z"/>
						<path fill="#88CA90" d="M121.057,92.926c0.402,0.51,1.145,0.582,1.637,0.168c0.498-0.41,0.578-1.145,0.166-1.652
							c-0.4-0.506-1.139-0.578-1.633-0.162C120.723,91.684,120.65,92.424,121.057,92.926"/>
						<path fill="#88CA90" d="M121.057,92.926c0.402,0.51,1.145,0.582,1.637,0.168c0.498-0.41,0.578-1.145,0.166-1.652
							c-0.4-0.506-1.139-0.578-1.633-0.162C120.723,91.684,120.65,92.424,121.057,92.926z"/>
						<path fill="#88CA90" d="M114.521,98.293c0.406,0.508,1.141,0.58,1.639,0.17c0.496-0.41,0.576-1.146,0.166-1.654
							c-0.404-0.502-1.133-0.574-1.635-0.166C114.193,97.055,114.115,97.787,114.521,98.293"/>
						<path fill="#88CA90" d="M114.521,98.293c0.406,0.508,1.141,0.58,1.639,0.17c0.496-0.41,0.576-1.146,0.166-1.654
							c-0.404-0.502-1.133-0.574-1.635-0.166C114.193,97.055,114.115,97.787,114.521,98.293z"/>
						<path fill="#88CA90" d="M107.988,103.66c0.404,0.506,1.141,0.578,1.639,0.17c0.498-0.414,0.574-1.148,0.166-1.654
							c-0.402-0.504-1.135-0.578-1.635-0.164C107.658,102.424,107.584,103.152,107.988,103.66"/>
						<path fill="#88CA90" d="M107.988,103.66c0.404,0.506,1.141,0.578,1.639,0.17c0.498-0.414,0.574-1.148,0.166-1.654
							c-0.402-0.504-1.135-0.578-1.635-0.164C107.658,102.424,107.584,103.152,107.988,103.66z"/>
						<path fill="#88CA90" d="M101.453,109.029c0.408,0.506,1.141,0.576,1.639,0.168c0.5-0.41,0.58-1.148,0.168-1.658
							c-0.404-0.496-1.135-0.576-1.637-0.164C101.127,107.789,101.053,108.523,101.453,109.029"/>
						<path fill="#88CA90" d="M101.453,109.029c0.408,0.506,1.141,0.576,1.639,0.168c0.5-0.41,0.58-1.148,0.168-1.658
							c-0.404-0.496-1.135-0.576-1.637-0.164C101.127,107.789,101.053,108.523,101.453,109.029z"/>
						<path fill="#88CA90" d="M94.92,114.396c0.402,0.508,1.135,0.574,1.639,0.168c0.498-0.412,0.578-1.15,0.17-1.658
							c-0.406-0.502-1.141-0.572-1.637-0.16C94.592,113.158,94.518,113.891,94.92,114.396"/>
						<path fill="#88CA90" d="M94.92,114.396c0.402,0.508,1.135,0.574,1.639,0.168c0.498-0.412,0.578-1.15,0.17-1.658
							c-0.406-0.502-1.141-0.572-1.637-0.16C94.592,113.158,94.518,113.891,94.92,114.396z"/>
						<path fill="#88CA90" d="M88.387,119.766c0.408,0.504,1.139,0.574,1.639,0.166c0.5-0.412,0.58-1.146,0.17-1.658
							c-0.408-0.494-1.143-0.574-1.639-0.162C88.055,118.521,87.984,119.258,88.387,119.766"/>
						<path fill="#88CA90" d="M88.387,119.766c0.408,0.504,1.139,0.574,1.639,0.166c0.5-0.412,0.58-1.146,0.17-1.658
							c-0.408-0.494-1.143-0.574-1.639-0.162C88.055,118.521,87.984,119.258,88.387,119.766z"/>
						<path fill="#88CA90" d="M120.449,99.162c0.412,0.504,1.141,0.572,1.643,0.158c0.494-0.408,0.576-1.145,0.168-1.652
							c-0.41-0.502-1.145-0.576-1.639-0.166C120.125,97.916,120.045,98.652,120.449,99.162"/>
						<path fill="#88CA90" d="M120.449,99.162c0.412,0.504,1.141,0.572,1.643,0.158c0.494-0.408,0.576-1.145,0.168-1.652
							c-0.41-0.502-1.145-0.576-1.639-0.166C120.125,97.916,120.045,98.652,120.449,99.162z"/>
						<path fill="#88CA90" d="M113.918,104.525c0.408,0.506,1.137,0.574,1.639,0.162c0.494-0.408,0.576-1.143,0.168-1.652
							c-0.406-0.502-1.145-0.576-1.643-0.168C113.586,103.279,113.508,104.018,113.918,104.525"/>
						<path fill="#88CA90" d="M113.918,104.525c0.408,0.506,1.137,0.574,1.639,0.162c0.494-0.408,0.576-1.143,0.168-1.652
							c-0.406-0.502-1.145-0.576-1.643-0.168C113.586,103.279,113.508,104.018,113.918,104.525z"/>
						<path fill="#88CA90" d="M107.383,109.895c0.41,0.504,1.137,0.574,1.637,0.16c0.498-0.404,0.576-1.145,0.168-1.65
							c-0.402-0.506-1.139-0.572-1.639-0.166C107.051,108.648,106.977,109.387,107.383,109.895"/>
						<path fill="#88CA90" d="M107.383,109.895c0.41,0.504,1.137,0.574,1.637,0.16c0.498-0.404,0.576-1.145,0.168-1.65
							c-0.402-0.506-1.139-0.572-1.639-0.166C107.051,108.648,106.977,109.387,107.383,109.895z"/>
						<path fill="#88CA90" d="M100.852,115.254c0.408,0.51,1.139,0.58,1.637,0.168c0.496-0.404,0.576-1.148,0.166-1.65
							c-0.402-0.506-1.139-0.578-1.639-0.17C100.52,114.012,100.441,114.754,100.852,115.254"/>
						<path fill="#88CA90" d="M100.852,115.254c0.408,0.51,1.139,0.58,1.637,0.168c0.496-0.404,0.576-1.148,0.166-1.65
							c-0.402-0.506-1.139-0.578-1.639-0.17C100.52,114.012,100.441,114.754,100.852,115.254z"/>
						<path fill="#88CA90" d="M94.318,120.621c0.408,0.512,1.135,0.584,1.643,0.17c0.488-0.408,0.568-1.146,0.16-1.652
							c-0.402-0.506-1.143-0.576-1.641-0.166C93.982,119.381,93.914,120.125,94.318,120.621"/>
						<path fill="#88CA90" d="M94.318,120.621c0.408,0.512,1.135,0.584,1.643,0.17c0.488-0.408,0.568-1.146,0.16-1.652
							c-0.402-0.506-1.143-0.576-1.641-0.166C93.982,119.381,93.914,120.125,94.318,120.621z"/>
						<path fill="#88CA90" d="M87.785,125.986c0.41,0.51,1.137,0.582,1.643,0.172c0.49-0.412,0.57-1.145,0.16-1.65
							c-0.402-0.508-1.141-0.576-1.639-0.172C87.453,124.744,87.385,125.486,87.785,125.986"/>
						<path fill="#88CA90" d="M87.785,125.986c0.41,0.51,1.137,0.582,1.643,0.172c0.49-0.412,0.57-1.145,0.16-1.65
							c-0.402-0.508-1.141-0.576-1.639-0.172C87.453,124.744,87.385,125.486,87.785,125.986z"/>
					</g>
				</g>
			</g>
			<polygon fill="none" stroke="#58595B" stroke-width="1.581" stroke-miterlimit="10" points="49.762,27.967 46.611,19.362 
				26.197,35.986 33.824,41.095 95.4,117.719 98.553,126.326 118.967,109.701 111.34,104.59 			"/>
		</g>
	</g>
	<rect x="12.836" y="11.258" fill="none" width="114.324" height="122.484"/>
	<path fill="none" stroke="#4F5877" stroke-width="0.7843" stroke-miterlimit="10" d="M138.834,42.455l0.166-5.46
		c-2.371,0-4.359-1.547-5.084-3.686V29.8c0.725-2.136,2.713-3.683,5.084-3.683l-0.057-4.648c-2.301,0-4.25-1.453-5.027-3.494v-3.883
		c0.777-2.044,2.727-3.5,5.027-3.5l0.053-4.744h-5.08V0.332l-5.611,0.053c0,3.005-2.336,5.44-5.219,5.44
		c-2.881,0-5.215-2.435-5.215-5.44l-4.457-0.055c0,3.005-2.33,5.442-5.213,5.442s-5.219-2.437-5.219-5.442l-5.234-0.221
		c0,3.004-2.34,5.441-5.217,5.441c-2.883,0-5.221-2.437-5.221-5.441L82.859,0.22c0,3.003-2.334,5.44-5.215,5.44
		c-2.885,0-5.219-2.437-5.219-5.44l-5.917,0.053c0,3.007-2.337,5.442-5.219,5.442c-2.881,0-5.216-2.435-5.216-5.442l-4.453-0.107
		c0,3.006-2.336,5.439-5.216,5.439c-2.881,0-5.218-2.433-5.218-5.439L35.952,0c0,3.005-2.336,5.44-5.221,5.44
		c-2.877,0-5.212-2.435-5.212-5.44l-4.457,0.056c0,3.004-2.333,5.443-5.215,5.443c-2.88,0-5.216-2.439-5.216-5.443l-4.55-0.054
		v5.845H1l0.055,4.744c2.298,0,4.248,1.457,5.025,3.497v3.887c-0.778,2.041-2.728,3.494-5.025,3.494l-0.057,4.648
		c2.368,0,4.355,1.547,5.082,3.681v3.512c-0.727,2.138-2.714,3.685-5.082,3.685l0.166,5.46c2.195,0,4.074,1.326,4.917,3.224v4.436
		c-0.843,1.895-2.722,3.221-4.917,3.221l0.107,4.643c2.113,0,3.924,1.235,4.809,3.02v4.841c-0.885,1.784-2.696,3.021-4.809,3.021
		l-0.055,6.171c2.155,0,4,1.281,4.864,3.123v4.633c-0.864,1.842-2.709,3.123-4.864,3.123l-0.109,4.643
		c2.235,0,4.155,1.375,4.973,3.332v4.221c-0.817,1.955-2.737,3.33-4.973,3.33l0.219,5.461c2.072,0,3.849,1.189,4.753,2.916v5.047
		c-0.904,1.727-2.682,2.916-4.753,2.916l0.054,4.646c2.031,0,3.779,1.145,4.699,2.814v5.244c-0.92,1.674-2.668,2.82-4.699,2.82
		l-0.053,5.852h4.752V145l4.55-0.057c0-3.004,2.336-5.441,5.216-5.441c2.882,0,5.215,2.438,5.215,5.441L25.519,145
		c0-3.006,2.335-5.439,5.212-5.439c2.885,0,5.221,2.434,5.221,5.439l5.236-0.166c0-3.006,2.337-5.439,5.218-5.439
		c2.88,0,5.216,2.434,5.216,5.439l4.453-0.107c0-3.006,2.335-5.443,5.216-5.443c2.882,0,5.219,2.438,5.219,5.443l5.917,0.055
		c0-3.006,2.334-5.439,5.219-5.439c2.881,0,5.215,2.434,5.215,5.439l4.451,0.109c0-3.002,2.338-5.439,5.221-5.439
		c2.877,0,5.217,2.438,5.217,5.439l5.234-0.223c0-3.004,2.336-5.441,5.219-5.441s5.213,2.438,5.213,5.441l4.457-0.053
		c0-3.004,2.334-5.441,5.215-5.441c2.883,0,5.219,2.438,5.219,5.441l5.611,0.053v-5.516h4.754l-0.055-5.852
		c-2.031,0-3.779-1.146-4.699-2.822v-5.24c0.92-1.672,2.668-2.816,4.699-2.816l0.055-4.646c-2.072,0-3.85-1.191-4.754-2.916v-5.047
		c0.904-1.725,2.682-2.916,4.754-2.916l0.221-5.461c-2.238,0-4.158-1.375-4.975-3.332v-4.215c0.816-1.961,2.736-3.336,4.975-3.336
		l-0.111-4.643c-2.154,0-4-1.281-4.863-3.123v-4.631c0.863-1.844,2.709-3.125,4.863-3.125l-0.053-6.171
		c-2.115,0-3.926-1.237-4.811-3.022V61c0.885-1.784,2.695-3.021,4.811-3.021l0.107-4.643c-2.197,0-4.076-1.327-4.918-3.223v-4.434
		C134.758,43.783,136.637,42.455,138.834,42.455z"/>
	
		<rect x="12.836" y="11.258" fill="none" stroke="#4F5877" stroke-width="1.5687" stroke-miterlimit="10" width="114.324" height="122.484"/>
	<ellipse fill="#58595B" cx="103.861" cy="32.408" rx="19.021" ry="19.18"/>
	<path fill="#FFFFFF" d="M90.875,36.138c0.404,1.458,2.379,2.008,3.682,2.132c0.176,0.018,0.369,0.035,0.547,0.035v-5.08
		c-2.273-0.196-4.527-0.479-4.527-2.843c0-1.722,1.691-2.593,3.152-2.894c0.459-0.106,0.898-0.16,1.375-0.16v-1.03
		c0-0.354,0.492-0.354,0.492,0v1.03c1.639,0.072,3.734,0.533,4.352,2.219c0.156,0.445-0.389,0.535-0.512,0.214
		c-0.527-1.527-2.377-1.846-3.84-1.884v4.868c2.361,0.195,4.756,0.408,4.756,2.771c0,2.521-2.678,3.268-4.756,3.321v1.048
		c0,0.319-0.492,0.319-0.492,0V38.82c-1.779-0.054-4.229-0.621-4.756-2.521C90.24,35.925,90.752,35.764,90.875,36.138z
		 M95.104,27.877c-0.107,0-0.213,0-0.318,0c-1.252,0.091-3.064,0.587-3.521,1.938c-0.072,0.195-0.107,0.39-0.107,0.604
		c0,1.812,1.885,2.077,3.947,2.273V27.877z M95.596,38.305c1.709-0.035,4.174-0.675,4.174-2.771c0-1.882-2.025-2.096-4.174-2.274
		V38.305z"/>
	<path fill="#FFFFFF" d="M106.59,25.009c0.105-0.149,0.316-0.236,0.486-0.172c0.213,0.065,0.316,0.235,0.316,0.407v13.342
		c0,0.488-0.676,0.488-0.676,0V25.882l-2.875,4.029c-0.295,0.428-0.846,0.043-0.549-0.363L106.59,25.009z"/>
	<path fill="#FFFFFF" d="M113.422,25.009c0.105-0.149,0.316-0.236,0.486-0.172c0.211,0.065,0.316,0.235,0.316,0.407v13.342
		c0,0.488-0.678,0.488-0.678,0V25.882l-2.873,4.029c-0.297,0.428-0.846,0.043-0.551-0.363L113.422,25.009z"/>
	<path fill="#4F5877" d="M49.08,104.373l1.406-0.064h5.031c0.384,0,0.384,0.5,0,0.5H48.76c-0.127,0-0.255-0.098-0.303-0.227
		c-0.032-0.129,0.016-0.273,0.127-0.354c1.693-1.258,3.418-2.514,5.095-3.77c1.006-0.74,1.534-1.74,1.357-2.996
		c-0.208-1.611-1.421-2.4-2.955-2.4c-1.565,0-2.763,0.773-2.987,2.4c-0.016,0.129-0.032,0.291-0.032,0.436
		c0,0.273-0.479,0.258-0.479,0c0-0.178,0.016-0.355,0.032-0.516c0.272-1.9,1.677-2.852,3.482-2.852c1.741,0,3.194,0.982,3.45,2.852
		c0.224,1.402-0.367,2.561-1.517,3.414l-3.786,2.834L49.08,104.373z"/>
	<path fill="#4F5877" d="M63.58,94.758c0-0.129,0.095-0.242,0.239-0.242c0.128,0,0.24,0.113,0.24,0.242v9.809
		c0,0.354-0.479,0.354-0.479,0.016v-2.223h-6.07c-0.416,0-0.591-0.307-0.368-0.66l4.169-7.15c0.176-0.291,0.607-0.066,0.432,0.256
		l-4.185,7.072h6.022V94.758z"/>
	<path fill="#4F5877" d="M25.172,119.77c0.415,0,0.415,0.516,0,0.516h-2.22v4.943c0,1.16,0.192,2.352,1.677,2.352
		c0.304,0,0.735-0.113,0.958-0.24c0.336-0.162,0.639,0.256,0.208,0.482c-0.399,0.209-0.766,0.273-1.166,0.273
		c-1.789,0-2.22-1.369-2.22-2.867v-4.943h-1.486c-0.431,0-0.431-0.516,0-0.516h1.486v-2.062c0-0.354,0.543-0.338,0.543,0v2.062
		H25.172z"/>
	<path fill="#4F5877" d="M31.064,119.656c0.687,0.016,1.341,0.178,1.917,0.516c0.527,0.354,0.926,0.854,1.166,1.498v-1.627
		c0-0.178,0.096-0.291,0.271-0.291c0.175,0,0.288,0.113,0.288,0.291v7.715c0,0.176-0.112,0.289-0.288,0.289
		c-0.176,0-0.271-0.113-0.271-0.289v-1.627c-0.24,0.645-0.639,1.143-1.166,1.498c-1.006,0.596-2.284,0.74-3.499,0.242
		c-1.725-0.711-2.587-2.305-2.54-4.189c0.048-1.625,0.911-3.123,2.428-3.719C29.898,119.736,30.457,119.641,31.064,119.656z
		 M34.146,124.6v-1.4c-0.063-1.176-0.607-2.143-1.662-2.658c-0.463-0.209-0.926-0.305-1.421-0.322
		c-1.358-0.016-2.732,0.709-3.274,2.047c-0.176,0.418-0.272,0.934-0.288,1.4c-0.048,1.24,0.367,2.385,1.405,3.223
		c0.559,0.434,1.246,0.676,1.964,0.723c0.56,0.018,1.087-0.111,1.613-0.354C33.54,126.742,34.083,125.777,34.146,124.6z"/>
	<path fill="#4F5877" d="M51.649,123.184c-0.032-1.98-1.901-3.287-3.865-2.787c-1.629,0.42-2.748,1.98-2.748,3.672v3.721
		c0,0.178-0.111,0.291-0.287,0.291s-0.288-0.113-0.288-0.291v-4.316c0-1.078-0.447-2.158-1.357-2.721
		c-0.719-0.436-1.646-0.564-2.46-0.355c-1.629,0.42-2.779,1.98-2.779,3.672v3.721c0,0.387-0.559,0.387-0.559,0v-7.779
		c0-0.145,0.127-0.273,0.271-0.273c0.176,0,0.287,0.129,0.287,0.273v2.385c0.4-1.434,1.502-2.238,2.636-2.545
		c0.958-0.242,2.044-0.098,2.892,0.418c0.702,0.436,1.31,1.08,1.501,2.369c0.447-1.676,1.486-2.465,2.748-2.787
		c2.029-0.516,4.568,0.74,4.568,3.285v4.654c0,0.178-0.112,0.291-0.288,0.291c-0.176,0-0.271-0.113-0.271-0.291V123.184z"/>
	<path fill="#4F5877" d="M58.414,128.145c-1.326-0.033-2.556-0.678-3.083-1.934v4.654c0,0.178-0.095,0.291-0.271,0.291
		c-0.175,0-0.287-0.113-0.287-0.291V120.01c0-0.176,0.112-0.289,0.287-0.289c0.176,0,0.271,0.113,0.271,0.289v1.596
		c0.24-0.645,0.639-1.08,1.166-1.434c1.007-0.598,2.284-0.742,3.499-0.242c1.725,0.709,2.587,2.303,2.54,4.188
		c-0.048,1.627-0.911,3.125-2.428,3.721C59.58,128.062,59.021,128.16,58.414,128.145z M55.331,123.199v1.4
		c0.112,1.66,1.294,2.916,3.083,2.98c1.358,0.016,2.731-0.709,3.274-2.045c0.176-0.42,0.272-0.936,0.288-1.402
		c0.048-1.24-0.368-2.383-1.405-3.221c-0.56-0.436-1.246-0.676-1.965-0.725c-0.56-0.016-1.086,0.113-1.613,0.354
		C55.938,121.057,55.396,122.023,55.331,123.199z"/>
	<path fill="#4F5877" d="M65.103,126.646c-0.703-0.854-1.022-1.869-0.958-3.076c0.144-1.723,1.198-3.303,2.923-3.785
		c0.735-0.193,1.613-0.211,2.412,0c1.724,0.482,2.794,2.062,2.939,3.785c0.064,1.207-0.256,2.223-0.959,3.076
		c-0.781,0.934-1.916,1.434-3.177,1.434C67.019,128.08,65.885,127.58,65.103,126.646z M67.259,120.332
		c-2.476,0.66-3.339,3.994-1.709,5.959c0.654,0.791,1.66,1.24,2.731,1.24c1.086,0,2.107-0.449,2.763-1.24
		c1.629-1.965,0.734-5.299-1.742-5.959C68.665,120.172,67.914,120.156,67.259,120.332z"/>
	<path fill="#4F5877" d="M81.678,123.184c0-2.094-1.932-3.414-3.816-2.916c-1.645,0.418-2.748,1.98-2.797,3.672v3.85
		c0,0.178-0.096,0.291-0.27,0.291c-0.176,0-0.289-0.113-0.289-0.291v-7.779c0-0.145,0.113-0.273,0.289-0.273
		c0.174,0,0.27,0.113,0.27,0.289v2.223c0.369-1.352,1.471-2.205,2.621-2.512c2.123-0.547,4.553,0.725,4.553,3.447v4.605
		c0,0.178-0.096,0.291-0.271,0.291s-0.289-0.113-0.289-0.291V123.184z"/>
	<path fill="#4F5877" d="M84.613,126.1c0.207,0.998,1.725,1.465,3.131,1.465c0.959,0,3.002-0.404,3.002-1.869
		c0-2.834-6.549-0.24-6.549-3.719c0-1.547,1.9-2.352,3.387-2.352c1.215,0,2.908,0.209,3.451,1.641
		c0.111,0.451-0.416,0.549-0.527,0.211c-0.447-1.209-2.045-1.32-2.924-1.32c-1.15,0-2.844,0.498-2.844,1.82
		c0,2.721,6.566,0.209,6.566,3.719c0,1.934-2.27,2.385-3.562,2.385c-1.311,0-3.338-0.322-3.641-1.885
		C83.975,125.777,84.564,125.664,84.613,126.1z"/>
</g>
</svg>
