<?xml version="1.0" encoding="utf-8"?>
<!-- Generator: Adobe Illustrator 15.1.0, SVG Export Plug-In . SVG Version: 6.00 Build 0)  -->
<!DOCTYPE svg PUBLIC "-//W3C//DTD SVG 1.1//EN" "http://www.w3.org/Graphics/SVG/1.1/DTD/svg11.dtd">
<svg version="1.1" id="Capa_1" xmlns="http://www.w3.org/2000/svg" xmlns:xlink="http://www.w3.org/1999/xlink" x="0px" y="0px"
	 width="138px" height="144px" viewBox="0 0 138 144" enable-background="new 0 0 138 144" xml:space="preserve">
<g>
	<g>
		<g>
			<defs>
				<rect id="SVGID_1_" x="12.831" y="11.539" width="113.437" height="120.657"/>
			</defs>
			<clipPath id="SVGID_2_">
				<use xlink:href="#SVGID_1_"  overflow="visible"/>
			</clipPath>
		</g>
		<path fill="none" stroke="#505978" stroke-linecap="round" stroke-linejoin="round" stroke-miterlimit="10" d="M137.848,42.271
			l0.164-5.38c-2.35,0-4.322-1.524-5.044-3.631v-3.457c0.722-2.104,2.694-3.628,5.044-3.628l-0.056-4.579
			c-2.28,0-4.216-1.433-4.988-3.443v-3.825c0.772-2.013,2.708-3.448,4.988-3.448l0.054-4.673h-5.042V0.774L127.4,0.827
			c0,2.96-2.318,5.359-5.178,5.359c-2.857,0-5.172-2.399-5.172-5.359l-4.423-0.054c0,2.96-2.314,5.361-5.174,5.361
			s-5.177-2.401-5.177-5.361l-5.196-0.217c0,2.958-2.318,5.359-5.177,5.359s-5.178-2.401-5.178-5.359L82.31,0.664
			c0,2.958-2.315,5.359-5.174,5.359c-2.862,0-5.178-2.401-5.178-5.359l-5.872,0.052c0,2.962-2.317,5.361-5.177,5.361
			c-2.859,0-5.176-2.399-5.176-5.361l-4.417-0.104c0,2.96-2.317,5.357-5.177,5.357c-2.857,0-5.177-2.397-5.177-5.357l-5.195-0.165
			c0,2.96-2.318,5.359-5.18,5.359c-2.854,0-5.171-2.399-5.171-5.359l-4.423,0.056c0,2.958-2.314,5.361-5.174,5.361
			c-2.858,0-5.177-2.403-5.177-5.361L6.128,0.449v5.758H1.087l0.054,4.673c2.28,0,4.215,1.435,4.986,3.444v3.829
			c-0.771,2.01-2.707,3.442-4.986,3.442l-0.056,4.579c2.349,0,4.321,1.523,5.042,3.626v3.459c-0.721,2.106-2.693,3.63-5.042,3.63
			l0.164,5.38c2.178,0,4.042,1.305,4.878,3.175v4.37c-0.836,1.866-2.7,3.173-4.878,3.173l0.106,4.574
			c2.097,0,3.895,1.217,4.772,2.975v4.769c-0.878,1.758-2.675,2.976-4.772,2.976l-0.053,6.08c2.137,0,3.967,1.263,4.825,3.078v4.562
			c-0.858,1.814-2.688,3.076-4.825,3.076L1.194,89.65c2.219,0,4.123,1.355,4.934,3.283v4.156c-0.811,1.927-2.715,3.282-4.934,3.282
			l0.217,5.378c2.056,0,3.819,1.171,4.717,2.873v4.972c-0.897,1.702-2.661,2.872-4.717,2.872l0.054,4.577
			c2.015,0,3.75,1.127,4.663,2.773v5.167c-0.913,1.647-2.647,2.775-4.663,2.775l-0.052,5.766h4.715v5.76l4.514-0.055
			c0-2.96,2.319-5.36,5.177-5.36c2.859,0,5.174,2.4,5.174,5.36l4.423,0.056c0-2.959,2.317-5.357,5.171-5.357
			c2.862,0,5.18,2.398,5.18,5.357l5.195-0.164c0-2.961,2.32-5.358,5.177-5.358c2.859,0,5.177,2.397,5.177,5.358l4.417-0.106
			c0-2.96,2.317-5.36,5.176-5.36c2.86,0,5.177,2.4,5.177,5.36l5.872,0.054c0-2.959,2.315-5.358,5.178-5.358
			c2.858,0,5.174,2.399,5.174,5.358l4.417,0.109c0-2.958,2.319-5.358,5.178-5.358s5.177,2.4,5.177,5.358l5.196-0.219
			c0-2.96,2.317-5.36,5.177-5.36s5.174,2.4,5.174,5.36l4.423-0.053c0-2.96,2.314-5.36,5.172-5.36c2.859,0,5.178,2.4,5.178,5.36
			l5.567,0.053v-5.435h4.717l-0.052-5.766c-2.017,0-3.75-1.128-4.665-2.777v-5.164c0.915-1.647,2.648-2.774,4.665-2.774l0.054-4.577
			c-2.056,0-3.821-1.172-4.719-2.872v-4.972c0.897-1.7,2.663-2.873,4.719-2.873l0.219-5.378c-2.221,0-4.125-1.355-4.938-3.283
			v-4.153c0.812-1.93,2.717-3.285,4.938-3.285l-0.11-4.573c-2.137,0-3.968-1.262-4.827-3.076v-4.562
			c0.859-1.815,2.69-3.078,4.827-3.078l-0.053-6.08c-2.098,0-3.896-1.218-4.774-2.976v-4.767c0.879-1.758,2.677-2.977,4.774-2.977
			l0.105-4.574c-2.179,0-4.044-1.307-4.88-3.175v-4.368C133.804,43.578,135.669,42.271,137.848,42.271z"/>
		
			<rect x="12.831" y="11.539" fill="#E7E9ED" stroke="#505978" stroke-width="2" stroke-miterlimit="10" width="113.437" height="120.657"/>
	</g>
	<g>
		<g>
			<path fill="#FCE9A1" stroke="#505978" stroke-width="1.0948" stroke-miterlimit="10" d="M118.328,99.352
				c0.235,0.859-0.269,1.747-1.127,1.982l-56.127,15.447c-0.857,0.236-1.744-0.268-1.981-1.128l-13.623-49.61
				c-0.236-0.859,0.269-1.746,1.126-1.984l56.127-15.445c0.857-0.236,1.744,0.27,1.98,1.128L118.328,99.352z"/>
			
				<line fill="none" stroke="#505978" stroke-width="1.2756" stroke-miterlimit="10" x1="87.112" y1="52.91" x2="101.59" y2="105.632"/>
			
				<rect x="88.566" y="79.723" transform="matrix(0.9642 -0.2653 0.2653 0.9642 -18.2016 28.2576)" fill="#FCF9F0" width="13.893" height="3.581"/>
		</g>
		<g>
			<path fill="#AAA4D1" stroke="#505978" stroke-miterlimit="10" d="M76.85,98.71c-0.211,0.866-1.083,1.396-1.948,1.186
				L18.349,86.095c-0.865-0.21-1.395-1.081-1.184-1.948l12.171-49.988c0.21-0.864,1.082-1.396,1.946-1.186l56.554,13.8
				c0.864,0.212,1.395,1.084,1.184,1.95L76.85,98.71z"/>
			
				<line fill="none" stroke="#505978" stroke-width="1.2756" stroke-miterlimit="10" x1="72.105" y1="42.935" x2="59.172" y2="96.057"/>
			
				<rect x="58.619" y="70.229" transform="matrix(0.9715 0.237 -0.237 0.9715 18.9368 -13.4872)" fill="#FCF9F0" width="13.894" height="3.583"/>
		</g>
	</g>
</g>
</svg>
