<?xml version="1.0" encoding="utf-8"?>
<!-- Generator: Adobe Illustrator 15.1.0, SVG Export Plug-In . SVG Version: 6.00 Build 0)  -->
<!DOCTYPE svg PUBLIC "-//W3C//DTD SVG 1.1//EN" "http://www.w3.org/Graphics/SVG/1.1/DTD/svg11.dtd">
<svg version="1.1" id="Capa_1" xmlns="http://www.w3.org/2000/svg" xmlns:xlink="http://www.w3.org/1999/xlink" x="0px" y="0px"
	 width="139px" height="144px" viewBox="0 0 139 144" enable-background="new 0 0 139 144" xml:space="preserve">
<g>
	<g>
		<defs>
			<rect id="SVGID_1_" x="11.836" y="11.104" width="114.325" height="120.793"/>
		</defs>
		<clipPath id="SVGID_2_">
			<use xlink:href="#SVGID_1_"  overflow="visible"/>
		</clipPath>
	</g>
	
		<path fill="none" stroke="#4F5877" stroke-width="0.9951" stroke-linecap="round" stroke-linejoin="round" stroke-miterlimit="10" d="
		M137.832,41.871l0.167-5.387c-2.369,0-4.357-1.525-5.084-3.635v-3.46c0.727-2.107,2.715-3.633,5.084-3.633l-0.059-4.583
		c-2.298,0-4.248-1.434-5.025-3.447v-3.829c0.777-2.016,2.728-3.452,5.025-3.452l0.057-4.679h-5.082V0.328l-5.612,0.052
		c0,2.963-2.336,5.365-5.218,5.365c-2.88,0-5.212-2.402-5.212-5.365l-4.458-0.054c0,2.963-2.331,5.367-5.214,5.367
		c-2.882,0-5.217-2.404-5.217-5.367l-5.237-0.217c0,2.961-2.337,5.365-5.218,5.365c-2.88,0-5.218-2.404-5.218-5.365l-4.452,0.109
		c0,2.961-2.335,5.365-5.215,5.365c-2.885,0-5.218-2.403-5.218-5.365L65.509,0.27c0,2.965-2.335,5.367-5.218,5.367
		c-2.881,0-5.217-2.401-5.217-5.367l-4.452-0.104c0,2.963-2.335,5.363-5.217,5.363c-2.879,0-5.217-2.4-5.217-5.363L34.952,0
		c0,2.964-2.336,5.365-5.22,5.365c-2.877,0-5.212-2.401-5.212-5.365l-4.458,0.056c0,2.962-2.333,5.366-5.214,5.366
		c-2.88,0-5.217-2.404-5.217-5.366L5.082,0.002v5.764h-5.08l0.054,4.679c2.298,0,4.248,1.436,5.026,3.448v3.833
		c-0.778,2.012-2.728,3.446-5.026,3.446L0,25.756c2.368,0,4.354,1.526,5.082,3.631v3.463C4.354,34.959,2.367,36.484,0,36.484
		l0.165,5.387c2.195,0,4.074,1.306,4.917,3.178v4.375c-0.843,1.869-2.722,3.177-4.917,3.177l0.107,4.579
		c2.114,0,3.925,1.218,4.81,2.978v4.774c-0.885,1.759-2.696,2.978-4.81,2.978l-0.053,6.087c2.154,0,3.998,1.264,4.863,3.08v4.57
		c-0.865,1.814-2.709,3.078-4.863,3.078l-0.11,4.58c2.236,0,4.155,1.355,4.973,3.287v4.16c-0.818,1.928-2.737,3.285-4.973,3.285
		l0.219,5.385c2.072,0,3.85,1.172,4.754,2.877v4.977c-0.904,1.703-2.682,2.875-4.754,2.875l0.055,4.582
		c2.031,0,3.779,1.129,4.699,2.777v5.172c-0.92,1.65-2.668,2.779-4.699,2.779l-0.053,5.771h4.752v5.766l4.549-0.053
		c0-2.965,2.337-5.367,5.217-5.367c2.882,0,5.214,2.402,5.214,5.367l4.458,0.053c0-2.961,2.335-5.361,5.212-5.361
		c2.884,0,5.22,2.4,5.22,5.361l5.236-0.162c0-2.963,2.338-5.365,5.217-5.365c2.882,0,5.217,2.402,5.217,5.365l4.452-0.107
		c0-2.963,2.335-5.365,5.217-5.365c2.882,0,5.218,2.402,5.218,5.365l5.917,0.055c0-2.963,2.333-5.365,5.218-5.365
		c2.88,0,5.215,2.402,5.215,5.365l4.452,0.109c0-2.963,2.338-5.365,5.218-5.365c2.881,0,5.218,2.402,5.218,5.365l5.237-0.219
		c0-2.965,2.335-5.367,5.217-5.367c2.883,0,5.214,2.402,5.214,5.367l4.458-0.053c0-2.965,2.332-5.367,5.212-5.367
		c2.882,0,5.218,2.402,5.218,5.367l5.612,0.053v-5.441h4.754l-0.052-5.771c-2.032,0-3.779-1.129-4.702-2.781v-5.17
		c0.923-1.648,2.67-2.777,4.702-2.777l0.054-4.582c-2.072,0-3.851-1.174-4.756-2.875V108.3c0.905-1.703,2.684-2.877,4.756-2.877
		l0.22-5.385c-2.238,0-4.157-1.357-4.976-3.287v-4.156c0.818-1.934,2.737-3.289,4.976-3.289l-0.11-4.58
		c-2.154,0-3.999-1.264-4.865-3.078v-4.57c0.866-1.816,2.711-3.08,4.865-3.08l-0.055-6.087c-2.113,0-3.925-1.219-4.811-2.98V60.16
		c0.886-1.76,2.697-2.98,4.811-2.98l0.106-4.579c-2.194,0-4.076-1.308-4.917-3.179v-4.373
		C133.756,43.179,135.638,41.871,137.832,41.871z"/>
	
		<rect x="11.836" y="11.104" fill="#FACBC1" stroke="#4F5877" stroke-width="1.9903" stroke-miterlimit="10" width="114.325" height="120.793"/>
	<g>
		<path fill-rule="evenodd" clip-rule="evenodd" fill="#FFFFFF" d="M27.664,68.675c0-0.508,0-1.018,0-1.526
			c1.133-4.552,4.768-9.826,8.882-11.962c2.096-1.087,5.406-1.292,5.893,1.366c-4.159,0.084-6.486,2.767-8.396,5.218
			c-0.825,1.06-1.651,2.254-2.34,3.452c-0.706,1.226-1.628,2.644-1.373,4.095c1.438,0.1,2.453-1.101,3.229-2.008
			c1.696-1.979,2.928-4.252,4.199-6.662c0.551-1.046,1.521-2.619,3.148-1.848c-0.018,1.49-0.876,2.901-1.373,4.496
			c-0.432,1.391-1.174,3.588-0.161,4.978c1.214-0.042,2.169-0.944,2.906-1.766c3.765-4.194,5.125-10.2,7.348-15.976
			c0.671-1.745,1.619-5.44,3.552-5.781c1.001-0.175,1.691,0.14,2.099,0.723c-1.139,3.107-2.447,6.545-3.714,10.116
			c-1.237,3.49-2.736,7.194-2.987,10.918c-0.195,2.898,0.738,5.044,2.341,6.263c-4.783,2.519-6.923-3.491-5.731-8.029
			c-1.551,1.799-3.342,5.664-6.54,6.021c-2.558,0.286-3.025-1.698-2.826-4.014c-1.091,1.173-3.399,4.657-6.135,4.254
			C28.496,70.829,28.039,69.822,27.664,68.675z"/>
		<path fill-rule="evenodd" clip-rule="evenodd" fill="#FFFFFF" d="M84.822,56.713c-5.689,0.948-9.018,5.374-10.818,10.357
			c-0.238,0.657-0.762,1.531-0.242,2.248c1.256-0.05,2.086-1.041,2.745-1.847c1.34-1.639,2.302-3.631,3.39-5.7
			c0.789-1.498,1.605-3.706,3.876-2.889c0.275,2.909-3.967,8.31-1.372,10.998c0.488,0.506,1.346,0.753,2.261,1.043
			c-0.399,1.07-1.79,1.412-3.067,1.205c-1.977-0.322-3.175-2.452-3.149-4.657c-1.44,1.28-2.969,3.795-5.732,3.613
			c-3.583-0.236-1.809-6.061-0.646-8.108c-1.212,0.439-3.133,0.123-3.875-0.804c-1.373,2.94-3.554,8.177-7.75,8.511
			c-2.267,0.179-3.258-1.757-2.503-4.014c-1.751,1.469-2.377,4.059-5.651,4.014c-1.099-0.564-1.64-1.794-1.373-3.373
			c0.662-3.895,3.69-6.91,3.957-11.239c1.211-0.948,2.937-0.329,3.148,1.044c0.313,2.027-1.042,3.995-1.857,5.78
			c-0.894,1.957-1.725,3.781-2.019,5.619c0.531,0.042,1.02-0.45,1.374-0.803c1.862-1.852,3.167-4.227,4.521-6.903
			c0.534-1.057,1.351-3.5,2.906-2.328c0.353,1.958-0.717,3.63-1.372,5.298c-0.311,0.794-0.711,1.676-0.969,2.57
			c-0.233,0.805-0.654,1.965,0,2.81c0.882-0.232,1.465-1.221,2.019-2.087c0.501-0.784,1.047-1.721,1.453-2.57
			c0.909-1.896,2.186-3.955,2.341-5.7c0.179-2.006-0.443-4.577,1.455-4.897c1.11-0.188,1.684,1.096,1.775,2.168
			c0.103,1.215-0.559,2.418-0.566,3.211c-0.016,1.836,2.142,3.273,3.793,2.007c0.629-0.48,1.111-1.285,1.695-2.007
			c1.535-1.897,4.25-4.497,7.268-4.497C83.115,54.786,84.557,55.257,84.822,56.713z"/>
		<path fill-rule="evenodd" clip-rule="evenodd" fill="#FFFFFF" d="M110.334,56.873c0,0.349,0,0.696,0,1.044
			c-0.312,0.414-0.473,0.976-1.13,1.044c-0.185-0.881-2.742-3.258-4.198-2.007c-1.259,1.079,0.655,4.317,0.968,4.977
			c1.289,2.716,2.684,6.744-0.564,8.269c-1.771,0.832-6.36,0.452-6.701-1.525c-0.088-0.515,0.116-1.983,1.051-2.006
			c0.425-0.012,0.754,0.498,0.968,0.723c0.858,0.907,1.826,1.908,3.552,1.445c0.726-3.267-3.178-5.474-2.743-9.313
			c0.296-2.654,2.59-4.596,5.489-4.575C108.665,54.958,109.854,55.656,110.334,56.873z"/>
		<path fill-rule="evenodd" clip-rule="evenodd" fill="#FFFFFF" d="M86.034,80.077c-0.916,0-1.831,0-2.746,0
			c-0.882-0.381-2.111-0.416-2.261-1.527c4.514,0.07,7.317-2.211,9.284-4.736c1.873-2.403,3.189-5.4,4.037-8.429
			c-0.942,0.989-1.753,2.345-3.067,3.373c-1.462,1.141-6.056,3.527-6.378,0.08c-0.188-2.009,0.933-4.17,1.694-5.86
			c1.1-2.436,2.069-4.692,2.019-7.546c1.146-0.717,2.829-0.163,3.229,0.723c0.423,0.93,0.002,2.355-0.321,3.45
			c-0.979,3.312-2.691,5.989-3.229,9.072c1.454-0.374,2.325-1.499,3.146-2.407c1.672-1.848,3.264-4.243,4.359-6.746
			c0.801-1.822,1.035-5.332,3.958-4.336c-0.008,2.75-0.673,5.513-1.373,8.109C96.312,70.979,93.889,78.292,86.034,80.077z"/>
	</g>
	<g>
		<path fill="#FFFFFF" d="M29.984,76.968c-0.056,0.01-0.098,0.016-0.125,0.016c-0.133,0-0.244-0.049-0.33-0.146
			c-0.086-0.096-0.129-0.213-0.129-0.344c0-0.084,0.018-0.156,0.054-0.221c0.035-0.062,0.099-0.115,0.188-0.16
			c0.038-0.01,0.084-0.025,0.137-0.041c0.053-0.018,0.102-0.02,0.147-0.01c0.127,0.018,0.227,0.07,0.299,0.158
			c0.073,0.088,0.11,0.188,0.11,0.297C30.335,76.749,30.218,76.899,29.984,76.968z M30.209,82.179h-0.693v-3.834h0.693V82.179z
			 M76.709,83.255c-0.055,0.01-0.097,0.016-0.124,0.016c-0.134,0-0.242-0.049-0.33-0.145c-0.085-0.098-0.128-0.213-0.128-0.344
			c0-0.084,0.018-0.158,0.053-0.219c0.036-0.066,0.099-0.121,0.188-0.164c0.039-0.01,0.086-0.027,0.138-0.043
			c0.055-0.016,0.102-0.018,0.146-0.008c0.128,0.016,0.229,0.07,0.301,0.158c0.073,0.09,0.11,0.188,0.11,0.299
			C77.062,83.038,76.943,83.187,76.709,83.255z"/>
		<path fill="#FFFFFF" d="M40.092,82.313h-0.15l-4.507-4.932v4.797h-0.693v-6.291h0.175l4.466,4.938v-4.789h0.709V82.313z"/>
		<path fill="#FFFFFF" d="M46.762,79.173h-2.597v3.006h-0.726v-6.143h3.323v0.646h-2.597v1.861h2.597V79.173z"/>
		<path fill="#FFFFFF" d="M50.37,82.179h-0.727v-6.143h0.727V82.179z"/>
		<path fill="#FFFFFF" d="M59.164,82.313h-0.15l-4.508-4.932v4.797h-0.693v-6.291h0.175l4.467,4.938v-4.789h0.709V82.313z"/>
		<path fill="#FFFFFF" d="M64.239,82.179h-0.727v-6.143h0.727V82.179z"/>
		<path fill="#FFFFFF" d="M71.242,76.683h-1.777v5.496h-0.768v-5.496h-1.777v-0.646h4.321V76.683z"/>
		<path fill="#FFFFFF" d="M79.032,76.036l-2.028,3.387v2.756h-0.753v-2.756l-2.096-3.387h0.921l1.588,2.738l1.511-2.734
			L79.032,76.036z"/>
	</g>
</g>
</svg>
