<?xml version="1.0" encoding="utf-8"?>
<!-- Generator: Adobe Illustrator 15.1.0, SVG Export Plug-In . SVG Version: 6.00 Build 0)  -->
<!DOCTYPE svg PUBLIC "-//W3C//DTD SVG 1.1//EN" "http://www.w3.org/Graphics/SVG/1.1/DTD/svg11.dtd">
<svg version="1.1" id="Capa_1" xmlns="http://www.w3.org/2000/svg" xmlns:xlink="http://www.w3.org/1999/xlink" x="0px" y="0px"
	 width="139px" height="145px" viewBox="0 0 139 145" enable-background="new 0 0 139 145" xml:space="preserve">
<g>
	<g>
		<g>
			<g>
				<defs>
					<rect id="SVGID_1_" x="11.922" y="11.258" width="115.154" height="122.484"/>
				</defs>
				<clipPath id="SVGID_2_">
					<use xlink:href="#SVGID_1_"  overflow="visible"/>
				</clipPath>
			</g>
			<g>
				<g>
					
						<path fill="none" stroke="#4F5877" stroke-width="1.0057" stroke-linecap="round" stroke-linejoin="round" stroke-miterlimit="10" d="
						M138.832,42.455L139,36.996c-2.387,0-4.389-1.547-5.121-3.687v-3.508c0.732-2.137,2.734-3.684,5.121-3.684l-0.059-4.648
						c-2.314,0-4.279-1.453-5.062-3.495v-3.882c0.783-2.044,2.748-3.5,5.062-3.5l0.057-4.744h-5.119V0.332l-5.652,0.053
						c0,3.005-2.354,5.44-5.256,5.44c-2.9,0-5.25-2.435-5.25-5.44l-4.49-0.055c0,3.006-2.35,5.442-5.254,5.442
						c-2.9,0-5.252-2.436-5.252-5.442l-5.275-0.221c0,3.004-2.354,5.441-5.256,5.441s-5.258-2.437-5.258-5.441L82.453,0.22
						c0,3.003-2.35,5.44-5.254,5.44s-5.254-2.437-5.254-5.44l-5.962,0.053c0,3.007-2.352,5.442-5.255,5.442
						c-2.902,0-5.255-2.435-5.255-5.442l-4.484-0.107c0,3.006-2.352,5.439-5.255,5.439c-2.9,0-5.255-2.433-5.255-5.439L35.205,0
						c0,3.005-2.353,5.44-5.258,5.44c-2.898,0-5.25-2.435-5.25-5.44l-4.49,0.056c0,3.004-2.35,5.442-5.252,5.442
						C12.054,5.498,9.7,3.06,9.7,0.056L5.118,0.002v5.845H0.001l0.055,4.744c2.314,0,4.279,1.457,5.062,3.497v3.888
						c-0.783,2.04-2.748,3.493-5.062,3.493L0,26.117c2.384,0,4.386,1.547,5.118,3.681v3.512C4.385,35.449,2.384,36.996,0,36.996
						l0.166,5.459c2.211,0,4.104,1.326,4.953,3.223v4.437c-0.849,1.895-2.741,3.222-4.953,3.222l0.108,4.643
						c2.129,0,3.954,1.236,4.845,3.02v4.841c-0.891,1.784-2.716,3.021-4.845,3.021l-0.054,6.171c2.17,0,4.027,1.281,4.898,3.123
						v4.633c-0.871,1.842-2.729,3.125-4.898,3.125l-0.11,4.641c2.252,0,4.185,1.375,5.009,3.332v4.221
						c-0.824,1.955-2.757,3.33-5.009,3.33l0.221,5.461c2.087,0,3.877,1.189,4.788,2.916v5.047c-0.911,1.727-2.701,2.916-4.788,2.916
						l0.055,4.646c2.045,0,3.806,1.145,4.733,2.814v5.244c-0.927,1.674-2.688,2.82-4.733,2.82l-0.053,5.852h4.786v5.846l4.583-0.055
						c0-3.004,2.354-5.441,5.255-5.441c2.903,0,5.252,2.438,5.252,5.441l4.49,0.057c0-3.006,2.352-5.439,5.25-5.439
						c2.905,0,5.258,2.434,5.258,5.439l5.273-0.166c0-3.006,2.355-5.439,5.255-5.439c2.903,0,5.255,2.434,5.255,5.439l4.484-0.107
						c0-3.006,2.353-5.443,5.255-5.443c2.903,0,5.255,2.438,5.255,5.443l5.962,0.053c0-3.002,2.35-5.438,5.254-5.438
						s5.254,2.436,5.254,5.438l4.482,0.111c0-3.002,2.355-5.439,5.258-5.439s5.256,2.438,5.256,5.439l5.275-0.223
						c0-3.004,2.352-5.441,5.252-5.441c2.904,0,5.254,2.438,5.254,5.441l4.49-0.053c0-3.004,2.35-5.441,5.25-5.441
						c2.902,0,5.256,2.438,5.256,5.441l5.652,0.053v-5.516h4.789l-0.055-5.852c-2.047,0-3.805-1.146-4.734-2.822v-5.242
						c0.93-1.67,2.688-2.814,4.734-2.814l0.057-4.646c-2.088,0-3.879-1.189-4.791-2.916v-5.047c0.912-1.725,2.703-2.916,4.791-2.916
						l0.221-5.461c-2.256,0-4.188-1.375-5.012-3.332v-4.215c0.824-1.961,2.756-3.336,5.012-3.336l-0.111-4.641
						c-2.17,0-4.027-1.283-4.9-3.125v-4.631c0.873-1.844,2.73-3.125,4.9-3.125l-0.055-6.171c-2.129,0-3.953-1.237-4.846-3.021V61
						c0.893-1.783,2.717-3.021,4.846-3.021l0.107-4.643c-2.213,0-4.105-1.327-4.953-3.224v-4.434
						C134.727,43.784,136.619,42.455,138.832,42.455z"/>
					
						<rect x="11.922" y="11.258" fill="#F79B82" stroke="#4F5877" stroke-width="2.0114" stroke-miterlimit="10" width="115.154" height="122.484"/>
				</g>
			</g>
		</g>
		<g>
			<defs>
				<rect id="SVGID_3_" x="11.922" y="11.258" width="115.154" height="122.484"/>
			</defs>
			<clipPath id="SVGID_4_">
				<use xlink:href="#SVGID_3_"  overflow="visible"/>
			</clipPath>
		</g>
	</g>
	<g>
		<defs>
			<rect id="SVGID_5_" x="11.922" y="11.258" width="115.154" height="122.484"/>
		</defs>
		<clipPath id="SVGID_6_">
			<use xlink:href="#SVGID_5_"  overflow="visible"/>
		</clipPath>
		<g clip-path="url(#SVGID_6_)">
			<g>
				<g>
					<defs>
						<rect id="SVGID_7_" x="12.669" y="11.258" width="114.223" height="122.484"/>
					</defs>
					<clipPath id="SVGID_8_">
						<use xlink:href="#SVGID_7_"  overflow="visible"/>
					</clipPath>
				</g>
				<g>
					<g>
						<path fill="none" stroke="#4F5877" stroke-width="1.0016" stroke-miterlimit="10" d="M138.553,42.454l0.166-5.458
							c-2.367,0-4.352-1.547-5.078-3.687v-3.508c0.727-2.137,2.711-3.684,5.078-3.684l-0.057-4.648
							c-2.295,0-4.244-1.452-5.021-3.495v-3.882c0.777-2.046,2.727-3.501,5.021-3.501l0.055-4.744h-5.076V0.331l-5.605,0.054
							c0,3.005-2.336,5.439-5.215,5.439c-2.877,0-5.209-2.434-5.209-5.439l-4.453-0.056c0,3.007-2.33,5.443-5.211,5.443
							c-2.877,0-5.211-2.436-5.211-5.443l-5.23-0.221c0,3.005-2.336,5.441-5.215,5.441s-5.213-2.436-5.213-5.441l-4.449,0.113
							c0,3.001-2.33,5.439-5.211,5.439c-2.88,0-5.211-2.438-5.211-5.439l-5.914,0.053c0,3.005-2.333,5.439-5.212,5.439
							s-5.213-2.434-5.213-5.439L51.42,0.166c0,3.007-2.333,5.439-5.213,5.439c-2.877,0-5.212-2.432-5.212-5.439l-5.231-0.167
							c0,3.006-2.334,5.441-5.215,5.441c-2.875,0-5.208-2.435-5.208-5.441l-4.454,0.058c0,3.003-2.33,5.441-5.209,5.441
							c-2.878,0-5.212-2.438-5.212-5.441L5.92,0.002v5.844H0.844l0.054,4.744c2.296,0,4.244,1.456,5.021,3.498v3.888
							c-0.777,2.041-2.725,3.493-5.021,3.493l-0.056,4.648c2.365,0,4.351,1.547,5.077,3.681v3.512
							c-0.726,2.139-2.712,3.686-5.077,3.686l0.165,5.458c2.193,0,4.07,1.327,4.913,3.225v4.435
							c-0.842,1.896-2.719,3.223-4.913,3.223l0.107,4.642c2.111,0,3.921,1.237,4.806,3.021v4.84
							c-0.884,1.784-2.694,3.021-4.806,3.021l-0.053,6.171c2.151,0,3.994,1.279,4.858,3.123v4.633
							c-0.864,1.842-2.707,3.125-4.858,3.125l-0.11,4.641c2.234,0,4.151,1.375,4.969,3.332v4.221
							c-0.817,1.955-2.734,3.33-4.969,3.33l0.219,5.461c2.07,0,3.846,1.188,4.75,2.916v5.047c-0.904,1.727-2.68,2.914-4.75,2.914
							l0.055,4.646c2.029,0,3.775,1.146,4.695,2.816v5.244c-0.919,1.674-2.666,2.818-4.695,2.818l-0.052,5.854H5.92v5.846
							l4.546-0.055c0-3.006,2.334-5.441,5.212-5.441c2.879,0,5.209,2.436,5.209,5.441l4.454,0.055c0-3.004,2.333-5.438,5.208-5.438
							c2.881,0,5.215,2.434,5.215,5.438l5.231-0.164c0-3.008,2.335-5.439,5.212-5.439c2.879,0,5.213,2.432,5.213,5.439l4.447-0.109
							c0-3.002,2.334-5.441,5.213-5.441s5.212,2.439,5.212,5.441l5.914,0.055c0-3.004,2.331-5.438,5.211-5.438
							c2.881,0,5.211,2.434,5.211,5.438l4.449,0.111c0-3.002,2.334-5.441,5.213-5.441s5.215,2.439,5.215,5.441l5.23-0.221
							c0-3.006,2.334-5.443,5.211-5.443c2.881,0,5.211,2.438,5.211,5.443l4.453-0.057c0-3.004,2.332-5.439,5.209-5.439
							c2.879,0,5.215,2.436,5.215,5.439l5.605,0.057v-5.518h4.75l-0.055-5.854c-2.027,0-3.775-1.145-4.695-2.82v-5.242
							c0.92-1.67,2.668-2.816,4.695-2.816l0.055-4.646c-2.068,0-3.848-1.189-4.75-2.914v-5.047c0.902-1.727,2.682-2.916,4.75-2.916
							l0.221-5.461c-2.236,0-4.154-1.375-4.971-3.332v-4.215c0.816-1.961,2.734-3.336,4.971-3.336l-0.111-4.641
							c-2.152,0-3.996-1.283-4.859-3.125v-4.633c0.863-1.844,2.707-3.123,4.859-3.123l-0.053-6.171
							c-2.113,0-3.922-1.238-4.807-3.021V61c0.885-1.783,2.693-3.022,4.807-3.022l0.105-4.642c-2.193,0-4.07-1.327-4.912-3.225
							v-4.433C134.482,43.784,136.359,42.454,138.553,42.454z"/>
						
							<rect x="12.669" y="11.258" fill="#F79B82" stroke="#4F5877" stroke-width="2.0032" stroke-miterlimit="10" width="114.223" height="122.484"/>
					</g>
				</g>
			</g>
			<g>
				<g>
					<defs>
						<polygon id="SVGID_9_" points="155.398,133.809 -7.638,133.809 -7.638,-41.021 116.453,-41.021 155.398,-41.021 						"/>
					</defs>
					<clipPath id="SVGID_10_">
						<use xlink:href="#SVGID_9_"  overflow="visible"/>
					</clipPath>
					<g clip-path="url(#SVGID_10_)">
						<path fill="#F7DAD5" stroke="#4F5877" stroke-width="2.5521" stroke-miterlimit="10" d="M112.107,135.422
							c0,6.01-7.684,10.885-17.162,10.885l0,0c-9.477,0-17.162-4.875-17.162-10.885V11.435c0-6.015,7.686-10.888,17.162-10.888l0,0
							c9.479,0,17.162,4.873,17.162,10.888V135.422z"/>
						<path fill="#F7DAD5" stroke="#4F5877" stroke-width="2.471" stroke-miterlimit="10" d="M61.458,135.42
							c0,6.012-7.428,10.887-16.594,10.887l0,0c-9.165,0-16.594-4.875-16.594-10.887V11.433c0-6.013,7.429-10.886,16.594-10.886l0,0
							c9.166,0,16.594,4.873,16.594,10.886V135.42z"/>
						
							<polygon fill="#E988B8" stroke="#4F5877" stroke-width="2.341" stroke-linecap="round" stroke-linejoin="round" stroke-miterlimit="10" points="
							0.47,61.119 11.922,-46.318 71.633,-46.192 124.584,-41.021 140.076,60.167 						"/>
						
							<line fill="none" stroke="#4F5877" stroke-width="2.5232" stroke-miterlimit="10" x1="3.666" y1="51.927" x2="138.154" y2="51.927"/>
					</g>
				</g>
			</g>
		</g>
	</g>
	<g>
		<path fill="#4F5877" d="M53.476,24.083h7.111c0.337,0,0.337,0.516,0,0.516h-7.208c-0.257,0-0.434-0.194-0.434-0.436v-9.389
			c0-0.226,0.177-0.418,0.434-0.418h7.224c0.321,0,0.321,0.482-0.016,0.482h-7.111v4.445h6.789c0.338,0,0.338,0.484,0,0.484h-6.789
			V24.083z"/>
		<path fill="#4F5877" d="M62.047,16.674c-0.145-0.338,0.386-0.564,0.547-0.193l3.652,7.248l3.62-7.2
			c0.128-0.338,0.644-0.209,0.466,0.193l-3.845,7.78c-0.096,0.192-0.337,0.209-0.466,0.016L62.047,16.674z"/>
		<path fill="#4F5877" d="M79.805,20.476c0.018,0.225-0.062,0.531-0.498,0.531h-7.24c0.08,0.693,0.338,1.353,0.82,1.917
			c0.676,0.806,1.689,1.224,2.736,1.24c0.885,0.017,1.783-0.257,2.523-0.82c0.291-0.226,0.678,0.096,0.371,0.402
			c-0.725,0.677-1.785,0.982-2.848,0.967c-1.255-0.017-2.494-0.483-3.233-1.434c-0.676-0.87-1.03-1.868-0.966-3.077
			c0.08-1.739,1.207-3.302,2.944-3.784c0.741-0.193,1.626-0.21,2.429,0C78.646,16.899,79.773,18.398,79.805,20.476z M72.051,20.476
			h7.207c-0.031-1.772-0.98-3.108-2.59-3.543c-0.645-0.161-1.4-0.161-2.061,0.016C73,17.383,72.066,18.865,72.051,20.476z"/>
		<path fill="#4F5877" d="M82.52,18.43c0.354-1.224,1.576-2.062,2.912-2.062c0.178,0,0.289,0.098,0.289,0.274
			s-0.111,0.274-0.289,0.274c-2.059,0-2.912,1.755-2.912,3.705v3.721c0,0.177-0.129,0.29-0.273,0.29
			c-0.176,0-0.289-0.113-0.289-0.29v-7.699c0-0.145,0.113-0.274,0.289-0.274c0.145,0,0.273,0.13,0.273,0.274V18.43z"/>
		<path fill="#4F5877" d="M86.379,16.723c-0.08-0.322,0.338-0.532,0.547-0.193l3.652,7.232l3.572-7.232
			c0.16-0.402,0.74-0.162,0.547,0.193l-5.455,10.792c-0.209,0.434-0.658,0.225-0.514-0.178l1.496-3.028L86.379,16.723z"/>
		<path fill="#4F5877" d="M57.171,37.611c0.177-0.273,0.531-0.193,0.531,0.128v9.745c0,0.371-0.547,0.386-0.547,0V38.61
			l-4.151,6.523c-0.128,0.242-0.434,0.242-0.563,0l-4.151-6.491v8.843c0,0.386-0.547,0.371-0.547,0v-9.745
			c0-0.321,0.354-0.402,0.515-0.128l4.472,6.974L57.171,37.611z"/>
		<path fill="#4F5877" d="M60.914,46.421c-0.708-0.854-1.03-1.868-0.965-3.077c0.145-1.722,1.207-3.301,2.944-3.784
			c0.74-0.193,1.625-0.21,2.429,0c1.738,0.483,2.816,2.062,2.96,3.784c0.064,1.209-0.257,2.223-0.965,3.077
			c-0.788,0.935-1.931,1.434-3.201,1.434C62.845,47.855,61.702,47.355,60.914,46.421z M63.086,40.107
			c-2.494,0.661-3.363,3.995-1.722,5.959c0.66,0.79,1.673,1.24,2.751,1.24c1.094,0,2.124-0.45,2.783-1.24
			c1.641-1.964,0.74-5.298-1.754-5.959C64.502,39.946,63.746,39.931,63.086,40.107z"/>
		<path fill="#4F5877" d="M77.609,42.958c0-2.094-1.945-3.415-3.844-2.916c-1.658,0.418-2.768,1.981-2.816,3.672v3.85
			c0,0.177-0.096,0.29-0.273,0.29c-0.177,0-0.289-0.113-0.289-0.29v-7.78c0-0.145,0.112-0.274,0.289-0.274
			c0.178,0,0.273,0.113,0.273,0.29v2.223c0.37-1.352,1.48-2.206,2.639-2.513c2.141-0.547,4.584,0.725,4.584,3.447v4.606
			c0,0.177-0.096,0.29-0.271,0.29c-0.178,0-0.291-0.113-0.291-0.29V42.958z"/>
		<path fill="#4F5877" d="M84.139,39.543c0.418,0,0.418,0.516,0,0.516H81.9v4.944c0,1.16,0.195,2.352,1.691,2.352
			c0.305,0,0.74-0.113,0.965-0.242c0.338-0.161,0.643,0.257,0.209,0.482c-0.402,0.21-0.771,0.274-1.174,0.274
			c-1.803,0-2.236-1.369-2.236-2.867V40.06h-1.498c-0.434,0-0.434-0.516,0-0.516h1.498v-2.062c0-0.354,0.545-0.338,0.545,0v2.062
			H84.139z"/>
		<path fill="#4F5877" d="M94.014,42.958c0-2.094-1.947-3.415-3.846-2.916c-1.656,0.418-2.766,1.981-2.816,3.672v3.833
			c0,0.178-0.096,0.29-0.271,0.29c-0.178,0-0.289-0.112-0.289-0.29V37.482c0-0.386,0.561-0.354,0.561,0.017v4.525
			c0.371-1.352,1.48-2.206,2.641-2.513c2.139-0.547,4.584,0.725,4.584,3.447v4.59c0,0.178-0.096,0.29-0.271,0.29
			c-0.178,0-0.291-0.112-0.291-0.29V42.958z"/>
	</g>
</g>
</svg>
