<?xml version="1.0" encoding="utf-8"?>
<!-- Generator: Adobe Illustrator 15.1.0, SVG Export Plug-In . SVG Version: 6.00 Build 0)  -->
<!DOCTYPE svg PUBLIC "-//W3C//DTD SVG 1.1//EN" "http://www.w3.org/Graphics/SVG/1.1/DTD/svg11.dtd">
<svg version="1.1" id="Capa_1" xmlns="http://www.w3.org/2000/svg" xmlns:xlink="http://www.w3.org/1999/xlink" x="0px" y="0px"
	 width="139px" height="144px" viewBox="0 0 139 144" enable-background="new 0 0 139 144" xml:space="preserve">
<g>
	<g>
		<g>
			<defs>
				<rect id="SVGID_1_" x="11.862" y="11.135" width="114.566" height="121.725"/>
			</defs>
			<clipPath id="SVGID_2_">
				<use xlink:href="#SVGID_1_"  overflow="visible"/>
			</clipPath>
		</g>
		<path fill="none" stroke="#4F5877" stroke-linecap="round" stroke-linejoin="round" stroke-miterlimit="10" d="M138.124,42.139
			l0.166-5.428c-2.375,0-4.367-1.537-5.094-3.663v-3.487c0.727-2.123,2.719-3.66,5.094-3.66l-0.057-4.619
			c-2.304,0-4.258-1.445-5.037-3.474v-3.858c0.779-2.031,2.733-3.479,5.037-3.479l0.054-4.715h-5.091v-5.48l-5.623,0.053
			c0,2.986-2.342,5.406-5.23,5.406c-2.887,0-5.224-2.42-5.224-5.406l-4.468-0.055c0,2.986-2.336,5.408-5.225,5.408
			c-2.888,0-5.228-2.422-5.228-5.408l-5.247-0.219c0,2.984-2.343,5.406-5.229,5.406c-2.889,0-5.23-2.422-5.23-5.406l-4.461,0.109
			c0,2.984-2.338,5.406-5.227,5.406c-2.89,0-5.229-2.422-5.229-5.406l-5.93,0.053c0,2.988-2.34,5.408-5.229,5.408
			c-2.888,0-5.228-2.42-5.228-5.408l-4.461-0.105c0,2.986-2.34,5.404-5.228,5.404c-2.886,0-5.229-2.418-5.229-5.404l-5.247-0.166
			c0,2.986-2.341,5.406-5.231,5.406c-2.883,0-5.223-2.42-5.223-5.406l-4.467,0.057c0,2.984-2.337,5.407-5.226,5.407
			c-2.886,0-5.228-2.423-5.228-5.407L5.092-0.053v5.809H0.001l0.055,4.715c2.303,0,4.257,1.447,5.036,3.475v3.863
			c-0.779,2.027-2.733,3.473-5.036,3.473L0,25.9c2.373,0,4.364,1.537,5.092,3.658v3.49C4.364,35.174,2.373,36.711,0,36.711
			l0.165,5.428c2.2,0,4.083,1.316,4.927,3.203v4.408c-0.845,1.883-2.727,3.201-4.927,3.201l0.107,4.614
			c2.118,0,3.933,1.228,4.82,3.001v4.811c-0.887,1.773-2.702,3.002-4.82,3.002l-0.054,6.134c2.159,0,4.007,1.273,4.874,3.104v4.604
			c-0.867,1.83-2.715,3.104-4.874,3.104l-0.11,4.613c2.241,0,4.164,1.367,4.983,3.312v4.193c-0.819,1.943-2.743,3.311-4.983,3.311
			l0.22,5.426c2.076,0,3.857,1.182,4.764,2.898v5.016c-0.906,1.717-2.688,2.897-4.764,2.897l0.055,4.618
			c2.035,0,3.787,1.137,4.709,2.798v5.212c-0.922,1.662-2.674,2.801-4.709,2.801l-0.053,5.816h4.762v5.811l4.559-0.055
			c0-2.986,2.342-5.408,5.228-5.408c2.888,0,5.226,2.422,5.226,5.408l4.467,0.056c0-2.986,2.34-5.405,5.223-5.405
			c2.89,0,5.231,2.419,5.231,5.405l5.247-0.165c0-2.987,2.343-5.406,5.229-5.406c2.888,0,5.228,2.419,5.228,5.406l4.461-0.107
			c0-2.986,2.34-5.408,5.228-5.408c2.888,0,5.229,2.422,5.229,5.408l5.93,0.054c0-2.985,2.339-5.405,5.229-5.405
			c2.889,0,5.227,2.42,5.227,5.405l4.461,0.11c0-2.984,2.342-5.406,5.23-5.406c2.886,0,5.229,2.422,5.229,5.406l5.247-0.221
			c0-2.986,2.34-5.408,5.228-5.408c2.889,0,5.225,2.422,5.225,5.408l4.468-0.053c0-2.986,2.337-5.408,5.224-5.408
			c2.889,0,5.23,2.422,5.23,5.408l5.623,0.053v-5.482h4.764l-0.055-5.816c-2.035,0-3.786-1.139-4.709-2.803v-5.209
			c0.923-1.662,2.674-2.799,4.709-2.799l0.056-4.618c-2.076,0-3.858-1.183-4.765-2.897v-5.016c0.906-1.715,2.688-2.898,4.765-2.898
			l0.22-5.426c-2.242,0-4.166-1.367-4.984-3.312v-4.189c0.818-1.947,2.742-3.314,4.984-3.314l-0.11-4.613
			c-2.159,0-4.008-1.273-4.874-3.104v-4.604c0.866-1.831,2.715-3.104,4.874-3.104l-0.054-6.134c-2.118,0-3.934-1.229-4.82-3.003
			v-4.808c0.887-1.773,2.702-3.003,4.82-3.003l0.107-4.614c-2.201,0-4.084-1.318-4.928-3.203v-4.406
			C134.04,43.457,135.923,42.139,138.124,42.139z"/>
		
			<rect x="11.862" y="11.135" fill="#E6E9ED" stroke="#4F5877" stroke-width="2" stroke-miterlimit="10" width="114.566" height="121.725"/>
	</g>
	<g>
		<path fill="#F79B82" stroke="#4F5877" stroke-miterlimit="10" d="M109.118,105.065c0,1.146-0.928,2.073-2.072,2.073H32.14
			c-1.146,0-2.073-0.928-2.073-2.073V38.929c0-1.145,0.928-2.073,2.073-2.073h74.906c1.145,0,2.072,0.929,2.072,2.073V105.065z"/>
		
			<line fill="none" stroke="#4F5877" stroke-width="1.6253" stroke-miterlimit="10" x1="86.21" y1="36.855" x2="86.21" y2="107.139"/>
		
			<rect x="77.948" y="72.87" fill="#FCF9F0" stroke="#4F5877" stroke-width="0.5" stroke-miterlimit="10" width="17.879" height="4.605"/>
	</g>
</g>
</svg>
