<?xml version="1.0" encoding="utf-8"?>
<!-- Generator: Adobe Illustrator 15.1.0, SVG Export Plug-In . SVG Version: 6.00 Build 0)  -->
<!DOCTYPE svg PUBLIC "-//W3C//DTD SVG 1.1//EN" "http://www.w3.org/Graphics/SVG/1.1/DTD/svg11.dtd">
<svg version="1.1" id="Capa_1" xmlns="http://www.w3.org/2000/svg" xmlns:xlink="http://www.w3.org/1999/xlink" x="0px" y="0px"
	 width="139px" height="145px" viewBox="0 0 139 145" enable-background="new 0 0 139 145" xml:space="preserve">
<g>
	<g>
		<g>
			<defs>
				<rect id="SVGID_1_" x="11.698" y="10.998" width="115.155" height="122.486"/>
			</defs>
			<clipPath id="SVGID_2_">
				<use xlink:href="#SVGID_1_"  overflow="visible"/>
			</clipPath>
		</g>
		<g>
			<g>
				<path fill="none" stroke="#4F5877" stroke-width="1.0057" stroke-miterlimit="10" d="M138.608,42.195l0.167-5.46
					c-2.387,0-4.389-1.546-5.12-3.687V29.54c0.731-2.137,2.733-3.683,5.12-3.683l-0.058-4.648c-2.314,0-4.279-1.454-5.062-3.496
					v-3.881c0.783-2.044,2.748-3.5,5.062-3.5l0.056-4.744h-5.118V0.072l-5.652,0.053c0,3.004-2.354,5.44-5.257,5.44
					c-2.9,0-5.25-2.436-5.25-5.44l-4.49-0.055c0,3.005-2.349,5.441-5.253,5.441c-2.901,0-5.253-2.436-5.253-5.441l-5.275-0.222
					c0,3.004-2.354,5.441-5.255,5.441c-2.902,0-5.258-2.437-5.258-5.441L82.229-0.04c0,3.003-2.35,5.439-5.253,5.439
					c-2.904,0-5.255-2.436-5.255-5.439l-5.961,0.053c0,3.007-2.352,5.442-5.255,5.442c-2.902,0-5.255-2.435-5.255-5.442
					l-4.484-0.107c0,3.006-2.352,5.439-5.255,5.439c-2.9,0-5.255-2.433-5.255-5.439L34.981-0.26c0,3.005-2.353,5.44-5.258,5.44
					c-2.898,0-5.25-2.435-5.25-5.44l-4.49,0.055c0,3.005-2.35,5.442-5.252,5.442c-2.901,0-5.255-2.437-5.255-5.442L4.894-0.259
					v5.846h-5.117l0.055,4.744c2.314,0,4.279,1.457,5.062,3.497v3.886c-0.783,2.041-2.748,3.495-5.062,3.495l-0.057,4.648
					c2.385,0,4.386,1.546,5.119,3.681v3.511c-0.732,2.139-2.734,3.686-5.119,3.686l0.166,5.46c2.211,0,4.104,1.327,4.953,3.223
					v4.438c-0.849,1.895-2.741,3.221-4.953,3.221l0.108,4.643c2.129,0,3.954,1.235,4.845,3.02v4.84
					c-0.891,1.784-2.716,3.021-4.845,3.021l-0.054,6.172c2.17,0,4.027,1.28,4.898,3.122v4.634c-0.871,1.842-2.729,3.123-4.898,3.123
					l-0.11,4.643c2.252,0,4.185,1.375,5.009,3.331v4.221c-0.824,1.956-2.757,3.332-5.009,3.332l0.221,5.459
					c2.087,0,3.877,1.189,4.788,2.917v5.047c-0.911,1.727-2.701,2.916-4.788,2.916l0.055,4.646c2.045,0,3.806,1.144,4.733,2.816
					v5.242c-0.927,1.673-2.688,2.819-4.733,2.819l-0.053,5.853h4.786v5.847l4.583-0.055c0-3.005,2.354-5.442,5.255-5.442
					c2.903,0,5.252,2.438,5.252,5.442l4.49,0.055c0-3.004,2.352-5.439,5.25-5.439c2.905,0,5.258,2.436,5.258,5.439l5.273-0.165
					c0-3.007,2.355-5.44,5.255-5.44c2.903,0,5.255,2.434,5.255,5.44l4.484-0.108c0-3.005,2.353-5.441,5.255-5.441
					c2.903,0,5.255,2.437,5.255,5.441l5.961,0.054c0-3.003,2.351-5.439,5.255-5.439c2.903,0,5.253,2.437,5.253,5.439l4.483,0.111
					c0-3.004,2.355-5.439,5.258-5.439c2.901,0,5.255,2.436,5.255,5.439l5.275-0.221c0-3.006,2.352-5.443,5.253-5.443
					c2.904,0,5.253,2.438,5.253,5.443l4.49-0.056c0-3.004,2.35-5.44,5.25-5.44c2.903,0,5.257,2.437,5.257,5.44l5.652,0.053v-5.515
					h4.788l-0.054-5.853c-2.047,0-3.806-1.146-4.734-2.82v-5.241c0.929-1.673,2.688-2.816,4.734-2.816l0.056-4.646
					c-2.087,0-3.879-1.19-4.79-2.917v-5.046c0.911-1.727,2.703-2.917,4.79-2.917l0.221-5.459c-2.255,0-4.188-1.376-5.011-3.335
					v-4.215c0.823-1.959,2.756-3.334,5.011-3.334l-0.11-4.643c-2.171,0-4.028-1.281-4.9-3.123v-4.632
					c0.872-1.844,2.729-3.124,4.9-3.124l-0.056-6.172c-2.128,0-3.953-1.237-4.845-3.022v-4.837c0.892-1.785,2.717-3.021,4.845-3.021
					l0.108-4.643c-2.213,0-4.105-1.327-4.953-3.223V45.42C134.503,43.523,136.396,42.195,138.608,42.195z"/>
				
					<rect x="11.698" y="10.998" fill="#B6ACF3" stroke="#4F5877" stroke-width="2.0114" stroke-miterlimit="10" width="115.155" height="122.486"/>
			</g>
		</g>
	</g>
	<g>
		<path fill-rule="evenodd" clip-rule="evenodd" fill="#FFFFFF" d="M74.22,69.139c-0.07,0.216-0.107,0.365-0.162,0.501
			c-0.512,1.255-1.426,2.138-2.633,2.677c-2.242,1.006-4.548,1.081-6.852,0.27c-1.874-0.659-3.069-2.027-3.633-3.907
			c-0.576-1.923-0.569-3.868,0.064-5.779c0.751-2.26,2.36-3.608,4.662-4.102c1.512-0.326,3.038-0.31,4.543,0.128
			c2.177,0.639,3.527,2.083,4.09,4.25c0.209,0.807,0.221,1.666,0.325,2.504c0.032,0.313-0.098,0.479-0.434,0.443
			c-0.118-0.014-0.244-0.004-0.372-0.004c-3.532,0-7.068,0-10.603,0.004c-0.154,0-0.31,0-0.463,0.008
			c-0.22,0.008-0.305,0.132-0.295,0.34c0.072,1.418,0.434,2.72,1.433,3.777c0.761,0.801,1.729,1.218,2.809,1.388
			c1.638,0.256,3.191,0.04,4.536-0.999c0.363-0.287,0.651-0.708,0.9-1.116c0.173-0.279,0.342-0.403,0.665-0.387
			C73.245,69.159,73.7,69.139,74.22,69.139 M62.5,64.823h0.625h8.616c1.028,0,1.033,0,0.814-1.008
			c-0.392-1.853-1.454-3.145-3.314-3.622c-0.671-0.176-1.392-0.196-2.081-0.182c-1.392,0.042-2.586,0.576-3.503,1.644
			C62.904,62.542,62.528,63.578,62.5,64.823"/>
		<path fill-rule="evenodd" clip-rule="evenodd" fill="#FFFFFF" d="M44.149,69.137c-0.42,1.224-1.077,2.095-2.033,2.729
			c-1.22,0.81-2.579,1.173-4.031,1.216c-1.006,0.024-2.001,0.006-2.979-0.279c-2.423-0.701-3.882-2.313-4.429-4.748
			c-0.398-1.775-0.345-3.543,0.27-5.275c0.641-1.808,1.851-3.074,3.657-3.711c1.791-0.636,3.632-0.666,5.449-0.16
			c2.579,0.725,3.908,2.563,4.329,5.129c0.086,0.507,0.097,1.028,0.112,1.543c0.015,0.528-0.01,0.538-0.56,0.538
			c-2.174,0.004-4.346,0-6.524,0c-1.499,0-2.999,0-4.503,0.004c-0.508,0-0.549,0.036-0.523,0.529
			c0.092,1.829,0.764,3.359,2.375,4.337c0.99,0.602,2.093,0.784,3.247,0.721c0.999-0.048,1.943-0.271,2.797-0.821
			c0.536-0.343,0.983-0.785,1.251-1.368c0.146-0.307,0.345-0.397,0.661-0.387C43.162,69.154,43.609,69.137,44.149,69.137
			 M37.468,64.823c1.529,0,3.061,0.002,4.589,0c0.46,0,0.529-0.053,0.48-0.474c-0.198-1.649-0.901-2.979-2.406-3.797
			c-0.759-0.406-1.585-0.554-2.44-0.576c-1.187-0.027-2.302,0.216-3.284,0.904c-1.191,0.835-1.785,2.02-1.982,3.429
			c-0.069,0.456-0.035,0.513,0.447,0.513C34.407,64.825,35.934,64.823,37.468,64.823"/>
		<path fill-rule="evenodd" clip-rule="evenodd" fill="#FFFFFF" d="M107.536,60.913c0.17-0.175,0.333-0.36,0.503-0.53
			c1.162-1.137,2.57-1.699,4.182-1.772c1.159-0.05,2.317-0.02,3.409,0.446c0.459,0.198,0.911,0.428,1.312,0.72
			c0.902,0.663,1.336,1.593,1.347,2.713c0.029,3.24,0.054,6.489,0.078,9.721c0,0.478-0.028,0.496-0.508,0.504
			c-0.255,0.015-0.498,0.028-0.758,0.042c-0.498,0.021-0.603-0.074-0.603-0.581c-0.003-2.664,0.016-5.327-0.008-7.988
			c-0.008-0.67-0.096-1.34-0.226-1.995c-0.214-1.034-0.87-1.692-1.882-1.958c-1.514-0.391-3.011-0.348-4.456,0.294
			c-1.385,0.625-2.183,1.742-2.428,3.233c-0.062,0.401-0.097,0.812-0.097,1.217c-0.007,2.365-0.004,4.729-0.004,7.097
			c0,0.201-0.02,0.394-0.029,0.669c-0.535,0-1.026,0.019-1.519-0.011c-0.106-0.006-0.24-0.17-0.287-0.291
			c-0.055-0.138-0.023-0.305-0.023-0.466V55.537c0-0.126,0.005-0.255,0.005-0.381c0-0.216,0.114-0.308,0.321-0.308
			c0.393,0.001,0.781,0.005,1.176,0c0.261-0.003,0.369,0.127,0.356,0.378c-0.003,0.122,0,0.249,0,0.375v4.698v0.552
			C107.446,60.875,107.492,60.896,107.536,60.913"/>
		<path fill-rule="evenodd" clip-rule="evenodd" fill="#FFFFFF" d="M15.581,68.486c0.643,0,1.196-0.01,1.75,0.011
			c0.079,0.002,0.205,0.15,0.224,0.247c0.36,1.832,1.639,2.612,3.32,2.907c1.208,0.208,2.404,0.072,3.558-0.344
			c0.546-0.198,1.033-0.495,1.394-0.979c0.64-0.872,0.635-2.4-0.809-2.95c-0.791-0.301-1.611-0.504-2.435-0.688
			c-1.462-0.333-2.951-0.576-4.344-1.148c-0.799-0.324-1.522-0.743-1.936-1.547c-0.609-1.191-0.358-2.733,0.555-3.714
			c1.002-1.073,2.289-1.52,3.683-1.643c1.485-0.125,2.968-0.078,4.377,0.537c1.47,0.633,2.427,1.68,2.724,3.277
			c0.078,0.415,0.038,0.471-0.382,0.484c-0.38,0.005-0.752-0.006-1.129-0.006c-0.213,0.006-0.347-0.077-0.392-0.313
			c-0.22-1.261-1.023-2.018-2.205-2.36c-1.383-0.404-2.781-0.419-4.147,0.103c-0.991,0.383-1.5,1.157-1.473,2.164
			c0.024,0.743,0.374,1.314,1.027,1.609c0.661,0.287,1.351,0.499,2.043,0.674c1.5,0.385,3.012,0.696,4.51,1.091
			c0.456,0.122,0.888,0.387,1.305,0.632c1.62,0.966,1.652,3.149,0.865,4.306c-0.533,0.777-1.245,1.322-2.11,1.644
			c-2.137,0.794-4.324,0.861-6.483,0.197c-1.492-0.456-2.657-1.343-3.191-2.879C15.749,69.404,15.693,68.989,15.581,68.486"/>
		<path fill-rule="evenodd" clip-rule="evenodd" fill="#FFFFFF" d="M79.385,60.979c0.11-0.12,0.229-0.238,0.341-0.36
			c1.23-1.365,2.776-1.98,4.582-2.016c1.166-0.024,2.312,0.048,3.409,0.506c0.971,0.409,1.816,0.989,2.176,2.004
			c0.224,0.619,0.314,1.314,0.315,1.979c0.033,3.003,0.014,6.013,0.014,9.021c0,0.06-0.003,0.126-0.003,0.184
			c0.022,0.301-0.106,0.432-0.408,0.421c-0.324-0.009-0.654,0.017-0.976,0.017c-0.293,0-0.437-0.146-0.408-0.442
			c0.003-0.126,0-0.25,0-0.375c0-2.507,0.008-5.009-0.013-7.516c0-0.597-0.059-1.191-0.146-1.774
			c-0.213-1.44-0.885-2.176-2.317-2.466c-1.368-0.281-2.744-0.262-4.044,0.327c-1.51,0.685-2.424,1.874-2.481,3.529
			c-0.092,2.641-0.067,5.291-0.088,7.934c-0.004,0.788-0.018,0.805-0.811,0.82c-0.977,0.028-1.053-0.036-1.053-0.997
			c0-1.705-0.004-3.412,0.009-5.119c0.001-0.81,0.041-1.621,0.044-2.434c0-0.628-0.044-1.254-0.044-1.877
			c-0.009-0.971,0.008-1.94,0.021-2.91c0-0.455,0.073-0.521,0.509-0.529c0.28-0.004,0.565,0.008,0.845,0
			c0.282-0.012,0.394,0.112,0.394,0.389c-0.008,0.423,0,0.847,0.01,1.268c0,0.122,0.012,0.244,0.023,0.365
			C79.314,60.943,79.346,60.959,79.385,60.979"/>
		<path fill-rule="evenodd" clip-rule="evenodd" fill="#FFFFFF" d="M111.327,79.105v0.495c0.006,1.584,0.011,3.162,0.011,4.741
			c0,0.567-0.005,0.567-0.583,0.567c-0.456,0.003-0.905,0.005-1.358,0c-0.459-0.007-0.482-0.015-0.482-0.472
			c-0.006-1.789-0.006-3.577-0.006-5.354c0-0.957,0-1.914,0.006-2.867c0-0.478,0.023-0.496,0.508-0.499
			c0.659-0.005,1.312,0.013,1.969-0.005c0.322-0.01,0.513,0.104,0.682,0.376c1.112,1.724,2.233,3.436,3.354,5.156
			c0.093,0.14,0.193,0.271,0.29,0.404c0.038-0.001,0.071-0.006,0.108-0.016c0.014-0.154,0.036-0.316,0.036-0.474
			c0-1.624,0-3.251,0-4.882c0-0.558,0.006-0.558,0.541-0.561c0.464,0,0.938-0.005,1.406,0c0.447,0.008,0.48,0.036,0.48,0.483
			c0.005,1.158,0.005,2.313,0.005,3.473c0,1.564,0,3.131-0.005,4.694c0,0.535-0.011,0.538-0.56,0.542
			c-0.612,0.003-1.223-0.015-1.831,0.007c-0.369,0.017-0.599-0.104-0.811-0.416c-1.088-1.681-2.206-3.341-3.321-5.012
			c-0.093-0.139-0.194-0.272-0.291-0.411C111.43,79.091,111.377,79.1,111.327,79.105"/>
		<path fill-rule="evenodd" clip-rule="evenodd" fill="#FFFFFF" d="M41.289,79.115c0,0.165,0,0.331,0,0.498
			c0.005,1.577,0.011,3.157,0.011,4.741c0,0.55-0.006,0.551-0.543,0.555c-0.47,0.003-0.94,0.005-1.409,0
			c-0.447-0.005-0.482-0.03-0.482-0.482c0-1.38,0-2.755,0-4.133c0-1.36,0-2.724,0-4.085c0-0.456,0.035-0.489,0.48-0.492
			c0.671-0.005,1.342,0.008,2.014-0.005c0.296-0.005,0.486,0.104,0.648,0.358c1.099,1.712,2.209,3.413,3.322,5.12
			c0.105,0.157,0.225,0.32,0.336,0.478c0.04-0.007,0.077-0.02,0.113-0.024c0.015-0.175,0.033-0.357,0.033-0.526
			c0.002-1.632,0.002-3.258,0.015-4.888c0-0.487,0.019-0.51,0.495-0.513c0.485-0.005,0.968-0.005,1.448,0
			c0.458,0.008,0.475,0.025,0.475,0.491v6.384c0,0.628,0.009,1.248,0,1.875c-0.006,0.42-0.024,0.438-0.467,0.442
			c-0.688,0.005-1.375-0.015-2.058,0.007c-0.312,0.008-0.484-0.122-0.646-0.367c-1.1-1.67-2.217-3.335-3.33-5.002
			c-0.102-0.154-0.208-0.305-0.313-0.452C41.389,79.1,41.337,79.105,41.289,79.115"/>
		<path fill-rule="evenodd" clip-rule="evenodd" fill="#FFFFFF" d="M24.586,84.459c-0.144,0.052-0.237,0.072-0.314,0.109
			c-1.785,0.846-3.6,0.861-5.419,0.167c-1.788-0.684-2.858-2.297-2.891-4.219c-0.024-1.521,0.446-2.83,1.626-3.834
			c0.645-0.549,1.403-0.887,2.224-1.06c1.44-0.308,2.864-0.298,4.237,0.28c0.899,0.37,1.579,0.996,1.969,1.908
			c0.053,0.117,0.093,0.23,0.131,0.351c0.013,0.055,0,0.122,0,0.229c-0.171,0.009-0.321,0.026-0.469,0.031
			c-0.439,0.004-0.881-0.016-1.32,0.005c-0.408,0.015-0.7-0.056-0.978-0.446c-0.56-0.803-2.028-1.021-3.068-0.555
			c-0.56,0.255-0.982,0.646-1.267,1.198c-0.692,1.37-0.458,3.141,0.56,4.094c0.922,0.861,2.672,0.919,3.64,0.097
			c0.334-0.284,0.576-0.645,0.588-1.16c-0.188-0.013-0.341-0.032-0.496-0.036c-0.433-0.003-0.875-0.007-1.312,0.003
			c-0.285,0.005-0.434-0.079-0.43-0.404c0.033-1.529-0.211-1.234,1.205-1.26c1.032-0.014,2.067-0.002,3.097,0
			c0.456,0.004,0.476,0.023,0.48,0.479c0,1.332,0,2.661,0,3.995c-0.004,0.454-0.03,0.473-0.479,0.483
			c-0.109,0.006-0.216,0-0.326,0.006C25.169,84.924,24.729,85.011,24.586,84.459"/>
		<path fill-rule="evenodd" clip-rule="evenodd" fill="#FFFFFF" d="M101.711,75.522c0.81-0.037,1.584,0.041,2.333,0.303
			c1.955,0.68,3.103,2.237,3.151,4.323c0.019,0.842-0.11,1.651-0.489,2.413c-0.551,1.117-1.44,1.857-2.596,2.229
			c-1.638,0.536-3.292,0.554-4.92-0.062c-1.814-0.686-2.844-2.209-2.877-4.158c-0.018-0.852,0.065-1.68,0.452-2.465
			c0.517-1.075,1.353-1.778,2.439-2.205C100.019,75.583,100.862,75.465,101.711,75.522 M101.723,77.295
			c-1.472,0.001-2.396,0.764-2.651,2.193c-0.047,0.231-0.081,0.47-0.062,0.699c0.046,0.496,0.062,1.013,0.21,1.48
			c0.434,1.365,1.656,1.873,3.186,1.608c1.089-0.188,1.793-0.895,1.97-1.99c0.076-0.548,0.1-1.123,0.031-1.673
			C104.223,78.112,103.238,77.295,101.723,77.295"/>
		<path fill-rule="evenodd" clip-rule="evenodd" fill="#FFFFFF" d="M68.51,80.721c0.688,0.24,0.794,0.862,1.03,1.399
			c0.367,0.843,0.774,1.674,1.164,2.508c0.023,0.057,0.03,0.117,0.051,0.21c-0.113,0.028-0.21,0.076-0.312,0.076
			c-0.672,0.008-1.343-0.005-2.019,0.008c-0.251,0.002-0.398-0.098-0.495-0.336c-0.279-0.697-0.59-1.383-0.862-2.084
			c-0.27-0.692-0.76-1.044-1.498-1.072c-0.343-0.016-0.684-0.061-1.028-0.06c-0.513,0.003-0.597,0.095-0.603,0.604
			c0,0.8,0,1.598,0,2.397c0,0.517-0.024,0.54-0.516,0.544c-0.534,0.008-1.062,0.008-1.599,0c-0.497-0.002-0.514-0.021-0.514-0.544
			v-5.827c0-0.795,0.013-1.592,0-2.394c-0.007-0.322,0.117-0.44,0.44-0.439c1.828,0.013,3.658-0.023,5.489,0.032
			c0.625,0.021,1.271,0.18,1.874,0.382c0.865,0.295,1.293,0.984,1.37,1.893c0.069,0.851-0.218,1.543-0.938,2.026
			c-0.308,0.202-0.638,0.371-0.963,0.556C68.552,80.641,68.53,80.68,68.51,80.721 M65.371,77.376v0.032
			c-0.344,0-0.689,0.001-1.033,0c-0.241-0.001-0.393,0.097-0.393,0.352c-0.006,0.551-0.006,1.098,0,1.646
			c0,0.229,0.135,0.343,0.362,0.34c0.856-0.027,1.711-0.027,2.57-0.103c0.617-0.058,1.003-0.539,1.003-1.113
			c0-0.553-0.371-0.948-1.018-1.036C66.371,77.43,65.874,77.409,65.371,77.376"/>
		<path fill-rule="evenodd" clip-rule="evenodd" fill="#FFFFFF" d="M28.343,80.311c0-1.349,0-2.692,0-4.042
			c0.005-0.53,0.023-0.552,0.56-0.552c2.364,0,4.726,0,7.089,0c0.509,0,0.509,0.013,0.518,0.538c0,0.249,0.003,0.498,0,0.751
			c-0.009,0.455-0.026,0.476-0.482,0.476c-1.394,0.004-2.784,0-4.18,0.004c-0.185,0-0.375,0-0.561,0
			c-0.213,0-0.312,0.104-0.312,0.318c0.002,0.36,0.007,0.723-0.007,1.079c-0.008,0.311,0.135,0.409,0.426,0.407
			c0.763-0.01,1.533,0,2.299,0c0.611,0,1.219-0.003,1.828,0c0.506,0.002,0.515,0.018,0.519,0.536c0,0.204,0,0.407,0,0.611
			c-0.004,0.53-0.009,0.537-0.565,0.538c-1.17,0.008-2.343,0.002-3.518,0.002c-0.169,0-0.344-0.003-0.51,0.006
			c-0.432,0.01-0.469,0.04-0.471,0.446c-0.007,0.422-0.007,0.842,0,1.27c0.002,0.416,0.035,0.45,0.456,0.452
			c1.505,0.005,3.008,0,4.508,0.005c0.829,0,0.754-0.058,0.754,0.767c0,0.201-0.009,0.4,0,0.608c0.021,0.285-0.114,0.385-0.39,0.378
			c-0.497-0.007-0.999-0.004-1.5-0.004c-1.967,0-3.94,0.004-5.911,0c-0.536,0-0.545-0.011-0.55-0.557
			C28.343,83,28.343,81.652,28.343,80.311"/>
		<path fill-rule="evenodd" clip-rule="evenodd" fill="#FFFFFF" d="M50.872,80.293c0-1.35,0-2.694,0.007-4.038
			c0-0.507,0.021-0.538,0.523-0.538c2.378,0,4.757,0,7.133,0c0.484,0,0.505,0.025,0.508,0.499c0.004,0.235,0.004,0.474,0,0.706
			c0,0.56-0.003,0.56-0.587,0.56c-1.363,0.004-2.722,0-4.076,0.004c-0.983,0-0.879-0.088-0.879,0.887
			c0,0.99-0.117,0.915,0.895,0.918c1.225,0,2.441-0.003,3.661,0c0.49,0,0.513,0.019,0.513,0.496c0.008,0.288,0,0.568,0,0.848
			c0.008,0.234-0.101,0.344-0.337,0.341c-0.327-0.003-0.656,0.003-0.984,0.003c-1.082,0-2.16-0.003-3.24,0.006
			c-0.473,0-0.501,0.03-0.507,0.503c-0.002,0.394-0.002,0.781,0,1.176c0.006,0.453,0.034,0.487,0.479,0.489
			c0.846,0.005,1.685,0.005,2.536,0.005c0.768,0,1.529,0.003,2.295-0.005c0.299-0.008,0.431,0.099,0.41,0.409
			c-0.013,0.344-0.001,0.687,0,1.035c0,0.208-0.094,0.316-0.308,0.31c-0.097-0.003-0.186,0.004-0.283,0.004h-7.175
			c-0.575,0-0.578-0.007-0.578-0.576C50.872,82.987,50.872,81.639,50.872,80.293"/>
		<path fill-rule="evenodd" clip-rule="evenodd" fill="#FFFFFF" d="M45.415,58.923c0.683,0,1.271-0.018,1.857,0.017
			c0.104,0.005,0.225,0.196,0.285,0.329c0.547,1.222,1.085,2.459,1.625,3.69c1.057,2.411,2.114,4.816,3.165,7.226
			c0.072,0.165,0.167,0.318,0.292,0.56c0.162-0.335,0.285-0.584,0.391-0.835c1.368-3.18,2.731-6.361,4.093-9.542
			c0.163-0.385,0.323-0.778,0.518-1.159c0.061-0.117,0.204-0.272,0.318-0.281c0.53-0.033,1.054-0.014,1.656-0.014
			c-0.062,0.203-0.085,0.332-0.137,0.454c-1.908,4.327-3.81,8.651-5.699,12.979c-0.146,0.347-0.405,0.419-0.708,0.419
			c-0.421-0.004-0.839-0.042-1.267-0.046c-0.264-0.004-0.379-0.152-0.475-0.371c-0.886-1.999-1.776-4.002-2.662-6.005
			c-1.016-2.306-2.031-4.611-3.051-6.918C45.563,59.301,45.513,59.167,45.415,58.923"/>
		<path fill-rule="evenodd" clip-rule="evenodd" fill="#FFFFFF" d="M102.602,71.17c0,0.43,0.026,0.806-0.018,1.174
			c-0.011,0.127-0.17,0.305-0.299,0.349c-0.397,0.132-0.81,0.252-1.225,0.306c-1.217,0.148-2.434,0.171-3.639-0.07
			c-2.099-0.43-3.275-1.782-3.697-3.825c-0.138-0.671-0.203-1.371-0.206-2.051c-0.021-3.816-0.012-7.637-0.012-11.461
			c0-0.152-0.022-0.322,0.015-0.465c0.038-0.102,0.168-0.254,0.254-0.258c0.437-0.03,0.874-0.021,1.312-0.013
			c0.307,0.003,0.277,0.239,0.277,0.443c0.006,1.128,0.006,2.255,0.006,3.384c0,0.106,0.003,0.214,0,0.327
			c-0.01,0.231,0.104,0.347,0.343,0.345c0.118,0,0.246,0.005,0.371,0.005h5.915c0.603,0,0.603,0.001,0.603,0.59
			c0.001,0.094,0,0.19,0,0.281c0.011,0.271-0.112,0.411-0.387,0.417c-0.135,0.005-0.278,0.005-0.422,0.005c-1.951,0-3.904,0-5.861,0
			c-0.546,0.003-0.559,0.016-0.562,0.552c-0.006,2.099-0.034,4.193,0.019,6.289c0.017,0.708,0.174,1.433,0.396,2.103
			c0.423,1.262,1.395,1.936,2.674,2.039c0.96,0.079,1.931,0.007,2.901-0.074C101.747,71.535,102.121,71.328,102.602,71.17"/>
		<path fill-rule="evenodd" clip-rule="evenodd" fill="#FFFFFF" d="M71.681,84.902c0.21-0.519,0.371-0.926,0.541-1.322
			c1.02-2.421,2.048-4.839,3.075-7.255c0.251-0.605,0.247-0.608,0.884-0.608c0.642,0,1.281,0.013,1.923-0.005
			c0.308-0.01,0.474,0.104,0.601,0.396c0.986,2.418,1.995,4.828,2.996,7.241c0.197,0.486,0.408,0.968,0.649,1.56h-0.732
			c-0.559,0-1.127-0.011-1.687,0.005c-0.312,0.01-0.502-0.098-0.594-0.4c-0.11-0.329-0.264-0.639-0.375-0.961
			c-0.087-0.237-0.229-0.348-0.487-0.346c-1.034,0.013-2.065,0.007-3.098,0.004c-0.231-0.004-0.378,0.088-0.455,0.312
			c-0.12,0.358-0.246,0.712-0.396,1.059c-0.057,0.123-0.19,0.304-0.293,0.306C73.423,84.912,72.612,84.902,71.681,84.902
			 M77.031,78.091c-0.056,0.006-0.109,0.006-0.158,0.008c-0.38,1.052-0.762,2.109-1.162,3.218h2.543
			C77.822,80.193,77.429,79.141,77.031,78.091"/>
		<path fill-rule="evenodd" clip-rule="evenodd" fill="#FFFFFF" d="M85.852,75.717c1.312,0,2.623,0,3.937,0
			c0.509,0,0.527,0.025,0.538,0.527c0.003,0.263,0.01,0.534-0.006,0.801c-0.016,0.368-0.094,0.423-0.453,0.422
			c-0.731-0.006-1.469-0.009-2.197,0.011c-0.454,0.008-0.466,0.044-0.466,0.499c-0.007,2.082-0.007,4.164-0.007,6.243
			c0,0.129,0,0.254,0,0.382c0.007,0.215-0.103,0.308-0.314,0.304c-0.675-0.003-1.349-0.003-2.019,0
			c-0.228,0.004-0.343-0.104-0.343-0.337c0-0.142-0.004-0.281-0.004-0.426c0-2.019,0-4.035,0-6.054c0-0.615-0.104-0.676-0.714-0.656
			c-0.691,0.021-1.376-0.012-2.062-0.02c-0.237-0.004-0.343-0.117-0.336-0.347c0-0.316,0.007-0.628-0.007-0.94
			c-0.013-0.311,0.121-0.414,0.418-0.409c0.935,0.008,1.874,0,2.815,0H85.852z"/>
		<path fill-rule="evenodd" clip-rule="evenodd" fill="#FFFFFF" d="M91.903,80.317c0-1.36-0.003-2.722,0-4.082
			c0-0.487,0.026-0.511,0.496-0.519c0.547-0.005,1.094-0.005,1.642,0c0.472,0,0.498,0.031,0.498,0.513c0,2.52,0,5.035,0,7.551
			c0,0.252-0.006,0.503,0,0.753c0.006,0.249-0.088,0.379-0.355,0.376c-0.64-0.007-1.279-0.007-1.925,0.003
			c-0.341,0.004-0.358-0.21-0.355-0.465C91.903,83.069,91.903,81.694,91.903,80.317"/>
	</g>
</g>
</svg>
