<?xml version="1.0" encoding="utf-8"?>
<!-- Generator: Adobe Illustrator 15.1.0, SVG Export Plug-In . SVG Version: 6.00 Build 0)  -->
<!DOCTYPE svg PUBLIC "-//W3C//DTD SVG 1.1//EN" "http://www.w3.org/Graphics/SVG/1.1/DTD/svg11.dtd">
<svg version="1.1" id="Capa_1" xmlns="http://www.w3.org/2000/svg" xmlns:xlink="http://www.w3.org/1999/xlink" x="0px" y="0px"
	 width="139px" height="145px" viewBox="0 0 139 145" enable-background="new 0 0 139 145" xml:space="preserve">
<g>
	<g>
		<g>
			<defs>
				<rect id="SVGID_1_" x="11.423" y="10.856" width="115.155" height="122.485"/>
			</defs>
			<clipPath id="SVGID_2_">
				<use xlink:href="#SVGID_1_"  overflow="visible"/>
			</clipPath>
		</g>
		<g>
			<g>
				<path fill="none" stroke="#4F5877" stroke-width="1.0057" stroke-miterlimit="10" d="M138.334,42.053l0.166-5.46
					c-2.386,0-4.389-1.546-5.119-3.687v-3.508c0.73-2.138,2.733-3.684,5.119-3.684l-0.057-4.647c-2.314,0-4.279-1.454-5.062-3.496
					V13.69c0.783-2.044,2.748-3.5,5.062-3.5l0.055-4.744h-5.117V-0.07l-5.652,0.054c0,3.003-2.354,5.44-5.257,5.44
					c-2.901,0-5.251-2.438-5.251-5.44l-4.49-0.055c0,3.005-2.348,5.44-5.252,5.44c-2.902,0-5.254-2.436-5.254-5.44L96.95-0.293
					c0,3.005-2.354,5.442-5.256,5.442c-2.902,0-5.257-2.438-5.257-5.442l-4.483,0.112c0,3.001-2.351,5.439-5.253,5.439
					c-2.905,0-5.256-2.438-5.256-5.439l-5.961,0.053c0,3.007-2.352,5.442-5.255,5.442c-2.902,0-5.255-2.436-5.255-5.442L50.49-0.236
					c0,3.007-2.352,5.439-5.255,5.439c-2.9,0-5.255-2.433-5.255-5.439l-5.273-0.165c0,3.005-2.353,5.438-5.258,5.438
					c-2.898,0-5.25-2.434-5.25-5.438l-4.49,0.055c0,3.005-2.35,5.442-5.252,5.442c-2.901,0-5.255-2.438-5.255-5.442L4.619-0.4v5.846
					h-5.117l0.055,4.744c2.314,0,4.279,1.456,5.062,3.496v3.887c-0.783,2.041-2.748,3.495-5.062,3.495L-0.5,25.715
					c2.385,0,4.386,1.546,5.119,3.682v3.511c-0.732,2.14-2.734,3.686-5.119,3.686l0.166,5.46c2.211,0,4.104,1.327,4.953,3.224v4.437
					c-0.849,1.896-2.741,3.222-4.953,3.222l0.108,4.643c2.129,0,3.954,1.235,4.845,3.021v4.841
					c-0.891,1.783-2.716,3.021-4.845,3.021l-0.054,6.17c2.169,0,4.027,1.281,4.898,3.123v4.634C3.748,84.229,1.89,85.51-0.28,85.51
					l-0.11,4.642c2.252,0,4.185,1.376,5.009,3.331v4.222c-0.824,1.955-2.757,3.331-5.009,3.331l0.221,5.46
					c2.087,0,3.877,1.189,4.788,2.917v5.047c-0.911,1.727-2.701,2.914-4.788,2.914l0.055,4.648c2.045,0,3.806,1.144,4.733,2.813
					v5.245c-0.927,1.673-2.688,2.819-4.733,2.819l-0.053,5.853h4.786v5.847l4.583-0.056c0-3.005,2.354-5.441,5.255-5.441
					c2.903,0,5.252,2.437,5.252,5.441l4.49,0.056c0-3.005,2.352-5.439,5.25-5.439c2.905,0,5.258,2.435,5.258,5.439l5.273-0.165
					c0-3.007,2.355-5.44,5.255-5.44c2.903,0,5.255,2.434,5.255,5.44l4.484-0.108c0-3.006,2.353-5.441,5.255-5.441
					c2.903,0,5.255,2.436,5.255,5.441l5.961,0.053c0-3.003,2.351-5.438,5.256-5.438c2.902,0,5.253,2.436,5.253,5.438l4.483,0.112
					c0-3.004,2.354-5.44,5.257-5.44c2.901,0,5.256,2.437,5.256,5.44l5.274-0.222c0-3.005,2.352-5.442,5.254-5.442
					c2.904,0,5.252,2.438,5.252,5.442l4.49-0.056c0-3.003,2.35-5.439,5.251-5.439c2.903,0,5.257,2.437,5.257,5.439l5.652,0.055
					v-5.516h4.787l-0.054-5.853c-2.046,0-3.806-1.146-4.733-2.82v-5.243c0.928-1.671,2.688-2.814,4.733-2.814l0.056-4.648
					c-2.087,0-3.879-1.189-4.789-2.914v-5.047c0.91-1.727,2.702-2.917,4.789-2.917l0.221-5.46c-2.254,0-4.187-1.376-5.01-3.334
					v-4.216c0.823-1.958,2.756-3.334,5.01-3.334l-0.111-4.642c-2.169,0-4.027-1.281-4.898-3.123v-4.632
					c0.871-1.844,2.729-3.125,4.898-3.125l-0.053-6.17c-2.13,0-3.955-1.238-4.846-3.023v-4.837c0.891-1.784,2.716-3.021,4.846-3.021
					l0.107-4.643c-2.213,0-4.105-1.326-4.953-3.223v-4.434C134.229,43.382,136.121,42.053,138.334,42.053z"/>
				
					<rect x="11.423" y="10.856" fill="#D0E7F9" stroke="#4F5877" stroke-width="2.0114" stroke-miterlimit="10" width="115.155" height="122.485"/>
			</g>
		</g>
	</g>
	<g>
		<path fill="#FEEAA2" stroke="#4F5877" stroke-width="1.0057" stroke-miterlimit="10" d="M55.855,63.923l-0.692-1.541
			c-2.1-3.478-11.281-5.408-11.659-5.078c4.02,5.905,4.509,13.582,1.458,19.276c0.452,0.506,9.125-2.787,10.552-6.789
			c0,0,0,0.001,0,0.001c0.276,0.538,6.391,9.494,17.134,10.029c9.057,0.451,16.43-4.896,16.425-11.126
			C89.058,46.656,55.915,63.797,55.855,63.923z"/>
		<path fill="#FEEAA2" stroke="#4F5877" stroke-width="1.0057" stroke-miterlimit="10" d="M70.267,78.537
			c0,0-10.629,6.783-8.8,3.388c1.509-2.799,3.568-6.053,3.568-6.053"/>
		<path fill="#FEEAA2" stroke="#4F5877" stroke-width="1.0057" stroke-miterlimit="10" d="M68.102,57.932"/>
	</g>
	<ellipse fill="#4F5877" cx="85.094" cy="66.006" rx="0.611" ry="0.755"/>
	<g>
		<path fill="#FFFFFF" stroke="#4F5877" stroke-width="1.0057" stroke-miterlimit="10" d="M43.744,116.721
			c-0.314,0-0.434-0.169-0.434-0.459v-14.612c0-0.604,0.82-0.604,0.82,0v14.322h10.132c0.555,0,0.531,0.749,0,0.749H43.744z"/>
		<path fill="#FFFFFF" stroke="#4F5877" stroke-width="1.0057" stroke-miterlimit="10" d="M57.808,102.784
			c0,0.532-0.893,0.532-0.893,0v-1.352c0-0.531,0.893-0.531,0.893,0V102.784z M56.939,104.789c0-0.578,0.844-0.578,0.844-0.023
			v11.762c0,0.579-0.844,0.579-0.844,0V104.789z"/>
		<path fill="#FFFFFF" stroke="#4F5877" stroke-width="1.0057" stroke-miterlimit="10" d="M72.693,116.334
			c0,3.479-2.606,5.289-5.887,5.289c-1.81,0-3.281-0.361-4.584-1.594c-0.458-0.459,0.121-0.941,0.555-0.604
			c1.399,1.062,2.412,1.377,4.029,1.377c2.654,0,5.042-1.425,5.042-4.469v-2.246c-0.797,1.884-2.654,2.85-4.657,2.898
			c-0.917,0.024-1.761-0.121-2.557-0.459c-2.292-0.894-3.594-3.14-3.667-5.579c-0.072-2.826,1.23-5.217,3.836-6.279
			c1.833-0.748,3.763-0.531,5.283,0.362c0.796,0.531,1.399,1.184,1.762,2.149v-2.392c0-0.265,0.145-0.435,0.409-0.435
			c0.266,0,0.436,0.17,0.436,0.435V116.334z M66.903,105.056c-1.085,0.071-2.123,0.435-2.968,1.087
			c-1.568,1.256-2.195,2.971-2.123,4.829c0.024,0.701,0.169,1.475,0.434,2.103c0.821,2.004,2.896,3.091,4.946,3.066
			c2.702-0.096,4.488-1.979,4.657-4.468v-2.101c-0.097-1.764-0.917-3.213-2.51-3.986C68.543,105.225,67.747,105.031,66.903,105.056z
			"/>
		<path fill="#FFFFFF" stroke="#4F5877" stroke-width="1.0057" stroke-miterlimit="10" d="M87.432,109.547
			c0-3.14-2.919-5.119-5.766-4.37c-2.484,0.628-4.149,2.97-4.223,5.506v5.748c0,0.266-0.145,0.435-0.409,0.435
			c-0.266,0-0.435-0.169-0.435-0.435v-15.095c0-0.579,0.844-0.531,0.844,0.023v6.787c0.556-2.028,2.221-3.309,3.957-3.767
			c3.209-0.822,6.876,1.086,6.876,5.167v6.884c0,0.266-0.145,0.435-0.41,0.435c-0.265,0-0.435-0.169-0.435-0.435V109.547z"/>
		<path fill="#FFFFFF" stroke="#4F5877" stroke-width="1.0057" stroke-miterlimit="10" d="M97.467,104.428
			c0.627,0,0.627,0.772,0,0.772h-3.354v7.415c0,1.738,0.289,3.525,2.533,3.525c0.458,0,1.109-0.169,1.447-0.362
			c0.507-0.241,0.965,0.387,0.313,0.726c-0.604,0.312-1.157,0.41-1.761,0.41c-2.703,0-3.354-2.054-3.354-4.299V105.2h-2.244
			c-0.651,0-0.651-0.772,0-0.772h2.244v-3.092c0-0.531,0.82-0.507,0.82,0v3.092H97.467z"/>
	</g>
</g>
</svg>
