<?xml version="1.0" encoding="utf-8"?>
<!-- Generator: Adobe Illustrator 15.1.0, SVG Export Plug-In . SVG Version: 6.00 Build 0)  -->
<!DOCTYPE svg PUBLIC "-//W3C//DTD SVG 1.1//EN" "http://www.w3.org/Graphics/SVG/1.1/DTD/svg11.dtd">
<svg version="1.1" id="Capa_1" xmlns="http://www.w3.org/2000/svg" xmlns:xlink="http://www.w3.org/1999/xlink" x="0px" y="0px"
	 width="138px" height="144px" viewBox="0 0 138 144" enable-background="new 0 0 138 144" xml:space="preserve">
<g>
	<g>
		<g>
			<defs>
				<rect id="SVGID_1_" x="11.771" y="11.083" width="113.687" height="121.725"/>
			</defs>
			<clipPath id="SVGID_2_">
				<use xlink:href="#SVGID_1_"  overflow="visible"/>
			</clipPath>
		</g>
		<path fill="none" stroke="#505978" stroke-linecap="round" stroke-linejoin="round" stroke-miterlimit="10" d="M137.063,42.087
			l0.165-5.428c-2.354,0-4.332-1.537-5.055-3.662v-3.488c0.723-2.123,2.7-3.66,5.055-3.66l-0.057-4.619
			c-2.284,0-4.225-1.445-4.998-3.474v-3.858c0.773-2.031,2.714-3.479,4.998-3.479l0.055-4.715h-5.053v-5.48l-5.58,0.053
			c0,2.986-2.323,5.406-5.189,5.406c-2.863,0-5.184-2.42-5.184-5.406l-4.433-0.055c0,2.986-2.318,5.408-5.186,5.408
			c-2.865,0-5.188-2.422-5.188-5.408l-5.207-0.219c0,2.984-2.324,5.406-5.188,5.406c-2.865,0-5.189-2.422-5.189-5.406l-4.427,0.109
			c0,2.984-2.321,5.406-5.186,5.406c-2.869,0-5.188-2.422-5.188-5.406l-5.886,0.053c0,2.988-2.322,5.408-5.188,5.408
			c-2.866,0-5.188-2.42-5.188-5.408L50.34,0.06c0,2.986-2.322,5.404-5.188,5.404c-2.863,0-5.188-2.418-5.188-5.404l-5.206-0.166
			c0,2.986-2.323,5.406-5.191,5.406c-2.861,0-5.183-2.42-5.183-5.406L19.951-0.05c0,2.984-2.319,5.407-5.186,5.407
			c-2.864,0-5.188-2.423-5.188-5.407L5.053-0.104v5.809H0.001l0.054,4.715c2.285,0,4.224,1.447,4.998,3.475v3.863
			c-0.773,2.027-2.712,3.473-4.998,3.473L0,25.849c2.354,0,4.33,1.537,5.053,3.658v3.49C4.33,35.122,2.354,36.659,0,36.659
			l0.164,5.428c2.184,0,4.051,1.316,4.89,3.203v4.408c-0.838,1.883-2.706,3.201-4.89,3.201l0.107,4.615c2.101,0,3.903,1.227,4.783,3
			v4.811c-0.88,1.773-2.682,3.002-4.783,3.002l-0.054,6.134c2.142,0,3.976,1.273,4.836,3.104v4.604
			c-0.86,1.83-2.694,3.104-4.836,3.104l-0.109,4.613c2.224,0,4.132,1.367,4.945,3.312v4.193c-0.813,1.943-2.722,3.311-4.945,3.311
			l0.218,5.426c2.06,0,3.828,1.182,4.727,2.898v5.016c-0.899,1.717-2.667,2.897-4.727,2.897l0.054,4.618
			c2.02,0,3.758,1.137,4.673,2.798v5.212c-0.915,1.662-2.653,2.801-4.673,2.801l-0.052,5.816h4.725v5.811l4.524-0.055
			c0-2.986,2.324-5.408,5.188-5.408c2.866,0,5.186,2.422,5.186,5.408l4.433,0.057c0-2.987,2.322-5.406,5.183-5.406
			c2.868,0,5.191,2.419,5.191,5.406l5.206-0.166c0-2.987,2.325-5.406,5.188-5.406c2.866,0,5.188,2.419,5.188,5.406l4.427-0.107
			c0-2.986,2.322-5.408,5.188-5.408c2.866,0,5.188,2.422,5.188,5.408l5.886,0.054c0-2.985,2.319-5.405,5.188-5.405
			c2.864,0,5.186,2.42,5.186,5.405l4.427,0.11c0-2.984,2.324-5.406,5.189-5.406c2.864,0,5.188,2.422,5.188,5.406l5.207-0.221
			c0-2.986,2.322-5.408,5.188-5.408c2.867,0,5.186,2.422,5.186,5.408l4.433-0.053c0-2.986,2.32-5.408,5.184-5.408
			c2.866,0,5.189,2.422,5.189,5.408l5.58,0.053v-5.482h4.728l-0.053-5.816c-2.021,0-3.758-1.139-4.675-2.803v-5.209
			c0.917-1.662,2.654-2.799,4.675-2.799l0.055-4.618c-2.061,0-3.83-1.183-4.729-2.897v-5.016c0.899-1.715,2.669-2.898,4.729-2.898
			l0.219-5.426c-2.227,0-4.134-1.367-4.948-3.312V93.2c0.814-1.947,2.722-3.314,4.948-3.314l-0.11-4.613
			c-2.142,0-3.978-1.273-4.838-3.104v-4.604c0.86-1.831,2.696-3.104,4.838-3.104l-0.054-6.134c-2.102,0-3.903-1.229-4.784-3.003
			v-4.808c0.881-1.773,2.683-3.002,4.784-3.002l0.105-4.615c-2.183,0-4.053-1.318-4.89-3.203V45.29
			C133.011,43.405,134.881,42.087,137.063,42.087z"/>
		
			<rect x="11.771" y="11.083" fill="#E7E9ED" stroke="#505978" stroke-width="2" stroke-miterlimit="10" width="113.687" height="121.725"/>
	</g>
	<g>
		<g>
			<path fill="#D0E6F7" stroke="#505978" stroke-miterlimit="10" d="M117.501,99.673c0.236,0.867-0.269,1.763-1.129,2
				l-56.251,15.584c-0.859,0.238-1.748-0.271-1.985-1.138l-13.653-50.05c-0.236-0.866,0.269-1.761,1.129-2.001l56.251-15.582
				c0.859-0.237,1.748,0.271,1.984,1.138L117.501,99.673z"/>
			
				<line fill="none" stroke="#505978" stroke-width="1.2756" stroke-miterlimit="10" x1="86.217" y1="52.82" x2="100.727" y2="106.008"/>
			<polygon fill="#FCF9F0" points="101.824,81.56 88.398,85.278 87.447,81.794 100.874,78.074 			"/>
		</g>
		<g>
			<path fill="#8FCD94" stroke="#505978" stroke-miterlimit="10" d="M75.931,99.025c-0.211,0.874-1.085,1.409-1.952,1.196
				L17.301,86.299c-0.867-0.212-1.398-1.091-1.187-1.966l12.198-50.43c0.21-0.872,1.084-1.409,1.951-1.196L86.941,46.63
				c0.866,0.213,1.398,1.093,1.188,1.967L75.931,99.025z"/>
			
				<line fill="none" stroke="#505978" stroke-width="1.2756" stroke-miterlimit="10" x1="71.177" y1="42.757" x2="58.214" y2="96.349"/>
			<polygon fill="#FCF9F0" points="70.962,75.517 57.434,72.194 58.283,68.683 71.812,72.006 			"/>
		</g>
	</g>
</g>
</svg>
