<?xml version="1.0" encoding="utf-8"?>
<!-- Generator: Adobe Illustrator 15.1.0, SVG Export Plug-In . SVG Version: 6.00 Build 0)  -->
<!DOCTYPE svg PUBLIC "-//W3C//DTD SVG 1.1//EN" "http://www.w3.org/Graphics/SVG/1.1/DTD/svg11.dtd">
<svg version="1.1" id="Capa_1" xmlns="http://www.w3.org/2000/svg" xmlns:xlink="http://www.w3.org/1999/xlink" x="0px" y="0px"
	 width="139px" height="145px" viewBox="0 0 139 145" enable-background="new 0 0 139 145" xml:space="preserve">
<g>
	<g>
		<g>
			<g>
				<g>
					<defs>
						<polygon id="SVGID_1_" points="49.486,27.931 46.337,19.387 25.922,35.898 33.551,40.971 95.127,117.066 98.277,125.611 
							118.692,109.102 111.066,104.027 						"/>
					</defs>
					<clipPath id="SVGID_2_">
						<use xlink:href="#SVGID_1_"  overflow="visible"/>
					</clipPath>
					<g clip-path="url(#SVGID_2_)">
						<g>
							<path fill="#FAB585" d="M58.016,18.38c0.412,0.491,1.14,0.571,1.639,0.168c0.498-0.411,0.574-1.147,0.172-1.651
								c-0.406-0.492-1.141-0.568-1.644-0.161C57.688,17.141,57.61,17.87,58.016,18.38"/>
							<path fill="#FAB585" d="M58.016,18.38c0.412,0.491,1.14,0.571,1.639,0.168c0.498-0.411,0.574-1.147,0.172-1.651
								c-0.406-0.492-1.141-0.568-1.644-0.161C57.688,17.141,57.61,17.87,58.016,18.38z"/>
							<path fill="#FAB585" d="M51.484,23.708c0.407,0.498,1.142,0.572,1.637,0.168c0.501-0.412,0.579-1.147,0.172-1.649
								c-0.403-0.498-1.143-0.573-1.644-0.16C51.154,22.467,51.075,23.202,51.484,23.708"/>
							<path fill="#FAB585" d="M51.484,23.708c0.407,0.498,1.142,0.572,1.637,0.168c0.501-0.412,0.579-1.147,0.172-1.649
								c-0.403-0.498-1.143-0.573-1.644-0.16C51.154,22.467,51.075,23.202,51.484,23.708z"/>
							<path fill="#FAB585" d="M44.947,29.04c0.411,0.498,1.142,0.57,1.641,0.162c0.497-0.407,0.581-1.146,0.174-1.645
								c-0.405-0.502-1.146-0.57-1.646-0.166C44.618,27.794,44.54,28.539,44.947,29.04"/>
							<path fill="#FAB585" d="M44.947,29.04c0.411,0.498,1.142,0.57,1.641,0.162c0.497-0.407,0.581-1.146,0.174-1.645
								c-0.405-0.502-1.146-0.57-1.646-0.166C44.618,27.794,44.54,28.539,44.947,29.04z"/>
							<path fill="#FAB585" d="M38.415,34.367c0.409,0.5,1.144,0.576,1.641,0.166c0.498-0.411,0.576-1.14,0.167-1.643
								c-0.401-0.499-1.139-0.572-1.639-0.168C38.088,33.123,38.007,33.869,38.415,34.367"/>
							<path fill="#FAB585" d="M38.415,34.367c0.409,0.5,1.144,0.576,1.641,0.166c0.498-0.411,0.576-1.14,0.167-1.643
								c-0.401-0.499-1.139-0.572-1.639-0.168C38.088,33.123,38.007,33.869,38.415,34.367z"/>
							<path fill="#FAB585" d="M31.878,39.697c0.408,0.501,1.146,0.574,1.645,0.163c0.498-0.406,0.579-1.14,0.167-1.643
								c-0.407-0.5-1.141-0.576-1.643-0.17C31.55,38.451,31.471,39.199,31.878,39.697"/>
							<path fill="#FAB585" d="M31.878,39.697c0.408,0.501,1.146,0.574,1.645,0.163c0.498-0.406,0.579-1.14,0.167-1.643
								c-0.407-0.5-1.141-0.576-1.643-0.17C31.55,38.451,31.471,39.199,31.878,39.697z"/>
							<path fill="#FAB585" d="M25.349,45.029c0.411,0.49,1.142,0.568,1.64,0.16c0.497-0.405,0.572-1.139,0.168-1.644
								c-0.406-0.494-1.14-0.568-1.643-0.17C25.022,43.783,24.943,44.521,25.349,45.029"/>
							<path fill="#FAB585" d="M25.349,45.029c0.411,0.49,1.142,0.568,1.64,0.16c0.497-0.405,0.572-1.139,0.168-1.644
								c-0.406-0.494-1.14-0.568-1.643-0.17C25.022,43.783,24.943,44.521,25.349,45.029z"/>
							<path fill="#FAB585" d="M57.413,24.557c0.413,0.501,1.146,0.582,1.644,0.176c0.493-0.418,0.572-1.142,0.162-1.651
								c-0.404-0.496-1.139-0.568-1.639-0.159C57.082,23.325,57.008,24.06,57.413,24.557"/>
							<path fill="#FAB585" d="M57.413,24.557c0.413,0.501,1.146,0.582,1.644,0.176c0.493-0.418,0.572-1.142,0.162-1.651
								c-0.404-0.496-1.139-0.568-1.639-0.159C57.082,23.325,57.008,24.06,57.413,24.557z"/>
							<path fill="#FAB585" d="M50.878,29.889c0.413,0.504,1.146,0.576,1.646,0.175c0.503-0.419,0.574-1.146,0.163-1.651
								c-0.403-0.5-1.134-0.57-1.638-0.158C50.553,28.656,50.473,29.395,50.878,29.889"/>
							<path fill="#FAB585" d="M50.878,29.889c0.413,0.504,1.146,0.576,1.646,0.175c0.503-0.419,0.574-1.146,0.163-1.651
								c-0.403-0.5-1.134-0.57-1.638-0.158C50.553,28.656,50.473,29.395,50.878,29.889z"/>
							<path fill="#FAB585" d="M44.343,35.217c0.419,0.506,1.148,0.577,1.646,0.174c0.503-0.411,0.574-1.141,0.163-1.65
								c-0.402-0.497-1.138-0.567-1.637-0.162C44.014,33.986,43.939,34.723,44.343,35.217"/>
							<path fill="#FAB585" d="M44.343,35.217c0.419,0.506,1.148,0.577,1.646,0.174c0.503-0.411,0.574-1.141,0.163-1.65
								c-0.402-0.497-1.138-0.567-1.637-0.162C44.014,33.986,43.939,34.723,44.343,35.217z"/>
							<path fill="#FAB585" d="M37.811,40.548c0.413,0.508,1.15,0.576,1.646,0.173c0.498-0.413,0.571-1.142,0.161-1.651
								c-0.405-0.494-1.137-0.568-1.634-0.159C37.487,39.316,37.401,40.053,37.811,40.548"/>
							<path fill="#FAB585" d="M37.811,40.548c0.413,0.508,1.15,0.576,1.646,0.173c0.498-0.413,0.571-1.142,0.161-1.651
								c-0.405-0.494-1.137-0.568-1.634-0.159C37.487,39.316,37.401,40.053,37.811,40.548z"/>
							<path fill="#FAB585" d="M31.278,45.878c0.415,0.504,1.148,0.577,1.644,0.177c0.502-0.413,0.574-1.15,0.165-1.649
								c-0.412-0.504-1.14-0.574-1.639-0.17C30.949,44.648,30.873,45.382,31.278,45.878"/>
							<path fill="#FAB585" d="M31.278,45.878c0.415,0.504,1.148,0.577,1.644,0.177c0.502-0.413,0.574-1.15,0.165-1.649
								c-0.412-0.504-1.14-0.574-1.639-0.17C30.949,44.648,30.873,45.382,31.278,45.878z"/>
							<path fill="#FAB585" d="M24.745,51.208c0.412,0.502,1.146,0.571,1.644,0.174c0.496-0.418,0.576-1.149,0.166-1.649
								c-0.407-0.498-1.145-0.572-1.64-0.169C24.415,49.975,24.342,50.708,24.745,51.208"/>
							<path fill="#FAB585" d="M24.745,51.208c0.412,0.502,1.146,0.571,1.644,0.174c0.496-0.418,0.576-1.149,0.166-1.649
								c-0.407-0.498-1.145-0.572-1.64-0.169C24.415,49.975,24.342,50.708,24.745,51.208z"/>
							<path fill="#FAB585" d="M63.58,25.223c0.414,0.497,1.146,0.573,1.641,0.17c0.503-0.418,0.583-1.143,0.173-1.651
								c-0.404-0.49-1.138-0.571-1.638-0.166C63.253,23.987,63.181,24.721,63.58,25.223"/>
							<path fill="#FAB585" d="M63.58,25.223c0.414,0.497,1.146,0.573,1.641,0.17c0.503-0.418,0.583-1.143,0.173-1.651
								c-0.404-0.49-1.138-0.571-1.638-0.166C63.253,23.987,63.181,24.721,63.58,25.223z"/>
							<path fill="#FAB585" d="M57.051,30.555c0.407,0.498,1.147,0.573,1.639,0.166c0.501-0.416,0.581-1.142,0.171-1.647
								c-0.406-0.496-1.138-0.573-1.636-0.169C56.722,29.316,56.644,30.053,57.051,30.555"/>
							<path fill="#FAB585" d="M57.051,30.555c0.407,0.498,1.147,0.573,1.639,0.166c0.501-0.416,0.581-1.142,0.171-1.647
								c-0.406-0.496-1.138-0.573-1.636-0.169C56.722,29.316,56.644,30.053,57.051,30.555z"/>
							<path fill="#FAB585" d="M50.514,35.883c0.409,0.499,1.149,0.576,1.639,0.166c0.506-0.416,0.589-1.142,0.173-1.643
								c-0.404-0.498-1.138-0.574-1.636-0.17C50.185,34.644,50.106,35.385,50.514,35.883"/>
							<path fill="#FAB585" d="M50.514,35.883c0.409,0.499,1.149,0.576,1.639,0.166c0.506-0.416,0.589-1.142,0.173-1.643
								c-0.404-0.498-1.138-0.574-1.636-0.17C50.185,34.644,50.106,35.385,50.514,35.883z"/>
							<path fill="#FAB585" d="M43.98,41.215c0.411,0.5,1.143,0.573,1.643,0.162c0.501-0.412,0.575-1.139,0.168-1.639
								c-0.403-0.499-1.138-0.578-1.633-0.174C43.649,39.975,43.573,40.713,43.98,41.215"/>
							<path fill="#FAB585" d="M43.98,41.215c0.411,0.5,1.143,0.573,1.643,0.162c0.501-0.412,0.575-1.139,0.168-1.639
								c-0.403-0.499-1.138-0.578-1.633-0.174C43.649,39.975,43.573,40.713,43.98,41.215z"/>
							<path fill="#FAB585" d="M37.446,46.543c0.41,0.502,1.145,0.574,1.646,0.164c0.5-0.414,0.582-1.138,0.165-1.646
								c-0.403-0.495-1.142-0.57-1.637-0.168C37.119,45.305,37.038,46.044,37.446,46.543"/>
							<path fill="#FAB585" d="M37.446,46.543c0.41,0.502,1.145,0.574,1.646,0.164c0.5-0.414,0.582-1.138,0.165-1.646
								c-0.403-0.495-1.142-0.57-1.637-0.168C37.119,45.305,37.038,46.044,37.446,46.543z"/>
							<path fill="#FAB585" d="M30.916,51.871c0.418,0.499,1.144,0.575,1.644,0.163c0.499-0.408,0.575-1.134,0.168-1.638
								c-0.408-0.496-1.139-0.57-1.637-0.17C30.591,50.636,30.509,51.366,30.916,51.871"/>
							<path fill="#FAB585" d="M30.916,51.871c0.418,0.499,1.144,0.575,1.644,0.163c0.499-0.408,0.575-1.134,0.168-1.638
								c-0.408-0.496-1.139-0.57-1.637-0.17C30.591,50.636,30.509,51.366,30.916,51.871z"/>
							<path fill="#FAB585" d="M62.979,31.403c0.411,0.5,1.146,0.583,1.644,0.172c0.494-0.408,0.573-1.139,0.163-1.647
								c-0.399-0.493-1.132-0.575-1.637-0.159C62.652,30.173,62.582,30.91,62.979,31.403"/>
							<path fill="#FAB585" d="M62.979,31.403c0.411,0.5,1.146,0.583,1.644,0.172c0.494-0.408,0.573-1.139,0.163-1.647
								c-0.399-0.493-1.132-0.575-1.637-0.159C62.652,30.173,62.582,30.91,62.979,31.403z"/>
							<path fill="#FAB585" d="M56.452,36.735c0.405,0.502,1.14,0.579,1.642,0.168c0.491-0.405,0.568-1.143,0.163-1.646
								c-0.397-0.499-1.135-0.575-1.641-0.159C56.125,35.504,56.047,36.239,56.452,36.735"/>
							<path fill="#FAB585" d="M56.452,36.735c0.405,0.502,1.14,0.579,1.642,0.168c0.491-0.405,0.568-1.143,0.163-1.646
								c-0.397-0.499-1.135-0.575-1.641-0.159C56.125,35.504,56.047,36.239,56.452,36.735z"/>
							<path fill="#FAB585" d="M49.917,42.066c0.405,0.503,1.137,0.576,1.642,0.171c0.489-0.409,0.568-1.146,0.161-1.647
								c-0.401-0.502-1.134-0.575-1.639-0.161C49.588,40.836,49.512,41.571,49.917,42.066"/>
							<path fill="#FAB585" d="M49.917,42.066c0.405,0.503,1.137,0.576,1.642,0.171c0.489-0.409,0.568-1.146,0.161-1.647
								c-0.401-0.502-1.134-0.575-1.639-0.161C49.588,40.836,49.512,41.571,49.917,42.066z"/>
							<path fill="#FAB585" d="M43.38,47.398c0.406,0.5,1.141,0.569,1.646,0.164c0.49-0.408,0.57-1.145,0.168-1.644
								c-0.407-0.504-1.14-0.573-1.645-0.159C43.055,46.163,42.975,46.898,43.38,47.398"/>
							<path fill="#FAB585" d="M43.38,47.398c0.406,0.5,1.141,0.569,1.646,0.164c0.49-0.408,0.57-1.145,0.168-1.644
								c-0.407-0.504-1.14-0.573-1.645-0.159C43.055,46.163,42.975,46.898,43.38,47.398z"/>
							<path fill="#FAB585" d="M36.849,52.727c0.413,0.5,1.148,0.571,1.646,0.168c0.499-0.408,0.569-1.143,0.164-1.642
								c-0.408-0.506-1.137-0.577-1.643-0.162C36.522,51.495,36.443,52.228,36.849,52.727"/>
							<path fill="#FAB585" d="M36.849,52.727c0.413,0.5,1.148,0.571,1.646,0.168c0.499-0.408,0.569-1.143,0.164-1.642
								c-0.408-0.506-1.137-0.577-1.643-0.162C36.522,51.495,36.443,52.228,36.849,52.727z"/>
							<path fill="#FAB585" d="M30.315,58.055c0.413,0.5,1.14,0.569,1.644,0.168c0.495-0.411,0.57-1.144,0.168-1.642
								c-0.411-0.501-1.141-0.578-1.643-0.164C29.985,56.823,29.911,57.555,30.315,58.055"/>
							<path fill="#FAB585" d="M30.315,58.055c0.413,0.5,1.14,0.569,1.644,0.168c0.495-0.411,0.57-1.144,0.168-1.642
								c-0.411-0.501-1.141-0.578-1.643-0.164C29.985,56.823,29.911,57.555,30.315,58.055z"/>
							<path fill="#FAB585" d="M69.151,32.067c0.42,0.503,1.143,0.576,1.647,0.168c0.491-0.41,0.573-1.138,0.158-1.644
								c-0.397-0.495-1.137-0.57-1.636-0.168C68.821,30.833,68.748,31.568,69.151,32.067"/>
							<path fill="#FAB585" d="M69.151,32.067c0.42,0.503,1.143,0.576,1.647,0.168c0.491-0.41,0.573-1.138,0.158-1.644
								c-0.397-0.495-1.137-0.57-1.636-0.168C68.821,30.833,68.748,31.568,69.151,32.067z"/>
							<path fill="#FAB585" d="M62.619,37.395c0.416,0.502,1.138,0.578,1.645,0.169c0.493-0.413,0.575-1.139,0.162-1.646
								c-0.395-0.496-1.139-0.572-1.633-0.168C62.288,36.163,62.216,36.895,62.619,37.395"/>
							<path fill="#FAB585" d="M62.619,37.395c0.416,0.502,1.138,0.578,1.645,0.169c0.493-0.413,0.575-1.139,0.162-1.646
								c-0.395-0.496-1.139-0.572-1.633-0.168C62.288,36.163,62.216,36.895,62.619,37.395z"/>
							<path fill="#FAB585" d="M56.09,42.723c0.411,0.503,1.138,0.579,1.639,0.171c0.497-0.414,0.575-1.136,0.166-1.644
								c-0.398-0.495-1.138-0.571-1.637-0.164C55.757,41.496,55.683,42.225,56.09,42.723"/>
							<path fill="#FAB585" d="M56.09,42.723c0.411,0.503,1.138,0.579,1.639,0.171c0.497-0.414,0.575-1.136,0.166-1.644
								c-0.398-0.495-1.138-0.571-1.637-0.164C55.757,41.496,55.683,42.225,56.09,42.723z"/>
							<path fill="#FAB585" d="M49.559,48.056c0.409,0.498,1.134,0.58,1.634,0.163c0.502-0.405,0.574-1.129,0.173-1.634
								c-0.403-0.5-1.14-0.579-1.637-0.174C49.224,46.826,49.147,47.556,49.559,48.056"/>
							<path fill="#FAB585" d="M49.559,48.056c0.409,0.498,1.134,0.58,1.634,0.163c0.502-0.405,0.574-1.129,0.173-1.634
								c-0.403-0.5-1.14-0.579-1.637-0.174C49.224,46.826,49.147,47.556,49.559,48.056z"/>
							<path fill="#FAB585" d="M43.025,53.383c0.409,0.503,1.133,0.58,1.634,0.164c0.498-0.407,0.578-1.127,0.174-1.636
								c-0.404-0.496-1.145-0.577-1.642-0.167C42.688,52.152,42.618,52.885,43.025,53.383"/>
							<path fill="#FAB585" d="M43.025,53.383c0.409,0.503,1.133,0.58,1.634,0.164c0.498-0.407,0.578-1.127,0.174-1.636
								c-0.404-0.496-1.145-0.577-1.642-0.167C42.688,52.152,42.618,52.885,43.025,53.383z"/>
							<path fill="#FAB585" d="M36.492,58.716c0.407,0.5,1.135,0.574,1.635,0.158c0.502-0.401,0.576-1.13,0.171-1.631
								c-0.403-0.5-1.141-0.581-1.64-0.169C36.156,57.485,36.083,58.219,36.492,58.716"/>
							<path fill="#FAB585" d="M36.492,58.716c0.407,0.5,1.135,0.574,1.635,0.158c0.502-0.401,0.576-1.13,0.171-1.631
								c-0.403-0.5-1.141-0.581-1.64-0.169C36.156,57.485,36.083,58.219,36.492,58.716z"/>
							<path fill="#FAB585" d="M68.548,38.251c0.411,0.508,1.148,0.574,1.646,0.17c0.491-0.407,0.578-1.144,0.163-1.646
								c-0.406-0.497-1.136-0.577-1.635-0.167C68.223,37.023,68.147,37.747,68.548,38.251"/>
							<path fill="#FAB585" d="M68.548,38.251c0.411,0.508,1.148,0.574,1.646,0.17c0.491-0.407,0.578-1.144,0.163-1.646
								c-0.406-0.497-1.136-0.577-1.635-0.167C68.223,37.023,68.147,37.747,68.548,38.251z"/>
							<path fill="#FAB585" d="M62.019,43.579c0.409,0.508,1.146,0.575,1.641,0.172c0.498-0.408,0.579-1.142,0.162-1.646
								c-0.402-0.497-1.134-0.576-1.635-0.161C61.688,42.349,61.615,43.08,62.019,43.579"/>
							<path fill="#FAB585" d="M62.019,43.579c0.409,0.508,1.146,0.575,1.641,0.172c0.498-0.408,0.579-1.142,0.162-1.646
								c-0.402-0.497-1.134-0.576-1.635-0.161C61.688,42.349,61.615,43.08,62.019,43.579z"/>
							<path fill="#FAB585" d="M55.481,48.914c0.407,0.506,1.149,0.575,1.644,0.168c0.501-0.409,0.578-1.144,0.163-1.649
								c-0.403-0.5-1.13-0.569-1.635-0.155C55.156,47.679,55.077,48.413,55.481,48.914"/>
							<path fill="#FAB585" d="M55.481,48.914c0.407,0.506,1.149,0.575,1.644,0.168c0.501-0.409,0.578-1.144,0.163-1.649
								c-0.403-0.5-1.13-0.569-1.635-0.155C55.156,47.679,55.077,48.413,55.481,48.914z"/>
							<path fill="#FAB585" d="M48.946,54.244c0.41,0.502,1.15,0.568,1.646,0.165c0.498-0.404,0.578-1.14,0.164-1.648
								c-0.405-0.493-1.138-0.569-1.637-0.159C48.621,53.009,48.541,53.743,48.946,54.244"/>
							<path fill="#FAB585" d="M48.946,54.244c0.41,0.502,1.15,0.568,1.646,0.165c0.498-0.404,0.578-1.14,0.164-1.648
								c-0.405-0.493-1.138-0.569-1.637-0.159C48.621,53.009,48.541,53.743,48.946,54.244z"/>
							<path fill="#FAB585" d="M42.417,59.571c0.407,0.502,1.143,0.575,1.644,0.171c0.491-0.413,0.579-1.146,0.163-1.652
								c-0.402-0.5-1.134-0.568-1.64-0.154C42.092,58.339,42.012,59.077,42.417,59.571"/>
							<path fill="#FAB585" d="M42.417,59.571c0.407,0.502,1.143,0.575,1.644,0.171c0.491-0.413,0.579-1.146,0.163-1.652
								c-0.402-0.5-1.134-0.568-1.64-0.154C42.092,58.339,42.012,59.077,42.417,59.571z"/>
							<path fill="#FAB585" d="M35.883,64.9c0.411,0.5,1.146,0.577,1.644,0.168c0.494-0.41,0.577-1.142,0.163-1.65
								c-0.404-0.492-1.135-0.57-1.639-0.154C35.556,63.662,35.479,64.402,35.883,64.9"/>
							<path fill="#FAB585" d="M35.883,64.9c0.411,0.5,1.146,0.577,1.644,0.168c0.494-0.41,0.577-1.142,0.163-1.65
								c-0.404-0.492-1.135-0.57-1.639-0.154C35.556,63.662,35.479,64.402,35.883,64.9z"/>
							<path fill="#FAB585" d="M74.725,38.914c0.409,0.501,1.142,0.582,1.639,0.169c0.495-0.412,0.573-1.137,0.165-1.644
								c-0.397-0.498-1.134-0.571-1.635-0.162C74.394,37.681,74.315,38.413,74.725,38.914"/>
							<path fill="#FAB585" d="M74.725,38.914c0.409,0.501,1.142,0.582,1.639,0.169c0.495-0.412,0.573-1.137,0.165-1.644
								c-0.397-0.498-1.134-0.571-1.635-0.162C74.394,37.681,74.315,38.413,74.725,38.914z"/>
							<path fill="#FAB585" d="M68.19,44.242c0.412,0.5,1.141,0.579,1.642,0.168c0.493-0.412,0.571-1.14,0.162-1.646
								c-0.392-0.497-1.138-0.565-1.634-0.159C67.864,43.015,67.782,43.747,68.19,44.242"/>
							<path fill="#FAB585" d="M68.19,44.242c0.412,0.5,1.141,0.579,1.642,0.168c0.493-0.412,0.571-1.14,0.162-1.646
								c-0.392-0.497-1.138-0.565-1.634-0.159C67.864,43.015,67.782,43.747,68.19,44.242z"/>
							<path fill="#FAB585" d="M61.657,49.57c0.412,0.505,1.142,0.581,1.644,0.176c0.495-0.419,0.567-1.145,0.162-1.648
								c-0.405-0.501-1.134-0.571-1.635-0.162C61.327,48.339,61.248,49.073,61.657,49.57"/>
							<path fill="#FAB585" d="M61.657,49.57c0.412,0.505,1.142,0.581,1.644,0.176c0.495-0.419,0.567-1.145,0.162-1.648
								c-0.405-0.501-1.134-0.571-1.635-0.162C61.327,48.339,61.248,49.073,61.657,49.57z"/>
							<path fill="#FAB585" d="M55.125,54.905c0.411,0.498,1.143,0.582,1.641,0.166c0.495-0.412,0.571-1.136,0.16-1.644
								c-0.401-0.5-1.132-0.573-1.635-0.162C54.786,53.671,54.716,54.405,55.125,54.905"/>
							<path fill="#FAB585" d="M55.125,54.905c0.411,0.498,1.143,0.582,1.641,0.166c0.495-0.412,0.571-1.136,0.16-1.644
								c-0.401-0.5-1.132-0.573-1.635-0.162C54.786,53.671,54.716,54.405,55.125,54.905z"/>
							<path fill="#FAB585" d="M48.59,60.229c0.411,0.505,1.143,0.585,1.642,0.175c0.495-0.419,0.572-1.146,0.161-1.649
								c-0.399-0.497-1.134-0.575-1.633-0.163C48.255,59,48.183,59.732,48.59,60.229"/>
							<path fill="#FAB585" d="M48.59,60.229c0.411,0.505,1.143,0.585,1.642,0.175c0.495-0.419,0.572-1.146,0.161-1.649
								c-0.399-0.497-1.134-0.575-1.633-0.163C48.255,59,48.183,59.732,48.59,60.229z"/>
							<path fill="#FAB585" d="M42.057,65.561c0.409,0.501,1.145,0.582,1.644,0.17c0.491-0.415,0.572-1.138,0.159-1.647
								c-0.4-0.496-1.132-0.574-1.634-0.165C41.724,64.328,41.649,65.063,42.057,65.561"/>
							<path fill="#FAB585" d="M42.057,65.561c0.409,0.501,1.145,0.582,1.644,0.17c0.491-0.415,0.572-1.138,0.159-1.647
								c-0.4-0.496-1.132-0.574-1.634-0.165C41.724,64.328,41.649,65.063,42.057,65.561z"/>
							<path fill="#FAB585" d="M74.117,45.099c0.417,0.51,1.147,0.573,1.652,0.165c0.491-0.408,0.566-1.137,0.155-1.641
								c-0.399-0.494-1.137-0.569-1.632-0.166C73.794,43.87,73.716,44.596,74.117,45.099"/>
							<path fill="#FAB585" d="M74.117,45.099c0.417,0.51,1.147,0.573,1.652,0.165c0.491-0.408,0.566-1.137,0.155-1.641
								c-0.399-0.494-1.137-0.569-1.632-0.166C73.794,43.87,73.716,44.596,74.117,45.099z"/>
							<path fill="#FAB585" d="M67.583,50.427c0.417,0.513,1.156,0.58,1.653,0.169c0.491-0.409,0.569-1.139,0.153-1.648
								c-0.399-0.486-1.136-0.567-1.633-0.158C67.258,49.199,67.184,49.928,67.583,50.427"/>
							<path fill="#FAB585" d="M67.583,50.427c0.417,0.513,1.156,0.58,1.653,0.169c0.491-0.409,0.569-1.139,0.153-1.648
								c-0.399-0.486-1.136-0.567-1.633-0.158C67.258,49.199,67.184,49.928,67.583,50.427z"/>
							<path fill="#FAB585" d="M61.05,55.759c0.41,0.505,1.148,0.574,1.646,0.165c0.497-0.403,0.574-1.137,0.161-1.647
								c-0.397-0.491-1.133-0.564-1.637-0.155C60.727,54.527,60.648,55.258,61.05,55.759"/>
							<path fill="#FAB585" d="M61.05,55.759c0.41,0.505,1.148,0.574,1.646,0.165c0.497-0.403,0.574-1.137,0.161-1.647
								c-0.397-0.491-1.133-0.564-1.637-0.155C60.727,54.527,60.648,55.258,61.05,55.759z"/>
							<path fill="#FAB585" d="M54.519,61.091c0.403,0.5,1.148,0.57,1.644,0.163c0.497-0.403,0.577-1.14,0.166-1.644
								c-0.403-0.497-1.139-0.569-1.642-0.161C54.191,59.854,54.112,60.588,54.519,61.091"/>
							<path fill="#FAB585" d="M54.519,61.091c0.403,0.5,1.148,0.57,1.644,0.163c0.497-0.403,0.577-1.14,0.166-1.644
								c-0.403-0.497-1.139-0.569-1.642-0.161C54.191,59.854,54.112,60.588,54.519,61.091z"/>
							<path fill="#FAB585" d="M47.985,66.42c0.407,0.5,1.145,0.572,1.644,0.164c0.498-0.404,0.578-1.14,0.169-1.645
								c-0.404-0.498-1.14-0.572-1.646-0.161C47.658,65.183,47.578,65.917,47.985,66.42"/>
							<path fill="#FAB585" d="M47.985,66.42c0.407,0.5,1.145,0.572,1.644,0.164c0.498-0.404,0.578-1.14,0.169-1.645
								c-0.404-0.498-1.14-0.572-1.646-0.161C47.658,65.183,47.578,65.917,47.985,66.42z"/>
							<path fill="#FAB585" d="M41.452,71.75c0.412,0.501,1.146,0.572,1.644,0.169c0.497-0.404,0.575-1.143,0.17-1.648
								c-0.408-0.493-1.141-0.575-1.649-0.156C41.125,70.511,41.051,71.247,41.452,71.75"/>
							<path fill="#FAB585" d="M41.452,71.75c0.412,0.501,1.146,0.572,1.644,0.169c0.497-0.404,0.575-1.143,0.17-1.648
								c-0.408-0.493-1.141-0.575-1.649-0.156C41.125,70.511,41.051,71.247,41.452,71.75z"/>
							<path fill="#FAB585" d="M80.29,45.763c0.412,0.496,1.148,0.571,1.646,0.166c0.492-0.414,0.578-1.141,0.167-1.647
								c-0.406-0.495-1.141-0.565-1.64-0.162C79.968,44.522,79.886,45.263,80.29,45.763"/>
							<path fill="#FAB585" d="M80.29,45.763c0.412,0.496,1.148,0.571,1.646,0.166c0.492-0.414,0.578-1.141,0.167-1.647
								c-0.406-0.495-1.141-0.565-1.64-0.162C79.968,44.522,79.886,45.263,80.29,45.763z"/>
							<path fill="#FAB585" d="M73.76,51.087c0.409,0.508,1.145,0.579,1.641,0.17c0.497-0.407,0.585-1.141,0.17-1.646
								c-0.404-0.496-1.145-0.566-1.639-0.163C73.434,49.851,73.352,50.592,73.76,51.087"/>
							<path fill="#FAB585" d="M73.76,51.087c0.409,0.508,1.145,0.579,1.641,0.17c0.497-0.407,0.585-1.141,0.17-1.646
								c-0.404-0.496-1.145-0.566-1.639-0.163C73.434,49.851,73.352,50.592,73.76,51.087z"/>
							<path fill="#FAB585" d="M67.225,56.417c0.413,0.507,1.143,0.582,1.641,0.17c0.501-0.41,0.581-1.142,0.171-1.648
								c-0.396-0.49-1.139-0.569-1.639-0.159C66.896,55.186,66.819,55.917,67.225,56.417"/>
							<path fill="#FAB585" d="M67.225,56.417c0.413,0.507,1.143,0.582,1.641,0.17c0.501-0.41,0.581-1.142,0.171-1.648
								c-0.396-0.49-1.139-0.569-1.639-0.159C66.896,55.186,66.819,55.917,67.225,56.417z"/>
							<path fill="#FAB585" d="M60.693,61.75c0.407,0.506,1.145,0.575,1.638,0.169c0.502-0.412,0.584-1.146,0.173-1.649
								c-0.401-0.494-1.14-0.568-1.641-0.162S60.282,61.25,60.693,61.75"/>
							<path fill="#FAB585" d="M60.693,61.75c0.407,0.506,1.145,0.575,1.638,0.169c0.502-0.412,0.584-1.146,0.173-1.649
								c-0.401-0.494-1.14-0.568-1.641-0.162S60.282,61.25,60.693,61.75z"/>
							<path fill="#FAB585" d="M54.16,67.08c0.409,0.5,1.141,0.58,1.642,0.171c0.5-0.414,0.577-1.149,0.167-1.651
								c-0.396-0.492-1.138-0.569-1.637-0.16C53.831,65.847,53.751,66.576,54.16,67.08"/>
							<path fill="#FAB585" d="M54.16,67.08c0.409,0.5,1.141,0.58,1.642,0.171c0.5-0.414,0.577-1.149,0.167-1.651
								c-0.396-0.492-1.138-0.569-1.637-0.16C53.831,65.847,53.751,66.576,54.16,67.08z"/>
							<path fill="#FAB585" d="M47.627,72.41c0.407,0.502,1.143,0.58,1.64,0.167c0.499-0.409,0.572-1.145,0.167-1.646
								c-0.402-0.493-1.138-0.573-1.637-0.161C47.294,71.176,47.222,71.903,47.627,72.41"/>
							<path fill="#FAB585" d="M47.627,72.41c0.407,0.502,1.143,0.58,1.64,0.167c0.499-0.409,0.572-1.145,0.167-1.646
								c-0.402-0.493-1.138-0.573-1.637-0.161C47.294,71.176,47.222,71.903,47.627,72.41z"/>
							<path fill="#FAB585" d="M79.688,51.949c0.411,0.498,1.144,0.571,1.646,0.16c0.493-0.403,0.568-1.14,0.167-1.645
								c-0.407-0.49-1.14-0.57-1.639-0.156C79.363,50.711,79.291,51.444,79.688,51.949"/>
							<path fill="#FAB585" d="M79.688,51.949c0.411,0.498,1.144,0.571,1.646,0.16c0.493-0.403,0.568-1.14,0.167-1.645
								c-0.407-0.49-1.14-0.57-1.639-0.156C79.363,50.711,79.291,51.444,79.688,51.949z"/>
							<path fill="#FAB585" d="M73.153,57.274c0.411,0.503,1.145,0.573,1.644,0.167c0.495-0.405,0.568-1.146,0.167-1.641
								c-0.403-0.501-1.138-0.573-1.635-0.166C72.83,56.042,72.746,56.772,73.153,57.274"/>
							<path fill="#FAB585" d="M73.153,57.274c0.411,0.503,1.145,0.573,1.644,0.167c0.495-0.405,0.568-1.146,0.167-1.641
								c-0.403-0.501-1.138-0.573-1.635-0.166C72.83,56.042,72.746,56.772,73.153,57.274z"/>
							<path fill="#FAB585" d="M66.622,62.601c0.411,0.511,1.143,0.577,1.642,0.172c0.495-0.405,0.574-1.141,0.167-1.642
								c-0.405-0.498-1.139-0.571-1.635-0.164C66.296,61.375,66.219,62.107,66.622,62.601"/>
							<path fill="#FAB585" d="M66.622,62.601c0.411,0.511,1.143,0.577,1.642,0.172c0.495-0.405,0.574-1.141,0.167-1.642
								c-0.405-0.498-1.139-0.571-1.635-0.164C66.296,61.375,66.219,62.107,66.622,62.601z"/>
							<path fill="#FAB585" d="M60.086,67.933c0.416,0.506,1.146,0.576,1.645,0.167c0.495-0.406,0.579-1.142,0.166-1.643
								c-0.404-0.496-1.141-0.57-1.636-0.16C59.765,66.697,59.684,67.438,60.086,67.933"/>
							<path fill="#FAB585" d="M60.086,67.933c0.416,0.506,1.146,0.576,1.645,0.167c0.495-0.406,0.579-1.142,0.166-1.643
								c-0.404-0.496-1.141-0.57-1.636-0.16C59.765,66.697,59.684,67.438,60.086,67.933z"/>
							<path fill="#FAB585" d="M53.554,73.258c0.414,0.514,1.145,0.582,1.644,0.172c0.495-0.4,0.575-1.136,0.168-1.64
								c-0.408-0.499-1.139-0.569-1.638-0.16C53.229,72.034,53.146,72.761,53.554,73.258"/>
							<path fill="#FAB585" d="M53.554,73.258c0.414,0.514,1.145,0.582,1.644,0.172c0.495-0.4,0.575-1.136,0.168-1.64
								c-0.408-0.499-1.139-0.569-1.638-0.16C53.229,72.034,53.146,72.761,53.554,73.258z"/>
							<path fill="#FAB585" d="M47.019,78.59c0.418,0.51,1.146,0.576,1.646,0.174c0.493-0.404,0.577-1.143,0.164-1.645
								c-0.404-0.498-1.138-0.574-1.636-0.166C46.691,77.357,46.619,78.092,47.019,78.59"/>
							<path fill="#FAB585" d="M47.019,78.59c0.418,0.51,1.146,0.576,1.646,0.174c0.493-0.404,0.577-1.143,0.164-1.645
								c-0.404-0.498-1.138-0.574-1.636-0.166C46.691,77.357,46.619,78.092,47.019,78.59z"/>
							<path fill="#FAB585" d="M85.865,52.602c0.403,0.506,1.145,0.582,1.639,0.166c0.497-0.404,0.579-1.132,0.166-1.638
								c-0.399-0.5-1.139-0.574-1.636-0.164C85.532,51.367,85.46,52.104,85.865,52.602"/>
							<path fill="#FAB585" d="M85.865,52.602c0.403,0.506,1.145,0.582,1.639,0.166c0.497-0.404,0.579-1.132,0.166-1.638
								c-0.399-0.5-1.139-0.574-1.636-0.164C85.532,51.367,85.46,52.104,85.865,52.602z"/>
							<path fill="#FAB585" d="M79.332,57.936c0.406,0.502,1.14,0.575,1.639,0.166c0.495-0.405,0.577-1.137,0.166-1.64
								c-0.405-0.5-1.131-0.572-1.636-0.165C79.001,56.704,78.927,57.432,79.332,57.936"/>
							<path fill="#FAB585" d="M79.332,57.936c0.406,0.502,1.14,0.575,1.639,0.166c0.495-0.405,0.577-1.137,0.166-1.64
								c-0.405-0.5-1.131-0.572-1.636-0.165C79.001,56.704,78.927,57.432,79.332,57.936z"/>
							<path fill="#FAB585" d="M72.799,63.266c0.406,0.504,1.141,0.573,1.637,0.166c0.501-0.41,0.579-1.136,0.169-1.643
								c-0.404-0.498-1.135-0.571-1.638-0.158C72.471,62.036,72.394,62.762,72.799,63.266"/>
							<path fill="#FAB585" d="M72.799,63.266c0.406,0.504,1.141,0.573,1.637,0.166c0.501-0.41,0.579-1.136,0.169-1.643
								c-0.404-0.498-1.135-0.571-1.638-0.158C72.471,62.036,72.394,62.762,72.799,63.266z"/>
							<path fill="#FAB585" d="M66.265,68.593c0.407,0.506,1.142,0.575,1.639,0.168c0.496-0.408,0.58-1.138,0.167-1.643
								c-0.404-0.497-1.138-0.574-1.637-0.165C65.937,67.362,65.863,68.096,66.265,68.593"/>
							<path fill="#FAB585" d="M66.265,68.593c0.407,0.506,1.142,0.575,1.639,0.168c0.496-0.408,0.58-1.138,0.167-1.643
								c-0.404-0.497-1.138-0.574-1.637-0.165C65.937,67.362,65.863,68.096,66.265,68.593z"/>
							<path fill="#FAB585" d="M59.732,73.928c0.403,0.502,1.135,0.568,1.638,0.164c0.499-0.41,0.576-1.14,0.167-1.645
								c-0.403-0.497-1.137-0.57-1.637-0.16C59.399,72.697,59.329,73.424,59.732,73.928"/>
							<path fill="#FAB585" d="M59.732,73.928c0.403,0.502,1.135,0.568,1.638,0.164c0.499-0.41,0.576-1.14,0.167-1.645
								c-0.403-0.497-1.137-0.57-1.637-0.16C59.399,72.697,59.329,73.424,59.732,73.928z"/>
							<path fill="#FAB585" d="M53.198,79.256c0.404,0.502,1.141,0.574,1.637,0.168c0.5-0.41,0.58-1.139,0.17-1.65
								c-0.408-0.486-1.141-0.566-1.638-0.156C52.866,78.025,52.795,78.756,53.198,79.256"/>
							<path fill="#FAB585" d="M53.198,79.256c0.404,0.502,1.141,0.574,1.637,0.168c0.5-0.41,0.58-1.139,0.17-1.65
								c-0.408-0.486-1.141-0.566-1.638-0.156C52.866,78.025,52.795,78.756,53.198,79.256z"/>
							<path fill="#FAB585" d="M85.257,58.796c0.413,0.5,1.143,0.569,1.644,0.16c0.499-0.404,0.576-1.135,0.164-1.646
								c-0.406-0.498-1.139-0.569-1.634-0.166C84.932,57.56,84.854,58.289,85.257,58.796"/>
							<path fill="#FAB585" d="M85.257,58.796c0.413,0.5,1.143,0.569,1.644,0.16c0.499-0.404,0.576-1.135,0.164-1.646
								c-0.406-0.498-1.139-0.569-1.634-0.166C84.932,57.56,84.854,58.289,85.257,58.796z"/>
							<path fill="#FAB585" d="M78.728,64.121c0.411,0.505,1.143,0.576,1.64,0.165c0.499-0.403,0.574-1.136,0.167-1.641
								c-0.405-0.5-1.146-0.575-1.639-0.167C78.398,62.887,78.318,63.62,78.728,64.121"/>
							<path fill="#FAB585" d="M78.728,64.121c0.411,0.505,1.143,0.576,1.64,0.165c0.499-0.403,0.574-1.136,0.167-1.641
								c-0.405-0.5-1.146-0.575-1.639-0.167C78.398,62.887,78.318,63.62,78.728,64.121z"/>
							<path fill="#FAB585" d="M72.192,69.451c0.411,0.505,1.139,0.576,1.641,0.164c0.495-0.403,0.575-1.138,0.166-1.641
								c-0.402-0.5-1.14-0.567-1.637-0.164C71.863,68.215,71.787,68.949,72.192,69.451"/>
							<path fill="#FAB585" d="M72.192,69.451c0.411,0.505,1.139,0.576,1.641,0.164c0.495-0.403,0.575-1.138,0.166-1.641
								c-0.402-0.5-1.14-0.567-1.637-0.164C71.863,68.215,71.787,68.949,72.192,69.451z"/>
							<path fill="#FAB585" d="M65.659,74.779c0.413,0.504,1.141,0.574,1.64,0.168c0.497-0.406,0.573-1.139,0.167-1.645
								c-0.403-0.497-1.141-0.571-1.639-0.166C65.328,73.543,65.254,74.281,65.659,74.779"/>
							<path fill="#FAB585" d="M65.659,74.779c0.413,0.504,1.141,0.574,1.64,0.168c0.497-0.406,0.573-1.139,0.167-1.645
								c-0.403-0.497-1.141-0.571-1.639-0.166C65.328,73.543,65.254,74.281,65.659,74.779z"/>
							<path fill="#FAB585" d="M59.126,80.109c0.408,0.508,1.137,0.578,1.646,0.168c0.489-0.404,0.569-1.141,0.161-1.643
								c-0.405-0.5-1.144-0.57-1.639-0.164C58.795,78.877,58.724,79.611,59.126,80.109"/>
							<path fill="#FAB585" d="M59.126,80.109c0.408,0.508,1.137,0.578,1.646,0.168c0.489-0.404,0.569-1.141,0.161-1.643
								c-0.405-0.5-1.144-0.57-1.639-0.164C58.795,78.877,58.724,79.611,59.126,80.109z"/>
							<path fill="#FAB585" d="M52.595,85.439c0.41,0.504,1.139,0.576,1.644,0.166c0.493-0.404,0.567-1.139,0.16-1.637
								c-0.403-0.504-1.139-0.574-1.638-0.168C52.266,84.205,52.191,84.939,52.595,85.439"/>
							<path fill="#FAB585" d="M52.595,85.439c0.41,0.504,1.139,0.576,1.644,0.166c0.493-0.404,0.567-1.139,0.16-1.637
								c-0.403-0.504-1.139-0.574-1.638-0.168C52.266,84.205,52.191,84.939,52.595,85.439z"/>
						</g>
						<g>
							<path fill="#FAB585" d="M93.205,58.561c0.409,0.493,1.145,0.571,1.638,0.166c0.502-0.409,0.576-1.145,0.175-1.651
								c-0.411-0.493-1.14-0.566-1.644-0.155C92.88,57.324,92.8,58.056,93.205,58.561"/>
							<path fill="#FAB585" d="M93.205,58.561c0.409,0.493,1.145,0.571,1.638,0.166c0.502-0.409,0.576-1.145,0.175-1.651
								c-0.411-0.493-1.14-0.566-1.644-0.155C92.88,57.324,92.8,58.056,93.205,58.561z"/>
							<path fill="#FAB585" d="M86.676,63.887c0.407,0.5,1.141,0.573,1.638,0.166c0.498-0.408,0.576-1.145,0.169-1.644
								c-0.403-0.498-1.142-0.575-1.641-0.159C86.345,62.65,86.263,63.384,86.676,63.887"/>
							<path fill="#FAB585" d="M86.676,63.887c0.407,0.5,1.141,0.573,1.638,0.166c0.498-0.408,0.576-1.145,0.169-1.644
								c-0.403-0.498-1.142-0.575-1.641-0.159C86.345,62.65,86.263,63.384,86.676,63.887z"/>
							<path fill="#FAB585" d="M80.139,69.22c0.407,0.499,1.145,0.571,1.643,0.164c0.495-0.409,0.575-1.147,0.166-1.648
								c-0.401-0.499-1.14-0.57-1.641-0.164C79.808,67.976,79.729,68.719,80.139,69.22"/>
							<path fill="#FAB585" d="M80.139,69.22c0.407,0.499,1.145,0.571,1.643,0.164c0.495-0.409,0.575-1.147,0.166-1.648
								c-0.401-0.499-1.14-0.57-1.641-0.164C79.808,67.976,79.729,68.719,80.139,69.22z"/>
							<path fill="#FAB585" d="M73.604,74.549c0.41,0.496,1.146,0.574,1.644,0.164c0.499-0.408,0.572-1.143,0.163-1.645
								c-0.4-0.497-1.134-0.572-1.637-0.166C73.278,73.305,73.195,74.047,73.604,74.549"/>
							<path fill="#FAB585" d="M73.604,74.549c0.41,0.496,1.146,0.574,1.644,0.164c0.499-0.408,0.572-1.143,0.163-1.645
								c-0.4-0.497-1.134-0.572-1.637-0.166C73.278,73.305,73.195,74.047,73.604,74.549z"/>
							<path fill="#FAB585" d="M67.069,79.879c0.41,0.496,1.147,0.572,1.643,0.162c0.499-0.404,0.579-1.141,0.169-1.645
								c-0.405-0.496-1.142-0.572-1.643-0.166C66.743,78.631,66.659,79.379,67.069,79.879"/>
							<path fill="#FAB585" d="M67.069,79.879c0.41,0.496,1.147,0.572,1.643,0.162c0.499-0.404,0.579-1.141,0.169-1.645
								c-0.405-0.496-1.142-0.572-1.643-0.166C66.743,78.631,66.659,79.379,67.069,79.879z"/>
							<path fill="#FAB585" d="M60.539,85.207c0.411,0.496,1.141,0.572,1.64,0.162c0.499-0.406,0.575-1.137,0.168-1.645
								c-0.404-0.488-1.139-0.568-1.642-0.166C60.21,83.965,60.134,84.705,60.539,85.207"/>
							<path fill="#FAB585" d="M60.539,85.207c0.411,0.496,1.141,0.572,1.64,0.162c0.499-0.406,0.575-1.137,0.168-1.645
								c-0.404-0.488-1.139-0.568-1.642-0.166C60.21,83.965,60.134,84.705,60.539,85.207z"/>
							<path fill="#FAB585" d="M92.603,64.738c0.415,0.504,1.146,0.583,1.646,0.177c0.498-0.419,0.572-1.142,0.161-1.651
								c-0.405-0.496-1.136-0.568-1.637-0.16C92.271,63.507,92.195,64.242,92.603,64.738"/>
							<path fill="#FAB585" d="M92.603,64.738c0.415,0.504,1.146,0.583,1.646,0.177c0.498-0.419,0.572-1.142,0.161-1.651
								c-0.405-0.496-1.136-0.568-1.637-0.16C92.271,63.507,92.195,64.242,92.603,64.738z"/>
							<path fill="#FAB585" d="M86.069,70.068c0.416,0.505,1.146,0.58,1.645,0.176c0.502-0.418,0.574-1.144,0.165-1.651
								c-0.404-0.499-1.133-0.57-1.64-0.16C85.742,68.837,85.663,69.574,86.069,70.068"/>
							<path fill="#FAB585" d="M86.069,70.068c0.416,0.505,1.146,0.58,1.645,0.176c0.502-0.418,0.574-1.144,0.165-1.651
								c-0.404-0.499-1.133-0.57-1.64-0.16C85.742,68.837,85.663,69.574,86.069,70.068z"/>
							<path fill="#FAB585" d="M79.532,75.4c0.418,0.504,1.15,0.574,1.649,0.174c0.499-0.412,0.571-1.143,0.16-1.654
								c-0.404-0.494-1.137-0.564-1.636-0.156C79.207,74.168,79.131,74.908,79.532,75.4"/>
							<path fill="#FAB585" d="M79.532,75.4c0.418,0.504,1.15,0.574,1.649,0.174c0.499-0.412,0.571-1.143,0.16-1.654
								c-0.404-0.494-1.137-0.564-1.636-0.156C79.207,74.168,79.131,74.908,79.532,75.4z"/>
							<path fill="#FAB585" d="M73.002,80.729c0.413,0.508,1.147,0.578,1.645,0.178c0.502-0.416,0.573-1.146,0.166-1.652
								c-0.409-0.496-1.14-0.574-1.64-0.164C72.676,79.496,72.592,80.234,73.002,80.729"/>
							<path fill="#FAB585" d="M73.002,80.729c0.413,0.508,1.147,0.578,1.645,0.178c0.502-0.416,0.573-1.146,0.166-1.652
								c-0.409-0.496-1.14-0.574-1.64-0.164C72.676,79.496,72.592,80.234,73.002,80.729z"/>
							<path fill="#FAB585" d="M66.467,86.059c0.417,0.508,1.149,0.58,1.646,0.176c0.5-0.412,0.571-1.146,0.164-1.648
								c-0.411-0.5-1.143-0.572-1.64-0.17C66.139,84.828,66.061,85.562,66.467,86.059"/>
							<path fill="#FAB585" d="M66.467,86.059c0.417,0.508,1.149,0.58,1.646,0.176c0.5-0.412,0.571-1.146,0.164-1.648
								c-0.411-0.5-1.143-0.572-1.64-0.17C66.139,84.828,66.061,85.562,66.467,86.059z"/>
							<path fill="#FAB585" d="M59.936,91.387c0.414,0.502,1.147,0.578,1.643,0.176c0.497-0.416,0.578-1.148,0.164-1.65
								c-0.401-0.498-1.145-0.572-1.638-0.166C59.607,90.156,59.53,90.893,59.936,91.387"/>
							<path fill="#FAB585" d="M59.936,91.387c0.414,0.502,1.147,0.578,1.643,0.176c0.497-0.416,0.578-1.148,0.164-1.65
								c-0.401-0.498-1.145-0.572-1.638-0.166C59.607,90.156,59.53,90.893,59.936,91.387z"/>
							<path fill="#FAB585" d="M98.77,65.404c0.415,0.496,1.148,0.573,1.644,0.167c0.5-0.416,0.58-1.138,0.171-1.646
								c-0.407-0.491-1.136-0.568-1.641-0.167C98.444,64.167,98.37,64.899,98.77,65.404"/>
							<path fill="#FAB585" d="M98.77,65.404c0.415,0.496,1.148,0.573,1.644,0.167c0.5-0.416,0.58-1.138,0.171-1.646
								c-0.407-0.491-1.136-0.568-1.641-0.167C98.444,64.167,98.37,64.899,98.77,65.404z"/>
							<path fill="#FAB585" d="M92.24,70.734c0.407,0.501,1.146,0.577,1.644,0.17c0.499-0.416,0.58-1.145,0.165-1.65
								c-0.403-0.494-1.134-0.57-1.633-0.17C91.911,69.495,91.835,70.235,92.24,70.734"/>
							<path fill="#FAB585" d="M92.24,70.734c0.407,0.501,1.146,0.577,1.644,0.17c0.499-0.416,0.58-1.145,0.165-1.65
								c-0.403-0.494-1.134-0.57-1.633-0.17C91.911,69.495,91.835,70.235,92.24,70.734z"/>
							<path fill="#FAB585" d="M85.705,76.064c0.407,0.5,1.148,0.574,1.642,0.164c0.503-0.412,0.584-1.141,0.171-1.645
								c-0.406-0.494-1.138-0.57-1.639-0.164C85.374,74.826,85.294,75.57,85.705,76.064"/>
							<path fill="#FAB585" d="M85.705,76.064c0.407,0.5,1.148,0.574,1.642,0.164c0.503-0.412,0.584-1.141,0.171-1.645
								c-0.406-0.494-1.138-0.57-1.639-0.164C85.374,74.826,85.294,75.57,85.705,76.064z"/>
							<path fill="#FAB585" d="M79.17,81.395c0.413,0.5,1.145,0.576,1.646,0.164s0.574-1.139,0.165-1.639
								c-0.401-0.5-1.136-0.576-1.633-0.176C78.841,80.158,78.761,80.895,79.17,81.395"/>
							<path fill="#FAB585" d="M79.17,81.395c0.413,0.5,1.145,0.576,1.646,0.164s0.574-1.139,0.165-1.639
								c-0.401-0.5-1.136-0.576-1.633-0.176C78.841,80.158,78.761,80.895,79.17,81.395z"/>
							<path fill="#FAB585" d="M72.639,86.729c0.409,0.494,1.143,0.572,1.644,0.16c0.503-0.414,0.583-1.139,0.165-1.645
								c-0.401-0.498-1.139-0.572-1.635-0.168C72.31,85.488,72.228,86.223,72.639,86.729"/>
							<path fill="#FAB585" d="M72.639,86.729c0.409,0.494,1.143,0.572,1.644,0.16c0.503-0.414,0.583-1.139,0.165-1.645
								c-0.401-0.498-1.139-0.572-1.635-0.168C72.31,85.488,72.228,86.223,72.639,86.729z"/>
							<path fill="#FAB585" d="M66.107,92.051c0.417,0.5,1.141,0.576,1.642,0.166c0.501-0.412,0.577-1.135,0.166-1.645
								c-0.404-0.49-1.135-0.568-1.636-0.164C65.78,90.818,65.7,91.547,66.107,92.051"/>
							<path fill="#FAB585" d="M66.107,92.051c0.417,0.5,1.141,0.576,1.642,0.166c0.501-0.412,0.577-1.135,0.166-1.645
								c-0.404-0.49-1.135-0.568-1.636-0.164C65.78,90.818,65.7,91.547,66.107,92.051z"/>
							<path fill="#FAB585" d="M98.171,71.585c0.413,0.5,1.146,0.581,1.646,0.173c0.492-0.409,0.568-1.143,0.161-1.649
								c-0.402-0.493-1.135-0.576-1.638-0.158C97.845,70.354,97.771,71.09,98.171,71.585"/>
							<path fill="#FAB585" d="M98.171,71.585c0.413,0.5,1.146,0.581,1.646,0.173c0.492-0.409,0.568-1.143,0.161-1.649
								c-0.402-0.493-1.135-0.576-1.638-0.158C97.845,70.354,97.771,71.09,98.171,71.585z"/>
							<path fill="#FAB585" d="M91.64,76.916c0.408,0.502,1.146,0.58,1.644,0.166c0.491-0.404,0.569-1.143,0.163-1.645
								c-0.397-0.496-1.132-0.572-1.638-0.158C91.314,75.686,91.237,76.424,91.64,76.916"/>
							<path fill="#FAB585" d="M91.64,76.916c0.408,0.502,1.146,0.58,1.644,0.166c0.491-0.404,0.569-1.143,0.163-1.645
								c-0.397-0.496-1.132-0.572-1.638-0.158C91.314,75.686,91.237,76.424,91.64,76.916z"/>
							<path fill="#FAB585" d="M85.104,82.244c0.41,0.504,1.141,0.576,1.644,0.174c0.49-0.412,0.571-1.141,0.161-1.648
								c-0.403-0.502-1.132-0.572-1.641-0.158C84.779,81.014,84.701,81.752,85.104,82.244"/>
							<path fill="#FAB585" d="M85.104,82.244c0.41,0.504,1.141,0.576,1.644,0.174c0.49-0.412,0.571-1.141,0.161-1.648
								c-0.403-0.502-1.132-0.572-1.641-0.158C84.779,81.014,84.701,81.752,85.104,82.244z"/>
							<path fill="#FAB585" d="M78.572,87.578c0.405,0.498,1.142,0.572,1.644,0.164c0.493-0.408,0.572-1.141,0.169-1.643
								c-0.407-0.504-1.139-0.572-1.643-0.16C78.245,86.346,78.164,87.08,78.572,87.578"/>
							<path fill="#FAB585" d="M78.572,87.578c0.405,0.498,1.142,0.572,1.644,0.164c0.493-0.408,0.572-1.141,0.169-1.643
								c-0.407-0.504-1.139-0.572-1.643-0.16C78.245,86.346,78.164,87.08,78.572,87.578z"/>
							<path fill="#FAB585" d="M72.04,92.904c0.414,0.504,1.146,0.576,1.644,0.172c0.497-0.41,0.571-1.146,0.166-1.641
								c-0.409-0.506-1.139-0.576-1.644-0.166C71.712,91.68,71.633,92.406,72.04,92.904"/>
							<path fill="#FAB585" d="M72.04,92.904c0.414,0.504,1.146,0.576,1.644,0.172c0.497-0.41,0.571-1.146,0.166-1.641
								c-0.409-0.506-1.139-0.576-1.644-0.166C71.712,91.68,71.633,92.406,72.04,92.904z"/>
							<path fill="#FAB585" d="M65.505,98.236c0.413,0.5,1.142,0.568,1.644,0.168c0.494-0.412,0.571-1.145,0.168-1.645
								c-0.407-0.496-1.141-0.576-1.644-0.16C65.178,97.002,65.103,97.736,65.505,98.236"/>
							<path fill="#FAB585" d="M65.505,98.236c0.413,0.5,1.142,0.568,1.644,0.168c0.494-0.412,0.571-1.145,0.168-1.645
								c-0.407-0.496-1.141-0.576-1.644-0.16C65.178,97.002,65.103,97.736,65.505,98.236z"/>
							<path fill="#FAB585" d="M104.342,72.246c0.419,0.505,1.142,0.58,1.647,0.169c0.494-0.411,0.571-1.136,0.159-1.644
								c-0.397-0.494-1.137-0.569-1.635-0.165C104.011,71.015,103.938,71.748,104.342,72.246"/>
							<path fill="#FAB585" d="M104.342,72.246c0.419,0.505,1.142,0.58,1.647,0.169c0.494-0.411,0.571-1.136,0.159-1.644
								c-0.397-0.494-1.137-0.569-1.635-0.165C104.011,71.015,103.938,71.748,104.342,72.246z"/>
							<path fill="#FAB585" d="M97.813,77.576c0.411,0.502,1.14,0.576,1.643,0.172c0.497-0.414,0.572-1.141,0.161-1.65
								c-0.398-0.492-1.14-0.568-1.635-0.164C97.479,76.34,97.407,77.078,97.813,77.576"/>
							<path fill="#FAB585" d="M97.813,77.576c0.411,0.502,1.14,0.576,1.643,0.172c0.497-0.414,0.572-1.141,0.161-1.65
								c-0.398-0.492-1.14-0.568-1.635-0.164C97.479,76.34,97.407,77.078,97.813,77.576z"/>
							<path fill="#FAB585" d="M91.279,82.904c0.413,0.502,1.139,0.58,1.639,0.17c0.498-0.414,0.576-1.137,0.166-1.645
								c-0.396-0.492-1.138-0.572-1.635-0.162C90.944,81.676,90.872,82.406,91.279,82.904"/>
							<path fill="#FAB585" d="M91.279,82.904c0.413,0.502,1.139,0.58,1.639,0.17c0.498-0.414,0.576-1.137,0.166-1.645
								c-0.396-0.492-1.138-0.572-1.635-0.162C90.944,81.676,90.872,82.406,91.279,82.904z"/>
							<path fill="#FAB585" d="M84.746,88.24c0.413,0.496,1.137,0.576,1.638,0.16c0.499-0.41,0.577-1.131,0.169-1.635
								c-0.401-0.5-1.138-0.578-1.639-0.172C84.411,87.008,84.338,87.74,84.746,88.24"/>
							<path fill="#FAB585" d="M84.746,88.24c0.413,0.496,1.137,0.576,1.638,0.16c0.499-0.41,0.577-1.131,0.169-1.635
								c-0.401-0.5-1.138-0.578-1.639-0.172C84.411,87.008,84.338,87.74,84.746,88.24z"/>
							<path fill="#FAB585" d="M78.215,93.566c0.411,0.498,1.137,0.574,1.638,0.162c0.499-0.404,0.574-1.131,0.171-1.633
								c-0.403-0.5-1.144-0.578-1.643-0.17C77.882,92.332,77.81,93.066,78.215,93.566"/>
							<path fill="#FAB585" d="M78.215,93.566c0.411,0.498,1.137,0.574,1.638,0.162c0.499-0.404,0.574-1.131,0.171-1.633
								c-0.403-0.5-1.144-0.578-1.643-0.17C77.882,92.332,77.81,93.066,78.215,93.566z"/>
							<path fill="#FAB585" d="M71.68,98.898c0.41,0.498,1.139,0.574,1.642,0.158c0.499-0.398,0.573-1.129,0.169-1.635
								c-0.405-0.496-1.14-0.578-1.643-0.166C71.347,97.664,71.272,98.398,71.68,98.898"/>
							<path fill="#FAB585" d="M71.68,98.898c0.41,0.498,1.139,0.574,1.642,0.158c0.499-0.398,0.573-1.129,0.169-1.635
								c-0.405-0.496-1.14-0.578-1.643-0.166C71.347,97.664,71.272,98.398,71.68,98.898z"/>
							<path fill="#FAB585" d="M103.739,78.436c0.413,0.506,1.145,0.572,1.647,0.168c0.489-0.406,0.575-1.145,0.158-1.646
								c-0.402-0.498-1.135-0.576-1.634-0.164C103.414,77.203,103.34,77.928,103.739,78.436"/>
							<path fill="#FAB585" d="M103.739,78.436c0.413,0.506,1.145,0.572,1.647,0.168c0.489-0.406,0.575-1.145,0.158-1.646
								c-0.402-0.498-1.135-0.576-1.634-0.164C103.414,77.203,103.34,77.928,103.739,78.436z"/>
							<path fill="#FAB585" d="M97.206,83.76c0.41,0.508,1.148,0.576,1.646,0.172s0.574-1.143,0.163-1.645
								c-0.406-0.5-1.138-0.576-1.637-0.162C96.879,82.531,96.804,83.262,97.206,83.76"/>
							<path fill="#FAB585" d="M97.206,83.76c0.41,0.508,1.148,0.576,1.646,0.172s0.574-1.143,0.163-1.645
								c-0.406-0.5-1.138-0.576-1.637-0.162C96.879,82.531,96.804,83.262,97.206,83.76z"/>
							<path fill="#FAB585" d="M90.674,89.094c0.409,0.508,1.147,0.576,1.644,0.168c0.498-0.406,0.574-1.141,0.165-1.648
								c-0.408-0.498-1.136-0.574-1.638-0.16C90.348,87.861,90.268,88.596,90.674,89.094"/>
							<path fill="#FAB585" d="M90.674,89.094c0.409,0.508,1.147,0.576,1.644,0.168c0.498-0.406,0.574-1.141,0.165-1.648
								c-0.408-0.498-1.136-0.574-1.638-0.16C90.348,87.861,90.268,88.596,90.674,89.094z"/>
							<path fill="#FAB585" d="M84.141,94.424c0.409,0.506,1.146,0.572,1.645,0.164c0.497-0.404,0.575-1.139,0.164-1.645
								c-0.409-0.494-1.141-0.568-1.64-0.158C83.812,93.186,83.734,93.924,84.141,94.424"/>
							<path fill="#FAB585" d="M84.141,94.424c0.409,0.506,1.146,0.572,1.645,0.164c0.497-0.404,0.575-1.139,0.164-1.645
								c-0.409-0.494-1.141-0.568-1.64-0.158C83.812,93.186,83.734,93.924,84.141,94.424z"/>
							<path fill="#FAB585" d="M77.605,99.754c0.411,0.504,1.147,0.574,1.645,0.17c0.491-0.414,0.579-1.146,0.164-1.654
								c-0.403-0.498-1.133-0.568-1.64-0.154C77.283,98.52,77.203,99.258,77.605,99.754"/>
							<path fill="#FAB585" d="M77.605,99.754c0.411,0.504,1.147,0.574,1.645,0.17c0.491-0.414,0.579-1.146,0.164-1.654
								c-0.403-0.498-1.133-0.568-1.64-0.154C77.283,98.52,77.203,99.258,77.605,99.754z"/>
							<path fill="#FAB585" d="M71.072,105.084c0.413,0.498,1.149,0.572,1.643,0.166c0.495-0.41,0.581-1.139,0.166-1.65
								c-0.405-0.492-1.137-0.57-1.642-0.154C70.746,103.844,70.669,104.584,71.072,105.084"/>
							<path fill="#FAB585" d="M71.072,105.084c0.413,0.498,1.149,0.572,1.643,0.166c0.495-0.41,0.581-1.139,0.166-1.65
								c-0.405-0.492-1.137-0.57-1.642-0.154C70.746,103.844,70.669,104.584,71.072,105.084z"/>
							<path fill="#FAB585" d="M109.914,79.092c0.413,0.504,1.145,0.582,1.642,0.172c0.495-0.412,0.572-1.139,0.167-1.648
								c-0.399-0.492-1.14-0.566-1.637-0.156C109.585,77.859,109.505,78.596,109.914,79.092"/>
							<path fill="#FAB585" d="M109.914,79.092c0.413,0.504,1.145,0.582,1.642,0.172c0.495-0.412,0.572-1.139,0.167-1.648
								c-0.399-0.492-1.14-0.566-1.637-0.156C109.585,77.859,109.505,78.596,109.914,79.092z"/>
							<path fill="#FAB585" d="M103.382,84.422c0.41,0.5,1.142,0.582,1.644,0.168c0.492-0.41,0.569-1.139,0.16-1.645
								c-0.396-0.496-1.138-0.566-1.633-0.156C103.054,83.193,102.973,83.922,103.382,84.422"/>
							<path fill="#FAB585" d="M103.382,84.422c0.41,0.5,1.142,0.582,1.644,0.168c0.492-0.41,0.569-1.139,0.16-1.645
								c-0.396-0.496-1.138-0.566-1.633-0.156C103.054,83.193,102.973,83.922,103.382,84.422z"/>
							<path fill="#FAB585" d="M96.85,89.752c0.409,0.502,1.143,0.582,1.644,0.17c0.493-0.416,0.566-1.141,0.157-1.645
								c-0.403-0.502-1.13-0.57-1.633-0.16C96.517,88.523,96.44,89.256,96.85,89.752"/>
							<path fill="#FAB585" d="M96.85,89.752c0.409,0.502,1.143,0.582,1.644,0.17c0.493-0.416,0.566-1.141,0.157-1.645
								c-0.403-0.502-1.13-0.57-1.633-0.16C96.517,88.523,96.44,89.256,96.85,89.752z"/>
							<path fill="#FAB585" d="M90.312,95.084c0.413,0.498,1.146,0.582,1.646,0.168c0.493-0.41,0.57-1.137,0.157-1.641
								c-0.399-0.502-1.132-0.576-1.633-0.166C89.979,93.854,89.907,94.582,90.312,95.084"/>
							<path fill="#FAB585" d="M90.312,95.084c0.413,0.498,1.146,0.582,1.646,0.168c0.493-0.41,0.57-1.137,0.157-1.641
								c-0.399-0.502-1.132-0.576-1.633-0.166C89.979,93.854,89.907,94.582,90.312,95.084z"/>
							<path fill="#FAB585" d="M83.781,100.412c0.409,0.504,1.141,0.58,1.642,0.172c0.493-0.418,0.573-1.141,0.163-1.646
								c-0.401-0.5-1.138-0.576-1.636-0.166C83.446,99.184,83.372,99.914,83.781,100.412"/>
							<path fill="#FAB585" d="M83.781,100.412c0.409,0.504,1.141,0.58,1.642,0.172c0.493-0.418,0.573-1.141,0.163-1.646
								c-0.401-0.5-1.138-0.576-1.636-0.166C83.446,99.184,83.372,99.914,83.781,100.412z"/>
							<path fill="#FAB585" d="M77.247,105.744c0.412,0.498,1.146,0.58,1.643,0.166c0.491-0.408,0.571-1.137,0.164-1.641
								c-0.404-0.502-1.139-0.578-1.637-0.168C76.913,104.51,76.839,105.244,77.247,105.744"/>
							<path fill="#FAB585" d="M77.247,105.744c0.412,0.498,1.146,0.58,1.643,0.166c0.491-0.408,0.571-1.137,0.164-1.641
								c-0.404-0.502-1.139-0.578-1.637-0.168C76.913,104.51,76.839,105.244,77.247,105.744z"/>
							<path fill="#FAB585" d="M109.308,85.279c0.417,0.51,1.148,0.572,1.653,0.17c0.49-0.41,0.567-1.143,0.152-1.645
								c-0.397-0.496-1.135-0.568-1.632-0.166C108.98,84.051,108.908,84.777,109.308,85.279"/>
							<path fill="#FAB585" d="M109.308,85.279c0.417,0.51,1.148,0.572,1.653,0.17c0.49-0.41,0.567-1.143,0.152-1.645
								c-0.397-0.496-1.135-0.568-1.632-0.166C108.98,84.051,108.908,84.777,109.308,85.279z"/>
							<path fill="#FAB585" d="M102.774,90.609c0.415,0.512,1.155,0.576,1.653,0.168c0.49-0.406,0.569-1.137,0.152-1.646
								c-0.4-0.49-1.137-0.566-1.634-0.16C102.447,89.381,102.371,90.107,102.774,90.609"/>
							<path fill="#FAB585" d="M102.774,90.609c0.415,0.512,1.155,0.576,1.653,0.168c0.49-0.406,0.569-1.137,0.152-1.646
								c-0.4-0.49-1.137-0.566-1.634-0.16C102.447,89.381,102.371,90.107,102.774,90.609z"/>
							<path fill="#FAB585" d="M96.244,95.941c0.407,0.506,1.144,0.57,1.643,0.166c0.497-0.404,0.575-1.143,0.16-1.646
								c-0.398-0.496-1.131-0.564-1.636-0.158C95.918,94.707,95.838,95.439,96.244,95.941"/>
							<path fill="#FAB585" d="M96.244,95.941c0.407,0.506,1.144,0.57,1.643,0.166c0.497-0.404,0.575-1.143,0.16-1.646
								c-0.398-0.496-1.131-0.564-1.636-0.158C95.918,94.707,95.838,95.439,96.244,95.941z"/>
							<path fill="#FAB585" d="M89.709,101.273c0.405,0.502,1.146,0.568,1.644,0.164c0.499-0.408,0.576-1.143,0.167-1.646
								c-0.405-0.498-1.139-0.568-1.644-0.162C89.379,100.033,89.301,100.768,89.709,101.273"/>
							<path fill="#FAB585" d="M89.709,101.273c0.405,0.502,1.146,0.568,1.644,0.164c0.499-0.408,0.576-1.143,0.167-1.646
								c-0.405-0.498-1.139-0.568-1.644-0.162C89.379,100.033,89.301,100.768,89.709,101.273z"/>
							<path fill="#FAB585" d="M83.176,106.6c0.407,0.504,1.144,0.572,1.643,0.166c0.498-0.404,0.577-1.143,0.172-1.645
								c-0.405-0.498-1.145-0.572-1.647-0.16C82.846,105.363,82.771,106.102,83.176,106.6"/>
							<path fill="#FAB585" d="M83.176,106.6c0.407,0.504,1.144,0.572,1.643,0.166c0.498-0.404,0.577-1.143,0.172-1.645
								c-0.405-0.498-1.145-0.572-1.647-0.16C82.846,105.363,82.771,106.102,83.176,106.6z"/>
							<path fill="#FAB585" d="M76.645,111.932c0.408,0.498,1.144,0.572,1.639,0.17c0.497-0.408,0.579-1.148,0.174-1.65
								c-0.411-0.494-1.143-0.572-1.648-0.156C76.312,110.691,76.244,111.426,76.645,111.932"/>
							<path fill="#FAB585" d="M76.645,111.932c0.408,0.498,1.144,0.572,1.639,0.17c0.497-0.408,0.579-1.148,0.174-1.65
								c-0.411-0.494-1.143-0.572-1.648-0.156C76.312,110.691,76.244,111.426,76.645,111.932z"/>
							<path fill="#FAB585" d="M115.48,85.941c0.415,0.502,1.146,0.574,1.644,0.168c0.495-0.412,0.58-1.143,0.173-1.648
								c-0.409-0.49-1.144-0.562-1.641-0.162C115.157,84.705,115.077,85.441,115.48,85.941"/>
							<path fill="#FAB585" d="M115.48,85.941c0.415,0.502,1.146,0.574,1.644,0.168c0.495-0.412,0.58-1.143,0.173-1.648
								c-0.409-0.49-1.144-0.562-1.641-0.162C115.157,84.705,115.077,85.441,115.48,85.941z"/>
							<path fill="#FAB585" d="M108.949,91.27c0.411,0.502,1.145,0.576,1.64,0.168c0.501-0.406,0.588-1.141,0.173-1.65
								c-0.405-0.492-1.144-0.564-1.641-0.156C108.621,90.033,108.544,90.777,108.949,91.27"/>
							<path fill="#FAB585" d="M108.949,91.27c0.411,0.502,1.145,0.576,1.64,0.168c0.501-0.406,0.588-1.141,0.173-1.65
								c-0.405-0.492-1.144-0.564-1.641-0.156C108.621,90.033,108.544,90.777,108.949,91.27z"/>
							<path fill="#FAB585" d="M102.418,96.598c0.407,0.506,1.143,0.582,1.642,0.17c0.497-0.408,0.578-1.145,0.166-1.646
								c-0.396-0.49-1.139-0.568-1.64-0.158C102.087,95.365,102.011,96.098,102.418,96.598"/>
							<path fill="#FAB585" d="M102.418,96.598c0.407,0.506,1.143,0.582,1.642,0.17c0.497-0.408,0.578-1.145,0.166-1.646
								c-0.396-0.49-1.139-0.568-1.64-0.158C102.087,95.365,102.011,96.098,102.418,96.598z"/>
							<path fill="#FAB585" d="M95.883,101.93c0.409,0.508,1.144,0.574,1.642,0.168c0.498-0.41,0.583-1.146,0.171-1.645
								c-0.401-0.496-1.144-0.57-1.641-0.162C95.556,100.693,95.474,101.428,95.883,101.93"/>
							<path fill="#FAB585" d="M95.883,101.93c0.409,0.508,1.144,0.574,1.642,0.168c0.498-0.41,0.583-1.146,0.171-1.645
								c-0.401-0.496-1.144-0.57-1.641-0.162C95.556,100.693,95.474,101.428,95.883,101.93z"/>
							<path fill="#FAB585" d="M89.352,107.26c0.407,0.504,1.143,0.578,1.644,0.17c0.493-0.41,0.575-1.145,0.165-1.646
								c-0.398-0.494-1.138-0.57-1.639-0.16C89.022,106.027,88.944,106.756,89.352,107.26"/>
							<path fill="#FAB585" d="M89.352,107.26c0.407,0.504,1.143,0.578,1.644,0.17c0.493-0.41,0.575-1.145,0.165-1.646
								c-0.398-0.494-1.138-0.57-1.639-0.16C89.022,106.027,88.944,106.756,89.352,107.26z"/>
							<path fill="#FAB585" d="M82.814,112.592c0.414,0.498,1.145,0.576,1.646,0.168c0.495-0.412,0.57-1.145,0.168-1.648
								c-0.407-0.492-1.143-0.574-1.641-0.16C82.485,111.355,82.413,112.086,82.814,112.592"/>
							<path fill="#FAB585" d="M82.814,112.592c0.414,0.498,1.145,0.576,1.646,0.168c0.495-0.412,0.57-1.145,0.168-1.648
								c-0.407-0.492-1.143-0.574-1.641-0.16C82.485,111.355,82.413,112.086,82.814,112.592z"/>
							<path fill="#FAB585" d="M114.88,92.129c0.41,0.498,1.145,0.57,1.644,0.16c0.497-0.402,0.567-1.143,0.166-1.643
								c-0.407-0.49-1.141-0.57-1.637-0.158C114.551,90.891,114.479,91.625,114.88,92.129"/>
							<path fill="#FAB585" d="M114.88,92.129c0.41,0.498,1.145,0.57,1.644,0.16c0.497-0.402,0.567-1.143,0.166-1.643
								c-0.407-0.49-1.141-0.57-1.637-0.158C114.551,90.891,114.479,91.625,114.88,92.129z"/>
							<path fill="#FAB585" d="M108.344,97.457c0.411,0.502,1.146,0.572,1.645,0.162c0.497-0.402,0.569-1.145,0.166-1.643
								c-0.406-0.496-1.137-0.568-1.636-0.16C108.02,96.223,107.938,96.955,108.344,97.457"/>
							<path fill="#FAB585" d="M108.344,97.457c0.411,0.502,1.146,0.572,1.645,0.162c0.497-0.402,0.569-1.145,0.166-1.643
								c-0.406-0.496-1.137-0.568-1.636-0.16C108.02,96.223,107.938,96.955,108.344,97.457z"/>
							<path fill="#FAB585" d="M101.812,102.785c0.409,0.508,1.142,0.574,1.641,0.172c0.498-0.408,0.576-1.145,0.17-1.646
								c-0.406-0.496-1.139-0.572-1.638-0.164S101.41,102.287,101.812,102.785"/>
							<path fill="#FAB585" d="M101.812,102.785c0.409,0.508,1.142,0.574,1.641,0.172c0.498-0.408,0.576-1.145,0.17-1.646
								c-0.406-0.496-1.139-0.572-1.638-0.164S101.41,102.287,101.812,102.785z"/>
							<path fill="#FAB585" d="M95.279,108.113c0.415,0.506,1.144,0.574,1.641,0.168c0.495-0.406,0.578-1.145,0.17-1.645
								c-0.407-0.498-1.139-0.566-1.64-0.162C94.955,106.881,94.875,107.617,95.279,108.113"/>
							<path fill="#FAB585" d="M95.279,108.113c0.415,0.506,1.144,0.574,1.641,0.168c0.495-0.406,0.578-1.145,0.17-1.645
								c-0.407-0.498-1.139-0.566-1.64-0.162C94.955,106.881,94.875,107.617,95.279,108.113z"/>
							<path fill="#FAB585" d="M88.744,113.439c0.415,0.51,1.144,0.58,1.644,0.174c0.496-0.404,0.574-1.139,0.168-1.643
								c-0.402-0.498-1.138-0.568-1.637-0.164C88.422,112.213,88.339,112.941,88.744,113.439"/>
							<path fill="#FAB585" d="M88.744,113.439c0.415,0.51,1.144,0.58,1.644,0.174c0.496-0.404,0.574-1.139,0.168-1.643
								c-0.402-0.498-1.138-0.568-1.637-0.164C88.422,112.213,88.339,112.941,88.744,113.439z"/>
							<path fill="#FAB585" d="M82.213,118.77c0.413,0.51,1.144,0.582,1.642,0.176c0.492-0.406,0.575-1.143,0.165-1.646
								c-0.402-0.494-1.139-0.574-1.634-0.162C81.885,117.539,81.808,118.273,82.213,118.77"/>
							<path fill="#FAB585" d="M82.213,118.77c0.413,0.51,1.144,0.582,1.642,0.176c0.492-0.406,0.575-1.143,0.165-1.646
								c-0.402-0.494-1.139-0.574-1.634-0.162C81.885,117.539,81.808,118.273,82.213,118.77z"/>
							<path fill="#FAB585" d="M121.057,92.785c0.404,0.506,1.145,0.578,1.638,0.166c0.499-0.408,0.578-1.137,0.165-1.639
								c-0.399-0.504-1.138-0.574-1.633-0.162C120.724,91.551,120.652,92.287,121.057,92.785"/>
							<path fill="#FAB585" d="M121.057,92.785c0.404,0.506,1.145,0.578,1.638,0.166c0.499-0.408,0.578-1.137,0.165-1.639
								c-0.399-0.504-1.138-0.574-1.633-0.162C120.724,91.551,120.652,92.287,121.057,92.785z"/>
							<path fill="#FAB585" d="M114.523,98.115c0.405,0.504,1.141,0.576,1.638,0.168s0.577-1.137,0.166-1.641
								c-0.404-0.5-1.133-0.57-1.634-0.166C114.194,96.885,114.117,97.613,114.523,98.115"/>
							<path fill="#FAB585" d="M114.523,98.115c0.405,0.504,1.141,0.576,1.638,0.168s0.577-1.137,0.166-1.641
								c-0.404-0.5-1.133-0.57-1.634-0.166C114.194,96.885,114.117,97.613,114.523,98.115z"/>
							<path fill="#FAB585" d="M107.989,103.445c0.405,0.502,1.14,0.574,1.639,0.168c0.497-0.408,0.575-1.139,0.165-1.643
								c-0.401-0.5-1.134-0.572-1.633-0.162C107.659,102.219,107.586,102.941,107.989,103.445"/>
							<path fill="#FAB585" d="M107.989,103.445c0.405,0.502,1.14,0.574,1.639,0.168c0.497-0.408,0.575-1.139,0.165-1.643
								c-0.401-0.5-1.134-0.572-1.633-0.162C107.659,102.219,107.586,102.941,107.989,103.445z"/>
							<path fill="#FAB585" d="M101.455,108.777c0.407,0.502,1.141,0.572,1.638,0.166c0.499-0.406,0.579-1.141,0.167-1.646
								c-0.403-0.492-1.134-0.572-1.636-0.162C101.128,107.547,101.054,108.275,101.455,108.777"/>
							<path fill="#FAB585" d="M101.455,108.777c0.407,0.502,1.141,0.572,1.638,0.166c0.499-0.406,0.579-1.141,0.167-1.646
								c-0.403-0.492-1.134-0.572-1.636-0.162C101.128,107.547,101.054,108.275,101.455,108.777z"/>
							<path fill="#FAB585" d="M94.922,114.107c0.402,0.504,1.134,0.57,1.638,0.166c0.499-0.408,0.579-1.141,0.17-1.646
								c-0.406-0.498-1.141-0.568-1.638-0.158C94.593,112.877,94.519,113.605,94.922,114.107"/>
							<path fill="#FAB585" d="M94.922,114.107c0.402,0.504,1.134,0.57,1.638,0.166c0.499-0.408,0.579-1.141,0.17-1.646
								c-0.406-0.498-1.141-0.568-1.638-0.158C94.593,112.877,94.519,113.605,94.922,114.107z"/>
							<path fill="#FAB585" d="M88.389,119.439c0.406,0.5,1.139,0.57,1.638,0.164s0.579-1.139,0.17-1.646
								c-0.408-0.49-1.142-0.57-1.64-0.16C88.056,118.205,87.985,118.936,88.389,119.439"/>
							<path fill="#FAB585" d="M88.389,119.439c0.406,0.5,1.139,0.57,1.638,0.164s0.579-1.139,0.17-1.646
								c-0.408-0.49-1.142-0.57-1.64-0.16C88.056,118.205,87.985,118.936,88.389,119.439z"/>
							<path fill="#FAB585" d="M120.45,98.979c0.412,0.498,1.141,0.566,1.642,0.158c0.495-0.406,0.577-1.139,0.168-1.643
								c-0.408-0.498-1.143-0.572-1.638-0.166C120.125,97.742,120.045,98.473,120.45,98.979"/>
							<path fill="#FAB585" d="M120.45,98.979c0.412,0.498,1.141,0.566,1.642,0.158c0.495-0.406,0.577-1.139,0.168-1.643
								c-0.408-0.498-1.143-0.572-1.638-0.166C120.125,97.742,120.045,98.473,120.45,98.979z"/>
							<path fill="#FAB585" d="M113.919,104.305c0.408,0.5,1.137,0.57,1.638,0.162c0.495-0.406,0.577-1.137,0.17-1.643
								c-0.406-0.498-1.146-0.572-1.643-0.166C113.588,103.068,113.508,103.799,113.919,104.305"/>
							<path fill="#FAB585" d="M113.919,104.305c0.408,0.5,1.137,0.57,1.638,0.162c0.495-0.406,0.577-1.137,0.17-1.643
								c-0.406-0.498-1.146-0.572-1.643-0.166C113.588,103.068,113.508,103.799,113.919,104.305z"/>
							<path fill="#FAB585" d="M107.385,109.637c0.409,0.5,1.136,0.57,1.637,0.158c0.497-0.4,0.575-1.137,0.168-1.639
								c-0.403-0.502-1.141-0.57-1.64-0.166C107.051,108.4,106.977,109.131,107.385,109.637"/>
							<path fill="#FAB585" d="M107.385,109.637c0.409,0.5,1.136,0.57,1.637,0.158c0.497-0.4,0.575-1.137,0.168-1.639
								c-0.403-0.502-1.141-0.57-1.64-0.166C107.051,108.4,106.977,109.131,107.385,109.637z"/>
							<path fill="#FAB585" d="M100.854,114.959c0.407,0.506,1.138,0.576,1.635,0.166c0.497-0.4,0.577-1.139,0.168-1.639
								c-0.403-0.502-1.141-0.574-1.64-0.17C100.521,113.727,100.443,114.463,100.854,114.959"/>
							<path fill="#FAB585" d="M100.854,114.959c0.407,0.506,1.138,0.576,1.635,0.166c0.497-0.4,0.577-1.139,0.168-1.639
								c-0.403-0.502-1.141-0.574-1.64-0.17C100.521,113.727,100.443,114.463,100.854,114.959z"/>
							<path fill="#FAB585" d="M94.318,120.287c0.41,0.51,1.136,0.582,1.643,0.172c0.489-0.406,0.569-1.139,0.161-1.643
								c-0.401-0.5-1.143-0.572-1.641-0.166C93.982,119.059,93.915,119.795,94.318,120.287"/>
							<path fill="#FAB585" d="M94.318,120.287c0.41,0.51,1.136,0.582,1.643,0.172c0.489-0.406,0.569-1.139,0.161-1.643
								c-0.401-0.5-1.143-0.572-1.641-0.166C93.982,119.059,93.915,119.795,94.318,120.287z"/>
							<path fill="#FAB585" d="M87.787,125.617c0.409,0.508,1.137,0.578,1.641,0.17c0.491-0.408,0.571-1.135,0.162-1.639
								c-0.403-0.504-1.141-0.572-1.64-0.17C87.455,124.385,87.386,125.121,87.787,125.617"/>
							<path fill="#FAB585" d="M87.787,125.617c0.409,0.508,1.137,0.578,1.641,0.17c0.491-0.408,0.571-1.135,0.162-1.639
								c-0.403-0.504-1.141-0.572-1.64-0.17C87.455,124.385,87.386,125.121,87.787,125.617z"/>
						</g>
					</g>
				</g>
				<polygon fill="none" stroke="#58595B" stroke-width="1.5755" stroke-miterlimit="10" points="49.764,28.275 46.611,19.729 
					26.198,36.239 33.825,41.312 95.401,117.406 98.554,125.955 118.968,109.445 111.341,104.369 				"/>
			</g>
		</g>
	</g>
</g>
<rect x="12.837" y="11.681" fill="none" width="114.325" height="121.64"/>
<g>
	<g>
		<path fill="none" stroke="#4F5877" stroke-width="0.7816" stroke-miterlimit="10" d="M138.834,42.664L139,37.239
			c-2.369,0-4.357-1.536-5.084-3.66v-3.485c0.727-2.122,2.715-3.658,5.084-3.658l-0.057-4.616c-2.299,0-4.249-1.442-5.027-3.471
			v-3.855c0.778-2.03,2.729-3.476,5.027-3.476l0.053-4.711h-5.08V0.83l-5.61,0.052c0,2.984-2.337,5.403-5.219,5.403
			c-2.881,0-5.214-2.418-5.214-5.403l-4.457-0.054c0,2.984-2.331,5.404-5.214,5.404s-5.218-2.42-5.218-5.404l-5.236-0.219
			c0,2.982-2.338,5.402-5.217,5.402c-2.882,0-5.219-2.42-5.219-5.402L82.86,0.719c0,2.982-2.334,5.402-5.215,5.402
			c-2.885,0-5.218-2.42-5.218-5.402L66.51,0.771c0,2.986-2.336,5.404-5.218,5.404s-5.217-2.418-5.217-5.404l-4.452-0.106
			c0,2.985-2.336,5.401-5.217,5.401s-5.218-2.417-5.218-5.401L35.953,0.5c0,2.984-2.336,5.402-5.221,5.402
			c-2.877,0-5.212-2.418-5.212-5.402l-4.457,0.057c0,2.982-2.333,5.403-5.215,5.403c-2.88,0-5.216-2.421-5.216-5.403l-4.55-0.055
			v5.805h-5.08l0.055,4.711c2.298,0,4.248,1.446,5.025,3.472v3.86c-0.778,2.028-2.728,3.47-5.025,3.47L1,26.437
			c2.368,0,4.355,1.536,5.082,3.656v3.488C5.354,35.704,3.368,37.239,1,37.239l0.166,5.424c2.195,0,4.074,1.315,4.917,3.201v4.405
			c-0.843,1.882-2.722,3.199-4.917,3.199l0.107,4.61c2.113,0,3.924,1.229,4.809,3v4.807c-0.885,1.772-2.696,3-4.809,3l-0.055,6.129
			c2.155,0,4,1.273,4.864,3.102v4.602c-0.864,1.828-2.709,3.102-4.864,3.102l-0.109,4.609c2.235,0,4.155,1.367,4.973,3.311v4.189
			c-0.817,1.943-2.737,3.309-4.973,3.309l0.219,5.422c2.072,0,3.849,1.182,4.753,2.896v5.012c-0.904,1.717-2.682,2.896-4.753,2.896
			l0.054,4.615c2.031,0,3.779,1.135,4.699,2.797v5.207c-0.92,1.66-2.668,2.801-4.699,2.801l-0.053,5.811h4.752v5.807l4.55-0.055
			c0-2.984,2.336-5.406,5.216-5.406c2.882,0,5.215,2.422,5.215,5.406l4.457,0.055c0-2.984,2.335-5.402,5.212-5.402
			c2.885,0,5.221,2.418,5.221,5.402l5.236-0.164c0-2.986,2.337-5.402,5.218-5.402s5.217,2.416,5.217,5.402l4.452-0.107
			c0-2.984,2.335-5.404,5.217-5.404s5.218,2.42,5.218,5.404l5.918,0.053c0-2.982,2.333-5.4,5.218-5.4c2.881,0,5.215,2.418,5.215,5.4
			l4.452,0.111c0-2.982,2.337-5.402,5.219-5.402c2.879,0,5.217,2.42,5.217,5.402l5.236-0.221c0-2.984,2.335-5.404,5.218-5.404
			s5.214,2.42,5.214,5.404l4.457-0.055c0-2.982,2.333-5.402,5.214-5.402c2.882,0,5.219,2.42,5.219,5.402l5.61,0.055v-5.479h4.754
			l-0.054-5.811c-2.03,0-3.779-1.141-4.7-2.803v-5.205c0.921-1.662,2.67-2.797,4.7-2.797l0.055-4.615
			c-2.071,0-3.851-1.182-4.755-2.896v-5.012c0.904-1.713,2.684-2.896,4.755-2.896l0.221-5.422c-2.237,0-4.157-1.365-4.976-3.311
			V93.74c0.818-1.945,2.738-3.312,4.976-3.312l-0.111-4.609c-2.153,0-3.999-1.273-4.864-3.102v-4.6
			c0.865-1.83,2.711-3.104,4.864-3.104l-0.053-6.129c-2.114,0-3.925-1.229-4.812-3V61.08c0.887-1.772,2.697-3.002,4.812-3.002
			l0.106-4.61c-2.195,0-4.075-1.317-4.918-3.201v-4.403C134.759,43.981,136.639,42.664,138.834,42.664z"/>
		
			<rect x="12.837" y="11.681" fill="none" stroke="#4F5877" stroke-width="1.5633" stroke-miterlimit="10" width="114.325" height="121.64"/>
	</g>
</g>
<g>
	<ellipse fill="#58595B" cx="103.861" cy="32.684" rx="19.021" ry="19.048"/>
</g>
<g>
	<path fill="#4F5877" d="M52.387,94.396c0.08-0.113,0.239-0.178,0.367-0.129c0.16,0.049,0.24,0.178,0.24,0.305v10.014
		c0,0.367-0.512,0.367-0.512,0v-9.533l-2.173,3.021c-0.223,0.32-0.638,0.031-0.415-0.27L52.387,94.396z"/>
	<path fill="#4F5877" d="M54.62,101.818c0-1.344,0.943-2.16,2.236-2.369c-1.117-0.287-1.964-1.135-1.964-2.398
		c0-0.465,0.111-0.848,0.287-1.184c0.654-1.264,2.269-1.648,3.546-1.648c1.263,0,2.859,0.4,3.498,1.648
		c0.175,0.336,0.304,0.719,0.304,1.184c0,1.328-0.799,2.096-1.98,2.383c1.325,0.193,2.252,1.105,2.252,2.4
		c0,2.334-2.141,3.039-4.105,3.039C56.793,104.855,54.62,104.201,54.62,101.818z M55.1,101.85c0,1.949,2.094,2.592,3.609,2.592
		c1.502,0,3.611-0.576,3.611-2.592c0-1.824-1.822-2.191-3.611-2.191C56.904,99.658,55.1,100.01,55.1,101.85z M62.048,97.082
		c0-0.191-0.016-0.383-0.08-0.576c-0.719-2.43-5.798-2.43-6.517,0c-0.08,0.193-0.096,0.385-0.096,0.576
		c0,1.744,1.613,2.191,3.338,2.191C60.419,99.273,62.048,98.826,62.048,97.082z"/>
	<path fill="#4F5877" d="M25.173,119.443c0.415,0,0.415,0.512,0,0.512h-2.22v4.91c0,1.152,0.192,2.336,1.677,2.336
		c0.304,0,0.735-0.113,0.958-0.24c0.336-0.16,0.639,0.256,0.208,0.479c-0.399,0.211-0.766,0.273-1.166,0.273
		c-1.789,0-2.22-1.359-2.22-2.848v-4.91h-1.486c-0.431,0-0.431-0.512,0-0.512h1.486v-2.049c0-0.35,0.543-0.334,0.543,0v2.049H25.173
		z"/>
	<path fill="#4F5877" d="M31.065,119.33c0.687,0.018,1.341,0.178,1.917,0.512c0.527,0.354,0.926,0.85,1.166,1.488v-1.615
		c0-0.176,0.096-0.287,0.271-0.287c0.175,0,0.288,0.111,0.288,0.287v7.662c0,0.176-0.112,0.287-0.288,0.287
		c-0.176,0-0.271-0.111-0.271-0.287v-1.617c-0.24,0.641-0.639,1.137-1.166,1.49c-1.006,0.59-2.284,0.734-3.499,0.238
		c-1.725-0.705-2.587-2.285-2.54-4.16c0.048-1.613,0.911-3.102,2.428-3.693C29.899,119.41,30.458,119.314,31.065,119.33z
		 M34.147,124.24v-1.391c-0.063-1.168-0.607-2.127-1.662-2.639c-0.463-0.209-0.926-0.305-1.421-0.32
		c-1.358-0.016-2.732,0.703-3.274,2.031c-0.176,0.416-0.272,0.928-0.288,1.393c-0.048,1.23,0.367,2.367,1.405,3.199
		c0.559,0.43,1.246,0.67,1.964,0.719c0.56,0.018,1.087-0.111,1.613-0.352C33.541,126.367,34.084,125.408,34.147,124.24z"/>
	<path fill="#4F5877" d="M51.649,122.834c-0.031-1.967-1.899-3.264-3.864-2.768c-1.63,0.416-2.748,1.967-2.748,3.646v3.695
		c0,0.178-0.111,0.289-0.288,0.289c-0.175,0-0.287-0.111-0.287-0.289v-4.287c0-1.07-0.447-2.143-1.357-2.703
		c-0.719-0.432-1.646-0.561-2.461-0.352c-1.628,0.416-2.779,1.967-2.779,3.646v3.695c0,0.385-0.559,0.385-0.559,0v-7.725
		c0-0.145,0.127-0.273,0.271-0.273c0.176,0,0.287,0.129,0.287,0.273v2.367c0.4-1.424,1.502-2.225,2.635-2.527
		c0.958-0.24,2.045-0.096,2.892,0.414c0.703,0.434,1.31,1.072,1.501,2.354c0.448-1.664,1.486-2.449,2.748-2.768
		c2.029-0.512,4.568,0.734,4.568,3.262v4.623c0,0.178-0.112,0.289-0.288,0.289s-0.271-0.111-0.271-0.289V122.834z"/>
	<path fill="#4F5877" d="M58.415,127.76c-1.325-0.031-2.556-0.672-3.083-1.92v4.625c0,0.176-0.096,0.287-0.271,0.287
		c-0.175,0-0.287-0.111-0.287-0.287v-10.781c0-0.176,0.112-0.289,0.287-0.289c0.176,0,0.271,0.113,0.271,0.289v1.582
		c0.239-0.639,0.639-1.07,1.166-1.424c1.007-0.592,2.284-0.734,3.499-0.238c1.725,0.703,2.587,2.287,2.539,4.158
		c-0.048,1.615-0.911,3.102-2.428,3.695C59.58,127.68,59.022,127.777,58.415,127.76z M55.332,122.85v1.391
		c0.112,1.648,1.294,2.896,3.083,2.961c1.358,0.016,2.731-0.705,3.274-2.031c0.176-0.416,0.271-0.93,0.287-1.393
		c0.048-1.23-0.367-2.367-1.405-3.199c-0.56-0.432-1.246-0.672-1.964-0.721c-0.56-0.016-1.087,0.113-1.613,0.354
		C55.939,120.723,55.396,121.682,55.332,122.85z"/>
	<path fill="#4F5877" d="M65.104,126.273c-0.704-0.85-1.023-1.855-0.959-3.057c0.144-1.711,1.198-3.279,2.923-3.758
		c0.735-0.191,1.613-0.209,2.411,0c1.726,0.479,2.796,2.047,2.939,3.758c0.064,1.201-0.256,2.207-0.958,3.057
		c-0.782,0.928-1.917,1.424-3.178,1.424C67.02,127.697,65.886,127.201,65.104,126.273z M67.26,120.002
		c-2.476,0.656-3.339,3.967-1.709,5.918c0.654,0.785,1.661,1.232,2.732,1.232c1.085,0,2.107-0.447,2.763-1.232
		c1.628-1.951,0.734-5.262-1.741-5.918C68.665,119.842,67.914,119.826,67.26,120.002z"/>
	<path fill="#4F5877" d="M81.68,122.834c0-2.08-1.933-3.391-3.817-2.896c-1.645,0.416-2.748,1.969-2.796,3.648v3.822
		c0,0.178-0.096,0.289-0.271,0.289s-0.287-0.111-0.287-0.289v-7.725c0-0.145,0.111-0.273,0.287-0.273s0.271,0.113,0.271,0.289v2.207
		c0.367-1.344,1.47-2.191,2.62-2.496c2.124-0.543,4.552,0.721,4.552,3.424v4.574c0,0.178-0.096,0.289-0.271,0.289
		c-0.175,0-0.287-0.111-0.287-0.289V122.834z"/>
	<path fill="#4F5877" d="M84.614,125.729c0.208,0.992,1.725,1.455,3.131,1.455c0.958,0,3.002-0.4,3.002-1.855
		c0-2.814-6.549-0.238-6.549-3.693c0-1.537,1.9-2.336,3.387-2.336c1.214,0,2.907,0.209,3.451,1.631
		c0.11,0.447-0.416,0.545-0.528,0.209c-0.446-1.201-2.045-1.312-2.923-1.312c-1.149,0-2.843,0.496-2.843,1.809
		c0,2.703,6.564,0.207,6.564,3.693c0,1.922-2.269,2.369-3.562,2.369c-1.31,0-3.338-0.32-3.642-1.873
		C83.975,125.408,84.566,125.297,84.614,125.729z"/>
</g>
<path fill="#FFFFFF" d="M89.736,35.237c0.391,1.396,2.295,1.925,3.553,2.043c0.17,0.018,0.356,0.033,0.527,0.033v-4.869
	c-2.194-0.186-4.37-0.459-4.37-2.724c0-1.653,1.633-2.486,3.044-2.775c0.442-0.103,0.867-0.154,1.326-0.154v-0.988
	c0-0.34,0.476-0.34,0.476,0v0.988c1.581,0.069,3.604,0.511,4.199,2.129c0.153,0.425-0.374,0.509-0.492,0.203
	c-0.51-1.464-2.295-1.77-3.707-1.804v4.666c2.279,0.188,4.591,0.393,4.591,2.656c0,2.417-2.585,3.133-4.591,3.184v1.004
	c0,0.307-0.476,0.307-0.476,0v-1.021c-1.718-0.05-4.08-0.596-4.591-2.418C89.124,35.034,89.617,34.88,89.736,35.237z M93.816,27.32
	c-0.103,0-0.204,0-0.307,0c-1.207,0.086-2.958,0.561-3.399,1.857c-0.068,0.187-0.103,0.374-0.103,0.578
	c0,1.737,1.819,1.992,3.809,2.179V27.32z M94.292,37.313c1.649-0.033,4.029-0.646,4.029-2.656c0-1.803-1.955-2.008-4.029-2.179
	V37.313z"/>
<path fill="#FFFFFF" d="M107.28,25.139c0.098-0.136,0.291-0.214,0.447-0.156c0.194,0.059,0.292,0.215,0.292,0.371v12.19
	c0,0.449-0.622,0.449-0.622,0V25.937l-2.646,3.681c-0.271,0.39-0.777,0.039-0.506-0.331L107.28,25.139z"/>
<path fill="#FFFFFF" d="M110.113,37.413l1.791-0.08h6.41c0.487,0,0.487,0.63,0,0.63h-8.608c-0.163,0-0.325-0.122-0.387-0.283
	c-0.041-0.164,0.021-0.348,0.164-0.45c2.155-1.587,4.354-3.178,6.49-4.767c1.282-0.938,1.953-2.203,1.729-3.792
	c-0.265-2.038-1.811-3.035-3.765-3.035c-1.993,0-3.521,0.979-3.804,3.035c-0.021,0.165-0.042,0.368-0.042,0.552
	c0,0.346-0.609,0.326-0.609,0c0-0.225,0.02-0.448,0.04-0.654c0.346-2.404,2.137-3.607,4.435-3.607c2.221,0,4.072,1.244,4.397,3.607
	c0.284,1.774-0.47,3.241-1.935,4.321l-4.822,3.586L110.113,37.413z"/>
</svg>
