<?xml version="1.0" encoding="utf-8"?>
<!-- Generator: Adobe Illustrator 15.1.0, SVG Export Plug-In . SVG Version: 6.00 Build 0)  -->
<!DOCTYPE svg PUBLIC "-//W3C//DTD SVG 1.1//EN" "http://www.w3.org/Graphics/SVG/1.1/DTD/svg11.dtd">
<svg version="1.1" id="Capa_1" xmlns="http://www.w3.org/2000/svg" xmlns:xlink="http://www.w3.org/1999/xlink" x="0px" y="0px"
	 width="139px" height="145px" viewBox="0 0 139 145" enable-background="new 0 0 139 145" xml:space="preserve">
<g>
	<g>
		<defs>
			<rect id="SVGID_1_" x="11.676" y="11.26" width="115.153" height="122.481"/>
		</defs>
		<clipPath id="SVGID_2_">
			<use xlink:href="#SVGID_1_"  overflow="visible"/>
		</clipPath>
	</g>
	
		<path fill="none" stroke="#4F5877" stroke-width="1.0057" stroke-linecap="round" stroke-linejoin="round" stroke-miterlimit="10" d="
		M138.586,42.455l0.167-5.459c-2.387,0-4.389-1.547-5.12-3.686V29.8c0.731-2.136,2.733-3.683,5.12-3.683l-0.058-4.648
		c-2.315,0-4.279-1.452-5.062-3.495v-3.882c0.783-2.044,2.747-3.5,5.062-3.5l0.055-4.744h-5.117V0.333l-5.652,0.053
		c0,3.005-2.354,5.44-5.256,5.44c-2.901,0-5.252-2.435-5.252-5.44l-4.489-0.055c0,3.005-2.348,5.442-5.252,5.442
		c-2.903,0-5.255-2.437-5.255-5.442l-5.274-0.222c0,3.005-2.354,5.442-5.255,5.442c-2.902,0-5.257-2.437-5.257-5.442l-4.483,0.112
		c0,3.003-2.352,5.44-5.254,5.44c-2.905,0-5.255-2.437-5.255-5.44l-5.961,0.053c0,3.007-2.352,5.442-5.255,5.442
		c-2.902,0-5.255-2.435-5.255-5.442l-4.484-0.108c0,3.007-2.352,5.44-5.255,5.44c-2.9,0-5.255-2.433-5.255-5.44L34.959,0
		c0,3.005-2.353,5.44-5.258,5.44c-2.898,0-5.25-2.435-5.25-5.44l-4.49,0.057c0,3.003-2.35,5.441-5.252,5.441
		c-2.901,0-5.255-2.438-5.255-5.441L4.872,0.002v5.845h-5.117l0.055,4.744c2.314,0,4.279,1.457,5.062,3.497v3.887
		c-0.783,2.042-2.748,3.494-5.062,3.494l-0.057,4.648c2.385,0,4.386,1.547,5.119,3.681v3.512c-0.732,2.138-2.734,3.685-5.119,3.685
		l0.166,5.459c2.211,0,4.104,1.327,4.953,3.225v4.436c-0.849,1.895-2.741,3.221-4.953,3.221l0.108,4.643
		c2.129,0,3.954,1.236,4.845,3.02v4.841C3.98,67.624,2.156,68.86,0.027,68.86l-0.054,6.17c2.17,0,4.027,1.283,4.898,3.125v4.633
		C4,84.63,2.143,85.911-0.027,85.911l-0.11,4.641c2.252,0,4.185,1.377,5.009,3.334v4.219c-0.824,1.957-2.757,3.332-5.009,3.332
		l0.221,5.459c2.087,0,3.877,1.189,4.788,2.916v5.047c-0.911,1.729-2.701,2.918-4.788,2.918l0.055,4.645
		c2.045,0,3.806,1.145,4.733,2.816v5.244c-0.927,1.672-2.688,2.82-4.733,2.82l-0.053,5.85h4.786v5.848l4.583-0.055
		c0-3.006,2.354-5.441,5.255-5.441c2.903,0,5.252,2.436,5.252,5.441l4.49,0.055c0-3.004,2.352-5.438,5.25-5.438
		c2.905,0,5.258,2.434,5.258,5.438l5.273-0.166c0-3.006,2.355-5.439,5.255-5.439c2.903,0,5.255,2.434,5.255,5.439l4.484-0.107
		c0-3.004,2.353-5.441,5.255-5.441c2.903,0,5.255,2.438,5.255,5.441l5.961,0.055c0-3.004,2.35-5.439,5.255-5.439
		c2.902,0,5.254,2.436,5.254,5.439l4.483,0.111c0-3.004,2.354-5.441,5.257-5.441c2.9,0,5.255,2.438,5.255,5.441l5.274-0.223
		c0-3.006,2.352-5.441,5.255-5.441c2.904,0,5.252,2.436,5.252,5.441l4.489-0.053c0-3.006,2.351-5.441,5.252-5.441
		c2.902,0,5.256,2.436,5.256,5.441l5.652,0.053v-5.518h4.788l-0.054-5.85c-2.046,0-3.807-1.148-4.734-2.822v-5.242
		c0.928-1.672,2.688-2.816,4.734-2.816l0.055-4.645c-2.087,0-3.878-1.191-4.789-2.918v-5.047c0.911-1.725,2.702-2.916,4.789-2.916
		l0.222-5.459c-2.254,0-4.188-1.375-5.011-3.334v-4.215c0.823-1.959,2.757-3.336,5.011-3.336l-0.111-4.641
		c-2.17,0-4.028-1.281-4.899-3.123v-4.633c0.871-1.842,2.729-3.125,4.899-3.125l-0.054-6.17c-2.13,0-3.953-1.237-4.846-3.021v-4.839
		c0.893-1.784,2.716-3.021,4.846-3.021l0.107-4.643c-2.212,0-4.105-1.327-4.953-3.223V45.68
		C134.48,43.783,136.374,42.455,138.586,42.455z"/>
	
		<rect x="11.676" y="11.26" fill="#82E499" stroke="#4F5877" stroke-width="2.0114" stroke-miterlimit="10" width="115.153" height="122.481"/>
	<g>
		<g>
			<g>
				<path fill="#FFFFFF" d="M19.838,62.606c-0.367,0-0.813,0.335-1.023,0.701l-0.244,0.414c0-0.006-0.145,0.468-0.145,0.468
					c-0.217,0.863,0.272,1.039,0.486,0.945c0.237-0.107,0.602-0.268,1.324-0.268h4.494V75.63c0,1.029,0,2.809-0.328,3.473
					l-0.287,0.287c0,0-0.314,0.592,0.326,0.697h4.655c0.485-0.137,0.357-0.525,0.25-0.672c-0.487-0.658-0.487-2.701-0.487-3.785
					V65.008h3.168c4.801-0.192,4.454-2.146,4.454-2.146c-0.146-0.366-0.713-0.256-1.033-0.256H19.838z"/>
			</g>
			<g>
				<g>
					<path fill="#FFFFFF" d="M119.896,79.247c-0.122-0.189-2.153-2.936-2.469-3.361c0,0-3.321-4.888-3.937-5.736
						c0.206-0.252,4.167-5.658,4.167-5.658s0.632-1.004,0.932-1.264c0.282-0.25,0.373-0.588-0.014-0.663l-1.926,0.028
						c-0.472,0.078-0.195,0.506-0.151,0.662c-0.008,0.174-2.414,3.293-3.922,5.52c0,0-0.76-1.09-0.775-1.067
						c-0.326-0.503-2.696-4.441-2.696-4.441c-0.496-0.746-1.059-0.769-1.595-0.769l-3.349,0.047
						c-0.399,0.012-0.337,0.532,0.112,0.702c0,0,0.207,0.169,0.341,0.387c0.943,1.434,4.737,7.524,5.03,8.02
						c-0.152,0.22-3.111,4.797-3.111,4.797c-0.391,0.494-1.112,1.795-1.72,2.543l-0.951-2.127c-0.295-0.621-4.01-8.88-5.671-13.71
						c-0.124-0.359-0.417-0.587-0.755-0.587h-3.084c-0.521,0-0.608,0.675-0.608,0.675c-0.267,0.78-6.76,14.657-7.185,15.325
						c-0.259,0.404-0.332,0.467-0.42,0.756c-0.042,0.146,0.027,0.664,0.36,0.664h2.011c0.56-0.074,0.307-0.611,0.273-0.711
						c-0.029-0.104-0.026-0.523,0.118-1.025c0.151-0.508,0.568-1.797,1.04-2.875h8.705c0.623,1.451,1.065,2.543,1.194,2.932
						l0.479,1.041c0,0-0.243,0.639,0.39,0.646l3.953-0.008c0.074,0,0.13,0,0.185-0.008l2.064,0.008c0.476,0,0.132-0.697,0.132-0.697
						l-0.016-0.242c0.271-0.611,0.88-1.689,1.332-2.512c0.438-0.783,1.704-2.677,2.183-3.218c0.324,0.461,3.993,5.542,3.993,5.542
						c0.525,0.732-0.405,1.258,0.719,1.238h3.917c0.562,0,0.874-0.041,0.944-0.199C120.187,79.739,120.022,79.433,119.896,79.247
						 M71.408,79.472c-0.469-0.527-0.627-2.9-0.627-3.963l-0.011-8.568l-0.005-0.39c-0.009-0.608,0.017-1.664,0.08-2.005
						c0.068-0.346,0.347-1.318,0.347-1.318s0.48-0.68-0.195-0.68h-1.236l-1.789-0.004c-1.09,0-1.869,0.783-2.234,1.508
						c-0.02,0.039-3.388,7.8-4.132,9.215c-0.393-0.866-4.863-9.372-4.863-9.372c-0.206-0.589-0.746-1.324-1.635-1.324l-1.325-0.054
						l-2.423,0.026c-0.383,0-0.303,0.516-0.193,0.664c0.084,0.099,0.412,0.429,0.457,0.919c0.03,0.364,0.036,1.182,0.036,1.182
						c0-0.029,0.045,8.328,0.045,8.328c0,2.392-0.134,3.702-0.196,4.345c-0.047,0.389-0.202,1.051-0.291,1.301
						c0,0-0.067,0.074-0.133,0.176c-0.107-0.176-0.289-0.342-0.3-0.383l-0.998-2.229c-0.298-0.619-4.011-8.881-5.675-13.716
						c-0.126-0.353-0.415-0.586-0.758-0.586h-3.08c-0.53,0-0.603,0.684-0.603,0.684c-0.275,0.776-6.769,14.656-7.188,15.318
						c-0.264,0.412-0.336,0.479-0.422,0.758c-0.045,0.15,0.032,0.672,0.368,0.672h1.963c0.558-0.084,0.278-0.725,0.278-0.725
						l0.117-1.025c0.19-0.881,0.567-1.789,1.042-2.865h8.559c0.619,1.445,1.12,2.541,1.243,2.93l0.484,1.041
						c0,0-0.244,0.645,0.391,0.645h4.078c0.245,0,0.383-0.031,0.475-0.088c0.064,0.045,0.167,0.084,0.343,0.084h1.924
						c0.754,0,0.248-0.359,0.163-0.668c-0.251-0.793-0.251-3.324-0.251-4.549c0,0,0.042-7.182,0.034-8.5
						c0.733,1.414,7.266,13.193,7.266,13.193S66,68.246,66.901,66.108c0.005,1.555,0.048,9.555,0.048,9.555
						c0,1.076,0.062,2.939-0.228,3.391c-0.305,0.479-0.363,0.936,0.155,0.936h4.175C71.433,79.989,71.718,79.823,71.408,79.472
						 M36.446,74.06c0.212-0.501,3.687-8.248,4.025-9.049c0.246,0.666,3.15,8.564,3.329,9.049H36.446z M90.517,73.919
						c0.213-0.505,3.837-8.107,4.186-8.909c0.254,0.666,3.038,8.417,3.216,8.909H90.517z"/>
				</g>
			</g>
			<g>
				<path fill="#FFFFFF" d="M88.998,68.268c0,3.465-2.598,5.938-6.354,5.938c-1.452,0-2.191-0.45-2.262-1.362
					c0,0,0.251,0.105,1.058,0.105c2.01,0,3.715-1.388,3.771-4.761c0.022-1.519-0.839-4.225-4.232-4.225c0,0-1.827,0.041-2.342,0.041
					c0,0.713-0.015,11.827-0.015,11.827c0,1.197-0.025,2.881,0.613,3.686c0.157,0.209,0.233,0.385,0.188,0.42
					c-0.133,0.102-0.292,0.053-0.43,0.053h-4.729c-0.133,0-0.473,0.029-0.434-0.119c0.045-0.131,0.13-0.236,0.197-0.324
					c0.609-0.824,0.609-2.518,0.609-3.715l0.012-9.2c0-0.559-0.12-1.914-0.17-2.287c-0.065-0.443-0.177-0.813-0.475-1.264
					c-0.061-0.09-0.09-0.199-0.069-0.258c0.05-0.167,0.176-0.217,0.309-0.217h2.233l2.041-0.005l3.907-0.029
					C87.274,62.572,88.998,65.7,88.998,68.268"/>
			</g>
		</g>
	</g>
</g>
</svg>
