<?xml version="1.0" encoding="utf-8"?>
<!-- Generator: Adobe Illustrator 15.1.0, SVG Export Plug-In . SVG Version: 6.00 Build 0)  -->
<!DOCTYPE svg PUBLIC "-//W3C//DTD SVG 1.1//EN" "http://www.w3.org/Graphics/SVG/1.1/DTD/svg11.dtd">
<svg version="1.1" id="Capa_1" xmlns="http://www.w3.org/2000/svg" xmlns:xlink="http://www.w3.org/1999/xlink" x="0px" y="0px"
	 width="138px" height="144px" viewBox="0 0 138 144" enable-background="new 0 0 138 144" xml:space="preserve">
<g>
	<g>
		<g>
			<defs>
				<rect id="SVGID_1_" x="12.031" y="11.547" width="113.654" height="120.755"/>
			</defs>
			<clipPath id="SVGID_2_">
				<use xlink:href="#SVGID_1_"  overflow="visible"/>
			</clipPath>
		</g>
		<path fill="none" stroke="#505978" stroke-linecap="round" stroke-linejoin="round" stroke-miterlimit="10" d="M137.287,42.305
			l0.165-5.385c-2.355,0-4.331-1.525-5.053-3.633v-3.46c0.722-2.106,2.697-3.631,5.053-3.631l-0.057-4.583
			c-2.284,0-4.224-1.434-4.996-3.446V14.34c0.772-2.015,2.712-3.451,4.996-3.451l0.055-4.677h-5.051V0.775l-5.579,0.052
			c0,2.962-2.322,5.363-5.188,5.363c-2.863,0-5.182-2.401-5.182-5.363l-4.433-0.054c0,2.962-2.317,5.365-5.183,5.365
			s-5.187-2.402-5.187-5.365l-5.206-0.217c0,2.961-2.323,5.363-5.187,5.363c-2.865,0-5.188-2.402-5.188-5.363l-4.425,0.108
			c0,2.961-2.32,5.363-5.185,5.363c-2.867,0-5.188-2.402-5.188-5.363l-5.883,0.053c0,2.964-2.321,5.365-5.187,5.365
			c-2.865,0-5.186-2.4-5.186-5.365l-4.427-0.105c0,2.963-2.321,5.361-5.186,5.361c-2.863,0-5.187-2.398-5.187-5.361l-5.205-0.165
			c0,2.962-2.322,5.363-5.189,5.363c-2.861,0-5.182-2.401-5.182-5.363l-4.431,0.056c0,2.96-2.318,5.364-5.184,5.364
			c-2.863,0-5.186-2.404-5.186-5.364L5.316,0.449v5.762h-5.05l0.054,4.677c2.285,0,4.223,1.436,4.996,3.447v3.833
			c-0.773,2.011-2.711,3.445-4.996,3.445l-0.055,4.583c2.353,0,4.329,1.525,5.051,3.629v3.462c-0.723,2.108-2.698,3.633-5.051,3.633
			l0.164,5.385c2.183,0,4.05,1.306,4.888,3.177v4.374c-0.838,1.868-2.705,3.175-4.888,3.175l0.107,4.579
			c2.1,0,3.901,1.217,4.781,2.976v4.772c-0.88,1.759-2.681,2.978-4.781,2.978l-0.054,6.085c2.141,0,3.975,1.263,4.834,3.079v4.567
			c-0.859,1.815-2.693,3.079-4.834,3.079l-0.109,4.576c2.224,0,4.131,1.356,4.944,3.286v4.16c-0.813,1.928-2.72,3.284-4.944,3.284
			l0.218,5.382c2.06,0,3.827,1.173,4.726,2.876v4.976c-0.899,1.703-2.666,2.874-4.726,2.874l0.054,4.582
			c2.019,0,3.757,1.127,4.671,2.775v5.17c-0.915,1.649-2.652,2.778-4.671,2.778l-0.052,5.771h4.724v5.765l4.523-0.055
			c0-2.963,2.323-5.365,5.186-5.365c2.866,0,5.184,2.402,5.184,5.365l4.431,0.057c0-2.964,2.321-5.363,5.182-5.363
			c2.867,0,5.189,2.399,5.189,5.363l5.205-0.165c0-2.964,2.324-5.363,5.187-5.363c2.865,0,5.186,2.399,5.186,5.363l4.427-0.106
			c0-2.963,2.321-5.365,5.186-5.365c2.866,0,5.187,2.402,5.187,5.365l5.883,0.053c0-2.961,2.32-5.362,5.188-5.362
			c2.864,0,5.185,2.401,5.185,5.362l4.425,0.109c0-2.96,2.323-5.362,5.188-5.362c2.863,0,5.187,2.402,5.187,5.362l5.206-0.219
			c0-2.962,2.321-5.365,5.187-5.365s5.183,2.403,5.183,5.365l4.433-0.052c0-2.963,2.318-5.365,5.182-5.365
			c2.865,0,5.188,2.402,5.188,5.365l5.579,0.052v-5.438h4.726l-0.054-5.771c-2.019,0-3.756-1.129-4.672-2.78v-5.167
			c0.916-1.649,2.653-2.776,4.672-2.776l0.056-4.582c-2.06,0-3.829-1.173-4.728-2.874v-4.976c0.898-1.701,2.668-2.876,4.728-2.876
			l0.218-5.382c-2.225,0-4.133-1.356-4.945-3.286v-4.156c0.812-1.932,2.721-3.288,4.945-3.288l-0.109-4.576
			c-2.143,0-3.977-1.264-4.836-3.079V77.5c0.859-1.816,2.693-3.079,4.836-3.079l-0.054-6.085c-2.102,0-3.902-1.219-4.782-2.979
			v-4.77c0.88-1.759,2.681-2.978,4.782-2.978l0.105-4.579c-2.183,0-4.051-1.308-4.888-3.177v-4.372
			C133.236,43.612,135.104,42.305,137.287,42.305z"/>
		
			<rect x="12.031" y="11.547" fill="#E7E9ED" stroke="#505978" stroke-width="2" stroke-miterlimit="10" width="113.654" height="120.755"/>
	</g>
	<g>
		<path fill="#AAA4D1" stroke="#505978" stroke-miterlimit="10" d="M108.514,104.731c0,1.135-0.92,2.056-2.057,2.056H32.148
			c-1.137,0-2.057-0.921-2.057-2.056V39.12c0-1.135,0.92-2.057,2.057-2.057h74.309c1.137,0,2.057,0.921,2.057,2.057V104.731z"/>
		
			<line fill="none" stroke="#505978" stroke-width="1.6253" stroke-miterlimit="10" x1="85.788" y1="37.063" x2="85.788" y2="106.787"/>
		
			<rect x="77.592" y="72.791" fill="#FCF9F0" stroke="#505978" stroke-width="0.5" stroke-miterlimit="10" width="17.736" height="4.569"/>
	</g>
</g>
</svg>
