<?xml version="1.0" encoding="utf-8"?>
<!-- Generator: Adobe Illustrator 15.1.0, SVG Export Plug-In . SVG Version: 6.00 Build 0)  -->
<!DOCTYPE svg PUBLIC "-//W3C//DTD SVG 1.1//EN" "http://www.w3.org/Graphics/SVG/1.1/DTD/svg11.dtd">
<svg version="1.1" id="Capa_1" xmlns="http://www.w3.org/2000/svg" xmlns:xlink="http://www.w3.org/1999/xlink" x="0px" y="0px"
	 width="138px" height="144px" viewBox="0 0 138 144" enable-background="new 0 0 138 144" xml:space="preserve">
<g>
	<g>
		<g>
			<defs>
				<rect id="SVGID_1_" x="11.743" y="11.077" width="113.415" height="120.501"/>
			</defs>
			<clipPath id="SVGID_2_">
				<use xlink:href="#SVGID_1_"  overflow="visible"/>
			</clipPath>
		</g>
		<path fill="none" stroke="#505978" stroke-linecap="round" stroke-linejoin="round" stroke-miterlimit="10" d="M136.736,41.77
			l0.164-5.374c-2.35,0-4.322-1.521-5.043-3.625v-3.454c0.721-2.102,2.693-3.623,5.043-3.623l-0.055-4.573
			c-2.281,0-4.217-1.431-4.988-3.439v-3.82c0.771-2.011,2.707-3.443,4.988-3.443l0.053-4.667h-5.041V0.327l-5.566,0.052
			c0,2.956-2.318,5.352-5.178,5.352c-2.855,0-5.17-2.396-5.17-5.352l-4.422-0.054c0,2.956-2.314,5.354-5.174,5.354
			s-5.176-2.398-5.176-5.354l-5.193-0.217c0,2.955-2.32,5.352-5.176,5.352c-2.859,0-5.178-2.397-5.178-5.352l-4.416,0.108
			c0,2.955-2.314,5.352-5.174,5.352c-2.861,0-5.176-2.397-5.176-5.352l-5.872,0.052c0,2.958-2.317,5.354-5.176,5.354
			s-5.176-2.396-5.176-5.354L50.22,0.164c0,2.957-2.317,5.35-5.176,5.35c-2.857,0-5.176-2.394-5.176-5.35L34.674,0
			c0,2.956-2.317,5.352-5.179,5.352c-2.854,0-5.17-2.396-5.17-5.352l-4.422,0.056c0,2.955-2.314,5.353-5.173,5.353
			c-2.858,0-5.176-2.398-5.176-5.353L5.042,0.002v5.75h-5.04l0.054,4.667c2.279,0,4.214,1.433,4.985,3.44v3.824
			c-0.771,2.007-2.706,3.438-4.985,3.438L0,25.694c2.349,0,4.32,1.521,5.042,3.621v3.456C4.32,34.875,2.349,36.396,0,36.396
			l0.164,5.374c2.178,0,4.042,1.303,4.878,3.171v4.364c-0.836,1.864-2.7,3.169-4.878,3.169l0.106,4.569
			c2.097,0,3.894,1.214,4.772,2.97v4.762c-0.878,1.756-2.675,2.972-4.772,2.972l-0.053,6.072c2.138,0,3.967,1.26,4.825,3.072v4.559
			c-0.858,1.811-2.688,3.072-4.825,3.072l-0.108,4.566c2.218,0,4.122,1.354,4.933,3.279v4.15c-0.811,1.924-2.715,3.277-4.933,3.277
			l0.217,5.373c2.056,0,3.819,1.168,4.716,2.869v4.965c-0.897,1.699-2.66,2.867-4.716,2.867l0.054,4.572
			c2.015,0,3.749,1.125,4.662,2.77v5.16c-0.913,1.645-2.647,2.773-4.662,2.773l-0.052,5.758h4.714v5.752l4.513-0.055
			c0-2.957,2.318-5.354,5.176-5.354c2.858,0,5.173,2.396,5.173,5.354l4.422,0.057c0-2.957,2.316-5.352,5.17-5.352
			c2.862,0,5.179,2.395,5.179,5.352l5.193-0.164c0-2.959,2.319-5.354,5.176-5.354c2.859,0,5.176,2.395,5.176,5.354l4.417-0.107
			c0-2.955,2.317-5.354,5.176-5.354s5.176,2.398,5.176,5.354l5.872,0.053c0-2.955,2.314-5.35,5.176-5.35
			c2.859,0,5.174,2.395,5.174,5.35l4.416,0.109c0-2.953,2.318-5.352,5.178-5.352c2.855,0,5.176,2.398,5.176,5.352l5.193-0.219
			c0-2.955,2.316-5.354,5.176-5.354s5.174,2.398,5.174,5.354l4.422-0.051c0-2.957,2.314-5.354,5.17-5.354
			c2.859,0,5.178,2.396,5.178,5.354l5.566,0.051v-5.426h4.717l-0.053-5.758c-2.016,0-3.75-1.129-4.664-2.775v-5.156
			c0.914-1.646,2.648-2.771,4.664-2.771l0.053-4.572c-2.055,0-3.818-1.17-4.717-2.867v-4.965c0.898-1.699,2.662-2.869,4.717-2.869
			l0.219-5.373c-2.221,0-4.123-1.354-4.936-3.279v-4.146c0.812-1.928,2.715-3.281,4.936-3.281l-0.109-4.566
			c-2.137,0-3.969-1.262-4.826-3.072v-4.559c0.857-1.812,2.689-3.072,4.826-3.072l-0.053-6.072c-2.098,0-3.895-1.216-4.773-2.973
			v-4.759c0.879-1.755,2.676-2.972,4.773-2.972l0.105-4.569c-2.18,0-4.043-1.305-4.879-3.171V44.94
			C132.693,43.074,134.557,41.77,136.736,41.77z"/>
		
			<rect x="11.743" y="11.077" fill="#E7E9ED" stroke="#505978" stroke-width="2" stroke-miterlimit="10" width="113.415" height="120.501"/>
	</g>
	<g>
		<path fill="#D0E6F7" stroke="#505978" stroke-miterlimit="10" d="M108.023,104.064c0,1.133-0.92,2.053-2.053,2.053H31.817
			c-1.134,0-2.053-0.92-2.053-2.053V38.592c0-1.133,0.918-2.053,2.053-2.053h74.154c1.133,0,2.053,0.919,2.053,2.053V104.064z"/>
		
			<line fill="none" stroke="#505978" stroke-width="1.6253" stroke-miterlimit="10" x1="85.346" y1="36.539" x2="85.346" y2="106.117"/>
		
			<rect x="77.166" y="72.192" fill="#FCF9F0" stroke="#505978" stroke-width="0.5" stroke-miterlimit="10" width="17.699" height="4.56"/>
	</g>
</g>
</svg>
