<?xml version="1.0" encoding="utf-8"?>
<!-- Generator: Adobe Illustrator 15.1.0, SVG Export Plug-In . SVG Version: 6.00 Build 0)  -->
<!DOCTYPE svg PUBLIC "-//W3C//DTD SVG 1.1//EN" "http://www.w3.org/Graphics/SVG/1.1/DTD/svg11.dtd">
<svg version="1.1" id="Capa_1" xmlns="http://www.w3.org/2000/svg" xmlns:xlink="http://www.w3.org/1999/xlink" x="0px" y="0px"
	 width="139px" height="144px" viewBox="0 0 139 144" enable-background="new 0 0 139 144" xml:space="preserve">
<g>
	<g>
		
			<path fill="none" stroke="#4F5877" stroke-width="0.9915" stroke-linecap="round" stroke-linejoin="round" stroke-miterlimit="10" d="
			M136.835,41.871L137,36.484c-2.354,0-4.326-1.525-5.047-3.635v-3.46c0.721-2.107,2.693-3.632,5.047-3.632l-0.057-4.583
			c-2.282,0-4.219-1.435-4.99-3.447v-3.829c0.771-2.016,2.708-3.452,4.99-3.452l0.054-4.679h-5.044V0.328l-5.57,0.052
			c0,2.963-2.32,5.365-5.181,5.365c-2.859,0-5.177-2.401-5.177-5.365l-4.424-0.054c0,2.963-2.314,5.367-5.178,5.367
			c-2.861,0-5.18-2.403-5.18-5.367l-5.198-0.217c0,2.962-2.319,5.365-5.18,5.365s-5.181-2.403-5.181-5.365l-4.42,0.109
			c0,2.961-2.316,5.365-5.178,5.365c-2.863,0-5.18-2.403-5.18-5.365L65.035,0.27c0,2.965-2.319,5.367-5.18,5.367
			s-5.179-2.401-5.179-5.367l-4.42-0.105c0,2.964-2.319,5.363-5.179,5.363c-2.859,0-5.18-2.399-5.18-5.363L34.699,0
			c0,2.963-2.319,5.365-5.183,5.365c-2.856,0-5.174-2.401-5.174-5.365l-4.425,0.056c0,2.961-2.316,5.366-5.177,5.366
			c-2.859,0-5.179-2.404-5.179-5.366L5.044,0.002v5.764H0.001l0.054,4.679c2.281,0,4.217,1.436,4.989,3.448v3.833
			c-0.772,2.012-2.708,3.446-4.989,3.446L0,25.756c2.35,0,4.323,1.525,5.044,3.63v3.463C4.323,34.959,2.35,36.484,0,36.484
			l0.163,5.386c2.18,0,4.044,1.306,4.881,3.179v4.375C4.208,51.292,2.343,52.6,0.163,52.6l0.106,4.579
			c2.098,0,3.896,1.218,4.775,2.978v4.774c-0.878,1.76-2.677,2.979-4.775,2.979l-0.053,6.086c2.139,0,3.97,1.264,4.828,3.082v4.568
			c-0.858,1.815-2.689,3.08-4.828,3.08l-0.109,4.575c2.22,0,4.125,1.357,4.937,3.287v4.162c-0.812,1.929-2.717,3.285-4.937,3.285
			l0.218,5.385c2.057,0,3.822,1.172,4.719,2.875v4.979c-0.897,1.703-2.662,2.875-4.719,2.875l0.054,4.582
			c2.016,0,3.752,1.129,4.665,2.776v5.173c-0.913,1.649-2.649,2.778-4.665,2.778l-0.052,5.771h4.717V143l4.517-0.055
			c0-2.965,2.32-5.367,5.179-5.367c2.861,0,5.177,2.402,5.177,5.367L24.342,143c0-2.963,2.318-5.363,5.174-5.363
			c2.863,0,5.183,2.4,5.183,5.363l5.197-0.164c0-2.965,2.321-5.365,5.18-5.365c2.86,0,5.179,2.4,5.179,5.365l4.42-0.105
			c0-2.965,2.318-5.366,5.179-5.366s5.18,2.401,5.18,5.366l5.875,0.054c0-2.964,2.315-5.363,5.18-5.363
			c2.86,0,5.179,2.399,5.179,5.363l4.418,0.108c0-2.961,2.32-5.365,5.182-5.365c2.859,0,5.18,2.404,5.18,5.365l5.198-0.219
			c0-2.965,2.317-5.367,5.18-5.367s5.177,2.402,5.177,5.367l4.426-0.053c0-2.963,2.315-5.367,5.176-5.367
			c2.859,0,5.181,2.404,5.181,5.367l5.57,0.053v-5.441h4.72l-0.054-5.771c-2.017,0-3.751-1.129-4.666-2.78v-5.171
			c0.915-1.647,2.649-2.776,4.666-2.776l0.055-4.582c-2.057,0-3.821-1.174-4.721-2.875v-4.979c0.897-1.7,2.664-2.875,4.721-2.875
			l0.22-5.385c-2.223,0-4.127-1.356-4.939-3.287v-4.158c0.812-1.932,2.718-3.288,4.939-3.288l-0.11-4.576
			c-2.14,0-3.972-1.265-4.829-3.08V77.08c0.857-1.818,2.689-3.082,4.829-3.082l-0.054-6.086c-2.099,0-3.896-1.219-4.775-2.98v-4.771
			c0.88-1.76,2.678-2.98,4.775-2.98l0.105-4.579c-2.18,0-4.046-1.308-4.882-3.178v-4.373
			C132.789,43.179,134.654,41.871,136.835,41.871z"/>
		
			<rect x="11.751" y="11.104" fill="#E6E9ED" stroke="#4F5877" stroke-width="1.983" stroke-miterlimit="10" width="113.497" height="120.792"/>
	</g>
	<g>
		<g>
			<path fill="#FEEAA2" stroke="#4F5877" stroke-width="1.0856" stroke-miterlimit="10" d="M117.307,99.016
				c0.234,0.861-0.271,1.75-1.13,1.984L60.02,116.465c-0.857,0.236-1.745-0.268-1.981-1.129l-13.63-49.667
				c-0.236-0.859,0.269-1.747,1.127-1.986l56.157-15.462c0.858-0.237,1.746,0.269,1.98,1.129L117.307,99.016z"/>
			
				<line fill="none" stroke="#4F5877" stroke-width="1.2648" stroke-miterlimit="10" x1="86.073" y1="52.522" x2="100.559" y2="105.303"/>
			<polygon fill="#FCF9F0" points="101.652,81.041 88.251,84.732 87.301,81.273 100.706,77.582 			"/>
		</g>
		<g>
			<path fill="#82E499" stroke="#4F5877" stroke-width="1.0856" stroke-miterlimit="10" d="M75.805,98.373
				c-0.212,0.867-1.084,1.398-1.949,1.188L17.272,85.744c-0.866-0.211-1.396-1.082-1.185-1.951L28.265,33.75
				c0.21-0.865,1.082-1.398,1.947-1.187l56.584,13.815c0.864,0.212,1.396,1.085,1.185,1.953L75.805,98.373z"/>
			
				<line fill="none" stroke="#4F5877" stroke-width="1.2648" stroke-miterlimit="10" x1="71.059" y1="42.535" x2="58.117" y2="95.717"/>
			<polygon fill="#FCF9F0" points="70.844,75.045 57.338,71.748 58.186,68.263 71.691,71.561 			"/>
		</g>
	</g>
</g>
</svg>
