<?xml version="1.0" encoding="utf-8"?>
<!-- Generator: Adobe Illustrator 15.1.0, SVG Export Plug-In . SVG Version: 6.00 Build 0)  -->
<!DOCTYPE svg PUBLIC "-//W3C//DTD SVG 1.1//EN" "http://www.w3.org/Graphics/SVG/1.1/DTD/svg11.dtd">
<svg version="1.1" id="Capa_1" xmlns="http://www.w3.org/2000/svg" xmlns:xlink="http://www.w3.org/1999/xlink" x="0px" y="0px"
	 width="139px" height="145px" viewBox="0 0 139 145" enable-background="new 0 0 139 145" xml:space="preserve">
<g>
	<g>
		<g>
			<g>
				<defs>
					<rect id="SVGID_1_" x="12.126" y="11.258" width="115.153" height="122.484"/>
				</defs>
				<clipPath id="SVGID_2_">
					<use xlink:href="#SVGID_1_"  overflow="visible"/>
				</clipPath>
			</g>
			<g>
				<g>
					
						<path fill="none" stroke="#4F5877" stroke-width="1.0057" stroke-linecap="round" stroke-linejoin="round" stroke-miterlimit="10" d="
						M139.037,42.455l0.166-5.459c-2.387,0-4.389-1.547-5.119-3.687v-3.508c0.73-2.137,2.732-3.684,5.119-3.684l-0.057-4.648
						c-2.316,0-4.279-1.453-5.062-3.495v-3.882c0.783-2.044,2.746-3.5,5.062-3.5l0.055-4.744h-5.117V0.332l-5.652,0.053
						c0,3.005-2.354,5.44-5.256,5.44s-5.252-2.435-5.252-5.44l-4.49-0.055c0,3.006-2.348,5.442-5.252,5.442
						c-2.902,0-5.254-2.436-5.254-5.442l-5.275-0.221c0,3.004-2.354,5.441-5.254,5.441c-2.902,0-5.258-2.437-5.258-5.441
						L82.658,0.22c0,3.003-2.352,5.44-5.254,5.44c-2.906,0-5.256-2.437-5.256-5.44l-5.961,0.053c0,3.007-2.352,5.442-5.255,5.442
						c-2.902,0-5.255-2.435-5.255-5.442l-4.484-0.107c0,3.006-2.352,5.439-5.255,5.439c-2.9,0-5.255-2.433-5.255-5.439L35.409,0
						c0,3.005-2.353,5.44-5.258,5.44c-2.898,0-5.25-2.435-5.25-5.44l-4.49,0.056c0,3.004-2.35,5.442-5.252,5.442
						c-2.901,0-5.255-2.438-5.255-5.442L5.322,0.002v5.845H0.205l0.055,4.744c2.314,0,4.279,1.457,5.062,3.497v3.888
						c-0.783,2.04-2.748,3.493-5.062,3.493l-0.056,4.648c2.384,0,4.386,1.547,5.118,3.681v3.512
						c-0.732,2.139-2.734,3.686-5.118,3.686l0.166,5.459c2.211,0,4.104,1.326,4.953,3.223v4.437
						c-0.849,1.895-2.741,3.222-4.953,3.222l0.108,4.643c2.129,0,3.954,1.236,4.845,3.02v4.841
						c-0.891,1.784-2.716,3.021-4.845,3.021l-0.054,6.171c2.17,0,4.027,1.281,4.898,3.123v4.633
						c-0.871,1.842-2.729,3.125-4.898,3.125l-0.11,4.641c2.252,0,4.185,1.375,5.009,3.332v4.221c-0.824,1.955-2.757,3.33-5.009,3.33
						l0.221,5.461c2.087,0,3.877,1.189,4.788,2.916v5.047c-0.911,1.727-2.701,2.916-4.788,2.916l0.055,4.646
						c2.045,0,3.806,1.145,4.733,2.814v5.244c-0.927,1.674-2.688,2.82-4.733,2.82l-0.053,5.852h4.786v5.846l4.583-0.055
						c0-3.004,2.354-5.441,5.255-5.441c2.903,0,5.252,2.438,5.252,5.441l4.49,0.057c0-3.006,2.352-5.439,5.25-5.439
						c2.905,0,5.258,2.434,5.258,5.439l5.273-0.166c0-3.006,2.355-5.439,5.255-5.439c2.903,0,5.255,2.434,5.255,5.439l4.484-0.107
						c0-3.006,2.353-5.443,5.255-5.443c2.903,0,5.255,2.438,5.255,5.443l5.961,0.053c0-3.002,2.35-5.438,5.256-5.438
						c2.902,0,5.254,2.436,5.254,5.438l4.482,0.111c0-3.002,2.355-5.439,5.258-5.439c2.9,0,5.254,2.438,5.254,5.439l5.275-0.223
						c0-3.004,2.352-5.441,5.254-5.441c2.904,0,5.252,2.438,5.252,5.441l4.49-0.053c0-3.004,2.35-5.441,5.252-5.441
						s5.256,2.438,5.256,5.441l5.652,0.053v-5.516h4.787l-0.053-5.852c-2.047,0-3.807-1.146-4.734-2.822v-5.242
						c0.928-1.67,2.688-2.814,4.734-2.814l0.055-4.646c-2.088,0-3.879-1.189-4.789-2.916v-5.047c0.91-1.725,2.701-2.916,4.789-2.916
						l0.221-5.461c-2.254,0-4.188-1.375-5.01-3.332v-4.215c0.822-1.961,2.756-3.336,5.01-3.336l-0.111-4.641
						c-2.17,0-4.027-1.283-4.898-3.125v-4.631c0.871-1.844,2.729-3.125,4.898-3.125l-0.053-6.171c-2.131,0-3.953-1.237-4.846-3.021
						V61c0.893-1.783,2.715-3.021,4.846-3.021l0.107-4.643c-2.213,0-4.105-1.327-4.953-3.224v-4.434
						C134.932,43.784,136.824,42.455,139.037,42.455z"/>
					
						<rect x="12.126" y="11.258" fill="#F79B82" stroke="#4F5877" stroke-width="2.0114" stroke-miterlimit="10" width="115.153" height="122.484"/>
				</g>
			</g>
		</g>
		<g>
			<defs>
				<rect id="SVGID_3_" x="12.126" y="11.258" width="115.153" height="122.484"/>
			</defs>
			<clipPath id="SVGID_4_">
				<use xlink:href="#SVGID_3_"  overflow="visible"/>
			</clipPath>
		</g>
	</g>
	<g>
		<defs>
			<rect id="SVGID_5_" x="12.126" y="11.258" width="115.153" height="122.484"/>
		</defs>
		<clipPath id="SVGID_6_">
			<use xlink:href="#SVGID_5_"  overflow="visible"/>
		</clipPath>
		<g clip-path="url(#SVGID_6_)">
			<g>
				<g>
					<defs>
						<rect id="SVGID_7_" x="12.874" y="11.258" width="114.222" height="122.484"/>
					</defs>
					<clipPath id="SVGID_8_">
						<use xlink:href="#SVGID_7_"  overflow="visible"/>
					</clipPath>
				</g>
				<g>
					<g>
						<path fill="none" stroke="#4F5877" stroke-width="1.0016" stroke-miterlimit="10" d="M138.758,42.454l0.166-5.458
							c-2.367,0-4.354-1.547-5.078-3.687v-3.508c0.725-2.137,2.711-3.684,5.078-3.684l-0.057-4.648
							c-2.297,0-4.246-1.452-5.021-3.495v-3.882c0.775-2.046,2.725-3.501,5.021-3.501l0.053-4.744h-5.074V0.331l-5.607,0.054
							c0,3.005-2.334,5.439-5.215,5.439c-2.877,0-5.207-2.434-5.207-5.439l-4.455-0.056c0,3.007-2.328,5.443-5.209,5.443
							c-2.879,0-5.211-2.436-5.211-5.443l-5.232-0.221c0,3.005-2.336,5.441-5.213,5.441c-2.879,0-5.215-2.436-5.215-5.441
							l-4.447,0.113c0,3.001-2.332,5.439-5.211,5.439c-2.881,0-5.213-2.438-5.213-5.439l-5.913,0.053
							c0,3.005-2.333,5.439-5.212,5.439s-5.213-2.434-5.213-5.439l-4.447-0.108c0,3.007-2.333,5.439-5.213,5.439
							c-2.877,0-5.212-2.432-5.212-5.439l-5.231-0.167c0,3.006-2.334,5.441-5.215,5.441c-2.875,0-5.208-2.435-5.208-5.441
							l-4.454,0.058c0,3.003-2.33,5.441-5.209,5.441c-2.878,0-5.212-2.438-5.212-5.441L6.124,0.002v5.844H1.048l0.054,4.744
							c2.296,0,4.244,1.456,5.021,3.498v3.888c-0.777,2.041-2.725,3.493-5.021,3.493l-0.056,4.648c2.365,0,4.351,1.547,5.077,3.681
							v3.512c-0.726,2.139-2.712,3.686-5.077,3.686l0.165,5.458c2.193,0,4.07,1.327,4.913,3.225v4.435
							c-0.842,1.896-2.719,3.223-4.913,3.223l0.107,4.642c2.111,0,3.921,1.237,4.806,3.021v4.84C5.24,67.623,3.43,68.86,1.318,68.86
							l-0.053,6.171c2.151,0,3.994,1.279,4.858,3.123v4.633c-0.864,1.842-2.707,3.125-4.858,3.125l-0.11,4.641
							c2.234,0,4.151,1.375,4.969,3.332v4.221c-0.817,1.955-2.734,3.33-4.969,3.33l0.219,5.461c2.07,0,3.846,1.188,4.75,2.916v5.047
							c-0.904,1.727-2.68,2.914-4.75,2.914l0.055,4.646c2.029,0,3.775,1.146,4.695,2.816v5.244
							c-0.919,1.674-2.666,2.818-4.695,2.818l-0.052,5.854h4.747v5.846l4.546-0.055c0-3.006,2.334-5.441,5.212-5.441
							c2.879,0,5.209,2.436,5.209,5.441l4.454,0.055c0-3.004,2.333-5.438,5.208-5.438c2.881,0,5.215,2.434,5.215,5.438l5.231-0.164
							c0-3.008,2.335-5.439,5.212-5.439c2.879,0,5.213,2.432,5.213,5.439l4.447-0.109c0-3.002,2.334-5.441,5.213-5.441
							s5.212,2.439,5.212,5.441l5.913,0.055c0-3.004,2.332-5.438,5.213-5.438c2.879,0,5.211,2.434,5.211,5.438l4.447,0.111
							c0-3.002,2.336-5.441,5.215-5.441c2.877,0,5.213,2.439,5.213,5.441l5.232-0.221c0-3.006,2.332-5.443,5.211-5.443
							c2.881,0,5.209,2.438,5.209,5.443l4.455-0.057c0-3.004,2.33-5.439,5.207-5.439c2.881,0,5.215,2.436,5.215,5.439l5.607,0.057
							v-5.518h4.748l-0.053-5.854c-2.029,0-3.775-1.145-4.695-2.82v-5.242c0.92-1.67,2.666-2.816,4.695-2.816l0.055-4.646
							c-2.068,0-3.848-1.189-4.75-2.914v-5.047c0.902-1.727,2.682-2.916,4.75-2.916l0.221-5.461c-2.236,0-4.154-1.375-4.971-3.332
							v-4.215c0.816-1.961,2.734-3.336,4.971-3.336l-0.113-4.641c-2.15,0-3.994-1.283-4.857-3.125v-4.633
							c0.863-1.844,2.707-3.123,4.857-3.123l-0.053-6.171c-2.111,0-3.922-1.238-4.805-3.021V61c0.883-1.783,2.693-3.022,4.805-3.022
							l0.107-4.642c-2.193,0-4.072-1.327-4.912-3.225v-4.433C134.686,43.784,136.564,42.454,138.758,42.454z"/>
						
							<rect x="12.874" y="11.258" fill="#F79B82" stroke="#4F5877" stroke-width="2.0032" stroke-miterlimit="10" width="114.222" height="122.484"/>
					</g>
				</g>
			</g>
			<g>
				<g>
					<defs>
						<polygon id="SVGID_9_" points="155.604,133.809 -7.434,133.809 -7.434,-41.021 116.656,-41.021 155.604,-41.021 						"/>
					</defs>
					<clipPath id="SVGID_10_">
						<use xlink:href="#SVGID_9_"  overflow="visible"/>
					</clipPath>
					<g clip-path="url(#SVGID_10_)">
						<path fill="#F7DAD5" stroke="#4F5877" stroke-width="2.5521" stroke-miterlimit="10" d="M112.312,135.422
							c0,6.01-7.684,10.885-17.162,10.885l0,0c-9.479,0-17.164-4.875-17.164-10.885V11.435c0-6.015,7.686-10.888,17.164-10.888l0,0
							c9.479,0,17.162,4.873,17.162,10.888V135.422z"/>
						<path fill="#F7DAD5" stroke="#4F5877" stroke-width="2.471" stroke-miterlimit="10" d="M61.662,135.42
							c0,6.012-7.428,10.887-16.594,10.887l0,0c-9.165,0-16.594-4.875-16.594-10.887V11.433c0-6.013,7.429-10.886,16.594-10.886l0,0
							c9.166,0,16.594,4.873,16.594,10.886V135.42z"/>
						
							<polygon fill="#E988B8" stroke="#4F5877" stroke-width="2.341" stroke-linecap="round" stroke-linejoin="round" stroke-miterlimit="10" points="
							0.674,61.119 12.126,-46.318 71.837,-46.192 124.787,-41.021 140.281,60.167 						"/>
						
							<line fill="none" stroke="#4F5877" stroke-width="2.5232" stroke-miterlimit="10" x1="3.87" y1="51.927" x2="138.357" y2="51.927"/>
					</g>
				</g>
			</g>
			<g>
				
					<line fill="none" stroke="#4F5877" stroke-width="1.7437" stroke-linecap="round" stroke-miterlimit="10" x1="46.058" y1="74.375" x2="47.13" y2="68.715"/>
				
					<line fill="none" stroke="#4F5877" stroke-width="1.7437" stroke-linecap="round" stroke-miterlimit="10" x1="37.993" y1="104.598" x2="37.989" y2="98.842"/>
				
					<line fill="none" stroke="#4F5877" stroke-width="1.7437" stroke-linecap="round" stroke-miterlimit="10" x1="40.432" y1="81.414" x2="38.227" y2="76.105"/>
				
					<line fill="none" stroke="#4F5877" stroke-width="1.7437" stroke-linecap="round" stroke-miterlimit="10" x1="49.382" y1="117.602" x2="46.699" y2="112.52"/>
				
					<line fill="none" stroke="#4F5877" stroke-width="1.7437" stroke-linecap="round" stroke-miterlimit="10" x1="41.83" y1="125.111" x2="39.329" y2="119.936"/>
				
					<line fill="none" stroke="#4F5877" stroke-width="1.7437" stroke-linecap="round" stroke-miterlimit="10" x1="49.382" y1="92.246" x2="46.881" y2="87.07"/>
			</g>
			<g>
				
					<line fill="none" stroke="#4F5877" stroke-width="1.7437" stroke-linecap="round" stroke-miterlimit="10" x1="94.326" y1="74.039" x2="93.254" y2="68.382"/>
				
					<line fill="none" stroke="#4F5877" stroke-width="1.7437" stroke-linecap="round" stroke-miterlimit="10" x1="102.389" y1="104.262" x2="102.393" y2="98.504"/>
				
					<line fill="none" stroke="#4F5877" stroke-width="1.7437" stroke-linecap="round" stroke-miterlimit="10" x1="99.951" y1="81.08" x2="102.156" y2="75.77"/>
				
					<line fill="none" stroke="#4F5877" stroke-width="1.7437" stroke-linecap="round" stroke-miterlimit="10" x1="91" y1="117.27" x2="93.686" y2="112.186"/>
				
					<line fill="none" stroke="#4F5877" stroke-width="1.7437" stroke-linecap="round" stroke-miterlimit="10" x1="98.553" y1="124.777" x2="101.055" y2="119.6"/>
				
					<line fill="none" stroke="#4F5877" stroke-width="1.7437" stroke-linecap="round" stroke-miterlimit="10" x1="91" y1="91.912" x2="93.502" y2="86.734"/>
			</g>
		</g>
	</g>
	<g>
		<path fill="#4F5877" d="M46.918,24.083h7.111c0.337,0,0.337,0.516,0,0.516h-7.208c-0.257,0-0.434-0.194-0.434-0.436v-9.389
			c0-0.226,0.177-0.418,0.434-0.418h7.224c0.321,0,0.321,0.482-0.016,0.482h-7.111v4.445h6.789c0.338,0,0.338,0.484,0,0.484h-6.789
			V24.083z"/>
		<path fill="#4F5877" d="M55.489,16.674c-0.145-0.338,0.386-0.564,0.547-0.193l3.652,7.248l3.62-7.2
			c0.128-0.338,0.644-0.209,0.466,0.193l-3.845,7.78c-0.096,0.192-0.338,0.209-0.466,0.016L55.489,16.674z"/>
		<path fill="#4F5877" d="M73.247,20.476c0.017,0.225-0.064,0.531-0.499,0.531h-7.24c0.081,0.693,0.338,1.353,0.821,1.917
			c0.676,0.806,1.689,1.224,2.735,1.24c0.885,0.017,1.786-0.257,2.526-0.82c0.289-0.226,0.676,0.096,0.37,0.402
			c-0.724,0.677-1.786,0.982-2.848,0.967c-1.255-0.017-2.494-0.483-3.234-1.434c-0.676-0.87-1.03-1.868-0.965-3.077
			c0.081-1.739,1.207-3.302,2.944-3.784c0.74-0.193,1.625-0.21,2.43,0C72.089,16.899,73.215,18.398,73.247,20.476z M65.492,20.476
			h7.207c-0.031-1.772-0.98-3.108-2.59-3.543c-0.643-0.161-1.399-0.161-2.059,0.016C66.441,17.383,65.508,18.865,65.492,20.476z"/>
		<path fill="#4F5877" d="M75.961,18.43c0.355-1.224,1.578-2.062,2.914-2.062c0.176,0,0.289,0.098,0.289,0.274
			s-0.113,0.274-0.289,0.274c-2.061,0-2.914,1.755-2.914,3.705v3.721c0,0.177-0.127,0.29-0.273,0.29
			c-0.176,0-0.289-0.113-0.289-0.29v-7.699c0-0.145,0.113-0.274,0.289-0.274c0.146,0,0.273,0.13,0.273,0.274V18.43z"/>
		<path fill="#4F5877" d="M79.82,16.723c-0.08-0.322,0.338-0.532,0.549-0.193l3.65,7.232l3.572-7.232
			c0.16-0.402,0.74-0.162,0.547,0.193l-5.453,10.792c-0.211,0.434-0.66,0.225-0.516-0.178l1.496-3.028L79.82,16.723z"/>
		<path fill="#4F5877" d="M94.406,24.147l1.418-0.065h5.066c0.387,0,0.387,0.5,0,0.5h-6.805c-0.129,0-0.258-0.098-0.305-0.226
			c-0.033-0.129,0.016-0.274,0.127-0.354c1.707-1.257,3.443-2.513,5.133-3.77c1.014-0.741,1.545-1.739,1.367-2.996
			c-0.209-1.61-1.432-2.399-2.977-2.399c-1.576,0-2.783,0.773-3.008,2.399c-0.018,0.13-0.033,0.291-0.033,0.436
			c0,0.274-0.482,0.257-0.482,0c0-0.177,0.018-0.354,0.033-0.515c0.273-1.901,1.689-2.852,3.506-2.852
			c1.754,0,3.219,0.983,3.475,2.852c0.227,1.401-0.369,2.561-1.527,3.414l-3.812,2.835L94.406,24.147z"/>
		<path fill="#4F5877" d="M53.097,37.611c0.177-0.273,0.531-0.193,0.531,0.128v9.745c0,0.371-0.547,0.386-0.547,0V38.61
			l-4.151,6.523c-0.129,0.242-0.435,0.242-0.563,0l-4.151-6.491v8.843c0,0.386-0.547,0.371-0.547,0v-9.745
			c0-0.321,0.354-0.402,0.515-0.128l4.473,6.974L53.097,37.611z"/>
		<path fill="#4F5877" d="M56.84,46.421c-0.708-0.854-1.029-1.868-0.965-3.077c0.145-1.722,1.207-3.301,2.944-3.784
			c0.74-0.193,1.625-0.21,2.43,0c1.738,0.483,2.815,2.062,2.96,3.784c0.064,1.209-0.257,2.223-0.965,3.077
			c-0.788,0.935-1.931,1.434-3.201,1.434C58.771,47.855,57.629,47.355,56.84,46.421z M59.013,40.107
			c-2.494,0.661-3.363,3.995-1.722,5.959c0.66,0.79,1.673,1.24,2.751,1.24c1.094,0,2.124-0.45,2.783-1.24
			c1.641-1.964,0.74-5.298-1.753-5.959C60.428,39.946,59.672,39.931,59.013,40.107z"/>
		<path fill="#4F5877" d="M73.537,42.958c0-2.094-1.947-3.415-3.846-2.916c-1.657,0.418-2.767,1.981-2.816,3.672v3.85
			c0,0.177-0.096,0.29-0.273,0.29s-0.29-0.113-0.29-0.29v-7.78c0-0.145,0.113-0.274,0.29-0.274s0.273,0.113,0.273,0.29v2.223
			c0.37-1.352,1.48-2.206,2.639-2.513c2.14-0.547,4.585,0.725,4.585,3.447v4.606c0,0.177-0.097,0.29-0.273,0.29
			c-0.178,0-0.289-0.113-0.289-0.29V42.958z"/>
		<path fill="#4F5877" d="M80.064,39.543c0.418,0,0.418,0.516,0,0.516h-2.236v4.944c0,1.16,0.193,2.352,1.688,2.352
			c0.307,0,0.74-0.113,0.967-0.242c0.338-0.161,0.645,0.257,0.209,0.482c-0.402,0.21-0.773,0.274-1.176,0.274
			c-1.801,0-2.234-1.369-2.234-2.867V40.06h-1.496c-0.434,0-0.434-0.516,0-0.516h1.496v-2.062c0-0.354,0.547-0.338,0.547,0v2.062
			H80.064z"/>
		<path fill="#4F5877" d="M89.941,42.958c0-2.094-1.947-3.415-3.846-2.916c-1.658,0.418-2.768,1.981-2.816,3.672v3.833
			c0,0.178-0.096,0.29-0.273,0.29c-0.176,0-0.289-0.112-0.289-0.29V37.482c0-0.386,0.562-0.354,0.562,0.017v4.525
			c0.369-1.352,1.48-2.206,2.639-2.513c2.141-0.547,4.586,0.725,4.586,3.447v4.59c0,0.178-0.098,0.29-0.275,0.29
			c-0.176,0-0.287-0.112-0.287-0.29V42.958z"/>
		<path fill="#4F5877" d="M92.896,45.874c0.209,0.999,1.738,1.465,3.154,1.465c0.965,0,3.025-0.403,3.025-1.868
			c0-2.835-6.598-0.242-6.598-3.72c0-1.546,1.914-2.352,3.41-2.352c1.223,0,2.928,0.209,3.475,1.642
			c0.113,0.451-0.418,0.548-0.529,0.21c-0.451-1.208-2.059-1.321-2.945-1.321c-1.158,0-2.863,0.499-2.863,1.82
			c0,2.722,6.613,0.209,6.613,3.72c0,1.933-2.285,2.384-3.588,2.384c-1.32,0-3.363-0.322-3.668-1.885
			C92.254,45.551,92.848,45.438,92.896,45.874z"/>
	</g>
</g>
</svg>
