<?xml version="1.0" encoding="utf-8"?>
<!-- Generator: Adobe Illustrator 15.1.0, SVG Export Plug-In . SVG Version: 6.00 Build 0)  -->
<!DOCTYPE svg PUBLIC "-//W3C//DTD SVG 1.1//EN" "http://www.w3.org/Graphics/SVG/1.1/DTD/svg11.dtd">
<svg version="1.1" id="Capa_1" xmlns="http://www.w3.org/2000/svg" xmlns:xlink="http://www.w3.org/1999/xlink" x="0px" y="0px"
	 width="139px" height="145px" viewBox="0 0 139 145" enable-background="new 0 0 139 145" xml:space="preserve">
<g>
	<g>
		<defs>
			<rect id="SVGID_1_" x="11.922" y="11.26" width="115.154" height="122.482"/>
		</defs>
		<clipPath id="SVGID_2_">
			<use xlink:href="#SVGID_1_"  overflow="visible"/>
		</clipPath>
	</g>
	
		<path fill="none" stroke="#4F5877" stroke-width="1.0057" stroke-linecap="round" stroke-linejoin="round" stroke-miterlimit="10" d="
		M138.833,42.457L139,36.995c-2.387,0-4.389-1.547-5.12-3.686V29.8c0.731-2.136,2.733-3.683,5.12-3.683l-0.058-4.648
		c-2.315,0-4.279-1.454-5.062-3.495v-3.882c0.783-2.044,2.747-3.5,5.062-3.5l0.055-4.744h-5.117V0.333l-5.652,0.053
		c0,3.005-2.354,5.44-5.256,5.44c-2.901,0-5.252-2.435-5.252-5.44l-4.489-0.055c0,3.005-2.348,5.442-5.252,5.442
		c-2.903,0-5.255-2.437-5.255-5.442l-5.274-0.22c0,3.003-2.354,5.44-5.255,5.44c-2.902,0-5.257-2.437-5.257-5.44l-4.483,0.11
		c0,3.003-2.352,5.44-5.254,5.44c-2.905,0-5.255-2.437-5.255-5.44l-5.961,0.053c0,3.007-2.352,5.442-5.255,5.442
		c-2.902,0-5.255-2.435-5.255-5.442l-4.484-0.106c0,3.005-2.352,5.438-5.255,5.438c-2.9,0-5.255-2.433-5.255-5.438L35.206,0
		c0,3.005-2.353,5.44-5.258,5.44c-2.898,0-5.25-2.435-5.25-5.44l-4.49,0.057c0,3.003-2.35,5.441-5.252,5.441
		c-2.901,0-5.255-2.438-5.255-5.441L5.118,0.002v5.845H0.001l0.055,4.744c2.314,0,4.279,1.457,5.062,3.497v3.887
		c-0.783,2.04-2.748,3.494-5.062,3.494L0,26.117c2.385,0,4.386,1.547,5.119,3.681v3.512C4.386,35.448,2.384,36.995,0,36.995
		l0.166,5.461c2.211,0,4.104,1.325,4.953,3.223v4.436c-0.849,1.895-2.741,3.221-4.953,3.221l0.108,4.643
		c2.129,0,3.954,1.235,4.845,3.02v4.841c-0.891,1.784-2.716,3.021-4.845,3.021L0.22,75.031c2.17,0,4.027,1.281,4.898,3.125v4.631
		C4.247,84.629,2.39,85.91,0.22,85.91l-0.11,4.643c2.252,0,4.185,1.375,5.009,3.334v4.219c-0.824,1.955-2.757,3.33-5.009,3.33
		l0.221,5.461c2.087,0,3.877,1.189,4.788,2.916v5.047c-0.911,1.727-2.701,2.916-4.788,2.916l0.055,4.646
		c2.045,0,3.806,1.145,4.733,2.814v5.246c-0.927,1.672-2.688,2.816-4.733,2.816l-0.053,5.854h4.786V145l4.583-0.057
		c0-3.004,2.354-5.441,5.255-5.441c2.903,0,5.252,2.438,5.252,5.441l4.49,0.057c0-3.006,2.352-5.439,5.25-5.439
		c2.905,0,5.258,2.434,5.258,5.439l5.273-0.166c0-3.006,2.355-5.439,5.255-5.439c2.903,0,5.255,2.434,5.255,5.439l4.484-0.107
		c0-3.006,2.353-5.443,5.255-5.443c2.903,0,5.255,2.438,5.255,5.443l5.961,0.053c0-3.004,2.35-5.438,5.255-5.438
		c2.902,0,5.254,2.434,5.254,5.438l4.483,0.111c0-3.002,2.354-5.439,5.257-5.439c2.9,0,5.255,2.438,5.255,5.439l5.274-0.223
		c0-3.004,2.352-5.441,5.255-5.441c2.904,0,5.252,2.438,5.252,5.441l4.489-0.053c0-3.004,2.351-5.441,5.252-5.441
		c2.902,0,5.256,2.438,5.256,5.441l5.652,0.053v-5.516h4.788l-0.054-5.854c-2.046,0-3.807-1.145-4.734-2.82v-5.24
		c0.928-1.672,2.688-2.816,4.734-2.816l0.055-4.646c-2.087,0-3.878-1.191-4.789-2.916v-5.047c0.911-1.725,2.702-2.916,4.789-2.916
		l0.222-5.461c-2.254,0-4.188-1.375-5.011-3.332v-4.215c0.823-1.961,2.757-3.336,5.011-3.336l-0.111-4.643
		c-2.17,0-4.028-1.281-4.899-3.123v-4.631c0.871-1.844,2.729-3.125,4.899-3.125l-0.054-6.171c-2.13,0-3.953-1.236-4.846-3.021
		v-4.838c0.893-1.784,2.716-3.021,4.846-3.021l0.107-4.643c-2.212,0-4.105-1.327-4.953-3.223V45.68
		C134.728,43.783,136.621,42.457,138.833,42.457z"/>
	
		<rect x="11.922" y="11.26" fill="#82E499" stroke="#4F5877" stroke-width="2.0114" stroke-miterlimit="10" width="115.154" height="122.482"/>
	<g>
		<path fill="#FFFFFF" d="M20.125,46.306c-0.363,0-0.809,0.333-1.023,0.704l-0.244,0.408l-0.145,0.474
			c-0.221,0.857,0.273,1.034,0.487,0.938c0.246-0.103,0.601-0.257,1.325-0.257h4.5v10.762c0,1.031-0.008,2.81-0.333,3.473
			l-0.288,0.285c0,0-0.312,0.588,0.322,0.695h4.663c0.481-0.135,0.353-0.521,0.244-0.673c-0.489-0.654-0.489-2.695-0.489-3.779
			V48.71h3.17c4.808-0.193,4.458-2.144,4.458-2.144c-0.149-0.375-0.712-0.26-1.034-0.26H20.125z"/>
		<path fill="#FFFFFF" d="M120.189,62.947c-0.127-0.191-2.159-2.934-2.466-3.357c0,0-3.331-4.89-3.943-5.74
			c0.208-0.253,4.166-5.654,4.166-5.654s0.64-1.005,0.936-1.267c0.281-0.25,0.371-0.591-0.016-0.665l-1.924,0.024
			c-0.48,0.088-0.198,0.518-0.152,0.667c-0.007,0.178-2.419,3.294-3.921,5.519c0,0.006-0.768-1.087-0.781-1.073
			c-0.32-0.498-2.688-4.436-2.688-4.436c-0.491-0.743-1.059-0.774-1.593-0.774l-3.354,0.056c-0.396,0.013-0.332,0.53,0.114,0.703
			c0,0,0.202,0.169,0.341,0.387c0.938,1.433,4.729,7.521,5.03,8.015c-0.159,0.224-3.112,4.799-3.112,4.799
			c-0.395,0.5-1.118,1.791-1.722,2.544l-0.95-2.125c-0.294-0.619-4.009-8.879-5.675-13.713c-0.12-0.356-0.414-0.583-0.754-0.583
			h-3.08c-0.526,0-0.605,0.67-0.605,0.67c-0.267,0.781-6.763,14.661-7.188,15.323c-0.258,0.41-0.338,0.478-0.422,0.759
			c-0.046,0.147,0.031,0.668,0.363,0.668h2.01c0.567-0.077,0.303-0.611,0.274-0.715c-0.031-0.098-0.025-0.526,0.112-1.028
			c0.149-0.501,0.575-1.792,1.045-2.869h8.7c0.624,1.448,1.074,2.543,1.197,2.927l0.476,1.042c0,0-0.241,0.643,0.395,0.645
			l3.956-0.002c0.07,0,0.129-0.003,0.179-0.014l2.07,0.011c0.474,0,0.124-0.698,0.124-0.698l-0.018-0.241
			c0.284-0.609,0.892-1.69,1.337-2.513c0.441-0.79,1.714-2.675,2.185-3.221c0.318,0.464,3.991,5.552,3.991,5.552
			c0.532,0.727-0.396,1.251,0.723,1.236h3.91c0.571,0,0.874-0.045,0.948-0.2C120.48,63.44,120.31,63.133,120.189,62.947
			 M71.693,63.169c-0.463-0.524-0.626-2.893-0.626-3.96l-0.01-8.565v-0.391c-0.008-0.608,0.02-1.665,0.077-2.001
			c0.066-0.349,0.343-1.32,0.343-1.32s0.479-0.682-0.196-0.682h-1.227l-1.79-0.003c-1.093,0-1.87,0.783-2.233,1.509
			c-0.022,0.042-3.396,7.792-4.133,9.212c-0.398-0.861-4.862-9.375-4.862-9.375c-0.21-0.58-0.748-1.32-1.636-1.32l-1.324-0.057
			l-2.432,0.03c-0.386,0-0.306,0.516-0.188,0.667c0.084,0.1,0.414,0.427,0.459,0.916c0.029,0.366,0.039,1.174,0.039,1.174
			c0-0.024,0.04,8.337,0.04,8.337c0,2.393-0.137,3.696-0.2,4.34c-0.043,0.394-0.198,1.055-0.293,1.298c0,0-0.059,0.081-0.13,0.178
			c-0.112-0.178-0.282-0.34-0.299-0.377l-1.002-2.228c-0.29-0.627-4.008-8.886-5.671-13.719c-0.129-0.355-0.411-0.587-0.762-0.587
			H40.56c-0.53,0-0.604,0.682-0.604,0.682c-0.269,0.777-6.763,14.654-7.187,15.318c-0.259,0.411-0.332,0.476-0.42,0.757
			c-0.049,0.152,0.027,0.67,0.366,0.67h1.964c0.565-0.079,0.274-0.727,0.274-0.727l0.125-1.015c0.185-0.881,0.569-1.794,1.039-2.874
			h8.561c0.619,1.451,1.12,2.547,1.243,2.926l0.487,1.045c0,0-0.251,0.645,0.385,0.65l4.082-0.006c0.24,0,0.388-0.033,0.467-0.084
			c0.067,0.051,0.179,0.084,0.354,0.084h1.923c0.749,0,0.246-0.357,0.155-0.67c-0.25-0.787-0.25-3.32-0.25-4.549
			c0,0,0.039-7.181,0.036-8.5c0.735,1.415,7.274,13.196,7.274,13.196s5.456-11.201,6.363-13.343c0,1.56,0.049,9.554,0.049,9.554
			c0,1.077,0.06,2.943-0.235,3.394c-0.298,0.476-0.362,0.938,0.159,0.938h4.176C71.726,63.693,72.01,63.527,71.693,63.169
			 M36.737,57.764c0.211-0.506,3.679-8.254,4.026-9.047c0.248,0.663,3.145,8.559,3.322,9.047H36.737z M90.806,57.623
			c0.216-0.508,3.84-8.112,4.187-8.905c0.252,0.663,3.033,8.41,3.22,8.905H90.806z"/>
		<path fill="#FFFFFF" d="M89.29,51.968c0,3.472-2.605,5.936-6.346,5.936c-1.462,0-2.198-0.448-2.275-1.36
			c0,0,0.254,0.103,1.059,0.103c2.009,0,3.714-1.38,3.771-4.764c0.027-1.513-0.835-4.221-4.23-4.221c0,0-1.824,0.043-2.339,0.043
			c0,0.717-0.02,11.829-0.02,11.829c0,1.199-0.025,2.881,0.62,3.679c0.149,0.215,0.234,0.392,0.188,0.424
			c-0.143,0.103-0.294,0.056-0.43,0.056h-4.737c-0.135,0-0.473,0.029-0.428-0.124c0.039-0.134,0.13-0.235,0.192-0.32
			c0.614-0.827,0.614-2.516,0.614-3.714l0.008-9.201c0-0.567-0.117-1.91-0.168-2.287c-0.065-0.446-0.177-0.817-0.478-1.263
			c-0.055-0.096-0.088-0.2-0.064-0.258c0.051-0.173,0.171-0.221,0.308-0.221h2.234l2.046-0.005l3.893-0.027
			C87.559,46.273,89.29,49.399,89.29,51.968"/>
		<path fill-rule="evenodd" clip-rule="evenodd" fill="#FFFFFF" d="M58.069,84.906h-3.261c0.656-0.463,1.18-0.83,1.704-1.199
			c-0.108-0.139-0.218-0.27-0.334-0.408c-0.252,0.1-0.52,0.191-0.773,0.301c-2.114,0.879-4.288,1.508-6.602,1.604
			c-3.279,0.137-5.823-1.916-4.772-5.973c1.296-4.994,4.576-8.365,9.659-9.726c0.895-0.242,1.956-0.133,2.893,0.049
			c1.151,0.222,1.625,1.182,1.396,2.333c-0.285,1.398-1.146,2.391-2.283,3.158c-2.315,1.578-4.928,2.336-7.655,2.721
			c-0.683,0.102-1.022,0.332-1.095,0.979c-0.097,0.834-0.271,1.67-0.242,2.506c0.043,1.443,0.84,2.385,2.253,2.416
			c1.347,0.037,2.745-0.092,4.034-0.439c4.006-1.066,4.071-1.205,6.073-4.77c1.661-2.938,3.353-5.84,5.027-8.761
			c0.1-0.171,0.234-0.329,0.438-0.639c1.191,2.064,2.315,4.021,3.522,6.103c0.441-0.326,0.85-0.635,1.261-0.928
			c1.051-0.765,2.102-1.519,3.159-2.283c1.188-0.853,1.197-0.871,0.743-2.343c0.13-0.026,0.271-0.082,0.385-0.06
			c1.779,0.285,3.245-0.385,4.681-1.374c1.152-0.792,2.425-1.406,3.663-2.062c0.406-0.212,0.872-0.299,1.31-0.447
			c0.045,0.103,0.094,0.205,0.136,0.304c-1.966,1.124-3.925,2.247-6.057,3.469c1.288,0.118,2.348,0.18,3.406,0.32
			c1.129,0.154,2.165,0.586,3.059,1.315c1.438,1.176,1.681,3.144,0.354,4.438c-0.853,0.836-1.974,1.393-3.014,2.104
			c1.304,2.018,2.841,4.1,4.93,5.695c0.727,0.553,1.492,1.035,2.476,1.006c1.229-0.049,1.93-0.662,1.936-1.885
			c0.031-3.9,0.027-7.799,0.014-11.699c-0.004-0.364-0.163-0.727-0.257-1.145h3.197c-0.072,0.721-0.204,1.395-0.208,2.07
			c-0.02,3.686-0.008,7.377-0.008,11.067c0,0.943,0.004,0.943,0.981,0.949c1.545,0,3.092-0.016,4.636,0
			c1.024,0.01,2.041,0.064,2.779-0.832c0.095,0.111,0.179,0.164,0.173,0.205c-0.34,1.885-0.34,1.885-2.271,1.889
			c-4.46,0-8.913-0.037-13.369,0.023c-1.516,0.018-2.645-0.529-3.533-1.695c-1.152-1.504-2.321-3-3.47-4.504
			c-0.506-0.664-1.975-1.109-2.701-0.734c-0.135,0.066-0.229,0.328-0.233,0.5c-0.008,1.756-0.014,3.512,0.02,5.27
			c0.012,0.355,0.214,0.703,0.35,1.092h-7.337c0.725-0.996,0.725-1.023,0.123-2.072c-1.028-1.785-2.053-3.582-3.054-5.332
			c-2.395,1.447-4.796,2.805-7.072,4.338c-0.658,0.447-1.002,1.393-1.403,2.154C57.733,84.162,57.963,84.525,58.069,84.906
			 M47.435,77.314c0.506-0.096,0.853-0.135,1.185-0.223c2.096-0.535,4.075-1.287,5.569-2.947c0.726-0.797,1.227-1.708,1.311-2.804
			c0.073-0.948-0.333-1.375-1.276-1.361c-1.064,0.024-1.955,0.514-2.73,1.201c-1.703,1.508-2.977,3.337-3.864,5.427
			C47.544,76.795,47.519,76.998,47.435,77.314 M73.445,72.083c-1.562,1.158-2.99,2.223-4.433,3.258
			c-0.433,0.32-0.579,0.555-0.255,1.092c1.336,2.252,2.617,4.547,3.93,6.816c0.175,0.312,0.404,0.588,0.603,0.887
			c0.055-0.027,0.107-0.061,0.155-0.09V72.083z M76.201,73.725h-0.002c0,0.842-0.027,1.684,0.012,2.525
			c0.01,0.219,0.212,0.604,0.361,0.615c1.704,0.16,3.387,0.127,4.728-1.156c0.838-0.801,1.199-1.824,0.911-2.969
			c-0.279-1.103-1.133-1.704-2.172-1.888c-1.062-0.185-2.151-0.171-3.228-0.253c-0.538-0.041-0.634,0.245-0.612,0.714
			C76.23,72.114,76.201,72.925,76.201,73.725 M59.932,80.166c0.063,0.066,0.116,0.125,0.176,0.189
			c1.748-1.098,3.495-2.203,5.257-3.281c0.416-0.256,0.487-0.482,0.221-0.916c-0.567-0.902-1.08-1.852-1.663-2.873
			C62.551,75.65,61.245,77.906,59.932,80.166"/>
		<path fill-rule="evenodd" clip-rule="evenodd" fill="#FFFFFF" d="M32.314,84.885c0.081-0.607,0.194-1.111,0.2-1.613
			c0.016-4.035,0.016-8.07-0.006-12.103c-0.003-0.506-0.108-1.015-0.179-1.626c1.372,0,2.829-0.051,4.276,0.014
			c1.568,0.071,3.134,0.22,4.688,0.415c0.504,0.059,0.997,0.312,1.453,0.566c2.457,1.35,2.801,4.12,0.759,6.053
			c-1.187,1.121-2.649,1.736-4.261,1.812c-1.28,0.072-2.575-0.049-3.877-0.082c-0.261,1.414-0.136,5.639,0.229,6.564H32.314z
			 M35.261,73.971c0,0.947,0.016,1.895-0.004,2.84c-0.006,0.377,0.098,0.619,0.496,0.654c1.823,0.189,3.571,0.01,5.041-1.23
			c1.054-0.893,1.223-2.107,0.95-3.366c-0.254-1.185-1.146-1.853-2.289-2.029c-1.16-0.183-2.356-0.195-3.54-0.275
			c-0.479-0.031-0.676,0.167-0.664,0.675C35.287,72.148,35.261,73.066,35.261,73.971"/>
		<path fill="#FFFFFF" stroke="#FFFFFF" stroke-width="0.7543" stroke-miterlimit="10" d="M103.452,75.221l-0.289-0.564
			c1.671-0.855,2.635-2.08,2.907-3.644c0.389-2.331-0.91-4.909-2.355-6.426c-2.192-2.286-6.415-2.624-13.29-1.065
			c-6.4,1.442-14.141,6.439-14.224,6.491l-0.336-0.535c0.073-0.049,7.91-5.108,14.418-6.575c7.116-1.609,11.525-1.217,13.887,1.25
			c1.556,1.629,2.947,4.414,2.521,6.966C106.398,72.893,105.307,74.266,103.452,75.221"/>
		<path fill="#FFFFFF" d="M104.889,73.009c0,1.341-1.083,2.427-2.426,2.427c-1.339,0-2.423-1.086-2.423-2.427
			c0-1.335,1.084-2.422,2.423-2.422C103.806,70.587,104.889,71.674,104.889,73.009"/>
		<g>
			<g>
				<path fill="#FFFFFF" d="M49.265,98.477c-0.639,0.293-1.357,0.48-1.997,0.48c-2.276,0-4.327-1.867-4.327-4.506
					c0-2.186,1.558-3.918,3.607-4.238c1.558-0.213,2.916,0.172,3.967,1.279c0.399,0.453-0.32,1-0.692,0.6
					c-0.906-0.959-1.957-1.105-3.128-0.973c-1.638,0.254-2.796,1.412-2.796,3.346c0,2.025,1.558,3.572,3.396,3.572
					c0.493,0,1.038-0.135,1.544-0.389c0.413-0.211,0.812-0.531,1.091-0.891c0.306-0.455,1.118,0.039,0.772,0.531
					C50.343,97.797,49.837,98.195,49.265,98.477z"/>
				<path fill="#FFFFFF" d="M52.596,97.73c-0.6-0.707-0.852-1.559-0.812-2.559c0.133-1.48,0.998-2.719,2.462-3.133
					c0.32-0.094,0.679-0.121,1.012-0.121c0.32,0,0.639,0.027,0.985,0.121c1.451,0.414,2.356,1.639,2.476,3.133
					c0.054,1-0.213,1.852-0.798,2.559c-0.653,0.785-1.612,1.199-2.663,1.199C54.193,98.93,53.248,98.516,52.596,97.73z
					 M55.246,92.824c-0.253,0-0.507,0.041-0.706,0.094c-1.119,0.293-1.771,1.334-1.771,2.531c0,0.602,0.187,1.227,0.586,1.695
					c0.465,0.559,1.171,0.879,1.903,0.879c0.718,0,1.451-0.346,1.917-0.879c0.373-0.455,0.586-1.094,0.586-1.666
					c0-1.213-0.653-2.268-1.785-2.561C55.764,92.865,55.498,92.824,55.246,92.824z"/>
				<path fill="#FFFFFF" d="M71.502,94.893c-0.026-1.148-0.944-1.975-2.063-1.975c-1.397,0-2.503,1.041-2.503,2.574v2.932
					c0,0.293-0.2,0.465-0.493,0.465s-0.493-0.172-0.493-0.465v-3.307c0-0.76-0.306-1.492-0.919-1.879
					c-0.345-0.213-0.732-0.305-1.145-0.305c-1.304,0-2.489,0.998-2.489,2.49v3c0,0.613-0.972,0.6-0.972,0v-5.959
					c0-0.252,0.213-0.465,0.479-0.465c0.292,0,0.466,0.213,0.466,0.465v0.92C61.903,92.426,62.849,92,63.874,92
					c1.158,0,2.304,0.572,2.703,1.758C67.056,92.572,68.214,92,69.399,92c1.531,0,3.076,1.025,3.076,2.852v3.572
					c0,0.293-0.2,0.465-0.493,0.465c-0.307,0-0.479-0.172-0.479-0.465V94.893z"/>
				<path fill="#FFFFFF" d="M77.658,98.957c-0.893,0-1.757-0.361-2.157-1.068v2.865c0,0.613-0.972,0.613-0.972,0v-8.275
					c0-0.293,0.187-0.465,0.493-0.465c0.306,0,0.452,0.172,0.452,0.465v0.627c0.453-0.828,1.385-1.174,2.184-1.174
					c0.412,0,0.864,0.082,1.277,0.254l-0.014-0.014c1.452,0.6,2.185,1.92,2.145,3.465C81.013,97.529,79.654,98.957,77.658,98.957z
					 M75.501,94.932v1.053c0,1.172,0.905,2,2.116,2.053c0.945,0,1.891-0.508,2.276-1.428c0.107-0.279,0.187-0.639,0.2-0.984
					c0.014-0.867-0.266-1.666-0.985-2.266c-0.386-0.307-0.864-0.469-1.371-0.508C76.526,92.852,75.501,93.625,75.501,94.932z"/>
				<path fill="#FFFFFF" d="M84.409,92.199c0.439-0.199,0.919-0.268,1.424-0.254c0.76,0.014,1.625,0.254,2.104,1.041v-0.508
					c0-0.279,0.174-0.479,0.48-0.479c0.293,0,0.492,0.199,0.492,0.479v5.918c0,0.293-0.199,0.479-0.492,0.479
					c-0.307,0-0.48-0.186-0.48-0.479v-0.639c-0.386,0.771-1.371,1.213-2.156,1.213c-0.639,0-1.357-0.176-1.917-0.574
					c-1.012-0.693-1.53-1.826-1.491-3.133c0.027-1.344,0.772-2.584,2.051-3.078L84.409,92.199z M87.937,95.971v-1.053
					c0-1.318-0.917-2-2.116-2.053c-0.945-0.014-1.903,0.494-2.275,1.426c-0.12,0.281-0.187,0.641-0.201,0.986
					c-0.026,0.867,0.254,1.666,0.973,2.266c0.399,0.307,0.879,0.467,1.371,0.508C86.912,98.051,87.871,97.303,87.937,95.971z"/>
				<path fill="#FFFFFF" d="M95.275,92.105c0.52-0.467,1.197,0.186,0.692,0.666l-2.49,2.305l2.743,3.027
					c0.452,0.547-0.347,1.105-0.759,0.572l-2.716-3.051l-0.785,0.705v2.08c0,0.6-0.973,0.627-0.973,0v-7.969
					c0-0.547,0.973-0.547,0.973,0v4.811l0.918-0.906L95.275,92.105z"/>
			</g>
		</g>
	</g>
</g>
</svg>
