<?xml version="1.0" encoding="utf-8"?>
<!-- Generator: Adobe Illustrator 15.1.0, SVG Export Plug-In . SVG Version: 6.00 Build 0)  -->
<!DOCTYPE svg PUBLIC "-//W3C//DTD SVG 1.1//EN" "http://www.w3.org/Graphics/SVG/1.1/DTD/svg11.dtd">
<svg version="1.1" id="Capa_1" xmlns="http://www.w3.org/2000/svg" xmlns:xlink="http://www.w3.org/1999/xlink" x="0px" y="0px"
	 width="139px" height="144px" viewBox="0 0 139 144" enable-background="new 0 0 139 144" xml:space="preserve">
<g>
	<g>
		
			<path fill="none" stroke="#4F5877" stroke-width="0.9915" stroke-linecap="round" stroke-linejoin="round" stroke-miterlimit="10" d="
			M136.835,42.105L137,36.719c-2.354,0-4.327-1.525-5.047-3.635v-3.46c0.72-2.107,2.693-3.632,5.047-3.632l-0.057-4.584
			c-2.282,0-4.219-1.434-4.99-3.447v-3.829c0.771-2.016,2.708-3.452,4.99-3.452L136.997,6h-5.044V0.562l-5.57,0.052
			c0,2.964-2.32,5.365-5.182,5.365c-2.859,0-5.176-2.401-5.176-5.365L111.6,0.56c0,2.964-2.313,5.367-5.177,5.367
			c-2.86,0-5.179-2.403-5.179-5.367l-5.198-0.217c0,2.961-2.319,5.365-5.18,5.365c-2.861,0-5.183-2.403-5.183-5.365l-4.418,0.108
			c0,2.961-2.316,5.365-5.179,5.365s-5.18-2.403-5.18-5.365l-5.875,0.052c0,2.965-2.318,5.367-5.18,5.367
			c-2.861,0-5.18-2.402-5.18-5.367l-4.419-0.104c0,2.963-2.319,5.363-5.179,5.363c-2.859,0-5.18-2.399-5.18-5.363l-5.197-0.165
			c0,2.964-2.319,5.365-5.183,5.365c-2.856,0-5.174-2.401-5.174-5.365l-4.425,0.057c0,2.961-2.316,5.366-5.177,5.366
			c-2.859,0-5.179-2.404-5.179-5.366L5.044,0.236V6H0.001l0.054,4.679c2.281,0,4.217,1.436,4.989,3.448v3.834
			c-0.772,2.012-2.708,3.446-4.989,3.446L0,25.991c2.35,0,4.323,1.525,5.044,3.63v3.463C4.323,35.193,2.35,36.719,0,36.719
			l0.163,5.386c2.18,0,4.044,1.306,4.881,3.178v4.375c-0.837,1.869-2.702,3.177-4.881,3.177l0.106,4.579
			c2.098,0,3.896,1.218,4.775,2.978v4.774c-0.878,1.76-2.677,2.979-4.775,2.979L0.216,74.23c2.139,0,3.97,1.264,4.828,3.08v4.568
			c-0.858,1.816-2.689,3.08-4.828,3.08l-0.109,4.577c2.22,0,4.125,1.356,4.937,3.288v4.16c-0.812,1.929-2.717,3.285-4.937,3.285
			l0.218,5.385c2.057,0,3.822,1.173,4.719,2.877v4.977c-0.897,1.704-2.662,2.876-4.719,2.876l0.054,4.582
			c2.016,0,3.752,1.13,4.665,2.777v5.172c-0.913,1.649-2.649,2.778-4.665,2.778l-0.052,5.771h4.717v5.768l4.517-0.055
			c0-2.964,2.32-5.367,5.179-5.367c2.861,0,5.177,2.403,5.177,5.367l4.425,0.055c0-2.963,2.318-5.363,5.174-5.363
			c2.863,0,5.183,2.4,5.183,5.363l5.197-0.164c0-2.965,2.321-5.364,5.18-5.364c2.86,0,5.179,2.399,5.179,5.364l4.419-0.105
			c0-2.964,2.319-5.367,5.18-5.367s5.18,2.403,5.18,5.367l5.875,0.053c0-2.961,2.315-5.363,5.18-5.363
			c2.861,0,5.179,2.402,5.179,5.363l4.418,0.11c0-2.962,2.32-5.364,5.183-5.364c2.858,0,5.18,2.402,5.18,5.364l5.198-0.22
			c0-2.963,2.318-5.366,5.179-5.366c2.862,0,5.177,2.403,5.177,5.366l4.426-0.053c0-2.963,2.315-5.367,5.176-5.367
			c2.861,0,5.182,2.404,5.182,5.367l5.57,0.053v-5.44h4.72l-0.055-5.771c-2.017,0-3.75-1.131-4.665-2.781v-5.169
			c0.915-1.649,2.648-2.778,4.665-2.778l0.056-4.582c-2.057,0-3.822-1.174-4.721-2.876v-4.977c0.898-1.702,2.664-2.877,4.721-2.877
			l0.219-5.384c-2.223,0-4.127-1.357-4.938-3.287v-4.157c0.812-1.933,2.717-3.29,4.938-3.29l-0.109-4.577
			c-2.141,0-3.971-1.265-4.829-3.08v-4.567c0.858-1.817,2.688-3.082,4.829-3.082l-0.055-6.085c-2.098,0-3.896-1.219-4.774-2.98
			v-4.771c0.879-1.76,2.678-2.98,4.774-2.98l0.106-4.579c-2.181,0-4.046-1.308-4.882-3.179v-4.373
			C132.789,43.413,134.654,42.105,136.835,42.105z"/>
		
			<rect x="11.751" y="11.338" fill="#E6E9ED" stroke="#4F5877" stroke-width="1.983" stroke-miterlimit="10" width="113.497" height="120.793"/>
	</g>
	<g>
		<path fill="#82E499" stroke="#4F5877" stroke-width="0.9915" stroke-miterlimit="10" d="M108.1,104.55
			c0,1.138-0.918,2.058-2.053,2.058H31.84c-1.135,0-2.054-0.92-2.054-2.058V38.92c0-1.136,0.919-2.058,2.054-2.058h74.207
			c1.135,0,2.053,0.922,2.053,2.058V104.55z"/>
		
			<line fill="none" stroke="#4F5877" stroke-width="1.6115" stroke-miterlimit="10" x1="85.404" y1="36.862" x2="85.404" y2="106.607"/>
		
			<rect x="77.221" y="72.602" fill="#FCF9F0" stroke="#4F5877" stroke-width="0.4958" stroke-miterlimit="10" width="17.713" height="4.569"/>
	</g>
</g>
</svg>
