<?xml version="1.0" encoding="utf-8"?>
<!-- Generator: Adobe Illustrator 15.1.0, SVG Export Plug-In . SVG Version: 6.00 Build 0)  -->
<!DOCTYPE svg PUBLIC "-//W3C//DTD SVG 1.1//EN" "http://www.w3.org/Graphics/SVG/1.1/DTD/svg11.dtd">
<svg version="1.1" id="Capa_1" xmlns="http://www.w3.org/2000/svg" xmlns:xlink="http://www.w3.org/1999/xlink" x="0px" y="0px"
	 width="139px" height="145px" viewBox="0 0 139 145" enable-background="new 0 0 139 145" xml:space="preserve">
<g>
	<g>
		<g>
			<defs>
				<rect id="SVGID_1_" x="12.217" y="11.638" width="114.566" height="121.727"/>
			</defs>
			<clipPath id="SVGID_2_">
				<use xlink:href="#SVGID_1_"  overflow="visible"/>
			</clipPath>
		</g>
		<g>
			<g>
				<path fill="none" stroke="#4F5877" stroke-miterlimit="10" d="M138.479,42.642l0.166-5.426c-2.373,0-4.365-1.537-5.094-3.664
					v-3.488c0.729-2.123,2.721-3.658,5.094-3.658l-0.057-4.619c-2.303,0-4.258-1.445-5.037-3.475v-3.859
					c0.779-2.029,2.734-3.478,5.037-3.478l0.055-4.714h-5.092V0.778l-5.623,0.055c0,2.984-2.342,5.406-5.229,5.406
					c-2.886,0-5.224-2.422-5.224-5.406l-4.467-0.055c0,2.986-2.337,5.406-5.226,5.406c-2.888,0-5.228-2.42-5.228-5.406l-5.248-0.221
					c0,2.984-2.342,5.406-5.229,5.406s-5.229-2.422-5.229-5.406l-4.461,0.111c0,2.982-2.339,5.404-5.226,5.404
					c-2.891,0-5.229-2.422-5.229-5.404l-5.932,0.053c0,2.986-2.34,5.408-5.228,5.408c-2.888,0-5.228-2.422-5.228-5.408l-4.461-0.107
					c0,2.987-2.34,5.406-5.228,5.406c-2.886,0-5.229-2.419-5.229-5.406l-5.247-0.165c0,2.986-2.341,5.405-5.231,5.405
					c-2.883,0-5.223-2.419-5.223-5.405L20.46,0.505c0,2.986-2.337,5.408-5.226,5.408c-2.886,0-5.228-2.422-5.228-5.408L5.448,0.45
					v5.811H0.357l0.055,4.714c2.303,0,4.257,1.447,5.036,3.476v3.861c-0.779,2.029-2.733,3.475-5.036,3.475l-0.056,4.619
					c2.373,0,4.364,1.535,5.092,3.658v3.488c-0.729,2.127-2.72,3.664-5.092,3.664l0.165,5.426c2.2,0,4.083,1.318,4.927,3.203v4.408
					c-0.845,1.884-2.727,3.203-4.927,3.203l0.107,4.613c2.118,0,3.933,1.229,4.82,3.001v4.812c-0.887,1.771-2.702,3-4.82,3
					l-0.054,6.135c2.159,0,4.007,1.273,4.874,3.104v4.605c-0.867,1.829-2.715,3.103-4.874,3.103l-0.11,4.614
					c2.241,0,4.164,1.366,4.983,3.31v4.196c-0.819,1.942-2.743,3.31-4.983,3.31l0.22,5.426c2.076,0,3.857,1.182,4.764,2.898v5.017
					c-0.906,1.715-2.688,2.896-4.764,2.896l0.055,4.62c2.035,0,3.787,1.136,4.709,2.796v5.213c-0.922,1.662-2.674,2.801-4.709,2.801
					l-0.053,5.816h4.762v5.811l4.559-0.054c0-2.987,2.342-5.409,5.228-5.409c2.888,0,5.226,2.422,5.226,5.409l4.467,0.054
					c0-2.987,2.34-5.403,5.223-5.403c2.89,0,5.231,2.416,5.231,5.403l5.247-0.164c0-2.989,2.343-5.405,5.229-5.405
					c2.888,0,5.228,2.416,5.228,5.405l4.461-0.106c0-2.987,2.34-5.409,5.228-5.409c2.888,0,5.228,2.422,5.228,5.409l5.932,0.053
					c0-2.985,2.338-5.405,5.229-5.405c2.887,0,5.226,2.42,5.226,5.405l4.461,0.11c0-2.984,2.343-5.406,5.229-5.406
					s5.229,2.422,5.229,5.406l5.248-0.221c0-2.986,2.34-5.409,5.228-5.409c2.889,0,5.226,2.423,5.226,5.409l4.467-0.054
					c0-2.985,2.338-5.406,5.224-5.406c2.888,0,5.229,2.421,5.229,5.406l5.623,0.054v-5.482h4.764l-0.053-5.816
					c-2.036,0-3.787-1.139-4.711-2.803v-5.208c0.924-1.663,2.675-2.799,4.711-2.799l0.055-4.62c-2.076,0-3.859-1.181-4.766-2.896
					v-5.017c0.906-1.714,2.689-2.898,4.766-2.898l0.221-5.426c-2.243,0-4.166-1.367-4.986-3.312v-4.19
					c0.82-1.947,2.743-3.313,4.986-3.313l-0.111-4.614c-2.158,0-4.008-1.273-4.875-3.104v-4.603
					c0.867-1.832,2.717-3.105,4.875-3.105l-0.054-6.135c-2.118,0-3.934-1.229-4.821-3.002v-4.809
					c0.888-1.773,2.703-3.002,4.821-3.002l0.106-4.613c-2.2,0-4.084-1.319-4.928-3.204v-4.405
					C134.395,43.961,136.278,42.642,138.479,42.642z"/>
				
					<rect x="12.217" y="11.638" fill="#D0E7F9" stroke="#4F5877" stroke-width="2" stroke-miterlimit="10" width="114.566" height="121.727"/>
			</g>
		</g>
	</g>
	<g>
		<defs>
			<rect id="SVGID_3_" x="12.217" y="11.636" width="114.566" height="121.727"/>
		</defs>
		<clipPath id="SVGID_4_">
			<use xlink:href="#SVGID_3_"  overflow="visible"/>
		</clipPath>
		<g clip-path="url(#SVGID_4_)">
			
				<path fill="#A9AFBD" stroke="#4F5877" stroke-width="1.7672" stroke-linecap="round" stroke-linejoin="round" stroke-miterlimit="10" d="
				M62.747,36.147l0.018-0.003L46.644,16.571l-8.708,23.617C14.529,45.192-4.698,52.251-4.772,52.408l-2.22-4.938
				c-6.738-11.147-3.451,36.578,1.13,23.748c0.002,0,0.002,0.005,0.004,0.009c0.611,1.19,10.2,15.298,27.465,24.447
				c-2.352,3.854-5.644,9.378-8.374,14.436c-4.614,8.56,15.483-3.052,24.284-8.404c3.658,0.87,7.522,1.46,11.603,1.663
				c29.062,1.445,71.746-12.877,72.04-37.03C121.512,37.554,92.825,33.008,62.747,36.147z"/>
			<ellipse fill="#4F5877" cx="103.666" cy="57.29" rx="1.074" ry="1.326"/>
			<polyline fill="#F6F6FB" points="121.152,63.679 117.564,69.436 112.827,63.931 			"/>
			<polyline fill="#F6F6FB" points="112.828,64.01 109.24,69.767 104.504,64.263 			"/>
			<polyline fill="#F6F6FB" points="104.504,64.032 100.916,69.787 96.179,64.28 			"/>
			<polyline fill="#F6F6FB" points="96.18,64.417 92.593,70.175 87.855,64.669 			"/>
			<polyline fill="#F6F6FB" points="87.855,64.438 84.27,70.194 79.531,64.69 			"/>
			
				<line fill="none" stroke="#4F5877" stroke-width="1.0103" stroke-linecap="round" stroke-miterlimit="10" x1="77.97" y1="64.462" x2="121.152" y2="63.679"/>
		</g>
	</g>
	<path fill="#A9AFBD" stroke="#4F5877" stroke-width="1.4064" stroke-miterlimit="10" d="M34.708,87.866
		c-3.171,0-5.743-4.664-5.743-10.418s2.571-10.418,5.743-10.418"/>
	<path fill="#A9AFBD" stroke="#4F5877" stroke-width="1.4064" stroke-miterlimit="10" d="M26.516,87.866
		c-3.171,0-5.743-4.664-5.743-10.418s2.571-10.418,5.743-10.418"/>
	<g>
		<path fill="#FFFFFF" stroke="#4F5877" stroke-miterlimit="10" d="M37.12,123.507c0.576,1.992,3.288,2.736,5.088,2.904
			c0.36,0.048,0.768,0.072,1.128,0.072c2.376,0,6.049-0.816,6.049-3.793c0-5.521-12.673-0.552-12.673-7.032
			c0-2.376,2.329-3.553,4.345-3.984c0.648-0.12,1.344-0.192,2.016-0.192c2.304,0,5.616,0.528,6.528,3.024
			c0.24,0.576-0.504,0.744-0.672,0.264c-0.816-2.256-3.792-2.567-5.833-2.567c-0.192,0-0.384,0.023-0.576,0.023
			c-1.728,0.12-4.224,0.816-4.848,2.641c-0.12,0.24-0.168,0.552-0.168,0.815c0,5.497,12.673,0.696,12.673,6.985
			c0,3.528-3.937,4.488-6.841,4.488c-2.448,0-6.168-0.672-6.937-3.456C36.255,123.219,36.976,123.003,37.12,123.507z"/>
		<path fill="#FFFFFF" stroke="#4F5877" stroke-miterlimit="10" d="M53.848,121.898c0,3.024,2.904,5.064,5.736,4.32
			c2.472-0.624,4.129-2.952,4.201-5.473v-5.736c0-0.264,0.144-0.432,0.407-0.432c0.265,0,0.433,0.168,0.433,0.432v11.593
			c0,0.217-0.168,0.408-0.433,0.408c-0.264,0-0.407-0.168-0.407-0.432v-3.456c-0.553,2.016-2.257,3.456-3.985,3.912
			c-3.096,0.672-6.792-1.152-6.792-5.137v-6.889c0-0.264,0.144-0.432,0.408-0.432s0.432,0.168,0.432,0.432V121.898z"/>
		<path fill="#FFFFFF" stroke="#4F5877" stroke-miterlimit="10" d="M74.031,127.179c-1.992-0.048-3.84-1.008-4.632-2.88v6.937
			c0,0.264-0.144,0.432-0.407,0.432c-0.265,0-0.433-0.168-0.433-0.432v-16.178c0-0.264,0.168-0.432,0.433-0.432
			c0.264,0,0.407,0.168,0.407,0.432v2.377c0.36-0.96,0.96-1.608,1.753-2.137c1.512-0.888,3.432-1.104,5.256-0.359
			c2.592,1.056,3.889,3.432,3.816,6.24c-0.072,2.424-1.368,4.656-3.648,5.544C75.784,127.059,74.943,127.203,74.031,127.179z
			 M69.399,119.811v2.088c0.168,2.473,1.944,4.345,4.632,4.44c2.041,0.024,4.105-1.056,4.921-3.048
			c0.265-0.624,0.408-1.393,0.433-2.089c0.072-1.848-0.553-3.552-2.112-4.8c-0.841-0.648-1.872-1.009-2.952-1.08
			c-0.84-0.024-1.633,0.168-2.424,0.527C70.312,116.618,69.496,118.059,69.399,119.811z"/>
		<path fill="#FFFFFF" stroke="#4F5877" stroke-miterlimit="10" d="M95.104,120.771c0.024,0.336-0.097,0.792-0.744,0.792H83.56
			c0.12,1.032,0.504,2.017,1.224,2.856c1.008,1.2,2.521,1.824,4.08,1.848c1.32,0.024,2.664-0.384,3.77-1.224
			c0.432-0.336,1.008,0.144,0.551,0.6c-1.08,1.009-2.664,1.465-4.248,1.44c-1.872-0.024-3.721-0.72-4.824-2.136
			c-1.008-1.297-1.536-2.784-1.439-4.585c0.119-2.592,1.8-4.92,4.392-5.641c1.104-0.288,2.425-0.312,3.624,0
			C93.376,115.442,95.057,117.674,95.104,120.771z M83.535,120.771h10.753c-0.048-2.641-1.464-4.633-3.864-5.28
			c-0.96-0.24-2.088-0.24-3.072,0.023C84.951,116.162,83.56,118.37,83.535,120.771z"/>
		<path fill="#FFFFFF" stroke="#4F5877" stroke-miterlimit="10" d="M99.159,117.723c0.528-1.824,2.353-3.072,4.345-3.072
			c0.264,0,0.432,0.144,0.432,0.407c0,0.265-0.168,0.408-0.432,0.408c-3.072,0-4.345,2.616-4.345,5.521v5.545
			c0,0.264-0.192,0.432-0.407,0.432c-0.265,0-0.433-0.168-0.433-0.432v-11.474c0-0.216,0.168-0.407,0.433-0.407
			c0.215,0,0.407,0.191,0.407,0.407V117.723z"/>
	</g>
</g>
</svg>
