<?xml version="1.0" encoding="utf-8"?>
<!-- Generator: Adobe Illustrator 15.1.0, SVG Export Plug-In . SVG Version: 6.00 Build 0)  -->
<!DOCTYPE svg PUBLIC "-//W3C//DTD SVG 1.1//EN" "http://www.w3.org/Graphics/SVG/1.1/DTD/svg11.dtd">
<svg version="1.1" id="Capa_1" xmlns="http://www.w3.org/2000/svg" xmlns:xlink="http://www.w3.org/1999/xlink" x="0px" y="0px"
	 width="139px" height="145px" viewBox="0 0 139 145" enable-background="new 0 0 139 145" xml:space="preserve">
<g>
	<g>
		<g>
			<g>
				<path fill="none" stroke="#4F5877" stroke-width="1.0057" stroke-miterlimit="10" d="M138.832,42.471L139,37.009
					c-2.387,0-4.389-1.544-5.119-3.687v-3.508c0.73-2.138,2.732-3.682,5.119-3.682l-0.059-4.648c-2.314,0-4.279-1.455-5.061-3.497
					v-3.88c0.781-2.045,2.746-3.501,5.061-3.501l0.057-4.744h-5.117V0.348L128.229,0.4c0,3.002-2.355,5.438-5.258,5.438
					c-2.9,0-5.25-2.437-5.25-5.438l-4.49-0.056c0,3.005-2.348,5.44-5.252,5.44c-2.902,0-5.254-2.436-5.254-5.44l-5.275-0.224
					c0,3.006-2.354,5.443-5.254,5.443c-2.902,0-5.258-2.438-5.258-5.443l-4.484,0.113c0,3.003-2.35,5.439-5.252,5.439
					c-2.904,0-5.256-2.437-5.256-5.439l-5.961,0.053c0,3.008-2.352,5.443-5.254,5.443s-5.256-2.436-5.256-5.443l-4.483-0.105
					c0,3.006-2.352,5.438-5.255,5.438c-2.9,0-5.255-2.432-5.255-5.438l-5.275-0.166c0,3.004-2.353,5.438-5.258,5.438
					c-2.898,0-5.25-2.434-5.25-5.438l-4.49,0.054c0,3.005-2.35,5.442-5.252,5.442c-2.901,0-5.255-2.438-5.255-5.442L5.119,0.016
					v5.846H0.002l0.055,4.744c2.314,0,4.279,1.457,5.062,3.496v3.887c-0.783,2.041-2.748,3.496-5.062,3.496L0,26.133
					c2.385,0,4.386,1.544,5.119,3.68v3.511C4.387,35.463,2.385,37.009,0,37.009l0.166,5.462c2.211,0,4.104,1.326,4.953,3.223v4.438
					c-0.849,1.895-2.741,3.221-4.953,3.221l0.108,4.643c2.129,0,3.954,1.236,4.845,3.021v4.839
					c-0.891,1.784-2.716,3.021-4.845,3.021L0.22,75.049c2.17,0,4.027,1.278,4.898,3.121v4.634c-0.871,1.842-2.729,3.124-4.898,3.124
					l-0.11,4.642c2.252,0,4.185,1.376,5.009,3.331v4.221c-0.824,1.957-2.757,3.332-5.009,3.332l0.221,5.459
					c2.087,0,3.877,1.189,4.788,2.916v5.048c-0.911,1.728-2.701,2.915-4.788,2.915l0.055,4.647c2.045,0,3.806,1.144,4.733,2.816
					v5.241c-0.927,1.674-2.688,2.82-4.733,2.82l-0.053,5.854h4.786v5.846l4.583-0.056c0-3.004,2.354-5.44,5.255-5.44
					c2.903,0,5.252,2.437,5.252,5.44l4.49,0.056c0-3.004,2.352-5.439,5.25-5.439c2.905,0,5.258,2.438,5.258,5.439l5.273-0.164
					c0-3.008,2.355-5.441,5.255-5.441c2.903,0,5.255,2.435,5.255,5.441l4.484-0.109c0-3.005,2.353-5.439,5.254-5.439
					c2.904,0,5.256,2.436,5.256,5.439l5.961,0.054c0-3.001,2.35-5.438,5.254-5.438s5.254,2.438,5.254,5.438l4.482,0.111
					c0-3.003,2.355-5.438,5.258-5.438s5.256,2.436,5.256,5.438l5.275-0.222c0-3.004,2.352-5.442,5.252-5.442
					c2.904,0,5.254,2.438,5.254,5.442l4.49-0.055c0-3.004,2.35-5.44,5.25-5.44c2.902,0,5.256,2.438,5.256,5.44l5.652,0.053v-5.514
					h4.787l-0.053-5.854c-2.047,0-3.807-1.146-4.734-2.822v-5.239c0.93-1.675,2.688-2.816,4.734-2.816l0.055-4.647
					c-2.086,0-3.879-1.188-4.789-2.915v-5.048c0.91-1.727,2.703-2.916,4.789-2.916l0.223-5.459c-2.256,0-4.189-1.375-5.012-3.334
					v-4.215c0.822-1.959,2.756-3.335,5.012-3.335l-0.111-4.642c-2.17,0-4.027-1.282-4.9-3.124v-4.633
					c0.873-1.844,2.73-3.122,4.9-3.122l-0.055-6.173c-2.129,0-3.953-1.237-4.846-3.022v-4.836c0.893-1.785,2.717-3.023,4.846-3.023
					l0.107-4.642c-2.213,0-4.105-1.327-4.953-3.222v-4.437C134.729,43.799,136.621,42.471,138.832,42.471z"/>
				
					<rect x="11.923" y="11.272" fill="#FACBC1" stroke="#4F5877" stroke-width="2" stroke-miterlimit="10" width="115.155" height="122.487"/>
			</g>
		</g>
	</g>
	<g>
		<path fill="#FFFFFF" d="M74.445,69.412c-0.07,0.219-0.107,0.366-0.162,0.502c-0.512,1.256-1.426,2.139-2.633,2.678
			c-2.242,1.006-4.549,1.082-6.852,0.27c-1.875-0.659-3.07-2.026-3.634-3.908c-0.576-1.922-0.569-3.866,0.063-5.777
			c0.752-2.262,2.36-3.607,4.662-4.103c1.513-0.327,3.039-0.31,4.543,0.128c2.178,0.64,3.527,2.084,4.09,4.25
			c0.209,0.809,0.221,1.666,0.326,2.505c0.031,0.313-0.1,0.479-0.436,0.442c-0.117-0.014-0.244-0.004-0.371-0.004
			c-3.531,0-7.068,0-10.604,0.004c-0.153,0-0.31,0-0.463,0.008c-0.219,0.008-0.305,0.131-0.295,0.34
			c0.072,1.42,0.435,2.721,1.434,3.777c0.761,0.801,1.729,1.219,2.809,1.387c1.639,0.256,3.191,0.041,4.535-0.998
			c0.363-0.285,0.652-0.709,0.9-1.116c0.174-0.278,0.342-0.402,0.666-0.386C73.471,69.434,73.926,69.412,74.445,69.412
			 M62.725,65.098h0.625h8.617c1.027,0,1.031,0,0.812-1.008c-0.391-1.854-1.453-3.145-3.312-3.621
			c-0.672-0.178-1.393-0.197-2.082-0.184c-1.392,0.042-2.586,0.576-3.502,1.645C63.129,62.816,62.753,63.853,62.725,65.098"/>
		<path fill="#FFFFFF" d="M44.374,69.41c-0.42,1.226-1.077,2.097-2.033,2.73c-1.22,0.811-2.579,1.174-4.031,1.216
			c-1.006,0.024-2.001,0.006-2.979-0.278c-2.423-0.702-3.882-2.312-4.429-4.75c-0.398-1.773-0.345-3.542,0.27-5.273
			c0.641-1.809,1.851-3.074,3.657-3.711c1.791-0.637,3.632-0.667,5.449-0.16c2.579,0.725,3.908,2.562,4.329,5.129
			c0.086,0.506,0.097,1.028,0.112,1.543c0.015,0.529-0.01,0.538-0.56,0.538c-2.174,0.005-4.346,0-6.524,0
			c-1.499,0-2.999,0-4.503,0.005c-0.508,0-0.549,0.035-0.523,0.529c0.092,1.827,0.764,3.357,2.375,4.336
			c0.99,0.602,2.093,0.785,3.247,0.721c0.999-0.048,1.943-0.27,2.797-0.822c0.536-0.342,0.983-0.783,1.251-1.366
			c0.146-0.308,0.345-0.397,0.661-0.388C43.387,69.429,43.834,69.41,44.374,69.41 M37.693,65.098c1.529,0,3.061,0.002,4.589,0
			c0.46,0,0.529-0.054,0.48-0.475c-0.198-1.648-0.901-2.979-2.406-3.797c-0.759-0.405-1.585-0.554-2.44-0.575
			c-1.187-0.027-2.302,0.216-3.284,0.903c-1.191,0.835-1.785,2.021-1.982,3.428c-0.069,0.458-0.035,0.516,0.447,0.516
			C34.632,65.1,36.159,65.098,37.693,65.098"/>
		<path fill="#FFFFFF" d="M107.762,61.188c0.17-0.174,0.332-0.36,0.502-0.53c1.162-1.137,2.57-1.698,4.182-1.771
			c1.16-0.052,2.318-0.021,3.41,0.443c0.459,0.199,0.91,0.43,1.311,0.723c0.902,0.662,1.336,1.592,1.348,2.713
			c0.029,3.239,0.055,6.486,0.078,9.721c0,0.479-0.027,0.496-0.508,0.503c-0.256,0.016-0.498,0.028-0.758,0.042
			c-0.498,0.021-0.604-0.072-0.604-0.58c-0.002-2.665,0.016-5.328-0.008-7.988c-0.008-0.672-0.096-1.342-0.227-1.994
			c-0.213-1.035-0.869-1.693-1.881-1.96c-1.514-0.39-3.012-0.349-4.457,0.295c-1.385,0.625-2.182,1.743-2.428,3.232
			c-0.062,0.401-0.098,0.813-0.098,1.216c-0.006,2.367-0.004,4.73-0.004,7.1c0,0.201-0.02,0.393-0.027,0.668
			c-0.535,0-1.027,0.018-1.52-0.011c-0.105-0.006-0.24-0.17-0.287-0.29c-0.055-0.141-0.023-0.307-0.023-0.468V55.812
			c0-0.127,0.006-0.256,0.006-0.381c0-0.217,0.113-0.311,0.32-0.311c0.393,0.002,0.781,0.007,1.176,0
			c0.262-0.002,0.369,0.129,0.355,0.381c-0.002,0.119,0,0.248,0,0.374v4.697v0.554C107.67,61.15,107.717,61.171,107.762,61.188"/>
		<path fill="#FFFFFF" d="M15.806,68.761c0.643,0,1.196-0.01,1.75,0.011c0.079,0.002,0.205,0.15,0.224,0.248
			c0.36,1.832,1.639,2.611,3.32,2.905c1.208,0.21,2.404,0.071,3.558-0.345c0.546-0.195,1.033-0.493,1.394-0.977
			c0.64-0.873,0.635-2.401-0.809-2.951c-0.791-0.301-1.611-0.504-2.435-0.688c-1.462-0.332-2.951-0.576-4.344-1.148
			c-0.799-0.324-1.522-0.743-1.936-1.547c-0.609-1.191-0.358-2.733,0.555-3.714c1.002-1.073,2.289-1.521,3.683-1.644
			c1.485-0.125,2.968-0.077,4.377,0.537c1.47,0.633,2.427,1.682,2.724,3.277c0.078,0.415,0.038,0.471-0.382,0.484
			c-0.38,0.006-0.752-0.008-1.129-0.008c-0.213,0.008-0.347-0.075-0.392-0.311c-0.22-1.262-1.023-2.02-2.205-2.361
			c-1.383-0.403-2.781-0.418-4.147,0.104c-0.991,0.383-1.5,1.156-1.473,2.164c0.024,0.744,0.374,1.314,1.027,1.608
			c0.661,0.287,1.351,0.499,2.043,0.673c1.5,0.387,3.012,0.697,4.51,1.093c0.456,0.122,0.888,0.388,1.305,0.632
			c1.62,0.967,1.652,3.148,0.865,4.306c-0.533,0.777-1.245,1.323-2.11,1.645c-2.137,0.794-4.324,0.86-6.483,0.196
			c-1.492-0.457-2.657-1.342-3.191-2.879C15.974,69.68,15.918,69.264,15.806,68.761"/>
		<path fill="#FFFFFF" d="M79.609,61.252c0.111-0.117,0.23-0.236,0.342-0.358c1.23-1.364,2.775-1.981,4.582-2.015
			c1.166-0.025,2.312,0.046,3.408,0.506c0.971,0.406,1.816,0.986,2.176,2.003c0.225,0.619,0.314,1.313,0.316,1.979
			c0.033,3.002,0.014,6.014,0.014,9.021c0,0.06-0.004,0.126-0.004,0.184c0.023,0.3-0.105,0.432-0.408,0.421
			c-0.324-0.008-0.652,0.017-0.975,0.017c-0.293,0-0.438-0.146-0.408-0.44c0.002-0.127,0-0.25,0-0.375
			c0-2.508,0.008-5.01-0.014-7.517c0-0.599-0.059-1.19-0.146-1.774c-0.213-1.439-0.885-2.176-2.316-2.466
			c-1.367-0.281-2.744-0.261-4.043,0.327c-1.512,0.686-2.426,1.875-2.482,3.527c-0.092,2.643-0.066,5.291-0.088,7.936
			c-0.004,0.789-0.018,0.805-0.811,0.82c-0.977,0.027-1.053-0.035-1.053-0.996c0-1.706-0.004-3.412,0.008-5.119
			c0.002-0.812,0.041-1.622,0.045-2.436c0-0.627-0.045-1.254-0.045-1.877c-0.008-0.971,0.01-1.939,0.021-2.908
			c0-0.456,0.074-0.522,0.51-0.529c0.279-0.005,0.564,0.007,0.844,0c0.283-0.012,0.395,0.109,0.395,0.388
			c-0.008,0.423,0,0.849,0.01,1.267c0,0.124,0.012,0.244,0.023,0.366C79.539,61.219,79.57,61.234,79.609,61.252"/>
		<path fill="#FFFFFF" d="M111.553,79.381v0.492c0.006,1.586,0.01,3.163,0.01,4.742c0,0.568-0.004,0.568-0.582,0.568
			c-0.457,0.002-0.906,0.004-1.359,0c-0.459-0.008-0.48-0.018-0.48-0.473c-0.006-1.789-0.006-3.576-0.006-5.354
			c0-0.956,0-1.914,0.006-2.867c0-0.478,0.021-0.495,0.508-0.499c0.658-0.004,1.311,0.013,1.969-0.004
			c0.322-0.01,0.512,0.104,0.682,0.375c1.111,1.725,2.232,3.438,3.354,5.156c0.094,0.14,0.193,0.27,0.291,0.404
			c0.037,0,0.07-0.008,0.107-0.017c0.014-0.154,0.035-0.316,0.035-0.474c0-1.623,0-3.25,0-4.881c0-0.56,0.008-0.56,0.541-0.562
			c0.465,0,0.939-0.004,1.406,0c0.447,0.008,0.48,0.037,0.48,0.483c0.006,1.159,0.006,2.313,0.006,3.474c0,1.563,0,3.13-0.006,4.693
			c0,0.534-0.012,0.538-0.561,0.543c-0.611,0.002-1.223-0.016-1.83,0.006c-0.369,0.016-0.6-0.105-0.811-0.416
			c-1.088-1.68-2.207-3.34-3.322-5.012c-0.092-0.141-0.193-0.271-0.291-0.41C111.654,79.365,111.602,79.373,111.553,79.381"/>
		<path fill="#FFFFFF" d="M41.514,79.391c0,0.164,0,0.329,0,0.497c0.005,1.577,0.011,3.156,0.011,4.74
			c0,0.552-0.006,0.552-0.543,0.556c-0.47,0.004-0.94,0.005-1.409,0c-0.447-0.004-0.482-0.03-0.482-0.482c0-1.38,0-2.754,0-4.133
			c0-1.361,0-2.724,0-4.084c0-0.457,0.035-0.49,0.48-0.493c0.671-0.005,1.342,0.007,2.014-0.005
			c0.296-0.004,0.486,0.105,0.648,0.358c1.099,1.712,2.209,3.412,3.322,5.12c0.105,0.156,0.225,0.32,0.336,0.478
			c0.04-0.007,0.077-0.02,0.113-0.023c0.015-0.176,0.033-0.357,0.033-0.526c0.002-1.632,0.002-3.258,0.015-4.887
			c0-0.488,0.019-0.512,0.495-0.515c0.485-0.005,0.968-0.005,1.448,0c0.458,0.007,0.475,0.026,0.475,0.491v6.385
			c0,0.627,0.009,1.248,0,1.875c-0.006,0.418-0.024,0.438-0.467,0.441c-0.688,0.005-1.375-0.014-2.058,0.007
			c-0.312,0.009-0.484-0.122-0.646-0.367c-1.1-1.67-2.217-3.335-3.33-5.002c-0.102-0.155-0.208-0.304-0.313-0.452
			C41.614,79.373,41.562,79.381,41.514,79.391"/>
		<path fill="#FFFFFF" d="M24.811,84.734c-0.144,0.051-0.237,0.072-0.314,0.109c-1.785,0.845-3.6,0.859-5.419,0.165
			c-1.788-0.683-2.858-2.297-2.891-4.219c-0.024-1.521,0.446-2.83,1.626-3.834c0.645-0.549,1.403-0.887,2.224-1.06
			c1.44-0.308,2.864-0.297,4.237,0.28c0.899,0.37,1.579,0.996,1.969,1.909c0.053,0.115,0.093,0.229,0.131,0.35
			c0.013,0.055,0,0.122,0,0.23c-0.171,0.008-0.321,0.024-0.469,0.029c-0.439,0.004-0.881-0.016-1.32,0.006
			c-0.408,0.016-0.7-0.057-0.978-0.446c-0.56-0.804-2.028-1.021-3.068-0.556c-0.56,0.254-0.982,0.646-1.267,1.199
			c-0.692,1.369-0.458,3.139,0.56,4.093c0.922,0.861,2.672,0.919,3.64,0.099c0.334-0.286,0.576-0.646,0.588-1.161
			c-0.188-0.015-0.341-0.032-0.496-0.036c-0.433-0.003-0.875-0.006-1.312,0.004c-0.285,0.004-0.434-0.08-0.43-0.405
			c0.033-1.528-0.211-1.234,1.205-1.259c1.032-0.014,2.067-0.002,3.097,0c0.456,0.004,0.476,0.022,0.48,0.479
			c0,1.332,0,2.66,0,3.995c-0.004,0.453-0.03,0.474-0.479,0.482c-0.109,0.006-0.216,0-0.326,0.006
			C25.394,85.199,24.954,85.285,24.811,84.734"/>
		<path fill="#FFFFFF" d="M101.936,75.796c0.811-0.036,1.584,0.04,2.334,0.304c1.955,0.68,3.102,2.238,3.15,4.323
			c0.02,0.843-0.109,1.65-0.488,2.412c-0.553,1.118-1.441,1.858-2.598,2.229c-1.637,0.537-3.291,0.555-4.92-0.062
			c-1.812-0.687-2.844-2.208-2.877-4.158c-0.018-0.853,0.066-1.679,0.453-2.464c0.518-1.076,1.354-1.779,2.439-2.205
			C100.244,75.857,101.086,75.739,101.936,75.796 M101.947,77.569c-1.471,0.001-2.395,0.765-2.65,2.194
			c-0.047,0.23-0.08,0.469-0.062,0.699c0.047,0.496,0.062,1.012,0.211,1.479c0.434,1.365,1.656,1.873,3.186,1.609
			c1.09-0.189,1.793-0.896,1.971-1.99c0.076-0.549,0.1-1.124,0.031-1.674C104.447,78.385,103.463,77.569,101.947,77.569"/>
		<path fill="#FFFFFF" d="M68.734,80.994c0.689,0.242,0.795,0.863,1.031,1.4c0.367,0.843,0.773,1.674,1.164,2.508
			c0.021,0.058,0.029,0.117,0.051,0.211c-0.113,0.027-0.211,0.075-0.312,0.075c-0.672,0.009-1.343-0.005-2.02,0.009
			c-0.25,0.002-0.397-0.098-0.494-0.336c-0.279-0.699-0.59-1.384-0.862-2.084c-0.271-0.691-0.76-1.045-1.498-1.074
			c-0.343-0.015-0.685-0.059-1.028-0.059c-0.513,0.004-0.597,0.095-0.603,0.605c0,0.799,0,1.598,0,2.396
			c0,0.517-0.024,0.54-0.517,0.544c-0.533,0.008-1.062,0.008-1.598,0c-0.498-0.002-0.515-0.02-0.515-0.544v-5.827
			c0-0.795,0.013-1.592,0-2.394c-0.007-0.323,0.116-0.44,0.44-0.438c1.828,0.012,3.658-0.023,5.488,0.031
			c0.625,0.02,1.271,0.18,1.874,0.383c0.865,0.294,1.292,0.984,1.37,1.891c0.068,0.854-0.219,1.544-0.938,2.027
			c-0.309,0.202-0.639,0.371-0.963,0.555C68.777,80.914,68.755,80.953,68.734,80.994 M65.596,77.65v0.033c-0.344,0-0.688,0-1.033,0
			c-0.24-0.002-0.393,0.096-0.393,0.352c-0.006,0.551-0.006,1.098,0,1.646c0,0.229,0.135,0.342,0.362,0.339
			c0.856-0.026,1.711-0.026,2.569-0.103c0.617-0.059,1.004-0.539,1.004-1.113c0-0.554-0.371-0.948-1.019-1.035
			C66.596,77.703,66.1,77.684,65.596,77.65"/>
		<path fill="#FFFFFF" d="M28.568,80.586c0-1.35,0-2.692,0-4.042c0.005-0.53,0.023-0.553,0.56-0.553c2.364,0,4.726,0,7.089,0
			c0.509,0,0.509,0.014,0.518,0.538c0,0.249,0.003,0.498,0,0.752c-0.009,0.455-0.026,0.476-0.482,0.476
			c-1.394,0.004-2.784,0-4.18,0.004c-0.185,0-0.375,0-0.561,0c-0.213,0-0.312,0.104-0.312,0.317c0.002,0.36,0.007,0.725-0.007,1.079
			c-0.008,0.312,0.135,0.409,0.426,0.407c0.763-0.012,1.533,0,2.299,0c0.611,0,1.219-0.003,1.828,0
			c0.506,0.002,0.515,0.018,0.519,0.537c0,0.203,0,0.405,0,0.61c-0.004,0.53-0.009,0.538-0.565,0.538
			c-1.17,0.007-2.343,0.001-3.518,0.001c-0.169,0-0.344-0.001-0.51,0.006c-0.432,0.011-0.469,0.042-0.471,0.446
			c-0.007,0.424-0.007,0.844,0,1.271c0.002,0.417,0.035,0.449,0.456,0.451c1.505,0.007,3.008,0,4.508,0.007
			c0.829,0,0.754-0.061,0.754,0.766c0,0.201-0.009,0.4,0,0.609c0.021,0.285-0.114,0.384-0.39,0.377
			c-0.497-0.007-0.999-0.004-1.5-0.004c-1.967,0-3.94,0.004-5.911,0c-0.536,0-0.545-0.01-0.55-0.559
			C28.568,83.274,28.568,81.928,28.568,80.586"/>
		<path fill="#FFFFFF" d="M51.097,80.568c0-1.35,0-2.695,0.007-4.039c0-0.507,0.021-0.538,0.523-0.538c2.378,0,4.758,0,7.133,0
			c0.484,0,0.506,0.026,0.508,0.499c0.004,0.235,0.004,0.475,0,0.707c0,0.56-0.002,0.56-0.586,0.56
			c-1.363,0.004-2.723,0-4.077,0.004c-0.983,0-0.879-0.087-0.879,0.888c0,0.99-0.117,0.914,0.895,0.918c1.225,0,2.441-0.004,3.661,0
			c0.489,0,0.513,0.02,0.513,0.495c0.008,0.288,0,0.569,0,0.849c0.008,0.234-0.102,0.342-0.337,0.341
			c-0.327-0.005-0.655,0.001-0.983,0.001c-1.082,0-2.16-0.001-3.241,0.008c-0.473,0-0.501,0.03-0.507,0.504
			c-0.002,0.393-0.002,0.78,0,1.176c0.006,0.453,0.034,0.485,0.479,0.488c0.846,0.006,1.685,0.006,2.536,0.006
			c0.768,0,1.529,0.002,2.295-0.006c0.299-0.009,0.432,0.099,0.41,0.408c-0.014,0.346-0.001,0.688,0,1.035
			c0,0.207-0.094,0.316-0.309,0.311c-0.097-0.002-0.186,0.004-0.283,0.004h-7.174c-0.575,0-0.578-0.006-0.578-0.576
			C51.097,83.261,51.097,81.912,51.097,80.568"/>
		<path fill="#FFFFFF" d="M45.64,59.197c0.683,0,1.271-0.018,1.857,0.018c0.104,0.005,0.225,0.195,0.285,0.329
			c0.547,1.222,1.085,2.459,1.625,3.69c1.057,2.41,2.114,4.816,3.165,7.226c0.072,0.163,0.167,0.317,0.292,0.56
			c0.162-0.334,0.285-0.584,0.391-0.834c1.368-3.181,2.731-6.362,4.093-9.543c0.164-0.386,0.323-0.777,0.519-1.158
			c0.062-0.117,0.204-0.272,0.317-0.282c0.53-0.032,1.055-0.014,1.656-0.014c-0.062,0.204-0.085,0.332-0.137,0.454
			c-1.908,4.326-3.811,8.652-5.699,12.979c-0.146,0.348-0.405,0.419-0.708,0.419c-0.421-0.004-0.839-0.042-1.267-0.046
			c-0.264-0.004-0.379-0.15-0.475-0.371c-0.886-2-1.776-4.002-2.662-6.004c-1.016-2.307-2.031-4.612-3.051-6.918
			C45.788,59.575,45.738,59.441,45.64,59.197"/>
		<path fill="#FFFFFF" d="M102.826,71.445c0,0.428,0.027,0.806-0.018,1.174c-0.01,0.125-0.17,0.304-0.299,0.35
			c-0.396,0.131-0.811,0.251-1.225,0.305c-1.217,0.147-2.434,0.172-3.639-0.07c-2.1-0.43-3.275-1.782-3.697-3.824
			c-0.139-0.672-0.203-1.372-0.207-2.052c-0.02-3.815-0.012-7.637-0.012-11.46c0-0.152-0.021-0.323,0.016-0.465
			c0.037-0.102,0.168-0.254,0.254-0.258c0.438-0.031,0.873-0.023,1.312-0.014c0.307,0.004,0.275,0.238,0.275,0.442
			c0.008,1.128,0.008,2.255,0.008,3.386c0,0.105,0.002,0.212,0,0.326c-0.012,0.23,0.104,0.348,0.342,0.346
			c0.119,0,0.246,0.004,0.371,0.004h5.916c0.602,0,0.602,0.001,0.602,0.59c0.002,0.094,0,0.189,0,0.281
			c0.012,0.271-0.111,0.412-0.387,0.417c-0.135,0.005-0.277,0.005-0.422,0.005c-1.951,0-3.904,0-5.861,0
			c-0.545,0.004-0.559,0.016-0.561,0.553c-0.006,2.098-0.035,4.193,0.018,6.289c0.018,0.707,0.174,1.432,0.396,2.102
			c0.424,1.264,1.395,1.938,2.674,2.039c0.961,0.079,1.932,0.008,2.9-0.074C101.973,71.81,102.346,71.604,102.826,71.445"/>
		<path fill="#FFFFFF" d="M71.906,85.177c0.209-0.52,0.371-0.926,0.541-1.322c1.02-2.421,2.047-4.839,3.074-7.255
			c0.252-0.605,0.248-0.608,0.885-0.608c0.643,0,1.281,0.014,1.922-0.005c0.309-0.01,0.475,0.105,0.602,0.396
			c0.986,2.418,1.996,4.828,2.996,7.24c0.197,0.486,0.408,0.969,0.648,1.561h-0.73c-0.561,0-1.127-0.011-1.688,0.005
			c-0.312,0.011-0.502-0.097-0.594-0.401c-0.111-0.327-0.264-0.637-0.375-0.96c-0.088-0.235-0.23-0.347-0.488-0.345
			c-1.033,0.012-2.064,0.006-3.098,0.004c-0.23-0.004-0.377,0.087-0.455,0.312c-0.119,0.356-0.246,0.71-0.396,1.058
			c-0.057,0.124-0.189,0.304-0.293,0.306C73.648,85.188,72.836,85.177,71.906,85.177 M77.256,78.365
			c-0.057,0.006-0.109,0.006-0.158,0.008c-0.379,1.052-0.762,2.109-1.162,3.219h2.543C78.047,80.469,77.654,79.414,77.256,78.365"/>
		<path fill="#FFFFFF" d="M86.076,75.991c1.312,0,2.623,0,3.938,0c0.51,0,0.527,0.026,0.539,0.528
			c0.002,0.262,0.01,0.533-0.008,0.801c-0.016,0.367-0.094,0.422-0.451,0.422c-0.732-0.006-1.471-0.01-2.197,0.012
			c-0.455,0.007-0.467,0.042-0.467,0.497c-0.006,2.083-0.006,4.163-0.006,6.243c0,0.129,0,0.256,0,0.382
			c0.006,0.216-0.104,0.31-0.314,0.306c-0.676-0.005-1.35-0.005-2.02,0c-0.229,0.004-0.344-0.105-0.344-0.338
			c0-0.143-0.004-0.281-0.004-0.426c0-2.02,0-4.035,0-6.055c0-0.613-0.104-0.676-0.713-0.656c-0.691,0.021-1.377-0.012-2.062-0.02
			c-0.236-0.004-0.344-0.117-0.336-0.347c0-0.315,0.008-0.629-0.008-0.94c-0.012-0.311,0.121-0.414,0.418-0.409
			c0.936,0.007,1.875,0,2.816,0H86.076L86.076,75.991z"/>
		<path fill="#FFFFFF" d="M92.127,80.592c0-1.359-0.002-2.723,0-4.083c0-0.486,0.027-0.511,0.496-0.519
			c0.547-0.004,1.096-0.004,1.643,0c0.473,0,0.498,0.031,0.498,0.513c0,2.521,0,5.034,0,7.552c0,0.252-0.006,0.503,0,0.754
			c0.006,0.248-0.088,0.379-0.355,0.375c-0.639-0.007-1.279-0.007-1.924,0.004c-0.342,0.003-0.359-0.211-0.355-0.466
			C92.127,83.344,92.127,81.969,92.127,80.592"/>
	</g>
</g>
<g>
	<path fill="#FFFFFF" d="M56.098,88.23c0.031-0.174,0.291-0.174,0.262-0.008c-0.168,0.953-0.318,1.803-0.484,2.747
		c-0.531,3.009-5.074,3.009-4.543,0c0.167-0.944,0.316-1.794,0.485-2.747c0.029-0.166,0.281-0.166,0.25,0.008
		c-0.167,0.945-0.316,1.795-0.483,2.739c-0.469,2.662,3.562,2.662,4.032,0C55.781,90.025,55.932,89.176,56.098,88.23z"/>
	<path fill="#FFFFFF" d="M57.072,93.176c-0.104,0-0.133-0.056-0.115-0.15l0.84-4.764c0.035-0.197,0.303-0.197,0.268,0l-0.824,4.669
		h3.307c0.182,0,0.131,0.245-0.043,0.245H57.072z"/>
	<path fill="#FFFFFF" d="M65.266,88.16c0.188,0,0.146,0.235-0.042,0.235h-2.04l-0.812,4.661c-0.019,0.104-0.105,0.15-0.169,0.15
		s-0.126-0.047-0.107-0.15l0.821-4.661h-2.031c-0.188,0-0.146-0.235,0.042-0.235C62.367,88.16,63.816,88.16,65.266,88.16z"/>
	<path fill="#FFFFFF" d="M65.867,91.325l-0.307,1.739c-0.031,0.174-0.291,0.174-0.262,0.009l0.843-4.779
		c0.015-0.079,0.079-0.134,0.157-0.134h1.984c1.33,0,1.877,0.747,1.719,1.638c-0.149,0.851-0.822,1.448-1.986,1.535l1.334,1.677
		c0.102,0.134-0.094,0.307-0.197,0.181l-1.443-1.865H65.867z M65.908,91.097h1.865c1.221,0,1.851-0.582,1.961-1.299
		c0.129-0.772-0.408-1.395-1.486-1.395h-1.865L65.908,91.097z"/>
	<path fill="#FFFFFF" d="M71.021,91.766l-0.946,1.395c-0.105,0.148-0.312,0.03-0.206-0.126l3.374-4.938
		c0.032-0.047,0.084-0.071,0.131-0.071s0.082,0.024,0.098,0.071l1.641,4.938c0.051,0.156-0.197,0.274-0.25,0.126l-0.455-1.395
		H71.021z M73.305,88.412L71.18,91.53h3.143L73.305,88.412z"/>
	<path fill="#FFFFFF" d="M76.224,90.947c-0.205,0-0.14-0.276,0.048-0.276h1.717c0.189,0,0.141,0.276-0.049,0.276H76.224z"/>
	<path fill="#FFFFFF" d="M83.811,88.16c0.189,0,0.147,0.235-0.041,0.235H81.73l-0.814,4.661c-0.018,0.104-0.105,0.15-0.168,0.15
		c-0.063,0-0.126-0.047-0.107-0.15l0.821-4.661h-2.031c-0.188,0-0.147-0.235,0.042-0.235C80.913,88.16,82.361,88.16,83.811,88.16z"
		/>
	<path fill="#FFFFFF" d="M84.515,90.655h3.417l0.414-2.347c0.035-0.196,0.303-0.196,0.268,0l-0.836,4.741
		c-0.031,0.181-0.299,0.181-0.268,0l0.381-2.157l-3.416-0.009l-0.383,2.166c-0.031,0.181-0.291,0.181-0.26,0l0.836-4.741
		c0.035-0.196,0.295-0.196,0.26,0L84.515,90.655z"/>
	<path fill="#FFFFFF" d="M90.074,88.262c0.035-0.197,0.318-0.197,0.283,0l-0.844,4.78c-0.031,0.181-0.314,0.181-0.283,0
		L90.074,88.262z"/>
	<path fill="#FFFFFF" d="M95.489,88.277c0.034-0.196,0.302-0.196,0.268,0l-0.836,4.74c-0.033,0.189-0.206,0.189-0.286,0.063
		l-2.638-4.465l-0.779,4.418c-0.033,0.188-0.294,0.188-0.261,0l0.835-4.732c0.034-0.197,0.204-0.221,0.29-0.079l2.629,4.464
		L95.489,88.277z"/>
	<path fill="#FFFFFF" d="M99.039,91.616l-0.256,1.448c-0.029,0.174-0.289,0.174-0.261,0.009l0.843-4.779
		c0.014-0.079,0.086-0.134,0.157-0.134h1.787c1.331,0,1.85,0.897,1.692,1.787c-0.16,0.913-0.947,1.669-2.294,1.669H99.039z
		 M99.082,91.372h1.669c1.229,0,1.874-0.717,1.983-1.425c0.129-0.771-0.381-1.544-1.459-1.544h-1.67L99.082,91.372z"/>
	<path fill="#FFFFFF" d="M103.621,91.766l-0.946,1.395c-0.104,0.148-0.313,0.03-0.206-0.126l3.375-4.938
		c0.031-0.047,0.083-0.071,0.13-0.071c0.048,0,0.083,0.024,0.098,0.071l1.642,4.938c0.051,0.156-0.198,0.274-0.251,0.126
		l-0.455-1.395H103.621z M105.905,88.412l-2.124,3.118h3.141L105.905,88.412z"/>
	<path fill="#FFFFFF" d="M108.62,93.176c-0.118,0-0.196-0.095-0.177-0.205l0.812-4.606c0.02-0.11,0.129-0.196,0.248-0.196
		c0.691,0,1.125,0,1.826,0c3.086,0,2.203,5.008-0.883,5.008C109.746,93.176,109.312,93.176,108.62,93.176z M108.711,92.931
		c0.676,0,1.094,0,1.779,0c2.74,0,3.539-4.527,0.799-4.527c-0.686,0-1.104,0-1.779,0L108.711,92.931z"/>
	<path fill="#FFFFFF" d="M113.867,92.057c0.074,0.654,0.921,0.898,1.502,0.953c0.115,0.016,0.247,0.024,0.365,0.024
		c0.779,0,2.031-0.269,2.203-1.245c0.32-1.811-4.125-0.181-3.75-2.307c0.139-0.78,0.97-1.166,1.656-1.307
		c0.219-0.04,0.452-0.063,0.672-0.063c0.756,0,1.812,0.174,1.967,0.992c0.045,0.189-0.209,0.244-0.235,0.087
		c-0.138-0.741-1.096-0.843-1.765-0.843c-0.063,0-0.127,0.008-0.191,0.008c-0.573,0.039-1.432,0.268-1.742,0.866
		c-0.054,0.079-0.088,0.181-0.103,0.268c-0.317,1.803,4.116,0.229,3.753,2.292c-0.203,1.156-1.551,1.472-2.504,1.472
		c-0.803,0-1.984-0.22-2.075-1.134C113.602,91.963,113.85,91.892,113.867,92.057z"/>
</g>
</svg>
