<?xml version="1.0" encoding="utf-8"?>
<!-- Generator: Adobe Illustrator 15.1.0, SVG Export Plug-In . SVG Version: 6.00 Build 0)  -->
<!DOCTYPE svg PUBLIC "-//W3C//DTD SVG 1.1//EN" "http://www.w3.org/Graphics/SVG/1.1/DTD/svg11.dtd">
<svg version="1.1" id="Capa_1" xmlns="http://www.w3.org/2000/svg" xmlns:xlink="http://www.w3.org/1999/xlink" x="0px" y="0px"
	 width="139px" height="145px" viewBox="0 0 139 145" enable-background="new 0 0 139 145" xml:space="preserve">
<g>
	<g>
		<g>
			<g>
				<path fill="none" stroke="#4F5877" stroke-width="0.9999" stroke-miterlimit="10" d="M138.456,42.022l0.166-5.449
					c-2.364,0-4.348-1.542-5.073-3.678v-3.5c0.726-2.132,2.709-3.674,5.073-3.674l-0.058-4.637c-2.294,0-4.24-1.45-5.016-3.489
					v-3.871c0.775-2.039,2.722-3.493,5.016-3.493L138.62,5.5h-5.071v-5.502l-5.601,0.054c0,2.994-2.332,5.425-5.207,5.425
					c-2.874,0-5.201-2.431-5.201-5.425l-4.449-0.056c0,2.998-2.328,5.428-5.205,5.428c-2.874,0-5.203-2.43-5.203-5.428l-5.227-0.224
					c0,2.999-2.332,5.432-5.206,5.432c-2.875,0-5.211-2.433-5.211-5.432l-4.44,0.113c0,2.996-2.328,5.427-5.203,5.427
					c-2.878,0-5.208-2.431-5.208-5.427l-5.906,0.053c0,3.001-2.33,5.43-5.207,5.43c-2.875,0-5.206-2.428-5.206-5.43l-4.442-0.106
					c0,3-2.331,5.426-5.207,5.426c-2.874,0-5.207-2.426-5.207-5.426l-5.226-0.166c0,2.998-2.332,5.426-5.209,5.426
					c-2.871,0-5.201-2.428-5.201-5.426l-4.449,0.055c0,2.998-2.328,5.431-5.203,5.431c-2.874,0-5.207-2.433-5.207-5.431l-4.54-0.055
					V5.5h-5.07l0.055,4.732c2.292,0,4.239,1.455,5.015,3.488v3.877c-0.776,2.038-2.723,3.488-5.015,3.488l-0.057,4.637
					c2.363,0,4.346,1.542,5.072,3.673v3.501c-0.725,2.136-2.708,3.677-5.072,3.677l0.165,5.449c2.19,0,4.066,1.322,4.907,3.215
					v4.428c-0.841,1.889-2.716,3.212-4.907,3.212l0.107,4.632c2.109,0,3.917,1.232,4.8,3.014v4.828
					c-0.883,1.78-2.691,3.015-4.8,3.015l-0.053,6.157c2.15,0,3.99,1.276,4.853,3.114v4.624c-0.863,1.837-2.704,3.116-4.853,3.116
					l-0.109,4.631c2.231,0,4.146,1.373,4.963,3.323v4.21c-0.816,1.954-2.731,3.324-4.963,3.324l0.219,5.447
					c2.067,0,3.841,1.186,4.744,2.91v5.034c-0.903,1.723-2.676,2.909-4.744,2.909l0.055,4.636c2.026,0,3.771,1.142,4.689,2.809v5.23
					c-0.918,1.669-2.663,2.813-4.689,2.813l-0.053,5.84h4.742v5.83l4.541-0.054c0-2.998,2.333-5.429,5.207-5.429
					c2.876,0,5.203,2.431,5.203,5.429l4.449,0.054c0-2.994,2.33-5.425,5.201-5.425c2.878,0,5.209,2.431,5.209,5.425l5.224-0.162
					c0-3.001,2.333-5.43,5.206-5.43c2.876,0,5.207,2.43,5.207,5.43l4.442-0.109c0-2.998,2.331-5.427,5.206-5.427
					c2.876,0,5.207,2.43,5.207,5.427l5.907,0.053c0-2.992,2.328-5.425,5.206-5.425c2.875,0,5.205,2.433,5.205,5.425l4.44,0.111
					c0-2.995,2.334-5.426,5.209-5.426c2.874,0,5.208,2.431,5.208,5.426l5.225-0.221c0-2.998,2.331-5.43,5.205-5.43
					c2.877,0,5.203,2.432,5.203,5.43l4.449-0.054c0-2.998,2.329-5.429,5.201-5.429c2.877,0,5.209,2.432,5.209,5.429l5.601,0.052
					v-5.5h4.742l-0.052-5.84c-2.03,0-3.771-1.145-4.69-2.816v-5.228c0.919-1.67,2.662-2.809,4.69-2.809l0.054-4.636
					c-2.066,0-3.843-1.187-4.744-2.909v-5.034c0.901-1.725,2.678-2.91,4.744-2.91l0.219-5.447c-2.233,0-4.148-1.37-4.963-3.327
					v-4.204c0.814-1.953,2.729-3.326,4.963-3.326l-0.108-4.631c-2.151,0-3.99-1.279-4.854-3.116v-4.623
					c0.864-1.839,2.703-3.115,4.854-3.115l-0.056-6.157c-2.107,0-3.917-1.234-4.799-3.016v-4.825
					c0.882-1.779,2.691-3.016,4.799-3.016l0.108-4.631c-2.192,0-4.068-1.324-4.907-3.213v-4.427
					C134.388,43.348,136.266,42.022,138.456,42.022z"/>
				
					<rect x="12.72" y="10.897" fill="#FACBC1" stroke="#4F5877" stroke-width="1.9884" stroke-miterlimit="10" width="114.09" height="122.199"/>
			</g>
		</g>
	</g>
	<g>
		<path fill="#FFFFFF" d="M74.665,68.901c-0.07,0.218-0.106,0.364-0.161,0.5c-0.509,1.252-1.414,2.132-2.61,2.671
			c-2.22,1.003-4.505,1.079-6.788,0.269c-1.856-0.658-3.041-2.022-3.6-3.899c-0.571-1.917-0.563-3.857,0.063-5.764
			c0.744-2.255,2.338-3.599,4.619-4.093c1.499-0.325,3.01-0.31,4.502,0.127c2.155,0.638,3.494,2.079,4.052,4.24
			c0.207,0.807,0.219,1.663,0.321,2.499c0.033,0.312-0.097,0.479-0.43,0.442c-0.116-0.015-0.242-0.004-0.368-0.004
			c-3.5,0-7.003,0-10.505,0.004c-0.152,0-0.307,0-0.458,0.008c-0.218,0.009-0.303,0.13-0.292,0.34
			c0.071,1.417,0.43,2.714,1.42,3.768c0.754,0.799,1.713,1.216,2.783,1.383c1.623,0.256,3.162,0.041,4.494-0.995
			c0.359-0.286,0.645-0.708,0.892-1.114c0.173-0.278,0.339-0.402,0.658-0.385C73.697,68.921,74.148,68.901,74.665,68.901
			 M63.052,64.595h0.62h8.536c1.02,0,1.023,0,0.807-1.004c-0.389-1.849-1.439-3.136-3.283-3.614
			c-0.665-0.175-1.379-0.196-2.062-0.182c-1.379,0.042-2.562,0.575-3.471,1.642C63.452,62.321,63.08,63.354,63.052,64.595"/>
		<path fill="#FFFFFF" d="M44.871,68.898c-0.416,1.223-1.067,2.092-2.014,2.723c-1.209,0.809-2.555,1.171-3.994,1.214
			c-0.997,0.023-1.982,0.006-2.952-0.276c-2.4-0.702-3.846-2.31-4.388-4.739c-0.394-1.77-0.341-3.534,0.268-5.262
			c0.635-1.803,1.834-3.065,3.624-3.702c1.774-0.634,3.598-0.666,5.399-0.16c2.555,0.723,3.872,2.557,4.289,5.118
			c0.085,0.503,0.096,1.025,0.111,1.538c0.014,0.527-0.01,0.537-0.555,0.537c-2.154,0.004-4.306,0-6.463,0
			c-1.485,0-2.971,0-4.461,0.004c-0.503,0-0.544,0.036-0.519,0.529c0.091,1.823,0.757,3.349,2.353,4.325
			c0.981,0.602,2.074,0.783,3.217,0.72c0.99-0.048,1.925-0.268,2.771-0.819c0.53-0.342,0.974-0.781,1.239-1.364
			c0.145-0.307,0.341-0.397,0.654-0.387C43.893,68.917,44.335,68.898,44.871,68.898 M38.251,64.595c1.515,0,3.033,0.003,4.547,0
			c0.456,0,0.524-0.053,0.476-0.471c-0.197-1.646-0.893-2.973-2.384-3.789c-0.751-0.405-1.57-0.553-2.417-0.574
			c-1.176-0.028-2.281,0.216-3.253,0.901c-1.181,0.833-1.769,2.017-1.964,3.42c-0.068,0.456-0.034,0.513,0.443,0.513
			C35.219,64.598,36.732,64.595,38.251,64.595"/>
		<path fill="#FFFFFF" d="M107.671,60.695c0.168-0.174,0.331-0.359,0.499-0.529c1.151-1.135,2.547-1.694,4.144-1.767
			c1.147-0.052,2.295-0.021,3.376,0.443c0.455,0.199,0.904,0.428,1.301,0.719c0.894,0.663,1.323,1.589,1.335,2.707
			c0.029,3.233,0.053,6.472,0.077,9.698c0,0.477-0.028,0.495-0.503,0.502c-0.253,0.016-0.493,0.028-0.751,0.042
			c-0.493,0.021-0.598-0.072-0.598-0.58c-0.004-2.658,0.016-5.313-0.008-7.967c-0.008-0.67-0.095-1.34-0.225-1.991
			c-0.213-1.032-0.86-1.688-1.865-1.955c-1.5-0.39-2.981-0.348-4.414,0.294c-1.372,0.623-2.163,1.74-2.405,3.225
			c-0.062,0.4-0.097,0.811-0.097,1.213c-0.006,2.361-0.004,4.719-0.004,7.083c0,0.2-0.02,0.392-0.028,0.667
			c-0.53,0-1.017,0.017-1.504-0.011c-0.106-0.006-0.238-0.169-0.284-0.29c-0.057-0.139-0.023-0.305-0.023-0.467V55.333
			c0-0.128,0.004-0.257,0.004-0.382c0-0.214,0.114-0.309,0.319-0.309c0.389,0.003,0.773,0.007,1.165,0
			c0.257-0.002,0.365,0.129,0.352,0.38c-0.002,0.118,0,0.248,0,0.373v4.686v0.553C107.582,60.657,107.628,60.678,107.671,60.695"/>
		<path fill="#FFFFFF" d="M16.567,68.25c0.637,0,1.185-0.01,1.734,0.011c0.079,0.002,0.203,0.15,0.222,0.248
			c0.356,1.828,1.624,2.606,3.289,2.898c1.197,0.209,2.382,0.072,3.525-0.344c0.541-0.196,1.023-0.492,1.381-0.975
			c0.634-0.871,0.629-2.396-0.801-2.944c-0.784-0.3-1.596-0.501-2.413-0.687c-1.449-0.331-2.924-0.574-4.304-1.144
			c-0.792-0.324-1.508-0.742-1.917-1.544c-0.604-1.188-0.355-2.727,0.549-3.705c0.993-1.071,2.268-1.517,3.649-1.639
			c1.471-0.126,2.94-0.078,4.337,0.536c1.457,0.631,2.405,1.678,2.699,3.269c0.077,0.414,0.038,0.47-0.379,0.483
			c-0.376,0.005-0.745-0.008-1.118-0.008c-0.211,0.008-0.344-0.075-0.389-0.31c-0.218-1.258-1.014-2.013-2.184-2.355
			c-1.371-0.402-2.756-0.416-4.109,0.103c-0.982,0.382-1.486,1.155-1.459,2.16c0.024,0.741,0.371,1.311,1.018,1.604
			c0.655,0.287,1.338,0.498,2.024,0.671c1.486,0.387,2.984,0.696,4.469,1.09c0.452,0.123,0.879,0.387,1.292,0.63
			c1.605,0.965,1.637,3.142,0.857,4.296c-0.528,0.775-1.234,1.319-2.091,1.641c-2.117,0.791-4.284,0.859-6.423,0.196
			c-1.478-0.456-2.632-1.339-3.161-2.872C16.733,69.168,16.678,68.751,16.567,68.25"/>
		<path fill="#FFFFFF" d="M79.781,60.759c0.108-0.117,0.227-0.237,0.338-0.358c1.218-1.36,2.75-1.976,4.54-2.009
			c1.155-0.026,2.289,0.045,3.377,0.503c0.962,0.407,1.8,0.984,2.155,1.999c0.223,0.618,0.312,1.31,0.312,1.974
			c0.033,2.996,0.016,6,0.016,9c0,0.059-0.004,0.125-0.004,0.183c0.021,0.299-0.104,0.431-0.404,0.42
			c-0.321-0.008-0.648,0.017-0.968,0.017c-0.29,0-0.432-0.145-0.404-0.439c0.004-0.126,0-0.25,0-0.375
			c0-2.501,0.01-4.998-0.012-7.499c0-0.596-0.058-1.189-0.145-1.771c-0.211-1.435-0.877-2.17-2.296-2.46
			c-1.356-0.281-2.719-0.26-4.007,0.326c-1.496,0.686-2.401,1.872-2.458,3.521c-0.091,2.635-0.065,5.279-0.087,7.916
			c-0.004,0.786-0.018,0.802-0.803,0.819c-0.97,0.026-1.043-0.035-1.043-0.995c0-1.702-0.004-3.404,0.008-5.108
			c0.002-0.81,0.04-1.617,0.044-2.428c0-0.626-0.044-1.252-0.044-1.874c-0.008-0.967,0.008-1.934,0.021-2.901
			c0-0.455,0.071-0.521,0.505-0.529c0.276-0.004,0.559,0.008,0.836,0c0.28-0.011,0.391,0.111,0.391,0.387
			c-0.008,0.422,0,0.847,0.01,1.264c0,0.124,0.012,0.244,0.023,0.366C79.711,60.726,79.742,60.741,79.781,60.759"/>
		<path fill="#FFFFFF" d="M111.427,78.844v0.493c0.006,1.581,0.012,3.154,0.012,4.729c0,0.567-0.006,0.567-0.579,0.567
			c-0.45,0.002-0.896,0.005-1.345,0c-0.454-0.008-0.478-0.017-0.478-0.471c-0.006-1.786-0.006-3.568-0.006-5.343
			c0-0.952,0-1.909,0.006-2.86c0-0.475,0.023-0.493,0.503-0.497c0.654-0.005,1.301,0.013,1.952-0.005
			c0.317-0.01,0.508,0.104,0.676,0.375c1.101,1.72,2.212,3.43,3.322,5.145c0.093,0.139,0.191,0.268,0.286,0.402
			c0.039,0,0.072-0.007,0.108-0.017c0.014-0.153,0.035-0.315,0.035-0.473c0-1.618,0-3.243,0-4.868c0-0.559,0.006-0.559,0.536-0.562
			c0.461,0,0.929-0.004,1.394,0c0.442,0.009,0.476,0.037,0.476,0.482c0.004,1.157,0.004,2.308,0.004,3.466
			c0,1.56,0,3.122-0.004,4.682c0,0.532-0.012,0.536-0.556,0.54c-0.605,0.003-1.211-0.014-1.812,0.008
			c-0.366,0.016-0.595-0.104-0.806-0.415c-1.077-1.676-2.185-3.333-3.289-5.001c-0.093-0.14-0.191-0.271-0.288-0.41
			C111.529,78.83,111.478,78.838,111.427,78.844"/>
		<path fill="#FFFFFF" d="M42.037,78.854c0,0.164,0,0.329,0,0.496c0.005,1.572,0.011,3.148,0.011,4.729
			c0,0.551-0.006,0.551-0.538,0.554c-0.465,0.005-0.931,0.005-1.396,0c-0.443-0.003-0.478-0.03-0.478-0.48c0-1.377,0-2.748,0-4.123
			c0-1.357,0-2.717,0-4.075c0-0.455,0.035-0.488,0.476-0.491c0.665-0.005,1.33,0.008,1.995-0.005
			c0.293-0.006,0.482,0.104,0.642,0.357c1.089,1.707,2.188,3.403,3.292,5.106c0.104,0.157,0.223,0.32,0.333,0.479
			c0.04-0.007,0.077-0.021,0.112-0.024c0.015-0.175,0.033-0.356,0.033-0.524c0.002-1.629,0.002-3.25,0.015-4.876
			c0-0.486,0.019-0.51,0.49-0.513c0.481-0.005,0.959-0.005,1.435,0c0.454,0.008,0.471,0.025,0.471,0.489v6.369
			c0,0.627,0.008,1.245,0,1.871c-0.006,0.417-0.024,0.438-0.463,0.44c-0.682,0.005-1.362-0.014-2.039,0.008
			c-0.309,0.008-0.479-0.122-0.64-0.367c-1.09-1.666-2.197-3.327-3.299-4.989c-0.101-0.154-0.206-0.305-0.31-0.452
			C42.136,78.838,42.084,78.844,42.037,78.854"/>
		<path fill="#FFFFFF" d="M25.489,84.185c-0.143,0.053-0.235,0.073-0.311,0.11c-1.769,0.843-3.567,0.857-5.369,0.165
			c-1.771-0.682-2.831-2.292-2.864-4.209c-0.023-1.517,0.442-2.824,1.611-3.825c0.639-0.548,1.391-0.885,2.204-1.056
			c1.427-0.308,2.837-0.297,4.198,0.278c0.891,0.37,1.564,0.994,1.951,1.904c0.052,0.115,0.092,0.229,0.129,0.35
			c0.013,0.054,0,0.122,0,0.23c-0.169,0.008-0.318,0.024-0.464,0.03c-0.435,0.002-0.873-0.016-1.308,0.004
			c-0.404,0.015-0.693-0.057-0.969-0.444c-0.555-0.803-2.009-1.021-3.04-0.555c-0.555,0.253-0.973,0.644-1.255,1.195
			c-0.686,1.367-0.454,3.132,0.555,4.084c0.914,0.859,2.647,0.916,3.606,0.099c0.331-0.285,0.571-0.646,0.583-1.159
			c-0.186-0.014-0.337-0.031-0.492-0.036c-0.429-0.003-0.867-0.006-1.3,0.005c-0.282,0.004-0.43-0.079-0.426-0.405
			c0.033-1.523-0.209-1.23,1.194-1.254c1.022-0.016,2.048-0.005,3.068,0c0.452,0.003,0.472,0.021,0.476,0.476
			c0,1.329,0,2.654,0,3.986c-0.004,0.451-0.03,0.473-0.475,0.48c-0.108,0.007-0.214,0-0.323,0.007
			C26.066,84.649,25.63,84.735,25.489,84.185"/>
		<path fill="#FFFFFF" d="M101.9,75.269c0.803-0.036,1.569,0.04,2.311,0.303c1.938,0.68,3.075,2.233,3.123,4.313
			c0.018,0.84-0.11,1.647-0.485,2.406c-0.546,1.116-1.427,1.854-2.572,2.226c-1.621,0.533-3.26,0.552-4.874-0.062
			c-1.798-0.685-2.817-2.201-2.851-4.148c-0.018-0.851,0.064-1.674,0.449-2.459c0.511-1.072,1.339-1.774,2.415-2.199
			C100.225,75.33,101.059,75.213,101.9,75.269 M101.912,77.038c-1.459,0.001-2.374,0.764-2.626,2.188
			c-0.046,0.231-0.081,0.471-0.062,0.7c0.046,0.494,0.062,1.008,0.209,1.475c0.43,1.36,1.639,1.868,3.156,1.605
			c1.077-0.189,1.776-0.895,1.95-1.986c0.075-0.546,0.101-1.121,0.031-1.67C104.389,77.851,103.414,77.038,101.912,77.038"/>
		<path fill="#FFFFFF" d="M69.006,80.455c0.682,0.241,0.787,0.861,1.021,1.396c0.364,0.841,0.769,1.671,1.153,2.502
			c0.023,0.058,0.031,0.117,0.05,0.212c-0.109,0.024-0.207,0.073-0.308,0.073c-0.666,0.011-1.331-0.005-2.001,0.011
			c-0.249,0-0.394-0.099-0.49-0.337c-0.276-0.696-0.584-1.381-0.854-2.079c-0.268-0.689-0.753-1.041-1.484-1.071
			c-0.339-0.015-0.678-0.059-1.018-0.059c-0.509,0.006-0.592,0.095-0.598,0.605c0,0.794,0,1.592,0,2.389
			c0,0.516-0.023,0.538-0.511,0.543c-0.529,0.009-1.052,0.009-1.584,0c-0.492-0.002-0.509-0.021-0.509-0.543v-5.813
			c0-0.793,0.013-1.589,0-2.388c-0.007-0.323,0.116-0.439,0.436-0.438c1.811,0.014,3.624-0.022,5.438,0.032
			c0.619,0.02,1.259,0.18,1.856,0.382c0.857,0.293,1.281,0.98,1.358,1.887c0.067,0.851-0.217,1.54-0.931,2.021
			c-0.305,0.202-0.631,0.371-0.954,0.555C69.048,80.375,69.026,80.414,69.006,80.455 M65.896,77.118v0.034c-0.341,0-0.683,0-1.023,0
			c-0.239-0.004-0.39,0.096-0.39,0.35c-0.006,0.551-0.006,1.095,0,1.643c0,0.229,0.134,0.342,0.359,0.339
			c0.848-0.026,1.695-0.026,2.546-0.103c0.612-0.059,0.994-0.537,0.994-1.111c0-0.551-0.368-0.945-1.008-1.033
			C66.887,77.172,66.395,77.152,65.896,77.118"/>
		<path fill="#FFFFFF" d="M29.211,80.048c0-1.348,0-2.687,0-4.033c0.005-0.529,0.023-0.551,0.555-0.551c2.342,0,4.682,0,7.024,0
			c0.504,0,0.504,0.014,0.513,0.537c0,0.248,0.003,0.496,0,0.751c-0.009,0.453-0.026,0.473-0.478,0.473
			c-1.381,0.004-2.758,0-4.141,0.004c-0.183,0-0.372,0-0.556,0c-0.211,0-0.309,0.105-0.309,0.317
			c0.002,0.359,0.007,0.722-0.007,1.076c-0.008,0.31,0.134,0.408,0.422,0.407c0.756-0.013,1.519,0,2.277,0
			c0.606,0,1.208-0.004,1.812,0c0.501,0.001,0.51,0.018,0.514,0.534c0,0.203,0,0.404,0,0.609c-0.004,0.529-0.009,0.538-0.56,0.538
			c-1.159,0.006-2.322,0-3.486,0c-0.167,0-0.341,0-0.505,0.006c-0.428,0.011-0.464,0.043-0.466,0.445
			c-0.007,0.423-0.007,0.843,0,1.268c0.002,0.415,0.035,0.448,0.452,0.45c1.491,0.006,2.98,0,4.466,0.006
			c0.821,0,0.747-0.06,0.747,0.766c0,0.199-0.008,0.397,0,0.606c0.021,0.285-0.112,0.384-0.386,0.376
			c-0.493-0.007-0.99-0.003-1.486-0.003c-1.949,0-3.903,0.003-5.856,0c-0.531,0-0.54-0.011-0.545-0.559
			C29.211,82.729,29.211,81.386,29.211,80.048"/>
		<path fill="#FFFFFF" d="M51.532,80.03c0-1.347,0-2.688,0.007-4.029c0-0.506,0.021-0.537,0.518-0.537c2.356,0,4.713,0,7.067,0
			c0.479,0,0.5,0.025,0.503,0.497c0.004,0.235,0.004,0.473,0,0.707c0,0.557-0.003,0.557-0.582,0.557
			c-1.351,0.004-2.697,0-4.039,0.004c-0.974,0-0.871-0.087-0.871,0.887c0,0.987-0.116,0.912,0.887,0.914
			c1.214,0,2.418-0.002,3.627,0c0.485,0,0.508,0.021,0.508,0.495c0.008,0.287,0,0.568,0,0.847c0.008,0.233-0.1,0.341-0.334,0.34
			c-0.324-0.004-0.649,0.001-0.975,0.001c-1.072,0-2.14-0.001-3.21,0.008c-0.468,0-0.496,0.03-0.502,0.501
			c-0.002,0.394-0.002,0.78,0,1.175c0.006,0.452,0.034,0.484,0.475,0.487c0.838,0.005,1.669,0.005,2.513,0.005
			c0.761,0,1.515,0.003,2.273-0.005c0.296-0.009,0.427,0.099,0.407,0.407c-0.013,0.344-0.001,0.686,0,1.032
			c0,0.208-0.094,0.316-0.306,0.309c-0.096,0-0.184,0.005-0.28,0.005H52.11c-0.57,0-0.573-0.005-0.573-0.575
			C51.532,82.716,51.532,81.371,51.532,80.03"/>
		<path fill="#FFFFFF" d="M46.125,58.71c0.677,0,1.259-0.017,1.84,0.018c0.103,0.004,0.223,0.194,0.283,0.328
			c0.542,1.218,1.075,2.453,1.61,3.681c1.047,2.405,2.094,4.806,3.136,7.209c0.071,0.164,0.166,0.316,0.289,0.558
			c0.16-0.334,0.282-0.582,0.387-0.833c1.355-3.172,2.706-6.346,4.055-9.52c0.162-0.385,0.32-0.774,0.513-1.155
			c0.061-0.118,0.203-0.272,0.315-0.282c0.525-0.032,1.044-0.013,1.641-0.013c-0.062,0.204-0.084,0.331-0.136,0.453
			c-1.891,4.316-3.775,8.633-5.646,12.948c-0.145,0.346-0.401,0.417-0.702,0.417c-0.417-0.004-0.831-0.041-1.255-0.045
			c-0.262-0.004-0.376-0.15-0.471-0.369c-0.878-1.996-1.759-3.994-2.637-5.992c-1.007-2.299-2.012-4.601-3.023-6.901
			C46.271,59.086,46.222,58.953,46.125,58.71"/>
		<path fill="#FFFFFF" d="M102.783,70.929c0,0.427,0.024,0.803-0.018,1.169c-0.012,0.126-0.168,0.304-0.296,0.349
			c-0.394,0.132-0.804,0.251-1.214,0.305c-1.207,0.146-2.413,0.172-3.606-0.07c-2.078-0.429-3.243-1.778-3.661-3.814
			c-0.138-0.671-0.201-1.37-0.205-2.048c-0.021-3.805-0.012-7.619-0.012-11.434c0-0.15-0.021-0.322,0.016-0.464
			c0.036-0.101,0.166-0.251,0.251-0.256c0.432-0.03,0.865-0.023,1.299-0.013c0.306,0.003,0.274,0.237,0.274,0.44
			c0.006,1.125,0.006,2.25,0.006,3.378c0,0.106,0.004,0.211,0,0.325c-0.01,0.229,0.104,0.346,0.341,0.346
			c0.116,0,0.244,0.003,0.367,0.003h5.859c0.599,0,0.599,0.001,0.599,0.588c0.002,0.094,0,0.19,0,0.281
			c0.012,0.271-0.11,0.411-0.384,0.416c-0.133,0.005-0.274,0.005-0.418,0.005c-1.933,0-3.868,0-5.807,0
			c-0.542,0.003-0.554,0.016-0.558,0.552c-0.006,2.093-0.032,4.183,0.02,6.272c0.018,0.707,0.172,1.429,0.393,2.098
			c0.418,1.26,1.382,1.933,2.649,2.034c0.95,0.079,1.914,0.008,2.874-0.074C101.936,71.292,102.307,71.086,102.783,70.929"/>
		<path fill="#FFFFFF" d="M72.149,84.627c0.207-0.518,0.365-0.923,0.536-1.318c1.01-2.415,2.027-4.829,3.045-7.238
			c0.248-0.604,0.244-0.606,0.877-0.606c0.635,0,1.268,0.014,1.904-0.005c0.306-0.011,0.47,0.104,0.596,0.396
			c0.978,2.411,1.976,4.816,2.969,7.224c0.195,0.484,0.404,0.966,0.643,1.556h-0.726c-0.554,0-1.117-0.011-1.67,0.005
			c-0.311,0.011-0.498-0.096-0.591-0.399c-0.108-0.327-0.261-0.637-0.371-0.958c-0.085-0.235-0.227-0.346-0.482-0.346
			c-1.023,0.014-2.045,0.007-3.068,0.004c-0.229-0.004-0.376,0.088-0.451,0.314c-0.12,0.354-0.244,0.707-0.393,1.054
			c-0.057,0.125-0.188,0.303-0.29,0.306C73.873,84.639,73.07,84.627,72.149,84.627 M77.449,77.833
			c-0.056,0.005-0.108,0.005-0.156,0.008c-0.378,1.049-0.755,2.104-1.151,3.21h2.519C78.233,79.93,77.844,78.88,77.449,77.833"/>
		<path fill="#FFFFFF" d="M86.188,75.464c1.301,0,2.6,0,3.901,0c0.503,0,0.522,0.025,0.532,0.526c0.004,0.263,0.01,0.531-0.006,0.8
			c-0.016,0.366-0.093,0.421-0.449,0.421c-0.724-0.006-1.455-0.009-2.177,0.011c-0.448,0.007-0.46,0.042-0.46,0.497
			c-0.008,2.078-0.008,4.153-0.008,6.229c0,0.129,0,0.255,0,0.38c0.008,0.216-0.101,0.308-0.312,0.304
			c-0.668-0.004-1.336-0.004-1.999,0c-0.227,0.004-0.341-0.104-0.341-0.336c0-0.142-0.004-0.279-0.004-0.425c0-2.015,0-4.023,0-6.04
			c0-0.611-0.103-0.674-0.706-0.653c-0.686,0.021-1.364-0.012-2.044-0.021c-0.235-0.004-0.34-0.117-0.332-0.347
			c0-0.314,0.005-0.627-0.008-0.938c-0.014-0.311,0.119-0.413,0.414-0.408c0.927,0.008,1.857,0,2.788,0H86.188L86.188,75.464z"/>
		<path fill="#FFFFFF" d="M92.183,80.054c0-1.356-0.002-2.717,0-4.074c0-0.484,0.027-0.508,0.491-0.517
			c0.542-0.005,1.084-0.005,1.628,0c0.468,0,0.493,0.031,0.493,0.511c0,2.515,0,5.023,0,7.534c0,0.25-0.006,0.502,0,0.753
			c0.006,0.246-0.087,0.378-0.353,0.373c-0.634-0.007-1.267-0.007-1.907,0.005c-0.337,0.003-0.354-0.211-0.351-0.466
			C92.183,82.798,92.183,81.427,92.183,80.054"/>
	</g>
</g>
<g>
	<path fill="#FFFFFF" d="M81.997,87.666c0.108-0.133,0.274-0.095,0.246,0.063l-0.832,4.753c-0.032,0.18-0.298,0.188-0.265,0
		l0.757-4.329l-2.569,3.182c-0.083,0.117-0.231,0.117-0.272,0l-1.458-3.167l-0.756,4.314c-0.033,0.188-0.297,0.18-0.266,0
		l0.832-4.753c0.027-0.158,0.206-0.196,0.262-0.063l1.572,3.401L81.997,87.666z"/>
	<path fill="#FFFFFF" d="M83.378,91.201l-0.938,1.391c-0.104,0.148-0.31,0.03-0.204-0.125l3.343-4.927
		c0.032-0.046,0.083-0.07,0.13-0.07c0.048,0,0.082,0.024,0.097,0.07l1.627,4.927c0.05,0.155-0.197,0.273-0.249,0.125l-0.451-1.391
		H83.378z M85.642,87.854l-2.104,3.111h3.111L85.642,87.854z"/>
	<path fill="#FFFFFF" d="M90.774,89.882l2.366-2.287c0.143-0.149,0.309,0.018,0.166,0.165l-2.407,2.295l1.652,2.372
		c0.096,0.165-0.109,0.313-0.224,0.165l-1.614-2.365l-2.45,2.365c-0.159,0.148-0.336,0-0.167-0.165l2.476-2.372l-1.586-2.303
		c-0.101-0.14,0.116-0.307,0.215-0.157L90.774,89.882z"/>
	<path fill="#FFFFFF" d="M94.38,87.705c0.035-0.196,0.315-0.196,0.28,0l-0.835,4.77c-0.03,0.18-0.312,0.18-0.28,0L94.38,87.705z"/>
	<path fill="#FFFFFF" d="M97.899,91.052l-0.252,1.444c-0.031,0.174-0.288,0.174-0.26,0.009l0.834-4.768
		c0.015-0.079,0.088-0.134,0.157-0.134h1.771c1.317,0,1.832,0.896,1.678,1.783c-0.161,0.911-0.94,1.665-2.273,1.665H97.899z
		 M97.942,90.808h1.653c1.218,0,1.857-0.715,1.966-1.421c0.126-0.77-0.378-1.54-1.447-1.54h-1.653L97.942,90.808z"/>
	<path fill="#FFFFFF" d="M102.44,91.201l-0.938,1.391c-0.104,0.148-0.31,0.03-0.204-0.125l3.343-4.927
		c0.032-0.046,0.083-0.07,0.13-0.07c0.046,0,0.081,0.024,0.097,0.07l1.625,4.927c0.052,0.155-0.195,0.273-0.247,0.125l-0.451-1.391
		H102.44z M104.702,87.854l-2.104,3.111h3.113L104.702,87.854z"/>
	<path fill="#FFFFFF" d="M107.393,92.607c-0.117,0-0.193-0.095-0.175-0.205l0.806-4.595c0.018-0.11,0.126-0.195,0.243-0.195
		c0.688,0,1.116,0,1.811,0c3.058,0,2.183,4.995-0.876,4.995C108.508,92.607,108.079,92.607,107.393,92.607z M107.481,92.363
		c0.671,0,1.084,0,1.763,0c2.715,0,3.506-4.517,0.791-4.517c-0.678,0-1.091,0-1.763,0L107.481,92.363z"/>
	<path fill="#FFFFFF" d="M112.592,91.491c0.072,0.653,0.911,0.896,1.487,0.951c0.113,0.016,0.244,0.024,0.361,0.024
		c0.773,0,2.014-0.269,2.184-1.243c0.316-1.806-4.087-0.18-3.715-2.301c0.136-0.778,0.96-1.163,1.64-1.303
		c0.218-0.041,0.448-0.064,0.667-0.064c0.749,0,1.794,0.174,1.947,0.99c0.046,0.188-0.206,0.244-0.233,0.087
		c-0.136-0.739-1.085-0.841-1.749-0.841c-0.062,0-0.126,0.008-0.188,0.008c-0.569,0.039-1.42,0.267-1.728,0.864
		c-0.053,0.079-0.086,0.18-0.102,0.267c-0.315,1.799,4.079,0.228,3.719,2.287c-0.202,1.153-1.536,1.468-2.479,1.468
		c-0.796,0-1.968-0.219-2.058-1.132C112.326,91.397,112.573,91.326,112.592,91.491z"/>
</g>
</svg>
