<?xml version="1.0" encoding="utf-8"?>
<!-- Generator: Adobe Illustrator 15.1.0, SVG Export Plug-In . SVG Version: 6.00 Build 0)  -->
<!DOCTYPE svg PUBLIC "-//W3C//DTD SVG 1.1//EN" "http://www.w3.org/Graphics/SVG/1.1/DTD/svg11.dtd">
<svg version="1.1" id="Capa_1" xmlns="http://www.w3.org/2000/svg" xmlns:xlink="http://www.w3.org/1999/xlink" x="0px" y="0px"
	 width="139px" height="145px" viewBox="0 0 139 145" enable-background="new 0 0 139 145" xml:space="preserve">
<g>
	<g>
		<g>
			<g>
				<path fill="none" stroke="#4F5877" stroke-width="1.0057" stroke-miterlimit="10" d="M138.92,42.471l0.167-5.462
					c-2.387,0-4.389-1.544-5.12-3.687v-3.508c0.731-2.138,2.733-3.682,5.12-3.682l-0.059-4.648c-2.313,0-4.278-1.455-5.062-3.497
					v-3.88c0.783-2.045,2.748-3.501,5.062-3.501l0.057-4.744h-5.118V0.348L128.315,0.4c0,3.002-2.354,5.438-5.258,5.438
					c-2.9,0-5.25-2.437-5.25-5.438l-4.49-0.056c0,3.005-2.349,5.44-5.252,5.44c-2.901,0-5.254-2.436-5.254-5.44l-5.275-0.224
					c0,3.006-2.354,5.443-5.256,5.443s-5.258-2.438-5.258-5.443L82.54,0.234c0,3.003-2.35,5.439-5.253,5.439
					c-2.904,0-5.255-2.437-5.255-5.439l-5.961,0.053c0,3.008-2.352,5.443-5.255,5.443c-2.902,0-5.255-2.436-5.255-5.443
					l-4.485-0.105c0,3.006-2.352,5.438-5.255,5.438c-2.9,0-5.255-2.432-5.255-5.438l-5.273-0.166c0,3.004-2.353,5.438-5.258,5.438
					c-2.898,0-5.25-2.434-5.25-5.438l-4.49,0.054c0,3.005-2.35,5.442-5.252,5.442c-2.901,0-5.255-2.438-5.255-5.442L5.205,0.016
					v5.846H0.088l0.055,4.744c2.314,0,4.279,1.457,5.062,3.496v3.887c-0.783,2.041-2.748,3.496-5.062,3.496l-0.056,4.648
					c2.384,0,4.386,1.544,5.118,3.68v3.511c-0.732,2.14-2.734,3.686-5.118,3.686l0.166,5.462c2.211,0,4.104,1.326,4.953,3.223v4.438
					c-0.849,1.895-2.741,3.221-4.953,3.221l0.108,4.643c2.129,0,3.954,1.236,4.845,3.021v4.839
					c-0.891,1.784-2.716,3.021-4.845,3.021l-0.054,6.173c2.17,0,4.027,1.278,4.898,3.121v4.634
					c-0.871,1.842-2.729,3.124-4.898,3.124l-0.111,4.641c2.252,0,4.185,1.375,5.009,3.332v4.219
					c-0.824,1.957-2.757,3.334-5.009,3.334l0.221,5.457c2.087,0,3.877,1.191,4.788,2.918v5.048
					c-0.911,1.728-2.701,2.915-4.788,2.915l0.055,4.646c2.045,0,3.806,1.143,4.733,2.814v5.242c-0.927,1.676-2.688,2.82-4.733,2.82
					l-0.053,5.852h4.786v5.85l4.583-0.056c0-3.007,2.354-5.442,5.255-5.442c2.903,0,5.252,2.438,5.252,5.442l4.49,0.056
					c0-3.004,2.352-5.44,5.25-5.44c2.905,0,5.258,2.437,5.258,5.44l5.273-0.166c0-3.006,2.355-5.439,5.255-5.439
					c2.903,0,5.255,2.434,5.255,5.439l4.484-0.107c0-3.006,2.353-5.441,5.255-5.441c2.903,0,5.255,2.437,5.255,5.441l5.96,0.054
					c0-3.005,2.352-5.439,5.256-5.439c2.902,0,5.253,2.438,5.253,5.439l4.483,0.11c0-3.004,2.354-5.438,5.258-5.438
					c2.9,0,5.255,2.436,5.255,5.438l5.274-0.221c0-3.006,2.353-5.443,5.254-5.443c2.903,0,5.252,2.439,5.252,5.443l4.49-0.055
					c0-3.004,2.35-5.441,5.25-5.441c2.903,0,5.258,2.438,5.258,5.441l5.651,0.053v-5.518h4.788l-0.055-5.852
					c-2.047,0-3.805-1.145-4.733-2.82v-5.242c0.929-1.672,2.688-2.814,4.733-2.814l0.057-4.646c-2.087,0-3.879-1.189-4.79-2.918
					v-5.045c0.911-1.727,2.703-2.918,4.79-2.918l0.221-5.457c-2.255,0-4.188-1.377-5.011-3.336v-4.215
					c0.823-1.959,2.756-3.334,5.011-3.334l-0.109-4.644c-2.172,0-4.028-1.28-4.9-3.122v-4.632c0.872-1.845,2.729-3.124,4.9-3.124
					l-0.057-6.174c-2.128,0-3.953-1.234-4.845-3.021v-4.837c0.892-1.785,2.717-3.021,4.845-3.021l0.108-4.643
					c-2.213,0-4.104-1.326-4.953-3.224v-4.434C134.815,43.799,136.707,42.471,138.92,42.471z"/>
				
					<rect x="12.009" y="11.272" fill="#FACBC1" stroke="#4F5877" stroke-width="2" stroke-miterlimit="10" width="115.155" height="122.487"/>
			</g>
		</g>
	</g>
	<g>
		<g>
			<g>
				<path fill="#FFFFFF" d="M15.614,69.919c0.495-0.364,1.028-0.642,1.65-0.702c0.096-0.011,0.188-0.022,0.28-0.018
					c0.242,0.008,0.363,0.096,0.408,0.327c0.037,0.2,0.047,0.409,0.054,0.606c0.002,0.445,0,0.885,0,1.33
					c0,0.09,0.005,0.177,0.07,0.294c0.007-0.024,0.015-0.046,0.026-0.071c0.512-1.305,1.475-2.148,2.775-2.593
					c1.716-0.599,3.432-0.518,5.063,0.292c1.39,0.686,2.096,1.859,2.231,3.394c0.034,0.419,0.038,0.845,0.038,1.269
					c0.009,2.378,0.009,4.758,0.015,7.141c0,0.35,0,0.356-0.369,0.35c-0.451,0-0.904,0.007-1.353,0c-0.276,0-0.276,0-0.276-0.27
					c0.011-1.801,0.031-3.602,0.031-5.398c0-0.77,0-1.528-0.037-2.293c-0.037-0.78-0.182-1.533-0.496-2.256
					c-0.549-1.254-1.533-1.864-2.874-1.953c-2.296-0.15-3.725,1.398-4.292,3.052c-0.236,0.659-0.35,1.341-0.346,2.034
					c0.009,2.253,0.009,4.503,0.009,6.75c0,0.334,0,0.334-0.327,0.334c-0.43,0.007-0.853,0-1.276,0.007
					c-0.171,0.009-0.242-0.063-0.228-0.228c0.004-0.08,0-0.162,0-0.246c0-2.953,0.011-5.904-0.005-8.858
					c0-0.433-0.05-0.878-0.138-1.308c-0.063-0.351-0.236-0.667-0.634-0.769L15.614,69.919L15.614,69.919z"/>
			</g>
			<g>
				<g>
					<path fill="#FFFFFF" d="M43.207,81.572c-0.108,0.015-0.188,0.027-0.266,0.027c-0.488,0.007-0.978,0.007-1.46,0.007
						c-0.324,0-0.366-0.011-0.436-0.312c-0.163-0.682-0.297-1.37-0.454-2.058c-0.016,0.03-0.062,0.081-0.093,0.139
						c-0.845,1.507-2.173,2.252-3.849,2.45c-1.315,0.15-2.595,0.043-3.811-0.506c-0.866-0.385-1.593-0.936-2.021-1.8
						c-0.646-1.29-0.453-3.022,1.015-4.089c0.862-0.625,1.834-0.969,2.855-1.195c1.183-0.268,2.378-0.4,3.589-0.397
						c0.637,0,1.273-0.003,1.908,0.005c0.175,0.004,0.243-0.045,0.234-0.23c-0.021-0.635-0.066-1.266-0.229-1.889
						c-0.336-1.254-1.127-2.025-2.408-2.26c-1.404-0.254-2.736-0.072-3.949,0.712c-0.719,0.465-1.282,1.054-1.481,1.921
						c-0.057,0.237-0.164,0.262-0.342,0.082c-0.448-0.506-0.672-1.09-0.583-1.759c0.025-0.175,0.173-0.366,0.318-0.493
						c0.167-0.143,0.383-0.254,0.594-0.332c1.01-0.401,2.035-0.723,3.119-0.818c1.474-0.132,2.941-0.086,4.348,0.463
						c1.558,0.604,2.403,1.783,2.508,3.431c0.084,1.378,0.042,2.763,0.066,4.146c0.006,0.686-0.005,1.371,0.059,2.045
						c0.09,0.899,0.306,1.781,0.735,2.592C43.183,81.477,43.187,81.503,43.207,81.572 M40.428,75.402c0-0.209-0.009-0.453,0-0.686
						c0.017-0.193-0.05-0.261-0.247-0.258c-0.678,0.008-1.36-0.016-2.039,0.008c-1.016,0.039-2.026,0.135-2.985,0.492
						c-0.635,0.225-1.209,0.544-1.655,1.062c-0.538,0.639-0.724,1.391-0.693,2.213c0.043,1.154,0.554,2.026,1.576,2.575
						c0.77,0.401,1.587,0.5,2.444,0.423c0.686-0.062,1.338-0.234,1.907-0.646c0.736-0.522,1.127-1.271,1.366-2.12
						C40.378,77.472,40.406,76.453,40.428,75.402"/>
				</g>
			</g>
			<g>
				<g>
					<path fill="#FFFFFF" d="M73.55,81.572c-0.107,0.008-0.188,0.027-0.268,0.027c-0.498,0.004-0.993,0.004-1.491,0.004
						c-0.31,0-0.356-0.017-0.422-0.318c-0.136-0.57-0.243-1.154-0.362-1.729c-0.021-0.106-0.029-0.215-0.05-0.341
						c-0.04,0.031-0.071,0.045-0.078,0.062c-0.806,1.506-2.09,2.296-3.738,2.529c-1.319,0.184-2.613,0.094-3.853-0.431
						c-0.679-0.286-1.297-0.675-1.756-1.255c-1.168-1.441-0.943-3.459,0.521-4.602c0.871-0.691,1.895-1.043,2.96-1.283
						c1.254-0.283,2.527-0.409,3.817-0.397c0.558,0.009,1.12-0.003,1.678,0c0.144,0.005,0.231-0.017,0.231-0.19
						c0-0.801-0.078-1.6-0.371-2.358c-0.396-1.04-1.172-1.624-2.252-1.821c-1.479-0.274-2.867-0.063-4.112,0.812
						c-0.646,0.453-1.136,1.015-1.324,1.809c-0.06,0.251-0.157,0.273-0.332,0.09c-0.449-0.486-0.67-1.064-0.613-1.721
						c0.02-0.172,0.146-0.369,0.281-0.484c0.194-0.162,0.426-0.289,0.664-0.382c1.274-0.511,2.585-0.855,3.97-0.868
						c1.294-0.013,2.559,0.084,3.755,0.627c1.308,0.613,2.013,1.655,2.207,3.059c0.054,0.32,0.065,0.646,0.065,0.963
						c0.009,1.599-0.013,3.199,0.019,4.793c0.021,1.018,0.244,2.007,0.643,2.955C73.394,81.266,73.464,81.396,73.55,81.572
						 M69.369,74.463c0,0,0-0.016-0.005-0.022c-0.595,0.026-1.178,0.036-1.765,0.083c-0.849,0.069-1.683,0.223-2.464,0.566
						c-1.171,0.52-1.889,1.377-2.003,2.688c-0.102,1.298,0.426,2.55,1.794,3.129c1.11,0.475,2.239,0.463,3.367,0.078
						c0.758-0.252,1.333-0.752,1.696-1.455c0.199-0.363,0.35-0.755,0.453-1.156c0.338-1.225,0.302-2.48,0.291-3.733
						c0-0.155-0.082-0.18-0.205-0.175h-1.159V74.463z"/>
				</g>
			</g>
			<g>
				<g>
					<path fill="#FFFFFF" d="M101.067,81.58h-0.734c-0.322,0-0.639,0.007-0.964,0.007c-0.302,0-0.37-0.026-0.435-0.317
						c-0.138-0.63-0.255-1.265-0.375-1.896c-0.016-0.055-0.021-0.109-0.039-0.193c-0.056,0.049-0.106,0.072-0.125,0.111
						c-0.914,1.654-2.373,2.389-4.199,2.539c-1.137,0.095-2.227-0.039-3.277-0.449c-0.771-0.303-1.443-0.745-1.938-1.425
						c-0.92-1.255-0.883-3.253,0.633-4.423c0.809-0.623,1.74-0.967,2.705-1.212c0.938-0.234,1.898-0.382,2.867-0.414
						c0.938-0.028,1.879-0.036,2.816-0.05c0.314-0.006,0.335-0.01,0.32-0.33c-0.036-0.68-0.088-1.356-0.291-2.012
						c-0.361-1.121-1.105-1.822-2.252-2.051c-1.485-0.294-2.904-0.124-4.182,0.752c-0.669,0.454-1.195,1.029-1.394,1.848
						c-0.063,0.246-0.129,0.258-0.31,0.071c-0.451-0.485-0.646-1.065-0.578-1.726c0.024-0.225,0.162-0.407,0.357-0.5
						c0.409-0.199,0.816-0.387,1.241-0.541c1.42-0.524,2.892-0.698,4.401-0.598c0.832,0.062,1.664,0.202,2.444,0.527
						c1.401,0.588,2.171,1.657,2.375,3.146c0.048,0.312,0.062,0.637,0.062,0.962c0.011,1.487-0.004,2.966,0.011,4.455
						c0.004,1.075,0.198,2.128,0.595,3.129C100.869,81.17,100.96,81.341,101.067,81.58 M96.794,74.445L96.794,74.445
						c-0.217,0-0.443,0-0.661,0c-1.08,0.015-2.149,0.128-3.179,0.504c-1.291,0.482-2.165,1.347-2.287,2.791
						c-0.104,1.188,0.242,2.188,1.263,2.896c0.759,0.534,1.636,0.663,2.541,0.644c1.761-0.045,2.979-0.967,3.487-2.656
						c0.387-1.303,0.373-2.637,0.367-3.973c0-0.16-0.088-0.205-0.229-0.205C97.668,74.449,97.231,74.445,96.794,74.445"/>
				</g>
			</g>
			<g>
				<g>
					<path fill="#FFFFFF" d="M117.946,73.621h-4.7c-0.369,0-0.382,0-0.429,0.377c-0.166,1.24-0.043,2.465,0.297,3.668
						c0.224,0.818,0.607,1.561,1.19,2.186c0.748,0.784,1.694,1.178,2.744,1.291c1.11,0.123,2.195,0.003,3.19-0.545
						c1.494-0.825,2.515-2.043,3.062-3.666c0.029-0.076,0.047-0.175,0.106-0.215c0.062-0.06,0.171-0.104,0.24-0.076
						c0.062,0.018,0.133,0.135,0.133,0.203c-0.018,0.172-0.051,0.35-0.1,0.512c-0.631,1.975-1.959,3.277-3.875,4.001
						c-1.045,0.397-2.144,0.571-3.256,0.497c-2.006-0.127-3.622-1.025-4.805-2.668c-0.771-1.072-1.166-2.283-1.266-3.607
						c-0.216-2.921,1.741-5.702,4.57-6.512c2.193-0.628,4.314-0.387,6.266,0.856c1.117,0.71,1.84,1.729,2.123,3.049
						c0.09,0.429,0.029,0.554-0.414,0.61c-0.233,0.031-0.478,0.039-0.715,0.039C120.858,73.621,119.399,73.621,117.946,73.621
						 M116.998,73.033h3.569c0.146,0,0.295,0,0.438-0.031c0.174-0.035,0.278-0.147,0.253-0.34c-0.152-1.424-0.848-2.455-2.184-3.012
						c-0.827-0.344-1.684-0.364-2.562-0.266c-0.67,0.08-1.306,0.299-1.858,0.711c-0.901,0.661-1.36,1.596-1.651,2.645
						c-0.073,0.275-0.058,0.291,0.235,0.291h3.759V73.033z"/>
				</g>
			</g>
			<g>
				<path fill="#FFFFFF" d="M81.682,68.703c1.558,0.043,3.041,0.365,4.479,0.924c0.242,0.096,0.488,0.23,0.679,0.41
					c0.128,0.123,0.228,0.348,0.228,0.533c0.018,0.568-0.166,1.082-0.539,1.525c-0.043,0.049-0.092,0.092-0.149,0.124
					c-0.088,0.071-0.147,0.037-0.185-0.063c-0.008-0.021-0.014-0.047-0.021-0.08c-0.201-0.832-0.71-1.423-1.425-1.856
					c-1.315-0.792-2.746-1.058-4.252-0.776c-1.483,0.279-2.438,1.21-3.002,2.579c-0.318,0.765-0.462,1.573-0.529,2.396
					c-0.089,0.986-0.065,1.966,0.179,2.934c0.297,1.183,0.838,2.228,1.813,2.992c0.748,0.587,1.599,0.874,2.53,0.925
					c1.854,0.096,3.34-0.689,4.553-2.033c0.273-0.305,0.499-0.658,0.76-0.981c0.059-0.075,0.169-0.114,0.251-0.168
					c0.054,0.104,0.124,0.204,0.142,0.312c0.015,0.07-0.032,0.17-0.08,0.229c-0.959,1.464-2.188,2.604-3.937,3.017
					c-2.306,0.541-4.43,0.131-6.292-1.384c-1.156-0.938-1.869-2.171-2.124-3.642c-0.292-1.696-0.062-3.311,0.854-4.793
					c0.988-1.592,2.459-2.51,4.265-2.891C80.468,68.812,81.085,68.777,81.682,68.703"/>
			</g>
			<g>
				<path fill="#FFFFFF" d="M52.528,69.729c0.08-0.088,0.13-0.162,0.202-0.215c0.522-0.404,1.121-0.631,1.784-0.646
					c0.271-0.011,0.385,0.075,0.411,0.335c0.039,0.269,0.05,0.534,0.051,0.801c0.009,0.681,0.007,1.366,0.041,2.062
					c0.039-0.049,0.074-0.104,0.107-0.166c0.35-0.675,0.781-1.307,1.347-1.842c0.878-0.855,1.949-1.287,3.168-1.395
					c0.302-0.026,0.46,0.115,0.427,0.418c-0.059,0.623-0.265,1.201-0.611,1.727c-0.094,0.139-0.191,0.172-0.346,0.074
					c-1.04-0.687-2.095-0.484-2.83,0.526c-0.45,0.616-0.688,1.323-0.852,2.058c-0.176,0.811-0.27,1.628-0.29,2.465
					c-0.008,0.857-0.028,1.715-0.021,2.572c0,0.9,0.017,1.809,0.032,2.713c0.002,0.328-0.011,0.352-0.332,0.352h-1.127
					c-0.375,0-0.375-0.005-0.375-0.369c0-3.283,0-6.564,0-9.853c0-0.125,0-0.259-0.021-0.385
					C53.229,70.447,53.076,69.986,52.528,69.729"/>
			</g>
			<g>
				<path fill="#FFFFFF" d="M105.462,72.136c0.107-0.19,0.206-0.386,0.312-0.575c0.752-1.314,1.787-2.293,3.282-2.693
					c0.347-0.092,0.707-0.133,1.067-0.161c0.281-0.021,0.384,0.081,0.355,0.355c-0.058,0.612-0.259,1.188-0.605,1.708
					c-0.081,0.137-0.204,0.184-0.334,0.057c-0.837-0.762-2.178-0.405-2.876,0.599c-0.472,0.688-0.735,1.448-0.865,2.257
					c-0.118,0.719-0.194,1.441-0.229,2.17c-0.053,0.963-0.045,1.935-0.045,2.903c0,0.808,0.021,1.621,0.035,2.433
					c0.008,0.332-0.009,0.348-0.336,0.348c-0.402,0.005-0.807,0-1.214,0.005c-0.175,0-0.253-0.067-0.243-0.245
					c0.002-0.094,0-0.185,0-0.279c0-3.243,0.002-6.49-0.01-9.742c0-0.305-0.059-0.627-0.162-0.912
					c-0.072-0.201-0.251-0.384-0.421-0.525c-0.147-0.125-0.14-0.195-0.009-0.299c0.422-0.311,0.884-0.532,1.408-0.602
					c0.031-0.008,0.07-0.011,0.106-0.021c0.564-0.066,0.679,0,0.695,0.582c0.024,0.691,0.017,1.4,0.021,2.1v0.523
					C105.422,72.121,105.444,72.133,105.462,72.136"/>
			</g>
			<g>
				<path fill="#FFFFFF" d="M46.296,75.977v-5.234c-0.003-0.317-0.003-0.319-0.316-0.319c-0.411,0-0.828,0.006-1.237-0.005
					c-0.085-0.006-0.176-0.074-0.255-0.117c0.047-0.082,0.077-0.18,0.141-0.236c0.085-0.08,0.188-0.125,0.286-0.178
					c1.367-0.738,2.358-1.805,2.772-3.343c0.005-0.019,0.009-0.032,0.021-0.056c0.06-0.127,0.098-0.322,0.285-0.258
					c0.064,0.014,0.12,0.207,0.12,0.318c0.011,0.977,0.005,1.957,0.005,2.936c0,0.316,0.005,0.316,0.322,0.316
					c0.595,0,1.197,0,1.792,0.003c0.125,0,0.304-0.053,0.299,0.181c-0.01,0.33-0.085,0.435-0.313,0.435
					c-0.602,0.006-1.211,0-1.821,0.004c-0.267,0.002-0.278,0.005-0.278,0.276c0,0.699,0.005,1.402,0,2.104
					c-0.007,2.622-0.025,5.253-0.028,7.877c0,0.226,0.013,0.447,0.028,0.664c0.011,0.17-0.061,0.262-0.236,0.262
					c-0.447-0.002-0.881-0.002-1.327,0c-0.192,0-0.261-0.079-0.261-0.271c0.009-0.528,0.003-1.064,0.003-1.603v-3.756H46.296z"/>
			</g>
		</g>
	</g>
</g>
<g>
	<path fill="#FFFFFF" d="M57.597,88.604h0.013c0.075-0.097,0.158-0.187,0.249-0.271c0.091-0.083,0.193-0.156,0.305-0.22
		c0.113-0.062,0.236-0.112,0.37-0.147s0.28-0.053,0.439-0.053c0.188,0,0.363,0.027,0.528,0.08s0.307,0.138,0.428,0.254
		c0.121,0.118,0.217,0.271,0.288,0.46c0.07,0.188,0.106,0.421,0.106,0.696v2.795h-0.671v-2.686c0-0.359-0.068-0.619-0.206-0.777
		s-0.337-0.237-0.6-0.237c-0.23,0-0.454,0.065-0.67,0.195c-0.216,0.131-0.403,0.31-0.559,0.538v2.967h-0.671v-4.175h0.52
		L57.597,88.604z"/>
	<path fill="#FFFFFF" d="M64.028,91.737h-0.017c-0.055,0.07-0.124,0.14-0.208,0.208c-0.084,0.069-0.181,0.131-0.29,0.185
		c-0.11,0.055-0.229,0.098-0.359,0.13s-0.268,0.048-0.416,0.048c-0.199,0-0.381-0.029-0.547-0.09
		c-0.166-0.06-0.309-0.147-0.428-0.264c-0.12-0.115-0.213-0.257-0.279-0.424s-0.1-0.355-0.1-0.566c0-0.208,0.037-0.395,0.11-0.559
		s0.177-0.303,0.31-0.418c0.132-0.113,0.292-0.201,0.478-0.264c0.186-0.061,0.392-0.092,0.617-0.092
		c0.213,0.003,0.411,0.021,0.593,0.057c0.182,0.035,0.344,0.08,0.485,0.133h0.018V89.53c0-0.113-0.007-0.215-0.022-0.303
		c-0.014-0.088-0.039-0.165-0.073-0.232c-0.075-0.141-0.195-0.258-0.359-0.35c-0.165-0.093-0.387-0.139-0.667-0.139
		c-0.208,0-0.403,0.02-0.586,0.06c-0.183,0.039-0.366,0.095-0.547,0.165v-0.572c0.069-0.035,0.15-0.067,0.245-0.099
		c0.094-0.03,0.192-0.057,0.296-0.079c0.104-0.021,0.213-0.038,0.329-0.051c0.116-0.011,0.231-0.018,0.346-0.018
		c0.416,0,0.755,0.075,1.02,0.225c0.264,0.149,0.454,0.348,0.569,0.594c0.043,0.094,0.074,0.196,0.093,0.31
		c0.019,0.112,0.028,0.236,0.028,0.371v2.786h-0.562L64.028,91.737z M63.994,90.366c-0.124-0.035-0.27-0.069-0.439-0.102
		c-0.17-0.032-0.356-0.05-0.56-0.053c-0.285,0-0.507,0.062-0.668,0.185s-0.241,0.312-0.241,0.567c0,0.129,0.02,0.241,0.06,0.338
		c0.041,0.097,0.096,0.177,0.166,0.239c0.07,0.063,0.154,0.11,0.25,0.141c0.096,0.031,0.199,0.046,0.308,0.046
		c0.144,0,0.277-0.021,0.4-0.063c0.124-0.042,0.233-0.093,0.33-0.151s0.178-0.117,0.246-0.176s0.117-0.104,0.149-0.137V90.366z"/>
	<path fill="#FFFFFF" d="M68.131,92.207c-0.058,0.023-0.146,0.045-0.264,0.065c-0.118,0.021-0.259,0.032-0.424,0.035
		c-0.216,0-0.404-0.026-0.562-0.081c-0.159-0.054-0.291-0.132-0.396-0.232c-0.105-0.102-0.184-0.224-0.236-0.367
		c-0.052-0.144-0.078-0.304-0.078-0.479v-2.539h-0.792v-0.585h0.792v-1.143h0.671v1.143h1.229v0.585h-1.229v2.434
		c0,0.098,0.014,0.187,0.041,0.269s0.071,0.153,0.13,0.213c0.059,0.061,0.135,0.107,0.227,0.141
		c0.092,0.034,0.204,0.051,0.333,0.051c0.089,0,0.184-0.007,0.283-0.022c0.1-0.014,0.191-0.033,0.275-0.057V92.207z"/>
	<path fill="#FFFFFF" d="M70.672,92.308c-0.214,0-0.406-0.023-0.576-0.07c-0.17-0.046-0.319-0.112-0.448-0.197
		s-0.237-0.187-0.327-0.306c-0.09-0.118-0.16-0.248-0.212-0.389c-0.041-0.105-0.069-0.221-0.086-0.347s-0.026-0.264-0.026-0.414
		v-2.562h0.671v2.558c0,0.231,0.03,0.425,0.091,0.58c0.069,0.176,0.181,0.314,0.335,0.415c0.154,0.102,0.352,0.151,0.591,0.151
		c0.253,0,0.458-0.055,0.612-0.166s0.265-0.261,0.331-0.449c0.049-0.143,0.073-0.32,0.073-0.531v-2.558h0.671v2.566
		c0,0.141-0.008,0.271-0.024,0.394c-0.016,0.121-0.041,0.233-0.075,0.336c-0.052,0.144-0.123,0.276-0.214,0.397
		c-0.091,0.122-0.203,0.227-0.336,0.314s-0.286,0.156-0.461,0.204C71.088,92.284,70.891,92.308,70.672,92.308z"/>
	<path fill="#FFFFFF" d="M75.882,88.577H75.83c-0.158,0-0.314,0.015-0.467,0.044c-0.154,0.029-0.297,0.074-0.432,0.134
		c-0.134,0.061-0.255,0.135-0.363,0.223c-0.107,0.088-0.198,0.191-0.271,0.312v2.909h-0.671v-4.175h0.52l0.13,0.663h0.013
		c0.066-0.107,0.148-0.209,0.244-0.303c0.098-0.094,0.206-0.176,0.328-0.246c0.121-0.07,0.253-0.125,0.397-0.165
		c0.144-0.039,0.296-0.06,0.454-0.06c0.029,0,0.059,0.001,0.089,0.003c0.03,0.001,0.058,0.004,0.08,0.007V88.577z"/>
	<path fill="#FFFFFF" d="M79.002,91.737h-0.018c-0.055,0.07-0.123,0.14-0.207,0.208c-0.084,0.069-0.181,0.131-0.29,0.185
		c-0.11,0.055-0.229,0.098-0.359,0.13s-0.269,0.048-0.415,0.048c-0.199,0-0.382-0.029-0.548-0.09
		c-0.166-0.06-0.309-0.147-0.429-0.264c-0.119-0.115-0.213-0.257-0.279-0.424s-0.1-0.355-0.1-0.566c0-0.208,0.037-0.395,0.111-0.559
		c0.073-0.164,0.176-0.303,0.309-0.418c0.133-0.113,0.293-0.201,0.479-0.264c0.186-0.061,0.392-0.092,0.617-0.092
		c0.213,0.003,0.41,0.021,0.592,0.057c0.183,0.035,0.344,0.08,0.485,0.133h0.018V89.53c0-0.113-0.007-0.215-0.022-0.303
		c-0.014-0.088-0.039-0.165-0.072-0.232c-0.076-0.141-0.195-0.258-0.359-0.35c-0.165-0.093-0.387-0.139-0.667-0.139
		c-0.208,0-0.403,0.02-0.587,0.06c-0.183,0.039-0.365,0.095-0.547,0.165v-0.572c0.069-0.035,0.15-0.067,0.244-0.099
		c0.094-0.03,0.193-0.057,0.297-0.079c0.104-0.021,0.213-0.038,0.328-0.051c0.116-0.011,0.231-0.018,0.347-0.018
		c0.415,0,0.755,0.075,1.02,0.225c0.264,0.149,0.454,0.348,0.569,0.594c0.043,0.094,0.074,0.196,0.093,0.31
		c0.019,0.112,0.028,0.236,0.028,0.371v2.786h-0.562L79.002,91.737z M78.968,90.366c-0.124-0.035-0.271-0.069-0.439-0.102
		c-0.17-0.032-0.356-0.05-0.56-0.053c-0.285,0-0.508,0.062-0.668,0.185c-0.161,0.123-0.242,0.312-0.242,0.567
		c0,0.129,0.021,0.241,0.061,0.338c0.041,0.097,0.096,0.177,0.166,0.239c0.07,0.063,0.154,0.11,0.25,0.141
		c0.096,0.031,0.199,0.046,0.309,0.046c0.143,0,0.276-0.021,0.4-0.063c0.123-0.042,0.232-0.093,0.329-0.151s0.179-0.117,0.245-0.176
		c0.068-0.059,0.117-0.104,0.149-0.137V90.366z"/>
	<path fill="#FFFFFF" d="M80.98,92.198v-6.363h0.67v6.363H80.98z"/>
	<path fill="#FFFFFF" d="M86.398,92.308c-0.213,0-0.405-0.023-0.576-0.07c-0.17-0.046-0.318-0.112-0.447-0.197
		s-0.237-0.187-0.326-0.306c-0.09-0.118-0.16-0.248-0.213-0.389c-0.041-0.105-0.069-0.221-0.086-0.347
		c-0.018-0.126-0.026-0.264-0.026-0.414v-2.562h0.671v2.558c0,0.231,0.03,0.425,0.091,0.58c0.069,0.176,0.181,0.314,0.335,0.415
		c0.154,0.102,0.352,0.151,0.592,0.151c0.253,0,0.457-0.055,0.611-0.166s0.266-0.261,0.332-0.449
		c0.049-0.143,0.072-0.32,0.072-0.531v-2.558H88.1v2.566c0,0.141-0.008,0.271-0.024,0.394c-0.016,0.121-0.041,0.233-0.075,0.336
		c-0.053,0.144-0.123,0.276-0.215,0.397c-0.09,0.122-0.203,0.227-0.335,0.314c-0.133,0.088-0.286,0.156-0.461,0.204
		C86.814,92.284,86.617,92.308,86.398,92.308z"/>
	<path fill="#FFFFFF" d="M89.397,92.198v-6.363h0.671v6.363H89.397z"/>
	<path fill="#FFFFFF" d="M93.578,92.207c-0.058,0.023-0.146,0.045-0.264,0.065c-0.119,0.021-0.26,0.032-0.424,0.035
		c-0.217,0-0.404-0.026-0.562-0.081c-0.16-0.054-0.291-0.132-0.396-0.232c-0.105-0.102-0.184-0.224-0.236-0.367
		c-0.052-0.144-0.078-0.304-0.078-0.479v-2.539h-0.791v-0.585h0.791v-1.143h0.672v1.143h1.229v0.585h-1.229v2.434
		c0,0.098,0.014,0.187,0.041,0.269s0.07,0.153,0.129,0.213c0.06,0.061,0.135,0.107,0.228,0.141c0.093,0.034,0.204,0.051,0.333,0.051
		c0.09,0,0.184-0.007,0.283-0.022c0.1-0.014,0.191-0.033,0.275-0.057V92.207z"/>
	<path fill="#FFFFFF" d="M96.742,88.577h-0.053c-0.158,0-0.314,0.015-0.467,0.044c-0.153,0.029-0.297,0.074-0.431,0.134
		c-0.134,0.061-0.255,0.135-0.364,0.223c-0.107,0.088-0.197,0.191-0.27,0.312v2.909h-0.672v-4.175h0.52l0.131,0.663h0.013
		c0.065-0.107,0.147-0.209,0.244-0.303s0.206-0.176,0.327-0.246s0.254-0.125,0.398-0.165c0.144-0.039,0.295-0.06,0.454-0.06
		c0.028,0,0.058,0.001,0.089,0.003c0.029,0.001,0.057,0.004,0.08,0.007V88.577z"/>
	<path fill="#FFFFFF" d="M99.861,91.737h-0.017c-0.055,0.07-0.124,0.14-0.208,0.208c-0.084,0.069-0.18,0.131-0.289,0.185
		c-0.11,0.055-0.23,0.098-0.359,0.13c-0.131,0.032-0.269,0.048-0.416,0.048c-0.199,0-0.381-0.029-0.547-0.09
		c-0.166-0.06-0.309-0.147-0.429-0.264c-0.12-0.115-0.213-0.257-0.279-0.424s-0.1-0.355-0.1-0.566c0-0.208,0.036-0.395,0.11-0.559
		s0.177-0.303,0.31-0.418c0.132-0.113,0.292-0.201,0.478-0.264c0.187-0.061,0.393-0.092,0.617-0.092
		c0.213,0.003,0.411,0.021,0.593,0.057c0.183,0.035,0.344,0.08,0.485,0.133h0.018V89.53c0-0.113-0.008-0.215-0.022-0.303
		s-0.039-0.165-0.073-0.232c-0.075-0.141-0.195-0.258-0.359-0.35c-0.164-0.093-0.387-0.139-0.666-0.139
		c-0.208,0-0.404,0.02-0.587,0.06c-0.183,0.039-0.366,0.095-0.548,0.165v-0.572c0.07-0.035,0.15-0.067,0.245-0.099
		c0.094-0.03,0.192-0.057,0.296-0.079c0.104-0.021,0.214-0.038,0.329-0.051c0.116-0.011,0.231-0.018,0.347-0.018
		c0.415,0,0.755,0.075,1.02,0.225c0.264,0.149,0.453,0.348,0.568,0.594c0.043,0.094,0.074,0.196,0.094,0.31
		c0.018,0.112,0.027,0.236,0.027,0.371v2.786h-0.562L99.861,91.737z M99.828,90.366c-0.124-0.035-0.271-0.069-0.439-0.102
		c-0.17-0.032-0.357-0.05-0.561-0.053c-0.285,0-0.508,0.062-0.668,0.185s-0.241,0.312-0.241,0.567c0,0.129,0.021,0.241,0.06,0.338
		c0.041,0.097,0.096,0.177,0.166,0.239c0.07,0.063,0.154,0.11,0.25,0.141c0.097,0.031,0.199,0.046,0.309,0.046
		c0.144,0,0.277-0.021,0.4-0.063c0.123-0.042,0.233-0.093,0.33-0.151c0.096-0.059,0.178-0.117,0.245-0.176s0.117-0.104,0.149-0.137
		V90.366z"/>
	<path fill="#FFFFFF" d="M107.215,90.062c0,0.29-0.028,0.547-0.084,0.771c-0.057,0.224-0.132,0.419-0.225,0.587
		c-0.093,0.166-0.201,0.307-0.326,0.419c-0.125,0.113-0.254,0.204-0.387,0.272c-0.133,0.069-0.269,0.119-0.406,0.149
		c-0.138,0.031-0.268,0.046-0.389,0.046c-0.252,0-0.471-0.041-0.656-0.125c-0.186-0.083-0.353-0.207-0.5-0.371h-0.014v2.43h-0.658
		v-6.218h0.507l0.144,0.475h0.013c0.037-0.059,0.085-0.115,0.145-0.171s0.139-0.115,0.238-0.179c0.1-0.062,0.22-0.117,0.359-0.165
		c0.14-0.046,0.292-0.07,0.456-0.07c0.23,0,0.454,0.04,0.669,0.119s0.405,0.205,0.569,0.378s0.297,0.395,0.396,0.666
		C107.165,89.347,107.215,89.676,107.215,90.062z M106.514,90.071c0-0.243-0.025-0.461-0.076-0.654s-0.127-0.358-0.229-0.495
		c-0.102-0.136-0.227-0.24-0.374-0.313s-0.319-0.11-0.514-0.11c-0.14,0-0.267,0.02-0.381,0.058s-0.218,0.086-0.312,0.145
		c-0.092,0.059-0.172,0.122-0.239,0.189c-0.066,0.067-0.12,0.127-0.161,0.18v2.184c0.143,0.147,0.305,0.263,0.486,0.348
		c0.181,0.085,0.376,0.127,0.585,0.127c0.128,0,0.263-0.023,0.405-0.072c0.142-0.048,0.273-0.135,0.393-0.259
		c0.121-0.125,0.221-0.294,0.299-0.508S106.514,90.402,106.514,90.071z"/>
	<path fill="#FFFFFF" d="M110.682,91.737h-0.018c-0.055,0.07-0.124,0.14-0.207,0.208c-0.084,0.069-0.182,0.131-0.291,0.185
		c-0.109,0.055-0.229,0.098-0.359,0.13c-0.129,0.032-0.268,0.048-0.415,0.048c-0.198,0-0.382-0.029-0.548-0.09
		c-0.166-0.06-0.309-0.147-0.428-0.264c-0.12-0.115-0.213-0.257-0.279-0.424s-0.1-0.355-0.1-0.566c0-0.208,0.037-0.395,0.11-0.559
		s0.177-0.303,0.31-0.418c0.133-0.113,0.292-0.201,0.479-0.264c0.186-0.061,0.391-0.092,0.616-0.092
		c0.214,0.003,0.411,0.021,0.593,0.057s0.344,0.08,0.484,0.133h0.018V89.53c0-0.113-0.007-0.215-0.021-0.303
		c-0.014-0.088-0.039-0.165-0.073-0.232c-0.075-0.141-0.194-0.258-0.359-0.35c-0.165-0.093-0.387-0.139-0.667-0.139
		c-0.207,0-0.402,0.02-0.586,0.06c-0.184,0.039-0.365,0.095-0.547,0.165v-0.572c0.068-0.035,0.15-0.067,0.244-0.099
		c0.094-0.03,0.192-0.057,0.297-0.079c0.104-0.021,0.213-0.038,0.328-0.051c0.115-0.011,0.23-0.018,0.346-0.018
		c0.416,0,0.756,0.075,1.02,0.225s0.454,0.348,0.569,0.594c0.044,0.094,0.074,0.196,0.093,0.31c0.02,0.112,0.028,0.236,0.028,0.371
		v2.786h-0.562L110.682,91.737z M110.646,90.366c-0.123-0.035-0.27-0.069-0.439-0.102s-0.355-0.05-0.56-0.053
		c-0.284,0-0.507,0.062-0.668,0.185s-0.241,0.312-0.241,0.567c0,0.129,0.02,0.241,0.061,0.338c0.04,0.097,0.096,0.177,0.166,0.239
		c0.07,0.063,0.153,0.11,0.25,0.141c0.096,0.031,0.198,0.046,0.308,0.046c0.144,0,0.276-0.021,0.4-0.063
		c0.124-0.042,0.233-0.093,0.329-0.151c0.097-0.059,0.179-0.117,0.246-0.176s0.117-0.104,0.148-0.137V90.366z"/>
	<path fill="#FFFFFF" d="M112.378,90.163c0-0.289,0.028-0.547,0.085-0.771c0.056-0.225,0.13-0.42,0.223-0.587
		c0.092-0.167,0.2-0.307,0.324-0.42c0.124-0.112,0.252-0.204,0.385-0.274s0.268-0.121,0.405-0.151
		c0.137-0.031,0.267-0.047,0.388-0.047c0.25,0,0.469,0.043,0.652,0.128c0.186,0.085,0.352,0.21,0.498,0.374h0.014v-2.58h0.67v6.363
		h-0.506l-0.139-0.466h-0.018c-0.052,0.067-0.112,0.136-0.182,0.204c-0.068,0.069-0.15,0.132-0.244,0.188s-0.202,0.1-0.324,0.134
		c-0.123,0.033-0.266,0.05-0.427,0.05c-0.226,0-0.446-0.038-0.662-0.116c-0.216-0.077-0.409-0.202-0.577-0.373
		c-0.17-0.172-0.306-0.393-0.41-0.664C112.43,90.884,112.378,90.554,112.378,90.163z M113.079,90.155c0,0.24,0.026,0.457,0.08,0.652
		c0.054,0.194,0.13,0.36,0.231,0.496c0.102,0.137,0.225,0.241,0.372,0.314s0.315,0.109,0.507,0.109c0.141,0,0.27-0.019,0.385-0.057
		s0.219-0.086,0.31-0.145s0.169-0.121,0.233-0.188c0.064-0.065,0.116-0.126,0.154-0.182v-2.185c-0.139-0.144-0.299-0.259-0.48-0.345
		c-0.182-0.087-0.379-0.13-0.589-0.13c-0.127,0-0.261,0.024-0.4,0.072c-0.14,0.049-0.271,0.136-0.39,0.262s-0.219,0.295-0.297,0.508
		C113.118,89.552,113.079,89.824,113.079,90.155z"/>
	<path fill="#FFFFFF" d="M117.844,89.136c0,0.113,0.023,0.208,0.072,0.281c0.048,0.073,0.111,0.132,0.192,0.178
		c0.08,0.045,0.173,0.083,0.279,0.111c0.105,0.03,0.215,0.057,0.327,0.08c0.156,0.035,0.303,0.073,0.441,0.116
		c0.138,0.042,0.266,0.106,0.383,0.19c0.117,0.086,0.211,0.2,0.283,0.346c0.072,0.145,0.107,0.333,0.107,0.564
		c0,0.211-0.04,0.397-0.121,0.561c-0.08,0.162-0.195,0.299-0.342,0.408c-0.146,0.11-0.323,0.193-0.527,0.251
		c-0.205,0.057-0.431,0.085-0.676,0.085c-0.15,0-0.286-0.008-0.409-0.023c-0.122-0.017-0.23-0.037-0.324-0.062
		c-0.094-0.025-0.174-0.051-0.24-0.077s-0.121-0.051-0.165-0.074v-0.572c0.17,0.07,0.339,0.127,0.506,0.168
		c0.168,0.041,0.352,0.061,0.553,0.061c0.158,0,0.302-0.014,0.43-0.043c0.127-0.029,0.236-0.073,0.328-0.13
		c0.093-0.058,0.164-0.129,0.213-0.216c0.05-0.086,0.074-0.187,0.074-0.301c0-0.117-0.022-0.214-0.068-0.29
		c-0.045-0.076-0.105-0.139-0.182-0.188s-0.166-0.091-0.266-0.123c-0.102-0.032-0.207-0.062-0.316-0.088
		c-0.145-0.032-0.291-0.07-0.439-0.115c-0.149-0.043-0.285-0.105-0.406-0.184c-0.122-0.08-0.221-0.188-0.295-0.323
		c-0.076-0.137-0.113-0.312-0.113-0.525c0-0.22,0.039-0.41,0.117-0.571s0.184-0.295,0.316-0.4s0.287-0.184,0.463-0.236
		s0.361-0.08,0.559-0.08c0.227,0,0.438,0.022,0.633,0.066c0.195,0.044,0.372,0.1,0.531,0.167v0.58
		c-0.17-0.067-0.341-0.122-0.514-0.165c-0.174-0.042-0.352-0.064-0.534-0.068c-0.155,0-0.287,0.017-0.397,0.049
		c-0.109,0.032-0.199,0.077-0.27,0.134c-0.07,0.058-0.122,0.125-0.154,0.202C117.859,88.956,117.844,89.042,117.844,89.136z"/>
</g>
</svg>
